<svg xmlns="http://www.w3.org/2000/svg" viewBox="0 0 5.36 13.56"><path d="M0 8.02c0-.99.39-1.87 1.17-2.66s1.62-1.18 2.52-1.18c.51 0 .9.11 1.19.33s.44.5.45.86c0 .26-.09.48-.26.67s-.39.28-.65.29c-.17 0-.31-.05-.41-.14s-.15-.23-.15-.41.05-.33.15-.46.2-.22.3-.29.16-.09.19-.08h.01s-.03-.05-.08-.08-.15-.07-.29-.11-.29-.05-.46-.05c-.27 0-.53.06-.77.19-.19.08-.38.22-.58.42q-.6.6-.87 1.68c-.18.72-.28 1.25-.29 1.57 0 .42.12.73.35.94.2.22.46.33.79.33h.05c1.01 0 1.85-.38 2.51-1.15.08-.09.14-.14.16-.14q.06 0 .18.12c.12.12.13.14.14.19s-.03.11-.12.2-.22.22-.39.38-.38.3-.61.41-.52.22-.87.34-.71.17-1.09.15c-.68 0-1.23-.22-1.64-.65C.21 9.26 0 8.7-.01 8.03Z"/></svg>