<svg xmlns="http://www.w3.org/2000/svg" viewBox="0 0 6.18 13.56"><path d="M.99 1.4c0-.09.02-.19.05-.31s.09-.18.16-.18c0 0 .33-.02.98-.07.64-.05.97-.07.99-.08.11 0 .16.04.16.11 0 .06-.23 1.01-.68 2.84-.45 1.79-.68 2.72-.68 2.78.17-.09.3-.18.39-.26.22-.16.53-.45.94-.86s.72-.68.95-.83c.36-.24.71-.37 1.03-.37.27 0 .48.09.64.26s.24.42.24.73c0 .23-.03.42-.1.57s-.15.27-.26.34-.2.12-.29.15-.16.04-.24.04c-.18 0-.33-.05-.43-.15s-.16-.23-.16-.39c0-.23.07-.41.22-.56s.29-.24.43-.29l.22-.04c-.11-.11-.22-.16-.33-.16h-.05c-.29.03-.57.14-.86.34s-.61.49-.99.87-.68.66-.9.83c.02 0 .09.02.2.04s.23.05.33.08.22.07.35.11.26.1.37.19.21.17.3.24.17.19.23.35.09.31.08.45c0 .15-.02.34-.07.56s-.07.4-.08.54c0 .36.12.54.37.54.43 0 .79-.54 1.06-1.62.02-.07.11-.11.27-.11h.05c.14 0 .22.04.22.12 0 .05-.01.11-.04.19-.37 1.28-.9 1.91-1.6 1.91-.41 0-.74-.12-.99-.35-.25-.24-.38-.57-.38-1.02 0-.16.01-.3.04-.42s.04-.23.04-.33c0-.2-.06-.37-.19-.52s-.29-.25-.48-.31-.34-.11-.46-.15-.2-.05-.24-.04h-.03c-.11.38-.2.75-.29 1.1s-.14.62-.19.79-.09.34-.12.5-.07.27-.1.33-.06.11-.1.18a.3.3 0 0 1-.15.12c-.12.08-.24.12-.38.12-.15 0-.27-.05-.35-.14s-.12-.17-.12-.23c0-.09.17-.81.5-2.17s.67-2.69.99-4l.5-1.97c0-.12-.02-.19-.1-.22s-.25-.05-.53-.07h-.24s-.06-.01-.1-.04-.05-.06-.04-.1Z"/></svg>