<svg xmlns="http://www.w3.org/2000/svg" viewBox="0 0 6.45 13.56"><path d="M0 6.28c0-.13.07-.34.2-.65s.35-.63.65-.96.63-.5 1-.49c.37 0 .67.1.9.31s.34.5.35.87c-.02.17-.03.27-.04.29 0 .03-.07.24-.22.62s-.29.83-.45 1.32-.23.88-.22 1.17c0 .39.06.66.19.81s.32.24.57.24c.21 0 .4-.05.58-.15s.32-.2.42-.31.22-.26.37-.45c0 0 .02-.1.07-.27s.11-.44.19-.8.17-.7.26-1q.51-2.04.57-2.13c.12-.24.31-.37.58-.37.12 0 .21.03.29.1s.12.12.15.16.04.09.03.12c0 .12-.22 1.07-.67 2.85-.44 1.78-.7 2.76-.76 2.93-.25.75-.69 1.35-1.32 1.79-.62.44-1.25.67-1.87.68-.41 0-.76-.1-1.07-.3s-.46-.5-.46-.9c0-.2.03-.37.1-.5s.15-.24.26-.3.2-.11.27-.14.15-.04.23-.04q.6 0 .6.57c0 .18-.05.34-.16.48s-.21.23-.31.27-.16.07-.18.07h-.04c.02.06.1.11.26.18.15.06.31.1.46.1h.11c.15 0 .27 0 .35-.03.3-.08.57-.25.83-.52.25-.26.45-.54.58-.84s.24-.55.31-.76.11-.34.11-.41l-.08.05c-.05.04-.14.09-.26.15s-.24.12-.35.16c-.18.05-.36.07-.53.07-.42 0-.78-.1-1.1-.3s-.52-.52-.62-.96c0-.06-.01-.2-.01-.42 0-.52.16-1.19.48-2.02q.48-1.245.48-1.59v-.19s-.02-.06-.05-.1-.09-.05-.15-.05h-.05c-.21 0-.4.09-.57.26s-.31.36-.41.56-.18.39-.23.57-.09.28-.11.3-.09.03-.22.03H.08C.03 6.36 0 6.31 0 6.29Z"/></svg>