<svg viewBox="0 0 114.22 45.8" xmlns="http://www.w3.org/2000/svg"><g id="a"><g><g><g><path id="b" d="m24.3 17.98h.19c.35 0 .57-.06.64-.19v-.87c0-.17 0-.37.01-.58s0-.44 0-.68 0-.48 0-.75v-.77-2.89c0-.24 0-.43-.01-.6s0-.24 0-.23c-.03-.17-.09-.29-.19-.34s-.3-.1-.61-.12h-.24v-.31c0-.21 0-.31.03-.31h.14c.09-.02.22-.03.39-.04.17 0 .34-.02.5-.03.15 0 .32-.02.5-.03.18 0 .32-.02.41-.04s.14-.02.15-.01h.04v4.28c0 2.87 0 4.31.01 4.33.04.07.09.12.16.15.19.03.41.04.67.04h.22v.62h-.42c-.21-.02-.43-.03-.67-.03s-.41 0-.52-.01-.28 0-.52 0-.46.02-.68.03h-.31s-.11.01-.11.01v-.62h.22z"/><path id="c" d="m27.89 15.7c0-.86.29-1.6.88-2.23.59-.62 1.3-.94 2.13-.95.81 0 1.52.31 2.1.92s.89 1.36.9 2.24c0 .86-.29 1.58-.87 2.17s-1.29.88-2.13.88-1.6-.3-2.16-.91-.85-1.32-.86-2.13zm3.01 2.49c1.1 0 1.66-.74 1.66-2.21v-.77c0-.2 0-.37-.01-.52s-.04-.32-.1-.52-.13-.36-.22-.49-.23-.25-.42-.38-.41-.22-.67-.27c-.05 0-.12-.01-.22-.01-.27 0-.53.05-.77.16-.39.2-.64.48-.76.83s-.18.77-.18 1.25v.27c0 .87.09 1.48.26 1.83.29.55.76.83 1.43.83z"/><path id="d" d="m38.76 13.05c.4-.4.85-.6 1.36-.6.27 0 .47.09.58.26s.18.34.18.52c0 .13-.04.24-.12.34s-.2.15-.37.15c-.3 0-.47-.14-.5-.41-.02-.13 0-.22.04-.29 0 0 0-.02.01-.04-.25.01-.49.11-.72.29-.07.05-.11.08-.11.1 0 0 .02.03.05.07s.08.09.12.16.1.15.15.24.1.21.12.35.05.29.05.45c0 .56-.22 1.04-.67 1.43s-.99.59-1.64.6c-.45 0-.9-.13-1.34-.38-.1.16-.15.33-.15.52 0 .32.12.55.35.71.08.05.16.08.23.08s.4 0 .98.03c.76 0 1.25.04 1.47.08.55.08.99.27 1.3.56.35.35.53.8.53 1.33 0 .61-.35 1.07-1.06 1.4-.54.28-1.19.42-1.93.42s-1.4-.14-1.94-.42c-.71-.32-1.06-.77-1.06-1.36 0-.33.1-.6.29-.81s.38-.37.57-.45l.15-.08c-.33-.28-.49-.66-.49-1.14 0-.43.13-.81.39-1.15-.4-.4-.6-.85-.6-1.34 0-.57.23-1.05.68-1.44s1-.59 1.64-.6c.46 0 .89.12 1.29.35l.15.1zm-.41.9c-.05-.25-.16-.45-.35-.6s-.43-.22-.71-.23c-.26 0-.49.07-.68.22s-.31.35-.35.61c-.03.15-.04.38-.04.69 0 .4.03.69.1.88s.2.35.41.48c.15.09.35.14.58.14.2 0 .37-.03.52-.1.14-.06.25-.14.31-.24s.11-.19.15-.27.06-.15.07-.2c.03-.14.04-.37.04-.68s-.01-.54-.04-.69zm1.41 5.67c0-.23-.06-.41-.19-.56-.13-.14-.31-.25-.56-.31-.24-.06-.47-.1-.67-.12s-.44-.03-.73-.03h-.37c-.61 0-.97.03-1.09.08-.18.08-.32.21-.42.38s-.15.35-.16.54c0 .09.03.19.08.31s.15.25.29.41c.14.15.35.28.65.38s.66.15 1.09.16c.62 0 1.13-.13 1.51-.38s.57-.54.57-.87z"/></g><g><path id="e" d="m42.36 15.21c0-.62.05-1.22.14-1.78s.19-1.05.31-1.45c.12-.41.29-.81.5-1.19s.39-.69.52-.91.32-.45.57-.71c.25-.25.4-.41.45-.46s.16-.15.34-.29h.23c.13 0 .19.04.19.12 0 .03-.08.12-.23.29s-.34.4-.56.72-.44.71-.67 1.17-.42 1.09-.57 1.87-.23 1.66-.23 2.62.08 1.83.23 2.61.34 1.41.56 1.89.44.87.67 1.17.42.54.57.72.23.28.23.29c0 .08-.07.12-.2.12h-.22l-.38-.33c-.85-.77-1.47-1.73-1.86-2.88s-.58-2.34-.58-3.58z"/><path id="f" d="m46.81 16.47c0-.91.34-1.78 1.03-2.61.69-.82 1.46-1.24 2.32-1.25.46 0 .87.22 1.22.67.14-.27.35-.41.62-.41.12 0 .22.04.31.11s.14.16.14.27c0 .12-.17.84-.5 2.17s-.51 2.08-.52 2.25c0 .23.03.38.1.45.06.07.16.11.29.12.08 0 .17-.05.27-.12.19-.18.38-.62.56-1.3.05-.18.1-.28.14-.29.02 0 .06-.01.14-.01h.05c.17 0 .26.04.26.12 0 .05-.02.18-.07.37s-.14.43-.27.73-.28.52-.43.68c-.12.12-.26.21-.43.29-.07.02-.18.03-.33.03-.31 0-.57-.07-.77-.2s-.34-.28-.41-.42l-.08-.2s-.03 0-.05.01l-.05.05c-.53.51-1.08.76-1.63.76-.5 0-.94-.18-1.32-.54s-.57-.94-.57-1.72zm4.32-2.32c0-.05-.02-.15-.07-.3s-.15-.3-.31-.48-.37-.26-.62-.27c-.32 0-.62.14-.91.42s-.52.65-.68 1.1c-.26.71-.45 1.46-.56 2.23v.15c0 .07 0 .13-.01.16 0 .41.08.69.24.84s.36.24.58.24c.34 0 .68-.15 1.02-.45.33-.3.53-.53.6-.69.02-.04.14-.52.37-1.45s.34-1.43.35-1.51z"/><path id="g" d="m54.6 18.13v-.34c0-.23.07-.42.22-.58s.34-.24.58-.24.48.11.68.34.3.62.31 1.19c0 .32-.04.62-.12.92s-.18.56-.29.77-.23.4-.35.56-.24.28-.33.37-.15.13-.18.12c-.04 0-.1-.04-.18-.12s-.12-.14-.12-.18.05-.11.15-.22.21-.24.34-.41c.13-.16.24-.39.35-.68s.18-.62.22-.99v-.16h-.01s-.04.03-.07.04-.05.02-.08.04-.07.03-.12.03-.11 0-.16.01c-.24 0-.44-.08-.6-.23l-.24-.24z"/><path id="h" d="m60.57 9.82c0-.09.02-.19.05-.31s.09-.18.16-.18c0 0 .33-.02.98-.07.64-.05.97-.07.99-.08.11 0 .16.04.16.12s-.15.73-.46 1.94c-.07.31-.15.62-.23.95s-.15.57-.2.73l-.05.26s.03.01.08-.04c.44-.36.9-.54 1.37-.54.56 0 1.01.21 1.36.62s.52.94.53 1.57c0 1-.36 1.91-1.07 2.73s-1.48 1.22-2.31 1.22c-.45 0-.86-.17-1.24-.52-.37-.34-.56-.9-.57-1.67v-.12c0-.19.04-.45.11-.79s.29-1.23.67-2.67c.45-1.78.68-2.73.68-2.84s-.17-.17-.52-.19h-.35s-.06-.01-.1-.04-.05-.06-.04-.1zm3.57 4.37v-.08c0-.67-.28-1-.83-1-.15 0-.31.04-.48.11s-.31.17-.45.29-.25.23-.35.33-.18.2-.24.3l-.08.11-.29 1.17c-.2.78-.3 1.33-.3 1.66 0 .43.11.76.33.98.14.14.33.22.54.22.3 0 .6-.14.91-.43.23-.21.41-.46.54-.76s.29-.77.45-1.43.24-1.13.24-1.44z"/><path id="i" d="m66.22 8.43h.05s.09-.01.14-.01h.16l.38.33c.85.77 1.47 1.73 1.86 2.88s.58 2.34.58 3.58c0 .62-.05 1.21-.14 1.78s-.19 1.05-.31 1.45-.29.8-.5 1.19c-.22.4-.39.7-.52.91s-.31.44-.56.69-.39.4-.43.45-.15.13-.31.26l-.05.05h-.31s-.05-.01-.07-.04-.03-.07-.04-.12c0 0 .06-.07.15-.18 1.4-1.46 2.1-3.61 2.1-6.45s-.7-4.99-2.1-6.45c-.09-.11-.14-.17-.15-.18 0-.07.02-.12.07-.15z"/></g><path id="j" d="m75.21 13.89c0-.12.06-.21.19-.27h8.65c.14.07.2.16.2.27 0 .1-.06.19-.19.26h-4.32s-4.32.01-4.32.01c-.14-.05-.22-.14-.22-.27zm0 2.63c0-.14.07-.23.22-.27h8.63c.13.09.19.18.19.27 0 .12-.07.21-.2.27h-8.65c-.13-.06-.19-.15-.19-.27z"/><g><g><g><path id="k" d="m93.02 8.8h.19c.35 0 .57-.06.64-.19v-.87c0-.17 0-.37.01-.58s0-.44 0-.68 0-.48 0-.75v-.77-2.89c0-.24 0-.43-.01-.6s0-.24 0-.23c-.03-.17-.09-.29-.19-.34s-.3-.1-.61-.12h-.24v-.31c0-.21 0-.31.03-.31h.14c.09-.02.22-.03.39-.04.17 0 .34-.02.5-.03.15 0 .32-.02.5-.03.18 0 .32-.02.41-.04s.14-.02.15-.01h.04v4.28c0 2.87 0 4.31.01 4.33.04.07.09.12.16.15.19.03.41.04.67.04h.22v.62h-.42c-.21-.02-.43-.03-.67-.03s-.41 0-.52-.01-.28 0-.52 0-.46.02-.68.03h-.31s-.11.01-.11.01v-.62h.22z"/><path id="l" d="m96.78 8.8h.19c.35 0 .57-.06.64-.19v-.84c0-.15 0-.33.01-.53s0-.39 0-.57v-.9c0-.32 0-.58-.01-.8v-.31c-.03-.17-.09-.29-.19-.34s-.3-.1-.61-.12h-.24v-.31c0-.21 0-.31.03-.31h.14c.09-.02.22-.03.38-.04s.33-.02.5-.03c.15 0 .32-.02.49-.03.17 0 .3-.02.39-.04s.14-.02.15-.01h.04v.54c0 .34 0 .52.01.52s.03-.02.07-.07.09-.11.16-.2.16-.17.26-.24.23-.16.39-.26.33-.17.52-.22.41-.07.69-.07c1.03.04 1.61.55 1.72 1.53 0 .06.01.69.01 1.89v1.17c0 .34 0 .55.03.61s.07.11.15.14c.19.03.41.04.67.04h.22v.62h-.43c-.21-.02-.43-.03-.68-.03s-.42 0-.52-.01c-.93 0-1.44.01-1.52.04h-.11v-.62h.22c.55 0 .83-.07.83-.22 0-.02.01-.64.01-1.87 0-1.22-.02-1.87-.03-1.94-.05-.25-.14-.44-.27-.57s-.24-.2-.33-.23-.21-.04-.35-.03c-.41 0-.76.15-1.07.46-.24.24-.4.49-.46.75s-.1.63-.11 1.13v1.68c0 .27 0 .45.01.54 0 .09.02.15.04.18s.06.05.12.08c.19.03.41.04.67.04h.22v.62h-.42c-.22-.02-.45-.03-.69-.03s-.42 0-.52-.01c-.93 0-1.44.01-1.52.04h-.11v-.62h.22z"/></g><path id="m" d="m107.02.64c0-.09.02-.19.05-.31s.09-.18.16-.18c0 0 .33-.02.98-.07.64-.05.97-.07.99-.08.11 0 .16.04.16.12s-.15.73-.46 1.94c-.07.31-.15.62-.23.95s-.15.57-.2.73l-.05.26s.03.01.08-.04c.44-.36.9-.54 1.37-.54.56 0 1.01.21 1.36.62s.52.94.53 1.57c0 1-.36 1.91-1.07 2.73s-1.48 1.22-2.31 1.22c-.45 0-.86-.17-1.24-.52-.37-.34-.56-.9-.57-1.67v-.12c0-.19.04-.45.11-.79s.29-1.23.67-2.67c.45-1.78.68-2.73.68-2.84s-.17-.17-.52-.19h-.35s-.06-.01-.1-.04-.05-.06-.04-.1zm3.57 4.37v-.08c0-.67-.28-1-.83-1-.15 0-.31.04-.48.11s-.31.17-.45.29-.25.23-.35.33-.18.2-.24.3l-.08.11-.29 1.17c-.2.78-.3 1.33-.3 1.66 0 .43.11.76.33.98.14.14.33.22.54.22.3 0 .6-.14.91-.43.23-.21.41-.46.54-.76s.29-.77.45-1.43.24-1.13.24-1.44z"/></g><g><g><path id="n" d="m92.34 27.29h.19c.35 0 .57-.06.64-.19v-.87c0-.17 0-.37.01-.58s0-.44 0-.68 0-.48 0-.75v-.77-2.89c0-.24 0-.43-.01-.6s0-.24 0-.23c-.03-.17-.09-.29-.19-.34s-.3-.1-.61-.12h-.24v-.31c0-.21 0-.31.03-.31h.14c.09-.02.22-.03.39-.04.17 0 .34-.02.5-.03.15 0 .32-.02.5-.03.18 0 .32-.02.41-.04s.14-.02.15-.01h.04v4.28c0 2.87 0 4.31.01 4.33.04.07.09.12.16.15.19.03.41.04.67.04h.22v.62h-.42c-.21-.02-.43-.03-.67-.03s-.41 0-.52-.01-.28 0-.52 0-.46.02-.68.03h-.31s-.11.01-.11.01v-.62h.22z"/><path id="o" d="m96.1 27.29h.19c.35 0 .57-.06.64-.19v-.84c0-.15 0-.33.01-.53s0-.39 0-.57v-.9c0-.32 0-.58-.01-.8v-.31c-.03-.17-.09-.29-.19-.34s-.3-.1-.61-.12h-.24v-.31c0-.21 0-.31.03-.31h.14c.09-.02.22-.03.38-.04s.33-.02.5-.03c.15 0 .32-.02.49-.03.17 0 .3-.02.39-.04s.14-.02.15-.01h.04v.54c0 .34 0 .52.01.52s.03-.02.07-.07.09-.11.16-.2.16-.17.26-.24.23-.16.39-.26.33-.17.52-.22.41-.07.69-.07c1.03.04 1.61.55 1.72 1.53 0 .06.01.69.01 1.89v1.17c0 .34 0 .55.03.61s.07.11.15.14c.19.03.41.04.67.04h.22v.62h-.43c-.21-.02-.43-.03-.68-.03s-.42 0-.52-.01c-.93 0-1.44.01-1.52.04h-.11v-.62h.22c.55 0 .83-.07.83-.22 0-.02.01-.64.01-1.87 0-1.22-.02-1.87-.03-1.94-.05-.25-.14-.44-.27-.57s-.24-.2-.33-.23-.21-.04-.35-.03c-.41 0-.76.15-1.07.46-.24.24-.4.49-.46.75s-.1.63-.11 1.13v1.68c0 .27 0 .45.01.54 0 .09.02.15.04.18s.06.05.12.08c.19.03.41.04.67.04h.22v.62h-.42c-.22-.02-.45-.03-.69-.03s-.42 0-.52-.01c-.93 0-1.44.01-1.52.04h-.11v-.62h.22z"/></g><path id="p" d="m105.8 25.78c0-.91.34-1.78 1.03-2.61.69-.82 1.46-1.24 2.32-1.25.46 0 .87.22 1.22.67.14-.27.35-.41.62-.41.12 0 .22.04.31.11s.14.16.14.27c0 .12-.17.84-.5 2.17s-.51 2.08-.52 2.25c0 .23.03.38.1.45.06.07.16.11.29.12.08 0 .17-.05.27-.12.19-.18.38-.62.56-1.3.05-.18.1-.28.14-.29.02 0 .06-.01.14-.01h.05c.17 0 .26.04.26.12 0 .05-.02.18-.07.37s-.14.43-.27.73-.28.52-.43.68c-.12.12-.26.21-.43.29-.07.02-.18.03-.33.03-.31 0-.57-.07-.77-.2s-.34-.28-.41-.42l-.08-.2s-.03 0-.05.01l-.05.05c-.53.51-1.08.76-1.63.76-.5 0-.94-.18-1.32-.54s-.57-.94-.57-1.72zm4.32-2.32c0-.05-.02-.15-.07-.3s-.15-.3-.31-.48-.37-.26-.62-.27c-.32 0-.62.14-.91.42s-.52.65-.68 1.1c-.26.71-.45 1.46-.56 2.23v.15c0 .07 0 .13-.01.16 0 .41.08.69.24.84s.36.24.58.24c.34 0 .68-.15 1.02-.45.33-.3.53-.53.6-.69.02-.04.14-.52.37-1.45s.34-1.43.35-1.51z"/></g><rect x="90.41" y="14.8" width="23.48" height=".81"/></g></g><g><path id="q" d="m0 40.28c0-.91.34-1.78 1.03-2.61.69-.82 1.46-1.24 2.32-1.25.46 0 .87.22 1.22.67.14-.27.35-.41.62-.41.12 0 .22.04.31.11s.14.16.14.27c0 .12-.17.84-.5 2.17s-.51 2.08-.52 2.25c0 .23.03.38.1.45.06.07.16.11.29.12.08 0 .17-.05.27-.12.19-.18.38-.62.56-1.3.05-.18.1-.28.14-.29.02 0 .06-.01.14-.01h.05c.17 0 .26.04.26.12 0 .05-.02.18-.07.37s-.14.43-.27.73-.28.52-.43.68c-.12.12-.26.21-.43.29-.07.02-.18.03-.33.03-.31 0-.57-.07-.77-.2s-.34-.28-.41-.42l-.08-.2s-.03 0-.05.01l-.05.05c-.53.51-1.08.76-1.63.76-.5 0-.94-.18-1.32-.54s-.57-.94-.57-1.72zm4.32-2.32c0-.05-.02-.15-.07-.3s-.15-.3-.31-.48-.37-.26-.62-.27c-.32 0-.62.14-.91.42s-.52.65-.68 1.1c-.26.71-.45 1.46-.56 2.23v.15c0 .07 0 .13-.01.16 0 .41.08.69.24.84s.36.24.58.24c.34 0 .68-.15 1.02-.45.33-.3.53-.53.6-.69.02-.04.14-.52.37-1.45s.34-1.43.35-1.51z"/><path id="r" d="m11.64 39.01c0-1.1.37-2.01 1.11-2.71.74-.71 1.62-1.11 2.63-1.21h.23c.14 0 .33 0 .57-.01s.46 0 .68 0h1.34c.14.07.2.16.2.27 0 .08-.06.17-.18.26h-1.41c-1 .02-1.62.05-1.86.1-.44.11-.84.27-1.18.49s-.61.44-.8.67-.35.48-.49.75-.22.49-.24.65-.05.32-.07.46v.03h6.03c.14.07.2.16.2.27s-.07.2-.2.27h-6.03v.03c0 .19.05.42.14.69s.24.57.45.88c.21.32.5.61.87.87s.81.45 1.32.56c.24.05.87.09 1.87.1h1.41c.12.09.18.18.18.27 0 .11-.07.2-.2.27h-1.66c-.16 0-.29 0-.39.01-1.4 0-2.51-.39-3.33-1.17-.8-.74-1.19-1.67-1.19-2.78z"/><g><path id="s" d="m32.61 40.63c0 .05-.05.15-.16.3s-.29.32-.53.52-.52.39-.81.57c-.3.18-.68.33-1.14.46s-.93.19-1.4.19c-.51 0-1-.07-1.49-.22-.49-.14-.95-.37-1.38-.67s-.81-.7-1.13-1.19c-.32-.5-.53-1.07-.64-1.72-.05-.2-.07-.56-.07-1.09s.02-.89.07-1.09c.2-1.06.65-1.92 1.34-2.58.7-.66 1.59-1.06 2.69-1.19.03 0 .13 0 .31-.01s.32-.01.42-.01c.49.03.98.14 1.47.33s.86.29 1.11.3c.16 0 .28-.03.35-.1s.11-.14.12-.22.03-.15.07-.22.1-.1.19-.11c.1 0 .18.05.24.16v2.84l-.05.1c-.12.06-.23.07-.34.03-.04-.04-.08-.14-.14-.33s-.16-.38-.31-.61c-.3-.42-.7-.8-1.19-1.14-.5-.34-1.03-.52-1.59-.52h-.12c-.4 0-.77.17-1.11.52-.79.71-1.18 2.01-1.18 3.92 0 .79.1 1.5.29 2.13.37 1.35 1.15 2.02 2.33 2.02s2.23-.45 3.2-1.36c.15-.15.27-.23.34-.23.05 0 .1.02.15.05s.09.09.1.16zm-5.89-6.71c.13-.16.18-.24.15-.24-.21.07-.42.18-.64.31s-.46.32-.72.56-.49.55-.69.94-.34.82-.42 1.3c-.05.27-.07.6-.07.99s.02.72.07.99c.09.5.24.95.46 1.34s.45.71.69.92.48.4.72.54.43.24.58.3l.23.07c-.06-.06-.12-.13-.18-.19-.59-.57-.96-1.5-1.13-2.8-.03-.24-.04-.65-.04-1.22s.01-.98.04-1.22c.17-1.13.48-2 .94-2.59zm5.04.82v-.81s-.07.03-.11.03c-.09.04-.19.05-.31.05h-.2l.18.19c.18.2.28.32.3.35l.15.19z"/><path id="t" d="m35.33 33.84c-.08-.86-.12-1.34-.12-1.44 0-.12.08-.2.23-.27h.05s.04 0 .06 0c.08 0 .15.04.21.09s.1.12.1.19c0 .11-.02.36-.06.77s-.06.63-.07.67l.56-.4c.36-.26.55-.4.59-.42s.06-.03.1-.03c.08 0 .16.03.23.1s.11.15.12.26c0 .08-.03.16-.1.22-.03.02-.25.12-.65.32s-.62.29-.65.31l.63.3.67.34c.06.06.09.13.09.22 0 .1-.03.18-.09.24s-.13.1-.23.11c-.05 0-.11-.02-.17-.06s-.24-.17-.53-.38l-.56-.4c.08.86.12 1.34.12 1.44 0 .06-.02.12-.07.18s-.13.09-.25.09-.2-.03-.25-.09-.07-.12-.08-.18c0-.11.02-.36.06-.77s.06-.63.07-.67l-.56.4c-.36.26-.55.4-.59.42-.03.02-.06.03-.1.03-.08 0-.16-.03-.23-.1-.07-.06-.11-.15-.12-.26v-.08s0-.04.03-.06.04-.04.05-.06.04-.04.09-.07.09-.05.12-.07.1-.05.18-.09.16-.07.24-.11.18-.08.31-.14.26-.13.38-.19l-1.31-.62c-.06-.06-.09-.13-.09-.22 0-.1.03-.18.09-.24s.13-.1.23-.11c.05 0 .11.02.17.06s.24.17.53.38l.56.4z"/></g><path id="u" d="m42.38 32.49c0-.08.03-.14.08-.19s.11-.07.18-.07c.09 0 .17.05.23.14.04.06.84 2.26 2.42 6.58 1.57 4.33 2.36 6.52 2.36 6.6s-.03.13-.08.18-.12.07-.19.08c-.09 0-.17-.05-.23-.14-.03-.04-.83-2.22-2.4-6.54-1.57-4.33-2.36-6.54-2.36-6.64z"/><path id="v" d="m57.32 45.54c0 .12-.03.2-.08.26h-.24c-1.17 0-1.98-.3-2.44-.9-.05-.06-.08-.12-.11-.16s-.05-.1-.07-.15-.04-.11-.05-.18-.03-.13-.03-.2 0-.17-.01-.3-.01-.25-.01-.37v-1.86c0-.81-.03-1.26-.07-1.36 0 0-.01-.02-.01-.03-.13-.33-.35-.58-.68-.76s-.65-.27-.96-.27c-.1 0-.16-.01-.19-.04s-.04-.1-.04-.22.01-.19.04-.22.09-.04.19-.04c.31 0 .62-.09.95-.27s.56-.43.69-.76c.05-.1.07-.24.07-.43s0-.88.01-2.06v-.68c0-.5.03-.85.08-1.05s.19-.39.39-.57c.24-.24.6-.43 1.09-.57.33-.07.57-.11.72-.12h.18c.1 0 .18 0 .24-.01h.27c.05.05.08.14.08.24 0 .12-.01.19-.04.22-.02.03-.09.04-.22.04-.48.03-.86.14-1.13.33s-.43.38-.49.57c-.05.12-.07.79-.07 2.01v1.11c0 .43-.01.71-.04.87s-.1.33-.23.53c-.28.39-.67.66-1.18.8l-.19.07.19.07c.16.05.33.12.49.2s.35.24.57.46.34.49.38.8c0 .05.01.67.01 1.85s.02 1.89.07 2.01c.09.24.29.45.58.61s.64.26 1.03.29c.13 0 .2.01.22.04.03.03.04.1.04.2z"/><path id="w" d="m61.11 34.56-.18.07c-.13.05-.31.09-.54.14s-.5.08-.79.1h-.26v-.62h.26c.43-.02.82-.09 1.18-.2s.62-.23.76-.33.27-.2.38-.3c.02-.03.07-.04.16-.04.08 0 .16.03.23.08v8.13c.08.06.13.1.18.12s.15.04.33.05.45.03.84.03h.35v.62h-.15c-.19-.03-.91-.04-2.16-.04s-1.94.01-2.13.04h-.16v-.62h.87c.14 0 .26 0 .34-.01s.15-.02.22-.04.1-.03.11-.03.04-.02.08-.07.07-.06.08-.05v-7.02z"/><path id="x" d="m65.88 32.49c0-.13.01-.2.04-.22s.12-.03.27-.04c.75 0 1.33.11 1.74.34s.69.48.86.75c.08.19.13.35.14.48s.02.73.03 1.82c0 1.26.02 1.91.03 1.95.12.41.35.71.71.9s.68.29.98.3c.1 0 .16.01.19.04s.04.1.04.22-.01.19-.04.22-.09.04-.19.04c-.33 0-.66.1-.98.29s-.53.43-.64.72c-.05.13-.07.29-.08.49 0 .2-.01.87-.01 2.02v.69c0 .5-.03.85-.08 1.05s-.19.39-.39.57c-.49.47-1.24.71-2.27.71-.16 0-.26-.01-.29-.04s-.04-.1-.04-.23v-.1s0-.03.01-.07.02-.05.04-.05.05 0 .11-.01c.13 0 .27-.01.42-.04s.33-.07.52-.14.36-.17.5-.31.25-.32.33-.52c0-.05.02-.69.03-1.93v-1.85c.13-.52.45-.93.96-1.24.32-.15.54-.24.68-.27-.23-.06-.45-.15-.68-.27-.5-.31-.81-.68-.92-1.11l-.03-.14v-1.85c-.02-1.24-.03-1.88-.04-1.93-.11-.36-.35-.62-.72-.76s-.72-.22-1.05-.23c-.08 0-.13-.01-.14-.04s-.02-.1-.03-.2z"/><path id="y" d="m72.85 41.93v-.34c0-.23.07-.42.22-.58s.34-.24.58-.24.48.11.68.34.3.62.31 1.19c0 .32-.04.62-.12.92s-.18.56-.29.77-.23.4-.35.56-.24.28-.33.37-.15.13-.18.12c-.04 0-.1-.04-.18-.12s-.12-.14-.12-.18.05-.11.15-.22.21-.24.34-.41c.13-.16.24-.39.35-.68s.18-.62.22-.99v-.16h-.01s-.04.03-.07.04-.05.02-.08.04-.07.03-.12.03-.11 0-.16.01c-.24 0-.44-.08-.6-.23l-.24-.24z"/><path id="z" d="M78.81,33.63c0-.09.02-.19.05-.31s.09-.18.16-.18c0,0,.33-.02.98-.07.64-.05.97-.07.99-.08.11,0,.16.04.16.12s-.15.73-.46,1.94c-.07.31-.15.62-.23.95s-.15.57-.2.73l-.05.26s.03.01.08-.04c.44-.36.9-.54,1.37-.54.56,0,1.01.21,1.36.62s.52.94.53,1.57c0,1-.36,1.91-1.07,2.73s-1.48,1.22-2.31,1.22c-.45,0-.86-.17-1.24-.52-.37-.34-.56-.9-.57-1.67v-.12c0-.19.04-.45.11-.79s.29-1.23.67-2.67c.45-1.78.68-2.73.68-2.84s-.17-.17-.52-.19h-.35s-.06-.01-.1-.04-.05-.06-.04-.1ZM82.38,38v-.08c0-.67-.28-1-.83-1-.15,0-.31.04-.48.11s-.31.17-.45.29-.25.23-.35.33-.18.2-.24.3l-.08.11-.29,1.17c-.2.78-.3,1.33-.3,1.66,0,.43.11.76.33.98.14.14.33.22.54.22.3,0,.6-.14.91-.43.23-.21.41-.46.54-.76s.29-.77.45-1.43.24-1.13.24-1.44Z"/><path id="aa" d="m88.56 39.01c0-1.1.37-2.01 1.11-2.71.74-.71 1.62-1.11 2.63-1.21h.23c.14 0 .33 0 .57-.01s.46 0 .68 0h1.34c.14.07.2.16.2.27 0 .08-.06.17-.18.26h-1.41c-1 .02-1.62.05-1.86.1-.44.11-.84.27-1.18.49s-.61.44-.8.67-.35.48-.49.75-.22.49-.24.65-.05.32-.07.46v.03h6.03c.14.07.2.16.2.27s-.07.2-.2.27h-6.03v.03c0 .19.05.42.14.69s.24.57.45.88c.21.32.5.61.87.87s.81.45 1.32.56c.24.05.87.09 1.87.1h1.41c.12.09.18.18.18.27 0 .11-.07.2-.2.27h-1.66c-.16 0-.29 0-.39.01-1.4 0-2.51-.39-3.33-1.17-.8-.74-1.19-1.67-1.19-2.78z"/><g><path id="ab" d="m109.53 40.63c0 .05-.05.15-.16.3s-.29.32-.53.52-.52.39-.81.57c-.3.18-.68.33-1.14.46s-.93.19-1.4.19c-.51 0-1-.07-1.49-.22-.49-.14-.95-.37-1.38-.67s-.81-.7-1.13-1.19c-.32-.5-.53-1.07-.64-1.72-.05-.2-.07-.56-.07-1.09s.02-.89.07-1.09c.2-1.06.65-1.92 1.34-2.58.7-.66 1.59-1.06 2.69-1.19.03 0 .13 0 .31-.01s.32-.01.42-.01c.49.03.98.14 1.47.33s.86.29 1.11.3c.16 0 .28-.03.35-.1s.11-.14.12-.22.03-.15.07-.22.1-.1.19-.11c.1 0 .18.05.24.16v2.84l-.05.1c-.12.06-.23.07-.34.03-.04-.04-.08-.14-.14-.33s-.16-.38-.31-.61c-.3-.42-.7-.8-1.19-1.14-.5-.34-1.03-.52-1.59-.52h-.12c-.4 0-.77.17-1.11.52-.79.71-1.18 2.01-1.18 3.92 0 .79.1 1.5.29 2.13.37 1.35 1.15 2.02 2.33 2.02s2.23-.45 3.2-1.36c.15-.15.27-.23.34-.23.05 0 .1.02.15.05s.09.09.1.16zm-5.89-6.71c.13-.16.18-.24.15-.24-.21.07-.42.18-.64.31s-.46.32-.72.56-.49.55-.69.94-.34.82-.42 1.3c-.05.27-.07.6-.07.99s.02.72.07.99c.09.5.24.95.46 1.34s.45.71.69.92.48.4.72.54.43.24.58.3l.23.07c-.06-.06-.12-.13-.18-.19-.59-.57-.96-1.5-1.13-2.8-.03-.24-.04-.65-.04-1.22s.01-.98.04-1.22c.17-1.13.48-2 .94-2.59zm5.03.82v-.81s-.07.03-.11.03c-.09.04-.19.05-.31.05h-.2l.18.19c.18.2.28.32.3.35l.15.19z"/><path id="ac" d="m112.24 33.84c-.08-.86-.12-1.34-.12-1.44 0-.12.08-.2.23-.27h.05s.04 0 .06 0c.08 0 .15.04.21.09s.1.12.1.19c0 .11-.02.36-.06.77s-.06.63-.07.67l.56-.4c.36-.26.55-.4.59-.42s.06-.03.1-.03c.08 0 .16.03.23.1s.11.15.12.26c0 .08-.03.16-.1.22-.03.02-.25.12-.65.32s-.62.29-.65.31l.63.3.67.34c.06.06.09.13.09.22 0 .1-.03.18-.09.24s-.13.1-.23.11c-.05 0-.11-.02-.17-.06s-.24-.17-.53-.38l-.56-.4c.08.86.12 1.34.12 1.44 0 .06-.02.12-.07.18s-.13.09-.25.09-.2-.03-.25-.09-.07-.12-.08-.18c0-.11.02-.36.06-.77s.06-.63.07-.67l-.56.4c-.36.26-.55.4-.59.42-.03.02-.06.03-.1.03-.08 0-.16-.03-.23-.1-.07-.06-.11-.15-.12-.26v-.08s0-.04.03-.06.04-.04.05-.06.04-.04.09-.07.09-.05.12-.07.1-.05.18-.09.16-.07.24-.11.18-.08.31-.14.26-.13.38-.19l-1.31-.62c-.06-.06-.09-.13-.09-.22 0-.1.03-.18.09-.24s.13-.1.23-.11c.05 0 .11.02.17.06s.24.17.53.38l.56.4z"/></g></g></g></g></svg>
