<svg viewBox="0 0 104.92 33.87" xmlns="http://www.w3.org/2000/svg"><g id="a"><g><g><g><path id="b" d="m.22 11.5h.19c.35 0 .57-.06.64-.19v-.84c0-.15 0-.33.01-.53s0-.39 0-.57v-.9c0-.32 0-.58-.01-.8v-.31c-.03-.17-.09-.29-.19-.34s-.3-.1-.61-.12h-.24v-.31c0-.21 0-.31.03-.31h.14c.09-.02.22-.03.38-.04s.33-.02.5-.03c.15 0 .32-.02.49-.03.17 0 .3-.02.39-.04s.14-.02.15-.01h.04v.54c0 .34 0 .52.01.52s.03-.02.07-.07.09-.11.16-.2.16-.17.26-.24.23-.16.39-.26.33-.17.52-.22.41-.07.69-.07c1.03.04 1.61.55 1.72 1.53 0 .06.01.69.01 1.89v1.17c0 .34 0 .55.03.61s.07.11.15.14c.19.03.41.04.67.04h.22v.62h-.43c-.21-.02-.43-.03-.68-.03s-.42 0-.52-.01c-.93 0-1.44.01-1.52.04h-.11v-.62h.22c.55 0 .83-.07.83-.22 0-.02.01-.64.01-1.87 0-1.22-.02-1.87-.03-1.94-.05-.25-.14-.44-.27-.57s-.24-.2-.33-.23-.21-.04-.35-.03c-.41 0-.76.15-1.07.46-.24.24-.4.49-.46.75s-.1.63-.11 1.13v1.68c0 .27 0 .45.01.54 0 .09.02.15.04.18s.06.05.12.08c.19.03.41.04.67.04h.22v.62h-.42c-.22-.02-.45-.03-.69-.03s-.42 0-.52-.01c-.93 0-1.44.01-1.52.04h-.11v-.62h.22z"/><path id="c" d="m7.7 11.5h.19c.35 0 .57-.06.64-.19v-.42c0-.13 0-.27.01-.42v-.53s0-.39 0-.57v-2.01c-.04-.17-.1-.29-.2-.34s-.3-.1-.61-.12h-.24v-.31c0-.21 0-.31.03-.31h.14c.09-.02.22-.03.38-.04s.33-.02.49-.03c.14 0 .3-.02.48-.03.17 0 .3-.02.39-.04s.14-.02.15-.01h.04v.94c.35-.62.79-.92 1.32-.92h.08c.41 0 .71.1.9.3s.29.41.29.62c0 .19-.06.35-.18.49s-.29.2-.52.2-.39-.07-.5-.22-.17-.3-.18-.46c0-.08 0-.15.03-.22s.04-.12.07-.16.04-.07.04-.07c-.02-.02-.12 0-.31.05-.14.07-.25.14-.33.2-.43.41-.64 1.22-.64 2.43v1.44c0 .11 0 .2.01.27s0 .14 0 .2v.07s.02.04.04.05.04.03.07.04.05.02.07.04.05.03.1.03.08 0 .1.01.06.01.12.01h.12s.06 0 .14.01.12 0 .14 0h.42v.62h-.12c-.16-.03-.74-.04-1.72-.04-.93 0-1.44.01-1.52.04h-.11v-.62h.22z"/><path id="d" d="m12.91 9.22c0-.86.29-1.6.88-2.23.59-.62 1.3-.94 2.13-.95.81 0 1.52.31 2.1.92s.89 1.36.9 2.24c0 .86-.29 1.58-.87 2.17s-1.29.88-2.13.88-1.6-.3-2.16-.91-.85-1.32-.86-2.13zm3.01 2.5c1.1 0 1.66-.74 1.66-2.21v-.77c0-.2 0-.37-.01-.52s-.04-.32-.1-.52-.13-.36-.22-.49-.23-.25-.42-.38-.41-.22-.67-.27c-.05 0-.12-.01-.22-.01-.27 0-.53.05-.77.16-.39.2-.64.48-.76.83s-.18.77-.18 1.25v.27c0 .87.09 1.48.26 1.83.29.55.76.83 1.43.83z"/><path id="e" d="m19.7 9.22c0-.86.29-1.6.88-2.23.59-.62 1.3-.94 2.13-.95.81 0 1.52.31 2.1.92s.89 1.36.9 2.24c0 .86-.29 1.58-.87 2.17s-1.29.88-2.13.88-1.6-.3-2.16-.91-.85-1.32-.86-2.13zm3.01 2.5c1.1 0 1.66-.74 1.66-2.21v-.77c0-.2 0-.37-.01-.52s-.04-.32-.1-.52-.13-.36-.22-.49-.23-.25-.42-.38-.41-.22-.67-.27c-.05 0-.12-.01-.22-.01-.27 0-.53.05-.77.16-.39.2-.64.48-.76.83s-.18.77-.18 1.25v.27c0 .87.09 1.48.26 1.83.29.55.76.83 1.43.83z"/><path id="f" d="m26.47 6.4c.48-.04.85-.29 1.11-.76s.41-1.02.43-1.66v-.2h.54v2.5h1.83v.62h-1.83v1.95c0 1.13.01 1.77.01 1.91s.03.29.1.43c.13.35.35.53.67.53.4 0 .64-.32.73-.96 0-.07.01-.28.01-.62v-.48h.54v.64c0 .7-.19 1.23-.57 1.59-.24.24-.56.37-.95.37-.31 0-.57-.05-.8-.16s-.4-.25-.52-.42-.2-.33-.26-.48c-.05-.14-.09-.29-.1-.43 0-.06-.01-.73-.01-2.01v-1.86h-1.07v-.5h.12z"/></g><path id="g" d="m32.66 8.73c0-.62.05-1.22.14-1.78s.19-1.05.31-1.45c.12-.41.29-.81.5-1.19s.39-.69.52-.91.32-.45.57-.71c.25-.25.4-.41.45-.46s.16-.15.34-.29h.23c.13 0 .19.04.19.12 0 .03-.08.12-.23.29s-.34.4-.56.72-.44.71-.67 1.17-.42 1.09-.57 1.87-.23 1.66-.23 2.62.08 1.83.23 2.61.34 1.41.56 1.89.44.87.67 1.17.42.54.57.72.23.28.23.29c0 .08-.07.12-.2.12h-.22l-.38-.33c-.85-.77-1.47-1.73-1.86-2.88s-.58-2.34-.58-3.58z"/><path id="h" d="m37.37 8.2c.06-.38.31-.82.73-1.32.43-.5.95-.75 1.57-.76.32 0 .61.08.87.24s.46.37.58.61c.38-.57.84-.86 1.37-.86.33 0 .62.1.87.3s.37.47.38.8c0 .26-.06.48-.19.64s-.25.26-.37.3-.22.05-.31.05c-.17 0-.31-.05-.42-.15s-.16-.23-.16-.39c0-.42.23-.7.68-.86-.1-.12-.28-.18-.54-.18-.12 0-.2 0-.26.03-.34.14-.6.44-.76.9-.54 2-.81 3.17-.81 3.5 0 .25.07.43.22.54s.3.16.48.16c.33 0 .67-.15.99-.45s.55-.67.67-1.1c.03-.09.05-.14.08-.15s.1-.02.22-.03h.05c.14 0 .2.04.2.11 0 0 0 .06-.03.15-.14.52-.43.97-.84 1.37-.42.4-.9.6-1.45.6-.63 0-1.11-.29-1.44-.86-.37.56-.8.84-1.28.84h-.08c-.44 0-.76-.12-.95-.35-.19-.24-.29-.48-.3-.75 0-.29.09-.52.26-.71.17-.18.38-.27.61-.27.39 0 .58.19.58.57 0 .18-.05.34-.16.48s-.21.23-.31.27-.16.07-.18.07h-.04s.03.04.08.07.13.06.22.1.18.05.26.04c.33 0 .61-.2.84-.61.08-.14.19-.45.31-.92.13-.47.25-.96.38-1.47s.2-.81.22-.9c.05-.24.07-.42.07-.53 0-.25-.07-.43-.2-.54s-.29-.16-.46-.16c-.36 0-.7.14-1.02.43s-.54.66-.67 1.11c-.02.08-.04.13-.07.14s-.1.02-.22.03h-.19c-.05-.05-.08-.1-.08-.15z"/><path id="i" d="m45.49 11.65v-.34c0-.23.07-.42.22-.58s.34-.24.58-.24.48.11.68.34.3.62.31 1.19c0 .32-.04.62-.12.92s-.18.56-.29.77-.23.4-.35.56-.24.28-.33.37-.15.13-.18.12c-.04 0-.1-.04-.18-.12s-.12-.14-.12-.18.05-.11.15-.22.21-.24.34-.41c.13-.16.24-.39.35-.68s.18-.62.22-.99v-.16h-.01s-.04.03-.07.04-.05.02-.08.04-.07.03-.12.03-.11 0-.16.01c-.24 0-.44-.08-.6-.23l-.24-.24z"/><path id="j" d="m50.75 8.23c0-.05.02-.13.04-.22s.07-.26.16-.52c.09-.25.18-.47.27-.64s.24-.34.45-.5.42-.24.62-.23c.33 0 .6.08.81.24s.35.32.41.46.08.24.08.29c0 .02 0 .03.01.03l.15-.15c.55-.58 1.18-.87 1.89-.87.49 0 .88.12 1.18.37s.45.6.46 1.07-.16 1.18-.52 2.13-.52 1.52-.52 1.72c0 .24.08.35.23.35.05 0 .1 0 .12-.01.26-.05.5-.22.71-.52s.37-.66.48-1.09c.02-.07.11-.11.27-.11.18 0 .27.04.27.11l-.05.2c-.07.26-.17.52-.3.77s-.33.51-.62.76-.6.38-.94.37c-.43 0-.73-.12-.92-.37s-.29-.5-.29-.76c0-.17.16-.71.49-1.63.33-.91.49-1.6.5-2.06 0-.53-.2-.8-.6-.8h-.07c-.78 0-1.43.46-1.97 1.37l-.1.16-.45 1.82c-.3 1.19-.47 1.82-.52 1.91-.12.24-.31.37-.58.37-.12 0-.21-.03-.29-.08s-.12-.11-.15-.16-.04-.1-.03-.14c0-.12.17-.86.52-2.21.34-1.36.52-2.1.54-2.21 0-.05.01-.15.01-.31 0-.35-.11-.53-.33-.53-.34 0-.63.45-.86 1.36-.05.18-.08.28-.08.29-.02.05-.1.08-.26.08h-.19c-.05-.05-.08-.1-.08-.12z"/><path id="k" d="m59.43 1.96h.05s.09-.01.14-.01h.16l.38.33c.85.77 1.47 1.73 1.86 2.88s.58 2.34.58 3.58c0 .62-.05 1.21-.14 1.78s-.19 1.05-.31 1.45-.29.8-.5 1.19c-.22.4-.39.7-.52.91s-.31.44-.56.69-.39.4-.43.45-.15.13-.31.26l-.05.05h-.31s-.05-.01-.07-.04-.03-.07-.04-.12c0 0 .06-.07.15-.18 1.4-1.46 2.1-3.61 2.1-6.45s-.7-4.99-2.1-6.45c-.09-.11-.14-.17-.15-.18 0-.07.02-.12.07-.15z"/><path id="l" d="m68.42 7.42c0-.12.06-.21.19-.27h8.65c.14.07.2.16.2.27 0 .1-.06.19-.19.26h-4.32s-4.32.01-4.32.01c-.14-.05-.22-.14-.22-.27zm0 2.63c0-.14.07-.23.22-.27h8.63c.13.09.19.18.19.27 0 .12-.07.21-.2.27h-8.65c-.13-.06-.19-.15-.19-.27z"/><g><path id="m" d="m82.7 8.2c.06-.38.31-.82.73-1.32.43-.5.95-.75 1.57-.76.32 0 .61.08.87.24s.46.37.58.61c.38-.57.84-.86 1.37-.86.33 0 .62.1.87.3s.37.47.38.8c0 .26-.06.48-.19.64s-.25.26-.37.3-.22.05-.31.05c-.17 0-.31-.05-.42-.15s-.16-.23-.16-.39c0-.42.23-.7.68-.86-.1-.12-.28-.18-.54-.18-.12 0-.2 0-.26.03-.34.14-.6.44-.76.9-.54 2-.81 3.17-.81 3.5 0 .25.07.43.22.54s.3.16.48.16c.33 0 .67-.15.99-.45s.55-.67.67-1.1c.03-.09.05-.14.08-.15s.1-.02.22-.03h.05c.14 0 .2.04.2.11 0 0 0 .06-.03.15-.14.52-.43.97-.84 1.37-.42.4-.9.6-1.45.6-.63 0-1.11-.29-1.44-.86-.37.56-.8.84-1.28.84h-.08c-.44 0-.76-.12-.95-.35-.19-.24-.29-.48-.3-.75 0-.29.09-.52.26-.71.17-.18.38-.27.61-.27.39 0 .58.19.58.57 0 .18-.05.34-.16.48s-.21.23-.31.27-.16.07-.18.07h-.04s.03.04.08.07.13.06.22.1.18.05.26.04c.33 0 .61-.2.84-.61.08-.14.19-.45.31-.92.13-.47.25-.96.38-1.47s.2-.81.22-.9c.05-.24.07-.42.07-.53 0-.25-.07-.43-.2-.54s-.29-.16-.46-.16c-.36 0-.7.14-1.02.43s-.54.66-.67 1.11c-.02.08-.04.13-.07.14s-.1.02-.22.03h-.19c-.05-.05-.08-.1-.08-.15z"/><g><path id="n" d="m91.8 1.65-.12.05c-.09.03-.22.06-.38.1s-.35.05-.56.07h-.18v-.44h.18c.3-.01.58-.06.83-.14s.44-.16.54-.23.19-.14.27-.21c.01-.02.05-.03.12-.03.06 0 .11.02.16.06v5.75c.05.04.09.07.12.09s.11.03.23.04.32.02.6.02h.25v.44h-.11c-.13-.02-.64-.03-1.53-.03s-1.37 0-1.51.03h-.12v-.44h.61.24s.11-.02.15-.03.07-.02.08-.02.03-.02.06-.05.05-.04.06-.04v-4.99z"/><path id="o" d="m98.62 0c.06 0 .11.02.14.06s.06.08.06.13c0 .03-.55 1.57-1.66 4.63-1.11 3.05-1.68 4.61-1.72 4.68-.04.06-.1.1-.16.1-.04 0-.09-.02-.12-.05s-.06-.08-.06-.13c0-.06.56-1.63 1.67-4.68 1.11-3.06 1.68-4.6 1.7-4.64.03-.06.08-.1.15-.1z"/><path id="p" d="m99.56 4.44s.02-.09.03-.15.05-.19.12-.36c.06-.18.13-.33.19-.45s.17-.24.32-.36.29-.17.44-.16c.23 0 .42.06.58.17s.25.22.29.33.06.17.06.2v.02l.11-.11c.39-.41.83-.61 1.33-.61.35 0 .62.09.83.26s.32.43.33.76-.12.83-.36 1.51-.37 1.08-.36 1.22c0 .17.05.25.16.25h.09c.19-.03.35-.15.5-.36s.26-.47.34-.77c.01-.05.08-.08.19-.08.13 0 .19.03.19.08 0 0-.01.05-.04.14-.05.19-.12.37-.21.55s-.24.36-.44.54-.43.27-.66.26c-.3 0-.52-.09-.65-.26s-.2-.35-.2-.54c0-.12.12-.51.35-1.15.23-.65.35-1.13.36-1.46 0-.38-.14-.57-.42-.57h-.05c-.55 0-1.01.32-1.39.97l-.07.12-.32 1.29c-.21.84-.33 1.29-.36 1.35-.08.17-.22.26-.41.26-.08 0-.15-.02-.2-.06s-.09-.08-.11-.12-.03-.07-.02-.1c0-.08.12-.6.36-1.56s.37-1.48.38-1.56v-.22c0-.25-.08-.37-.23-.37-.24 0-.44.32-.6.96-.04.13-.06.2-.06.2-.01.04-.07.06-.18.06h-.13s-.06-.07-.06-.09z"/></g></g></g><g><path id="q" d="m26.28 27.31c.06-.38.31-.82.73-1.32.43-.5.95-.75 1.57-.76.32 0 .61.08.87.24s.46.37.58.61c.38-.57.84-.86 1.37-.86.33 0 .62.1.87.3s.37.47.38.8c0 .26-.06.48-.19.64s-.25.26-.37.3-.22.05-.31.05c-.17 0-.31-.05-.42-.15s-.16-.23-.16-.39c0-.42.23-.7.68-.86-.1-.12-.28-.18-.54-.18-.12 0-.2 0-.26.03-.34.14-.6.44-.76.9-.54 2-.81 3.17-.81 3.5 0 .25.07.43.22.54s.3.16.48.16c.33 0 .67-.15.99-.45s.55-.67.67-1.1c.03-.09.05-.14.08-.15s.1-.02.22-.03h.05c.14 0 .2.04.2.11 0 0 0 .06-.03.15-.14.52-.43.97-.84 1.37-.42.4-.9.6-1.45.6-.63 0-1.11-.29-1.44-.86-.37.56-.8.84-1.28.84h-.08c-.44 0-.76-.12-.95-.35-.19-.24-.29-.48-.3-.75 0-.29.09-.52.26-.71.17-.18.38-.27.61-.27.39 0 .58.19.58.57 0 .18-.05.34-.16.48s-.21.23-.31.27-.16.07-.18.07h-.04s.03.04.08.07.13.06.22.1.18.05.26.04c.33 0 .61-.2.84-.61.08-.14.19-.45.31-.92.13-.47.25-.96.38-1.47s.2-.81.22-.9c.05-.24.07-.42.07-.53 0-.25-.07-.43-.2-.54s-.29-.16-.46-.16c-.36 0-.7.14-1.02.43s-.54.66-.67 1.11c-.02.08-.04.13-.07.14s-.1.02-.22.03h-.19c-.05-.05-.08-.1-.08-.15z"/><path id="r" d="m38.25 27.84c0-1.1.37-2.01 1.11-2.71.74-.71 1.62-1.11 2.63-1.21h.23c.14 0 .33 0 .57-.01s.46 0 .68 0h1.34c.14.07.2.16.2.27 0 .08-.06.17-.18.26h-1.41c-1 .02-1.62.05-1.86.1-.44.11-.84.27-1.18.49s-.61.44-.8.67-.35.48-.49.75-.22.49-.24.65-.05.32-.07.46v.03h6.03c.14.07.2.16.2.27s-.07.2-.2.27h-6.03v.03c0 .19.05.42.14.69s.24.57.45.88c.21.32.5.61.87.87s.81.45 1.32.56c.24.05.87.09 1.87.1h1.41c.12.09.18.18.18.27 0 .11-.07.2-.2.27h-1.66c-.16 0-.29 0-.39.01-1.4 0-2.51-.39-3.33-1.17-.8-.74-1.19-1.67-1.19-2.78z"/><path id="s" d="m59.22 29.46c0 .05-.05.15-.16.3s-.29.32-.53.52-.52.39-.81.57c-.3.18-.68.33-1.14.46s-.93.19-1.4.19c-.51 0-1-.07-1.49-.22-.49-.14-.95-.37-1.38-.67s-.81-.7-1.13-1.19c-.32-.5-.53-1.07-.64-1.72-.05-.2-.07-.56-.07-1.09s.02-.89.07-1.09c.2-1.06.65-1.92 1.34-2.58.7-.66 1.59-1.06 2.69-1.19.03 0 .13 0 .31-.01s.32-.01.42-.01c.49.03.98.14 1.47.33s.86.29 1.11.3c.16 0 .28-.03.35-.1s.11-.14.12-.22.03-.15.07-.22.1-.1.19-.11c.1 0 .18.05.24.16v2.84l-.05.1c-.12.06-.23.07-.34.03-.04-.04-.08-.14-.14-.33s-.16-.38-.31-.61c-.3-.42-.7-.8-1.19-1.14-.5-.34-1.03-.52-1.59-.52h-.12c-.4 0-.77.17-1.11.52-.79.71-1.18 2.01-1.18 3.92 0 .79.1 1.5.29 2.13.37 1.35 1.15 2.02 2.33 2.02s2.23-.45 3.2-1.36c.15-.15.27-.23.34-.23.05 0 .1.02.15.05s.09.09.1.16zm-5.89-6.71c.13-.16.18-.24.15-.24-.21.07-.42.18-.64.31s-.46.32-.72.56-.49.55-.69.94-.34.82-.42 1.3c-.05.27-.07.6-.07.99s.02.72.07.99c.09.5.24.95.46 1.34s.45.71.69.92.48.4.72.54.43.24.58.3l.23.07c-.06-.06-.12-.13-.18-.19-.59-.57-.96-1.5-1.13-2.8-.03-.24-.04-.65-.04-1.22s.01-.98.04-1.22c.17-1.13.48-2 .94-2.59zm5.04.82v-.81s-.07.03-.11.03c-.09.04-.19.05-.31.05h-.2l.18.19c.18.2.28.32.3.35l.15.19z"/><path id="t" d="m60.8 30.76v-.34c0-.23.07-.42.22-.58s.34-.24.58-.24.48.11.68.34.3.62.31 1.19c0 .32-.04.62-.12.92s-.18.56-.29.77-.23.4-.35.56-.24.28-.33.37-.15.13-.18.12c-.04 0-.1-.04-.18-.12s-.12-.14-.12-.18.05-.11.15-.22.21-.24.34-.41c.13-.16.24-.39.35-.68s.18-.62.22-.99v-.16h-.01s-.04.03-.07.04-.05.02-.08.04-.07.03-.12.03-.11 0-.16.01c-.24 0-.44-.08-.6-.23l-.24-.24z"/><path id="u" d="m66.06 27.34c0-.05.02-.13.04-.22s.07-.26.16-.52c.09-.25.18-.47.27-.64s.24-.34.45-.5.42-.24.62-.23c.33 0 .6.08.81.24s.35.32.41.46.08.24.08.29c0 .02 0 .03.01.03l.15-.15c.55-.58 1.18-.87 1.89-.87.49 0 .88.12 1.18.37s.45.6.46 1.07-.16 1.18-.52 2.13-.52 1.52-.52 1.72c0 .24.08.35.23.35.05 0 .1 0 .12-.01.26-.05.5-.22.71-.52s.37-.66.48-1.09c.02-.07.11-.11.27-.11.18 0 .27.04.27.11l-.05.2c-.07.26-.17.52-.3.77s-.33.51-.62.76-.6.38-.94.37c-.43 0-.73-.12-.92-.37s-.29-.5-.29-.76c0-.17.16-.71.49-1.63.33-.91.49-1.6.5-2.06 0-.53-.2-.8-.6-.8h-.07c-.78 0-1.43.46-1.97 1.37l-.1.16-.45 1.82c-.3 1.19-.47 1.82-.52 1.91-.12.24-.31.37-.58.37-.12 0-.21-.03-.29-.08s-.12-.11-.15-.16-.04-.1-.03-.14c0-.12.17-.86.52-2.21.34-1.36.52-2.1.54-2.21 0-.05.01-.15.01-.31 0-.35-.11-.53-.33-.53-.34 0-.63.45-.86 1.36-.05.18-.08.28-.08.29-.02.05-.1.08-.26.08h-.19c-.05-.05-.08-.1-.08-.12z"/><path id="v" d="m78.83 27.84c0-1.1.37-2.01 1.11-2.71.74-.71 1.62-1.11 2.63-1.21h.23c.14 0 .33 0 .57-.01s.46 0 .68 0h1.34c.14.07.2.16.2.27 0 .08-.06.17-.18.26h-1.41c-1 .02-1.62.05-1.86.1-.44.11-.84.27-1.18.49s-.61.44-.8.67-.35.48-.49.75-.22.49-.24.65-.05.32-.07.46v.03h6.03c.14.07.2.16.2.27s-.07.2-.2.27h-6.03v.03c0 .19.05.42.14.69s.24.57.45.88c.21.32.5.61.87.87s.81.45 1.32.56c.24.05.87.09 1.87.1h1.41c.12.09.18.18.18.27 0 .11-.07.2-.2.27h-1.66c-.16 0-.29 0-.39.01-1.4 0-2.51-.39-3.33-1.17-.8-.74-1.19-1.67-1.19-2.78z"/><g><path id="w" d="m99.8 29.46c0 .05-.05.15-.16.3s-.29.32-.53.52-.52.39-.81.57c-.3.18-.68.33-1.14.46s-.93.19-1.4.19c-.51 0-1-.07-1.49-.22-.49-.14-.95-.37-1.38-.67s-.81-.7-1.13-1.19c-.32-.5-.53-1.07-.64-1.72-.05-.2-.07-.56-.07-1.09s.02-.89.07-1.09c.2-1.06.65-1.92 1.34-2.58.7-.66 1.59-1.06 2.69-1.19.03 0 .13 0 .31-.01s.32-.01.42-.01c.49.03.98.14 1.47.33s.86.29 1.11.3c.16 0 .28-.03.35-.1s.11-.14.12-.22.03-.15.07-.22.1-.1.19-.11c.1 0 .18.05.24.16v2.84l-.05.1c-.12.06-.23.07-.34.03-.04-.04-.08-.14-.14-.33s-.16-.38-.31-.61c-.3-.42-.7-.8-1.19-1.14-.5-.34-1.03-.52-1.59-.52h-.12c-.4 0-.77.17-1.11.52-.79.71-1.18 2.01-1.18 3.92 0 .79.1 1.5.29 2.13.37 1.35 1.15 2.02 2.33 2.02s2.23-.45 3.2-1.36c.15-.15.27-.23.34-.23.05 0 .1.02.15.05s.09.09.1.16zm-5.89-6.71c.13-.16.18-.24.15-.24-.21.07-.42.18-.64.31s-.46.32-.72.56-.49.55-.69.94-.34.82-.42 1.3c-.05.27-.07.6-.07.99s.02.72.07.99c.09.5.24.95.46 1.34s.45.71.69.92.48.4.72.54.43.24.58.3l.23.07c-.06-.06-.12-.13-.18-.19-.59-.57-.96-1.5-1.13-2.8-.03-.24-.04-.65-.04-1.22s.01-.98.04-1.22c.17-1.13.48-2 .94-2.59zm5.04.82v-.81s-.07.03-.11.03c-.09.04-.19.05-.31.05h-.2l.18.19c.18.2.28.32.3.35l.15.19z"/><path id="x" d="m102.52 22.67c-.08-.86-.12-1.34-.12-1.44 0-.12.08-.2.23-.27h.05s.04 0 .06 0c.08 0 .15.04.21.09s.1.12.1.19c0 .11-.02.36-.06.77s-.06.63-.07.67l.56-.4c.36-.26.55-.4.59-.42s.06-.03.1-.03c.08 0 .16.03.23.1s.11.15.12.26c0 .08-.03.16-.1.22-.03.02-.25.12-.65.32s-.62.29-.65.31l.63.3.67.34c.06.06.09.13.09.22 0 .1-.03.18-.09.24s-.13.1-.23.11c-.05 0-.11-.02-.17-.06s-.24-.17-.53-.38l-.56-.4c.08.86.12 1.34.12 1.44 0 .06-.02.12-.07.18s-.13.09-.25.09-.2-.03-.25-.09-.07-.12-.08-.18c0-.11.02-.36.06-.77s.06-.63.07-.67l-.56.4c-.36.26-.55.4-.59.42-.03.02-.06.03-.1.03-.08 0-.16-.03-.23-.1-.07-.06-.11-.15-.12-.26v-.08s0-.04.03-.06.04-.04.05-.06.04-.04.09-.07.09-.05.12-.07.1-.05.18-.09.16-.07.24-.11.18-.08.31-.14.26-.13.38-.19l-1.31-.62c-.06-.06-.09-.13-.09-.22 0-.1.03-.18.09-.24s.13-.1.23-.11c.05 0 .11.02.17.06s.24.17.53.38l.56.4z"/></g></g></g></g></svg>
