<svg xmlns="http://www.w3.org/2000/svg" viewBox="0 0 215.23 30.4"><defs><style>.cls-1{isolation:isolate}</style></defs><path d="M46.25.78s.06.05.06.08c0 .02-.02.05-.06.08l-.36.31v8.71c0 .44-.18.67-.76 1.03-.04.02-.07.04-.08.04-.05 0-.07-.04-.08-.12-.07-.37-.29-.54-1.4-.77l.02-.2c.53.1.91.14 1.16.14.48 0 .58-.17.58-.58V6.58h-3.21v1.26c0 1.14.01 1.83.04 2.29v.1c0 .16-.04.2-.28.31-.11.05-.19.07-.25.07-.08 0-.11-.07-.11-.28v-.11c.02-.77.04-1.55.04-2.41V6.57H38.5c-.04 2.12-.91 3.56-2.21 4.67l-.13-.12c1.54-1.8 1.81-2.76 1.81-6.38V1.61c0-.46-.02-.98-.04-1.39l.72.56h6.44l.36-.52zm-4.7 5.55V3.87h-3.03c0 .75-.01 1.54-.02 2.46h3.06Zm0-2.72V1.04h-3.03v2.57zm3.78 0V1.04h-3.21v2.57zm0 2.72V3.87h-3.21v2.46zM58.96 4.68c.07.08.11.13.11.17 0 .05-.05.06-.14.06h-4.94v5.1c0 .59-.11.79-.9 1.16-.04.01-.07.02-.1.02-.05 0-.07-.02-.08-.1-.1-.52-.31-.72-1.64-1.04v-.17c.78.13 1.27.2 1.6.2.5 0 .55-.17.55-.52V4.89h-4.2c-.25 0-.61.05-.8.12l-.34-.43c.29.02.6.05.88.05h4.46V1.68h-3.2c-.24 0-.59.05-.77.12l-.32-.43c.28.02.58.05.84.05h6.93l.52-.7.72.78c.06.06.1.11.1.13 0 .04-.06.05-.16.05H54v2.96h3.69l.58-.72.71.75ZM64.69 3.13s.07.08.07.1c0 .04-.05.05-.17.05H62.6v1.54c.86.31 1.52.66 1.52 1.17 0 .23-.13.44-.3.44-.08 0-.2-.13-.28-.34-.1-.28-.35-.6-.95-1.08v3.38c0 1.09 0 1.91.02 2.3v.08c0 .14-.04.19-.29.32-.13.07-.22.11-.26.11-.07 0-.1-.06-.1-.19 0-.06 0-.13.01-.23.04-.54.06-1.39.06-2.42V4.55c-.46 1.31-1.08 2.51-1.95 3.75l-.13-.08c.88-1.57 1.59-3.37 2-4.95h-.82c-.41 0-.55.02-.76.12l-.43-.43c.3.04.59.05.92.05h1.16V1.8c0-1.04-.01-1.43-.04-1.8l.84.37c.08.04.12.06.12.1s-.02.07-.08.12l-.29.26v2.16h.85l.49-.65.74.77ZM66.19 6c.06.04.08.06.08.07q0 .03-.12.06c-.18.04-.36.2-.42.32-.48.98-1.49 2.72-2.37 3.71l-.13-.11c1.18-1.73 2-3.75 2.15-4.52l.82.47Zm4.9-1.69c.07.07.11.12.11.16s-.06.05-.2.05h-3.26v5.3c0 .77-.18.97-.77 1.27a.6.6 0 0 1-.19.07c-.06 0-.08-.05-.11-.16-.1-.32-.19-.49-1.27-.83l.04-.16c.72.13 1.14.2 1.38.2.32 0 .34-.13.34-.42V4.5h-2.08c-.32 0-.61.02-.82.08l-.35-.38c.3.02.55.04.9.04h5.05l.52-.66.72.72Zm-.74-2.79c.07.07.11.12.11.14 0 .04-.05.05-.16.05h-4.37c-.24 0-.47.04-.7.12l-.42-.43c.32.04.62.05.9.05h3.35l.53-.67zm-1.82 4.36c1.44 1.39 2.23 2.63 2.23 3.02 0 .58-.2.8-.47.8-.06 0-.13-.04-.22-.49-.08-.47-.49-1.56-1.67-3.24l.12-.1ZM83.08 4.11c.08.07.12.12.12.16 0 .02-.05.04-.16.04h-4.99v5.34c0 .91-.07 1.15-.71 1.43-.11.05-.17.07-.23.07-.07 0-.1-.06-.12-.19-.06-.32-.35-.56-1.54-.91v-.18c.74.14 1.21.23 1.51.23.46 0 .49-.19.49-.58V4.31h-4.19c-.32 0-.59.04-.79.12l-.41-.42c.3.02.64.04.94.04h8.71l.52-.68.84.75Zm-7.23 1.86c.14.1.22.16.22.19 0 .02-.04.04-.11.06-.16.05-.36.19-.44.3-.77 1.06-1.87 2.4-3.12 3.57l-.12-.11c1.19-1.46 2.21-2.95 2.95-4.44l.62.42Zm5.83-4.68c.08.07.12.12.12.16 0 .02-.05.04-.16.04H74.6c-.25 0-.49.02-.7.1l-.43-.41c.32.04.64.05.91.05h5.95l.55-.68.79.76Zm-2.46 4.23c1.21.91 3.05 2.52 3.05 3.61 0 .44-.23.64-.37.64-.16 0-.28-.14-.36-.48-.2-.89-1.02-2.17-2.41-3.65l.1-.12ZM95.09 4.91c.07.07.11.13.11.17s-.06.06-.18.06h-9.77c-.25 0-.6.04-.8.12l-.34-.44c.3.02.6.05.88.05h8.76l.54-.8.82.85ZM100.61 6.5c-2.75.66-3.09.77-3.45 1-.04.02-.07.04-.11.04-.02 0-.05-.01-.07-.05l-.5-.62c.5-.19.7-.32 1.04-.76.32-.41.74-1.01 1.31-1.97-1.76.34-2.01.47-2.24.68-.02.02-.06.05-.08.05s-.06-.04-.1-.08l-.49-.66c.49-.16.58-.28.88-.68.6-.82 1.34-2.25 1.82-3.32l.73.47c.06.04.1.07.1.1 0 .04-.04.06-.1.08-.23.08-.3.13-.43.3-.8 1.07-1.62 2.15-2.27 3.01l2.29-.12c.5-.86.77-1.37.9-1.73l.66.44c.07.05.1.08.1.11 0 .04-.04.05-.12.07-.13.02-.29.11-.38.25-.56.85-1.5 2.17-2.75 3.66l3.26-.47zm.2 1.92L97.9 9.51c-.62.23-1.07.44-1.15.56-.05.07-.08.11-.12.11-.05 0-.08-.04-.14-.12l-.47-.6 4.75-1.24.05.19Zm6.49 1.87c.1.1.14.17.14.2 0 .05-.06.06-.19.06h-7.08c-.25 0-.6.05-.8.13l-.34-.44c.3.02.6.05.88.05h1.46V2.25c0-.49-.02-1.31-.05-1.75l.89.58h2.75l.37-.55.7.52c.08.06.12.11.12.14 0 .05-.04.08-.1.13l-.35.29v8.68h.41l.49-.7zm-2.16-6.25v-2.7h-3.21v2.7zm0 2.87v-2.6h-3.21v2.6zm0 3.38V7.17h-3.21v3.12zM118.71 5.7c.08.08.12.13.12.17s-.06.05-.19.05h-5.05c-.31.3-.64.71-.96 1.18h4.26l.32-.5.79.46c.07.04.11.07.11.11s-.04.08-.12.14l-.31.22v2.59c0 .56-.08.74-.7 1.01-.04.01-.06.02-.07.02-.05 0-.07-.04-.08-.11-.07-.37-.26-.53-1.01-.73v-.17c.47.07.77.11.95.11.32 0 .35-.1.35-.28V7.36h-1.97v1.66c0 .48.01.91.04 1.2v.05c0 .13-.05.18-.3.29-.11.05-.18.07-.23.07-.07 0-.1-.06-.1-.2 0-.19.02-1.19.02-1.42V7.37h-1.87v1.75c0 .48.01.91.04 1.2v.05c0 .13-.05.18-.3.29-.11.05-.18.07-.23.07-.07 0-.1-.06-.1-.2 0-.19.02-1.19.02-1.42V7.37h-1.92v2.01c0 .6.01.95.04 1.34v.07c0 .14-.05.19-.32.31a.5.5 0 0 1-.22.07c-.07 0-.11-.07-.11-.2 0-.05.01-.1.01-.16.02-.42.04-.83.04-1.44V8.06c0-.47-.01-1.09-.04-1.5l.78.54h1.97c.16-.35.3-.73.43-1.18h-3.45c-.25 0-.6.05-.8.13l-.34-.43c.3.02.6.05.88.05h8.4l.5-.7zm.34-3.54c.06.05.08.08.08.12s-.04.07-.12.08c-.38.06-.83.35-1.43 1.09l-.14-.1.58-1.09h-4.09v1.37c0 .16.02.95.02 1.13 0 .17-.06.2-.28.3-.11.05-.19.07-.24.07-.08 0-.11-.07-.11-.25s.04-1.07.04-1.27V2.27h-3.93c-.02.79-.18 1.16-.46 1.34-.16.1-.29.14-.4.14-.22 0-.31-.19-.31-.29 0-.11.1-.25.38-.52.3-.26.58-.79.61-1.52h.18c0 .08.01.49 0 .59h3.92V.98h-2.53c-.23 0-.55.05-.73.12l-.3-.42c.26.02.54.05.79.05h5.8l.5-.68.71.7c.08.08.12.13.12.18 0 .04-.06.06-.19.06h-3.61v1.03h4.01l.32-.44.79.59Zm-6.44 2.43h-2.48v-.25h2.48zm-.02-1.18h-2.45v-.25h2.45zm4.54 0h-2.46v-.25h2.46zm.08 1.17h-2.53v-.25h2.53zM123.69.53c.1.06.14.1.14.13s-.06.07-.17.12c-.22.1-.25.12-.37.37-.35.75-.76 1.61-1.08 2.24l.47.28c.06.04.1.06.1.1 0 .05-.04.07-.32.29v4.56c0 .74.01 1.35.05 1.89v.08c0 .13-.04.18-.29.32-.13.07-.22.12-.28.12s-.08-.07-.08-.25v-.18c.04-.71.05-1.39.05-2.01V3.97c-.6 1.12-1.22 2.01-1.8 2.7l-.14-.1c1.21-1.97 2.33-4.31 2.96-6.51l.77.47Zm7.03 7.27c-.01.33-.02.61-.02.83 0 .67.08.83.37.97.08.04.12.06.12.12 0 .02-.02.07-.05.13-.3.64-.67.78-1.72.78-2 0-2.12-.06-2.12-.94v-6h-.84c-.32 4.52-.98 5.88-3.63 7.63l-.07-.13c2.25-1.8 2.9-3.45 3.17-7.5h-1.73c-.25 0-.6.05-.8.13l-.34-.44c.3.02.6.05.88.05h2c.06-.96.1-2.19.1-3.39l.9.44c.1.05.14.08.14.13 0 .04-.05.08-.14.16l-.3.23c-.05.82-.11 1.74-.16 2.43h3.33l.47-.64.74.65c.11.1.16.16.16.19 0 .05-.06.06-.2.06h-3.12v5.94c0 .41.11.49 1.1.49h.46c.91-.02.97-.12 1.1-2.33h.2ZM127.84.59c.55.2 1.82.66 1.82 1.29 0 .31-.2.62-.4.62-.12 0-.24-.12-.34-.47-.08-.3-.49-.9-1.15-1.34l.06-.11ZM142.51 7.45c.04 1.48.16 1.76.52 1.92.06.02.08.06.08.1 0 .02 0 .05-.01.07-.34.8-.6 1.03-2.61 1.03s-2.05-.18-2.05-1.25V5.59h-1.94c-.11 3.11-.59 4.47-4.22 5.62l-.06-.19c1.5-.61 2.43-1.24 2.97-2 .46-.64.77-1.94.76-3.43h-2.83c-.24 0-.59.05-.77.12l-.32-.43c.28.02.58.05.84.05h4.61V2.94h-2.66c-.41.72-.79 1.29-1.27 1.94l-.16-.08c.91-1.63 1.4-2.79 1.82-3.99l.7.49s.07.07.07.1c0 .07-.05.08-.44.26-.2.37-.38.71-.56 1.02h2.51V1.29c0-.47-.01-.76-.04-1.18l.9.41c.1.05.13.08.13.12s-.04.08-.12.14l-.3.22v1.68h2.52l.58-.75.72.75c.07.07.12.14.12.18 0 .06-.06.08-.17.08h-3.77v2.39h3.42l.61-.79.76.8c.07.07.11.13.11.17 0 .06-.06.08-.17.08h-3.77v3.56c0 .89.23.89 1.44.89.4 0 .7-.02 1.13-.07.66-.07.74-.33.74-2.52h.2ZM155.33 10.06c-.55.07-.97.32-1.08.62-.04.1-.07.11-.19.11-3.61-.06-4.95-.1-5.44-.16-1.06-.13-1.83-.96-2.11-1.51-.08-.16-.16-.25-.24-.25-.34 0-1.26 1.56-1.38 1.89-.02.06-.04.1-.07.1-.02 0-.05-.01-.08-.04l-.6-.38 1.84-1.7V4.89h-.95c-.23 0-.55.05-.73.12l-.3-.41c.26.02.54.05.79.05h.94l.42-.62.83.61c.06.05.1.08.1.11 0 .04-.04.06-.11.11l-.43.24v3.36c0 .41.9 1.69 2.23 1.71.38.01.77.01 1.13.01 1.73 0 3.27-.07 5.46-.28v.16ZM144.97.59c1.02.47 1.8 1.17 1.86 1.55.01.06.01.13.01.19 0 .34-.14.59-.31.59-.19 0-.25-.07-.38-.5-.12-.4-.6-1.17-1.24-1.69l.06-.13Zm10.15 3.2c.08.07.13.13.13.17 0 .05-.06.06-.18.06h-3.78c-.74 1.39-1.86 3.17-2.33 3.69l4.44-.24c-.3-.67-.78-1.43-1.32-2.05l.11-.12c.49.4 2.18 1.81 2.18 2.73 0 .37-.2.66-.46.66-.12 0-.18-.12-.26-.49-.04-.17-.1-.36-.18-.56l-2.87.37c-1.27.17-1.6.28-1.81.43-.05.04-.08.06-.12.06s-.07-.04-.13-.11l-.48-.64c.5-.06.73-.2.95-.54.52-.79 1.18-2.05 1.51-3.2h-1.99c-.23 0-.55.05-.73.12l-.3-.43c.26.02.54.05.79.05h5.49l.52-.71.82.74Zm-.96-2.69c.07.07.11.12.11.16 0 .06-.06.08-.16.08h-4.49c-.23 0-.55.05-.73.12l-.3-.43c.26.02.54.05.79.05h3.49l.5-.68.78.71ZM166.91 8.55c.06.06.1.11.1.13 0 .04-.05.05-.17.05h-3.14v1.14c0 .16.02.91.02 1.08 0 .19-.55.33-.56.33-.06 0-.07-.04-.07-.13v-.07c.04-.52.04-1 .04-1.32V8.73h-2.73c-.28 1.46-1.16 2.24-3.98 2.69v-.17c2.09-.58 3.24-1.21 3.45-2.52h-2.58c-.25 0-.6.05-.8.13l-.34-.44c.3.02.6.05.88.05h2.88c.05-.41.06-.78.06-1.14l.76.24c.06.02.1.04.1.06s-.18.17-.31.29c-.01.19-.04.37-.06.55h2.69c0-.38-.01-.75-.02-1.1l.8.35c.06.02.08.04.08.06 0 .04-.04.05-.29.22v.48h2l.47-.62.74.71Zm-4.82-6.89s.06.06.06.08c0 .04-.04.05-.12.05h-2.36c.54.34.73.58.73.79 0 .3-.14.52-.32.52-.1 0-.18-.13-.22-.31-.05-.23-.23-.59-.53-1h-.78c-.72.96-1.43 1.77-1.99 2.27l-.12-.11c.85-1.02 1.91-2.61 2.48-3.85l.83.41s.07.04.07.06c0 .01-.04.02-.11.04-.2.02-.46.23-.56.37-.13.19-.26.37-.4.55h2.34l.37-.53.62.66Zm5.02.02s.06.07.06.1-.04.04-.11.04h-3.01c.2.12.78.5.78.86 0 .12-.04.23-.11.3l.58.53s.06.06.06.1c0 .02-.01.05-.06.07l-.31.16v1.87c0 .8.01 1.15.04 1.57v.06c0 .12-.05.16-.25.28-.12.07-.2.1-.25.1-.07 0-.07-.01-.07-.46h-5.38c0 .22-.05.26-.25.36-.12.06-.2.08-.25.08-.07 0-.1-.05-.1-.16 0-.05 0-.12.01-.19.04-.34.05-.92.05-1.29V4.03c0-.29-.01-.91-.04-1.28l.77.56h2.13c.74-1.07 1.49-2.35 1.88-3.26l.72.36c.07.04.12.06.12.08s-.05.04-.13.05c-.16.02-.34.18-.44.34-.16.22-.32.44-.5.68h2.89l.44-.64.74.77Zm-2.67 2.83v-.95h-5.38v.95zm0 1.22v-.96h-5.38v.96zm0 1.25V6h-5.38v.98zm.09-3.96c-.12-.02-.19-.11-.24-.23-.17-.42-.32-.65-.62-.98h-.83c-.43.56-.89 1.14-1.19 1.49h2.66zM173.71 8.74l-3.26.7c-.96.2-1.4.37-1.66.58-.06.05-.11.08-.14.08s-.06-.02-.08-.07l-.47-.71 5.61-.75v.18Zm4.95-.58c-.01.42-.02.77-.02 1.06 0 .92.1 1.22.31 1.59.1.16.13.24.13.3 0 .11-.13.11-.18.11-.78 0-2.57-1.32-3.33-2.57-.85 1.02-1.88 1.77-3.35 2.55l-.1-.16c1.39-.94 2.4-1.83 3.18-2.87-.47-1-.82-2.41-.88-5.35h-5.03c-.25 0-.6.05-.8.13l-.34-.44c.3.02.6.05.88.05h5.29l-.04-2.41.9.46c.06.02.08.06.08.1 0 .05-.04.07-.37.28-.02.52-.04 1.06-.04 1.58h2.93l.46-.61.65.65c.08.08.13.14.13.18s-.06.05-.17.05h-3.99c.05 1.9.2 3.55.71 4.82.64-.98 1.1-2.1 1.5-3.51l.84.48c.07.05.12.08.12.11 0 .04-.06.06-.18.08-.22.04-.34.13-.42.32-.53 1.26-1.03 2.23-1.62 3.05.49.91 1.2 1.54 2.21 2.06.14-.56.28-1.37.35-2.1h.19Zm-5.36-3.75c.06.05.1.08.1.12 0 .02-.04.06-.1.1l-.31.19v1.32c0 .41.01.67.05 1.09v.08c0 .24-.52.42-.53.42-.08 0-.08-.01-.08-.53h-2.4v.41c0 .12-.02.18-.23.3-.12.07-.2.11-.26.11-.07 0-.1-.07-.1-.25 0-.19.04-1.12.04-1.32V5.13c0-.29-.01-.86-.04-1.24l.66.48h2.16l.3-.47.74.5Zm-.87 2.53v-2.3h-2.4v2.3zM176.1.6c.92.22 1.42.49 1.55.82.04.08.05.18.05.25 0 .26-.16.46-.35.46-.08 0-.13-.05-.24-.25-.23-.46-.58-.91-1.07-1.15l.06-.12ZM3.69 19.57c.08.05.12.1.12.13s-.04.06-.12.11c-.17.08-.37.29-.44.46-.35.82-.66 1.5-.96 2.1l.52.2c.08.04.13.06.13.1s-.16.18-.32.31v6.81c0 .17-.02.2-.25.3-.11.05-.18.06-.23.06-.08 0-.11-.07-.11-.25v-.12c.02-.71.04-1.71.04-2.4V24c0-.31-.01-.76-.02-1.15-.54 1.01-1.1 1.83-1.88 2.82l-.16-.1c1.39-2.16 2.24-4.02 2.97-6.48l.72.48Zm7.37 1.9c.08.07.12.12.12.16 0 .05-.05.06-.16.06H7.15v2.43h2.07l.44-.6.66.62c.08.08.13.14.13.18 0 .05-.06.06-.16.06H7.14v2.35h2.52l.44-.62.67.63q.12.105.12.18c0 .075-.06.07-.17.07H7.13v.36c0 1.07.01 1.75.05 2.29v.08c0 .17-.05.2-.3.32a.7.7 0 0 1-.24.08c-.08 0-.11-.08-.11-.26v-.13c.02-.71.04-1.73.04-2.41v-5.65h-.84c-.89 1.57-1.4 2.28-2.16 3.19l-.16-.1c1.38-2.12 2.1-3.57 2.85-5.76l.72.48c.08.06.13.11.13.14s-.05.06-.13.1c-.14.05-.35.24-.44.42-.25.47-.47.89-.67 1.26h4.01l.43-.62.73.67ZM22.85 22.61c.06.05.08.08.08.12 0 .02-.02.06-.07.1l-.52.38c-.1 1.56-.26 3.25-.44 4.41-.24 1.57-.52 2.03-1.74 2.52-.02.01-.04.01-.05.01-.05 0-.08-.04-.1-.12-.14-.64-.3-.73-1.73-1.27l.04-.16c.88.24 1.48.37 1.91.37.82 0 .98-.5 1.18-1.73.14-.86.28-2.65.35-4.38l-3.71.05c-.8 3.9-2.3 5.79-5.67 7.33l-.1-.18c3.11-1.77 4.52-3.51 5.17-7.14l-3.75.04c-.24 0-.48.04-.73.13l-.4-.44c.34.04.53.05.8.05l4.13-.04c.28-1.6.37-2.57.38-3.57l1.01.54c.07.04.1.06.1.1s-.02.07-.1.13l-.36.28c-.1.74-.24 1.54-.43 2.52l3.43-.04.49-.71zm-8.62-2.87c1.02.61 1.55 1.14 1.73 1.45.06.11.08.22.08.34 0 .31-.19.6-.4.6-.13 0-.2-.12-.31-.54-.12-.48-.48-1.07-1.19-1.74l.08-.11Zm3.84 4.51c1.19.6 1.88 1.2 1.99 1.59.02.07.02.14.02.22 0 .32-.17.62-.35.62-.13 0-.26-.16-.36-.53-.11-.4-.78-1.34-1.38-1.77l.07-.13ZM28.92 20.41s.06.07.06.1c0 .05-.02.05-.24.05-.18 0-.31.04-.44.18-.4.41-.86.85-1.37 1.28.62 1.08.88 2.29.88 3.96 0 .38-.01.78-.04 1.21-.11 1.89-.3 2.52-1.49 3.06-.05.02-.08.04-.12.04s-.06-.04-.07-.1c-.13-.5-.29-.61-1.22-.94l.08-.16c.53.12.92.2 1.22.2.76 0 .88-.5 1.04-2.05.05-.46.07-.9.07-1.34 0-.52-.04-1.03-.11-1.54-.83 1.3-1.73 2.38-2.79 3.36l-.13-.13c1.28-1.47 2.19-2.84 2.77-3.97-.12-.44-.28-.88-.47-1.31-.78.62-1.56 1.19-2.18 1.54l-.1-.14c.76-.59 1.46-1.2 2.08-1.79a8.1 8.1 0 0 0-1.43-1.89l.14-.12c.66.58 1.19 1.12 1.6 1.7.66-.65 1.2-1.28 1.56-1.81zm4.43 6.62c.89.83 1.52 1.63 1.67 2.17.02.1.04.19.04.28 0 .34-.18.58-.35.58-.14 0-.18-.05-.24-.31-.08-.33-.16-.63-.25-.9l-4.73.6c-.47.06-.73.16-.86.28-.02.02-.06.04-.08.04s-.05-.01-.07-.05l-.43-.68 3.41-.2v-2.89h-1.72v.38c0 .16-.05.23-.26.31-.11.05-.18.07-.23.07-.08 0-.11-.07-.11-.23v-.17c.02-.41.04-1.06.04-1.58v-1.85c0-.3-.01-.9-.04-1.29l.77.53h1.55v-1.14c0-.53-.02-1.39-.05-1.86l.94.46c.08.04.12.07.12.1 0 .04-.02.07-.1.12l-.35.24v2.09h1.57l.4-.56.7.56c.07.06.11.1.11.13 0 .02-.04.06-.11.11l-.34.22v1.64c0 .7.02 1.17.06 1.73v.11c0 .17-.04.22-.29.32a.7.7 0 0 1-.25.07c-.08 0-.08-.05-.08-.5h-1.76v2.85l2.13-.13c-.2-.5-.48-.94-.94-1.51l.14-.11Zm-1.9-1.37v-3.3h-1.72v3.3zm2.32 0v-3.3h-1.76v3.3zM47.17 29.46q.12.105.12.18c0 .075-.06.08-.18.08h-10c-.25 0-.6.05-.8.13l-.34-.44c.3.04.6.05.88.05h5.1c.83-2.49 1.61-4.87 2.05-6.24l.85.52c.06.04.08.06.08.1 0 .02-.04.06-.13.1-.23.1-.4.28-.52.55-.79 1.91-1.46 3.5-2.1 4.98h3.61l.53-.73.85.73Zm-.62-7.23c.08.07.12.13.12.17 0 .06-.06.08-.17.08h-8.67c-.25 0-.6.05-.8.13l-.34-.44c.3.04.6.05.88.05h7.71l.49-.68.78.7Zm-7.89 1.3c.84 1.01 2.02 2.89 2.02 3.95 0 .62-.23.85-.47.85-.17 0-.28-.12-.3-.78-.04-1.09-.35-2.19-1.36-3.9zm2.15-3.84c.92.47 1.62 1.12 1.62 1.64 0 .37-.28.65-.46.65-.14 0-.22-.06-.3-.47-.08-.42-.34-1.03-.94-1.7l.07-.12ZM59.13 27.21c.06.06.08.11.08.13 0 .05-.05.06-.13.06h-5.1c0 .92.01 1.83.05 2.39v.07c0 .2-.05.25-.31.36a.7.7 0 0 1-.24.08c-.08 0-.11-.08-.11-.29v-.12c.02-.71.04-1.79.04-2.49h-4.25c-.25 0-.6.05-.8.13l-.34-.46c.3.02.6.05.88.05h4.51v-1.54h-2.83v.37c0 .14-.04.17-.29.28-.1.04-.17.06-.22.06-.07 0-.1-.06-.1-.23v-.11c.02-.65.04-1.19.04-1.8V21.9c0-.26-.01-.78-.04-1.12l.83.62h3.47c.67-.79 1.31-1.77 1.61-2.4l.71.54s.06.06.06.08c0 .04-.05.06-.14.08-.28.06-.61.3-1.91 1.69h2.07l.41-.54.82.58c.06.05.1.08.1.12s-.04.07-.1.11l-.38.24v2.08c0 .77.01 1.08.06 1.61 0 .04.01.07.01.11 0 .14-.07.19-.32.3-.11.05-.18.07-.23.07-.08 0-.08-.05-.08-.49H54v1.54h3.78l.61-.74.76.83Zm-5.72-3.85v-1.68h-2.83v1.68zm0 1.96v-1.7h-2.83v1.7zm-2.34-6.29c.44.25 1.68 1.03 1.68 1.62 0 .3-.22.61-.42.61-.14 0-.22-.12-.3-.54-.06-.34-.36-.92-1.06-1.56zm5.88 4.33v-1.68h-2.96v1.68zm0 1.96v-1.7h-2.96v1.7zM70.61 26.75c0 1.4.16 1.67.41 1.76.04.01.06.04.06.07 0 .02-.01.05-.02.08-.25.66-.54.83-2.18.83-2.31 0-2.39-.06-2.39-1.14v-5.08H64.5c-.05 4.57-1.01 5.56-4.19 6.84l-.07-.16c3.11-1.7 3.57-2.38 3.66-6.68h-2.58c-.25 0-.6.05-.8.13l-.34-.44c.3.02.6.05.88.05h8.53l.58-.74.74.76c.08.08.13.14.13.18 0 .05-.06.07-.19.07h-3.8v4.98c0 .71.07.74 1.92.74 1.3 0 1.36-.06 1.45-2.24h.2Zm-.84-6.45c.1.08.14.16.14.19 0 .05-.06.06-.19.06h-6.9c-.25 0-.6.05-.8.13l-.34-.44c.3.02.6.05.88.05h5.98l.49-.67.73.68ZM83.31 29.03c-.66.11-1.01.37-1.1.65-.02.07-.04.1-.12.1h-.05c-3.81-.22-5.4-.82-6.48-2.29-.9 1.16-2.06 2.09-3.49 2.75l-.05-.13c1.44-.97 2.54-1.99 3.25-3.03a9.1 9.1 0 0 1-1.28-3.41c-.56 1.24-1.1 2.15-1.67 2.87l-.12-.12c1.22-1.97 2.23-5.3 2.79-7.24l.78.55c.07.05.11.08.11.12s-.05.07-.16.11c-.26.11-.34.17-.41.36-.19.5-.36.98-.54 1.43h2.16l.34-.49.76.58c.06.05.1.08.1.12s-.04.06-.12.11l-.36.19c-.67 2.64-1.16 3.93-1.8 4.88 1.03 1.39 2.51 1.87 5.21 1.87.67 0 1.42-.04 2.25-.08v.13Zm-8.62-7.05c-.2.5-.4.97-.58 1.39.31 1.19.83 2.33 1.43 3.27.67-1.15 1.19-2.81 1.54-4.67h-2.39Zm5.18.39c1.63.54 2.42 1.08 2.69 1.43.17.22.23.44.23.62 0 .25-.12.43-.26.43-.13 0-.23-.08-.5-.54-.35-.59-1.03-1.2-2.15-1.75v2.77c0 .91.01 1.81.05 2.35v.08c0 .17-.05.22-.3.32-.11.05-.19.07-.25.07-.08 0-.11-.07-.11-.28v-.11c.02-.71.04-1.79.04-2.47v-4.34c0-.49-.02-1.31-.05-1.75l.86.44c.1.05.14.08.14.13 0 .04-.04.06-.38.29v2.29ZM88.73 26.57l-3.05 1.42c-.41.19-.8.44-.95.6-.04.04-.07.06-.1.06-.04 0-.06-.02-.1-.06l-.41-.6 1.93-.67v-3.13h-.66c-.24 0-.56.05-.76.12l-.32-.43c.29.02.58.05.84.05h.9v-3.05h-.7c-.25 0-.6.05-.8.13l-.34-.44c.3.02.6.05.88.05h2.29l.43-.59.67.62c.07.06.1.12.1.16 0 .05-.05.07-.13.07h-1.86v3.05h.74l.41-.56.62.61c.07.06.1.11.1.14 0 .05-.04.07-.13.07h-1.74v2.95l2.06-.72.06.16Zm6.32 2.8c.06.06.08.11.08.14 0 .05-.05.08-.14.08h-6.45c-.25 0-.6.05-.8.13l-.34-.44c.3.02.6.05.88.05h3.03v-2.12h-1.38c-.25 0-.6.05-.8.13l-.34-.44c.3.02.6.05.88.05h1.64v-1.89h-1.73c0 .26 0 .31-.25.46-.11.06-.17.1-.22.1-.06 0-.08-.06-.08-.17v-.06c.02-.5.04-1.01.04-1.62V21c0-.47-.01-.9-.04-1.27l.68.48h3.66l.36-.55.74.52c.07.05.1.07.1.11s-.02.07-.08.11l-.34.23v2.97c0 .48.02 1.02.06 1.43 0 .04.01.06.01.08 0 .25-.5.47-.53.47-.08 0-.08-.05-.08-.5h-1.76v1.89h1.57l.48-.68.76.7c.06.06.1.11.1.16 0 .06-.06.1-.17.1h-2.73v2.12h1.99l.46-.67.76.71Zm-3.75-6.74v-2.17h-1.73v2.17zm0 2.15v-1.89h-1.73v1.89zm2.31-2.15v-2.17h-1.76v2.17zm0 2.15v-1.89h-1.76v1.89zM101.27 21.5c.06.04.1.07.1.1 0 .04-.04.06-.1.1l-.41.25v4.64c0 .91.02 1.65.06 2.19v.07c0 .18-.05.23-.31.34-.12.05-.19.07-.23.07-.07 0-.08-.06-.08-.16v-.88h-2.58v1.14c0 .16-.02.19-.24.29-.11.05-.18.07-.24.07-.1 0-.12-.08-.12-.29v-.08c.02-.67.04-1.69.04-2.34v-4.98c0-.61-.01-.82-.04-1.18l.73.6h.56c.32-.77.61-1.68.8-2.39l.76.4c.1.05.14.08.14.12s-.05.06-.13.07c-.17.02-.29.11-.4.28l-.95 1.52h1.48l.4-.55.76.59Zm-.98 3.07v-2.85h-2.58v2.85zm0 3.39v-3.13h-2.58v3.13zm6.31-6.38c.07.05.1.08.1.12s-.02.06-.1.11l-.38.23c-.08 3.11-.18 5.19-.25 6.22-.08 1.12-.19 1.47-1.12 1.99-.02.01-.05.02-.06.02-.05 0-.07-.05-.11-.14-.13-.41-.41-.59-1.5-.88v-.19c.68.16 1.14.25 1.45.25.59 0 .68-.31.74-1.02.11-1.16.23-3.61.29-6.5h-2.81c-.52 1.14-.95 1.91-1.52 2.73l-.13-.08c.79-1.44 1.6-3.66 2.05-5.32l.71.36c.12.06.18.11.18.16s-.06.08-.19.11c-.13.02-.23.12-.37.44-.22.5-.42.95-.6 1.34h2.52l.35-.56.76.61Zm-4.18 2.14c.97.53 1.46 1.01 1.58 1.34.04.11.06.22.06.32 0 .32-.18.58-.35.58-.18 0-.24-.07-.29-.3-.13-.58-.49-1.22-1.09-1.83l.08-.11ZM118.99 24.4c.12.11.18.17.18.22 0 .04-.07.05-.23.05h-4.97v4.22c0 .65-.22.96-.98 1.29-.02.01-.04.01-.06.01-.04 0-.07-.02-.08-.08-.12-.48-.24-.56-1.68-.97l.05-.17c.82.14 1.34.23 1.67.23.55 0 .58-.22.58-.72v-3.81h-4.2c-.25 0-.6.05-.8.13l-.34-.4c.3.02.6.05.88.05h4.46v-.83c0-.43-.01-1.04-.02-1.29l.64.37 2.7-2.29h-6.36c-.25 0-.6.05-.8.13l-.34-.43c.3.02.6.05.88.05h6.54l.52-.38.7.82c.05.06.08.11.08.13 0 .04-.05.05-.16.06-.6.04-1.06.25-3.54 2.05.07.05.11.08.11.12 0 .06-.04.08-.42.28v1.22h3.62l.55-.78.84.73ZM131.26 29.35c-.78-.02-1.16.11-1.4.42-.02.02-.05.05-.07.05s-.06-.01-.1-.04c-2.16-1.07-3.47-2.52-3.96-4.99-.42.5-.98 1.04-1.62 1.57v2.85l2.48-1.04.07.17-1.86 1.07c-.52.3-.88.59-1.08.83-.02.02-.05.05-.07.05s-.05-.02-.07-.05l-.5-.61c.36-.23.48-.35.48-.6V26.8c-1.06.79-2.27 1.52-3.37 1.98l-.11-.16c2.18-1.26 3.93-2.67 4.95-3.86h-3.74c-.25 0-.6.05-.8.13l-.34-.47c.3.02.6.05.88.05h4.44v-1.45h-2.73c-.25 0-.6.05-.8.13l-.34-.44c.3.02.6.05.88.05h3v-1.54h-3.54c-.25 0-.6.05-.8.13l-.4-.46c.3.04.66.06.94.06h3.8c0-.83-.02-1.51-.05-1.94l.91.46c.07.04.11.07.11.11 0 .02-.04.06-.08.1l-.32.23v1.06h3.31l.46-.65.89.73c.07.06.1.1.1.13s-.04.05-.13.05h-4.62v1.54h2.43l.43-.62.8.7c.07.06.11.11.11.13 0 .05-.05.06-.14.06h-3.63v1.45h3.68l.48-.61.77.68c.08.07.12.12.12.16s-.06.06-.18.06h-4.94c.26.78.64 1.58 1.09 2.16.95-.55 1.87-1.19 2.29-1.54l.67.71s.06.07.06.1c0 .04-.04.05-.08.05s-.23-.02-.26-.02c-.3 0-.7.16-2.49.91.91 1.03 2.19 1.8 4.03 2.09v.14ZM143.36 29.15c-.56.08-.96.36-1.09.7-.02.06-.05.1-.14.1-1.85-.01-3.49-.06-4.62-.14-1.51-.11-2.25-.47-3.07-1.91-.06-.12-.11-.19-.17-.19-.16 0-1.1 1.69-1.3 2.1-.02.06-.06.1-.1.1-.02 0-.05-.01-.07-.04l-.61-.37 1.83-1.88v-3.59h-.96c-.22 0-.54.07-.7.16l-.35-.44c.23.02.56.05.76.05h1l.41-.6.85.61c.06.04.08.07.08.11 0 .02-.02.06-.07.08l-.44.26v3.39c.96 1.48 1.46 1.64 4.03 1.64 1.49 0 3.14-.1 4.73-.3v.17Zm-10.24-9.51c.24.13 1.85 1.01 1.85 1.68 0 .29-.2.61-.38.61-.13 0-.22-.07-.3-.37-.12-.46-.6-1.26-1.24-1.79zm9.78 2.81s.07.08.07.11q0 .06-.12.06h-3.37c-.05.71-.11 1.37-.18 1.76 1.57.86 2.55 1.69 2.81 2.05.19.28.26.55.26.78 0 .32-.16.56-.35.56-.13 0-.19-.05-.31-.4-.18-.49-1.18-1.96-2.47-2.76-.42 1.78-1.74 3.15-3.47 3.87l-.08-.16c2.36-1.57 3.06-2.69 3.23-5.72h-2.22c-.25 0-.6.05-.8.13l-.34-.44c.3.02.6.05.88.05h2.49c.04-.84.05-1.88.04-3.23l1.01.55c.06.04.1.06.1.08s-.04.06-.08.08l-.41.23c-.01.65-.04 1.49-.08 2.28h2.07l.53-.72.8.82ZM154.99 21.92c.1.1.14.14.14.18s-.06.05-.19.05h-4.17c.02.3.02.59.05.88.2 3.6 1.28 5.06 2.73 6 .13.08.24.13.31.13.13 0 .19-.12.25-.38l.34-1.56.22.02c-.07.6-.1 1.07-.1 1.43 0 .59.07.89.16 1 .17.24.23.35.23.42 0 .13-.1.14-.17.14-.16 0-.41-.06-.73-.22-3.35-1.6-3.67-4.82-3.83-7.86h-4.88c-.34 0-.66.02-.83.07l-.32-.37c.29.02.61.04.89.04h5.13c-.05-.75-.07-1.64-.1-2.7l.88.46c.07.04.12.07.12.1l-.38.3c-.01.61 0 1.24.02 1.85h2.96l.5-.7.77.73Zm-4.74 5.59-3.83 1.16c-.72.22-1.33.48-1.46.64-.04.04-.06.06-.08.06-.04 0-.07-.04-.12-.11l-.44-.62 2.59-.58V24.7h-1.31c-.44 0-.64.01-.84.07l-.31-.37c.23.04.49.05.89.05h3.27l.47-.62.65.67c.07.08.12.13.12.16 0 .04-.05.05-.14.05h-2.24v3.24l2.76-.61.04.18Zm1.47-7.88c.84.34 1.37.76 1.49 1 .05.1.07.2.07.3 0 .28-.16.54-.36.54-.12 0-.18-.05-.29-.44-.06-.24-.43-.79-.97-1.28l.06-.11ZM161.27 21.5c.06.04.1.07.1.1 0 .04-.04.06-.1.1l-.41.25v4.64c0 .91.02 1.65.06 2.19v.07c0 .18-.05.23-.31.34-.12.05-.19.07-.23.07-.07 0-.08-.06-.08-.16v-.88h-2.58v1.14c0 .16-.02.19-.24.29-.11.05-.18.07-.24.07-.1 0-.12-.08-.12-.29v-.08c.02-.67.04-1.69.04-2.34v-4.98c0-.61-.01-.82-.04-1.18l.73.6h.56c.32-.77.61-1.68.8-2.39l.76.4c.1.05.14.08.14.12s-.05.06-.13.07c-.17.02-.29.11-.4.28l-.95 1.52h1.48l.4-.55.76.59Zm-.98 3.07v-2.85h-2.58v2.85zm0 3.39v-3.13h-2.58v3.13zm6.31-6.38c.07.05.1.08.1.12s-.02.06-.1.11l-.38.23c-.08 3.11-.18 5.19-.25 6.22-.08 1.12-.19 1.47-1.12 1.99-.02.01-.05.02-.06.02-.05 0-.07-.05-.11-.14-.13-.41-.41-.59-1.5-.88v-.19c.68.16 1.14.25 1.45.25.59 0 .68-.31.74-1.02.11-1.16.23-3.61.29-6.5h-2.81c-.52 1.14-.95 1.91-1.52 2.73l-.13-.08c.79-1.44 1.6-3.66 2.05-5.32l.71.36c.12.06.18.11.18.16s-.06.08-.19.11c-.13.02-.23.12-.37.44-.22.5-.42.95-.6 1.34h2.52l.35-.56.76.61Zm-4.18 2.14c.97.53 1.46 1.01 1.58 1.34.04.11.06.22.06.32 0 .32-.18.58-.35.58-.18 0-.24-.07-.29-.3-.13-.58-.49-1.22-1.09-1.83l.08-.11ZM172.75 27.65l-1.9.67c-1.8.64-1.94.71-2.22.91-.04.02-.06.05-.08.05-.04 0-.06-.02-.08-.06l-.4-.67 4.63-1.07zm-.22-1.94c-2.9.74-2.95.77-3.3 1.02-.04.02-.07.05-.1.05-.04 0-.06-.02-.1-.07l-.48-.66c.49-.08.68-.24 1.03-.73.83-1.16 1.03-1.45 1.44-2.13-1.96.29-2.11.37-2.35.53-.05.02-.08.05-.11.05s-.05-.02-.07-.07l-.41-.63c.54-.16.68-.26.96-.68.72-1.13 1.33-2.36 1.6-3.08l.79.43c.06.02.1.06.1.08s-.04.06-.12.1c-.31.14-.4.22-.72.7-.82 1.17-1.2 1.69-1.82 2.48l2.28-.08c.22-.37.42-.76.62-1.2l.71.48c.06.04.08.07.08.1 0 .04-.04.06-.11.08-.28.1-.34.16-.55.44-.46.62-1.26 1.63-2.55 3.14l3.17-.49v.17Zm6.66-3.9s.07.08.07.11c0 .04-.04.05-.11.05h-3.12v2.16h1.55l.43-.55.73.67c.06.05.08.08.08.11s-.04.04-.11.04h-4.47c-.25 0-.6.05-.8.13l-.34-.44c.3.02.6.05.88.05h1.5v-2.16h-1.8c-.25 0-.61.05-.8.12l-.34-.43c.29.02.6.05.88.05h2.06V20.3c0-.47-.01-.76-.04-1.18l.89.4c.08.04.13.07.13.11 0 .02-.04.06-.11.11l-.32.22v1.76h1.94l.46-.67.76.78Zm-.89 4.26s.06.06.06.08-.01.05-.06.08l-.32.24v1.94c0 .78.01 1.08.04 1.42 0 .05.01.1.01.13 0 .16-.06.2-.25.28-.12.05-.2.07-.25.07-.08 0-.1-.05-.1-.16v-.85h-3.57v.64c0 .13-.02.16-.25.25-.11.05-.18.07-.23.07-.07 0-.11-.07-.11-.22 0-.05.01-.11.01-.17.02-.56.04-1.09.04-1.55v-1.66c0-.44-.01-.86-.04-1.24l.78.59h3.23l.28-.49.74.53Zm-.87 2.97v-2.75h-3.57v2.75zM186.31 25.04c1.15 1.96 2.63 3.26 4.95 3.65v.18c-.7 0-1.02.11-1.25.46-.02.05-.05.06-.08.06s-.07-.01-.12-.05c-1.67-1.07-2.94-2.35-3.75-4.29h-.13v2.52c0 .91 0 1.81.02 2.35v.1c0 .16-.04.2-.29.31-.12.05-.2.08-.25.08-.08 0-.1-.06-.1-.22v-.17c.04-.7.05-1.8.05-2.48v-2.2c-1.31 1.82-2.88 3.25-5.09 4.35l-.13-.16c2.36-1.48 3.65-2.77 4.73-4.5h-2.39v.32c0 .16-.04.2-.29.31-.11.05-.18.07-.23.07-.06 0-.07-.05-.07-.14 0-.11.02-.63.02-.75v-1.63c0-.28-.01-.83-.04-1.17l.78.58h2.7v-1.49h-4.07c-.25 0-.6.05-.8.13l-.34-.44c.3.02.6.05.88.05h4.33c0-.9-.02-1.47-.05-1.91l.97.41c.06.02.1.05.1.07s-.02.04-.06.07l-.4.35v1.01h3.63l.58-.78.9.88s.08.08.08.12c0 .02-.04.05-.11.05h-5.09v1.49h2.64l.38-.48.74.58s.07.06.07.08-.02.05-.07.08l-.38.26v1.12c0 .32.01.82.04 1.12v.06c0 .12-.04.16-.24.24a.7.7 0 0 1-.25.07c-.08 0-.11-.06-.11-.19v-.52h-2.43Zm-.95-.27v-1.89h-2.88v1.89zm3.38 0v-1.89h-2.82v1.89zM195.66 19.66c.08.06.13.1.13.13 0 .05-.05.08-.12.12-.3.17-.37.26-.46.44-.35.74-.68 1.4-1.02 2.01l.43.17c.06.02.08.05.08.07 0 .04-.02.07-.07.12l-.26.29v5.1c0 .62 0 1.12.04 1.67v.05c0 .18-.07.24-.41.42-.07.04-.12.06-.17.06-.07 0-.11-.06-.11-.23 0-.05 0-.12.01-.19.06-.62.08-1.2.08-1.8v-5.05c-.55.93-1.09 1.69-1.63 2.29l-.16-.11c1.22-1.81 2.18-3.74 2.91-6.01l.71.44Zm7.42 9.13c.07.06.1.11.1.16 0 .06-.05.1-.14.1h-7.34c-.25 0-.6.05-.8.13l-.34-.44c.3.04.6.05.88.05h3.71c.92-3.06 1.18-3.98 1.51-6.09l.86.56c.07.05.11.08.11.12 0 .02-.04.05-.07.06-.2.08-.29.18-.56.97-.54 1.54-1.04 2.96-1.55 4.38h2.29l.52-.74.84.75Zm-.43-6.82c.1.07.13.13.13.17 0 .06-.07.08-.18.08h-6.14c-.25 0-.6.05-.8.13l-.34-.44c.3.04.6.05.88.05h5.11l.52-.73.83.74Zm-6.21 1.18c.9 1.22 1.8 2.88 1.8 3.69 0 .58-.29.92-.56.92-.16 0-.23-.1-.23-.73 0-.84-.26-2.27-1.14-3.79l.13-.1Zm1.44-4.11c1.18.64 1.68 1.2 1.75 1.54.01.07.02.14.02.22 0 .37-.22.65-.42.65-.14 0-.19-.06-.29-.46-.11-.42-.53-1.19-1.14-1.82l.07-.12ZM215.15 29.41s.07.1.07.12c0 .04-.04.05-.12.05h-9.99c-.25 0-.6.05-.8.13l-.34-.44c.3.02.6.05.88.05h1.66v-4.71c0-.43-.01-.74-.02-1.03l.68.5h1.86l.17-.89h-3.77c-.25 0-.6.05-.8.13l-.31-.44c.3.02.6.05.88.05h4.05c.1-.47.18-.96.2-1.12h-3.43v.24c0 .11-.02.16-.25.25-.12.05-.19.07-.24.07-.06 0-.07-.04-.07-.13 0-.11.02-.65.02-.77v-1.28c0-.3-.01-.64-.04-.97l.62.5h7.15l.3-.46.71.53s.07.06.07.1c0 .02-.02.05-.07.07l-.29.16v.76c0 .16.05.85.05.96 0 .17-.06.22-.28.3-.12.05-.19.08-.24.08-.1 0-.1-.05-.1-.41h-3.73l.48.4s.06.06.06.1c0 .02-.01.05-.06.07l-.25.14-.08.41h4.02l.47-.65.72.74c.06.06.08.1.08.13 0 .02-.04.04-.12.04h-5.23l-.18.89h2.71l.4-.46.67.53c.06.04.08.07.08.11 0 .02-.02.05-.08.08l-.34.19v4.79h.96l.52-.66.7.76Zm-7.02-7.85V20h-2.11v1.56zm4.29 3.85v-1.07h-5.37v1.07zm0 1.27v-1.01h-5.37v1.01zm0 1.26v-1h-5.37v1zm0 1.38V28.2h-5.37v1.12zm-1.79-7.76V20h-1.95v1.56zm2.74 0V20h-2.18v1.56z" class="cls-1"/></svg>