<svg viewBox="0 0 127.99 30.41" xmlns="http://www.w3.org/2000/svg"><defs><style>.cls-1 {
        isolation: isolate;
      }</style></defs><g id="a"><g><g><g class="cls-1"><path d="M7.2,2.25c.1.07.14.13.14.17,0,.05-.05.08-.14.13l-.32.17v5.78c0,.91.02,1.66.06,2.19v.08c0,.17-.05.22-.3.32-.12.05-.19.07-.24.07-.07,0-.08-.06-.08-.16v-.92H.6v.83c0,.17-.02.2-.26.3-.11.05-.18.07-.24.07-.08,0-.1-.07-.1-.25v-.13c.02-.71.04-1.79.04-2.47V2.84c0-.29-.01-.86-.04-1.24l.77.64h1.44L2.64.11l.85.26c.11.04.16.07.16.1,0,.04-.04.06-.1.1-.34.17-.53.42-1.1,1.68h3.62l.41-.58.72.59ZM6.31,4.75v-2.24H.6v2.24h5.71ZM6.31,7.21v-2.19H.6v2.19h5.71ZM6.31,9.83v-2.36H.6v2.36h5.71Z"/></g><g class="cls-1"><path d="m13.16 3.74s.06.06.06.08c0 .04-.04.05-.1.06-.13.01-.38.13-.46.22-.4.41-1.37 1.22-2.58 2.15l-.14-.13c.88-.79 1.78-1.74 2.57-2.94l.65.56zm7.93 6.8c-.76.06-1.09.25-1.26.53-.02.04-.05.05-.1.05-.06 0-2.71-.59-4.26-1.57-1.32.89-3.19 1.49-5.37 1.86l-.05-.2c2.07-.49 3.75-1.16 4.96-1.97-.94-.71-1.5-1.48-2.05-2.6h-.41c-.2 0-.42.04-.62.13l-.34-.44c.3.02.6.05.88.05h4.96l.48-.52.73.65c.06.05.08.08.08.12s-.04.05-.12.06c-.23.02-.48.17-.66.43-.55.8-1.26 1.52-2.04 2.12 1.34.67 3.08 1.06 5.17 1.15v.16zm-.6-8.37c.06.06.08.11.08.13 0 .05-.04.06-.12.06h-3.53v1.62c0 .73.02 1.18.05 1.48v.06c0 .14-.05.18-.3.26-.11.04-.18.06-.23.06-.08 0-.11-.06-.11-.22 0-.24.01-1.39.01-1.66v-1.61h-1.77v1.67c0 .73.01 1.01.02 1.48 0 .19-.02.24-.26.32-.11.04-.18.06-.24.06-.1 0-.12-.07-.12-.23v-.08c.02-.56.04-1.02.04-1.56v-1.66h-2.59c-.25 0-.6.05-.8.13l-.34-.44c.3.02.6.05.88.05h8l.54-.76.79.83zm-7.18 4.46c.48.92 1.22 1.76 2.12 2.33.91-.7 1.61-1.55 2.07-2.33h-4.2zm1.11-6.49c.55.16 1.67.58 1.67 1.28 0 .31-.19.53-.38.53-.13 0-.19-.13-.24-.3-.14-.48-.47-.97-1.12-1.4l.07-.11zm3.45 3.31c1.64.6 2.58 1.24 2.65 1.68.01.07.01.14.01.2 0 .31-.13.48-.3.48-.11 0-.2-.1-.36-.38-.24-.46-1.02-1.21-2.06-1.86l.06-.12z"/></g><g class="cls-1"><path d="m32.91 4.31c.06.05.08.08.08.11 0 .04-.05.06-.13.06h-9.87c-.25 0-.6.05-.8.13l-.34-.35c.3.02.6.05.88.05h8.96l.47-.66.75.66zm-.15 6.26s.07.08.07.11c0 .04-.04.05-.12.05h-9.58c-.25 0-.6.05-.8.13l-.34-.35c.3.02.6.05.88.05h4.25v-1.12h-2.6c-.25 0-.6.05-.8.13l-.34-.35c.3.02.6.05.88.05h2.87v-1.09h-2.57v.26c0 .17-.04.22-.28.3-.1.04-.17.05-.22.05-.07 0-.08-.04-.08-.12 0-.06.04-.9.04-1.07v-1.62c0-.34-.01-.74-.04-1.08l.68.49h5.44l.3-.44.74.49c.06.04.08.07.08.11s-.02.06-.08.1l-.35.22v1.35c0 .3.01.62.05.97 0 .02.01.05.01.07 0 .23-.49.41-.53.41-.11 0-.11-.05-.11-.49h-2.53v1.09h2.85l.44-.64.7.67s.07.07.07.1-.05.04-.14.04h-3.92v1.12h3.89l.46-.65.73.66zm-1.79-9.62c.06.04.08.08.08.12s-.02.06-.08.1l-.37.22v1.34c0 .11.02.64.02.76 0 .2-.5.32-.5.32-.11 0-.11-.05-.11-.46h-5.18c0 .37 0 .41-.28.55-.12.06-.19.1-.24.1-.07 0-.08-.05-.08-.16 0-.12.02-.97.02-1.15v-1.3c0-.34-.01-.74-.04-1.08l.73.59h4.91l.38-.5.73.55zm-3.86 5.73v-1.12h-2.57v1.12h2.57zm0 1.33v-1.16h-2.57v1.16h2.57zm2.9-6v-.95h-5.18v.95h5.18zm0 1.17v-1h-5.18v1h5.18zm.2 3.5v-1.12h-2.53v1.12h2.53zm0 1.33v-1.16h-2.53v1.16h2.53z"/></g><g class="cls-1"><path d="m45.01 10.04c-.6.11-.79.24-.98.59-.06.11-.1.13-.2.13-1.81 0-3.36-.11-4.29-.31-1.31-.29-2.25-1.13-2.93-2.15-.6 1.14-1.52 2.33-2.65 2.96l-.06-.12c1.45-1.18 2.3-2.99 2.73-4.69l.78.4c.08.04.12.06.12.1 0 .02-.26.13-.42.2-.11.29-.23.6-.4.92.73.92 1.64 1.62 2.6 1.85v-3.8h-4.2c-.42 0-.56.01-.74.05l-.36-.37c.41.05.6.06.89.06h8.62l.47-.62.78.73c.06.05.08.08.08.11 0 .04-.06.05-.2.05h-4.79v1.63h2.66l.47-.62.7.67c.08.08.13.14.13.17 0 .04-.06.05-.17.05h-3.79v1.99c.49.06 1.1.08 1.78.08 1.07 0 2.28-.07 3.36-.24v.19zm-2.37-9.08c.07.04.1.07.1.11s-.02.06-.1.11l-.36.23v1.81c0 .7.01 1.01.06 1.55 0 .05.01.08.01.12 0 .13-.06.18-.3.29-.12.06-.19.08-.24.08-.07 0-.08-.06-.08-.2v-.42h-4.44c0 .36 0 .4-.24.53-.12.07-.2.11-.26.11s-.08-.06-.08-.19c0-.06 0-.13.01-.23.02-.29.04-.73.04-1.04v-2.26c0-.46-.01-.85-.04-1.22l.82.56h3.99l.34-.47.78.53zm-.91 1.61v-1.4h-4.44v1.4h4.44zm0 1.8v-1.54h-4.44v1.54h4.44z"/></g><g class="cls-1"><path d="m49.96 1.56c1.21.78 1.64 1.21 1.64 1.76 0 .3-.18.52-.37.52s-.24-.17-.35-.61c-2.87.25-3.65.35-3.99.49-.07.04-.12.05-.16.05-.05 0-.07-.04-.1-.07l-.41-.59c.47-.08.71-.17 1.06-.6.6-.77.93-1.3 1.55-2.41l.66.53c.07.06.11.1.11.12 0 .04-.06.05-.16.06-.19.02-.31.08-.41.19-.74.85-1.07 1.2-2.02 2.18l3.78-.18c-.13-.34-.36-.65-.94-1.33l.1-.11zm.89 3.25c.07.06.11.1.11.13 0 .02-.02.05-.08.08l-.28.16v4.74c0 .76-.01.97-.56 1.25-.05.02-.08.04-.11.04-.07 0-.11-.06-.16-.19-.1-.25-.35-.4-1.12-.65l.05-.17c.49.08.8.12 1.01.12.32 0 .35-.11.35-.37v-1.68h-2.48v2.28c0 .36-.01.41-.31.58-.13.07-.2.11-.25.11s-.07-.04-.07-.11c0-.04.01-.07.01-.11.05-.47.07-.95.07-1.46v-4.07c0-.55-.01-1.04-.04-1.26l.71.55h2.17l.35-.48.64.52zm-.79 1.55v-1.32h-2.48v1.32h2.48zm0 1.64v-1.38h-2.48v1.38h2.48zm6.48.26c0 1.12.07 1.57.26 1.74.06.06.11.1.11.14 0 .02-.01.05-.02.07-.23.46-.36.73-2.66.73-1.95 0-1.95-.16-1.95-1.01v-3.6c0-.53-.01-.73-.04-1.04l.89.46c.08.04.12.07.12.11 0 .02-.02.06-.1.11l-.31.22v2.1c.83-.49 2.09-1.29 2.82-1.89l.62.44c.06.05.1.08.1.11 0 .05-.07.07-.23.1-.2.02-.42.08-.59.17-.71.36-1.87.94-2.72 1.31v1.39c0 .5.19.5 1.14.5.59 0 1.14-.01 1.49-.04.66-.05.73-.17.89-2.12h.19zm-.22-5.5c.04.96.1 1.33.29 1.49.07.06.11.1.11.14 0 .02-.01.05-.02.08-.31.64-.65.64-2.3.64-1.8 0-2.04-.06-2.04-.7v-3.26c0-.43-.01-.77-.04-1l.86.46c.1.05.16.08.16.12 0 .05-.01.05-.42.32v1.88c.75-.43 2.05-1.24 2.85-1.9l.55.48c.06.05.08.08.08.11 0 .05-.08.07-.31.11-.17.02-.35.08-.48.14-.7.36-1.92.97-2.7 1.3v1c0 .43.22.43 1.02.43.54 0 1.33 0 1.49-.01.52-.04.65-.24.73-1.83h.17z"/></g><g class="cls-1"><path d="m68.9 9.91c.07.07.11.12.11.16 0 .05-.06.06-.17.06h-7.93v.86c0 .11-.02.14-.25.25-.11.05-.18.07-.23.07-.07 0-.1-.06-.1-.23v-.08c.02-.55.04-1.4.04-1.93v-3.31c-.85 1.07-1.68 1.86-2.47 2.46l-.13-.14c1.22-1.24 1.83-1.94 2.58-3.01 0-.24-.01-.46-.02-.6l.31.19c.52-.76.92-1.4 1.26-2h-2.61c-.24 0-.59.05-.77.12l-.32-.43c.28.02.58.05.84.05h3.01c.44-.8.77-1.52 1.09-2.34l.89.54s.07.06.07.08-.04.05-.12.07c-.37.11-.43.17-.56.4-.25.43-.49.85-.73 1.25h4.58l.53-.68.7.7c.1.1.13.16.13.19 0 .05-.06.06-.19.06h-5.9c-.53.84-1.02 1.6-1.5 2.25.16.08.17.1.17.13 0 .02-.14.14-.28.25v4.59h3.67v-3.51h-1.63c-.24 0-.59.05-.77.12l-.32-.43c.28.02.58.05.84.05h1.88v-1.7c0-.47-.01-.76-.04-1.18l.89.37c.08.04.12.06.12.08 0 .04-.04.07-.1.12l-.32.25v2.05h1.71l.5-.71.67.72c.08.08.12.14.12.19s-.06.06-.18.06h-2.83v3.51h2.39l.68-.77.7.79z"/></g><g class="cls-1"><path d="m80.9 4.98c.07.07.11.13.11.17s-.06.06-.18.06h-9.77c-.25 0-.6.04-.8.12l-.34-.44c.3.02.6.05.88.05h8.75l.54-.8.82.85z"/></g><g class="cls-1"><path d="M93.13,10.21c-.62.16-.88.35-1.02.67-.02.05-.08.08-.16.08-1.34,0-2.83-.06-3.63-.14-1.92-.19-2.67-.8-3.68-2.99-.73,1.93-1.56,2.87-2.78,3.57l-.1-.13c1.61-1.35,2.21-2.72,2.72-5.21l.84.5s.07.05.07.07-.02.05-.08.07c-.19.1-.37.24-.41.36-.05.16-.1.3-.16.44.73,1.39,1.54,2.38,2.7,2.61v-5.28h-3.55c-.25,0-.6.05-.8.13l-.34-.44c.3.02.6.05.88.05h7.35l.48-.66.8.76c.06.05.08.1.08.12,0,.04-.04.05-.13.05h-4.21v2.24h2.21l.48-.67.76.77c.06.06.08.1.08.12,0,.04-.05.05-.13.05h-3.39v2.84c.49.05,1.04.06,1.61.06,1.36,0,2.77-.11,3.51-.24v.18ZM92.8,2.34s.04.05.04.06c0,.04-.02.05-.08.06-.61.08-1.03.36-1.7,1.1l-.16-.1.7-1.15h-7.51c-.07.65-.31,1.46-1,1.46-.25,0-.43-.14-.43-.32,0-.12.11-.24.35-.4.41-.28.77-.8.92-1.71h.18c.01.26.01.49,0,.71h7.44l.41-.49.85.78ZM86.76.16c1.09.36,1.56.78,1.56,1.1,0,.38-.29.73-.47.73-.19,0-.26-.16-.29-.41-.02-.22-.18-.61-.9-1.32l.1-.11Z"/></g><g class="cls-1"><path d="m104.89 1.79c.08.07.12.13.12.18 0 .06-.06.08-.17.08h-3.42v.53c0 .11.02.64.02.74 0 .12-.05.14-.26.24-.11.05-.18.07-.23.07-.08 0-.11-.07-.11-.24 0-.12.01-.71.01-.84v-.5h-2.57v.4c0 .13.02.76.02.9 0 .19-.49.3-.5.3-.08 0-.1-.06-.1-.22 0-.14.01-.85.01-1.01v-.37h-2.72c-.25 0-.6.05-.8.13l-.34-.44c.3.02.6.05.88.05h2.99v-.47c0-.3-.01-.64-.04-1.03l.85.36c.11.05.17.07.17.11s0 .04-.42.26v.77h2.57v-.5c0-.3-.01-.64-.04-1.03l.86.44c.11.05.16.1.16.13s-.05.06-.14.11l-.28.14v.71h2.3l.47-.66.7.66zm-6.71 2.77-1.69 3.17c-.28.5-.37.95-.37 1.4 0 .26.02.53.08.82.06.3.08.52.08.68 0 .38-.16.46-.46.46-.23 0-.36-.1-.36-.41 0-.18.05-.43.14-.78.06-.2.1-.38.1-.55 0-.54-.35-.92-1.37-1.21l.04-.14c.44.11.73.18.96.18.38 0 .53-.19.8-.65l1.89-3.07.14.11zm-3.79.37c.54.18 1.67.71 1.67 1.22 0 .23-.17.46-.3.46-.12 0-.22-.1-.31-.3-.18-.4-.41-.73-1.08-1.26l.02-.12zm1.21-1.86c.84.31 1.5.68 1.5 1.1 0 .25-.18.47-.3.47-.11 0-.23-.11-.32-.35-.12-.29-.42-.73-.95-1.1l.07-.12zm8.89 5.04c-.01.25-.02.48-.02.67 0 .78.13 1.07.4 1.16.05.02.07.05.07.08 0 .02-.01.05-.02.08-.36.83-.98.83-3.65.83-2.3 0-2.31 0-2.31-1.14v-4.85c0-.34-.01-.95-.04-1.43l.71.56h2.81l.36-.52.73.55c.08.06.13.1.13.14s-.05.06-.13.11l-.4.2-.16 2.66c-.04.64-.24 1.1-.94 1.38-.05.02-.08.04-.11.04-.07 0-.1-.05-.12-.16-.1-.37-.43-.52-1.27-.68l.05-.18c.5.1.88.14 1.14.14.63 0 .71-.26.73-.74l.16-2.69h-3.09v5.49c0 .46.07.54.62.56.43.02.92.04 1.39.04.54 0 1.07-.01 1.46-.04 1.04-.05 1.25-.24 1.33-2.3h.17z"/></g><g class="cls-1"><path d="M116.37.79c.08.06.12.11.12.14,0,.05-.04.08-.11.12l-.41.24v7.23c0,.86.02,1.7.06,2.23v.06c0,.14-.05.19-.36.34-.08.04-.14.06-.18.06-.06,0-.07-.05-.07-.14v-.85h-8.02v.64c0,.2-.04.24-.25.34-.12.05-.2.08-.26.08-.08,0-.11-.07-.11-.23v-.16c.04-.54.07-1.48.07-2.48V1.9c0-.49-.02-1.31-.05-1.75l.77.65h7.59l.43-.62.78.62ZM115.42,9.95V1.06h-8.02v8.9h8.02ZM114.5,2.7c.08.07.12.13.12.17,0,.05-.05.07-.17.07h-3.12v1.38h1.43l.47-.59.66.61c.08.07.12.13.12.17,0,.05-.05.07-.17.07h-2.51v1.31h2.1l.31-.5.67.55c.06.05.1.08.1.11,0,.04-.04.06-.1.1l-.32.18c-.17,1.73-.26,2.05-1.05,2.42-.04.01-.06.02-.08.02-.04,0-.06-.02-.07-.08-.07-.37-.22-.52-.88-.77l.04-.16c.42.11.71.17.91.17.42,0,.48-.08.61-1.79h-2.23v1.56c0,.55,0,.86.04,1.37v.06c0,.16-.05.2-.33.34-.08.04-.14.06-.19.06-.07,0-.1-.06-.1-.2,0-.04.01-.1.01-.16.02-.46.04-.84.04-1.49v-1.54h-2.06c-.22,0-.37.02-.56.11l-.36-.41c.26.04.46.05.7.05h2.29v-1.31h-1.26c-.25,0-.6.06-.8.14l-.34-.46c.3.04.6.05.88.05h1.52v-1.38h-1.67c-.25,0-.6.06-.8.14l-.34-.46c.3.04.6.05.88.05h1.93c0-.77-.01-1.21-.05-1.58l.83.42c.08.05.12.07.12.11,0,.05-.04.06-.36.23v.83h2.05l.44-.64.67.66Z"/></g><g class="cls-1"><path d="M127.86,2.77c.1.07.13.12.13.16s-.04.07-.13.13l-.35.22v6.88c0,.55-.12.77-.88,1.15-.04.01-.06.02-.08.02-.05,0-.07-.04-.1-.11-.14-.49-.56-.74-1.78-1.08v-.17c.95.17,1.5.25,1.81.25.41,0,.44-.14.44-.41V3.06h-3.42c-.05.78-.13,1.36-.24,1.85,1.58.85,2.16,1.39,2.52,1.86.13.17.18.35.18.52,0,.34-.2.64-.44.64-.11,0-.2-.08-.4-.62-.1-.25-.72-1.3-1.92-2.13-.32,1.06-1.49,2.61-3.15,3.47l-.08-.14c2.05-1.71,2.82-2.75,2.96-5.42h-3.23v5.36c0,.91.01,1.77.05,2.31v.07c0,.17-.05.2-.3.34-.12.06-.2.1-.26.1-.07,0-.1-.07-.1-.28v-.13c.02-.71.04-1.75.04-2.44V3.85c0-.49-.02-1.31-.05-1.75l.73.7h3.13c.01-.26.01-.54.01-.83,0-.58-.01-1.24-.05-1.97l1.02.49c.07.04.11.06.11.08s-.04.05-.11.1l-.31.2c-.02.74-.05,1.38-.08,1.92h3.11l.43-.64.78.61Z"/></g></g><g><g class="cls-1"><path d="m25.57 19.71c.1.06.14.11.14.14s-.05.06-.14.1c-.28.1-.34.18-.47.44-.41.79-.75 1.45-1.09 2.04l.55.31s.08.06.08.08c0 .04-.04.06-.1.11l-.31.2v4.65c0 .74.01 1.36.05 1.9v.08c0 .19-.05.23-.28.32-.11.05-.19.07-.25.07-.08 0-.11-.07-.11-.28v-.11c.02-.71.04-1.39.04-2.01v-4.77c-.59.96-1.16 1.74-1.93 2.64l-.14-.11c1.38-2.03 2.45-4.09 3.19-6.34l.77.53zm7.35 4.79c.11.08.17.16.17.19 0 .05-.07.07-.22.07h-3.59v4.16h1.86l.49-.7.82.7c.11.1.16.16.16.19 0 .05-.06.07-.2.07h-5.85c-.25 0-.6.05-.8.13l-.33-.44c.3.02.6.05.88.05h2.42v-4.16h-2.9c-.25 0-.6.05-.8.13l-.34-.44c.3.02.6.05.88.05h3.17v-3.41c-1.2.2-2.1.3-3.12.36l-.02-.16c2.09-.38 3.99-.79 5.89-1.46l.5.54c.08.08.13.14.13.18s-.04.05-.08.05-.26-.04-.31-.04c-.12 0-.28.02-.42.05-.76.16-1.42.28-1.99.38v3.5h2.35l.44-.68.84.68z"/></g><g class="cls-1"><path d="m45.06 22.53c.05.06.08.1.08.12 0 .04-.05.05-.13.05h-10.03c-.25 0-.6.05-.8.13l-.34-.43c.3.02.6.05.88.05h5.64c.25-.36.48-.74.96-1.64l.66.46s.06.06.06.08-.02.04-.07.05c-.35.04-.61.3-1.33 1.06h3.18l.54-.66.71.74zm-9.2 5c0 2.43-1.07 2.43-1.16 2.43-.17 0-.4-.1-.4-.34 0-.13.07-.28.22-.35.63-.31.98-.71 1.2-1.78l.14.02zm8.38-6.94s.06.08.06.11c0 .04-.04.05-.11.05h-8.48c-.25 0-.6.05-.8.13l-.34-.43c.3.02.6.05.88.05h7.52l.55-.71.72.8zm-1.06 3.04s.06.06.06.08c0 .04-.01.06-.06.1l-.29.22v1.58c0 .22.05 1.31.05 1.34 0 .12-.04.17-.29.26-.12.05-.2.07-.25.07-.06 0-.07-.05-.07-.14v-.46h-5.47v.2c0 .2-.38.3-.5.3-.08 0-.11-.06-.11-.17 0-.05.01-.08.01-.14.02-.35.04-.7.04-1.13v-1.58c0-.31 0-.71-.02-1.02l.66.48h5.19l.35-.48.71.48zm-.85 1.35v-1.09h-5.47v1.09h5.47zm0 1.46v-1.21h-5.47v1.21h5.47zm-5.17-5.52c.86.31 1.31.62 1.39.85.02.05.02.11.02.16 0 .22-.14.41-.26.41s-.2-.05-.29-.25c-.14-.35-.3-.6-.9-1.02l.04-.14zm4.91 6.75c0 1.16.08 1.39.38 1.54.06.02.08.06.08.1 0 .02-.01.05-.02.07-.37.61-.47.61-2.7.61-.5 0-1.03-.01-1.63-.01-.78-.01-.97-.17-.97-.61v-1.21c0-.38-.01-.71-.04-.98l.79.46c.06.04.08.06.08.1 0 .05-.02.06-.29.24v1.13c0 .44.1.44 1.92.44.49 0 .95-.01 1.27-.02.8-.04.85-.25.93-1.83h.18zm-3.6-8.56c1.13.19 1.66.49 1.66 1.01 0 .2-.12.32-.31.32-.14 0-.22-.05-.31-.25-.13-.28-.47-.62-1.1-.95l.07-.13zm.42 7.77c1.13.4 1.56.68 1.56 1.15 0 .28-.16.47-.32.47-.14 0-.24-.06-.29-.24-.13-.49-.37-.82-1.01-1.27l.06-.11zm4.03.65c1.39.7 2.01 1.13 2.01 1.67 0 .28-.18.47-.29.47-.18 0-.24-.05-.35-.3-.25-.61-.56-1.04-1.45-1.72l.07-.12z"/></g><g class="cls-1"><path d="m52.73 20.02c.06.06.1.11.1.14s-.05.06-.14.06h-1.97v6.25l1.88-.47.06.19-1.94.6v1.49c0 .25.06 1.44.06 1.63 0 .16-.04.2-.29.31-.11.05-.19.07-.25.07-.08 0-.11-.07-.11-.28 0-.25.02-1.49.02-1.76v-1.28l-2.32.72c-.43.13-1.07.44-1.27.62-.02.02-.05.04-.07.04s-.05-.01-.08-.05l-.61-.61 1.58-.4v-7.08h-.42c-.25 0-.6.05-.8.13l-.34-.44c.3.02.6.05.88.05h4.88l.48-.66.67.72zm-2.58 2.2v-1.99h-2.22v1.99h2.22zm0 2.32v-2.06h-2.22v2.06h2.22zm0 2.08v-1.81h-2.22v2.36l2.22-.55zm6.98 2.34c-.74-.01-1.02.1-1.14.28-.01.02-.04.04-.07.04-.11 0-1.38-.96-2.12-2-.72 1.04-1.62 1.83-2.89 2.65l-.06-.23c1.09-.84 1.97-1.74 2.64-2.88-.82-1.33-1.15-2.93-1.42-5.33-.24.01-.52.06-.7.12l-.33-.43c.3.02.6.05.88.05h3.06l.41-.58.78.64s.07.08.07.11c0 .04-.02.07-.07.1l-.38.23c-.48 2.25-.97 3.83-1.68 5.06.73.96 1.7 1.57 3.03 2.03v.16zm-4.78-7.47c.3 2.15.73 3.68 1.42 4.81.65-1.25 1.08-2.79 1.34-4.81h-2.76z"/></g><g class="cls-1"><path d="m61.46 19.66c.06.04.08.07.08.1 0 .04-.04.06-.11.08-.23.08-.3.18-.44.5-.24.52-.58 1.19-1 1.88l.47.25s.06.05.06.07c0 .04-.04.05-.34.25v4.94c0 .9.02 1.52.05 1.9v.1c0 .16-.04.2-.28.31-.1.05-.17.07-.22.07-.07 0-.1-.07-.1-.26v-.12c.02-.71.04-1.39.04-2.01v-4.97c-.53.85-1.14 1.73-1.74 2.41l-.14-.1c1.22-1.81 2.49-4.34 2.95-5.94l.71.53zm7.62 9.75s.07.08.07.11c0 .04-.04.05-.12.05h-7.35c-.25 0-.6.05-.8.13l-.34-.44c.3.02.6.05.88.05h1.1v-6.1c0-.43-.01-.95-.02-1.24l.72.54h1.33l.05-1.38h-2.25c-.25 0-.6.05-.8.13l-.33-.44c.3.02.6.05.88.05h2.53l.02-.6c.01-.43.01-.85.01-1.18l.95.42c.06.02.1.05.1.08 0 .02-.04.06-.08.1l-.36.23-.06.95h2.48l.41-.66.75.74c.06.06.1.11.1.13 0 .04-.05.05-.13.05h-3.62l-.1 1.38h1.58l.4-.53.72.61s.07.07.07.11c0 .02-.02.06-.07.1l-.37.28v6.24h.48l.47-.64.73.74zm-2.24-5.24v-1.4h-3.77v1.4h3.77zm0 1.67v-1.4h-3.77v1.4h3.77zm0 1.62v-1.35h-3.77v1.35h3.77zm0 1.85v-1.58h-3.77v1.58h3.77z"/></g><g class="cls-1"><path d="m75.07 21.57c.06.04.1.07.1.1 0 .04-.04.06-.1.1l-.41.25v4.64c0 .91.02 1.65.06 2.19v.07c0 .18-.05.23-.31.34-.12.05-.19.07-.23.07-.07 0-.08-.06-.08-.16v-.88h-2.58v1.14c0 .16-.02.19-.24.29-.11.05-.18.07-.24.07-.1 0-.12-.08-.12-.29v-.08c.02-.67.04-1.69.04-2.34v-4.98c0-.61-.01-.82-.04-1.18l.73.6h.56c.32-.77.61-1.68.8-2.39l.76.4c.1.05.14.08.14.12s-.05.06-.13.07c-.17.02-.29.11-.4.28l-.95 1.52h1.47l.4-.55.75.59zm-.97 3.07v-2.85h-2.58v2.85h2.58zm0 3.39v-3.13h-2.58v3.13h2.58zm6.31-6.38c.07.05.1.08.1.12s-.02.06-.1.11l-.38.23c-.08 3.11-.18 5.19-.25 6.22-.08 1.12-.19 1.48-1.12 1.99-.02.01-.05.02-.06.02-.05 0-.07-.05-.11-.14-.13-.41-.41-.59-1.5-.88v-.19c.68.16 1.14.25 1.45.25.59 0 .68-.31.74-1.02.11-1.16.23-3.61.29-6.5h-2.81c-.52 1.14-.95 1.91-1.52 2.73l-.13-.08c.79-1.44 1.59-3.66 2.05-5.32l.71.36c.12.06.18.11.18.16s-.06.08-.19.11-.23.12-.37.44c-.22.5-.42.95-.6 1.34h2.52l.35-.56.76.61zm-4.19 2.14c.97.53 1.46 1.01 1.58 1.34.04.11.06.22.06.32 0 .32-.18.58-.35.58-.18 0-.24-.07-.29-.3-.13-.58-.49-1.22-1.09-1.83l.08-.11z"/></g><g class="cls-1"><path d="m85.16 22.75s.06.06.06.08c0 .04-.04.05-.1.06-.13.01-.38.13-.46.22-.4.41-1.37 1.22-2.58 2.15l-.14-.13c.88-.79 1.78-1.74 2.57-2.94l.65.56zm7.93 6.8c-.76.06-1.09.25-1.26.53-.02.04-.05.05-.1.05-.06 0-2.71-.59-4.26-1.57-1.32.89-3.19 1.49-5.37 1.86l-.05-.2c2.07-.49 3.75-1.16 4.96-1.97-.94-.71-1.5-1.48-2.05-2.6h-.41c-.2 0-.42.04-.62.13l-.34-.44c.3.02.6.05.88.05h4.96l.48-.52.73.65c.06.05.08.08.08.12s-.04.05-.12.06c-.23.02-.48.17-.66.43-.55.8-1.26 1.52-2.04 2.12 1.34.67 3.08 1.06 5.17 1.15v.16zm-.6-8.38c.06.06.08.11.08.13 0 .05-.04.06-.12.06h-3.53v1.62c0 .73.02 1.18.05 1.48v.06c0 .14-.05.18-.3.26-.11.04-.18.06-.23.06-.08 0-.11-.06-.11-.22 0-.24.01-1.39.01-1.66v-1.61h-1.77v1.67c0 .73.01 1.01.02 1.48 0 .19-.02.24-.26.32-.11.04-.18.06-.24.06-.1 0-.12-.07-.12-.23v-.08c.02-.56.04-1.02.04-1.56v-1.66h-2.59c-.25 0-.6.05-.8.13l-.34-.44c.3.02.6.05.88.05h8l.54-.76.79.83zm-7.18 4.47c.48.92 1.22 1.76 2.12 2.33.91-.7 1.61-1.55 2.07-2.33h-4.2zm1.11-6.49c.55.16 1.67.58 1.67 1.28 0 .31-.19.53-.38.53-.13 0-.19-.13-.24-.3-.14-.48-.47-.97-1.12-1.4l.07-.11zm3.45 3.31c1.64.6 2.58 1.24 2.65 1.68.01.07.01.14.01.2 0 .31-.13.48-.3.48-.11 0-.2-.1-.36-.38-.24-.46-1.02-1.21-2.06-1.86l.06-.12z"/></g><g class="cls-1"><path d="m104.91 23.31c.06.05.08.08.08.11 0 .04-.05.06-.13.06h-9.87c-.25 0-.6.05-.8.13l-.34-.35c.3.02.6.05.88.05h8.96l.47-.66.75.66zm-.15 6.26s.07.08.07.11c0 .04-.04.05-.12.05h-9.58c-.25 0-.6.05-.8.13l-.34-.35c.3.02.6.05.88.05h4.25v-1.12h-2.6c-.25 0-.6.05-.8.13l-.34-.35c.3.02.6.05.88.05h2.87v-1.09h-2.57v.26c0 .17-.04.22-.28.3-.1.04-.17.05-.22.05-.07 0-.08-.04-.08-.12 0-.06.04-.9.04-1.07v-1.62c0-.34-.01-.74-.04-1.08l.68.49h5.44l.3-.44.74.49c.06.04.08.07.08.11s-.02.06-.08.1l-.35.22v1.35c0 .3.01.62.05.97 0 .02.01.05.01.07 0 .23-.49.41-.53.41-.11 0-.11-.05-.11-.49h-2.53v1.09h2.85l.44-.64.7.67s.07.07.07.1-.05.04-.14.04h-3.92v1.12h3.89l.46-.65.73.66zm-1.79-9.62c.06.04.08.08.08.12s-.02.06-.08.1l-.37.22v1.34c0 .11.02.64.02.76 0 .2-.5.32-.5.32-.11 0-.11-.05-.11-.46h-5.18c0 .37 0 .41-.28.55-.12.06-.19.1-.24.1-.07 0-.08-.05-.08-.16 0-.12.02-.97.02-1.15v-1.3c0-.34-.01-.74-.04-1.08l.73.59h4.91l.38-.5.73.55zm-3.86 5.73v-1.12h-2.57v1.12h2.57zm0 1.34v-1.16h-2.57v1.16h2.57zm2.9-6v-.95h-5.18v.95h5.18zm0 1.16v-1h-5.18v1h5.18zm.2 3.5v-1.12h-2.53v1.12h2.53zm0 1.34v-1.16h-2.53v1.16h2.53z"/></g></g></g></g></svg>
