<svg viewBox="0 0 102.75 12.19" xmlns="http://www.w3.org/2000/svg"><defs><style>.cls-1 {fill: #ea4335;}.cls-2 {fill: #4285f4;}.cls-3 {fill: #34a853;}.cls-4 {fill: #b3b3b3;}.cls-5 {fill: #fbbc05;}</style></defs><g id="a"><g><path class="cls-2" d="m13.6.25c-.16.14-.27.24-.32.32-.06.08-.13.22-.2.42l-.31.94c-.34.99-.69 1.99-1.06 2.98l-.66 1.8c-.26.74-.48 1.3-.67 1.68-.47.06-.88.15-1.25.27-.19-.57-.37-1.14-.54-1.71-.4-1.39-.75-2.67-1.06-3.85-.19-.73-.35-1.36-.49-1.89-.38 1.11-.75 2.22-1.12 3.33-.23.66-.47 1.31-.71 1.97-.28.89-.52 1.51-.71 1.88-.51.06-.94.15-1.3.27-.2-.67-.4-1.35-.58-2.03-.36-1.34-.71-2.78-1.08-4.31-.15-.61-.29-1.23-.44-1.88l-1.08.04.72-.48h2.08l-.24.3c-.11.11-.16.22-.16.33 0 .16.07.52.22 1.07.09.32.16.65.23.97l.61 2.41c.13.52.26 1.04.39 1.54.15.6.28 1.03.36 1.3.25-.67.59-1.64 1.04-2.91l.51-1.49c.55-1.67.86-2.7.93-3.07h-1.07l.75-.44h2.21l-.27.34c-.1.09-.16.2-.16.35 0 .03 0 .07.01.11-.02.02.07.36.26 1.03.01.05.13.5.35 1.36l.56 2.06c.13.47.26.93.39 1.38.15.55.29.98.4 1.28.39-.99.73-1.92 1.04-2.81l.72-1.99c.15-.46.29-.92.44-1.38.19-.57.31-1 .37-1.28h-1.41l.78-.44h1.8l-.27.25z"/><path class="cls-2" d="m19.9 8.48h-1.92c.12-.14.19-.24.22-.32s.05-.2.05-.34l.05-2.26c.02-.38 0-.73-.03-1.03-.04-.3-.15-.54-.34-.72s-.43-.26-.7-.26c-.28 0-.5.08-.67.22-.19.14-.33.27-.42.39-.17.21-.28.38-.34.48l-.02 2.81c0 .21.02.36.05.47.03.1.11.17.24.22.24.04.49.07.74.11l-.4.25h-2.02c.11-.14.19-.24.22-.31.02-.07.03-.18.03-.31v-1.03c.02-1.45.04-2.88.07-4.28.03-1.34.05-2.05.05-2.12l-.92.05.92-.49h1.62c-.29.2-.43.33-.43.39-.05.09-.07.27-.08.56-.02.48-.04.97-.04 1.48l-.04 1.52c.07-.09.17-.19.28-.31s.25-.24.4-.35c.16-.12.36-.22.58-.3.22-.07.47-.11.75-.11.17 0 .36.02.57.07.2.05.4.18.6.39.2.22.32.46.37.72.03.27.05.53.05.8 0 .96-.03 1.91-.06 2.86v.06c0 .13.02.21.06.25s.08.06.12.07c.04 0 .09 0 .17.03.08 0 .17.02.26.04.21.02.35.04.44.06l-.49.26z"/><path class="cls-5" d="m24.56 5.9c.17.63.35 1.19.53 1.67.12.28.22.49.31.64.09.14.18.27.27.38-.12.02-.24.03-.34.04-.25-.01-.49-.08-.72-.22-.19-.12-.32-.25-.41-.38-.1-.14-.18-.26-.23-.37l-.55.55c-.11.07-.28.15-.51.25-.24.11-.54.17-.91.18-.48 0-.84-.14-1.07-.39-.25-.24-.37-.52-.37-.86 0-.35.1-.66.31-.92.19-.26.43-.49.72-.67.29-.19.58-.35.89-.47.28-.12.52-.21.72-.27l-.18-.54c-.18-.55-.39-.89-.63-1.02-.25-.12-.62-.17-1.12-.13l.85-.36c.26 0 .52 0 .77.02.24.02.46.1.64.23.2.14.36.34.47.62s.23.67.36 1.17l.23.85zm-1.16-.06c-.05-.29-.14-.44-.27-.43-.16 0-.43.14-.81.41-.18.13-.33.29-.45.48-.14.19-.21.42-.21.68 0 .17.04.31.12.43.07.13.16.23.27.31.22.16.47.24.73.24.3 0 .55-.06.73-.19.17-.11.29-.21.36-.29-.11-.31-.23-.71-.36-1.23l-.11-.41z"/><path class="cls-5" d="m28.15 8.48h-2.06c.14-.18.23-.3.27-.37.03-.07.05-.16.05-.27v-1.95c0-1.02.02-2.19.05-3.52.02-.67.05-1.32.07-1.93h-.91l.87-.43h1.66c-.17.1-.29.19-.37.28-.08.08-.12.23-.15.43-.08.98-.12 2.34-.11 4.09v2.77c0 .22.03.37.1.45.07.07.19.12.37.13l.6.06-.43.26z"/><path class="cls-5" d="m32.44 3.48c.08.05.16.12.25.21s.18.21.27.35c.08.13.16.28.22.46.05.18.08.38.08.62 0 .43-.1.77-.28 1.03-.09.12-.18.24-.28.35-.11.11-.23.21-.35.32-.07.07-.14.16-.2.25-.07.1-.11.21-.11.34s.04.23.11.31c.06.08.12.15.18.21l.41.33c.25.21.48.44.67.69.18.25.27.59.28 1 0 .58-.26 1.1-.77 1.55-.53.46-1.3.71-2.31.72-.84 0-1.47-.19-1.88-.54-.42-.33-.63-.72-.63-1.18 0-.22.07-.47.2-.74s.37-.51.72-.72c.39-.22.8-.37 1.23-.44.42-.06.78-.1 1.06-.11-.09-.11-.16-.24-.23-.37-.08-.13-.12-.28-.12-.45 0-.11.02-.19.05-.27.03-.07.05-.14.07-.21-.14.02-.27.02-.39.02-.64 0-1.13-.21-1.46-.6-.35-.37-.53-.79-.53-1.28 0-.59.25-1.12.75-1.6.34-.28.7-.46 1.06-.55.36-.07.71-.11 1.02-.11h2.4l-.74.43h-.74zm.46 6.92c0-.31-.1-.57-.3-.8-.21-.21-.54-.48-.99-.79-.08 0-.17-.01-.27-.01-.06 0-.22 0-.47.02-.25.04-.5.09-.76.17-.06.02-.15.06-.26.11s-.22.12-.34.22c-.11.1-.2.22-.28.36-.09.15-.13.34-.13.55 0 .42.19.77.57 1.04.36.27.86.41 1.49.42.57 0 1-.13 1.3-.38.29-.24.44-.54.44-.92zm-1.67-3.53c.32-.01.58-.12.79-.34.1-.15.17-.31.2-.47.02-.16.03-.3.03-.41 0-.47-.12-.95-.36-1.43-.11-.23-.26-.42-.45-.56s-.41-.21-.65-.22c-.33 0-.6.14-.81.39-.18.27-.27.56-.26.89 0 .43.13.89.38 1.36.12.22.28.41.48.56.19.15.42.23.67.23z"/><path class="cls-1" d="m38.61 8.23c-.12.08-.25.15-.39.21-.39.16-.77.23-1.12.23-.19 0-.41-.03-.69-.08-.27-.05-.56-.19-.86-.39-.4-.31-.7-.7-.89-1.17-.19-.46-.29-.91-.29-1.37.02-.94.31-1.63.89-2.09.55-.45 1.14-.68 1.77-.68.44 0 .83.11 1.2.33.29.2.49.41.61.63.11.22.18.41.21.56l-2.73 1.14-.9.08c.16.76.47 1.35.91 1.77.43.43.93.65 1.49.65.3 0 .57-.05.79-.14.22-.08.43-.17.63-.28l-.62.6zm-1.09-3.58c.23-.07.34-.18.34-.33 0-.25-.12-.49-.34-.7s-.49-.32-.81-.33c-.12 0-.25.02-.39.06-.16.05-.3.15-.44.28-.14.12-.26.3-.35.52-.1.22-.15.49-.15.81 0 .21.01.42.04.63l2.11-.94z"/><path class="cls-3" d="m39.67 8.48c.17-.17.28-.3.32-.4.02-.09.03-.24.03-.43v-.56c0-1.18.02-2.25.04-3.19.02-1.12.05-2.29.09-3.49h-.85l.85-.41h1.56c-.19.11-.31.21-.36.3-.06.11-.09.27-.1.5l-.1 2.48.77-.29c.14 0 .28 0 .43-.01.93.02 1.61.28 2.05.78.43.5.65 1.1.65 1.78 0 .6-.16 1.15-.49 1.63-.33.49-.84.86-1.53 1.11-.41.13-.78.19-1.11.18h-2.24zm1.46-4.05c0 .83-.01 1.66-.01 2.48 0 .52 0 .8.02.84 0 .12.04.22.11.29.07.08.25.12.56.12.32 0 .58-.03.79-.09.28-.09.51-.21.7-.37.17-.15.3-.33.4-.52.11-.2.18-.41.21-.62s.05-.4.05-.59c0-.37-.08-.81-.27-1.31-.1-.24-.25-.47-.46-.68-.19-.2-.45-.36-.77-.48-.26-.1-.49-.16-.7-.18-.22-.02-.42-.02-.62 0v1.09z"/><path class="cls-3" d="m48.27 8.48h-2.01c.13-.19.22-.35.25-.47.02-.12.03-.29.03-.52 0-1.5.02-2.86.03-4.07h-.89l.79-.39h1.41c-.15.15-.23.33-.23.54v.38c.09-.1.2-.21.33-.32.12-.11.27-.22.43-.32.33-.23.72-.35 1.18-.36.12 0 .21 0 .27.02.05.02.1.05.15.07l-.48 1.23-.33.19.1-.58s-.1-.06-.15-.09c-.05-.02-.14-.02-.26-.02-.21 0-.42.06-.63.17-.21.13-.41.34-.61.63l-.02 3.03c0 .22.04.35.11.41.07.07.19.1.34.11l.61.02-.43.33z"/><path class="cls-3" d="m54.08 5.9c.17.63.35 1.19.53 1.67.12.28.22.49.31.64.09.14.18.27.27.38-.12.02-.24.03-.34.04-.25-.01-.49-.08-.72-.22-.19-.12-.32-.25-.41-.38-.1-.14-.18-.26-.23-.37l-.55.55c-.11.07-.28.15-.51.25-.24.11-.54.17-.91.18-.48 0-.84-.14-1.07-.39-.25-.24-.37-.52-.37-.86 0-.35.1-.66.31-.92.19-.26.43-.49.72-.67.29-.19.58-.35.89-.47.28-.12.52-.21.72-.27l-.18-.54c-.18-.55-.39-.89-.63-1.02-.25-.12-.62-.17-1.12-.13l.85-.36c.26 0 .52 0 .77.02.24.02.46.1.64.23.2.14.36.34.47.62s.23.67.36 1.17l.23.85zm-1.16-.06c-.05-.29-.14-.44-.27-.43-.16 0-.43.14-.81.41-.18.13-.33.29-.45.48-.14.19-.21.42-.21.68 0 .17.04.31.12.43.07.13.16.23.27.31.22.16.47.24.73.24.3 0 .55-.06.73-.19.17-.11.29-.21.36-.29-.11-.31-.23-.71-.36-1.23l-.11-.41z"/><path class="cls-4" d="m64.42 8.48-2.13-6.21h1.62l1.48 4.82h.11l1.48-4.82h1.62l-2.13 6.21h-2.04z"/><path class="cls-4" d="m71.07 4.97-.14-1.35c.55-.07.99-.17 1.33-.3s.59-.29.75-.48.24-.4.24-.63c0-.22-.07-.39-.22-.51s-.36-.18-.65-.18c-.31 0-.66.06-1.03.19s-.73.31-1.07.56l-.81-1.2c.38-.36.81-.62 1.29-.78s1.03-.24 1.63-.24c.79 0 1.4.16 1.83.48s.64.78.64 1.38c0 .52-.18.98-.54 1.36s-.82.65-1.4.8v.6l-1.88.29zm.78 3.63c-.45 0-.86-.03-1.24-.08s-.71-.12-1-.21l.15-1.52c.25.07.54.14.85.21s.71.11 1.19.11c.52 0 .92-.09 1.2-.27s.42-.43.42-.76c0-.24-.08-.45-.25-.61s-.42-.29-.74-.38-.72-.13-1.18-.13h-.19l-.14-1.35 1.69.63c.72 0 1.31.19 1.76.54s.68.84.68 1.47c0 .74-.28 1.32-.84 1.73s-1.35.62-2.37.62z"/><path class="cls-4" d="m79.27 8.6c-.3 0-.55-.1-.76-.31s-.31-.46-.31-.75.1-.55.31-.76.46-.31.76-.31.55.1.76.31.31.46.31.76-.1.54-.31.75-.46.31-.76.31z"/><path class="cls-4" d="m83.56 8.48v-1.37h2.12v1.37h-2.12zm.12-6.14v-1.47l1.89-.7v1.5l-1.89.68zm1.88 6.14v-8.32h1.58v8.32h-1.58zm1.47 0v-1.37h1.9v1.37h-1.9z"/><path class="cls-4" d="m93.09 8.6c-.3 0-.55-.1-.76-.31s-.31-.46-.31-.75.1-.55.31-.76.46-.31.76-.31.55.1.76.31.31.46.31.76-.1.54-.31.75-.46.31-.76.31z"/><path class="cls-4" d="m97.38 8.48v-1.37h2.12v1.37h-2.12zm.12-6.14v-1.47l1.89-.7v1.5l-1.89.68zm1.89 6.14v-8.32h1.58v8.32h-1.58zm1.46 0v-1.37h1.9v1.37h-1.9z"/></g></g></svg>
