<svg viewBox="0 0 47.12 11.41" xmlns="http://www.w3.org/2000/svg"><defs><style>.cls-1 {
        isolation: isolate;
      }</style></defs><g id="a"><g><g class="cls-1"><path d="m4.61 7.3-1.59.44v1.22c0 .73 0 1.26.02 1.79v.06c0 .12-.05.18-.32.32-.11.06-.19.1-.24.1-.06 0-.08-.05-.08-.17 0-.05.01-.1.01-.16.05-.64.06-1.28.06-1.97v-1.04c-1.67.47-1.81.55-1.92.68-.04.04-.06.06-.08.06s-.05-.04-.07-.08l-.35-.64 2.42-.41v-1.88h-1.19l-.26.34s-.06.06-.1.06c-.02 0-.06-.01-.1-.05l-.59-.46c.4-.23.44-.29.66-.91.2-.6.44-1.36.68-2.13h-.43c-.25 0-.6.05-.8.13l-.34-.44c.3.02.6.05.88.05h.77c.23-.76.43-1.49.59-2.09l.68.46c.06.04.08.06.08.08s-.02.05-.08.07l-.31.14-.43 1.33h1.31l.4-.55.58.59c.08.08.12.13.12.17 0 .05-.06.06-.18.06h-2.3l-.95 2.9h1.32v-.38c0-.49-.01-1.31-.04-1.75l.83.44c.06.04.1.06.1.1s-.04.06-.34.25v1.34h.48l.37-.55.56.62c.06.06.08.11.08.13 0 .04-.05.05-.14.05h-1.36v1.79l1.55-.26.05.14zm6.18-6.02c.08.1.13.16.13.19s-.06.05-.18.05h-5.28c-.25 0-.6.05-.8.13l-.34-.44c.3.02.6.05.88.05h4.4l.53-.67.66.7zm-.15 4.62c.06.04.1.07.1.11 0 .02-.04.06-.1.1l-.3.19v2.72c0 .25.01 1.01.05 1.58v.06c0 .2-.5.38-.52.38-.06 0-.07-.06-.07-.17v-.68h-4.41v.6c0 .12-.02.17-.25.28-.11.05-.18.08-.23.08-.06 0-.08-.06-.08-.17 0-.05.01-.1.01-.16.02-.41.04-.9.04-1.25v-3.11c0-.49-.01-.78-.04-1.12l.67.48h4.11l.32-.44.7.5zm-3.34 1.94v-1.74h-1.92v1.74h1.92zm0 2.09v-1.82h-1.92v1.82h1.92zm2.59-7.33c.07.05.11.08.11.12 0 .02-.04.06-.1.1l-.35.23v.64c0 .32.01.74.04 1.02v.06c0 .11-.04.17-.25.28-.12.06-.2.1-.25.1-.07 0-.07-.01-.07-.46h-2.92v.19c0 .22-.52.36-.53.36-.04 0-.06-.04-.06-.08 0-.02.01-.05.01-.07.05-.37.06-.6.06-.97v-.84c0-.28-.01-.84-.04-1.19l.66.5h2.61l.35-.47.72.49zm-.87 1.81v-1.57h-2.92v1.57h2.92zm.78 3.43v-1.74h-1.97v1.74h1.97zm0 2.09v-1.82h-1.97v1.82h1.97z"/></g><g class="cls-1"><path d="m22.05 3.54s.07.06.07.08-.02.05-.07.08l-.38.31v5.9c0 .8-.1.97-.84 1.34-.02.01-.05.02-.06.02-.04 0-.07-.02-.1-.1-.12-.37-.26-.55-1.43-.91l.05-.16c.68.13 1.12.18 1.38.18.38 0 .42-.12.42-.31v-2.24h-3.06v1.76c0 .19.05 1.2.05 1.25 0 .16-.05.18-.26.3-.17.1-.26.13-.31.13-.06 0-.07-.04-.07-.12v-.07c.02-.41.04-.78.04-1.44v-1.81h-2.93c-.25 1.86-.83 2.69-2.11 3.63l-.1-.11c1.21-1.18 1.73-2.43 1.79-4.7.01-.38.01-1.52.01-3.07-.66.68-1.28 1.24-1.9 1.7l-.13-.16c1.68-1.61 3.38-3.74 4.13-5.05l.8.44c.06.02.08.05.08.07s-.04.04-.11.05c-.23.05-.38.13-1.01.86h2.9l.4-.44.79.7c.06.06.1.1.1.13 0 .02-.05.04-.17.05-.53.04-1.02.38-2.06 1.67h2.91l.36-.58.82.59zm-3.14-1.86h-3.12c-.49.59-.96 1.1-1.42 1.57l.47.28h2.83l1.24-1.85zm-1.44 5.82v-1.7h-2.76c-.04.66-.07 1.21-.13 1.7h2.89zm0-1.97v-1.74h-2.71l-.04 1.74h2.75zm3.62 0v-1.74h-3.06v1.74h3.06zm0 1.97v-1.7h-3.06v1.7h3.06z"/></g><g class="cls-1"><path d="m34.24 3.79c.12.05.18.08.18.13 0 .04-.06.1-.17.17l-.32.22v4.07c0 .91.01 1.56.05 2.1v.07c0 .18-.05.23-.31.34-.12.06-.2.08-.25.08-.06 0-.07-.06-.07-.17v-.8h-7.6l-.32.36s-.07.07-.11.07c-.02 0-.06-.01-.1-.05l-.7-.64.55-.46v-4.25c0-.49-.02-1.31-.05-1.75l.89.44c.1.05.14.08.14.12s-.05.08-.13.14l-.31.24v5.49h7.74v-4.59c0-.49-.02-1.31-.05-1.75l.95.41zm-.3-2.63c.07.06.1.11.1.14 0 .06-.07.06-.23.06-.48 0-1.39.38-3.81 1.82l-.1.16v1.82c.82-.59 1.56-1.21 2.25-1.86l.54.47c.07.06.1.1.1.13s-.05.05-.13.06c-.19.01-.38.1-.56.19l-2.2 1.22v.06c1.34.64 1.81.95 2.17 1.31.23.23.31.47.31.67 0 .25-.13.44-.26.44s-.2-.07-.37-.35c-.31-.52-.93-1.2-1.85-1.86v2.35c0 .56-.25.9-.95 1.21-.04.01-.06.02-.07.02-.05 0-.06-.04-.07-.1-.06-.34-.29-.48-1.27-.72l.02-.18c.61.1 1.02.14 1.28.14.44 0 .49-.13.49-.41v-2.43l-1.75 1.25c-.47.34-.67.55-.78.74-.04.06-.06.1-.1.1-.01 0-.04-.01-.06-.04l-.54-.41 3.23-1.9v-1.57c0-.55-.01-1.04-.02-1.29l.79.43 2.41-1.68h-6.07c-.25 0-.6.05-.8.13l-.34-.44c.3.02.6.05.88.05h6.38l.58-.43.8.67zm-7.16 1.9c.79.46 1.25.9 1.36 1.13.06.13.08.26.08.38 0 .31-.19.55-.4.55-.16 0-.22-.08-.29-.47-.07-.42-.22-.79-.88-1.48l.12-.12z"/></g><g class="cls-1"><path d="m41.91 3.08c.06.05.08.08.08.11 0 .04-.05.05-.16.05h-2.46v.41c.43.12 1.96.54 1.96 1.24 0 .19-.1.36-.24.36-.13 0-.19-.02-.34-.24-.25-.36-.73-.83-1.38-1.18v1.21c0 .12-.04.17-.23.24-.11.04-.18.06-.23.06-.07 0-.1-.05-.1-.12v-.05c.02-.34.04-.74.04-1.2v-.72c-.97 1.39-1.67 2.12-2.9 3l-.11-.11c1.07-1.01 1.64-1.67 2.39-2.9h-.94c-.25 0-.6.05-.8.13l-.34-.44c.3.02.6.05.88.05h1.82v-1.83c0-.3-.01-.64-.04-1.03l.85.43c.06.02.08.05.08.07s-.02.05-.08.08l-.3.17v2.11h1.38l.44-.56.71.67zm-.78 3.58s.06.06.06.07c0 .04-.04.05-.07.05-.14 0-.35.19-.44.37-.4.78-.56 1.1-.85 1.5.64.28.97.54 1.16.77.08.1.11.23.11.35 0 .2-.1.38-.24.38-.11 0-.19-.06-.38-.3-.2-.26-.49-.53-.95-.82-.67.82-1.56 1.42-3.43 2.06l-.06-.16c1.65-.77 2.55-1.49 3.08-2.13-.47-.24-1.09-.49-1.92-.76.24-.4.47-.8.66-1.2l-.82.04c-.25 0-.41.04-.6.12l-.46-.4c.3.05.56.05.84.04l1.15-.05c.22-.43.38-.85.52-1.24l.64.38s.07.05.07.07c0 .05-.04.06-.36.14l-.33.61 1.65-.07.29-.38.68.54zm-4.31-5.92c1.07.54 1.36.94 1.36 1.33 0 .24-.14.42-.35.42-.1 0-.2-.13-.25-.37-.07-.4-.37-.85-.82-1.27l.06-.11zm.91 7.25c.66.16 1.2.32 1.63.48.36-.52.62-1.09.85-1.72l-1.86.07-.62 1.16zm7.92-4.94c-.28 2.12-.9 4.22-1.39 5.05.7 1.06 1.52 1.67 2.87 2.24l-.05.12c-.13-.01-.24-.01-.34-.01-.32 0-.52.06-.72.28-.02.02-.06.05-.08.05-.07 0-1.29-1.07-2.03-2.22-1.2 1.39-2.23 2.17-4.08 2.85l-.05-.17c1.56-.73 3.01-1.91 3.87-3.13-.49-1.01-.89-2.57-1.02-4.08-.38.83-.77 1.56-1.19 2.21l-.12-.1c.95-2.04 1.75-4.39 2.12-6.08l.82.47c.06.04.08.06.08.08s-.04.04-.13.06c-.23.05-.28.12-.38.42-.23.61-.46 1.16-.66 1.69h2.71l.44-.55.68.66s.07.08.07.11-.04.05-.14.05h-1.3zm-4.09-1.92c.06.04.1.06.1.08s-.04.04-.11.05c-.36.04-.47.07-1.59 1.36l-.14-.1c.41-.6.74-1.16 1.04-1.79l.71.4zm1.51 1.92c-.08.2-.17.4-.25.59.34 2.03.7 3.12 1.15 3.97.42-.82.84-2.53 1.03-4.56h-1.93z"/></g></g></g></svg>
