<svg xmlns="http://www.w3.org/2000/svg" viewBox="0 0 35.31 11.42"><defs><style>.cls-1{isolation:isolate}</style></defs><path d="M11.2 10.42q.12.105.12.18c0 .075-.06.08-.18.08h-10c-.25 0-.6.05-.8.13l-.33-.44c.3.04.6.05.88.05h5.1c.83-2.49 1.61-4.87 2.05-6.24l.85.52c.06.04.08.06.08.1 0 .02-.04.06-.13.1-.23.1-.4.28-.52.55-.79 1.91-1.46 3.5-2.1 4.98h3.61l.53-.73.85.73Zm-.61-7.23c.08.07.12.13.12.17 0 .06-.06.08-.17.08H1.87c-.25 0-.6.05-.8.13l-.34-.44c.3.04.6.05.88.05h7.71l.49-.68.78.7ZM2.7 4.49c.84 1.01 2.01 2.89 2.01 3.95 0 .62-.23.85-.47.85-.17 0-.28-.12-.3-.78-.04-1.09-.35-2.19-1.36-3.9l.11-.12ZM4.84.65c.92.47 1.62 1.12 1.62 1.64 0 .37-.28.65-.46.65-.14 0-.22-.06-.3-.47-.08-.42-.33-1.03-.93-1.7zM22.95 2.37c.1.08.14.16.14.19 0 .05-.06.07-.18.07h-6.03c-.02.65-.06 1.06-.16 2.13h3.23l.38-.58.79.61c.06.05.1.08.1.12 0 .02-.04.05-.1.08l-.43.23c-.06 1.76-.25 3.54-.43 4.37-.16.71-.59 1.1-1.28 1.36-.05.01-.08.02-.11.02-.05 0-.07-.02-.08-.1-.07-.44-.5-.77-1.39-1l.04-.19c.71.14 1.18.23 1.5.23.49 0 .62-.19.72-.56.22-.83.42-2.3.46-4.34h-3.41c-.36 3.53-1.75 5.15-4.46 6.39l-.07-.14c1.86-1.02 3.19-2.51 3.69-4.59.2-.8.42-2.41.41-4.04h-2.84c-.25 0-.6.05-.8.13l-.34-.43c.3.02.6.05.88.05h8.47l.47-.79.85.78ZM16.41 0c1.28.46 1.86.91 1.86 1.5 0 .37-.22.62-.42.62-.14 0-.28-.05-.32-.37-.06-.38-.31-.95-1.19-1.63zM28.63 2.95c.08.08.13.14.13.18s-.06.05-.17.05h-1.82v1.54c1.07.36 1.66.72 1.66 1.2 0 .26-.16.47-.29.47-.12 0-.22-.05-.32-.3-.19-.42-.48-.8-1.04-1.15v3.43c0 1.03 0 1.77.02 2.3v.1c0 .16-.04.2-.29.3-.11.05-.19.07-.24.07-.07 0-.1-.06-.1-.2v-.17c.04-.68.06-1.75.06-2.42V4.42c-.56 1.56-1.24 2.93-2.01 4.05l-.16-.08c.86-1.46 1.55-3.27 2.09-5.19h-.84c-.25 0-.6.05-.8.13l-.34-.44c.3.02.6.05.88.05h1.19V1.78c0-.48-.02-1.28-.05-1.72l.85.4c.07.04.12.06.12.1 0 .05-.31.28-.38.32v2.06h.8l.46-.58.6.61Zm6.68 7.22c-.67-.04-.95.08-1.15.37-.02.04-.05.06-.07.06s-.05-.01-.07-.04c-1.83-1.31-2.87-2.83-3.44-4.94h-1.03v4.51l2.17-.9.07.17c-2.11 1.19-2.45 1.46-2.66 1.76-.02.04-.05.06-.07.06s-.05-.02-.08-.07l-.48-.62c.36-.23.5-.42.5-.82V2.63c0-.79-.02-1.69-.04-2.04l.74.59h3.25l.35-.5.73.59c.06.05.08.08.08.12s-.02.06-.08.1l-.32.19v2.29c0 .26.06 1.44.06 1.64 0 .18-.05.22-.31.35-.1.04-.16.06-.2.06-.11 0-.11-.04-.11-.38H30.8c.32.96.73 1.69 1.19 2.3.86-.7 1.56-1.42 2-1.98l.66.53s.07.07.07.1-.02.02-.08.04c-.29.04-.66.2-1.31.66l-1.19.84c.85 1.03 1.87 1.6 3.18 1.92v.14Zm-2.18-6.9V1.44h-3.6v1.83zm0 2.09V3.54h-3.6v1.82z" class="cls-1"/></svg>