<svg viewBox="0 0 23.26 11.05" xmlns="http://www.w3.org/2000/svg"><defs><style>.cls-1 {
        isolation: isolate;
      }</style></defs><g id="a"><g><g class="cls-1"><path d="M11.23,10.01c-.56.14-.86.34-.95.5-.08.16-.13.19-.32.19-1.87-.04-3.24-.08-4.47-.14-1.76-.08-2.24-.44-3.01-1.58-.12-.18-.2-.26-.29-.26-.23,0-.88.9-1.22,1.55-.05.1-.1.14-.14.14-.02,0-.04-.01-.06-.02l-.66-.4,1.81-1.46v-3.81H.82c-.14,0-.4.05-.54.1l-.28-.37c.25.02.47.04.65.04h1.12l.38-.48.72.53c.06.04.08.08.08.12s-.02.06-.07.1l-.4.25v3.47c0,.11.07.19.59.78.55.64,1.1.83,4.37.83,1.21,0,2.46-.05,3.79-.19v.14ZM1.34.5c1.15.68,1.55,1.15,1.61,1.5.01.05.01.1.01.13,0,.36-.23.65-.47.65-.13,0-.23-.08-.29-.5-.06-.43-.31-1.02-.95-1.66l.08-.12ZM10.67,8.4c.07.07.11.12.11.16s-.05.05-.16.05h-6.01c-.25,0-.6.05-.8.13l-.34-.44c.3.02.6.05.88.05h3.01c.43-.76.9-1.75,1.15-2.43l.72.41s.05.05.05.06c0,.04-.02.05-.08.06-.18.02-.3.1-.38.22l-1.22,1.69h1.87l.49-.62.72.68ZM10.57,1.04c.06.06.1.11.1.14s-.05.05-.14.05h-5.54c-.25,0-.6.05-.8.13l-.34-.44c.3.02.6.05.88.05h4.71l.44-.66.7.73ZM9.99,2.77s.06.06.06.08-.01.04-.05.06l-.42.24v.9c0,.31.02.79.02,1.1,0,.16-.04.2-.25.3-.12.05-.19.07-.24.07-.08,0-.08-.04-.08-.36h-3.77c0,.35,0,.38-.28.5-.11.05-.18.07-.23.07-.07,0-.1-.05-.1-.18,0-.04.01-.08.01-.13.02-.37.04-.72.04-1.15v-1.24c0-.4-.01-.62-.04-.94l.76.54h3.45l.37-.48.73.6ZM5.29,5.92c.98.7,1.22,1.15,1.22,1.43,0,.35-.24.59-.44.59-.1,0-.19-.08-.19-.29,0-.46-.19-1.01-.63-1.58l.05-.14ZM9.03,4.91v-1.99h-3.77v1.99h3.77Z"/></g><g class="cls-1"><path d="M23.14,4.87c.08.08.12.13.12.17,0,.05-.05.06-.16.06h-6.7l-.85,1.71h4.32l.41-.54.84.65s.06.05.06.06c0,.02-.02.05-.06.07l-.49.29c-.25,1.02-.61,2.05-.86,2.53-.26.52-.7.84-1.62,1.16-.04.01-.06.01-.08.01-.05,0-.06-.02-.07-.11-.05-.46-.18-.61-1.51-1.14l.04-.18c.97.34,1.54.5,1.91.5.4,0,.58-.19.8-.56.35-.58.6-1.39.83-2.53h-4.46l-.3.3s-.04.02-.05.02c-.04,0-.06-.01-.11-.06l-.56-.52c.41-.16.52-.22.62-.44l.6-1.24h-2.69c-.25,0-.6.05-.8.13l-.34-.44c.3.02.6.05.88.05h9.06l.52-.7.73.73ZM20.93.62c.06.05.1.07.1.11s-.04.07-.1.12l-.37.26v1.25c0,.41,0,.75.04,1.29v.1c0,.16-.04.2-.29.31-.11.05-.18.07-.23.07-.07,0-.08-.06-.08-.16v-.52h-4.86v.3c0,.17-.02.22-.23.3-.12.05-.19.08-.25.08-.08,0-.11-.07-.11-.24v-.16c.04-.68.04-.82.04-1.24v-1.28c0-.29-.01-.86-.04-1.24l.78.61h4.51l.31-.52.78.53ZM20,3.2V.88h-4.86v2.33h4.86Z"/></g></g></g></svg>
