<svg xmlns="http://www.w3.org/2000/svg" viewBox="0 0 57.07 11.35"><defs><style>.cls-1{isolation:isolate}</style></defs><path d="M7.2 2.16c.1.07.14.13.14.17 0 .05-.05.08-.14.13l-.32.17v5.78c0 .91.02 1.66.06 2.19v.08c0 .17-.05.22-.3.32-.12.05-.19.07-.24.07-.07 0-.08-.06-.08-.16v-.92H.6v.83c0 .17-.02.2-.26.3-.11.05-.18.07-.24.07-.08 0-.1-.07-.1-.25v-.13c.02-.71.04-1.79.04-2.47V2.75c0-.29-.01-.86-.04-1.24l.77.64h1.44L2.64.01l.85.26c.11.04.16.07.16.1 0 .04-.04.06-.1.1-.34.17-.53.42-1.1 1.68h3.62l.41-.58zm-.89 2.49V2.41H.6v2.24zm0 2.46v-2.2H.6v2.2zm0 2.63V7.38H.6v2.36zM21.13 10.11c-.62.16-.88.35-1.02.67-.02.05-.08.08-.16.08-1.34 0-2.83-.06-3.63-.14-1.92-.19-2.67-.8-3.68-2.99-.73 1.93-1.56 2.87-2.78 3.57l-.1-.13c1.61-1.36 2.21-2.72 2.72-5.21l.84.5s.07.05.07.07-.02.05-.08.07c-.19.1-.37.24-.41.36-.05.16-.1.3-.16.44.73 1.39 1.54 2.38 2.7 2.61V4.73h-3.55c-.25 0-.6.05-.8.13l-.34-.44c.3.02.6.05.88.05h7.35l.48-.66.8.76c.06.05.08.1.08.12 0 .04-.04.05-.13.05H16v2.24h2.21l.48-.67.76.77c.06.06.08.1.08.12 0 .04-.05.05-.13.05h-3.39v2.84c.49.05 1.04.06 1.61.06 1.36 0 2.77-.11 3.51-.24v.18Zm-.33-7.87s.04.05.04.06c0 .04-.02.05-.08.06-.61.08-1.03.36-1.7 1.1l-.16-.1.7-1.15h-7.51c-.07.65-.31 1.46-1 1.46-.25 0-.43-.14-.43-.32 0-.12.11-.24.35-.4.41-.28.77-.8.92-1.71h.18c.01.26.01.49 0 .71h7.44l.41-.49.85.78ZM14.76.06c1.09.36 1.56.78 1.56 1.1 0 .38-.29.73-.47.73-.19 0-.26-.16-.29-.41-.02-.22-.18-.61-.9-1.32l.1-.11ZM33.11 10.11c-.88.07-1.06.12-1.36.53-.04.05-.07.08-.12.08-.12 0-2.54-1.09-4.17-2.58-1.3 1.28-3.53 2.52-5.55 3.05l-.08-.16c2.57-1.04 4.19-2.15 5.28-3.25-1.3-1.4-2.3-3.99-2.65-6.18l.14-.06c.7 2.55 1.79 4.65 2.89 5.8 1.16-1.42 2.12-4.2 2.34-6.4l.98.65c.06.04.08.07.08.11 0 .02-.02.06-.08.08l-.36.18c-.71 2.72-1.51 4.49-2.59 5.75 1.62 1.43 3.72 2.15 5.25 2.24zM26.1.4c.9.68 1.8 1.54 1.8 2.17 0 .35-.23.61-.4.61-.16 0-.19-.04-.26-.38-.14-.7-.49-1.35-1.26-2.28zM44.19 3.73c.12.05.18.08.18.13 0 .04-.06.1-.17.17l-.32.22v4.07c0 .91.01 1.56.05 2.1v.07c0 .18-.05.23-.31.34-.12.06-.2.08-.25.08-.06 0-.07-.06-.07-.17v-.8h-7.6l-.32.36s-.07.07-.11.07c-.02 0-.06-.01-.1-.05l-.7-.64.55-.46V4.97c0-.49-.02-1.31-.05-1.75l.89.44c.1.05.14.08.14.12s-.05.08-.13.14l-.31.24v5.49h7.74V5.06c0-.49-.02-1.31-.05-1.75l.95.41Zm-.3-2.63c.07.06.1.11.1.14 0 .06-.07.06-.23.06-.48 0-1.39.38-3.81 1.82l-.1.16V5.1c.82-.59 1.56-1.21 2.25-1.86l.54.47c.07.06.1.1.1.13s-.05.05-.13.06c-.19.01-.38.1-.56.19l-2.19 1.22v.06c1.34.64 1.81.95 2.17 1.31.23.23.31.47.31.67 0 .25-.13.44-.26.44s-.2-.07-.37-.35c-.31-.52-.94-1.2-1.85-1.86v2.35c0 .56-.25.9-.95 1.21-.04.01-.06.02-.07.02-.05 0-.06-.04-.07-.1-.06-.34-.29-.48-1.27-.72l.02-.18c.61.1 1.02.14 1.28.14.44 0 .49-.13.49-.41V5.46l-1.75 1.25c-.47.34-.67.55-.78.74-.04.06-.06.1-.1.1-.01 0-.04-.01-.06-.04l-.54-.41 3.23-1.89V3.64c0-.55-.01-1.04-.02-1.29l.79.43 2.41-1.68H36.4c-.25 0-.6.05-.8.13l-.34-.44c.3.02.6.05.88.05h6.38l.58-.43.8.67ZM36.73 3c.79.46 1.25.9 1.35 1.13.06.13.08.26.08.38 0 .31-.19.55-.4.55-.16 0-.22-.08-.29-.47-.07-.42-.22-.79-.88-1.48l.12-.12ZM51.85 3.02c.06.05.08.08.08.11 0 .04-.05.05-.16.05h-2.46v.41c.43.12 1.95.54 1.95 1.24 0 .19-.1.36-.24.36-.13 0-.19-.02-.34-.24-.25-.36-.73-.83-1.38-1.18v1.21c0 .12-.04.17-.23.24-.11.04-.18.06-.23.06-.07 0-.1-.05-.1-.12v-.05c.02-.34.04-.74.04-1.2v-.72c-.97 1.39-1.67 2.12-2.9 3l-.11-.11c1.07-1.01 1.64-1.67 2.39-2.9h-.94c-.25 0-.6.05-.8.13l-.34-.44c.3.02.6.05.88.05h1.82V1.09c0-.3-.01-.64-.04-1.03l.85.43c.06.02.08.05.08.07s-.02.05-.08.08l-.3.17v2.11h1.38l.44-.56.71.67Zm-.77 3.58s.06.06.06.07c0 .04-.04.05-.07.05-.14 0-.35.19-.44.37-.4.78-.56 1.1-.85 1.5.64.28.97.54 1.16.77.08.1.11.23.11.35 0 .2-.1.38-.24.38-.11 0-.19-.06-.38-.3-.2-.26-.49-.53-.95-.82-.67.82-1.56 1.42-3.43 2.06l-.06-.16c1.65-.77 2.55-1.49 3.08-2.13-.47-.24-1.09-.49-1.92-.76.24-.4.47-.8.66-1.2l-.82.04c-.25 0-.41.04-.6.12l-.46-.4c.3.05.56.05.84.04l1.15-.05c.22-.43.38-.85.52-1.24l.64.38s.07.05.07.07c0 .05-.04.06-.36.14l-.34.61 1.65-.07.29-.38.68.54ZM46.77.68c1.07.54 1.35.94 1.35 1.33 0 .24-.14.42-.35.42-.1 0-.2-.13-.25-.37-.07-.4-.37-.85-.82-1.27l.06-.11Zm.91 7.25c.66.16 1.2.32 1.63.48.36-.52.62-1.09.85-1.71l-1.86.07zm7.92-4.94c-.28 2.12-.9 4.22-1.39 5.05.7 1.06 1.52 1.67 2.87 2.24l-.05.12c-.13-.01-.24-.01-.34-.01-.32 0-.52.06-.72.28-.02.02-.06.05-.08.05-.07 0-1.29-1.07-2.03-2.22-1.2 1.39-2.23 2.17-4.08 2.85l-.05-.17c1.56-.73 3.01-1.91 3.87-3.13-.49-1.01-.89-2.57-1.02-4.08-.38.83-.77 1.56-1.19 2.21l-.12-.1c.95-2.04 1.75-4.39 2.12-6.08l.82.47c.06.04.08.06.08.08s-.04.04-.13.06c-.23.05-.28.12-.38.42-.23.61-.46 1.16-.66 1.69h2.71l.44-.55.68.66s.07.08.07.11-.04.05-.14.05h-1.3Zm-4.09-1.92c.06.04.1.06.1.08s-.04.04-.11.05c-.36.04-.47.07-1.6 1.36l-.14-.1c.41-.6.74-1.16 1.04-1.79zm1.51 1.92c-.08.2-.17.4-.25.59.34 2.03.7 3.12 1.15 3.97.42-.82.84-2.53 1.03-4.56z" class="cls-1"/></svg>