<svg viewBox="0 0 46.92 11.41" xmlns="http://www.w3.org/2000/svg"><defs><style>.cls-1 {
        isolation: isolate;
      }</style></defs><g id="a"><g><g class="cls-1"><path d="m9.94 3.54s.07.06.07.08-.02.05-.07.08l-.38.31v5.9c0 .8-.1.97-.84 1.34-.02.01-.05.02-.06.02-.04 0-.07-.02-.1-.1-.12-.37-.26-.55-1.43-.91l.05-.16c.68.13 1.12.18 1.38.18.38 0 .42-.12.42-.31v-2.24h-3.06v1.76c0 .19.05 1.2.05 1.25 0 .16-.05.18-.26.3-.17.1-.26.13-.31.13-.06 0-.07-.04-.07-.12v-.07c.02-.41.04-.78.04-1.44v-1.81h-2.93c-.25 1.86-.83 2.69-2.11 3.63l-.1-.11c1.21-1.18 1.73-2.43 1.79-4.7.01-.38.01-1.52.01-3.07-.66.68-1.28 1.24-1.9 1.7l-.13-.16c1.68-1.58 3.38-3.71 4.13-5.02l.8.44c.06.02.08.05.08.07s-.04.04-.11.05c-.23.05-.38.13-1.01.86h2.9l.4-.44.79.7c.06.06.1.1.1.13 0 .02-.05.04-.17.05-.53.04-1.02.38-2.06 1.67h2.91l.36-.58.82.59zm-3.14-1.86h-3.12c-.49.59-.96 1.1-1.42 1.57l.47.28h2.83l1.24-1.85zm-1.44 5.82v-1.7h-2.76c-.04.66-.07 1.21-.13 1.7h2.89zm0-1.97v-1.74h-2.71l-.04 1.74h2.75zm3.62 0v-1.74h-3.06v1.74h3.06zm0 1.97v-1.7h-3.06v1.7h3.06z"/></g><g class="cls-1"><path d="m22.66 1.8s.08.1.08.12c0 .04-.05.05-.13.05h-8.71v2.65c0 2.94-.31 5.33-2.08 6.67l-.1-.11c1.26-1.64 1.62-2.76 1.62-6.48v-2.18c0-.46-.02-1-.04-1.4l.8.59h7.23l.53-.71.78.8zm.41 8.78c-.59 0-.96.26-1.08.55-.02.04-.05.05-.1.05-.1 0-2.63-.56-3.81-1.32-1.28.98-3 1.35-5.06 1.55v-.18c1.99-.32 3.57-.91 4.65-1.68-.79-.68-1.24-1.49-1.51-2.31h-.42c-.2 0-.42.04-.62.13l-.34-.44c.3.02.6.05.88.05h3.91l.38-.44.7.54s.06.06.06.08-.02.05-.1.07c-.13.04-.35.18-.44.32-.59.89-1.03 1.4-1.67 1.98 1.03.53 2.48.84 4.57.86v.19zm-.39-6.75c.06.05.1.08.1.11 0 .04-.05.05-.12.05h-2.72v.78c0 .18.03 1.14.03 1.14 0 .13-.04.17-.26.25-.11.04-.19.06-.24.06-.08 0-.08-.04-.08-.36h-2.55c0 .26 0 .3-.24.4-.12.05-.19.08-.24.08-.07 0-.08-.05-.08-.16 0-.14.01-.86.01-1.02v-1.18h-.77c-.25 0-.6.05-.8.13l-.34-.43c.3.02.6.05.88.05h1.03v-.49c0-.43-.01-.77-.04-1.1l.88.41s.06.05.06.07-.02.06-.06.08l-.29.22v.82h2.55v-.47c0-.43 0-.8-.04-1.16l.83.37c.06.04.1.06.1.08 0 .05-.04.07-.32.29v.89h1.46l.46-.6.83.7zm-6.27 3.4c.34.8.85 1.5 1.62 2.03.82-.68 1.26-1.26 1.58-2.03h-3.2zm2.97-1.64v-1.61h-2.55v1.61h2.55zm-2.5-5.46c.58.07 1.12.25 1.38.49.1.1.14.24.14.4 0 .26-.13.54-.33.54-.13 0-.24-.17-.34-.43-.08-.23-.49-.66-.9-.89l.05-.11z"/></g><g class="cls-1"><path d="m34.88 8.24c.06.06.08.11.08.13 0 .05-.05.06-.13.06h-5.1c0 .92.01 1.83.05 2.39v.07c0 .2-.05.25-.31.36-.11.05-.19.08-.24.08-.08 0-.11-.08-.11-.29v-.12c.02-.71.04-1.79.04-2.49h-4.25c-.25 0-.6.05-.8.13l-.34-.46c.3.02.6.05.88.05h4.51v-1.54h-2.83v.37c0 .14-.04.17-.29.28-.1.04-.17.06-.21.06-.07 0-.1-.06-.1-.23v-.11c.02-.65.04-1.19.04-1.8v-2.25c0-.26-.01-.78-.04-1.12l.83.62h3.47c.67-.79 1.31-1.77 1.61-2.4l.71.54s.06.06.06.08c0 .04-.05.06-.14.08-.28.06-.61.3-1.91 1.69h2.07l.41-.54.81.58c.06.05.1.08.1.12s-.04.07-.1.11l-.38.24v2.07c0 .77.01 1.08.06 1.61 0 .04.01.07.01.11 0 .14-.07.19-.32.3-.11.05-.18.07-.23.07-.08 0-.08-.05-.08-.49h-2.96v1.54h3.78l.61-.74.76.83zm-5.73-3.85v-1.68h-2.83v1.68h2.83zm0 1.97v-1.7h-2.83v1.7h2.83zm-2.34-6.3c.44.25 1.68 1.03 1.68 1.62 0 .3-.22.61-.42.61-.14 0-.22-.12-.3-.54-.06-.34-.36-.92-1.06-1.56l.1-.13zm5.88 4.33v-1.68h-2.96v1.68h2.96zm0 1.97v-1.7h-2.96v1.7h2.96z"/></g><g class="cls-1"><path d="M39.4.7c.08.06.13.1.13.13,0,.05-.05.08-.12.12-.3.17-.37.26-.46.44-.35.74-.68,1.4-1.02,2.01l.43.17c.06.02.08.05.08.07,0,.04-.02.07-.07.12l-.26.29v5.1c0,.62,0,1.12.04,1.67v.05c0,.18-.07.24-.41.42-.07.04-.12.06-.17.06-.07,0-.11-.06-.11-.23,0-.05,0-.12.01-.19.06-.62.08-1.2.08-1.8v-5.05c-.55.94-1.09,1.69-1.63,2.29l-.16-.11c1.22-1.81,2.18-3.74,2.91-6.01l.71.44ZM46.82,9.82c.07.06.1.11.1.16,0,.06-.05.1-.14.1h-7.34c-.25,0-.6.05-.8.13l-.34-.44c.3.04.6.05.88.05h3.71c.92-3.06,1.18-3.98,1.51-6.09l.86.56c.07.05.11.08.11.12,0,.02-.04.05-.07.06-.2.08-.29.18-.56.97-.54,1.54-1.04,2.96-1.55,4.38h2.29l.52-.74.84.76ZM46.39,3c.1.07.13.13.13.17,0,.06-.07.08-.18.08h-6.14c-.25,0-.6.05-.8.13l-.34-.44c.3.04.6.05.88.05h5.11l.52-.73.83.74ZM40.18,4.19c.9,1.22,1.8,2.88,1.8,3.69,0,.58-.29.92-.56.92-.16,0-.23-.1-.23-.73,0-.84-.26-2.27-1.14-3.79l.13-.1ZM41.62.07c1.18.64,1.68,1.2,1.75,1.54.01.07.02.14.02.22,0,.37-.22.65-.42.65-.14,0-.19-.06-.29-.46-.11-.42-.53-1.19-1.14-1.82l.07-.12Z"/></g></g></g></svg>
