<svg viewBox="0 0 34.5 11.37" xmlns="http://www.w3.org/2000/svg"><defs><style>.cls-1 {
        isolation: isolate;
      }</style></defs><g id="a"><g><g class="cls-1"><path d="M3.69,3.39c.1.07.14.12.14.17,0,.04-.05.08-.14.12-.18.07-.26.14-.37.37C2.02,6.96,1.12,8.38.11,9.39l-.11-.1c1.04-1.55,1.92-3.12,2.97-6.38l.72.48ZM6.32.62c.1.05.14.1.14.14,0,.06-.04.08-.35.28v8.71c0,.92-.1,1.14-.79,1.44-.06.02-.1.04-.13.04-.06,0-.08-.04-.1-.13-.08-.41-.47-.61-1.6-.94l.05-.18c.8.16,1.28.24,1.57.24.37,0,.41-.14.41-.43V2.23c0-.6-.02-1.49-.05-2.06l.84.46ZM7.59,3.35c1.36,1.14,3.26,3.18,3.26,4.25,0,.43-.24.67-.41.67s-.23-.11-.31-.47c-.22-.95-1.43-3.06-2.67-4.34l.13-.11Z"/></g><g class="cls-1"><path d="m17.91 3.05c.06.05.08.08.08.11 0 .04-.05.05-.16.05h-2.46v.41c.43.12 1.96.54 1.96 1.24 0 .19-.1.36-.24.36-.13 0-.19-.02-.34-.24-.25-.36-.73-.83-1.38-1.18v1.21c0 .12-.04.17-.23.24-.11.04-.18.06-.23.06-.07 0-.1-.05-.1-.12v-.05c.02-.34.04-.74.04-1.2v-.72c-.97 1.39-1.67 2.12-2.9 3l-.11-.11c1.07-1.01 1.64-1.67 2.39-2.9h-.94c-.25 0-.6.05-.8.13l-.34-.44c.3.02.6.05.88.05h1.82v-1.83c0-.3-.01-.64-.04-1.03l.85.43c.06.02.08.05.08.07s-.02.05-.08.08l-.3.17v2.11h1.38l.44-.56.71.67zm-.78 3.57s.06.06.06.07c0 .04-.04.05-.07.05-.14 0-.35.19-.44.37-.39.78-.56 1.1-.85 1.5.64.28.97.54 1.16.77.08.1.11.23.11.35 0 .2-.1.38-.24.38-.11 0-.19-.06-.38-.3-.2-.26-.49-.53-.95-.82-.67.82-1.56 1.42-3.43 2.06l-.06-.16c1.65-.77 2.55-1.49 3.08-2.13-.47-.24-1.09-.49-1.92-.76.24-.4.47-.8.66-1.2l-.81.04c-.25 0-.41.04-.6.12l-.46-.4c.3.05.56.05.84.04l1.15-.05c.21-.43.38-.85.52-1.24l.63.38s.07.05.07.07c0 .05-.04.06-.36.14l-.34.61 1.65-.07.29-.38.68.54zm-4.3-5.91c1.07.54 1.36.94 1.36 1.33 0 .24-.14.42-.35.42-.1 0-.2-.13-.25-.37-.07-.4-.37-.85-.82-1.27l.06-.11zm.91 7.24c.66.16 1.2.32 1.63.48.36-.52.62-1.09.85-1.71l-1.86.07-.62 1.16zm7.91-4.94c-.28 2.12-.9 4.22-1.39 5.05.7 1.06 1.52 1.67 2.87 2.24l-.05.12c-.13-.01-.24-.01-.34-.01-.32 0-.52.06-.72.28-.02.02-.06.05-.08.05-.07 0-1.29-1.07-2.03-2.22-1.2 1.39-2.23 2.17-4.08 2.85l-.05-.17c1.56-.73 3.01-1.91 3.87-3.13-.49-1.01-.89-2.57-1.02-4.08-.38.83-.77 1.56-1.19 2.21l-.12-.1c.95-2.04 1.75-4.39 2.12-6.08l.82.47c.06.04.08.06.08.08s-.04.04-.13.06c-.23.05-.28.12-.38.42-.23.61-.46 1.16-.66 1.69h2.71l.44-.55.68.66s.07.08.07.11-.04.05-.14.05h-1.29zm-4.09-1.92c.06.04.1.06.1.08s-.04.04-.11.05c-.36.04-.47.07-1.6 1.36l-.14-.1c.41-.6.74-1.16 1.04-1.79l.71.4zm1.52 1.92c-.08.2-.17.4-.25.59.34 2.03.7 3.12 1.15 3.97.42-.82.84-2.53 1.03-4.56h-1.93z"/></g><g class="cls-1"><path d="m25.89 8.58c0 1.36-.29 2.06-.71 2.41-.2.17-.4.23-.55.23-.23 0-.38-.14-.38-.37 0-.13.08-.24.29-.37.63-.37.96-.72 1.19-1.9h.17zm8.51-6.41c.07.07.11.12.11.16s-.05.05-.14.05h-4.75v1.96h2.36l.37-.53.75.61s.06.06.06.1c0 .02-.02.05-.07.08l-.36.24v2.06c0 .13.04.79.04.86 0 .19-.46.31-.54.31s-.1-.05-.1-.13v-.44h-5.33v.42c0 .14-.02.18-.22.25-.12.05-.2.07-.25.07-.07 0-.1-.06-.1-.18v-.07c.02-.4.04-.76.04-1.15v-2.11c0-.28-.02-.76-.04-1.01l.74.61h2.05v-2.59c0-.49-.02-1.29-.05-1.74l.96.52c.07.04.11.06.11.1 0 .02-.04.06-.11.1l-.34.17v1.24h3.55l.47-.65.77.71zm-2.27 5.06v-2.64h-5.33v2.64h5.33zm-4.58 1.44c.47.41 1.16 1.24 1.16 1.68 0 .31-.22.6-.41.6-.18 0-.26-.06-.26-.4 0-.52-.14-1.02-.6-1.8l.11-.08zm2.44-.18c.62.47 1.43 1.38 1.43 1.83 0 .32-.24.54-.42.54-.13 0-.18-.11-.25-.46-.12-.59-.35-1.16-.88-1.8l.12-.12zm2.5.06c1.43.8 2.02 1.42 2.02 2 0 .35-.21.55-.37.55-.18 0-.28-.11-.35-.4-.12-.47-.49-1.21-1.37-2.04l.07-.12z"/></g></g></g></svg>
