<svg xmlns="http://www.w3.org/2000/svg" viewBox="0 0 45.07 11.42"><defs><style>.cls-1{isolation:isolate}</style></defs><path d="M7.2 2.23c.1.07.14.13.14.17 0 .05-.05.08-.14.13l-.32.17v5.78c0 .91.02 1.65.06 2.19v.08c0 .17-.05.22-.3.32-.12.05-.19.07-.24.07-.07 0-.08-.06-.08-.16v-.92H.6v.83c0 .17-.02.2-.26.3-.11.05-.18.07-.24.07-.08 0-.1-.07-.1-.25v-.13c.02-.71.04-1.79.04-2.47V2.82c0-.29-.01-.86-.04-1.24l.77.64h1.44L2.64.08l.85.26c.11.04.16.07.16.1 0 .04-.04.06-.1.1-.34.17-.53.42-1.1 1.68h3.62l.41-.58zm-.89 2.5V2.49H.6v2.24zm0 2.45V4.99H.6v2.19zm0 2.63V7.45H.6v2.36zM15.57 2.18c.06.05.1.08.1.12s-.05.06-.13.08c-.18.06-.37.26-.41.41-.7 2.45-1.69 4.71-5.22 6.51l-.08-.16c2.85-1.83 4.14-3.75 4.8-6.79h-2.11c-.14.26-.28.52-.42.74 1.26.37 1.62.64 1.62 1.12 0 .24-.13.37-.23.37-.17 0-.26-.07-.38-.32-.13-.3-.52-.64-1.1-1-.29.47-.55.88-.83 1.25 1.5.64 1.5.97 1.5 1.24 0 .29-.16.47-.32.47-.13 0-.2-.13-.28-.38-.07-.25-.38-.67-1-1.19-.29.4-.59.77-.95 1.19l-.16-.1c1.28-1.81 2.13-3.6 2.81-5.48l.72.46c.08.05.12.1.12.13 0 .05-.05.08-.14.14-.25.14-.32.2-.43.41-.13.25-.26.49-.38.71h1.9l.32-.47.7.54ZM12.21 8.7c0 2.13-.83 2.61-1.26 2.61-.29 0-.42-.14-.42-.32 0-.14.11-.28.36-.43.58-.35.92-.84 1.13-1.86zm1.29-.06c.82.7 1.33 1.22 1.33 1.69 0 .35-.24.64-.48.64-.16 0-.23-.16-.23-.48s-.19-.96-.73-1.76l.11-.08Zm4.39-4.97c.6 2.47 1.84 3.67 3.19 4.03v.17c-.13-.01-.24-.01-.32-.01-.46 0-.64.1-.76.24-.02.04-.06.05-.08.05-.04 0-.08-.02-.13-.07-1.13-1.07-1.81-2.52-2.1-4.4h-.08c-.31 2.53-.98 3.48-3.5 4.85l-.1-.16c2.05-1.37 2.81-2.38 3.06-4.69h-.8c-.25 0-.6.05-.8.13l-.34-.44c.3.02.6.05.88.05h1.09c.07-.86.08-1.9.07-3.18l.89.43c.06.02.1.06.1.08 0 .04-.04.07-.11.12l-.31.22c0 .55-.05 1.91-.08 2.33h2.13l.44-.61.67.67c.07.07.11.12.11.14 0 .05-.06.06-.19.06h-2.91Zm-1.72 5c.68.47 1.27 1.03 1.36 1.52.01.05.01.1.01.14 0 .37-.24.59-.47.59-.13 0-.17-.1-.23-.54-.05-.35-.26-.98-.78-1.61l.11-.11Zm2.33-.29c1.03.72 1.79 1.39 1.79 2.02 0 .38-.25.65-.43.65-.17 0-.22-.11-.3-.52-.06-.3-.48-1.33-1.19-2l.13-.14Zm.13-7.32c.73.2 1.33.49 1.33 1.03 0 .24-.13.43-.3.43-.13 0-.19-.06-.29-.32s-.34-.65-.83-1l.08-.14ZM32.97 3.06s.07.07.07.1-.02.04-.08.05c-.43.1-.79.31-1.54 1.12l-.11-.1.72-1.15h-8.46c-.1 1.2-.73 1.37-.95 1.37-.19 0-.37-.08-.37-.2 0-.14.04-.26.17-.35.58-.37.86-.77.98-1.6h.17c.01.19.01.36.01.52h3.59V1.6c0-.44-.01-1.18-.04-1.58l.85.43c.1.05.14.08.14.12 0 .06-.05.08-.43.3v1.95h1.06c.56-.66 1-1.19 1.59-2.05l.62.49s.07.06.07.08-.05.04-.12.04c-.23 0-.44.11-.56.22l-1.34 1.22h2.91l.34-.38.7.64Zm-1.72 4.3s.06.06.06.08-.01.05-.06.08l-.35.24v1.88c0 .59-.08.77-.74 1.08-.04.01-.07.02-.1.02-.05 0-.07-.02-.08-.1-.1-.35-.3-.53-1.27-.77l.02-.14c.6.1.98.14 1.22.14.38 0 .41-.12.41-.38v-2H27.7v1.63c0 .26.02 1.54.02 1.82 0 .16-.05.2-.26.31-.12.06-.19.08-.25.08-.07 0-.08-.06-.08-.19v-.08c.02-.49.04-1.28.04-1.97V7.48h-2.54v1.87c0 .13.02.76.02.89 0 .24-.49.4-.5.4-.06 0-.08-.05-.08-.17 0-.17.04-.95.04-1.13V7.53c0-.25-.01-.67-.02-.9l.7.59h2.4V6.1h-1.58c0 .29 0 .31-.22.41-.13.06-.22.1-.28.1-.05 0-.06-.04-.06-.1v-.05c.04-.35.05-.59.05-1.01V4.27c0-.29-.01-.5-.04-.74l.64.52h3.78l.31-.41.67.53s.06.05.06.07-.02.05-.07.07l-.29.14v1.08c0 .1.04.54.04.64 0 .14-.05.18-.26.28-.1.05-.17.06-.22.06-.07 0-.07-.04-.07-.41h-1.92v1.12h2.53l.29-.4.73.52ZM24.22.68c1.2.53 1.76.83 1.76 1.4 0 .24-.13.42-.25.42-.14 0-.22-.07-.28-.22-.18-.43-.5-.94-1.32-1.48l.08-.13Zm5.4 5.2V4.33h-4.04v1.55zM39.86 3.09c.06.05.08.08.08.11 0 .04-.05.05-.16.05h-2.46v.41c.43.12 1.95.54 1.95 1.24 0 .19-.1.36-.24.36-.13 0-.19-.02-.34-.24-.25-.36-.73-.83-1.38-1.18v1.21c0 .12-.04.17-.23.24-.11.04-.18.06-.23.06-.07 0-.1-.05-.1-.12v-.05c.02-.34.04-.74.04-1.2v-.72c-.97 1.39-1.67 2.12-2.9 3l-.11-.11c1.07-1.01 1.64-1.67 2.39-2.9h-.94c-.25 0-.6.05-.8.13l-.34-.44c.3.02.6.05.88.05h1.82V1.16c0-.3-.01-.64-.04-1.03l.85.43c.06.02.08.05.08.07s-.02.05-.08.08l-.3.17v2.11h1.38l.44-.56.71.67Zm-.78 3.58s.06.06.06.07c0 .04-.04.05-.07.05-.14 0-.35.19-.44.37-.4.78-.56 1.1-.85 1.5.64.28.97.54 1.16.77.08.1.11.23.11.35 0 .2-.1.38-.24.38-.11 0-.19-.06-.38-.3-.2-.26-.49-.53-.95-.82-.67.82-1.56 1.42-3.43 2.06l-.06-.16c1.65-.77 2.55-1.49 3.08-2.13-.47-.24-1.09-.49-1.92-.76.24-.4.47-.8.66-1.2l-.82.04c-.25 0-.41.04-.6.12l-.46-.4c.3.05.56.05.84.04l1.15-.05c.22-.43.38-.85.52-1.24l.64.38s.07.05.07.07c0 .05-.04.06-.36.14l-.34.61 1.65-.07.29-.38.68.54ZM34.77.76c1.07.54 1.35.94 1.35 1.33 0 .24-.14.42-.35.42-.1 0-.2-.13-.25-.37-.07-.4-.37-.85-.82-1.27l.06-.11ZM35.68 8c.66.16 1.2.32 1.63.48.36-.52.62-1.09.85-1.72l-1.86.07-.62 1.16Zm7.92-4.94c-.28 2.12-.9 4.22-1.39 5.05.7 1.06 1.52 1.67 2.87 2.24l-.05.12c-.13-.01-.24-.01-.34-.01-.32 0-.52.06-.72.28-.02.02-.06.05-.08.05-.07 0-1.29-1.07-2.03-2.22-1.2 1.39-2.23 2.17-4.08 2.85l-.05-.17c1.56-.73 3.01-1.91 3.87-3.13-.49-1.01-.89-2.57-1.02-4.08-.38.83-.77 1.56-1.19 2.21l-.12-.1c.95-2.04 1.75-4.39 2.12-6.08l.82.47c.06.04.08.06.08.08s-.04.04-.13.06c-.23.05-.28.12-.38.42-.23.61-.46 1.16-.66 1.69h2.71l.44-.55.68.66s.07.08.07.11-.04.05-.14.05h-1.3Zm-4.09-1.92c.06.04.1.06.1.08s-.04.04-.11.05c-.36.04-.47.07-1.6 1.36l-.14-.1c.41-.6.74-1.16 1.04-1.79zm1.51 1.92c-.08.2-.17.4-.25.59.34 2.03.7 3.12 1.15 3.97.42-.82.84-2.53 1.03-4.56z" class="cls-1"/></svg>