<svg viewBox="0 0 107.99 11.42" xmlns="http://www.w3.org/2000/svg"><defs><style>.cls-1 {
        isolation: isolate;
      }</style></defs><g id="a"><g><g class="cls-1"><path d="M4.74,6.67l-2.96,2.21c-.53.4-.84.71-1.04,1.02-.04.06-.06.08-.1.08-.02,0-.05-.02-.08-.06l-.55-.67c.34-.23.54-.48.54-.67V2.42c0-.49-.01-1.31-.04-1.75l.89.46c.07.04.11.07.11.11s-.04.07-.08.12l-.31.26v7.05l3.53-2.17.11.17ZM8.28,1.4c-.28,3.65-.4,4.85-.73,5.8,1.42.94,1.86,1.39,2.1,1.81.1.19.14.38.14.56,0,.36-.16.66-.34.66-.2,0-.26-.05-.44-.6-.2-.61-.72-1.44-1.56-2.21-.64,1.57-2.54,2.85-5.31,3.54l-.06-.17c2.4-.86,4.33-2.1,4.87-3.53.38-1.02.6-2.5.74-6.74l.89.44c.08.04.13.07.13.11s-.04.07-.12.12l-.31.19ZM3.24.74c1.09.75,1.56,1.37,1.62,1.77.01.06.01.11.01.16,0,.46-.28.76-.54.76-.17,0-.2-.08-.24-.59-.05-.62-.34-1.3-.96-2l.11-.1Z"/></g><path id="b" d="m14.81 8.02c0-.52.09-.99.26-1.41.17-.43.39-.78.67-1.06s.57-.52.91-.71.65-.33.95-.42.58-.13.86-.12h.04c.41 0 .76.1 1.06.3s.45.49.45.88c0 .81-.5 1.35-1.51 1.6-.44.12-1.05.18-1.82.19-.33 0-.51 0-.52.03 0 .02-.03.18-.08.48s-.09.56-.1.79c0 .43.1.76.29 1s.48.37.86.38.8-.08 1.26-.26.88-.48 1.25-.9c.08-.09.14-.14.16-.14.04 0 .1.04.18.12s.13.14.14.19-.03.12-.12.22-.23.22-.41.37c-.18.14-.39.29-.62.42s-.52.25-.86.34-.68.14-1.03.14c-.71 0-1.27-.24-1.66-.72s-.59-1.05-.6-1.71zm4.53-2.51c-.05-.47-.36-.71-.92-.71-.3 0-.57.06-.83.19-.25.13-.46.28-.61.46s-.29.37-.39.56-.18.35-.22.49-.06.22-.07.26c0 0 .09.01.27.01 1.02 0 1.74-.11 2.14-.33s.62-.53.62-.94z"/><g><g class="cls-1"><path d="M35.58,3.66c.06.05.08.08.08.12,0,.02-.02.06-.07.1l-.52.38c-.1,1.56-.26,3.25-.44,4.41-.24,1.57-.52,2.03-1.74,2.52-.02.01-.04.01-.05.01-.05,0-.08-.04-.1-.12-.14-.64-.3-.73-1.73-1.27l.04-.16c.88.24,1.48.37,1.91.37.82,0,.98-.5,1.18-1.73.14-.86.28-2.65.35-4.38l-3.71.05c-.8,3.9-2.3,5.79-5.67,7.33l-.1-.18c3.11-1.78,4.52-3.51,5.17-7.14l-3.75.04c-.24,0-.48.04-.73.13l-.4-.44c.34.04.53.05.8.05l4.13-.04c.28-1.59.37-2.57.38-3.57l1.01.54c.07.04.1.06.1.1s-.02.07-.1.13l-.36.28c-.1.74-.24,1.54-.43,2.52l3.43-.04.49-.71.83.7ZM26.96.78c1.02.61,1.55,1.14,1.73,1.45.06.11.08.22.08.34,0,.31-.19.6-.4.6-.13,0-.2-.12-.31-.54-.12-.48-.48-1.07-1.19-1.74l.08-.11ZM30.79,5.29c1.19.6,1.88,1.2,1.99,1.6.02.07.02.14.02.22,0,.32-.17.62-.35.62-.13,0-.26-.16-.36-.53-.11-.4-.78-1.34-1.38-1.78l.07-.13Z"/></g><g class="cls-1"><path d="m47.7 1.93c.07.06.11.11.11.14s-.06.06-.17.06h-8.73v3.21c0 3.12-.38 4.5-1.97 5.98l-.14-.11c1.25-1.65 1.56-2.78 1.56-5.98v-2.55c0-.46-.02-.98-.04-1.39l.8.58h7.26l.48-.71.84.77zm-.12 6.48c0 1.6.05 2.2.2 2.4.13.17.18.28.18.33 0 .13-.17.14-.24.14-.16 0-.36-.05-.58-.14-2.1-.88-3.03-2.51-3.35-4.75h-2.84v3.47l1.94-1.33.1.16c-1.38 1.12-2.12 2-2.27 2.36-.02.07-.06.11-.1.11-.02 0-.05-.01-.08-.04l-.61-.52c.34-.28.47-.49.47-.92v-4.63c0-.49-.02-1.31-.05-1.75l.84.72c2.13-.38 3.89-.75 4.94-1.12l.55.64s.05.06.05.08-.02.04-.05.04c-.06 0-.35-.05-.41-.05-.31 0-1.78.26-2.11.3 0 .73.02 1.43.12 2.22h2.18l.48-.65.77.73c.06.05.08.1.08.12 0 .04-.05.06-.14.06h-3.33c.34 2.18 1.34 3.53 2.76 4.05l.31-2.05h.18zm-3.82-2.28c-.1-.79-.13-1.54-.14-2.15-.96.11-2 .22-2.66.25v1.9h2.81zm-2.02-5.93c1.55.41 1.63.78 1.63 1.12s-.19.49-.42.49c-.13 0-.2-.08-.25-.32-.05-.23-.41-.72-1.03-1.18l.07-.11zm.84 9.29c1.26.52 1.61.83 1.61 1.27 0 .26-.14.52-.34.52-.11 0-.18-.07-.31-.36-.17-.37-.49-.86-1.04-1.29l.08-.13z"/></g><g class="cls-1"><path d="m53.99 2.54c.06.04.1.07.1.1 0 .04-.04.06-.1.1l-.41.25v4.64c0 .91.02 1.66.06 2.19v.07c0 .18-.05.23-.31.34-.12.05-.19.07-.23.07-.07 0-.08-.06-.08-.16v-.88h-2.58v1.14c0 .16-.02.19-.24.29-.11.05-.18.07-.24.07-.1 0-.12-.08-.12-.29v-.08c.02-.67.04-1.69.04-2.34v-4.97c0-.61-.01-.82-.04-1.17l.73.6h.56c.32-.77.61-1.68.8-2.39l.76.4c.1.05.14.08.14.12s-.05.06-.13.07c-.17.02-.29.11-.4.28l-.95 1.52h1.48l.4-.55.76.59zm-.98 3.07v-2.85h-2.58v2.85h2.58zm0 3.4v-3.13h-2.58v3.13h2.58zm6.31-6.38c.07.05.1.08.1.12s-.02.06-.1.11l-.38.23c-.08 3.11-.18 5.19-.25 6.22-.08 1.12-.19 1.48-1.12 1.99-.02.01-.05.02-.06.02-.05 0-.07-.05-.11-.14-.13-.41-.41-.59-1.5-.88v-.19c.68.16 1.14.25 1.45.25.59 0 .68-.31.74-1.02.11-1.16.23-3.61.29-6.5h-2.81c-.52 1.14-.95 1.91-1.52 2.73l-.13-.08c.79-1.44 1.6-3.66 2.05-5.33l.71.36c.12.06.18.11.18.16s-.06.08-.19.11c-.13.02-.23.12-.37.44-.22.5-.42.95-.6 1.34h2.52l.35-.56.76.61zm-4.18 2.13c.97.53 1.46 1.01 1.58 1.34.04.11.06.22.06.32 0 .32-.18.58-.35.58-.18 0-.24-.07-.29-.3-.13-.58-.49-1.22-1.09-1.83l.08-.11z"/></g><g class="cls-1"><path d="m65.5 3.01c.06.06.08.1.08.12 0 .04-.05.05-.11.05h-2.05v2.24l1.67-.85.11.19-1.78 1.13v4.27c0 .65-.16.85-.76 1.09-.02.01-.05.01-.07.01-.05 0-.07-.02-.08-.1-.08-.42-.34-.66-1.22-.88l.02-.18c.65.14 1.03.22 1.26.22.26 0 .3-.1.3-.3v-3.79c-1.07.67-1.25.8-1.33.94-.04.06-.06.08-.1.08-.02 0-.05-.01-.07-.04l-.54-.49 2.04-1.03v-2.52h-.8c-.25 0-.6.05-.8.13l-.34-.44c.3.02.6.05.88.05h1.07v-1.16c0-.7-.02-1.31-.05-1.75l.92.54c.06.04.1.07.1.11 0 .02-.04.06-.1.1l-.32.18v1.99h.88l.52-.65.68.74zm5.5 3.19s.07.07.07.1c0 .04-.02.06-.08.1l-.4.22v2.46c0 .79.02 1.4.06 1.77 0 .04.01.07.01.1 0 .16-.07.22-.31.31-.12.05-.19.07-.24.07-.07 0-.08-.06-.08-.16v-.74h-3.62v.55c0 .14-.02.19-.26.28-.1.04-.17.05-.22.05-.1 0-.12-.06-.12-.24v-.12c.02-.71.04-1.19.04-1.87v-2.39c0-.43-.01-.85-.04-1.22l.79.68h3.26l.32-.53.82.59zm.52-3.47c-.01 1 .08 1.3.32 1.42.04.02.06.06.06.1 0 .02-.01.05-.02.07-.35.55-.54.66-1.1.68-.31.01-.82.01-1.37.01-3.39 0-3.39-.01-3.39-1.19v-2.5c0-.49-.01-.94-.04-1.22l.9.47c.06.04.08.06.08.08s-.02.06-.07.08l-.32.22v1.9c1.62-.61 2.67-1.12 3.97-1.87l.6.59s.07.1.07.12c0 .04-.04.06-.12.06-.24 0-.64.07-.84.14l-3.68 1.2v.72c0 .52.06.64.71.7.29.02.85.04 1.45.04.66 0 1.39-.01 1.86-.04.47-.02.61-.12.74-1.76h.19zm-1.49 5.35v-1.68h-3.62v1.68h3.62zm0 2.08v-1.81h-3.62v1.81h3.62z"/></g><g class="cls-1"><path d="m78.77 3.09c.06.05.08.08.08.11 0 .04-.05.05-.16.05h-2.46v.41c.43.12 1.95.54 1.95 1.24 0 .19-.1.36-.24.36-.13 0-.19-.02-.34-.24-.25-.36-.73-.83-1.38-1.18v1.21c0 .12-.04.17-.23.24-.11.04-.18.06-.23.06-.07 0-.1-.05-.1-.12v-.05c.02-.34.04-.74.04-1.2v-.72c-.97 1.39-1.67 2.12-2.9 3l-.11-.11c1.07-1.01 1.64-1.67 2.39-2.9h-.94c-.25 0-.6.05-.8.13l-.34-.44c.3.02.6.05.88.05h1.82v-1.83c0-.3-.01-.64-.04-1.03l.85.43c.06.02.08.05.08.07s-.02.05-.08.08l-.3.17v2.11h1.38l.44-.56.71.67zm-.78 3.58s.06.06.06.07c0 .04-.04.05-.07.05-.14 0-.35.19-.44.37-.4.78-.56 1.1-.85 1.5.64.28.97.54 1.16.77.08.1.11.23.11.35 0 .2-.1.38-.24.38-.11 0-.19-.06-.38-.3-.2-.26-.49-.53-.95-.82-.67.82-1.56 1.42-3.43 2.06l-.06-.16c1.65-.77 2.55-1.49 3.08-2.13-.47-.24-1.09-.49-1.92-.76.24-.4.47-.8.66-1.2l-.82.04c-.25 0-.41.04-.6.12l-.46-.4c.3.05.56.05.84.04l1.15-.05c.22-.43.38-.85.52-1.24l.64.38s.07.05.07.07c0 .05-.04.06-.36.14l-.34.61 1.65-.07.29-.38.68.54zm-4.3-5.91c1.07.54 1.35.94 1.35 1.33 0 .24-.14.42-.35.42-.1 0-.2-.13-.25-.37-.07-.4-.37-.85-.82-1.27l.06-.11zm.91 7.24c.66.16 1.2.32 1.63.48.36-.52.62-1.09.85-1.71l-1.86.07-.62 1.16zm7.92-4.94c-.28 2.12-.9 4.22-1.39 5.05.7 1.06 1.52 1.67 2.87 2.24l-.05.12c-.13-.01-.24-.01-.34-.01-.32 0-.52.06-.72.28-.02.02-.06.05-.08.05-.07 0-1.29-1.07-2.03-2.22-1.2 1.39-2.23 2.17-4.08 2.85l-.05-.17c1.56-.73 3.01-1.91 3.87-3.13-.49-1.01-.89-2.57-1.02-4.08-.38.83-.77 1.56-1.19 2.21l-.12-.1c.95-2.04 1.75-4.39 2.12-6.08l.82.47c.06.04.08.06.08.08s-.04.04-.13.06c-.23.05-.28.12-.38.42-.23.61-.46 1.16-.66 1.69h2.71l.44-.55.68.66s.07.08.07.11-.04.05-.14.05h-1.3zm-4.09-1.92c.06.04.1.06.1.08s-.04.04-.11.05c-.36.04-.47.07-1.6 1.36l-.14-.1c.41-.6.74-1.16 1.04-1.79l.71.4zm1.51 1.92c-.08.2-.17.4-.25.59.34 2.03.7 3.12 1.15 3.97.42-.82.84-2.53 1.03-4.56h-1.93z"/></g><g class="cls-1"><path d="m95.1 3.8c.12.05.18.08.18.13 0 .04-.06.1-.17.17l-.32.22v4.07c0 .91.01 1.56.05 2.1v.07c0 .18-.05.23-.31.34-.12.06-.2.08-.25.08-.06 0-.07-.06-.07-.17v-.8h-7.6l-.32.36s-.07.07-.11.07c-.02 0-.06-.01-.1-.05l-.7-.64.55-.46v-4.25c0-.49-.02-1.31-.05-1.75l.89.44c.1.05.14.08.14.12s-.05.08-.13.14l-.31.24v5.49h7.74v-4.59c0-.49-.02-1.31-.05-1.75l.95.41zm-.3-2.62c.07.06.1.11.1.14 0 .06-.07.06-.23.06-.48 0-1.39.38-3.81 1.82l-.1.16v1.82c.82-.59 1.56-1.21 2.25-1.86l.54.47c.07.06.1.1.1.13s-.05.05-.13.06c-.19.01-.38.1-.56.19l-2.19 1.22v.06c1.34.64 1.81.95 2.17 1.31.23.23.31.47.31.67 0 .25-.13.44-.26.44s-.2-.07-.37-.35c-.31-.52-.94-1.2-1.85-1.86v2.35c0 .56-.25.9-.95 1.21-.04.01-.06.02-.07.02-.05 0-.06-.04-.07-.1-.06-.34-.29-.48-1.27-.72l.02-.18c.61.1 1.02.14 1.28.14.44 0 .49-.13.49-.41v-2.43l-1.75 1.25c-.47.34-.67.55-.78.74-.04.06-.06.1-.1.1-.01 0-.04-.01-.06-.04l-.54-.41 3.23-1.89v-1.57c0-.55-.01-1.04-.02-1.29l.79.43 2.41-1.68h-6.07c-.25 0-.6.05-.8.13l-.34-.44c.3.02.6.05.88.05h6.38l.58-.43.8.67zm-7.16 1.89c.79.46 1.25.9 1.35 1.13.06.13.08.26.08.38 0 .31-.19.55-.4.55-.16 0-.22-.08-.29-.47-.07-.42-.22-.79-.88-1.48l.12-.12z"/></g><g class="cls-1"><path d="m102.77 3.09c.06.05.08.08.08.11 0 .04-.05.05-.16.05h-2.46v.41c.43.12 1.95.54 1.95 1.24 0 .19-.1.36-.24.36-.13 0-.19-.02-.34-.24-.25-.36-.73-.83-1.38-1.18v1.21c0 .12-.04.17-.23.24-.11.04-.18.06-.23.06-.07 0-.1-.05-.1-.12v-.05c.02-.34.04-.74.04-1.2v-.72c-.97 1.39-1.67 2.12-2.9 3l-.11-.11c1.07-1.01 1.64-1.67 2.39-2.9h-.94c-.25 0-.6.05-.8.13l-.34-.44c.3.02.6.05.88.05h1.82v-1.83c0-.3-.01-.64-.04-1.03l.85.43c.06.02.08.05.08.07s-.02.05-.08.08l-.3.17v2.11h1.38l.44-.56.71.67zm-.78 3.58s.06.06.06.07c0 .04-.04.05-.07.05-.14 0-.35.19-.44.37-.4.78-.56 1.1-.85 1.5.64.28.97.54 1.16.77.08.1.11.23.11.35 0 .2-.1.38-.24.38-.11 0-.19-.06-.38-.3-.2-.26-.49-.53-.95-.82-.67.82-1.56 1.42-3.43 2.06l-.06-.16c1.65-.77 2.55-1.49 3.08-2.13-.47-.24-1.09-.49-1.92-.76.24-.4.47-.8.66-1.2l-.82.04c-.25 0-.41.04-.6.12l-.46-.4c.3.05.56.05.84.04l1.15-.05c.22-.43.38-.85.52-1.24l.64.38s.07.05.07.07c0 .05-.04.06-.36.14l-.34.61 1.65-.07.29-.38.68.54zm-4.3-5.91c1.07.54 1.35.94 1.35 1.33 0 .24-.14.42-.35.42-.1 0-.2-.13-.25-.37-.07-.4-.37-.85-.82-1.27l.06-.11zm.91 7.24c.66.16 1.2.32 1.63.48.36-.52.62-1.09.85-1.71l-1.86.07-.62 1.16zm7.91-4.94c-.28 2.12-.9 4.22-1.39 5.05.7 1.06 1.52 1.67 2.87 2.24l-.05.12c-.13-.01-.24-.01-.34-.01-.32 0-.52.06-.72.28-.02.02-.06.05-.08.05-.07 0-1.29-1.07-2.03-2.22-1.2 1.39-2.23 2.17-4.08 2.85l-.05-.17c1.56-.73 3.01-1.91 3.87-3.13-.49-1.01-.89-2.57-1.02-4.08-.38.83-.77 1.56-1.19 2.21l-.12-.1c.95-2.04 1.75-4.39 2.12-6.08l.82.47c.06.04.08.06.08.08s-.04.04-.13.06c-.23.05-.28.12-.38.42-.23.61-.46 1.16-.66 1.69h2.71l.44-.55.68.66s.07.08.07.11-.04.05-.14.05h-1.3zm-4.09-1.92c.06.04.1.06.1.08s-.04.04-.11.05c-.36.04-.47.07-1.6 1.36l-.14-.1c.41-.6.74-1.16 1.04-1.79l.71.4zm1.51 1.92c-.08.2-.17.4-.25.59.34 2.03.7 3.12 1.15 3.97.42-.82.84-2.53 1.03-4.56h-1.93z"/></g></g></g></g></svg>
