<svg viewBox="0 0 47.16 11.35" xmlns="http://www.w3.org/2000/svg"><defs><style>.cls-1 {
        isolation: isolate;
      }</style></defs><g id="a"><g><g class="cls-1"><path d="M3.35.56c.08.05.13.08.13.11,0,.04-.04.06-.13.1-.19.07-.28.19-.4.48-.31.78-.64,1.51-.96,2.19l.46.26c.06.02.08.05.08.08s-.24.25-.3.3v4.79c0,.74.01,1.21.05,1.75v.07c0,.18-.05.24-.28.34-.11.05-.18.07-.23.07-.08,0-.11-.07-.11-.26v-.12c.02-.71.04-1.25.04-1.87v-4.83c-.5.98-1.03,1.82-1.56,2.49l-.14-.11C1.16,4.55,2.15,2.03,2.52.11l.83.46ZM6.93,2.72c.07.06.11.1.11.13s-.02.07-.08.11l-.36.23c0,.61.01,1.18.01,1.7,0,1.98-.04,3.31-.1,3.96-.07.76-.31,1.2-.98,1.64-.06.04-.11.06-.14.06-.05,0-.07-.04-.08-.13-.06-.37-.43-.65-1.15-.79l.04-.17c.38.1.7.14.95.14.62,0,.86-.28.89-.82.05-.98.08-2.6.08-4.19,0-.54,0-1.08-.01-1.6h-1.32c-.07,4.16-.3,6.24-2.3,8.29l-.16-.1c1.58-1.96,1.91-4.04,1.93-8.19h-.49c-.35,0-.6.05-.8.13l-.34-.44c.3.04.6.05.88.05h.76c0-.4.01-2.31,0-2.75l.85.37c.07.04.1.06.1.08s-.02.05-.08.08l-.32.19c0,.35,0,1.31-.01,2.01h1.07l.4-.55.7.53ZM10.69,2.23s.06.05.06.07-.02.05-.07.08l-.35.23v5.28c0,.91.02,1.66.06,2.19v.1c0,.16-.04.2-.28.31-.12.05-.19.07-.24.07-.07,0-.08-.06-.08-.16v-1.21h-1.67v1.22c0,.14-.02.19-.25.3-.1.05-.17.07-.22.07-.08,0-.11-.07-.11-.26v-.12c.02-.71.04-1.79.04-2.47V2.79c0-.29-.01-.86-.04-1.24l.7.61h1.32l.36-.53.77.59ZM9.79,8.94V2.43h-1.67v6.5h1.67Z"/></g><g class="cls-1"><path d="m16.9 7.1-2.69 1.3c-.86.42-1.31.71-1.42.85-.04.05-.07.07-.08.07-.02 0-.04-.01-.06-.04l-.48-.59 1.98-.74v-3.27h-.89c-.24 0-.56.05-.75.12l-.32-.43c.29.02.58.05.84.05h1.13v-2.9h-.9c-.25 0-.6.05-.8.13l-.34-.44c.3.02.6.05.88.05h2.5l.46-.62.67.73s.06.08.06.11c0 .04-.04.05-.11.05h-1.86v2.89h.82l.47-.62.66.72c.06.06.08.1.08.13 0 .02-.04.04-.11.04h-1.92v3.07l2.12-.8.07.16zm4.32.7c.06.06.1.1.1.13 0 .02-.05.04-.13.04h-3.75c-.25 0-.6.05-.8.13l-.34-.44c.3.04.6.05.88.05h2.87l.49-.6.7.7zm1.61-2.32s.08.07.08.11c0 .02-.02.06-.07.08l-.35.23c-.01.84-.05 1.83-.1 2.45-.14 1.79-.28 1.97-1.64 2.59-.05.02-.07.04-.1.04-.05 0-.07-.04-.08-.11-.12-.47-.36-.7-1.37-.98l.04-.18c.67.16 1.16.25 1.54.25.77 0 .95-.43 1.07-1.67.05-.56.07-1.54.07-2.49h-3.74l-.35.35c-.06.06-.1.08-.14.08-.02 0-.05-.01-.08-.04l-.68-.49.49-.31.32-2.65c.04-.31.07-.64.08-.94l.77.41s.08.05.08.07-.02.05-.07.08l-.34.24-.36 2.93h2.47l.42-4.26h-2.7c-.25 0-.6.05-.8.13l-.33-.44c.36.04.65.05.88.05h2.73l.41-.58.73.6c.06.05.1.08.1.12s-.02.06-.07.1l-.41.28-.41 4.01h.74l.42-.54.75.49z"/></g><g class="cls-1"><path d="M34.28,3.73c.12.05.18.08.18.13,0,.04-.06.1-.17.17l-.32.22v4.07c0,.91.01,1.56.05,2.1v.07c0,.18-.05.23-.31.34-.12.06-.2.08-.25.08-.06,0-.07-.06-.07-.17v-.8h-7.6l-.32.36s-.07.07-.11.07c-.02,0-.06-.01-.1-.05l-.7-.64.55-.46v-4.25c0-.49-.02-1.31-.05-1.75l.89.44c.1.05.14.08.14.12s-.05.08-.13.14l-.31.24v5.49h7.74v-4.59c0-.49-.02-1.31-.05-1.75l.95.41ZM33.98,1.1c.07.06.1.11.1.14,0,.06-.07.06-.23.06-.48,0-1.39.38-3.81,1.82l-.1.16v1.82c.82-.59,1.56-1.21,2.26-1.86l.54.47c.07.06.1.1.1.13s-.05.05-.13.06c-.19.01-.38.1-.56.19l-2.2,1.22v.06c1.34.64,1.81.95,2.17,1.31.23.23.31.47.31.67,0,.25-.13.44-.26.44s-.2-.07-.37-.35c-.31-.52-.94-1.2-1.85-1.86v2.35c0,.56-.25.9-.95,1.21-.04.01-.06.02-.07.02-.05,0-.06-.04-.07-.1-.06-.34-.29-.48-1.27-.72l.02-.18c.61.1,1.02.14,1.28.14.44,0,.49-.13.49-.41v-2.43l-1.75,1.25c-.47.34-.67.55-.78.74-.04.06-.06.1-.1.1-.01,0-.04-.01-.06-.04l-.54-.41,3.23-1.9v-1.57c0-.55-.01-1.04-.02-1.29l.79.43,2.41-1.68h-6.07c-.25,0-.6.05-.8.13l-.34-.44c.3.02.6.05.88.05h6.38l.58-.43.8.67ZM26.82,3c.79.46,1.25.9,1.35,1.13.06.13.08.26.08.38,0,.31-.19.55-.4.55-.16,0-.22-.08-.29-.47-.07-.42-.22-.79-.88-1.48l.12-.12Z"/></g><g class="cls-1"><path d="m41.94 3.02c.06.05.08.08.08.11 0 .04-.05.05-.16.05h-2.46v.41c.43.12 1.95.54 1.95 1.24 0 .19-.1.36-.24.36-.13 0-.19-.02-.34-.24-.25-.36-.73-.83-1.38-1.18v1.21c0 .12-.04.17-.23.24-.11.04-.18.06-.23.06-.07 0-.1-.05-.1-.12v-.05c.02-.34.04-.74.04-1.2v-.72c-.97 1.39-1.67 2.12-2.9 3l-.11-.11c1.07-1.01 1.64-1.67 2.39-2.9h-.94c-.25 0-.6.05-.8.13l-.34-.44c.3.02.6.05.88.05h1.82v-1.83c0-.3-.01-.64-.04-1.03l.85.43c.06.02.08.05.08.07s-.02.05-.08.08l-.3.17v2.11h1.38l.44-.56.71.67zm-.78 3.58s.06.06.06.07c0 .04-.04.05-.07.05-.14 0-.35.19-.44.37-.4.78-.56 1.1-.85 1.5.63.28.97.54 1.16.77.08.1.11.23.11.35 0 .2-.1.38-.24.38-.11 0-.19-.06-.38-.3-.2-.26-.49-.53-.95-.82-.67.82-1.56 1.42-3.43 2.06l-.06-.16c1.66-.77 2.55-1.49 3.08-2.13-.47-.24-1.09-.49-1.92-.76.24-.4.47-.8.66-1.2l-.82.04c-.25 0-.41.04-.6.12l-.46-.4c.3.05.56.05.84.04l1.15-.05c.22-.43.38-.85.52-1.24l.64.38s.07.05.07.07c0 .05-.04.06-.36.14l-.33.61 1.66-.07.29-.38.68.54zm-4.3-5.92c1.07.54 1.35.94 1.35 1.33 0 .24-.14.42-.35.42-.1 0-.2-.13-.25-.37-.07-.4-.37-.85-.82-1.27l.06-.11zm.91 7.25c.66.16 1.2.32 1.63.48.36-.52.62-1.09.85-1.72l-1.86.07-.62 1.16zm7.92-4.94c-.28 2.12-.9 4.22-1.39 5.05.7 1.06 1.52 1.67 2.87 2.24l-.05.12c-.13-.01-.24-.01-.34-.01-.32 0-.52.06-.72.28-.02.02-.06.05-.08.05-.07 0-1.29-1.07-2.03-2.22-1.2 1.39-2.23 2.17-4.08 2.85l-.05-.17c1.56-.73 3.01-1.91 3.87-3.13-.49-1.01-.89-2.57-1.02-4.08-.38.83-.77 1.56-1.19 2.21l-.12-.1c.95-2.04 1.75-4.39 2.12-6.08l.82.47c.06.04.08.06.08.08s-.04.04-.13.06c-.23.05-.28.12-.38.42-.23.61-.46 1.16-.66 1.69h2.71l.44-.55.68.66s.07.08.07.11-.04.05-.14.05h-1.3zm-4.09-1.92c.06.04.1.06.1.08s-.04.04-.11.05c-.36.04-.47.07-1.59 1.36l-.14-.1c.41-.6.74-1.16 1.04-1.79l.71.4zm1.51 1.92c-.08.2-.17.4-.25.59.34 2.03.7 3.12 1.15 3.97.42-.82.84-2.53 1.03-4.56h-1.93z"/></g></g></g></svg>
