<svg viewBox="0 0 47.32 11.35" xmlns="http://www.w3.org/2000/svg"><defs><style>.cls-1 {
        isolation: isolate;
      }</style></defs><g id="a"><g><g class="cls-1"><path d="M5.3,1.87c.06.05.1.08.1.12s-.04.07-.12.12l-.41.24c-.37,1.33-.77,2.49-1.26,3.56.63.89,1.12,1.69,1.39,2.34.06.14.1.29.1.43,0,.42-.25.74-.37.74-.23,0-.26-.02-.36-.49-.11-.6-.44-1.45-1.02-2.51-.77,1.49-1.76,2.77-3.24,4.03l-.11-.16c1.34-1.42,2.33-2.83,3.05-4.39-.49-.83-1.13-1.77-1.92-2.79l.16-.13c.74.86,1.42,1.69,1.98,2.45.43-1.02.76-2.11,1.01-3.3H1.31c-.25,0-.6.05-.8.13l-.34-.44c.3.02.6.05.88.05h3.09l.4-.54.77.54ZM11.24,3.3c.08.1.13.16.13.19,0,.05-.06.06-.18.06h-1.84v6.51c0,.53-.1.7-.96,1.1-.04.01-.07.02-.1.02s-.05-.02-.06-.08c-.08-.42-.43-.7-1.49-.94l.02-.19c.8.12,1.29.19,1.58.19.42,0,.44-.13.44-.42V3.55h-2.69c-.25,0-.6.05-.8.13l-.34-.44c.3.02.6.05.88.05h2.95v-1.6c0-.49-.02-1.19-.05-1.63l.86.44c.08.05.13.07.13.11,0,.05-.01.06-.4.32v2.35h.73l.52-.68.63.7ZM5.71,4.52c1.01.7,1.48,1.39,1.52,1.58.02.11.04.19.04.29,0,.4-.23.61-.46.61-.12,0-.23-.08-.29-.46-.08-.54-.24-1-.92-1.91l.11-.12Z"/></g><g class="cls-1"><path d="m18.1 3.02c.06.05.08.08.08.11 0 .04-.05.05-.16.05h-2.46v.41c.43.12 1.95.54 1.95 1.24 0 .19-.1.36-.24.36-.13 0-.19-.02-.34-.24-.25-.36-.73-.83-1.38-1.18v1.21c0 .12-.04.17-.23.24-.11.04-.18.06-.23.06-.07 0-.1-.05-.1-.12v-.05c.02-.34.04-.74.04-1.2v-.72c-.97 1.39-1.67 2.12-2.9 3l-.11-.11c1.07-1.01 1.64-1.67 2.39-2.9h-.94c-.25 0-.6.05-.8.13l-.34-.44c.3.02.6.05.88.05h1.82v-1.83c0-.3-.01-.64-.04-1.03l.85.43c.06.02.08.05.08.07s-.02.05-.08.08l-.3.17v2.11h1.38l.44-.56.71.67zm-.78 3.58s.06.06.06.07c0 .04-.04.05-.07.05-.14 0-.35.19-.44.37-.4.78-.56 1.1-.85 1.5.63.28.97.54 1.16.77.08.1.11.23.11.35 0 .2-.1.38-.24.38-.11 0-.19-.06-.38-.3-.2-.26-.49-.53-.95-.82-.67.82-1.56 1.42-3.43 2.06l-.06-.16c1.66-.77 2.55-1.49 3.08-2.13-.47-.24-1.09-.49-1.92-.76.24-.4.47-.8.66-1.2l-.82.04c-.25 0-.41.04-.6.12l-.46-.4c.3.05.56.05.84.04l1.15-.05c.22-.43.38-.85.52-1.24l.64.38s.07.05.07.07c0 .05-.04.06-.36.14l-.33.61 1.66-.07.29-.38.68.54zm-4.3-5.92c1.07.54 1.35.94 1.35 1.33 0 .24-.14.42-.35.42-.1 0-.2-.13-.25-.37-.07-.4-.37-.85-.82-1.27l.06-.11zm.91 7.25c.66.16 1.2.32 1.63.48.36-.52.62-1.09.85-1.72l-1.86.07-.62 1.16zm7.91-4.94c-.28 2.12-.9 4.22-1.39 5.05.7 1.06 1.52 1.67 2.87 2.24l-.05.12c-.13-.01-.24-.01-.34-.01-.32 0-.52.06-.72.28-.02.02-.06.05-.08.05-.07 0-1.29-1.07-2.03-2.22-1.2 1.39-2.23 2.17-4.08 2.85l-.05-.17c1.56-.73 3.01-1.91 3.87-3.13-.49-1.01-.89-2.57-1.02-4.08-.38.83-.77 1.56-1.19 2.21l-.12-.1c.95-2.04 1.75-4.39 2.12-6.08l.82.47c.06.04.08.06.08.08s-.04.04-.13.06c-.23.05-.28.12-.38.42-.23.61-.46 1.16-.66 1.69h2.71l.44-.55.68.66s.07.08.07.11-.04.05-.14.05h-1.3zm-4.09-1.92c.06.04.1.06.1.08s-.04.04-.11.05c-.36.04-.47.07-1.59 1.36l-.14-.1c.41-.6.74-1.16 1.04-1.79l.71.4zm1.52 1.92c-.08.2-.17.4-.25.59.34 2.03.7 3.12 1.15 3.97.42-.82.84-2.53 1.03-4.56h-1.93z"/></g><g class="cls-1"><path d="M34.43,3.73c.12.05.18.08.18.13,0,.04-.06.1-.17.17l-.32.22v4.07c0,.91.01,1.56.05,2.1v.07c0,.18-.05.23-.31.34-.12.06-.2.08-.25.08-.06,0-.07-.06-.07-.17v-.8h-7.6l-.32.36s-.07.07-.11.07c-.02,0-.06-.01-.1-.05l-.7-.64.55-.46v-4.25c0-.49-.02-1.31-.05-1.75l.89.44c.1.05.14.08.14.12s-.05.08-.13.14l-.31.24v5.49h7.74v-4.59c0-.49-.02-1.31-.05-1.75l.95.41ZM34.13,1.1c.07.06.1.11.1.14,0,.06-.07.06-.23.06-.48,0-1.39.38-3.81,1.82l-.1.16v1.82c.82-.59,1.56-1.21,2.26-1.86l.54.47c.07.06.1.1.1.13s-.05.05-.13.06c-.19.01-.38.1-.56.19l-2.2,1.22v.06c1.34.64,1.81.95,2.17,1.31.23.23.31.47.31.67,0,.25-.13.44-.26.44s-.2-.07-.37-.35c-.31-.52-.94-1.2-1.85-1.86v2.35c0,.56-.25.9-.95,1.21-.04.01-.06.02-.07.02-.05,0-.06-.04-.07-.1-.06-.34-.29-.48-1.27-.72l.02-.18c.61.1,1.02.14,1.28.14.44,0,.49-.13.49-.41v-2.43l-1.75,1.25c-.47.34-.67.55-.78.74-.04.06-.06.1-.1.1-.01,0-.04-.01-.06-.04l-.54-.41,3.23-1.9v-1.57c0-.55-.01-1.04-.02-1.29l.79.43,2.41-1.68h-6.07c-.25,0-.6.05-.8.13l-.34-.44c.3.02.6.05.88.05h6.38l.58-.43.8.67ZM26.97,3c.79.46,1.25.9,1.35,1.13.06.13.08.26.08.38,0,.31-.19.55-.4.55-.16,0-.22-.08-.29-.47-.07-.42-.22-.79-.88-1.48l.12-.12Z"/></g><g class="cls-1"><path d="m42.1 3.02c.06.05.08.08.08.11 0 .04-.05.05-.16.05h-2.46v.41c.43.12 1.95.54 1.95 1.24 0 .19-.1.36-.24.36-.13 0-.19-.02-.34-.24-.25-.36-.73-.83-1.38-1.18v1.21c0 .12-.04.17-.23.24-.11.04-.18.06-.23.06-.07 0-.1-.05-.1-.12v-.05c.02-.34.04-.74.04-1.2v-.72c-.97 1.39-1.67 2.12-2.9 3l-.11-.11c1.07-1.01 1.64-1.67 2.39-2.9h-.94c-.25 0-.6.05-.8.13l-.34-.44c.3.02.6.05.88.05h1.82v-1.83c0-.3-.01-.64-.04-1.03l.85.43c.06.02.08.05.08.07s-.02.05-.08.08l-.3.17v2.11h1.38l.44-.56.71.67zm-.78 3.58s.06.06.06.07c0 .04-.04.05-.07.05-.14 0-.35.19-.44.37-.4.78-.56 1.1-.85 1.5.63.28.97.54 1.16.77.08.1.11.23.11.35 0 .2-.1.38-.24.38-.11 0-.19-.06-.38-.3-.2-.26-.49-.53-.95-.82-.67.82-1.56 1.42-3.43 2.06l-.06-.16c1.66-.77 2.55-1.49 3.08-2.13-.47-.24-1.09-.49-1.92-.76.24-.4.47-.8.66-1.2l-.82.04c-.25 0-.41.04-.6.12l-.46-.4c.3.05.56.05.84.04l1.15-.05c.22-.43.38-.85.52-1.24l.64.38s.07.05.07.07c0 .05-.04.06-.36.14l-.33.61 1.66-.07.29-.38.68.54zm-4.31-5.92c1.07.54 1.35.94 1.35 1.33 0 .24-.14.42-.35.42-.1 0-.2-.13-.25-.37-.07-.4-.37-.85-.82-1.27l.06-.11zm.92 7.25c.66.16 1.2.32 1.63.48.36-.52.62-1.09.85-1.72l-1.86.07-.62 1.16zm7.91-4.94c-.28 2.12-.9 4.22-1.39 5.05.7 1.06 1.52 1.67 2.87 2.24l-.05.12c-.13-.01-.24-.01-.34-.01-.32 0-.52.06-.72.28-.02.02-.06.05-.08.05-.07 0-1.29-1.07-2.03-2.22-1.2 1.39-2.23 2.17-4.08 2.85l-.05-.17c1.56-.73 3.01-1.91 3.87-3.13-.49-1.01-.89-2.57-1.02-4.08-.38.83-.77 1.56-1.19 2.21l-.12-.1c.95-2.04 1.75-4.39 2.12-6.08l.82.47c.06.04.08.06.08.08s-.04.04-.13.06c-.23.05-.28.12-.38.42-.23.61-.46 1.16-.66 1.69h2.71l.44-.55.68.66s.07.08.07.11-.04.05-.14.05h-1.3zm-4.09-1.92c.06.04.1.06.1.08s-.04.04-.11.05c-.36.04-.47.07-1.59 1.36l-.14-.1c.41-.6.74-1.16 1.04-1.79l.71.4zm1.51 1.92c-.08.2-.17.4-.25.59.34 2.03.7 3.12 1.15 3.97.42-.82.84-2.53 1.03-4.56h-1.93z"/></g></g></g></svg>
