<svg xmlns="http://www.w3.org/2000/svg" viewBox="0 0 47.03 11.37"><defs><style>.cls-1{isolation:isolate}</style></defs><path d="M10.95 9.29c-.67 0-.86.1-1.16.44-.05.05-.08.08-.12.08s-.07-.02-.13-.06c-1.86-1.39-3-2.88-3.86-5.97v6.3c0 .9-.06.97-.88 1.27-.02.01-.05.01-.06.01-.07 0-.11-.05-.13-.18-.06-.42-.34-.56-1.54-.92l.02-.18c.73.14 1.2.2 1.5.2.44 0 .52-.14.52-.41V6.42l-3.3 2.01c-.38.23-.73.54-.91.82-.07.1-.11.13-.14.13s-.07-.02-.11-.06L0 8.72l5.11-2.54V2.94H1.18c-.25 0-.6.05-.8.13l-.34-.44c.3.02.6.05.88.05h4.2v-.82c0-.49-.02-1.31-.05-1.75l.86.42c.12.06.18.1.18.14s-.05.08-.43.32v1.68h3.67l.48-.6.71.6c.11.1.16.16.16.19 0 .05-.06.07-.2.07H5.69v.22c.4 1.19.95 2.4 1.26 2.96.68-.77 1.5-1.79 1.98-2.52l.47.52c.11.12.17.2.17.25 0 .06-.07.07-.2.07s-.24.05-.32.12L7.08 6.31c1.01 1.64 2.25 2.49 3.9 2.81v.16ZM1.31 3.81c.84.49 1.66 1.25 1.77 1.62.04.11.05.22.05.32 0 .36-.2.64-.42.64-.19 0-.28-.13-.35-.53-.08-.44-.35-1.1-1.18-1.93l.12-.12ZM6.97.72c.92.18 1.63.46 1.81.79.06.12.1.25.1.38 0 .31-.18.59-.38.59-.16 0-.19-.05-.29-.37-.12-.4-.5-.85-1.29-1.25l.06-.14ZM23.12 4.69c-.56 0-.95.12-1.14.38-.05.06-.07.08-.11.08q-.03 0-.12-.06c-1.86-1.08-2.93-2.07-4.1-4.2-1.81 2.06-3.24 3.54-5.76 4.89l-.11-.12c2.26-1.44 4.15-3.35 5.47-5.64l.86.41c.12.05.17.1.17.12 0 .04-.05.06-.17.08-.1.02-.2.06-.29.11 1.35 2.36 3.45 3.66 5.29 3.8v.14Zm-7.43 3.03c.11.07.17.13.17.17 0 .05-.07.07-.2.1s-.37.16-.44.24c-1.02 1.08-1.83 1.8-2.85 2.48l-.07-.14c1.12-.92 2.18-2.31 2.75-3.3l.66.46Zm5.85-1.18c.11.11.16.17.16.2 0 .05-.06.06-.2.06h-3.79v3c0 .79-.04.96-.79 1.37-.07.04-.12.06-.16.06-.05 0-.07-.05-.08-.14-.06-.42-.35-.64-1.62-1.03l.04-.16c.91.18 1.42.26 1.7.26.32 0 .35-.11.35-.32V6.81h-3.09c-.25 0-.6.05-.8.13l-.34-.44c.3.02.6.05.88.05h3.36v-1.7h-1.51c-.25 0-.6.05-.8.13l-.34-.44c.3.02.6.05.88.05h3.45l.47-.62.64.62c.11.1.16.17.16.2 0 .05-.06.06-.2.06h-2.17v1.7h2.7l.47-.67.67.67ZM18.76 7.6c1.48.64 2.4 1.21 2.87 1.81.14.18.2.38.2.58 0 .31-.17.56-.34.56-.12 0-.23-.14-.47-.62-.23-.47-1.26-1.57-2.35-2.19l.08-.13ZM34.14 3.73c.12.05.18.08.18.13 0 .04-.06.1-.17.17l-.32.22v4.07c0 .91.01 1.56.05 2.1v.07c0 .18-.05.23-.31.34-.12.06-.2.08-.25.08-.06 0-.07-.06-.07-.17v-.8h-7.6l-.32.36s-.07.07-.11.07c-.02 0-.06-.01-.1-.05l-.7-.64.55-.46V4.97c0-.49-.02-1.31-.05-1.75l.89.44c.1.05.14.08.14.12s-.05.08-.13.14l-.31.24v5.49h7.74V5.06c0-.49-.02-1.31-.05-1.75l.95.41Zm-.3-2.63c.07.06.1.11.1.14 0 .06-.07.06-.23.06-.48 0-1.39.38-3.81 1.82l-.1.16V5.1c.82-.59 1.56-1.21 2.25-1.86l.54.47c.07.06.1.1.1.13s-.05.05-.13.06c-.19.01-.38.1-.56.19l-2.19 1.22v.06c1.34.64 1.81.95 2.17 1.31.23.23.31.47.31.67 0 .25-.13.44-.26.44s-.2-.07-.37-.35c-.31-.52-.94-1.2-1.85-1.86v2.35c0 .56-.25.9-.95 1.21-.04.01-.06.02-.07.02-.05 0-.06-.04-.07-.1-.06-.34-.29-.48-1.27-.72l.02-.18c.61.1 1.02.14 1.28.14.44 0 .49-.13.49-.41V5.46l-1.75 1.25c-.47.34-.67.55-.78.74-.04.06-.06.1-.1.1-.01 0-.04-.01-.06-.04l-.54-.41 3.23-1.9V3.63c0-.55-.01-1.04-.02-1.29l.79.43 2.41-1.68h-6.07c-.25 0-.6.05-.8.13l-.34-.44c.3.02.6.05.88.05h6.38l.58-.43.8.67ZM26.68 3c.79.46 1.25.9 1.35 1.13.06.13.08.26.08.38 0 .31-.19.55-.4.55-.16 0-.22-.08-.29-.47-.07-.42-.22-.79-.88-1.48l.12-.12ZM41.81 3.02c.06.05.08.08.08.11 0 .04-.05.05-.16.05h-2.46v.41c.43.12 1.95.54 1.95 1.24 0 .19-.1.36-.24.36-.13 0-.19-.02-.34-.24-.25-.36-.73-.83-1.38-1.18v1.21c0 .12-.04.17-.23.24-.11.04-.18.06-.23.06-.07 0-.1-.05-.1-.12v-.05c.02-.34.04-.74.04-1.2v-.72c-.97 1.39-1.67 2.12-2.9 3l-.11-.11c1.07-1.01 1.64-1.67 2.39-2.9h-.94c-.25 0-.6.05-.8.13l-.34-.44c.3.02.6.05.88.05h1.82V1.09c0-.3-.01-.64-.04-1.03l.85.43c.06.02.08.05.08.07s-.02.05-.08.08l-.3.17v2.11h1.38l.44-.56.71.67Zm-.78 3.58s.06.06.06.07c0 .04-.04.05-.07.05-.14 0-.35.19-.44.37-.4.78-.56 1.1-.85 1.5.64.28.97.54 1.16.77.08.1.11.23.11.35 0 .2-.1.38-.24.38-.11 0-.19-.06-.38-.3-.2-.26-.49-.53-.95-.82-.67.82-1.56 1.42-3.43 2.06l-.06-.16c1.65-.77 2.55-1.49 3.08-2.13-.47-.24-1.09-.49-1.92-.76.24-.4.47-.8.66-1.2l-.82.04c-.25 0-.41.04-.6.12l-.46-.4c.3.05.56.05.84.04l1.15-.05c.22-.43.38-.85.52-1.24l.64.38s.07.05.07.07c0 .05-.04.06-.36.14l-.34.61 1.65-.07.29-.38.68.54ZM36.73.68c1.07.54 1.35.94 1.35 1.33 0 .24-.14.42-.35.42-.1 0-.2-.13-.25-.37-.07-.4-.37-.85-.82-1.27l.06-.11Zm.91 7.25c.66.16 1.2.32 1.63.48.36-.52.62-1.09.85-1.72l-1.86.07-.62 1.16Zm7.91-4.94c-.28 2.12-.9 4.22-1.39 5.05.7 1.06 1.52 1.67 2.87 2.24l-.05.12c-.13-.01-.24-.01-.34-.01-.32 0-.52.06-.72.28-.02.02-.06.05-.08.05-.07 0-1.29-1.07-2.03-2.22-1.2 1.39-2.23 2.17-4.08 2.85l-.05-.17c1.56-.73 3.01-1.91 3.87-3.13-.49-1.01-.89-2.57-1.02-4.08-.38.83-.77 1.56-1.19 2.21l-.12-.1c.95-2.04 1.75-4.39 2.12-6.08l.82.47c.06.04.08.06.08.08s-.04.04-.13.06c-.23.05-.28.12-.38.42-.23.61-.46 1.16-.66 1.69h2.71l.44-.55.68.66s.07.08.07.11-.04.05-.14.05h-1.3Zm-4.09-1.92c.06.04.1.06.1.08s-.04.04-.11.05c-.36.04-.47.07-1.6 1.36l-.14-.1c.41-.6.74-1.16 1.04-1.79zm1.51 1.92c-.08.2-.17.4-.25.59.34 2.03.7 3.12 1.15 3.97.42-.82.84-2.53 1.03-4.56z" class="cls-1"/></svg>