<svg viewBox="0 0 47.25 11.42" xmlns="http://www.w3.org/2000/svg"><defs><style>.cls-1 {
        isolation: isolate;
      }</style></defs><g id="a"><g><path id="b" d="m0 6.32c0-.05.02-.13.04-.22s.07-.26.16-.52c.09-.25.18-.47.27-.64s.24-.34.45-.5.42-.24.62-.23c.33 0 .6.08.81.24s.35.32.41.46.08.24.08.29c0 .02 0 .03.01.03l.15-.15c.55-.58 1.18-.87 1.89-.87.49 0 .88.12 1.18.37s.45.6.46 1.07-.16 1.18-.52 2.13-.52 1.52-.52 1.72c0 .24.08.35.23.35.05 0 .1 0 .12-.01.26-.05.5-.22.71-.52s.37-.66.48-1.09c.02-.07.11-.11.27-.11.18 0 .27.04.27.11l-.05.2c-.07.26-.17.52-.3.77s-.33.51-.62.76-.6.38-.94.37c-.43 0-.73-.12-.92-.37s-.29-.5-.29-.76c0-.17.16-.71.49-1.63.33-.91.49-1.6.5-2.06 0-.53-.2-.8-.6-.8h-.07c-.78 0-1.43.46-1.97 1.37l-.1.16-.45 1.82c-.3 1.19-.47 1.82-.52 1.91-.12.24-.31.37-.58.37-.12 0-.21-.03-.29-.08s-.12-.11-.15-.16-.04-.1-.03-.14c0-.12.17-.86.52-2.21.34-1.36.52-2.09.54-2.21 0-.05.01-.15.01-.31 0-.35-.11-.53-.33-.53-.34 0-.63.45-.86 1.36-.05.18-.08.28-.08.29-.02.05-.1.08-.26.08h-.14c-.05-.05-.08-.1-.08-.12z"/><g><g class="cls-1"><path d="m16.28 1.71-2.17 5.05c-.14.34-.2.68-.2 1.03 0 .31.05.62.12.9.06.25.1.48.1.67 0 .44-.16.7-.38.7s-.4-.16-.4-.62c0-.19.02-.44.1-.76.08-.38.13-.68.13-.92 0-.46-.1-.74-1.5-.94l.04-.17c.4.08.7.13.92.13.43 0 .62-.17.8-.53l2.3-4.62.14.07zm-3.27-.68c.84.54 1.42 1.12 1.54 1.4.04.1.06.2.06.3 0 .29-.13.55-.29.55-.18 0-.29-.08-.34-.43-.06-.4-.4-1.1-1.04-1.69l.07-.13zm6.57 3.06s.07.05.07.06c0 .04-.28.19-.32.22.59 3.75 1.51 4.91 3.91 5.73v.13c-.18-.02-.32-.04-.46-.04-.43 0-.72.12-.86.32-.02.04-.06.06-.08.06s-.05-.01-.07-.04c-1.81-1.63-2.31-2.66-2.61-5.88-.23 1.83-.53 2.94-1.01 3.84-.59 1.1-1.88 2.18-3.85 2.7l-.08-.14c2.95-1.34 4.15-2.41 4.35-7.41l1.02.44zm3.27-.84s.07.07.07.1c0 .04-.02.04-.2.04-.46 0-.98.3-1.88 1.46l-.18-.1.96-1.61h-4.28c-.55.95-1.15 1.86-1.73 2.53l-.14-.1c1.1-1.81 2.02-3.6 2.49-5.46l.98.47s.06.05.06.07-.02.06-.08.08c-.38.14-.41.17-.59.54-.25.52-.54 1.07-.85 1.61h4.03l.52-.46.83.82z"/></g><g class="cls-1"><path d="M34.89,2.37c.1.08.14.16.14.19,0,.05-.06.07-.18.07h-6.03c-.02.65-.06,1.06-.16,2.13h3.23l.38-.58.79.61c.06.05.1.08.1.12,0,.02-.04.05-.1.08l-.43.23c-.06,1.76-.25,3.54-.43,4.37-.16.71-.59,1.1-1.28,1.36-.05.01-.08.02-.11.02-.05,0-.07-.02-.08-.1-.07-.44-.5-.77-1.39-1l.04-.19c.71.14,1.18.23,1.5.23.49,0,.62-.19.72-.56.22-.83.42-2.3.46-4.34h-3.41c-.36,3.53-1.75,5.15-4.46,6.39l-.07-.14c1.86-1.02,3.19-2.51,3.69-4.59.2-.8.42-2.41.41-4.04h-2.84c-.25,0-.6.05-.8.13l-.34-.43c.3.02.6.05.88.05h8.47l.47-.79.85.78ZM28.35,0c1.28.46,1.86.91,1.86,1.5,0,.37-.22.62-.42.62-.14,0-.28-.05-.32-.37-.06-.38-.31-.95-1.19-1.63l.07-.12Z"/></g><g class="cls-1"><path d="m40.57 2.95c.08.08.13.14.13.18s-.06.05-.17.05h-1.82v1.54c1.07.36 1.65.72 1.65 1.2 0 .26-.16.47-.29.47-.12 0-.22-.05-.32-.3-.19-.42-.48-.8-1.04-1.15v3.43c0 1.03 0 1.77.02 2.3v.1c0 .16-.04.2-.29.3-.11.05-.19.07-.24.07-.07 0-.1-.06-.1-.2v-.17c.04-.68.06-1.75.06-2.42v-3.93c-.56 1.56-1.24 2.93-2.01 4.05l-.16-.08c.86-1.46 1.55-3.27 2.09-5.19h-.84c-.25 0-.6.05-.8.13l-.34-.44c.3.02.6.05.88.05h1.19v-1.16c0-.48-.02-1.28-.05-1.72l.85.4c.07.04.12.06.12.1 0 .05-.31.28-.38.32v2.06h.8l.46-.58.6.61zm6.68 7.22c-.67-.04-.95.08-1.15.37-.02.04-.05.06-.07.06s-.05-.01-.07-.04c-1.83-1.31-2.87-2.83-3.44-4.94h-1.03v4.51l2.17-.9.07.17c-2.11 1.19-2.45 1.46-2.66 1.76-.02.04-.05.06-.07.06s-.05-.02-.08-.07l-.48-.62c.36-.23.5-.42.5-.82v-7.08c0-.79-.02-1.69-.04-2.04l.74.59h3.25l.35-.5.73.59c.06.05.08.08.08.12s-.02.06-.08.1l-.32.19v2.29c0 .26.06 1.44.06 1.64 0 .18-.05.22-.31.35-.1.04-.16.06-.2.06-.11 0-.11-.04-.11-.38h-2.35c.32.96.73 1.69 1.19 2.3.86-.7 1.56-1.42 2-1.98l.66.53s.07.07.07.1-.02.02-.08.04c-.29.04-.66.2-1.31.66l-1.19.84c.85 1.03 1.87 1.6 3.18 1.92v.14zm-2.17-6.9v-1.83h-3.6v1.83h3.6zm0 2.09v-1.82h-3.6v1.82h3.6z"/></g></g></g></g></svg>
