<svg xmlns="http://www.w3.org/2000/svg" viewBox="0 0 23.16 11.41"><defs><style>.cls-1{isolation:isolate}</style></defs><path d="M6.06 3.08c.06.05.08.08.08.11 0 .04-.05.05-.16.05H3.52v.41c.43.12 1.95.54 1.95 1.24 0 .19-.1.36-.24.36-.13 0-.19-.02-.34-.24-.25-.36-.73-.83-1.38-1.17v1.21c0 .12-.04.17-.23.24-.11.04-.18.06-.23.06-.07 0-.1-.05-.1-.12v-.05c.02-.34.04-.74.04-1.2v-.72c-.97 1.39-1.67 2.12-2.9 3l-.11-.11c1.07-1.01 1.64-1.67 2.39-2.9h-.94c-.25 0-.6.05-.8.13l-.34-.44c.3.02.6.05.88.05h1.82V1.16c0-.3-.01-.64-.04-1.03l.85.43c.06.02.08.05.08.07s-.02.05-.08.08l-.3.17v2.11h1.38l.44-.56.71.67Zm-.78 3.58s.06.06.06.07c0 .04-.04.05-.07.05-.14 0-.35.19-.44.37-.4.78-.56 1.1-.85 1.5.64.28.97.54 1.16.77.08.1.11.23.11.35 0 .2-.1.38-.24.38-.11 0-.19-.06-.38-.3-.2-.26-.49-.53-.95-.82-.67.82-1.56 1.42-3.43 2.06l-.06-.16c1.65-.77 2.55-1.49 3.08-2.13-.47-.24-1.09-.49-1.92-.75.24-.4.47-.8.66-1.2l-.82.04c-.25 0-.41.04-.6.12l-.46-.4c.3.05.56.05.84.04l1.15-.05c.22-.43.38-.85.52-1.24l.64.38s.07.05.07.07c0 .05-.04.06-.36.14l-.34.61 1.65-.07.29-.38.68.54ZM.97.74c1.07.54 1.35.94 1.35 1.33 0 .24-.14.42-.35.42-.1 0-.2-.13-.25-.37-.07-.4-.37-.85-.82-1.27L.96.74Zm.91 7.25c.66.16 1.2.32 1.63.48.36-.52.62-1.09.85-1.72l-1.86.07-.62 1.16ZM9.8 3.05c-.28 2.12-.9 4.22-1.39 5.05.7 1.06 1.52 1.67 2.87 2.24l-.05.12c-.13-.01-.24-.01-.34-.01-.32 0-.52.06-.72.28-.02.02-.06.05-.08.05-.07 0-1.29-1.07-2.03-2.22-1.2 1.39-2.23 2.17-4.08 2.85l-.05-.17c1.56-.73 3.01-1.91 3.87-3.13-.49-1.01-.89-2.57-1.02-4.08-.38.83-.77 1.56-1.19 2.21l-.12-.1C6.43 4.1 7.23 1.75 7.6.06l.82.47c.06.04.08.06.08.08s-.04.04-.13.06c-.23.05-.28.12-.38.42-.23.61-.46 1.16-.66 1.69h2.71l.44-.55.68.66s.07.08.07.11-.04.05-.14.05h-1.3ZM5.71 1.13c.06.04.1.06.1.08s-.04.04-.11.05c-.36.04-.47.07-1.6 1.36l-.14-.1c.41-.6.74-1.16 1.04-1.79zm1.51 1.92c-.08.2-.17.4-.25.59.34 2.03.7 3.12 1.15 3.97.42-.82.84-2.53 1.03-4.56zM22.97 6.68c.12.13.19.22.19.25 0 .06-.08.07-.24.07h-4.88v3.01c0 .89-.04 1-1.01 1.36-.02.01-.04.01-.06.01-.04 0-.07-.02-.08-.08-.08-.35-.24-.48-1.51-.9v-.18c.85.16 1.35.24 1.66.24.43 0 .46-.18.46-.59V7h-4.22c-.25 0-.6.05-.8.13l-.34-.46c.3.02.6.05.88.05h4.49c0-.7-.01-1.02-.02-1.26l.58.28 1.92-1.6h-4.88c-.25 0-.6.05-.8.13l-.34-.44c.3.02.6.05.88.05H20l.46-.43.67.74c.06.06.08.1.08.13s-.02.04-.2.04c-.31 0-.86.26-2.71 1.48.07.02.1.06.1.08 0 .05-.02.07-.31.23v.58h3.72l.53-.76.68.71ZM22.94 2c.07.06.11.11.11.13 0 .05-.1.05-.17.05-.32 0-.76.23-1.7 1.13l-.14-.07.73-1.14h-7.65c-.11.89-.46 1.42-1.06 1.42-.22 0-.37-.12-.37-.25s.16-.37.38-.5c.36-.22.7-.53.9-1.51h.19c0 .22-.01.41-.02.59h7.57l.46-.5.78.67Zm-6.25-2c1.02.37 1.5.79 1.57 1.01.04.1.05.19.05.26 0 .31-.19.52-.38.52-.1 0-.23-.13-.29-.31-.17-.52-.36-.82-1.02-1.37z" class="cls-1"/></svg>