<svg xmlns="http://www.w3.org/2000/svg" viewBox="0 0 35.11 11.23"><defs><style>.cls-1{isolation:isolate}</style></defs><path d="M10.73 2.62c.1.1.14.16.14.2s-.06.06-.19.06h-6c-.36.94-.79 1.86-1.32 2.7l.42.32h4.44l.36-.61.77.52c.1.06.14.11.14.14s-.04.07-.11.12l-.32.26v2.33c0 .61.01 1.21.05 1.75v.06c0 .14-.05.18-.3.31-.13.06-.22.1-.25.1-.06 0-.07-.05-.07-.14v-.77h-4.7v.77c0 .13-.02.18-.29.31-.12.06-.19.1-.24.1-.07 0-.1-.06-.1-.19 0-.05.01-.1.01-.17.02-.49.04-.89.04-1.42V5.83C2.29 7.22 1.41 8.12.1 9.15l-.11-.12c1.67-1.69 3.12-3.49 4.07-6.15H1.35c-.25 0-.6.05-.8.13l-.34-.44c.3.02.6.05.88.05h3.07c.31-.94.52-1.7.68-2.62l.82.47c.13.07.19.12.19.16s-.06.06-.19.1c-.26.07-.31.16-.4.44-.14.48-.3.97-.48 1.45h4.7l.52-.76zM8.49 9.7V6.16h-4.7V9.7zM16.66 2.83c.07.08.11.13.11.17 0 .05-.05.06-.16.06h-2v2.48l1.82-.73.06.17-1.88.93v3.91c0 .92-.04 1.07-.83 1.38-.04.01-.06.02-.07.02-.05 0-.07-.04-.08-.1-.07-.4-.2-.59-1.18-.88l.05-.17c.62.14 1 .2 1.22.2.32 0 .35-.13.35-.37V6.17c-1.03.54-1.4.83-1.54 1.01-.02.05-.06.07-.08.07-.04 0-.07-.02-.12-.08l-.5-.53 2.24-.9v-2.7h-1.06c-.25 0-.6.05-.8.13l-.34-.44c.3.02.6.05.88.05h1.32V1.8c0-.49-.02-1.31-.05-1.75l.85.44c.1.05.14.08.14.12 0 .05-.01.06-.41.31v1.86h.91l.49-.67.65.71Zm6.36 1.33c.08.07.12.12.12.16 0 .05-.05.06-.17.06h-3.42l-.07 2.27h1.55l.37-.54.73.56c.06.05.1.07.1.11s-.04.06-.1.1l-.31.17v2.33c0 .41.01.76.05 1.29v.08c0 .17-.05.22-.31.32-.11.05-.18.06-.22.06-.07 0-.08-.05-.08-.14v-.85h-4.07v.67c0 .17-.02.22-.23.3-.11.05-.19.07-.25.07-.08 0-.11-.07-.11-.28 0-.25.04-1.51.04-1.61V7.3c0-.29-.01-.86-.04-1.24l.74.58h1.54l.1-2.27h-1.97c-.25 0-.6.05-.8.13l-.34-.44c.3.02.6.05.88.05h2.24l.11-2.51c-.95.14-1.9.28-2.55.35l-.05-.16c2.17-.47 3.78-.91 4.87-1.31l.59.53q.12.12.12.18c0 .03-.02.05-.07.05-.06 0-.34-.06-.4-.06-.13 0-.28.02-.41.05-.43.08-.97.18-1.55.28l-.08 2.6h2.19l.53-.67zm-1.76 5.71V6.91h-4.07v2.96zM34.99 5.01c.08.08.12.13.12.17 0 .05-.05.06-.16.06h-6.7l-.85 1.71h4.32l.41-.54.84.65s.06.05.06.06c0 .02-.02.05-.06.07l-.49.29c-.25 1.02-.61 2.05-.86 2.53-.26.52-.7.84-1.62 1.16-.04.01-.06.01-.08.01-.05 0-.06-.02-.07-.11-.05-.46-.18-.61-1.51-1.14l.04-.18c.97.34 1.54.5 1.91.5.4 0 .58-.19.8-.56.35-.58.6-1.39.83-2.53h-4.46l-.3.3s-.04.02-.05.02c-.04 0-.06-.01-.11-.06l-.56-.52c.41-.16.52-.22.62-.44l.6-1.23h-2.69c-.25 0-.6.05-.8.13l-.34-.44c.3.02.6.05.88.05h9.06l.52-.7.73.73ZM32.79.77c.06.05.1.07.1.11s-.04.07-.1.12l-.37.26v1.25c0 .41 0 .75.04 1.29v.1c0 .16-.04.2-.29.31-.11.05-.18.07-.23.07-.07 0-.08-.06-.08-.16V3.6H27v.3c0 .17-.02.22-.23.3-.12.05-.19.08-.25.08-.08 0-.11-.07-.11-.24v-.16c.04-.68.04-.82.04-1.24V1.36c0-.29-.01-.86-.04-1.24l.78.61h4.51l.31-.52.78.53Zm-.94 2.58V1.02h-4.86v2.33z" class="cls-1"/></svg>