<svg xmlns="http://www.w3.org/2000/svg" viewBox="0 0 34.19 11.31"><defs><style>.cls-1{isolation:isolate}</style></defs><path d="M9.41.73c.08.06.13.1.13.14s-.04.06-.1.11l-.37.25v7.24c0 .91.02 1.66.06 2.19v.07c0 .14-.05.19-.31.34-.12.07-.2.11-.25.11-.06 0-.07-.06-.07-.19v-.8H.61v.62c0 .14-.04.19-.26.3-.12.05-.19.08-.25.08-.07 0-.1-.06-.1-.2 0-.05.01-.12.01-.19.02-.4.04-1.33.04-2.01V1.95C.05 1.26.04.55.01.18l.77.6h7.47l.41-.56.76.52Zm-.91 9.2V1.04H.61v8.89zM5.08 5.98c.07.04.1.06.1.1 0 .02-.02.05-.08.07l-.28.14c-.47 2.05-1.1 2.61-3.51 3.5l-.04-.17c.95-.38 2-1.1 2.45-1.79.32-.5.54-1.29.61-2.28l.76.42Zm2.25-1.21c.06.05.1.08.1.12s-.04.07-.1.11l-.3.18v1.04c0 .49.01.67.04.91v.06c0 .11-.04.14-.22.23-.12.06-.2.1-.25.1-.07 0-.08-.06-.08-.19s.01-.77.01-.91V5H2.6v1.57c0 .13.01.74.01.89 0 .13-.04.17-.22.25-.11.05-.18.08-.24.08-.07 0-.1-.06-.1-.2s.04-.91.04-1.08v-.97c0-.44-.01-.88-.04-1.28l.66.49h3.67l.3-.47zM6.92 2c.06.04.08.07.08.1 0 .04-.01.06-.06.08l-.31.22v.61c0 .28 0 .5.02.7 0 .02.01.06.01.07 0 .19-.44.36-.47.36q-.07 0-.07-.48H3.05c0 .3-.02.31-.28.43-.08.05-.14.06-.19.06s-.06-.04-.06-.12c0-.1.02-.54.02-.64v-1.2c0-.26-.01-.44-.04-.68l.66.5h2.76l.3-.46.68.44Zm-.79 1.42V2.26H3.06v1.16zM5.1 7.62c1.77.47 2.47.85 2.47 1.39 0 .24-.11.47-.25.47-.08 0-.13-.02-.29-.22-.52-.65-.98-1.02-1.99-1.51zM21.39.97c.06.05.08.07.08.11 0 .02-.02.06-.08.1l-.37.26v8.38c0 .67-.08 1.02-.82 1.31-.05.01-.08.02-.11.02-.05 0-.07-.04-.08-.11-.08-.49-.29-.68-1.62-1.04l.04-.19c.84.17 1.33.25 1.63.25.35 0 .41-.12.41-.31v-8.5h-7.16v3.32c0 3.67-.24 5.37-2.05 6.69l-.11-.11c1.45-1.48 1.57-2.96 1.57-6.55V2c0-.52-.01-1.25-.04-1.63l.76.61h6.78l.38-.59zM19.9 4.82c.08.08.12.13.12.17s-.05.05-.17.05h-5.33c-.23 0-.55.05-.73.12l-.3-.43c.26.02.54.05.79.05h2.24V3.26h-1.45c-.23 0-.55.05-.73.12l-.3-.43c.26.02.54.05.79.05h1.69v-.48c0-.47-.01-.76-.04-1.18l.76.32c.08.04.13.07.13.1 0 .04-.04.06-.32.3V3h1.2l.38-.55.62.6c.08.08.13.13.13.17s-.06.05-.18.05h-2.16v1.52h1.77l.41-.61.66.66Zm-1.03 1.45c.06.05.1.07.1.11s-.04.07-.1.12l-.3.23v1.01c0 .41.01.76.05 1.3v.08c0 .19-.05.23-.26.32-.12.05-.19.07-.24.07-.07 0-.08-.06-.08-.16v-.66h-2.7v.5c0 .18-.01.22-.22.3-.11.05-.18.07-.23.07-.08 0-.11-.07-.11-.26 0-.26.04-1.52.04-1.62v-.71c0-.29-.01-.86-.04-1.24l.66.5h2.42l.3-.44.71.47Zm-.84 2.16V6.51h-2.7v1.92zM34.12 8s.07.08.07.11-.04.04-.11.04h-5.22v2.09c0 .11.02.62.02.74 0 .19-.52.34-.54.34-.07 0-.1-.04-.1-.12 0-.14.05-.82.05-.97V8.16H24.1c-.25 0-.6.05-.8.13l-.34-.44c.3.02.6.05.88.05h4.45v-.47c0-.3-.01-.64-.04-1.03l.9.4c.06.02.08.05.08.07 0 .04-.02.06-.07.1l-.31.28v.66h3.86l.55-.76.84.88ZM26.5 4.98c-1.85 1.22-2 1.37-2.19 1.68-.04.06-.07.08-.11.08-.02 0-.05-.01-.07-.04l-.56-.47 2.81-1.42.13.16Zm7.18-3.29c.05.06.07.1.07.12 0 .04-.05.05-.13.05h-5.18l.54.28c.06.02.08.05.08.07s-.04.04-.13.05c-.23.02-.97.54-2.02 1.55l2.14-.08c.49-.6.65-.79.79-1.02l.68.44c.06.04.1.07.1.1 0 .04-.06.07-.17.1-.25.07-.43.18-.65.37-.96.88-1.72 1.5-2.6 2.21l2.95-.19c-.19-.32-.44-.61-.73-.84l.07-.14c.83.37 1.56.82 1.56 1.35 0 .26-.2.61-.37.61-.1 0-.22-.14-.24-.26-.05-.19-.11-.37-.19-.54l-2.1.3c-.62.08-1.01.19-1.13.3-.04.02-.06.04-.08.04s-.06-.02-.1-.07l-.41-.59c.6-.13 1.38-.72 2.41-1.92l-1.25.14c-.3.04-.55.1-.73.19-.04.02-.06.02-.1.02-.05 0-.08-.01-.12-.06l-.42-.52c.49-.14 1.12-.64 1.91-1.88h-3.41c-.25 0-.6.05-.8.13l-.34-.44c.3.02.6.05.88.05h7.86l.55-.78.8.88Zm-9.36 1.18c.68.25 1.49.71 1.49 1.19 0 .29-.24.56-.42.56-.12 0-.18-.08-.2-.28-.06-.43-.36-.94-.92-1.35l.06-.12ZM27.76 0c.84.28 1.51.54 1.51 1.12 0 .26-.22.47-.46.47-.11 0-.18-.11-.2-.19-.2-.54-.5-.95-.94-1.27l.08-.12Zm5.3 2.76c.06.04.08.06.08.08s-.05.04-.14.05c-.3.02-.46.08-2.11 1.36l-.14-.13c.56-.58 1.12-1.2 1.57-1.79zm-1.81 1.81c1.09.38 1.8.73 1.8 1.37 0 .31-.19.52-.34.52-.1 0-.17-.07-.26-.35-.16-.44-.54-.94-1.26-1.42z" class="cls-1"/></svg>