<svg viewBox="0 0 47.15 11.35" xmlns="http://www.w3.org/2000/svg"><defs><style>.cls-1 {
        isolation: isolate;
      }</style></defs><g id="a"><g><g class="cls-1"><path d="M3.71,3.85c.12.07.18.12.18.16,0,.02-.06.05-.19.08-.14.04-.3.18-.41.32-.19.25-.37.5-.55.73v3.66c0,.74.01,1.37.04,1.91v.08c0,.13-.04.19-.26.31-.13.07-.23.12-.28.12-.07,0-.1-.06-.1-.19,0-.06,0-.14.01-.24.06-.61.11-1.44.11-2.01v-3.01c-.84,1.07-1.55,1.88-2.12,2.48l-.13-.13c.73-.9,2.45-3.33,3.03-4.67l.67.4ZM5.79,1.82c.08.08.12.13.12.17s-.07.05-.22.05h-2.1c.68.52.89.85.89,1.15,0,.23-.19.47-.37.47-.11,0-.22-.11-.24-.34-.02-.24-.25-.89-.56-1.28h-1.12C1.47,3.08.85,3.91.17,4.65l-.16-.1C.89,3.32,2.06,1.28,2.57.02l.76.4c.11.06.17.11.17.14s-.06.06-.18.08c-.11.02-.3.17-.4.32-.18.29-.36.55-.54.8h2.32l.46-.62.65.67ZM10.93,5.48c.06.06.1.11.1.14s-.05.06-.16.06h-2.44v4.08c0,.77-.05,1.02-.92,1.4-.05.02-.07.04-.11.04s-.06-.05-.08-.13c-.11-.42-.35-.58-1.59-.91l.04-.17c.9.17,1.43.25,1.73.25.35,0,.4-.12.4-.36v-4.2h-2.99c-.25,0-.6.05-.8.13l-.34-.44c.3.02.6.05.88.05h3.25c0-.52-.02-1.44-.05-1.85l.9.41s.07.05.07.07-.02.05-.07.08l-.3.2v1.08h1.3l.44-.72.76.78ZM4.5,6.43c1.18.56,1.66,1.03,1.71,1.38.01.07.01.14.01.2,0,.34-.14.61-.36.61-.16,0-.29-.29-.32-.47-.07-.41-.48-1.06-1.13-1.61l.08-.12ZM10.49,1.8c.08.08.13.14.13.19s-.06.06-.19.06h-2.29c.67.46.89.79.89,1.1,0,.26-.18.49-.37.49-.11,0-.18-.08-.2-.28-.05-.35-.24-.86-.62-1.32h-1.12c-.61.92-1.31,1.87-1.71,2.31l-.17-.11C5.77,2.88,6.74.96,7.05.01l.76.4c.07.04.11.07.11.1,0,.04-.05.06-.13.1-.12.04-.29.22-.38.37-.16.25-.32.53-.52.82h2.55l.44-.62.61.64Z"/></g><g class="cls-1"><path d="M23.03,5.01c.08.08.12.13.12.17,0,.05-.05.06-.16.06h-6.7l-.85,1.71h4.32l.41-.54.84.65s.06.05.06.06c0,.02-.02.05-.06.07l-.49.29c-.25,1.02-.61,2.05-.86,2.53-.26.52-.7.84-1.62,1.16-.04.01-.06.01-.08.01-.05,0-.06-.02-.07-.11-.05-.46-.18-.61-1.51-1.14l.04-.18c.97.34,1.54.5,1.91.5.4,0,.58-.19.8-.56.35-.58.6-1.39.83-2.53h-4.46l-.3.3s-.04.02-.05.02c-.04,0-.06-.01-.11-.06l-.56-.52c.41-.16.52-.22.62-.44l.6-1.24h-2.69c-.25,0-.6.05-.8.13l-.34-.44c.3.02.6.05.88.05h9.06l.52-.7.73.73ZM20.83.77c.06.05.1.07.1.11s-.04.07-.1.12l-.37.26v1.25c0,.41,0,.76.04,1.3v.1c0,.16-.04.2-.29.31-.11.05-.18.07-.23.07-.07,0-.08-.06-.08-.16v-.52h-4.86v.3c0,.17-.02.22-.23.3-.12.05-.19.08-.25.08-.08,0-.11-.07-.11-.24v-.16c.04-.68.04-.82.04-1.24v-1.28c0-.29-.01-.86-.04-1.24l.78.61h4.51l.31-.52.78.53ZM19.89,3.35V1.02h-4.86v2.33h4.86Z"/></g><g class="cls-1"><path d="M34.26,3.73c.12.05.18.08.18.13,0,.04-.06.1-.17.17l-.32.22v4.07c0,.91.01,1.56.05,2.1v.07c0,.18-.05.23-.31.34-.12.06-.2.08-.25.08-.06,0-.07-.06-.07-.17v-.8h-7.6l-.32.36s-.07.07-.11.07c-.02,0-.06-.01-.1-.05l-.7-.64.55-.46v-4.25c0-.49-.02-1.31-.05-1.75l.89.44c.1.05.14.08.14.12s-.05.08-.13.14l-.31.24v5.49h7.74v-4.59c0-.49-.02-1.31-.05-1.75l.95.41ZM33.96,1.1c.07.06.1.11.1.14,0,.06-.07.06-.23.06-.48,0-1.39.38-3.81,1.82l-.1.16v1.82c.82-.59,1.56-1.21,2.25-1.86l.54.47c.07.06.1.1.1.13s-.05.05-.13.06c-.19.01-.38.1-.56.19l-2.2,1.22v.06c1.34.64,1.81.95,2.17,1.31.23.23.31.47.31.67,0,.25-.13.44-.26.44s-.2-.07-.37-.35c-.31-.52-.93-1.2-1.85-1.86v2.35c0,.56-.25.9-.95,1.21-.04.01-.06.02-.07.02-.05,0-.06-.04-.07-.1-.06-.34-.29-.48-1.27-.72l.02-.18c.61.1,1.02.14,1.28.14.44,0,.49-.13.49-.41v-2.43l-1.75,1.25c-.47.34-.67.55-.78.74-.04.06-.06.1-.1.1-.01,0-.04-.01-.06-.04l-.54-.41,3.23-1.9v-1.57c0-.55-.01-1.04-.02-1.29l.79.43,2.41-1.68h-6.07c-.25,0-.6.05-.8.13l-.34-.44c.3.02.6.05.88.05h6.38l.58-.43.8.67ZM26.8,3c.79.46,1.25.9,1.36,1.13.06.13.08.26.08.38,0,.31-.19.55-.4.55-.16,0-.22-.08-.29-.47-.07-.42-.22-.79-.88-1.48l.12-.12Z"/></g><g class="cls-1"><path d="m41.93 3.02c.06.05.08.08.08.11 0 .04-.05.05-.16.05h-2.46v.41c.43.12 1.96.54 1.96 1.24 0 .19-.1.36-.24.36-.13 0-.19-.02-.34-.24-.25-.36-.73-.83-1.38-1.18v1.21c0 .12-.04.17-.23.24-.11.04-.18.06-.23.06-.07 0-.1-.05-.1-.12v-.05c.02-.34.04-.74.04-1.2v-.72c-.97 1.39-1.67 2.12-2.9 3l-.11-.11c1.07-1.01 1.64-1.67 2.39-2.9h-.94c-.25 0-.6.05-.8.13l-.34-.44c.3.02.6.05.88.05h1.82v-1.83c0-.3-.01-.64-.04-1.03l.85.43c.06.02.08.05.08.07s-.02.05-.08.08l-.3.17v2.11h1.38l.44-.56.71.67zm-.78 3.58s.06.06.06.07c0 .04-.04.05-.07.05-.14 0-.35.19-.44.37-.4.78-.56 1.1-.85 1.5.64.28.97.54 1.16.77.08.1.11.23.11.35 0 .2-.1.38-.24.38-.11 0-.19-.06-.38-.3-.2-.26-.49-.53-.95-.82-.67.82-1.56 1.42-3.43 2.06l-.06-.16c1.65-.77 2.55-1.49 3.08-2.13-.47-.24-1.09-.49-1.92-.76.24-.4.47-.8.66-1.2l-.82.04c-.25 0-.41.04-.6.12l-.46-.4c.3.05.56.05.84.04l1.15-.05c.22-.43.38-.85.52-1.24l.64.38s.07.05.07.07c0 .05-.04.06-.36.14l-.33.61 1.65-.07.29-.38.68.54zm-4.3-5.92c1.07.54 1.36.94 1.36 1.33 0 .24-.14.42-.35.42-.1 0-.2-.13-.25-.37-.07-.4-.37-.85-.82-1.27l.06-.11zm.91 7.25c.66.16 1.2.32 1.63.48.36-.52.62-1.09.85-1.72l-1.86.07-.62 1.16zm7.91-4.94c-.28 2.12-.9 4.22-1.39 5.05.7 1.06 1.52 1.67 2.87 2.24l-.05.12c-.13-.01-.24-.01-.34-.01-.32 0-.52.06-.72.28-.02.02-.06.05-.08.05-.07 0-1.29-1.07-2.03-2.22-1.2 1.39-2.23 2.17-4.08 2.85l-.05-.17c1.56-.73 3.01-1.91 3.87-3.13-.49-1.01-.89-2.57-1.02-4.08-.38.83-.77 1.56-1.19 2.21l-.12-.1c.95-2.04 1.75-4.39 2.12-6.08l.82.47c.06.04.08.06.08.08s-.04.04-.13.06c-.23.05-.28.12-.38.42-.23.61-.46 1.16-.66 1.69h2.71l.44-.55.68.66s.07.08.07.11-.04.05-.14.05h-1.3zm-4.09-1.92c.06.04.1.06.1.08s-.04.04-.11.05c-.36.04-.47.07-1.59 1.36l-.14-.1c.41-.6.74-1.16 1.04-1.79l.71.4zm1.51 1.92c-.08.2-.17.4-.25.59.34 2.03.7 3.12 1.15 3.97.42-.82.84-2.53 1.03-4.56h-1.93z"/></g></g></g></svg>
