<svg viewBox="0 0 71.31 11.35" xmlns="http://www.w3.org/2000/svg"><defs><style>.cls-1 {
        isolation: isolate;
      }</style></defs><g id="a"><g><g class="cls-1"><path d="m5.16 1.37c.07.07.11.11.11.16 0 .04-.05.06-.13.11l-.4.19c-.25 1.24-.61 2.54-1.1 3.72.42.6 1.26 1.94 1.26 2.67 0 .38-.17.64-.32.64-.28 0-.36-.11-.43-.61s-.32-1.22-.77-2.09c-.72 1.43-2.06 3.01-3.26 3.98l-.11-.14c1.38-1.39 2.46-3.02 3.06-4.4-.48-.83-1.12-1.75-1.94-2.73l.12-.13c.83.79 1.5 1.58 2.04 2.31.52-1.38.8-2.84.88-3.57h-2.66c-.25 0-.6.05-.8.13l-.34-.44c.3.02.6.05.88.05h2.81l.43-.49.67.66zm4.78.46c-.47 2.1-1.16 4.43-2.01 5.6.85 1.22 2.16 2.11 3.42 2.46l-.04.17c-.2-.02-.38-.05-.53-.05-.36 0-.59.08-.76.28-.05.06-.08.08-.12.08-.05 0-1.45-1.06-2.36-2.48-1.26 1.44-2.85 2.34-4.95 3.01l-.1-.19c1.92-.76 3.74-1.91 4.77-3.29-.79-1.49-1.12-3.61-1.18-5.94-.16.01-.3.04-.44.1l-.34-.42c.3.02.6.05.88.05h2.99l.42-.56.74.71c.08.07.12.12.12.16 0 .05-.04.07-.11.11l-.41.21zm-3.6-.36c.17 2.28.52 4.09 1.27 5.45.81-1.37 1.32-3.33 1.67-5.45h-2.94z"/></g><g class="cls-1"><path d="m22.28 2.72s.07.07.07.1c0 .04-.02.07-.07.11l-.38.25v5.12c0 .91.04 1.66.07 2.2v.1c0 .17-.04.22-.29.31-.12.05-.2.07-.26.07-.08 0-.1-.06-.1-.16v-.77h-7.3v.68c0 .14-.01.18-.25.28-.12.05-.19.07-.25.07-.08 0-.1-.06-.1-.23v-.12c.02-.65.04-1.62.04-2.23v-5.26c0-.58-.01-.78-.04-1.12l.73.55h1.89c0-1.94 0-2.22-.02-2.61l.88.44c.08.04.12.07.12.1 0 .04-.04.07-.11.12l-.3.22v1.74h2.05c0-1.45-.01-2.22-.04-2.61l.89.42c.07.04.12.07.12.11 0 .02-.04.06-.11.11l-.32.2v1.78h1.93l.34-.5.82.55zm-6.24 3.3v-3.08h-2.03v3.08h2.03zm0 3.77v-3.5h-2.03v3.5h2.03zm2.61-3.77v-3.08h-2.05v3.08h2.05zm0 3.77v-3.5h-2.05v3.5h2.05zm2.67-3.77v-3.08h-2.12v3.08h2.12zm0 3.77v-3.5h-2.12v3.5h2.12z"/></g><g class="cls-1"><path d="M34.91,10.04c.07.07.11.13.11.18s-.06.08-.17.08h-9.4c-.25,0-.61.05-.8.12l-.33-.43c.29.02.6.05.88.05h1.44v-4.44c0-.49-.02-1.19-.05-1.63l.94.52c.1.05.14.1.14.13s-.04.08-.12.13l-.34.22v5.07h2.55V1.61h-3.48c-.25,0-.61.05-.8.12l-.34-.43c.29.02.6.05.88.05h7.27l.5-.67.7.67c.07.06.1.12.1.17,0,.06-.05.1-.16.1h-4.08v3.73h2.29l.53-.68.7.68c.08.07.12.13.12.18s-.06.08-.17.08h-3.47v4.44h3.31l.56-.68.7.68Z"/></g><g class="cls-1"><path d="m41.55 6.97c-2.29 1.76-2.62 2.16-2.91 2.76-.02.05-.05.07-.07.07s-.05-.02-.08-.05l-.68-.59c.41-.28.52-.49.52-1v-3.72l-.91.13c-.38.06-.56.14-.76.26l-.42-.37c.29-.02.56-.05.86-.1l1.22-.18v-2.48c0-.44-.01-1.18-.04-1.58l.9.46c.08.04.12.06.12.1s-.04.07-.11.13l-.35.25v3.06l1.46-.22.42-.68.65.48c.12.08.18.14.18.19 0 .04-.06.07-.16.08l-2.55.4v4.16l2.62-1.69.1.13zm5.3-5.2c.07.06.11.11.11.14 0 .04-.04.07-.11.12l-.46.28c-.06 3.78-.18 6.7-.24 6.94-.14.64-.46.96-1.29 1.33-.06.02-.1.04-.13.04-.05 0-.07-.05-.11-.17-.11-.41-.38-.65-1.4-.91l.05-.21c.67.17 1.15.24 1.49.24.61 0 .75-.25.82-.65.13-.94.28-4.95.28-6.99h-2.4c-.16 3.84-.3 4.94-.7 5.91-.52 1.26-1.57 2.41-3.62 3.33l-.12-.16c2.42-1.45 3.21-2.78 3.45-4.14.22-1.2.32-2.94.34-4.95h-1.13c-.3 0-.6.05-.8.13l-.34-.44c.3.02.6.05.88.05h4.19l.48-.55.78.65z"/></g><g class="cls-1"><path d="m58.43 3.73c.12.05.18.08.18.13 0 .04-.06.1-.17.17l-.32.22v4.07c0 .91.01 1.56.05 2.1v.07c0 .18-.05.23-.31.34-.12.06-.2.08-.25.08-.06 0-.07-.06-.07-.17v-.8h-7.6l-.32.36s-.07.07-.11.07c-.02 0-.06-.01-.1-.05l-.7-.64.55-.46v-4.25c0-.49-.02-1.31-.05-1.75l.89.44c.1.05.14.08.14.12s-.05.08-.13.14l-.31.24v5.49h7.74v-4.59c0-.49-.02-1.31-.05-1.75l.95.41zm-.3-2.63c.07.06.1.11.1.14 0 .06-.07.06-.23.06-.48 0-1.39.38-3.81 1.82l-.1.16v1.82c.82-.59 1.56-1.21 2.26-1.86l.54.47c.07.06.1.1.1.13s-.05.05-.13.06c-.19.01-.38.1-.56.19l-2.2 1.22v.06c1.34.64 1.81.95 2.17 1.31.23.23.31.47.31.67 0 .25-.13.44-.26.44s-.2-.07-.37-.35c-.31-.52-.94-1.2-1.85-1.86v2.35c0 .56-.25.9-.95 1.21-.04.01-.06.02-.07.02-.05 0-.06-.04-.07-.1-.06-.34-.29-.48-1.27-.72l.02-.18c.61.1 1.02.14 1.28.14.44 0 .49-.13.49-.41v-2.44l-1.75 1.25c-.47.34-.67.55-.78.74-.04.06-.06.1-.1.1-.01 0-.04-.01-.06-.04l-.54-.41 3.23-1.9v-1.57c0-.55-.01-1.04-.02-1.29l.79.43 2.41-1.68h-6.07c-.25 0-.6.05-.8.13l-.34-.44c.3.03.6.05.88.05h6.38l.58-.43.8.67zm-7.16 1.9c.79.46 1.25.9 1.35 1.13.06.13.08.26.08.38 0 .31-.19.55-.4.55-.16 0-.22-.08-.29-.47-.07-.42-.22-.79-.88-1.48l.12-.12z"/></g><g class="cls-1"><path d="m66.1 3.02c.06.05.08.08.08.11 0 .04-.05.05-.16.05h-2.46v.41c.43.12 1.96.54 1.96 1.23 0 .19-.1.36-.24.36-.13 0-.19-.02-.34-.24-.25-.36-.73-.83-1.38-1.18v1.21c0 .12-.04.17-.23.24-.11.04-.18.06-.23.06-.07 0-.1-.05-.1-.12v-.05c.02-.34.04-.74.04-1.2v-.72c-.97 1.39-1.67 2.12-2.9 3l-.11-.11c1.07-1.01 1.64-1.67 2.39-2.9h-.94c-.25 0-.6.05-.8.13l-.34-.44c.3.02.6.05.88.05h1.82v-1.83c0-.3-.01-.64-.04-1.03l.85.43c.06.02.08.05.08.07s-.02.05-.08.08l-.3.17v2.11h1.38l.44-.56.71.67zm-.78 3.58s.06.06.06.07c0 .04-.04.05-.07.05-.14 0-.35.19-.44.37-.4.78-.56 1.1-.85 1.5.64.28.97.54 1.16.77.08.1.11.23.11.35 0 .2-.1.38-.24.38-.11 0-.19-.06-.38-.3-.21-.26-.49-.53-.95-.82-.67.82-1.56 1.42-3.43 2.06l-.06-.16c1.65-.77 2.55-1.49 3.08-2.13-.47-.24-1.09-.49-1.92-.75.24-.4.47-.8.66-1.2l-.82.04c-.25 0-.41.04-.6.12l-.46-.4c.3.05.56.05.84.04l1.15-.05c.22-.43.38-.85.52-1.24l.64.38s.07.05.07.07c0 .05-.04.06-.36.14l-.33.61 1.65-.07.29-.38.68.54zm-4.31-5.92c1.07.54 1.36.94 1.36 1.33 0 .24-.14.42-.35.42-.1 0-.2-.13-.25-.37-.07-.4-.37-.85-.82-1.27l.06-.11zm.91 7.25c.66.16 1.2.32 1.63.48.36-.52.62-1.09.85-1.72l-1.86.07-.62 1.16zm7.92-4.94c-.28 2.12-.9 4.22-1.39 5.05.7 1.06 1.52 1.67 2.87 2.24l-.05.12c-.13-.01-.24-.01-.34-.01-.32 0-.52.06-.72.28-.02.02-.06.05-.08.05-.07 0-1.29-1.07-2.03-2.22-1.2 1.39-2.23 2.17-4.08 2.86l-.05-.17c1.56-.73 3.01-1.91 3.87-3.13-.49-1.01-.89-2.57-1.02-4.08-.38.83-.77 1.56-1.19 2.21l-.12-.1c.95-2.04 1.75-4.39 2.12-6.08l.81.47c.06.04.08.06.08.08s-.04.04-.13.06c-.23.05-.28.12-.38.42-.23.61-.46 1.16-.66 1.69h2.71l.44-.55.68.66s.07.08.07.11-.04.05-.14.05h-1.3zm-4.09-1.92c.06.04.1.06.1.08s-.04.04-.11.05c-.36.04-.47.07-1.59 1.36l-.14-.1c.41-.6.74-1.16 1.04-1.79l.71.39zm1.51 1.92c-.08.2-.17.4-.25.59.34 2.03.7 3.12 1.15 3.97.42-.81.84-2.53 1.03-4.56h-1.93z"/></g></g></g></svg>
