<svg viewBox="0 0 23.32 11.11" xmlns="http://www.w3.org/2000/svg"><defs><style>.cls-1 {
        isolation: isolate;
      }</style></defs><g id="a"><g><g class="cls-1"><path d="M5.91,5.43c1,2.05,2.85,3.83,5.45,4.37v.14c-.13-.01-.24-.01-.35-.01-.47,0-.76.1-.98.32-.04.04-.07.06-.1.06s-.05-.01-.08-.04c-2.11-1.51-3.14-2.77-3.93-4.33v2.33c0,.91.01,1.81.04,2.35v.07c0,.18-.05.23-.31.34-.11.05-.19.07-.25.07-.07,0-.1-.06-.1-.22v-.17c.04-.7.06-1.79.06-2.47v-2.13c-1.01,1.66-2.84,3.28-5.29,4.39l-.06-.16c2.25-1.24,4.34-3.2,5.35-5.17v-2.37H1.16c-.25,0-.6.05-.8.13L.02,2.5c.3.02.6.05.88.05h4.45v-1.44c-1.24.1-2.7.19-4.13.24v-.17c2.65-.26,6.08-.77,7.35-1.17l.53.61c.06.07.08.12.08.14s-.01.04-.06.04c-.04,0-.47-.05-.56-.05-.19,0-.41.02-.68.07-.42.07-1.12.16-1.97.24v1.49h3.89l.48-.66.89.78c.06.05.1.08.1.11s-.05.04-.12.04h-5.23v2.63ZM4.1,3.39c.11.05.16.07.16.11,0,.02-.05.07-.14.13l-.22.16v1.98c0,.12.02.73.02.86,0,.17-.44.31-.5.31s-.07-.06-.07-.22v-.61l-1.28.41c-.43.13-.78.34-.98.54-.02.03-.05.04-.06.04-.02,0-.05-.01-.08-.05l-.44-.52,2.85-.65v-1.22h-1.56c-.25,0-.6.05-.8.13l-.34-.44c.3.02.6.05.88.05h1.82c0-.49,0-.73-.04-1.32l.79.31ZM10.67,5.06c.01.92.06,1.04.3,1.2.05.04.07.06.07.1,0,.01,0,.04-.02.07-.34.59-.68.59-1.86.59-1.56,0-1.7-.06-1.7-.79v-1.67c0-.44-.01-1.15-.04-1.56l.84.42c.07.04.11.06.11.08s-.04.06-.11.11l-.28.17v1.26c.71-.4,1.38-.8,2.07-1.34l.55.48s.06.06.06.08c0,.04-.05.05-.16.05-.26,0-.74.17-2.53,1.01v.84c0,.37.12.37.91.37.37,0,.73,0,.88-.01.52-.04.61-.16.74-1.45h.16Z"/></g><g class="cls-1"><path d="M23.2,4.93c.08.08.12.13.12.17,0,.05-.05.06-.16.06h-6.7l-.85,1.71h4.32l.41-.54.84.65s.06.05.06.06c0,.02-.02.05-.06.07l-.49.29c-.25,1.02-.61,2.05-.86,2.53-.26.52-.7.84-1.62,1.16-.04.01-.06.01-.08.01-.05,0-.06-.02-.07-.11-.05-.46-.18-.61-1.51-1.14l.04-.18c.97.34,1.54.5,1.91.5.4,0,.58-.19.8-.56.35-.58.6-1.39.83-2.53h-4.46l-.3.3s-.04.02-.05.02c-.04,0-.06-.01-.11-.06l-.56-.52c.41-.16.52-.22.62-.44l.6-1.24h-2.69c-.25,0-.6.05-.8.13l-.34-.44c.3.03.6.05.88.05h9.06l.52-.7.73.73ZM20.99.68c.06.05.1.07.1.11s-.04.07-.1.12l-.37.26v1.25c0,.41,0,.76.04,1.29v.1c0,.16-.04.21-.29.31-.11.05-.18.07-.23.07-.07,0-.08-.06-.08-.16v-.52h-4.86v.3c0,.17-.02.22-.23.3-.12.05-.19.08-.25.08-.08,0-.11-.07-.11-.24v-.16c.04-.68.04-.81.04-1.23v-1.28c0-.29-.01-.86-.04-1.24l.78.61h4.51l.31-.52.78.53ZM20.06,3.26V.94h-4.86v2.33h4.86Z"/></g></g></g></svg>
