<svg xmlns="http://www.w3.org/2000/svg" viewBox="0 0 3.11 13.56"><path d="M.58 1.91q0-.375.24-.6c.24-.225.36-.22.6-.22.21.02.39.1.54.23s.23.33.23.58c0 .27-.08.48-.23.61s-.34.2-.57.2-.42-.07-.57-.2-.24-.34-.24-.61ZM3 10.18c-.14-.03-.61-.04-1.41-.04h-.5c-.24 0-.46 0-.68.03h-.3l-.11.01v-.62h.22c.25 0 .48-.01.67-.04q.12-.06.15-.15t.03-.57V6.21c0-.47 0-.77-.03-.9S.96 5.1.85 5.05c-.13-.06-.34-.1-.64-.1H.05v-.31c0-.21 0-.31.03-.31h.14c.09-.02.22-.03.38-.04l.49-.03c.15 0 .32-.02.49-.03s.3-.02.39-.04.14-.02.15-.01h.04v5.16c.05.09.1.14.16.16s.22.04.48.05h.31v.62H3Z"/></svg>