<svg xmlns="http://www.w3.org/2000/svg" viewBox="0 0 3.71 13.56"><path d="M2.08 1.91q0-.375.24-.6c.24-.225.36-.22.6-.22.21.02.39.1.54.23s.23.33.23.58c0 .27-.08.48-.23.61s-.34.2-.57.2-.42-.07-.57-.2-.24-.34-.24-.61Zm-.95 10.48c.27.05.43.07.49.07.54 0 .86-.41.96-1.24.02-.11.03-1.09.03-2.96s0-2.82-.01-2.88c-.04-.16-.11-.27-.22-.33s-.33-.09-.65-.11h-.27v-.31c0-.21 0-.31.03-.31h.05s.09-.01.16-.01.15 0 .23-.01.18-.01.29-.01.22 0 .34-.03c.16 0 .33-.02.52-.03s.32-.02.42-.04.15-.02.16-.01h.05v3.5c0 1.99-.01 3.09-.01 3.3s-.03.38-.08.53c-.14.43-.41.77-.79 1.05s-.81.41-1.29.41c-.44 0-.81-.12-1.1-.35-.29-.24-.43-.52-.43-.84 0-.21.07-.38.2-.52s.31-.2.52-.2.38.07.52.2.21.31.22.53c0 .23-.11.43-.33.61Z"/></svg>