<svg xmlns="http://www.w3.org/2000/svg" viewBox="0 0 6.81 13.56"><path d="M.22 12.19h.19c.35 0 .57-.06.64-.19v-.77c0-.16 0-.34.01-.53s0-.39 0-.6V6.16c0-.22 0-.39-.01-.53s0-.21 0-.22c-.03-.17-.09-.29-.19-.34s-.3-.1-.61-.12H.01v-.31c0-.21 0-.31.03-.31h.14c.09-.02.22-.03.39-.04.17 0 .34-.02.5-.03.15 0 .32-.02.5-.03.18 0 .32-.02.41-.04s.14-.02.15-.01h.04v.71l.12-.1c.53-.4 1.16-.6 1.87-.6s1.36.29 1.87.87.78 1.31.79 2.19c0 .91-.29 1.66-.88 2.23s-1.25.86-2 .86c-.62 0-1.16-.2-1.63-.6l-.11-.1v1.91c0 .24 0 .39.03.45s.07.1.15.15c.19.03.41.04.67.04h.22v.62h-.43c-.21-.02-.43-.03-.68-.03s-.42 0-.52-.01c-.93 0-1.44.01-1.52.04H.01v-.62h.22Zm5.26-4.97c0-.67-.15-1.25-.46-1.75s-.69-.75-1.15-.75c-.64 0-1.2.29-1.67.88v3.24c.36.65.87.98 1.52.98.46 0 .87-.24 1.22-.73s.53-1.11.54-1.87"/></svg>