<svg xmlns="http://www.w3.org/2000/svg" viewBox="0 0 6.81 13.56"><path d="M0 7.22C0 6.41.28 5.7.84 5.1s1.2-.9 1.91-.91h.14c.76 0 1.37.31 1.83.94l.08.11s.09-.18.23-.53l.22-.53h.5v3.88c0 2.61 0 3.92.01 3.94.04.07.09.12.16.15.19.03.41.04.67.04h.22v.62h-.42q-.33-.03-.69-.03c-.36 0-.42 0-.52-.01-.93 0-1.44.01-1.52.04h-.11v-.62h.22c.25 0 .48-.01.67-.04.08-.04.13-.08.15-.14s.03-.19.03-.39v-2.1q-.81.81-1.86.81c-.74 0-1.38-.29-1.93-.87C.29 8.88.01 8.13 0 7.22m4.66-1.11c-.27-.81-.71-1.26-1.33-1.37h-.12c-.05 0-.09 0-.11-.01-.45.02-.86.25-1.22.71s-.54 1.07-.54 1.85c0 .7.15 1.29.46 1.79s.71.75 1.19.75c.39 0 .73-.12 1.02-.37s.51-.53.65-.87V6.12Z"/></svg>