<svg xmlns="http://www.w3.org/2000/svg" viewBox="0 0 6.85 13.56"><path d="M2.58 10.18c-.11-.03-.56-.04-1.34-.04-.69 0-1.07.01-1.15.04H.01v-.62H.2c.21 0 .4-.04.57-.08q.255-.075.39-.12c.135-.045.2-.11.34-.23s.22-.2.24-.24.12-.16.29-.35.25-.32.27-.38l.62-.81-.79-1.06c-.08-.12-.17-.24-.26-.37s-.16-.22-.22-.29-.1-.13-.15-.2-.09-.13-.12-.16-.06-.07-.08-.1-.05-.05-.1-.08-.07-.04-.08-.04-.04 0-.08-.03-.08-.03-.11-.03c-.05 0-.22 0-.49-.03H.07v-.62h.1c.33.02.79.03 1.4.03.84 0 1.31 0 1.4-.03h.11v.62c-.33.04-.49.11-.49.22 0 .02.05.09.14.22s.22.3.38.52.29.4.39.56l.05.05.34-.46c.29-.37.43-.62.43-.73 0-.05 0-.1-.03-.15s-.04-.08-.07-.1-.05-.04-.07-.05-.05-.04-.1-.05h-.04l-.07-.01v-.62h.1c.14.03.58.04 1.34.04.71 0 1.1-.01 1.15-.04h.08v.62h-.1c-.44 0-.81.08-1.1.23-.15.07-.31.19-.46.37s-.45.55-.88 1.14l-.22.29.84 1.15c.6.81.92 1.24.96 1.28s.12.07.23.1c.16.04.4.05.72.05h.23v.62h-.19c-.07 0-.16-.01-.27-.01s-.22 0-.34-.01h-.34c-.11 0-.19 0-.24-.01h-.5c-.24 0-.46 0-.68.03h-.31l-.12.01V9.6h.04c.1 0 .2-.02.3-.07s.15-.1.15-.16c0-.02-.18-.28-.54-.77l-.56-.75s-.15.2-.42.57-.43.57-.46.61c-.04.05-.05.11-.05.19 0 .1.03.19.1.26s.14.11.24.12c.02 0 .03.1.03.31v.31h-.1Z"/></svg>