<svg xmlns="http://www.w3.org/2000/svg" viewBox="0 0 5.06 13.56"><path d="M.19 6.61c.02-.06.05-.43.08-1.11s.06-1.03.07-1.06v-.11h4.61c.05.05.08.13.08.22 0 .11 0 .17-.01.18l-.23.33c-.15.21-.38.52-.68.94s-.6.82-.9 1.21L1.43 9.64h.65l.33.01c.43 0 .78-.03 1.04-.08s.48-.19.65-.42c.19-.25.32-.74.38-1.47l.03-.22s.09-.01.27-.01h.27v.08s-.04.43-.11 1.26q-.105 1.245-.12 1.32v.08H.08l-.04-.04A.36.36 0 0 1 0 9.96c0-.12 0-.18.01-.19s.6-.82 1.78-2.43 1.78-2.44 1.82-2.5h-.79c-.61 0-.99.04-1.14.08-.23.05-.4.15-.53.28-.22.21-.36.67-.42 1.4v.12H.19z"/></svg>