<svg xmlns="http://www.w3.org/2000/svg" id="boat" viewBox="0 0 201 141.97"><defs><style>.cls-2{fill:#4e585b}.cls-17{fill:#517094}.cls-29{fill:#a8a9bf}.cls-33{fill:#cfd0d4}.cls-63{fill:#e0e0eb}.cls-80{fill:#463026}</style></defs><path d="M22 106.89c2.1.22 5.07 7.5 2 7.95q-1.575 4.185-6 0c-1.06 3.43-5.89-.23-7.3-2.53-1.05 1.74-2.09 3.22-3.7 4.51 1.43-.41 2.17.02 2.74 1.15 5.8-.51 8.75 2.49 4.03 7.07 2.45 2.5 2.86 4.39 1.23 5.68q-.915.945-3 0c-2.98-1.48-3.47-1.31-6-3.97q-2.1-5.625-6-10.92v-1.99c2.4-2.53 4.11-4.47 7-5.96 1.37-5.17 11.82-3.62 15-.99" style="fill:#b1b0ca"/><path d="M196 90.01c1.25.63 3.22-.29 5 2.98v10.92c-.8 1.21-1.43 2.65-2 3.97l-1.18-.93.69-11.75c-2.17-1.04-3.01-2.11-2.51-3.21-1.59-.55-1.93-1.8 0-1.99Z" class="cls-63"/><path d="M0 115.83c4.74 1.48 3.11 3.52 4.29 5.67.53.97 3.8 1.46 1.71 5.26-2.77-2.92-3.17-5.59-6-7.95z" style="fill:#e1e2e8"/><path d="M47 100.94c.33.03.67-.03 1 0 4.14.6 8.14 1.6 12 2.98 21.7 3.67 42.38 7.29 64.55 4.93l36.45 3.02c.88.25.86.58 0 .99l-.96 1.95-18.57-.76c1.11.71 1.95 1.97 2.53 3.78-3.93 3.71-10.53 2.66-15 0-3.46 1.52-8.74 2.58-12 0-1.35 3.37-8.85 2.45-11.56.59l-4.44-.59c-1.57 2.11-9.15 1.67-10-.99l-2.81.21c-.3 2.24-1.94 3.36-4.19 1.78l-2.15.34c-2.05-2.42-6.99-2.61-9.85-2.32-3.12 1.88-12.58-1.7-14-4.97l.29-1.79c-3.72.26-10.76.45-11.4-3.67-3.6.65-7.92-2.1-4.89-5.47.58-2.53 2.25-2.53 5 0Z" style="fill:#313f4b"/><path d="M89 6.59c3.62.57 6.23 5.43 7 8.94 2.84 1.62 6.12 4.85 7 7.95.86 2.96 2.04 4.08 5 4.97 2.55.83 4.88 2.82 7 5.96 9.84 10 12.77 16.4 20 27.81q2.535 4.185 3 7.95c1.76 4.73 1.09 8.04-2 9.93-1.09.56-2.42-.44-4-2.98-.88-.29-.86-.62 0-.99l1.16-2.02q-3.975-5.775-5.16-11.88c-2.95.17-4.28-1.82-4-5.96-2.48 0-4.51-2.19-6.1-6.61-2.52-2.18-3.49-4.28-2.9-6.3-8.3-8.39-16.46-16.81-24.49-25.26l.49-1.56c-3.3-.18-4.95-1.9-3-4.97-2.86-.36-3.13-1.19-1-2.98-2.08-2.61-.29-5.53 2-1.99Z" style="fill:#442c1e"/><path d="M85 4.6c2.94-1.34 2.92 2.33 0 2.98.74.63 1.02 1.38.77 2.29-4.06 1.59-7.98 3.47-9.77 7.64q1.305.495 0 .99-1.77 6.825-6 8.94c3.37 3.23-3.94 8.86-7 8.94-2.61 1.93-5.58 3.53-5-.99-.99.03-.99-.63 0-1.99.46-.53 1.76-.89 2-1.99.21-.97.58-1.89 1.07-2.78 2.2-3.98 14.7-23.57 17.22-25.13C80.4 2.19 85.1 1.19 85 4.59Z" style="fill:#322619"/><path d="M49 69.15c2.11 1 3.55.73 5.61-.5q1.47 5.1 6.84 2.79c18.52 5.95 37.01 11.94 55.48 17.97l1.07 2.58c-.51 1.05-1.12.63-2 0-15.04-1.91-34.08-12.4-47.95-15.44-3.71-.81-11.55-.05-13.85-1.09-2.08-.95-.62-3.08-1.74-3.38-6.98-1.88-6.37 5.52-7.47 9.99-.5 1.62-1.16 2.28-2 1.99l-1.2-.76c2.5-13.81 1.53-14.11-2.9-.89l-2.91 1.65c-.67-.39-.67-1.05 0-1.99.34-2.58 1.48-5.31 2-7.95 1.94-4.86 3.6-9.83 5-14.9.49-.69 1.41-1.3 2-1.99 2.45-10.12 7.9 1.02 4.09 7.21 1.89 1.02 1.54 3.45-.09 4.71Z" style="fill:#343429"/><path d="m25 66.18 2.56.6c.75.6 2.78 14.4 2.44 16.29 1.86.33 1.04 2.56-.13 3.69-3.96 3.8-11.41-2.14-13.87-5.67-1.36-4.88-.79-6.4 0-10.92.61-4.09 5.6-11.33 9.82-6.37.49.58-.18 1.71-.82 2.39Z" style="fill:#938ebe"/><path d="M187 92c2.05.44 3.93 5.77 3.42 7.3-.22.66-9.63 9.22-10.27 9.49-2.57 1.06-9.86 1.23-11.15-.89.86-2.01 1.08-4.8 2.1-6.39 1.13-1.76 2.2-1.13 2.9-1.56l3.95-4.27c.75-4.96 5.4-4.96 9.05-3.67Z" style="fill:#bec0d3"/><path d="M98 15.52c.27 1.26-.39 1.26-2 0-2.46-2.95-4.58-6.06-7-8.94-1.26-.6-2.59-1.26-4-1.99-1.47.45-3.5-2.47-7.52.98L60 31.4c-.42-3.83 2.88-5.7 4-9.93.93-4.65 3.27-7.63 7-8.94.15-.54-.11-1.36 0-1.99.74-4.59 2.74-7.23 6-7.95 1.81-.32 8.05-3.03 8.98-2.56 1.07.54 6.31 6.23 7.44 7.61 1.79 2.19 3.42 6.47 4.58 7.86Z" style="fill:#777167"/><path d="M135 62.2c3.36 5.31 13.3 18.41 15.29 23.13 1.04 2.46-.27 3.8.16 5.7.37 1.66 2.24 3.22 2.54 5.53.96 7.31-2.95 5.54-4.08 6.97-1.46 1.84.72 4.53-3.95 2.93-1.4-.48-2.92-2.3-3.95-2.54-1.7-.74-2.03-1.4-1-1.99 1.61-1.11 3.39-.88 5.31.69.44-2.64 1.37-4.16 4.45-4.07-3.11-4-4.14-8.26-3.08-12.78-4.68-4.89-7.58-10.1-8.68-15.62-1.12-2.14-2.63-5.54-3-7.95Z" style="fill:#666a6c"/><path d="M169 107.89c.82.92.38 2.43-1.34 4.52q.12 6.915-3.66 9.39c2.85.8 2.82 4.74 0 5.96-1.35-3.33-3.27-6.67-7-4.97-2.16-1.68-1.63-1.95 1-1.99-.87-1.91.75-7.35 3-7.95.04-.33-.03-.66 0-.99 4.97 1.24 2.27-3.2 2.99-3.98.17-.18 4.08 0 5.01 0Z" style="fill:#b6b9d2"/><path d="M21 88.02c-2.14-1.09-4.34-4.59-5-6.95 4.38.6 4.43 4.26 8.56 4.88 5.95.89 4.8.68 5.44-2.89-1.1-1.97-1.04-3.19.17-3.68l.72-10.29 2.11-.93c1.82 5.46 1.56 11.96-1.13 17.25-2.13 4.21-6.96 4.61-10.87 2.61" class="cls-29"/><path d="M29 60.22c.46.91.59 3.47 1 3.97 2.94 3.25-3.11 5.88-5 1.99-.15-.03-.44-1.28-.96-1.38-7.01-1.35-4.13.87-8.04 5.36.78-4.44 1.95-10.29 7.64-10.57 1.62-.08 3.48.63 5.36.64Z" style="fill:#bcbbd0"/><path d="M174 99.94c1.04-2.91 3.68-7.64 6.27-9.16 1.21-.71 10.81-2.87 12.28-2.88 2.99-.03 2.57 1.67 3.45 2.11V92c-.26.85-.6.83-1 0l-2.05 1.07c-1.58-1.05-3.56-1.41-5.95-1.07-2.66 1.1-5.03 2.22-6.99 0 .68 5.78-2.31 5.71-6.01 7.95Z" style="fill:#d7d9df"/><path d="M45 82.07c-.94 3.8-.95 7.24-3 10.92 6.14-1.26.26 5.84 5 7.95-1.64-.14-3.35.12-5 0-1.42 2.28-2.62 1.36-3-.99-4.13-.44-3.91-1.63-.37-3.36Q39.455 93.92 41 92c-2.6-1.46-.82-7.8 2-7.95l2-1.99Z" class="cls-33"/><path d="M98 15.52c5.37 6.42 12.8 11.62 17 18.87-1.91-1.94-5.12-4.02-7-5.96-2.77-.52-4.51-2.19-5-4.97-2.37-2.49-4.81-5.31-7-7.95h2Z" style="fill:#5a3c3b"/><path d="M58 35.39c1.52 1.2.98 2.83-1.65 4.89-.15 4.12-4.17 9.9-8.35 9.02 2.38-5.54 2.91-7.92 7-12.91 1.13-1.37 2.25-2.11 3-2.98-.13.59.19 1.6 0 1.99Z" style="fill:#514e40"/><path d="M118 92c1.85-2.4 9.79-.29 10 2.98 3.86.14 5.2 1.13 4 2.98h-3c-3.09-3.71-10.01-1.68-13-5.96.65.08 1.34-.06 2 0" style="fill:#77776a"/><path d="M60 103.92c-3.87-.65-8.58-1.1-12-2.98 3.57.38 10.1.02 12 2.98" class="cls-33"/><path d="M119 133.71c2.86.06 2.73 2.31 0 2.98-2.71 1.9-2.02-.76-1.48-.07 3.37 4.31-1.83 4.51-5.34 2.76-1.96 1.45-6.39.96-9.18.29-.59 1.47-1.4 1.46-2 0-2.61.7-4.25.19-6-1.99-1.19 3.22-9.99 4.36-9.49.59l-1.26 1.4c-9.36 1.16-18.77 1.16-28.24 0-1.77-.31-2.7-.7-4-.99-.87-.28-.86-.61 0-.99.6-2.55 5.65-2.02 6.38.12l1.62-.12c1.93-1.3 1.93-1.97 0-1.99-1.72-3.39 2.68-3.67 5.64-3.39 5.2 1.01 10.6 2.01 15.36.41.51-3.23 2.67-2.57 4 0 .29-2.59 2.69-3.55 4-.99.81-2.8 2.21-2.83 3 0 1.7-1.9 2.06-1.5 2 .99 2.2-1.42 4.99-1.73 8.39-.93 3.57-.99 6.11-.68 7.61.93.01-2.36.68-3.02 2-1.99 1.56-3.38 7.01-.1 7 2.98Z" style="fill:#3e4958"/><path d="M24 114.84c.94.08 2.25-.2 3 0 1.54-.84 4.27-.24 4.83 2.78 3.05 1.79 4.62 3.35 4.17 7.15 1.29 1.68 1.62 3 1 3.97-2.97-.68-1.33 1.7-3 3.97-5.94.38-13.66.71-19-1.99-.47-2.19-3.51-4.74-3.99-6.47-.77-2.82 4.54.29 2.99-4.45-4.22-.1-5.6 1.32-7.01-2.98 1.5-6.28 11.27-.83 13 2.98q2.79 1.54 0 0c-2.24-.69-2.3-3.1-2-4.97 1.88.24 4.06-.17 6 0Z" style="fill:#a19fc2"/><path d="M174 110.87c.14 1.64-.22 3.46-1.1 5.45 3.32.07 4.69 1.23 4.1 3.48 4.36-1.6 4.61 4.68-.16 4.25l-3.84 1.71c1.9 1.81.14 3.72-2 3.97-1.83 0-4.93.38-6.37.04-1.25-.29-.42-1.52-.63-2.03.23-1.86-.33-4.22 0-5.96 2.46-1.59 3.53-4.25 3.22-7.96.51-4.48 5.35-7.18 6.78-2.97Z" style="fill:#9998c5"/><path d="M145 124.77c2.41-.18 4.41.16 6 .99 1.01-2.73 2.01-3.07 3-.99-2.2 1.24-4.67 5.45-6.04 6.43-.74.53-1.71.34-1.96.52-5.24 3.83-10.91 6.48-17 7.95-.7-.29-.69-.62 0-.99a26.4 26.4 0 0 1-5-5.96c-1.5-4.96 4.55-4.09 6-.99.41-1.82 3.3-.2 3.08.17-.56.94-2.84-.63.92-.17-.97-3.62 7.99-7.54 11-6.95Z" style="fill:#47505c"/><path d="M56 139.67c7.08-.7 15.72.92 22.57.09 1.78-.22 1.38-1.67 1.63-1.77.62-.28 1.85.92 2.82.27s.86-5.17 4.06-1.07c.89 1.14-.2 2.42-.09 2.48 1.85 1.02 6.54.32 5-2.97 1.04-.33 2.53 1.02 3 1 2.81-.88 3.05 1.37 1 2.98-.26.45-.6.42-1 0-13.82.64-25.46 1.34-39-.99Z" style="fill:#5f6371"/><path d="M146 131.72c-11.02 12.59-29.96 10.11-45.51 9.95-1.69-.02-4.45.63-5.49-1.01.33-.02.67.01 1 0-.29-1.68 1.37-2.01 5-.99.66-.05 1.34.06 2 0 2.46.58 7.41 1.49 8.22-.91 3.46 1.76 5.42 1.8 5.88.14 4.07 1.11 8.04 1.37 11.9.77.88-.52 3.25-3.85 3.72-3.94 6.85-1.3 6.38.73 13.28-4.01" style="fill:#777f86"/><path d="M199 107.89c-.24.55-.67 1.25-1 1.99-2.1 3.77-4.1 5.1-6 3.97-3.16-2.62-.07-5.7 2.76-7.03l.56-9.31c-3.82-3.8-3.93-5.64-.33-5.5.28.14.78-.15 1 0 6.94 4.69 2.31 9.06 3 15.89Z" style="fill:#bab6d3"/><path d="M36 124.77c5.2-.03 11.71 5.21 11.49 10.91 2.56-.43 4.06.24 4.51 2v.99c-2.04-.46-4.39.58-6.98-.52-3.27-1.38-4.9-7.37-8.02-9.42-.8-1.21-1.03-2.55-1-3.97Z" style="fill:#5b6361"/><path d="M15 130.73c6.27.3 12.81.86 19 1.99-.69.95-1.47 1.6-2.67 1.82-4.24-1.4-8.93-.24-12.9-.74-.36-.05-5.44-2.57-6.43-3.06 1 .03 2-.05 3 0Z" style="fill:#d7d9e2"/><path d="M192 117.82c-1.1 1.08-3.88 5.58-4.2 5.75-1.33.72-3.52-.13-5.11.22-.88.2.37 1.56-3.69 1.97-1.01-1.29.33-3.31 1.17-4.16 1.32-1.34 4.38-2.31 5.83-.81-.46-3.37 3.46-5.07 6-4.97 1.14-.25 1.14.41 0 1.99Z" style="fill:#d7d9e7"/><path d="M158 120.8c-.38.57-.62 1.6-1 1.99-1.59 1.59-1.05 1.1-3 1.99-.72.33-2.07.68-3 .99-5.22-6.27 3.49-11.13 7-4.97" style="fill:#4a5153"/><path d="M198 109.87c-3.04 6.67-1.88 3.89-6 7.95v-1.99c-1.53-.12-1.53-.78 0-1.99 2.54-1.24 3.88-2.09 6-3.97" class="cls-63"/><path d="M176 125.76c2.11.44.51 2.97-1 3.97-1.15.18-2.74 0-4 0-.09-1.98 1.03-2.7 2-3.97q2.805-2.565 3 0" style="fill:#bebfdd"/><path d="M179 125.76c-1.69 2.37-1.05 3.51-4 3.97l1-3.97c.66-2.47 1.79-2.09 3 0" style="fill:#e3e4ef"/><path d="M7 116.83c-.68-2.08 2.01-6.24 3.51-6.95 1.67-.78 2.4 3.42 4.55 4.45 1.15.55 1.89.37 2.94.51 2.58 1.14 2.01 2.59 2 4.97-4.55-.19-6.78-6.72-13-2.98" style="fill:#908cb5"/><path d="M42 100.94c1.66 6.21 5.19 2.38 9.99 2.98 1.71 2.89-5.42 1.39-2.99 3.95 1.37 1.45 7.55.97 9.64.18 1.87-.71 2.7-3.73 7.36-2.14-.36 1.47-1.98 1.62-2.03 3.47-.02.79 3.12-.16 2.02 2.48H58c-.3 2.76-2.35 2.75-3 0l-1.45 1.66c-13.04-5.07-16.77-3.64-11.16 4.27 4.09 1.46 10.56 6.6 9.62 10.95l-2.11 1.98c-4.59-2.31-8.89-5.29-12.89-8.93-5.88-3.33-7.54-6.64-5-9.93-2.08.24-3.03-.52-2.87-2.29-5.6-7.64 2.37-8.85 6.97-9.14l1.91-.49h1c1.78-.16 2.65.97 3 .99Z" style="fill:#2a2c4f"/><path d="M58 111.86c5.65 1.47 8.75 2.81 14 4.97 2.4-.21 9.25-.18 9.96 2.95l2.04-.96c.17-.35 4.03-2.73 4.78-2.86 1.44-.24 2.1.87 2.22.87-1.27 4.88-2.33-.72-.43 1.15 2.31 2.28 1.9 3.96.78 7.03 1.41 1.84 3.05 5.45.65 6.72-.8-.15-2.1-.04-3 0-2.34-1.08-3.68-.75-4 .99-1.04.18-3.58-.28-4 0-2.73 1.79-4.61 1.74-5.64-.14 1.24-6.52-1.99-7.34-7.86-6.71l-1.5-2.09c-.87-.28-.86-.61 0-.99.39-1.3.08-1.67-1-.99-2.85-.1-5.52-1.75-8-4.97-3.06 2.59-6.5-4.25-2-4.97.86.2 2.17-.22 3 0" style="fill:#475c8e"/><path d="M161 112.85c-.24 1.97.15 3.14-.95 5.57-.76 1.67-1.68 1.82-2.05 2.37l-7-.99c.58 2.11.97 3.87 0 5.95-3.77 1.29-4.64 4-6-.99-2.14-1.57-1.63-2.22 1-1.99-.58-1.18.09-2.5 2-3.97-1.69-.08-3.02-.41-4-.99-1.76.17-8.53-4.6-6.99-5.95z" style="fill:#343c41"/><path d="M101 117.82c7.17.22 9.17 1.87 6 4.97 2.68.5 2.47.9 0 1.99.89 3.01-1.92 3.1-4.42 2.35-.9-.78-6.76-3.54-6.67-.71q3.945 7.38-1.92 6.3c-.97-.13-1.72-.94-2-.99-.34-3.77-1.79-7.03-6-5.96.61-5.56 5.32 1.6 4-6.3-.12-.71-4.99-.94 1-2.64 3.83-.06 6.06-.18 10 .99Z" style="fill:#617da1"/><path d="M144 117.82c1.7-.18 2.67-.36 4 .99-1.77 1.5-2.44 2.82-2 3.97-.41.55-.61 1.59-1 1.99-4.84 4.9-7.2 3.27-11 6.95-1.31.02-2.31-.64-3-1.99-2.24-.99-2-1.7 0-2.98 2.61-2.17 1.76-4.42-2.53-6.74l.53-2.2c5.21.1 10.45.48 15 0Z" style="fill:#4c6682"/><path d="M129 117.82c3.13 2.72 9.33 9.06 2 8.94-2.5-.37-2.28-1.04 0-1.99q-1.395-3.03-6.15 2.37c-2.59-1.29-2.17-3.03-.93-5.23-1.53 1.05-2.41 1.47-3.93-.12-.03 3.04-3.29 2.7-4 0-2.85-.96-1.86-3.83 1-3.97 3.99.06 8.01-.08 12 0Z" style="fill:#6785a7"/><path d="m117 117.82-1 3.97c3.73 4.32-7.94 5.47-9 .99-.74-4.96-1.68-3.67-6-4.97h16Z" class="cls-17"/><path d="M84 118.81c-.68 1.43 1.71 3.96-3.51 3.01-.98-.18-.16-2.54-.54-2.91-.44-.42-3.65.15-5.23-.35-1.14-.36-1.89-1.4-2.71-1.74-.44-3.23 1.15-1.73 3.02-1.52 3.11.35 7.42.41 8.98 3.5Z" style="fill:#587197"/><path d="M78 30.42c.53.28.51.62 0 .99l2.9-.68c6.44 3.47 12.75 7.16 18.55 11.64l.55 2.94c1.65.02 3.63 1.35 3 2.98 1.36 2.92 3.7 4.9 7 5.96.19-.88.52-.85 1 0 5 2.89 12.24 8.83 15 13.9 2.54.31 9.09 4.83 6 7.95.1.27-.09.67 0 .99 3.55 2.15 3.6 9-1 4.97l-2.91-.06c-4.23-3.41-8.15-7.35-11.09-11.85a391 391 0 0 0-39.12-30.58L76 36.39l-1-.99c-4.59-1.42-1.14-6.82 3-4.97Z" style="fill:#422b05"/><path d="M83 22.48c1.39.42 2.23 1.87 2.52 4.36l12.12 7.17c1.5 1.46 2.95.93 4.36-1.6.78-1.29 2-1.05 3.65.72L115 43.34c5.81 5.5 5.17 6.97 9 12.91 2.93 5.97-.92 5.55-5.62 3.14q-3.9-3.465-7.38-5.13h-1c-3.43-.51-4.43-1.83-3-3.97-.87-1.98-4.68-3.94-7-4.97-7.8-6.16-13.38-9.21-22-13.9.45-2.68 1.9-8.19 5-8.94" style="fill:#ba6636"/><path d="M138 70.15c2.36 4.52 9.45 12.43 10.55 14.93.92 2.09-.81 3.91-.4 6.19.59 3.3 5.57 5.55 2.85 10.66l-2.98-1.98-1.02 4.96c-2.59.12-4.42-1.73-6.99-2.98s-5.31-2.71-8-3.97c-1.13-.53-2.87-2.47-4-2.98.81-1.17 2.14-2.17 4-2.98 1.01-1.34 2.54-1.61 4.59-.8-1.45-1.43-1.64-2.81-.59-4.16-1.67-2.15-2.87-5.47 0-6.95.18-2.5 1.72-6.17 1.19-9.27l.81-.66Z" style="fill:#292c24"/><path d="M88 11.55c.95 1.71 1.82 3.39 3 4.97-1.01 2.13-3.34 3.46-7 3.97 2.13 1.62 1.61 2.27-1 1.99-1.49 4.26-.91 6.05-5 8.94-.16-.09.16-.85 0-.99-1.81.27-2.48-.06-2-.99-3.28-1.68-2.46-8.37 0-10.92.03-.33-.03-.67 0-.99 1.53-3.7 9.52-10.51 12-5.96Z" style="fill:#994635"/><path d="M111 54.26c.34 0 1.22-1.07 2.32-.79 1.57.39 5.11 4.34 8.57 5.38 3.17.94 1.98-.4 2.11-2.6 1.28 1.98 2.76 3.88 4 5.96 1.92 3.35 3.18 8.52-2 5.96-.23-.21-1.69-.21-2.5-.96-4.45-4.16-9.33-7.67-12.5-12.95" style="fill:#a76e38"/><path d="M91 16.52c4.03 5.38 10.4 11.55 15.54 15.85L115 43.33c-3.83-3.63-8.88-9.4-13-10.92l-2.03.82-11.28-10.81c-2.52.21-4.09-.44-4.69-1.92.16-.32-.38-1.56.1-1.87.66-.43 2.37.2 3.12-.16 1.18-.57 1-2.91 3.79-1.94Z" style="fill:#a75b2e"/><path d="M128 62.2c1.47 2.46 5.88 7.97 6.77 10.66 1.04 3.17.33 3.64-2.77 3.24-1.67-4.28-2.37-2.96-4.71-5.3-.78-.78-.94-2.33-1.29-2.65 3.25-1.34 2.64-3.01 2-5.96Z" style="fill:#8a6f51"/><path d="M87 8.57c.72.89.61 2.27 1 2.98-5.53-.65-8.62 2.53-12 5.96.61-6.12 6.3-5.6 9-9.93 1.37-2.23 2.04-1.89 2 .99" style="fill:#66382c"/><path d="M132 77.1c2.38-.62 2.1 2.17 4 2.98-.06.88 1.08 4.79 0 6.95-1.98 2.08-5.32-.37-4-2.98-2.78.11-2.96.07-1-1.99 3.74.58 1.62-2.57 1-4.97Z" style="fill:#3b3412"/><path d="M108 28.44c-4.15.55-5.55-.9-5-4.97 1.57 1.65 3.37 3.29 5 4.97M89 6.59c-2.13-.24-2.24-.12-2 1.99-.29-.36-1.5-.6-2-.99.48-.76.91-1.52.98-2.45L85 4.61c.22-.07.98-2.01 1.49-1.97 1.03.08 1.89 3.23 2.51 3.96Z" class="cls-80"/><path d="M63 36.38c.19.55.34 1.1.35 1.64 0 .89-7.44 13.36-8.76 15.56-.4.67-.94 1.23-1.59 1.67 2.68.34 2.39.84 0 1.99 2.16 1.13 1.82 2.45-1 3.97l2 3.97c2.85-2.65 8.91-2.66 9 1.99-1.06 1.87-3.58 2.23-7.57 1.07-.71 1.63-4.61 2.13-6.43.91-2.18-3.61 1.29-10.29-2.01-14.89-1.55-.16-.94 1.75-1.99 2.97-.78-3.23 1.91-5.4 3-7.95 1.4-2.09 3.87-3.18 5.31-5.24 1.51-2.17.65-3.43 1.26-4.61.76-1.46 2.83-2.85 3.43-4.06.85 1.61 3.4.94 5 .99Z" style="fill:#3c3323"/><path d="M32 92c2.01-.41 3.34 1.24 4 4.97.28 1.2.87 2.47 2 2.98-.1.08.43 1.65-1.19 2.32-4.12 1.69-8.54-1.66-7.42 5.68.43 2.8 2.27 3.15 2.61 3.92-1.4 4.98-4.23 5.45-4.79-1.33-1.38-1.25-2.53-2.87-3.21-4.63-.04-.2-.91-.63-.92-1.48-.07-5.11 5.69-4.17 6.92-6.47.22-.41-.22-1.57 0-1.99.32-1.89.99-3.22 2-3.97" style="fill:#2d3037"/><path d="M30 64.19c.81.98 1.31-1.08 3 3.97-.45 3.48-.27 9.07-1.02 12.22-.21.9-1.48-.08-1.98 2.67-4.55-4.64-1.71-11.69-5-16.88 2.06.46 4.19.13 5-1.99Z" style="fill:#a69fc7"/><path d="M36 84.05c1.69 3.26-.43 7.24-4 7.95a87 87 0 0 1-2 3.97c.68-4.6 2.77-10.42 6-13.9-.09.64.06 1.34 0 1.99Z" class="cls-29"/><path d="M76 29.43c.83.35.79-.09 2 .99-1.63-.59-4.56 4.16-3 4.97-1.95.94-3.95 1.39-6 1.36L59 50.29c1.77 3.06-3.26 7.96-6 4.97 1.19-6.9 5.16-13.26 10-18.87 3.59-4.16 3.43-1.67 7-8.94 2.08-1.94 5.98-1.09 6 1.99Z" style="fill:#4c2217"/><path d="M76 29.43c-1.41-.61-4.33-.91-6-1.99 1.58-3.22 1.9-7.16 6-8.94-.29 3.12.35 7.6 0 10.92Z" style="fill:#81453c"/><path d="m63 67.17 2.32-1.45c12.21 6.41 25.1 10.87 38.68 13.37 1.46-1.26 1.95-.72 1 .99 3.38-.03 10.44.24 11 3.97 3.17-.63 5.5.04 7 1.99 2-2.49 5.35 0 5 2.98 2.23-2.14 5.11.28 4 2.98 2.17 2.66-1.23 3.3-4 2.98-2.19-.99-6.61-1.59-10-2.98-11.31-4.63-15.41-5.5-27.01-8.43-8.94-2.26-21.6-9.42-29.62-10.14-1.74-.16-3.91 1.16-5.72.77-1.36-.29-1.35-3.85-1.67-4.06-.85-.57-2.83 2.58-4.98-.98 2.79-.47 6.22-.18 3.99-2.97.42-.28 8.71.7 10.01.98" style="fill:#31310d"/><path d="M43 84.05c-.68 3.14-.82 4.69-2 7.95l-2.8 5.12c-1.77 1.41-2.5 1.36-2.2-.16-3.72-.57-2.4-2.56-4-4.97 1.27-2.64 2.78-5.29 4-7.95 2.58-5.63 4.45-11.5 7.5-16.89 3.65 3.81.64 11.66-.5 16.89Z" style="fill:#2f302d"/><path d="M195 92c-2.65 3.23 2.96 2.47 3.06 3.53-1.71 3-.77 9.61-1.46 11.89-.64 2.11-3.81.8-4.6 6.43a32.6 32.6 0 0 0-6 6.95c-3.73 2.42-4.27 1.12-7 4.97-.97.1-2.02 0-3 0h-3c1.89-2.5 2.41-4.41 6-2.99.16-.13-1.64-2.65-2-2.97l-.05-2.14c4.97-3.03 6.04-7.54-.82-4.98l-2.13-1.82c-.81-.04-2.77-2.58-5.1.41-3.38 4.32 4.31 10.56-4.9 10.52.98-5.26 3.21-9.73 5-13.9 2.13.02 6.86.93 7.96.51 2.77-1.07 7.37-6.38 9.52-8.48.87-.85 2.44-.89 2.52-.99.23-.28-3.12-4.93-2-6.93.36-.15.58-2.13 3.48-2.09 2.3.03 2.98 1.33 4.52 2.09Z" style="fill:#a6a3ce"/><path d="M24 105.9c.71 1.78 3.9 2.99 4.54 4 .73 1.16-1.36 3.95.97 4.93 1 .42-.65-4.08 2.49-2.97.78 1.74-.13 4.74.06 4.9.24.21 5.11 2.08 5.94 2.06.45 1.46-.69 2.04-1 2.97 2.19 1.51 1.41 2.62-1 2.98-2.11-2.4-5.89-9.09-9-9.93-.53-3.53-2.24-5.1-3-8.94" style="fill:#3d414c"/><path d="M41 92c-.87 2.38-.48 5.85-4 5.98v.96l2 1.01c-.36.03-.88-.1-1 0-3.05.58-4.28-.56-2-2.98.11-.12 1.31.28 1.71-.25.98-1.29.61-4.13 3.29-4.71Z" style="fill:#616464"/><path d="M55 111.86c-1.14 3.11 1.47 4 2 4.97 2.88 2.7 5.82 4.87 9 6.95 5.11.6 9.87-1.78 11.55 4.94.81 3.25-3.18 4.53 3.45 3.99-1.54 1.01-1.51 2.77-6.67 2.9-4.43.11-11.46-3.29-14.33.08-.58 1.5-1.4 1.49-2 0-2.67.73-7.82-4.5-6-6.95-2.15-2.37-4.74-5.36-6.94-7.53-1.22-1.2-3.17-1.03-4.12-2.09-.9-1.01-3.31-7.17-3.01-8.62.89-4.33 14.23.69 17.08 1.36Z" style="fill:#1f2562"/><path d="M52 128.74c2.3 2.54 4.16 3.71 6 6.95 1.14.29 1.81.95 2 1.99-4.79.98-3.6.6-8 0-1.87-.26-4.32.57-6.1-.46-.97-.56.01-2.33-.47-3.41-2.77-6.22-5.21-4.22-9.43-9.04.04-2.07.7-2.06 1-2.98 7.49-1.54 7.07 7.85 15 6.95" style="fill:#242b42"/><path d="M107 124.77c3.44.75 5.06 5.01 3 7.95-.81.29-5.4.94-6.56 1.02-2.91.22-6.91-.7-9.44-1.02 5.15-.04-2.74-5.39 1-8.44 4.9-4 7.3 3.56 12 .5Z" class="cls-17"/><path d="M120 121.79c1.35-.36 3.1-2.45 5.48-1.99 3.21.63-1.68 4.44-.47 5.96 1.79-.73 2.27-2.6 4.47-3.01s1.25.84 1.52 2.01c-2.02 1.2-2.02 2.86 0 4.97 1.71 1.17 1.12 2.06-1 1.99-2.62-1.1-3.95-1.48-6 .99-1.02 2.24-3.54 3.44-5 .99-2.6.2-4-3.85-7-2.98-4.26-3.48 2.16-6.3 5.98-4.27-.5-2.58.18-4.14 2.02-4.67Z" class="cls-17"/><path d="M120 121.79v6.95c-2.08.28-4.4-1.51-6.38-.93-1.77.53-1.29 2.49-1.62 2.91-.43.54-1.5 1.81-2 1.99-.25-3.45-2.16-4.14-3-7.95-.13-.58.09-1.35 0-1.99 1.89-.01 5.05 1.15 6.75.76 1.89-.43 2.11-1.72 2.25-1.75 1.12-.27 2.92.29 4 0Z" style="fill:#3c5e8c"/><path d="M124 132.72c3.31.46 6.04 2.42 5 5.96-2.12 2.51-11.13 2.36-10-1.99v-2.98c1.03-.08 2.22-1.38 5-.99" style="fill:#333c4a"/><path d="M103 139.67c2.62-.24 5.37.19 8 0 .45-.31-3.07-2.99-1.99-3.96 2.49-2.24 9.75 10.92 7 0 1.35-.3 1.98.39 3 .99 3.38 1.97 4.96 4.93 10 1.99v.99c-3.19 1.87-15.8 1.06-20.51 1.01-1.69-.02-4.44.63-5.49-1.01Z" class="cls-2"/><path d="M89 131.72c-.21 0-2.71.77-4 .99-2.24-2.88.18-3.46 2.51-4.96z" style="fill:#5b769c"/><path d="M95 137.68c1.11-.05 3.25-1.65 5-.98l-2 2.96h3c-.96.08-2.61.9-5 1z" class="cls-2"/><path d="M60 135.7h3.99c.7 3.28-1.95 1.56-3.99 1.98-2.97.62-1.62-1.32-2-1.99h2Z" style="fill:#525d6e"/><path d="M20 119.81c.65.03 1.75-1.59 3.95-.53 2.46 1.18 2.98 5.6 7.04 3.51-.8 5.38-4.86 8.14-10.72 5.66-.34-.14-.43-1.33-.99-1.69-1.01-.65-3.16-.87-3.28-1-2.39-2.61 3.82-1.8 4.01-1.97.15-.13-.01-3.07 0-3.98Z" style="fill:#817cab"/><path d="M174 110.87c3.24.15 5.06-1.75 5.52-1.74.8.01 2.63 3.08 4.47 2.75.97 1.34-5.08 7.57-6.99 7.93-2.2-1.98-4.74-.85-5.54-1.96-1.55-2.14.35-5.79 2.54-6.98" style="fill:#847ec0"/><path d="M131 129.74c1.84.47 3.56-1.24 3 1.99-.39.37-.84 1.95-1.5 1.94-.21 0-1.63-1.58-2.5-1.94.3-.67.72-1.31 1-1.99" style="fill:#708298"/><path d="M192 115.83c-2.31 1.39-3.68 3.46-6 4.97l-1-4.96c3.34.81 4.68-.86 7-1.99-.09.61 0 1.34 0 1.99Z" style="fill:#b9b8d6"/><path d="M65 121.79c.85-.4 1.15-.02 1 .99v.99c-6.89-.81-6.05-1.59-9-6.95 3.43.94 5.74 2.33 8 4.97" style="fill:#2d357e"/><path d="M65 121.79c-.83-7.25 6.57.9 1 .99-.35-.32-.69-.64-1-.99" style="fill:#5f6aad"/><path d="M148 118.81c2.22 2.25-1.25 2.96-2 3.97-7.84-1.46-3.38-3.43 2-3.97" style="fill:#a0aab0"/><path d="M131 124.77c.12.54-.03 1.34 0 1.99.05 1.1.89.83 0 2.98-1.92-.49-3.69-.76-4.98-2.48 1.6-1.37 2.85-4.34 4.98-2.48Z" style="fill:#2d4e70"/><path d="M76 36.38c16.3 7.79 28.34 21.86 41 33.77 1 1.25 1 1.91 0 1.99-5.11-.14-11.99-5.95-13-10.92-.94-.55-1.9-.44-2.87.18-6.07-4.5-12.25-9.22-17.95-13.81-2.35.2-3.74-.56-4.18-2.26-4.97-.15-6.35-.96-5-5.96-1.84 1.93-2.39 1.66-2-.99-4.86-1.66 1.23-4.07 4-1.99Z" style="fill:#cebb68"/><path d="M131 82.07c.42.43.58 1.53 1 1.99-.38 3.39-1.72 5.04-4 4.97-1.59-.75-3.43-2.36-5-2.98-1.67-1.86-4-2.52-7-1.99-4.08-1.46-6.78-2.16-11-3.97-.32-.79-.62-1.77-.12-2.38 1.58-1.95 11.51.4 14.17 1.09-1.56-2.51-2.25-4.73-2.05-6.66v-1.99c3.99 3.75 9.81 7.58 14 11.92" style="fill:#b9b152"/><path d="M75 35.39c.46.16.75.87 1 .99-4.76-1.2-3.77 1.82-4 1.99-1.15 3.9-6.31 9.02-9.79 11.65l-3.21.27c1.49-2.47 7.47-15.28 9.61-15.68.32-.06 6.09.68 6.39.78" style="fill:#804335"/><path d="M107 50.28c.87.68 2.09 2.99 3 3.97-5.82-.05-6.94 1.14-7-5.96 1.28-1.11 3.56.53 4 1.99" style="fill:#593015"/><path d="M107 50.28c-.62-.48-2.63-.92-4-1.99-1.19-.93-2.15-2.31-3-2.98 1.36-1.79 6.34 2.66 7.54 3.96.76.81.5 1.02-.54 1.01" style="fill:#b57953"/><path d="m84 20.49 5.05-.49L102 32.41l.99 5.95c-.81.91-18.04-8.96-19.06-10.36-1.26-1.72-1.04-3.58-.93-5.53.22-.64.68-1.35 1-1.99Z" style="fill:#cc6531"/><path d="M132 84.05c.92.99 3.16 2.02 4 2.98 4.92 5.67 3.63 7.93-4 4.97-.77-.3-2.56-2.3-4-2.98 1.43-1.87 1.2-5.61 4-4.97" style="fill:#abad74"/><path d="M91 74.12c2.41-.15 11.08.93 12.23 2.41.58.75.81 1.61.77 2.55-6.91.45-13.87-.97-20.43-3.05-7.22-2.28-13.52-7.34-20.57-8.87-2.46-2.09-6.03-1.67-9-1.99.33-2.3-.34-3.63-2-3.97.41-1.11.82-2.8 1-3.97 1.12-2.67 2.59-1.5 4.22.44 2.4-1.93 4.33-2.41 5.78-1.43.29-.88.62-.87 1 0 1.36.56 2.03 2 2.01 4.31 7.81 4.38 15.98 8.1 24.5 11.18l.5 2.39Z" style="fill:#bdab48"/><path d="m74 39.36.26 3.48c-3.56 4.74-7.31 9.21-11.26 13.4-2.06.96-5.86 6.43-8.66 1.02L53 57.24c.09-.63-.11-1.37 0-1.99 3.11-.59 4.25-3.38 6-4.97 4.3-3.9 8.23-8.37 13-11.92.47.39 1.78.67 2 .99Z" style="fill:#8e4f24"/><path d="M52 61.21c4.8-3.17 5.82 1.67 2 3.97-1.3-.14-2.68.11-4 0-.54-1.8 1.46-2.52 2-3.97" style="fill:#bfb578"/><path d="M104 61.21c4.5 3.89 8.42 7.2 13 10.92 3 2.43 4.57 4.92 3.99 8.94-.53.62-13.68-4.18-15.99-.99-.35-.15-.65-.82-1-.99-3.81-1.94-8.44-2.92-13-4.97q-.825-3.735 6.93-3.06c-.93-9.14 1.1-12.42 6.07-9.85" style="fill:#bfaf39"/><path d="M116 84.05c3.64-.94 6.07-2.59 7 1.99-2.04-.8-4.53-1.1-7-1.99" style="fill:#908f4d"/><path d="M79 45.32c8.21-.18 6.69 2.2 11.03 5.41C95.15 54.51 99.14 57 104 61.21c-7.25-.97-2.03 9.55-4.93 11.49-1.72 1.15-5.97-.33-8.07 1.42-6.61-2.97-17.73-6.75-22.49-9.94-3.83-2.56-5.44-1.11-4.51-7.94q.36-2.52 4.02-4.26Q71.68 41.54 79 45.32" style="fill:#cdba3a"/><path d="M74 39.36c1.86 2.71.55 4.08 5 5.96-9.09.2-6.03 4.56-9.95 8.49-1.51 1.52-3.4 1.54-5.05 2.44-.25.14-.72-.13-1 0-1.6-1.83.07-2.26.93-3.51 3.14-4.53 7.52-8.44 10.07-13.38" style="fill:#d8a74d"/></svg>