<svg xmlns="http://www.w3.org/2000/svg" viewBox="0 0 102.57 11.04"><path d="M17 .53c-.2.17-.34.31-.4.4-.08.1-.16.28-.25.53l-.39 1.17q-.645 1.86-1.32 3.72l-.83 2.25q-.48 1.395-.84 2.1c-.58.08-1.1.19-1.57.34-.23-.71-.46-1.42-.68-2.13-.5-1.74-.94-3.34-1.33-4.81-.23-.91-.44-1.7-.61-2.36-.47 1.39-.94 2.78-1.4 4.16-.29.82-.59 1.64-.89 2.46-.35 1.11-.65 1.89-.89 2.35-.64.08-1.18.19-1.62.34-.26-.84-.5-1.68-.73-2.53-.44-1.68-.89-3.48-1.35-5.39-.18-.76-.37-1.54-.55-2.35L0 .82.9.21h2.6l-.3.37c-.14.13-.21.27-.21.41 0 .2.09.65.28 1.33.11.4.21.81.29 1.22l.76 3.01c.16.65.32 1.3.49 1.93.19.75.35 1.29.45 1.62.31-.84.74-2.05 1.3-3.64L7.2 4.6C7.89 2.51 8.28 1.23 8.36.76H7.03L7.97.2h2.76l-.33.43a.58.58 0 0 0-.2.56c-.02.02.09.45.32 1.29.02.06.17.63.44 1.7l.69 2.58c.17.58.33 1.16.49 1.73.19.69.36 1.22.5 1.6.48-1.23.92-2.4 1.3-3.51l.9-2.49c.18-.57.37-1.15.55-1.73.23-.71.39-1.24.47-1.6H14.1l.97-.56h2.25l-.34.31ZM29.84 10.82h-3.13q.465-.435.57-.84c.08-.28.1-.79.08-1.53V5.3c-.39.09-.77.23-1.14.41h-4.46c-.14 0-.28 0-.44.01-.17 0-.3.04-.4.1q-.165.075-.21.3-.03.225-.03.87v1.05c0 .77.01 1.38.04 1.83 0 .19.05.31.12.36.07.07.19.11.36.14l1.11.04-.79.4h-2.95c.31-.28.5-.61.55-1 .02-.08.03-.22.04-.42 0-.18.01-.38.01-.62V7.69c0-.73-.01-1.48-.01-2.25s.01-1.58.04-2.36c.03-.7.05-1.39.06-2.08 0-.09 0-.18.01-.27l-1.46.03L18.89.2h2.54l-.44.34c-.11.08-.18.19-.19.31-.06 1.23-.1 2.64-.14 4.22h6.02c.21 0 .43-.03.65-.08v-1.6c.05-1.38.08-2.27.1-2.68l-1.41.04 1.07-.56h2.42l-.48.39s-.07.09-.09.17c0 .02 0 .22-.03.62 0 .4-.02.94-.04 1.62-.06 1.4-.08 3.11-.08 5.12 0 .6 0 1.18.03 1.73.02.23.09.37.22.43.11.06.31.1.58.11l1.03.03-.84.4ZM34.66.34l2.03-.15c.4.88.78 1.73 1.15 2.55.37.87.73 1.74 1.09 2.62l.57 1.33q.87 1.935 1.41 2.76c.37.56.81 1.02 1.31 1.38-.34.09-.66.13-.96.14-.18 0-.37-.03-.55-.09s-.39-.15-.61-.29c-.38-.27-.68-.59-.9-.97s-.43-.8-.62-1.25l-.86-2.07c-.45.12-.84.26-1.15.41h-2.31c-.15 0-.27 0-.35.03-.08.04-.15.1-.21.2l-1.27 2.41c-.07.11-.1.23-.1.34 0 .13.07.23.21.29q.3.18.75.27c.15.03.29.06.43.09.13.03.26.07.38.1l-1.22.39c-.52 0-.93-.03-1.21-.13s-.51-.21-.67-.31c.35-.46.71-.97 1.06-1.53.33-.55.75-1.36 1.25-2.43l.54-1.17c.42-.83.81-1.71 1.19-2.65.22-.48.38-.88.47-1.2q-.225-.48-.72-.6c-.33-.07-.69-.09-1.07-.06l.96-.39Zm2.08 5.83q.6-.045.9-.06a67 67 0 0 0-1.77-4.1c-.33.81-.62 1.49-.86 2.04-.25.54-.51 1.09-.77 1.63-.08.16-.14.32-.2.48h2.7ZM49.49 10.82H43.3q.255-.255.39-.45a.9.9 0 0 0 .15-.48V7.07c0-.8.02-2.16.09-4.07.03-.65.05-1.3.07-1.95 0-.09 0-.18.02-.27h-1.41l.98-.56h2.51l-.32.33c-.11.11-.19.21-.23.29s-.07.22-.08.4c0 .02-.04.87-.08 2.53v2.14c-.03 1.13-.04 2.17-.04 3.09 0 .28 0 .49.03.63 0 .06 0 .13.03.21 0 .09.04.17.1.24.07.06.18.1.32.13q.21.06.45.09c.35.04.64.06.86.05.48 0 .96-.02 1.44-.07.41-.05.71-.11.92-.18.2-.06.39-.15.56-.26l.79-.27-1.35 1.22ZM60.73 10.29l-2.08.5c-.83.16-1.63.25-2.4.26-1.99-.04-3.41-.65-4.27-1.83-.86-1.14-1.29-2.34-1.28-3.6 0-1.51.53-2.81 1.56-3.9Q53.79.055 56.58.01c.8.01 1.54.12 2.23.32.55.16.97.32 1.27.49.28.17.5.31.65.43l-1.2 1.19-.51.12.36-.6c-.11-.14-.26-.29-.43-.45-.18-.16-.4-.31-.65-.45-.24-.16-.53-.29-.87-.37-.16-.05-.33-.1-.52-.12-.2 0-.41-.01-.62-.01-1.17 0-2.12.42-2.85 1.22-.77.8-1.15 1.87-1.16 3.21 0 1.46.47 2.72 1.39 3.78.9 1.1 2.15 1.67 3.75 1.7.46 0 .83-.05 1.11-.14.28-.07.53-.15.73-.23V7.68l-2.19.12 1.16-.64h3.08l-.39.37c-.09.06-.13.14-.14.24q-.03.345-.03.72v1.83ZM69.54 10.82h-5.93c.24-.27.39-.48.45-.64.05-.16.07-.39.07-.69 0-2.91.05-5.82.18-8.73h-1.56l1.06-.53h6.08l-.93.89-.38.1c.12-.15.19-.26.21-.34 0-.05-.04-.08-.13-.09q-.63-.03-1.77-.03h-1.04l-.14 4.2h3.36l-.84.83-.39.12c.13-.23.18-.34.17-.33 0-.07-.06-.1-.16-.1h-1.7c-.14 0-.25.02-.32.07-.08.05-.11.17-.11.36v3.42c-.01.36.03.61.13.74.08.06.19.11.32.15q.21.06.45.09c.35.04.63.06.84.04.45.01.9-.01 1.35-.09.6-.11 1.03-.24 1.28-.4l.79-.27-1.32 1.24ZM72.15.21h3.23q.525 0 1.08.09.54.105.99.48.66.585.69 1.5c-.02.61-.23 1.09-.62 1.44-.17.18-.37.34-.58.48-.2.15-.4.28-.59.37.17.01.36.03.56.06.2.04.4.1.61.18.42.14.83.42 1.21.84q.705.885.69 1.89c0 .51-.13.98-.35 1.42s-.52.81-.89 1.11c-.51.37-1.02.6-1.54.69-.54.08-1.04.11-1.5.1-.47 0-.93 0-1.39-.03l-1.83-.06c.24-.27.4-.49.47-.66q.105-.255.09-.57c0-2.09 0-4.11.05-6.07.03-.81.05-1.63.06-2.45v-.3h-1.44l1-.53Zm1.89 5.01c.17-.04.36-.1.57-.17a4.2 4.2 0 0 0 1.15-.59c.14-.1.27-.23.41-.38q.195-.225.33-.57c.08-.21.13-.47.13-.77 0-.16-.02-.36-.06-.59-.05-.22-.14-.44-.29-.65a1.95 1.95 0 0 0-.59-.59c-.25-.16-.58-.25-.98-.28-.18 0-.37-.01-.56-.01 0 .09-.02.18-.03.28-.04.83-.06 1.68-.07 2.53v1.79Zm0 2.54c0 .28 0 .62.01 1 0 .4.04.71.1.93.16.52.65.79 1.49.8 1.44-.03 2.18-.82 2.22-2.36q0-1.155-.66-1.89c-.45-.5-1.11-.75-1.99-.76-.27 0-.5.01-.69.04-.19.05-.35.1-.49.15v2.08ZM81.95.23h2.92c.6 0 1.16.09 1.69.29.49.18.89.49 1.21.92.3.42.45.93.46 1.52 0 .36-.07.68-.17.96q-.18.42-.45.72c-.39.39-.7.65-.94.78q.48.51 1.05 1.38c.28.42.57.84.87 1.25l.45.63c.62.94 1.33 1.69 2.12 2.25-.23.05-.46.08-.68.09-.67 0-1.31-.24-1.9-.68-.54-.42-1.21-1.28-2.04-2.58l-.7-.99c-.17-.26-.3-.43-.41-.51-.1-.07-.24-.1-.42-.1-.04 0-.16.01-.36.04-.24.03-.5.04-.77.04v.96c-.01.6 0 1.46.04 2.56 0 .2.04.34.11.43q.09.15.51.18.57.045 1.11.06l-.83.4H81.8c.2-.19.34-.38.42-.56.08-.17.12-.41.11-.72 0-2.15.01-4.29.07-6.44.04-.86.06-1.63.07-2.32h-1.56l1.06-.56Zm1.91 5.57c.22.01.48 0 .78-.04.28-.04.58-.13.9-.29a2.1 2.1 0 0 0 1.03-1.12c.08-.2.12-.38.13-.54 0-.17.01-.3.01-.4 0-.77-.23-1.4-.66-1.91-.34-.39-.69-.63-1.06-.72-.37-.07-.72-.1-1.04-.09q-.045.795-.06 1.65c0 .53-.02 1.05-.04 1.56v1.88ZM95.02.34l2.03-.15c.4.88.78 1.73 1.15 2.55.37.87.73 1.74 1.09 2.62l.57 1.33q.87 1.935 1.41 2.76c.37.56.81 1.02 1.31 1.38-.34.09-.66.13-.96.14-.18 0-.37-.03-.55-.09s-.39-.15-.61-.29c-.38-.27-.68-.59-.9-.97s-.43-.8-.62-1.25l-.86-2.07c-.45.12-.84.26-1.15.41h-2.31c-.15 0-.27 0-.35.03-.08.04-.15.1-.21.2l-1.27 2.41c-.07.11-.1.23-.1.34 0 .13.07.23.21.29q.3.18.75.27c.15.03.29.06.43.09.13.03.26.07.38.1l-1.22.39c-.52 0-.93-.03-1.21-.13s-.51-.21-.67-.31c.35-.46.71-.97 1.06-1.53.33-.55.75-1.36 1.25-2.43l.54-1.17c.42-.83.81-1.71 1.19-2.65.22-.48.38-.88.47-1.2q-.225-.48-.72-.6c-.33-.07-.69-.09-1.07-.06l.96-.39Zm2.08 5.83q.6-.045.9-.06a67 67 0 0 0-1.77-4.1c-.33.81-.62 1.49-.86 2.04-.25.54-.51 1.09-.77 1.63-.08.16-.14.32-.2.48h2.7Z"/></svg>