<svg viewBox="0 0 35.13 11.2" xmlns="http://www.w3.org/2000/svg"><defs><style>.cls-1 {
        isolation: isolate;
      }</style></defs><g id="a"><g><g class="cls-1"><path d="m4.49 2.73c.07.05.11.08.11.12s-.05.06-.13.07c-.14.02-.29.12-.44.36-.54.84-1.66 2.48-2.58 3.78l2.95-.35.02.16c-2.72.68-3.02.78-3.26 1-.04.02-.06.05-.1.05s-.07-.04-.12-.12l-.35-.66c.48-.08.61-.12.84-.46.29-.42.52-.85 1.27-2.25-1.77.41-1.97.49-2.13.66-.05.05-.08.07-.11.07-.04 0-.06-.04-.08-.1l-.37-.77c.5-.08.65-.19.84-.5.73-1.21 1.39-2.41 1.76-3.29l.7.49c.08.06.12.1.12.13s-.04.06-.12.07c-.23.05-.4.17-.49.3-.77 1.09-1.44 1.99-2.12 2.89l2.11-.13c.42-.78.7-1.37.95-1.99l.74.47zm.14 6.04-2.38.96c-.92.36-1.19.56-1.33.76-.04.06-.07.08-.1.08-.04 0-.06-.04-.1-.1l-.36-.68 4.22-1.18.04.16zm5.86-.48c-.02 1.31.04 1.51.32 1.64.06.02.08.05.08.1 0 .02-.01.06-.04.11-.43.82-.71.82-2.38.82-.76 0-1.52 0-2-.01-1.43-.02-1.51-.17-1.51-.98v-6.08c-.31.37-.59.71-.88 1l-.12-.08c.98-1.33 1.98-2.87 2.69-4.58l.64.43c.1.06.13.11.13.16s-.05.08-.17.11c-.1.02-.23.11-.31.24-.19.29-.37.55-.54.79h1.94l.37-.44.5.6s.06.1.06.13-.02.06-.1.08c-.44.14-.53.23-1.73 1.83h1.76l.31-.44.7.44c.06.04.08.06.08.1s-.3.26-.36.3v1.3c0 .43.01.79.05 1.29v.08c0 .16-.04.2-.28.31-.12.05-.19.07-.24.07-.1 0-.1-.05-.1-.43h-3.89v2.63c0 .49.02.55.84.61.41.02 1.09.04 1.75.04.46 0 .91 0 1.24-.01.7-.02.85-.29.98-2.15h.17zm-2.11-6.08h-2.15c-.43.61-.8 1.12-1.16 1.56l.58.38h1.56l1.18-1.94zm-1.23 4.7v-2.49h-1.63v2.49h1.63zm2.25 0v-2.49h-1.7v2.49h1.7z"/></g><g class="cls-1"><path d="m17.04 1.88c.06.05.1.08.1.12s-.04.07-.12.12l-.41.24c-.37 1.33-.77 2.49-1.26 3.56.64.89 1.12 1.69 1.39 2.34.06.14.1.29.1.43 0 .42-.25.74-.37.74-.23 0-.26-.02-.36-.49-.11-.6-.44-1.45-1.02-2.51-.77 1.49-1.76 2.77-3.24 4.03l-.11-.16c1.34-1.42 2.33-2.83 3.05-4.39-.49-.83-1.13-1.77-1.92-2.79l.16-.13c.74.86 1.42 1.69 1.98 2.45.43-1.02.75-2.11 1.01-3.3h-2.96c-.25 0-.6.05-.8.13l-.34-.44c.3.02.6.05.88.05h3.09l.4-.54.77.54zm5.93 1.43c.08.1.13.16.13.19 0 .05-.06.06-.18.06h-1.83v6.51c0 .53-.1.7-.96 1.1-.04.01-.07.02-.1.02s-.05-.02-.06-.08c-.08-.42-.43-.7-1.49-.94l.02-.19c.8.12 1.3.19 1.58.19.42 0 .44-.13.44-.42v-6.19h-2.69c-.25 0-.6.05-.8.13l-.34-.44c.3.02.6.05.88.05h2.95v-1.6c0-.49-.02-1.19-.05-1.63l.86.44c.08.05.13.07.13.11 0 .05-.01.06-.4.32v2.35h.73l.52-.68.64.7zm-5.53 1.22c1.01.7 1.48 1.39 1.52 1.58.02.11.04.19.04.29 0 .4-.23.61-.46.61-.12 0-.23-.08-.29-.46-.08-.54-.24-1-.92-1.91l.11-.12z"/></g><g class="cls-1"><path d="m27.44.58c.06.04.08.07.08.1 0 .04-.04.06-.11.08-.23.08-.3.18-.44.5-.24.52-.58 1.19-1 1.88l.47.25s.06.05.06.07c0 .04-.04.05-.34.25v4.94c0 .9.02 1.52.05 1.9v.1c0 .16-.04.2-.28.31-.1.05-.17.07-.22.07-.07 0-.1-.07-.1-.26v-.12c.02-.71.04-1.39.04-2.01v-4.97c-.53.85-1.14 1.73-1.74 2.41l-.14-.1c1.22-1.81 2.5-4.34 2.95-5.94l.71.53zm7.61 9.75s.07.08.07.11c0 .04-.04.05-.12.05h-7.35c-.25 0-.6.05-.8.13l-.33-.44c.3.02.6.05.88.05h1.1v-6.1c0-.43-.01-.95-.02-1.24l.72.54h1.33l.05-1.38h-2.25c-.25 0-.6.05-.8.13l-.34-.44c.3.02.6.05.88.05h2.53l.02-.6c.01-.43.01-.85.01-1.18l.95.42c.06.02.1.05.1.08 0 .02-.04.06-.08.1l-.36.23-.06.95h2.48l.41-.66.76.74c.06.06.1.11.1.13 0 .04-.05.05-.13.05h-3.62l-.1 1.38h1.58l.4-.53.72.61s.07.07.07.11c0 .02-.02.06-.07.1l-.37.28v6.24h.48l.47-.64.73.74zm-2.24-5.25v-1.4h-3.77v1.4h3.77zm0 1.67v-1.4h-3.77v1.4h3.77zm0 1.62v-1.35h-3.77v1.35h3.77zm0 1.85v-1.58h-3.77v1.58h3.77z"/></g></g></g></svg>
