<svg viewBox="0 0 59.19 11.35" xmlns="http://www.w3.org/2000/svg"><defs><style>.cls-1 {
        isolation: isolate;
      }</style></defs><g id="a"><g><g class="cls-1"><path d="M11.15,10.27c-.83.07-1.04.22-1.2.49-.04.06-.07.08-.12.08-.04,0-2.17-.76-3.47-1.99-1.02.95-2.53,1.61-4.99,2.17l-.04-.18c2.19-.64,3.63-1.39,4.67-2.38-.78-.95-1.42-2.35-1.82-4.26h-1.52c-.24,3.63-.62,5.17-2.51,6.82l-.16-.12c1.21-1.22,1.83-2.94,1.98-5.22.08-1.27.12-2.47.12-3.66,0-.4,0-.79-.01-1.19l.84.62c3.32-.31,5.74-.76,6.72-1.06l.61.72c.05.06.07.1.07.12s-.02.04-.05.04c-.06,0-.31-.05-.37-.05-.17,0-.44.02-.88.06-2.43.22-4.39.37-6.3.49,0,.73-.02,1.58-.06,2.15h5.73l.4-.54.84.6c.06.05.08.07.08.11s-.05.06-.14.08c-.22.04-.38.17-.55.53-.77,1.6-1.4,2.76-2.27,3.72,1.25,1.09,2.63,1.52,4.39,1.67v.16ZM4.47,4.21c.37,1.69,1.07,2.99,1.91,3.87.91-1.02,1.47-2.27,2.07-3.87h-3.98Z"/></g><g class="cls-1"><path d="m23.28 4.69c-.56 0-.95.12-1.14.38-.05.06-.07.08-.11.08-.02 0-.06-.02-.12-.06-1.86-1.08-2.93-2.08-4.1-4.2-1.81 2.06-3.24 3.54-5.76 4.89l-.11-.12c2.25-1.45 4.15-3.36 5.47-5.65l.86.41c.12.05.17.1.17.12 0 .04-.05.06-.17.08-.1.02-.2.06-.29.11 1.36 2.36 3.45 3.66 5.29 3.8v.14zm-7.42 3.03c.11.07.17.13.17.17 0 .05-.07.07-.2.1-.13.02-.37.16-.44.24-1.02 1.08-1.83 1.8-2.85 2.48l-.07-.14c1.12-.92 2.18-2.31 2.75-3.3l.66.46zm5.85-1.18c.11.11.16.17.16.2 0 .05-.06.06-.2.06h-3.79v3c0 .79-.04.96-.79 1.37-.07.04-.12.06-.16.06-.05 0-.07-.05-.08-.14-.06-.42-.35-.64-1.62-1.03l.04-.16c.91.18 1.42.26 1.7.26.32 0 .35-.11.35-.32v-3.03h-3.09c-.25 0-.6.05-.8.13l-.34-.44c.3.02.6.05.88.05h3.36v-1.7h-1.51c-.25 0-.6.05-.8.13l-.34-.44c.3.02.6.05.88.05h3.45l.47-.62.63.62c.11.1.16.17.16.2 0 .05-.06.06-.2.06h-2.17v1.7h2.7l.47-.67.67.67zm-2.78 1.06c1.48.64 2.4 1.21 2.87 1.81.14.18.2.38.2.58 0 .31-.17.56-.34.56-.12 0-.23-.14-.47-.62-.23-.47-1.26-1.57-2.35-2.19l.08-.13z"/></g><g class="cls-1"><path d="M28.07,1.2c.06.04.08.07.08.1,0,.04-.04.06-.1.11l-.31.22v1.68c0,.32.01.64.04.9v.06c0,.12-.05.18-.33.3-.08.04-.13.05-.17.05-.06,0-.07-.04-.07-.1v-.5h-1.68l-.44,2.36h1.73l.37-.47.73.5s.06.05.06.08c0,.02-.02.06-.08.1l-.35.23c-.06,1.74-.29,2.99-.56,3.42-.3.48-.58.68-1.22.97-.04.01-.06.02-.07.02-.05,0-.08-.04-.1-.12-.08-.35-.32-.52-1.38-.8l.04-.2c.62.13,1.07.2,1.39.2.55,0,.77-.2.95-.6.2-.46.38-1.62.4-3.12h-1.72l-.29.31s-.07.06-.11.06c-.02,0-.04-.01-.06-.02l-.76-.44.53-.31.38-2.11c.06-.31.1-.56.12-.85l.58.58h1.55V1.4h-1.99c-.25,0-.6.05-.8.13l-.33-.42c.3.02.6.05.88.05h2.06l.31-.49.74.53ZM34.96,2.43c.08.08.12.13.12.17,0,.05-.06.06-.18.06h-5.65c-.25,0-.6.05-.8.13l-.34-.44c.3.02.6.05.88.05h4.7l.54-.67.73.71ZM32.18,7.63c1.4,1.18,2.16,2.11,2.16,2.64,0,.43-.23.78-.41.78-.14,0-.28-.14-.29-.42,0-.17-.1-.48-.26-.85l-3.33.44c-.53.07-1.04.23-1.24.36-.02.01-.05.02-.07.02-.04,0-.07-.02-.12-.1l-.42-.67c.58-.1.65-.13,1.15-.74.79-.96,1.61-2.08,2.31-3.15-1.74.29-2.33.46-2.63.63-.04.02-.07.04-.1.04-.04,0-.06-.02-.1-.07l-.46-.6c.37-.07.59-.2.9-.66.37-.54.91-1.57,1.27-2.51l.68.34c.1.05.13.08.13.12s-.04.06-.12.08c-.18.05-.34.16-.55.48-.49.74-1,1.46-1.55,2.09l2.67-.18c.38-.6.74-1.19,1.04-1.73l.71.46c.06.04.1.07.1.11,0,.02-.04.05-.1.07-.2.06-.47.24-.62.46-1.08,1.52-2.79,3.74-3.89,4.75l4.21-.23c-.28-.58-.71-1.27-1.2-1.82l.1-.13ZM30.58.1c1.29.58,1.62,1.04,1.62,1.34s-.29.68-.48.68c-.12,0-.19-.08-.22-.3-.05-.43-.46-1.15-1.03-1.61l.11-.12Z"/></g><g class="cls-1"><path d="M46.31,3.73c.12.05.18.08.18.13,0,.04-.06.1-.17.17l-.32.22v4.07c0,.91.01,1.56.05,2.1v.07c0,.18-.05.23-.31.34-.12.06-.2.08-.25.08-.06,0-.07-.06-.07-.17v-.8h-7.6l-.32.36s-.07.07-.11.07c-.02,0-.06-.01-.1-.05l-.7-.64.55-.46v-4.25c0-.49-.02-1.31-.05-1.75l.89.44c.1.05.14.08.14.12s-.05.08-.13.14l-.31.24v5.49h7.74v-4.59c0-.49-.02-1.31-.05-1.75l.95.41ZM46.01,1.1c.07.06.1.11.1.14,0,.06-.07.06-.23.06-.48,0-1.39.38-3.81,1.82l-.1.16v1.82c.82-.59,1.56-1.21,2.25-1.86l.54.47c.07.06.1.1.1.13s-.05.05-.13.06c-.19.01-.38.1-.56.19l-2.19,1.22v.06c1.34.64,1.81.95,2.17,1.31.23.23.31.47.31.67,0,.25-.13.44-.26.44s-.2-.07-.37-.35c-.31-.52-.94-1.2-1.85-1.86v2.35c0,.56-.25.9-.95,1.21-.04.01-.06.02-.07.02-.05,0-.06-.04-.07-.1-.06-.34-.29-.48-1.27-.72l.02-.18c.61.1,1.02.14,1.28.14.44,0,.49-.13.49-.41v-2.43l-1.75,1.25c-.47.34-.67.55-.78.74-.04.06-.06.1-.1.1-.01,0-.04-.01-.06-.04l-.54-.41,3.23-1.9v-1.57c0-.55-.01-1.04-.02-1.29l.79.43,2.41-1.68h-6.07c-.25,0-.6.05-.8.13l-.34-.44c.3.02.6.05.88.05h6.38l.58-.43.8.67ZM38.85,3c.79.46,1.25.9,1.35,1.13.06.13.08.26.08.38,0,.31-.19.55-.4.55-.16,0-.22-.08-.29-.47-.07-.42-.22-.79-.88-1.48l.12-.12Z"/></g><g class="cls-1"><path d="m53.98 3.02c.06.05.08.08.08.11 0 .04-.05.05-.16.05h-2.46v.41c.43.12 1.95.54 1.95 1.24 0 .19-.1.36-.24.36-.13 0-.19-.02-.34-.24-.25-.36-.73-.83-1.38-1.17v1.21c0 .12-.04.17-.23.24-.11.04-.18.06-.23.06-.07 0-.1-.05-.1-.12v-.05c.02-.34.04-.74.04-1.2v-.72c-.97 1.39-1.67 2.12-2.9 3l-.11-.11c1.07-1.01 1.64-1.67 2.39-2.9h-.94c-.25 0-.6.05-.8.13l-.34-.44c.3.02.6.05.88.05h1.82v-1.83c0-.3-.01-.64-.04-1.03l.85.43c.06.02.08.05.08.07s-.02.05-.08.08l-.3.17v2.11h1.38l.44-.56.71.67zm-.78 3.58s.06.06.06.07c0 .04-.04.05-.07.05-.14 0-.35.19-.44.37-.4.78-.56 1.1-.85 1.5.64.28.97.54 1.16.77.08.1.11.23.11.35 0 .2-.1.38-.24.38-.11 0-.19-.06-.38-.3-.2-.26-.49-.53-.95-.82-.67.82-1.56 1.42-3.43 2.06l-.06-.16c1.66-.77 2.55-1.49 3.08-2.13-.47-.24-1.09-.49-1.92-.75.24-.4.47-.8.66-1.2l-.82.04c-.25 0-.41.04-.6.12l-.46-.4c.3.05.56.05.84.04l1.15-.05c.22-.43.38-.85.52-1.24l.64.38s.07.05.07.07c0 .05-.04.06-.36.14l-.34.61 1.66-.07.29-.38.68.54zm-4.31-5.92c1.07.54 1.35.94 1.35 1.33 0 .24-.14.42-.35.42-.1 0-.2-.13-.25-.37-.07-.4-.37-.85-.82-1.27l.06-.11zm.91 7.25c.66.16 1.2.32 1.63.48.36-.52.62-1.09.85-1.72l-1.86.07-.62 1.16zm7.92-4.94c-.28 2.12-.9 4.22-1.39 5.05.7 1.06 1.52 1.67 2.87 2.24l-.05.12c-.13-.01-.24-.01-.34-.01-.32 0-.52.06-.72.28-.02.02-.06.05-.08.05-.07 0-1.29-1.07-2.03-2.22-1.2 1.39-2.23 2.17-4.08 2.85l-.05-.17c1.56-.73 3.01-1.91 3.87-3.13-.49-1.01-.89-2.57-1.02-4.08-.38.83-.77 1.56-1.19 2.21l-.12-.1c.95-2.04 1.75-4.39 2.12-6.08l.82.47c.06.04.08.06.08.08s-.04.04-.13.06c-.23.05-.28.12-.38.42-.23.61-.46 1.16-.66 1.69h2.71l.44-.55.68.66s.07.08.07.11-.04.05-.14.05h-1.29zm-4.09-1.92c.06.04.1.06.1.08s-.04.04-.11.05c-.36.04-.47.07-1.6 1.36l-.14-.1c.41-.6.74-1.16 1.04-1.79l.71.4zm1.51 1.92c-.08.2-.17.4-.25.59.34 2.03.7 3.12 1.15 3.97.42-.82.84-2.53 1.03-4.56h-1.93z"/></g></g></g></svg>
