<svg viewBox="0 0 45.96 11.18" xmlns="http://www.w3.org/2000/svg"><defs><style>.cls-1 {
        isolation: isolate;
      }</style></defs><g id="a"><g><g class="cls-1"><path d="M9.09,2.29c.07.06.11.11.11.14,0,.05-.04.08-.11.12l-.38.2v7.15c0,.62-.14.84-.86,1.19-.07.04-.12.05-.16.05-.05,0-.07-.04-.1-.1-.17-.46-.47-.62-1.5-.85l.04-.16c.73.12,1.2.18,1.5.18.47,0,.5-.16.5-.48V2.47H.62v6.75c0,.19.02,1.15.02,1.38,0,.16-.04.2-.29.31-.11.05-.19.07-.25.07-.08,0-.11-.07-.11-.28,0-.36.06-2.17.06-2.58V3.29C.06,2.79.04,1.98.01,1.54l.9.67h1.79c.34-.8.73-1.77.88-2.17l.7.34c.07.04.11.06.11.1s-.05.07-.14.12c-.3.17-.52.41-1.28,1.62h4.98l.43-.58.73.66ZM6.66,4.52c.07.06.11.1.11.13,0,.02-.04.05-.11.1l-.37.2v1.56c0,.7.02,1.07.06,1.61v.08c0,.17-.05.23-.28.32-.12.05-.19.07-.24.07-.07,0-.08-.06-.08-.16v-.74h-2.77v.85c0,.17-.04.23-.22.3-.11.05-.19.07-.24.07-.08,0-.11-.06-.11-.2,0-.17.05-1.03.05-1.22v-2.47c0-.29-.01-.86-.04-1.24l.73.59h2.42l.38-.44.7.59ZM5.75,7.44v-2.79h-2.77v2.79h2.77Z"/></g><g class="cls-1"><path d="M21.7,10.08c.08.08.13.14.13.19s-.06.06-.18.06h-9.64c-.25,0-.6.05-.8.13l-.34-.49c.3.02.6.05.88.05h4.23V1.74c0-.7-.01-1.17-.04-1.58l.9.44c.08.05.13.07.13.12,0,.04-.05.08-.12.14l-.3.25v3.07h3.17l.52-.66.73.72c.08.08.13.14.13.18,0,.05-.06.06-.17.06h-4.38v5.53h3.88l.48-.71.78.77Z"/></g><g class="cls-1"><path d="m29.66.9c.06.06.1.11.1.14s-.05.06-.14.06h-1.97v6.25l1.88-.47.06.19-1.94.6v1.49c0 .25.06 1.44.06 1.63 0 .16-.04.2-.29.31-.11.05-.19.07-.25.07-.08 0-.11-.07-.11-.28 0-.25.02-1.49.02-1.76v-1.28l-2.32.72c-.43.13-1.07.44-1.27.62-.02.02-.05.04-.07.04s-.05-.01-.08-.05l-.61-.61 1.58-.4v-7.07h-.42c-.25 0-.6.05-.8.13l-.34-.44c.3.02.6.05.88.05h4.88l.48-.66.67.72zm-2.58 2.19v-1.99h-2.22v1.99h2.22zm0 2.33v-2.06h-2.22v2.06h2.22zm0 2.08v-1.81h-2.22v2.36l2.22-.55zm6.98 2.33c-.74-.01-1.02.1-1.14.28-.01.02-.04.04-.07.04-.11 0-1.38-.96-2.12-2-.72 1.04-1.62 1.83-2.89 2.65l-.06-.23c1.09-.84 1.97-1.74 2.64-2.88-.82-1.33-1.15-2.93-1.42-5.33-.24.01-.52.06-.7.12l-.34-.43c.3.02.6.05.88.05h3.06l.41-.58.78.64s.07.08.07.11c0 .04-.02.07-.07.1l-.38.23c-.48 2.25-.97 3.83-1.68 5.06.73.96 1.7 1.57 3.03 2.03v.16zm-4.77-7.47c.3 2.15.73 3.68 1.42 4.81.65-1.25 1.08-2.79 1.34-4.81h-2.76z"/></g><g class="cls-1"><path d="m41.02 1.55c.08.07.13.12.13.16 0 .05-.06.06-.17.06h-2.64v.94h1.15l.28-.36.62.4s.07.05.07.07-.19.16-.31.23v.48c0 .2.02.53.02.73 0 .14-.06.19-.23.26-.1.05-.17.06-.22.06-.1 0-.1-.06-.1-.26h-1.29v.48c1.2.24 1.98.46 1.98 1.05 0 .18-.08.34-.2.34-.07 0-.19-.07-.36-.28-.26-.32-.86-.78-1.42-.97v1.8c0 .13-.04.16-.25.25-.11.05-.18.07-.23.07-.08 0-.11-.07-.11-.23v-.16c.05-.66.06-1.03.06-1.69v-.48c-.98 1.16-1.68 1.73-2.77 2.47l-.11-.14c1.28-1.01 1.79-1.51 2.48-2.52h-1.01c0 .26 0 .29-.25.4-.1.04-.17.06-.21.06-.06 0-.07-.04-.07-.13 0-.11.02-.62.02-.74v-.79c0-.28-.01-.52-.02-.73l.5.34h1.44v-.94h-1.39c-.25 0-.6.05-.8.13l-.34-.44c.3.02.6.05.88.05h1.66c0-.48-.02-1.13-.05-1.5l.8.46c.06.04.1.07.1.1s-.21.14-.32.22v.73h1.59l.43-.53.65.58zm4.56 8.86c.07.06.11.12.11.16 0 .05-.05.07-.16.07h-9.43c-.25 0-.6.05-.8.13l-.34-.44c.3.02.6.05.88.05h1.67v-1.07c0-.44-.02-.89-.04-1.3l.79.4c.07.04.11.06.11.1 0 .05-.04.06-.34.23v1.64h2.11v-2.81h-2.99c-.25 0-.6.05-.8.13l-.34-.44c.3.02.6.05.88.05h6.37l.5-.64.73.66c.1.08.16.14.16.18 0 .05-.07.06-.2.06h-3.75v1.2h2.21l.41-.54.59.59c.06.06.1.12.1.16s-.05.06-.14.06h-3.15v1.34h3.63l.56-.62.68.66zm-7.76-6.37v-1.08h-1.4v1.08h1.4zm1.82 0v-1.08h-1.29v1.08h1.29zm4.71-1.74c-.26 1.16-.58 1.92-1.08 2.58.68.61 1.67 1.06 2.69 1.26l-.02.12c-.62.01-.71.06-.98.36-.04.04-.06.05-.08.05-.1 0-1.26-.85-1.9-1.45-.63.7-1.38 1.21-2.99 1.82l-.07-.14c1.38-.73 2.26-1.4 2.75-2.01-.35-.46-.72-1.2-.96-2.05-.36.6-.71 1.15-1.03 1.58l-.14-.08c.68-1.19 1.24-2.52 1.82-4.21l.62.48c.08.06.12.11.12.13 0 .04-.05.06-.16.07-.16.02-.19.06-.35.37-.16.3-.3.59-.44.86h2.41l.41-.55.6.6c.07.07.12.13.12.17s-.06.05-.17.05h-1.16zm-2.35 0c-.06.1-.11.19-.17.29.36.91.67 1.48 1.08 1.94.36-.54.56-1.03.88-2.23h-1.79z"/></g></g></g></svg>
