<svg viewBox="0 0 47.18 11.36" xmlns="http://www.w3.org/2000/svg"><defs><style>.cls-1 {
        isolation: isolate;
      }</style></defs><g id="a"><g><g class="cls-1"><path d="M11.02,6.9c.12.12.18.19.18.23,0,.05-.08.06-.24.06H1.14c-.25,0-.61.05-.8.12l-.34-.43c.29.02.6.05.88.05h2.62v-3.55h-1.69c-.25,0-.61.05-.8.12l-.34-.43c.29.02.6.05.88.05h1.96v-1.83c0-.48-.01-.78-.04-1.22l.88.41c.1.05.14.08.14.13,0,.04-.04.08-.12.14l-.3.24v2.13h3.13v-1.88c0-.48-.01-.78-.04-1.22l.89.4c.1.05.16.08.16.12s-.05.08-.13.16l-.31.25v2.18h1.44l.58-.73.73.72c.11.11.16.17.16.22s-.07.06-.23.06h-2.67v3.55h1.98l.56-.76.73.73ZM5.08,8.42s.07.06.07.08c0,.01-.04.02-.1.04-.38.02-.48.05-.65.17-1.89,1.37-3.14,2.11-4.29,2.57l-.07-.14c1.86-1.07,3.44-2.39,4.16-3.38l.88.67ZM7.18,6.92v-3.55h-3.13v3.55h3.13ZM6.7,7.96c1.92.78,2.77,1.26,3.23,1.77.16.18.22.42.22.64,0,.31-.12.59-.26.59-.13,0-.19-.04-.34-.31-.31-.61-1.34-1.64-2.93-2.53l.08-.16Z"/></g><g class="cls-1"><path d="m16.96 7.34-1.82.55v.84c0 .73.01 1.33.05 1.87v.08c0 .19-.05.23-.26.32-.11.05-.19.07-.25.07-.1 0-.12-.08-.12-.29v-.1c.02-.71.04-1.31.04-1.99v-.66c-1.73.53-1.81.55-1.97.77-.02.04-.05.05-.06.05-.02 0-.05-.01-.07-.05l-.38-.66 2.48-.52v-1.91h-1.31l-.24.28s-.07.06-.1.06-.06-.01-.08-.04l-.67-.55c.46-.13.53-.22.72-.74.22-.6.47-1.4.7-2.23h-.48c-.25 0-.6.05-.8.13l-.34-.44c.3.02.6.05.88.05h.82c.2-.76.38-1.51.53-2.13l.76.43c.06.04.08.06.08.08s-.02.05-.08.08l-.35.19-.41 1.34h1.34l.43-.61.58.64c.07.07.11.13.11.17 0 .05-.06.07-.16.07h-2.39l-.9 2.96h1.37v-.59c0-.49-.02-1.31-.05-1.75l.9.41c.06.04.1.06.1.1 0 .02-.04.06-.1.11l-.3.23v1.5h.53l.43-.6.55.64c.07.08.11.13.11.17 0 .05-.05.06-.16.06h-1.46v1.79l1.78-.36.05.18zm6-5.92c.1.1.13.16.13.19 0 .05-.05.06-.17.06h-5.17v3.01c0 3.39-.41 5.16-2.18 6.61l-.11-.12c1.26-1.45 1.76-2.72 1.76-6.4v-2.36c0-.5-.01-1.26-.04-1.54l.73.54h3.89l.53-.66.62.67zm-.32 6.46c-.01.26-.02.49-.02.71 0 .88.12 1.3.34 1.39.05.02.07.06.07.1 0 .02-.01.05-.02.07-.28.6-.6.77-2 .77-2 0-2.16-.22-2.16-.96v-5.34c0-.34-.01-1.02-.04-1.5l.68.49h1.67l.36-.46.72.48c.06.05.1.08.1.11 0 .04-.04.07-.1.1l-.32.16c0 .67-.04 1.66-.1 2.59-.06.95-.19 1.18-.89 1.6-.05.02-.07.04-.11.04-.05 0-.07-.04-.08-.13-.04-.23-.29-.46-1.04-.67l.04-.16c.38.07.67.11.89.11.53 0 .64-.26.68-1.02.05-.68.07-1.7.05-2.47h-1.97v5.91c0 .46.2.64 1.3.64.29 0 .59-.01.89-.05.59-.06.75-.53.9-2.49h.18z"/></g><g class="cls-1"><path d="m35.05 10.39c-.66.07-.89.18-1.09.49-.05.07-.07.1-.13.1-.05 0-2.76-.42-4.11-1.25-1.25.78-3.31 1.4-5.51 1.6v-.14c2.15-.43 3.98-1.04 5.11-1.74-.8-.64-1.34-1.33-1.77-2.01h-.12c-.91 1.03-2.29 2.33-3.25 2.82l-.08-.12c1.08-.82 2.9-2.72 3.73-4.19h-.74c0 .28-.04.31-.26.42-.12.05-.2.08-.25.08-.06 0-.08-.05-.08-.14 0-.05 0-.11.01-.18.02-.26.04-.52.04-1.2v-1.34c0-.29-.01-.86-.04-1.24l.62.5h4.82l.31-.47.73.52c.07.05.11.08.11.11 0 .04-.04.06-.11.11l-.34.23v1.74c0 .14.04.83.04.98 0 .13-.04.18-.26.3-.12.06-.19.1-.24.1-.08 0-.08-.02-.08-.52h-4.08l.42.34c.1.08.14.13.14.17 0 .02-.06.04-.16.05-.13.01-.36.17-.41.24-.1.13-.22.28-.35.43h3.87l.36-.4.58.52c.07.07.12.12.12.14 0 .05-.06.06-.17.07-.12.01-.3.13-.6.44-.42.46-1.01 1.01-1.69 1.51 1.14.54 3.06.83 4.92.79v.14zm-.78-8.81c.08.08.12.13.12.18 0 .04-.06.06-.2.06h-7.53c-1.01 1.37-1.76 2.23-2.41 2.79l-.1-.12c.82-.96 2.15-2.94 2.94-4.5l.67.43c.1.06.14.1.14.13s-.05.05-.16.07c-.25.05-.31.08-.47.31-.16.22-.3.42-.43.61h6.26l.47-.67.7.7zm-2.18 2.73v-1.2h-5.01v1.2h5.01zm0 1.36v-1.1h-5.01v1.1h5.01zm-4.29 1.75c.47.61 1.09 1.27 1.88 1.77.72-.52 1.47-1.27 1.81-1.77h-3.69z"/></g><g class="cls-1"><path d="M41.97,3.03c.06.05.08.08.08.11,0,.04-.05.05-.16.05h-2.46v.41c.43.12,1.96.54,1.96,1.24,0,.19-.1.36-.24.36-.13,0-.19-.02-.34-.24-.25-.36-.73-.83-1.38-1.18v1.21c0,.12-.04.17-.23.24-.11.04-.18.06-.23.06-.07,0-.1-.05-.1-.12v-.05c.02-.34.04-.74.04-1.2v-.72c-.97,1.39-1.67,2.12-2.9,3l-.11-.11c1.07-1.01,1.64-1.67,2.39-2.9h-.94c-.25,0-.6.05-.8.13l-.34-.44c.3.02.6.05.88.05h1.82v-1.83c0-.3-.01-.64-.04-1.03l.85.43c.06.02.08.05.08.07s-.02.05-.08.08l-.3.17v2.11h1.38l.44-.56.71.67ZM41.19,6.61s.06.06.06.07c0,.04-.04.05-.07.05-.14,0-.35.19-.44.37-.4.78-.56,1.1-.85,1.5.64.28.97.54,1.16.77.08.1.11.23.11.35,0,.2-.1.38-.24.38-.11,0-.19-.06-.38-.3-.2-.26-.49-.53-.95-.82-.67.82-1.56,1.42-3.43,2.06l-.06-.16c1.65-.77,2.55-1.49,3.08-2.13-.47-.24-1.09-.49-1.92-.76.24-.4.47-.8.66-1.2l-.82.04c-.25,0-.41.04-.6.12l-.46-.4c.3.05.56.05.84.04l1.15-.05c.22-.43.38-.85.52-1.24l.64.38s.07.05.07.07c0,.05-.04.06-.36.14l-.33.61,1.65-.07.29-.38.68.54ZM36.88.7c1.07.54,1.36.94,1.36,1.33,0,.24-.14.42-.35.42-.1,0-.2-.13-.25-.37-.07-.4-.37-.85-.82-1.27l.06-.11ZM37.79,7.94c.66.16,1.2.32,1.63.48.36-.52.62-1.09.85-1.72l-1.86.07-.62,1.16ZM45.71,3c-.28,2.12-.9,4.22-1.39,5.05.7,1.06,1.52,1.67,2.87,2.24l-.05.12c-.13-.01-.24-.01-.34-.01-.32,0-.52.06-.72.28-.02.02-.06.05-.08.05-.07,0-1.29-1.07-2.03-2.22-1.2,1.39-2.23,2.17-4.08,2.85l-.05-.17c1.56-.73,3.01-1.91,3.87-3.13-.49-1.01-.89-2.57-1.02-4.08-.38.83-.77,1.56-1.19,2.21l-.12-.1c.95-2.04,1.75-4.39,2.12-6.08l.82.47c.06.04.08.06.08.08s-.04.04-.13.06c-.23.05-.28.12-.38.42-.23.61-.46,1.16-.66,1.69h2.71l.44-.55.68.66s.07.08.07.11-.04.05-.14.05h-1.3ZM41.62,1.08c.06.04.1.06.1.08s-.04.04-.11.05c-.36.04-.47.07-1.59,1.36l-.14-.1c.41-.6.74-1.16,1.04-1.79l.71.4ZM43.13,3c-.08.2-.17.4-.25.59.34,2.03.7,3.12,1.15,3.97.42-.82.84-2.53,1.03-4.56h-1.93Z"/></g></g></g></svg>
