<svg xmlns="http://www.w3.org/2000/svg" viewBox="0 0 22.43 11.23"><defs><style>.cls-1{isolation:isolate}</style></defs><path d="M3.57 1.14c.06.05.08.08.08.11 0 .04-.04.05-.11.07-.46.11-.49.13-.76.56l-1.2 1.96C3 5.05 3.16 5.78 3.16 6.56c0 1.08-1.14 1.65-1.27 1.65-.06 0-.08-.06-.1-.18-.04-.29-.4-.56-1.09-.71v-.17c.38.07.68.11.92.11.67 0 .97-.32.97-.96 0-.55-.3-1.44-1.27-2.46l1.1-2.63H.59v6.94c0 1.34.01 1.81.05 2.35v.1c0 .16-.04.2-.26.31-.12.06-.2.1-.25.1-.08 0-.11-.08-.11-.29v-.12c.02-.71.04-1.79.04-2.47V2.05C.05 1.56.02.74 0 .3l.8.66h1.55l.44-.53zm1.5 6.56c.08.06.12.1.12.13s-.06.07-.18.1c-.16.04-.31.13-.37.22-.68.9-1.86 2.17-2.54 2.72l-.13-.1c.9-.92 2.06-2.61 2.41-3.55l.7.48ZM6.81.43c.1.06.13.1.13.13s-.06.07-.19.11c.76 1.64 2.18 2.62 3.66 2.99v.13c-.6 0-.85.07-1 .25-.06.07-.11.11-.16.11-.04 0-.07-.02-.13-.06C8.06 3.3 7.22 2.42 6.55.73c-.1.04-.18.1-.23.16-1.06 1.44-1.99 2.65-3.45 3.89l-.13-.12c1.4-1.5 2.58-3.14 3.31-4.65l.76.43Zm2.94 5.93c.1.1.14.16.14.2s-.06.06-.19.06H6.63v3.3c0 .66-.11.88-.71 1.22-.08.05-.14.08-.18.08-.06 0-.07-.05-.1-.16-.07-.35-.46-.62-1.43-.88v-.16c.65.12 1.06.17 1.33.17.47 0 .52-.16.52-.42V6.6H4.44c-.25 0-.6.05-.8.13l-.34-.44c.3.02.6.05.88.05h1.88V4.56h-.89c-.25 0-.6.05-.8.13l-.34-.44c.3.02.6.05.88.05h2.54l.42-.59.59.59c.11.1.16.16.16.2s-.06.06-.2.06H6.63v1.78h1.99l.52-.62.61.62Zm-2.36 1.2c1.96 1.08 2.49 1.66 2.49 2.22 0 .35-.2.6-.35.6-.13 0-.2-.1-.32-.36-.38-.8-.66-1.37-1.92-2.34zM22.31 4.98c.08.08.12.13.12.17 0 .05-.05.06-.16.06h-6.7l-.85 1.71h4.32l.41-.54.84.65s.06.05.06.06c0 .02-.02.05-.06.07l-.49.29c-.25 1.02-.61 2.05-.86 2.53-.26.52-.7.84-1.62 1.16-.04.01-.06.01-.08.01-.05 0-.06-.02-.07-.11-.05-.46-.18-.61-1.51-1.14l.04-.18c.97.34 1.54.5 1.91.5.4 0 .58-.19.8-.56.35-.58.6-1.39.83-2.53h-4.46l-.3.3s-.04.02-.05.02c-.04 0-.06-.01-.11-.06l-.56-.52c.41-.16.52-.22.62-.44l.6-1.24h-2.69c-.25 0-.6.05-.8.13l-.34-.44c.3.02.6.05.88.05h9.06l.52-.7.73.73ZM20.11.73c.06.05.1.07.1.11s-.04.07-.1.12l-.37.26v1.25c0 .41 0 .75.04 1.29v.1c0 .16-.04.2-.29.31-.11.05-.18.07-.23.07-.07 0-.08-.06-.08-.16v-.52h-4.86v.3c0 .17-.02.22-.23.3-.12.05-.19.08-.25.08-.08 0-.11-.07-.11-.24v-.16c.04-.68.04-.82.04-1.24V1.32c0-.29-.01-.86-.04-1.24l.78.61h4.51l.31-.52.78.53Zm-.94 2.58V.98h-4.86v2.33z" class="cls-1"/></svg>