<svg xmlns="http://www.w3.org/2000/svg" id="_图层_2" data-name="图层 2" viewBox="0 0 71.31 11.36"><defs><style>.cls-1{isolation:isolate}</style></defs><g id="_图层_1-2" data-name="图层 1"><path d="M5.33 3.83c.05.06.08.1.08.13s-.05.05-.13.05H3.01v.79c1.04.31 1.69.73 1.8 1 .05.13.07.25.07.36 0 .28-.13.47-.3.47-.11 0-.18-.06-.28-.3-.16-.36-.56-.84-1.3-1.34V8.3c0 .94 0 1.9.02 2.35v.1c0 .16-.04.2-.29.31-.11.05-.19.07-.25.07-.07 0-.1-.06-.1-.22v-.17c.04-.74.06-1.79.06-2.47V5.2C1.83 6.46 1.02 7.69.11 8.77l-.13-.1C1.02 7.16 1.86 5.54 2.44 4H1.25c-.25 0-.6.05-.8.13l-.34-.44c.3.02.6.05.88.05h1.45V1.58q-.915.15-1.98.3v-.17C1.9 1.41 3.55.94 4.68.53l.44.58s.05.07.05.1-.01.04-.06.04c-.06 0-.37-.05-.44-.05-.12 0-.23.01-.35.04-.41.08-.85.17-1.33.25v2.25h1.13l.5-.68.68.77Zm5.9 2.66s.06.06.06.08c0 .04-.02.06-.08.07l-2.18.41v1.5c0 1.09.02 1.67.06 2.12 0 .04.01.07.01.1 0 .16-.07.22-.31.31-.11.05-.19.07-.25.07-.08 0-.11-.07-.11-.28v-.11c.02-.71.04-1.4.04-2.17V7.15l-3.13.59c-.26.05-.65.2-.86.3l-.38-.41c.41-.02.65-.06.97-.12l3.41-.62V1.76c0-.61-.02-1.32-.05-1.76l.89.54c.06.04.08.06.08.1 0 .02-.02.06-.08.1l-.28.19v5.86l.9-.17.4-.77.91.64Zm-5.4-2.34c.5.25 1.42.72 1.42 1.38 0 .29-.14.59-.32.59-.11 0-.17-.07-.26-.42-.07-.29-.42-.94-.91-1.43l.08-.12Zm.05-2.69c.19.06 1.67.54 1.67 1.26 0 .26-.14.56-.34.56-.08 0-.18-.06-.25-.26-.13-.4-.56-1.06-1.14-1.46zM22.77 7.42c.13.12.19.19.19.25 0 .05-.08.07-.24.07h-4.7v2.22c0 .73-.23 1-.98 1.28-.02.01-.05.01-.07.01-.05 0-.07-.02-.07-.08-.02-.37-.4-.64-1.38-.84l.02-.19c.71.12 1.15.19 1.44.19.42 0 .48-.14.48-.44V7.74h-4.08c-.25 0-.6.05-.8.13l-.34-.44c.3.02.6.05.88.05h4.34c0-.68-.01-1.01-.02-1.24l.68.36 1.46-1.43h-4.29c-.25 0-.6.05-.8.13l-.34-.44c.3.02.6.05.88.05h4.57l.5-.37.59.55c.11.1.16.16.16.18 0 .05-.02.05-.2.05-.31 0-.92.31-2.34 1.38.02.02.04.05.04.06 0 .05-.04.07-.31.19v.53h3.5l.56-.71.68.65Zm.15-4.06s.07.07.07.1c0 .04-.04.05-.08.06-.48.05-.74.29-1.62 1.33l-.14-.06.68-1.34h-8.26c0 1.22-.55 1.58-.94 1.58-.18 0-.31-.08-.31-.26 0-.13.08-.29.34-.47.41-.29.61-.82.67-1.69h.17c.02.2.05.4.06.58h5.25c.83-1.18 1.34-2.03 1.75-2.9l.74.42c.12.06.17.11.17.14 0 .05-.06.07-.18.11-.26.07-.36.13-.68.5l-1.52 1.73h2.64l.42-.49.78.67ZM14.19.53c.96.58 1.51 1.07 1.62 1.44.01.06.02.12.02.18 0 .32-.23.62-.37.62s-.23-.13-.28-.44c-.1-.55-.5-1.19-1.1-1.67zm2.73-.45c.71.67 1.15 1.21 1.26 1.57.01.05.02.11.02.16 0 .32-.28.66-.49.66-.11 0-.18-.17-.18-.41 0-.46-.31-1.34-.77-1.88zM28.91 7.6c-2.04 1.93-2.25 2.23-2.45 2.73-.02.06-.05.1-.08.1-.02 0-.05-.02-.08-.05l-.68-.62c.48-.36.53-.46.53-1.09V4.3l-.92.04c-.34.01-.55.04-.77.11l-.34-.36c.13.01.25.01.41.01s.35 0 .62-.01l.98-.04.41-.54.76.61c.08.06.12.11.12.13 0 .04-.04.06-.12.1l-.58.29v4.4l2.04-1.58.16.14ZM25.66.53c1.28.64 1.74 1.06 1.74 1.6 0 .38-.23.64-.41.64-.14 0-.19-.05-.32-.49-.17-.56-.41-.95-1.1-1.61l.1-.13Zm9.5 3.68c.06.07.1.12.1.14s-.05.04-.12.04h-3.42v4.34c0 .91.01 1.54.04 2.04v.07c0 .16-.05.22-.31.34-.12.06-.2.08-.26.08-.08 0-.11-.06-.11-.24v-.16c.04-.7.05-1.1.05-2.16V4.38h-2.09c-.49 0-.66.02-.83.1l-.4-.4c.31.02.61.04.96.04h2.35V1.83c0-.94 0-1.31-.02-1.81l.98.5c.07.04.12.07.12.1 0 .04-.04.06-.1.11l-.38.25v3.14h2.18l.52-.73zM42.1 3.03c.06.05.08.08.08.11 0 .04-.05.05-.16.05h-2.46v.41c.43.12 1.95.54 1.95 1.24 0 .19-.1.36-.24.36-.13 0-.19-.02-.34-.24-.25-.36-.73-.83-1.38-1.18v1.21c0 .12-.04.17-.23.24-.11.04-.18.06-.23.06-.07 0-.1-.05-.1-.12v-.05c.02-.34.04-.74.04-1.2V3.2c-.97 1.39-1.67 2.12-2.9 3l-.11-.11c1.07-1.01 1.64-1.67 2.39-2.9h-.94c-.25 0-.6.05-.8.13l-.34-.44c.3.02.6.05.88.05h1.82V1.1c0-.3-.01-.64-.04-1.03l.85.43c.06.02.08.05.08.07s-.02.05-.08.08l-.3.17v2.11h1.38l.44-.56.71.67Zm-.78 3.58s.06.06.06.07c0 .04-.04.05-.07.05-.14 0-.35.19-.44.37-.4.78-.56 1.1-.85 1.5.64.28.97.54 1.16.77.08.1.11.23.11.35 0 .2-.1.38-.24.38-.11 0-.19-.06-.38-.3-.2-.26-.49-.53-.95-.82-.67.82-1.56 1.42-3.43 2.06l-.06-.16c1.65-.77 2.55-1.49 3.08-2.13-.47-.24-1.09-.49-1.92-.76.24-.4.47-.8.66-1.2l-.82.04c-.25 0-.41.04-.6.12l-.46-.4c.3.05.56.05.84.04l1.15-.05c.22-.43.38-.85.52-1.24l.64.38s.07.05.07.07c0 .05-.04.06-.36.14l-.34.61 1.65-.07.29-.38.68.54ZM37.01.7c1.07.54 1.35.94 1.35 1.33 0 .24-.14.42-.35.42-.1 0-.2-.13-.25-.37-.07-.4-.37-.85-.82-1.27L37 .7Zm.92 7.24c.66.16 1.2.32 1.63.48.36-.52.62-1.09.85-1.72l-1.86.07-.62 1.16ZM45.84 3c-.28 2.12-.9 4.22-1.39 5.05.7 1.06 1.52 1.67 2.87 2.24l-.05.12c-.13-.01-.24-.01-.34-.01-.32 0-.52.06-.72.28-.02.02-.06.05-.08.05-.07 0-1.29-1.07-2.03-2.22-1.2 1.39-2.23 2.17-4.08 2.85l-.05-.17c1.56-.73 3.01-1.91 3.87-3.13-.49-1.01-.89-2.57-1.02-4.08-.38.83-.77 1.56-1.19 2.21l-.12-.1c.95-2.04 1.75-4.39 2.12-6.08l.82.47c.06.04.08.06.08.08s-.04.04-.13.06c-.23.05-.28.12-.38.42-.23.61-.46 1.16-.66 1.69h2.71l.44-.55.68.66s.07.08.07.11-.04.05-.14.05h-1.3Zm-4.09-1.92c.06.04.1.06.1.08s-.04.04-.11.05c-.36.04-.47.07-1.6 1.36l-.14-.1c.41-.6.74-1.16 1.04-1.79zM43.26 3c-.08.2-.17.4-.25.59.34 2.03.7 3.12 1.15 3.97.42-.82.84-2.53 1.03-4.56zM51.87 3.86c.12.07.18.12.18.16 0 .02-.06.05-.19.08-.14.04-.3.18-.41.32-.19.25-.37.5-.55.73v3.66c0 .74.01 1.37.04 1.91v.08c0 .13-.04.19-.26.31-.13.07-.23.12-.28.12-.07 0-.1-.06-.1-.19 0-.06 0-.14.01-.24.06-.61.11-1.44.11-2.01V5.78c-.84 1.07-1.55 1.88-2.12 2.48l-.13-.13c.73-.9 2.45-3.33 3.03-4.67zm2.08-2.03c.08.08.12.13.12.17s-.07.05-.22.05h-2.1c.68.52.89.85.89 1.15 0 .23-.19.47-.37.47-.11 0-.22-.11-.24-.34-.02-.24-.25-.89-.56-1.28h-1.12c-.72 1.04-1.34 1.87-2.03 2.61l-.16-.1c.88-1.24 2.05-3.27 2.55-4.53l.76.4c.11.06.17.11.17.14s-.06.06-.18.08c-.11.02-.3.17-.4.32-.18.29-.36.55-.54.8h2.31l.46-.62.65.67Zm5.14 3.66c.06.06.1.11.1.14s-.05.06-.16.06h-2.44v4.08c0 .77-.05 1.02-.92 1.4-.05.02-.07.04-.11.04s-.06-.05-.08-.13c-.11-.42-.35-.58-1.6-.91l.04-.17c.9.17 1.43.25 1.73.25.35 0 .4-.12.4-.36v-4.2h-2.99c-.25 0-.6.05-.8.13l-.34-.44c.3.02.6.05.88.05h3.25c0-.52-.02-1.44-.05-1.85l.9.41s.07.05.07.07-.02.05-.07.08l-.3.2v1.08h1.3l.44-.72.76.78Zm-6.43.95c1.18.56 1.65 1.03 1.71 1.38.01.07.01.14.01.2 0 .34-.14.61-.36.61-.16 0-.29-.29-.32-.47-.07-.41-.48-1.06-1.13-1.61l.08-.12Zm5.99-4.63c.08.08.13.14.13.19s-.06.06-.19.06H56.3c.67.46.89.79.89 1.1 0 .26-.18.49-.37.49-.11 0-.18-.08-.2-.28-.05-.35-.24-.86-.62-1.32h-1.12c-.61.92-1.31 1.87-1.72 2.31l-.17-.11C53.93 2.87 54.9.95 55.21 0l.76.4c.07.04.11.07.11.1 0 .04-.05.06-.13.1-.12.04-.29.22-.38.37-.16.25-.32.53-.52.82h2.55l.44-.62zM71.19 5.02c.08.08.12.13.12.17 0 .05-.05.06-.16.06h-6.7l-.85 1.71h4.32l.41-.54.84.65s.06.05.06.06c0 .02-.02.05-.06.07l-.49.29c-.25 1.02-.61 2.05-.86 2.53-.26.52-.7.84-1.62 1.16-.04.01-.06.01-.08.01-.05 0-.06-.02-.07-.11-.05-.46-.18-.61-1.51-1.14l.04-.18c.97.34 1.54.5 1.91.5.4 0 .58-.19.8-.56.35-.58.6-1.39.83-2.53h-4.46l-.3.3s-.04.02-.05.02c-.04 0-.06-.01-.11-.06l-.56-.52c.41-.16.52-.22.62-.44l.6-1.24h-2.69c-.25 0-.6.05-.8.13l-.34-.44c.3.02.6.05.88.05h9.06l.52-.7.73.73ZM68.99.78c.06.05.1.07.1.11s-.04.07-.1.12l-.37.26v1.25c0 .41 0 .76.04 1.3v.1c0 .16-.04.2-.29.31-.11.05-.18.07-.23.07-.07 0-.08-.06-.08-.16v-.52H63.2v.3c0 .17-.02.22-.23.3-.12.05-.19.08-.25.08-.08 0-.11-.07-.11-.24V3.9c.04-.68.04-.82.04-1.24V1.38c0-.29-.01-.86-.04-1.24l.78.61h4.51l.31-.52.78.53Zm-.94 2.58V1.03h-4.86v2.33z" class="cls-1"/></g></svg>