<svg viewBox="0 0 22.52 11.21" xmlns="http://www.w3.org/2000/svg"><defs><style>.cls-1 {
        isolation: isolate;
      }</style></defs><g id="a"><g><g class="cls-1"><path d="M3.53,1.13c.06.05.1.08.1.12s-.05.05-.12.07c-.36.11-.5.18-.65.47l-1.18,2.28c1.22,1.04,1.67,1.75,1.67,2.51,0,1.19-1.21,1.73-1.32,1.73-.04,0-.07-.02-.1-.11-.1-.34-.34-.47-1.13-.76l.02-.14c.44.11.79.16,1.06.16.67,0,.86-.34.86-1.13,0-.41-.32-1.27-1.37-2.25l1.09-2.79H.59v6.82c0,.91.01,1.82.04,2.36v.08c0,.17-.05.2-.29.31-.1.04-.17.06-.22.06-.08,0-.11-.07-.11-.28v-.1c.02-.71.04-1.79.04-2.47V2.15C.05,1.66.02.84,0,.4l.79.61h1.52l.44-.54.77.66ZM5.6,4.71c.06.02.08.06.08.08s-.01.06-.06.08l-.32.22c-.17,3.61-.23,5-3.53,6.12l-.06-.13c2.85-1.49,2.99-2.09,3.01-6.76l.88.4ZM10.39,4.34c-.58,0-.8.07-1.01.3-.04.04-.07.06-.11.06-.02,0-.05-.01-.08-.04-1.69-1.15-2.37-2.15-2.81-3.92-1.18,2.21-2.17,3.56-3.37,4.46l-.11-.12c1.18-1.16,2.4-3.13,3-5.08l.8.48s.07.06.07.07c0,.05-.24.06-.29.07.62,1.59,1.63,3.11,3.9,3.6v.12ZM8.11,4.71c.06.04.1.06.1.08s-.02.05-.07.07l-.35.23v3.48c0,.91.01,1.46.05,2v.1c0,.16-.04.2-.29.31-.12.06-.19.08-.25.08-.07,0-.1-.06-.1-.2,0-.32.02-1.96.02-2.33v-2.53c0-.49-.02-1.27-.05-1.71l.94.42Z"/></g><g class="cls-1"><path d="m17.07 5.45c1 2.05 2.85 3.83 5.45 4.37v.14c-.13-.01-.24-.01-.35-.01-.47 0-.75.1-.98.32-.04.04-.07.06-.1.06s-.05-.01-.08-.04c-2.11-1.51-3.14-2.77-3.93-4.33v2.33c0 .91.01 1.81.04 2.35v.07c0 .18-.05.23-.31.34-.11.05-.19.07-.25.07-.07 0-.1-.06-.1-.22v-.17c.04-.7.06-1.79.06-2.47v-2.13c-1.01 1.66-2.84 3.27-5.29 4.39l-.06-.16c2.25-1.24 4.34-3.2 5.35-5.17v-2.38h-4.19c-.25 0-.6.05-.8.13l-.34-.44c.3.02.6.05.88.05h4.45v-1.44c-1.24.1-2.7.19-4.13.24v-.17c2.64-.26 6.07-.76 7.34-1.17l.53.61c.06.07.08.12.08.14s-.01.04-.06.04c-.04 0-.47-.05-.56-.05-.19 0-.41.02-.68.07-.42.07-1.12.16-1.97.24v1.49h3.89l.48-.66.89.78c.06.05.1.08.1.11s-.05.04-.12.04h-5.23v2.63zm-1.81-2.04c.11.05.16.07.16.11 0 .02-.05.07-.14.13l-.22.16v1.98c0 .12.02.73.02.86 0 .17-.44.31-.5.31s-.07-.06-.07-.22v-.61l-1.28.41c-.43.13-.78.34-.98.54-.02.02-.05.04-.06.04-.02 0-.05-.01-.08-.05l-.44-.52 2.85-.65v-1.22h-1.56c-.25 0-.6.05-.8.13l-.34-.44c.3.02.6.05.88.05h1.82c0-.49 0-.73-.04-1.32l.79.31zm6.57 1.66c.01.92.06 1.04.3 1.2.05.04.07.06.07.1 0 .01 0 .04-.02.07-.34.59-.68.59-1.86.59-1.56 0-1.7-.06-1.7-.79v-1.67c0-.44-.01-1.15-.04-1.56l.84.42c.07.04.11.06.11.08s-.04.06-.11.11l-.28.17v1.26c.71-.4 1.38-.8 2.07-1.34l.55.48s.06.06.06.08c0 .04-.05.05-.16.05-.26 0-.74.17-2.53 1.01v.84c0 .37.12.37.91.37.37 0 .73 0 .88-.01.52-.04.61-.16.74-1.45h.16z"/></g></g></g></svg>
