<svg xmlns="http://www.w3.org/2000/svg" viewBox="0 0 47.05 11.38"><defs><style>.cls-1{isolation:isolate}</style></defs><path d="M10.75 2.95s.08.07.08.11-.05.06-.16.07c-.4.04-.74.2-1.38.84l-.12-.07.55-.92H2.1v.56c0 5.01-.44 6.18-1.98 7.8L0 11.23c1.08-1.39 1.54-3 1.54-6.19V3.72c0-.5-.01-1.04-.02-1.6l.72.6h3.07V.92C5.31.61 5.3.3 5.26 0l.86.36c.1.04.14.07.14.11s-.04.06-.38.28v.56h2.93l.47-.67.7.67c.1.1.13.14.13.18 0 .05-.06.06-.2.06H5.89v1.18h3.83l.3-.4.74.62Zm.07 7.34c.1.1.14.16.14.2s-.07.06-.22.06H2.76c-.25 0-.6.05-.8.13l-.34-.44c.3.02.6.05.88.05h2.43V7.44c0-.47-.01-.76-.04-1.18l.8.32c.1.04.14.07.14.11 0 .05-.04.08-.34.31v3.29h1.43V7.36c0-.47-.01-.76-.04-1.18l.8.31c.1.04.14.07.14.11s-.04.07-.34.3v2.51c.55-.58 1.28-1.46 1.76-2.21l.61.41c.07.05.11.1.11.13 0 .05-.05.08-.16.11-.13.04-.26.08-.34.14L7.47 9.64v.64H9.6l.54-.64.64.64ZM9.61 4.32c0 .59.12.88.32 1.02.05.04.07.06.07.11 0 .1-.3.54-.82.59-.72.05-1.67.07-2.3.07C5.3 6.11 5.3 6 5.3 4.79l-1.46.22c-.26.04-.59.13-.78.24l-.4-.37c.32 0 .61-.04.89-.07l1.75-.25v-.64c0-.24-.01-.61-.02-.84l.83.35c.06.02.08.05.08.07 0 .04-.04.06-.35.29v.7l1.81-.26.35-.62.66.48c.11.07.16.12.16.16s-.05.05-.16.07l-2.82.42v.23c0 .7.11.7 1.03.7.68 0 1.6-.04 1.98-.08.37-.05.48-.19.59-1.24h.17ZM2.87 7.1c.74.5 1.44 1.08 1.44 1.66 0 .38-.23.54-.38.54-.1 0-.14-.06-.22-.35-.17-.66-.36-1.07-.91-1.74zM17.94 3.06c.06.05.08.08.08.11 0 .04-.05.05-.16.05H15.4v.41c.43.12 1.95.54 1.95 1.24 0 .19-.1.36-.24.36-.13 0-.19-.02-.34-.24-.25-.36-.73-.83-1.38-1.18v1.21c0 .12-.04.17-.23.24-.11.04-.18.06-.23.06-.07 0-.1-.05-.1-.12v-.05c.02-.34.04-.74.04-1.2v-.72c-.97 1.39-1.67 2.12-2.9 3l-.11-.11c1.07-1.01 1.64-1.67 2.39-2.9h-.94c-.25 0-.6.05-.8.13l-.34-.44c.3.02.6.05.88.05h1.82V1.13c0-.3-.01-.64-.04-1.03l.85.43c.06.02.08.05.08.07s-.02.05-.08.08l-.3.17v2.11h1.38l.44-.56.71.67Zm-.78 3.57s.06.06.06.07c0 .04-.04.05-.07.05-.14 0-.35.19-.44.37-.4.78-.56 1.1-.85 1.5.64.28.97.54 1.16.77.08.1.11.23.11.35 0 .2-.1.38-.24.38-.11 0-.19-.06-.38-.3-.2-.26-.49-.53-.95-.82-.67.82-1.56 1.42-3.43 2.06l-.06-.16c1.65-.77 2.55-1.49 3.08-2.13-.47-.24-1.09-.49-1.92-.76.24-.4.47-.8.66-1.2l-.82.04c-.25 0-.41.04-.6.12l-.46-.4c.3.05.56.05.84.04L14 6.56c.22-.43.38-.85.52-1.24l.64.38s.07.05.07.07c0 .05-.04.06-.36.14l-.34.61 1.65-.07.29-.38.68.54ZM12.85.72c1.07.54 1.35.94 1.35 1.33 0 .24-.14.42-.35.42-.1 0-.2-.13-.25-.37-.07-.4-.37-.85-.82-1.27l.06-.11Zm.91 7.24c.66.16 1.2.32 1.63.48.36-.52.62-1.09.85-1.72l-1.86.07-.62 1.16Zm7.92-4.94c-.28 2.12-.9 4.22-1.39 5.05.7 1.06 1.52 1.67 2.87 2.24l-.05.12c-.13-.01-.24-.01-.34-.01-.32 0-.52.06-.72.28-.02.02-.06.05-.08.05-.07 0-1.29-1.07-2.03-2.22-1.2 1.39-2.23 2.17-4.08 2.85l-.05-.17c1.56-.73 3.01-1.91 3.87-3.13-.49-1.01-.89-2.57-1.02-4.08-.38.83-.77 1.56-1.19 2.21l-.12-.1c.95-2.04 1.75-4.39 2.12-6.08l.82.47c.06.04.08.06.08.08s-.04.04-.13.06c-.23.05-.28.12-.38.42-.23.61-.46 1.16-.66 1.69h2.71l.44-.55.68.66s.07.08.07.11-.04.05-.14.05h-1.3ZM17.59 1.1c.06.04.1.06.1.08s-.04.04-.11.05c-.36.04-.47.07-1.6 1.36l-.14-.1c.41-.6.74-1.16 1.04-1.79zm1.51 1.92c-.08.2-.17.4-.25.59.34 2.03.7 3.12 1.15 3.97.42-.82.84-2.53 1.03-4.56zM35.01 8.22c.06.06.08.11.08.13 0 .05-.05.06-.13.06h-5.1c0 .92.01 1.83.05 2.39v.07c0 .2-.05.25-.31.36a.7.7 0 0 1-.24.08c-.08 0-.11-.08-.11-.29v-.12c.02-.71.04-1.79.04-2.49h-4.25c-.25 0-.6.05-.8.13l-.34-.46c.3.02.6.05.88.05h4.51V6.59h-2.83v.37c0 .14-.04.17-.29.28-.1.04-.17.06-.22.06-.07 0-.1-.06-.1-.23v-.11c.02-.65.04-1.19.04-1.8V2.91c0-.26-.01-.78-.04-1.12l.83.62h3.47c.67-.79 1.31-1.77 1.61-2.4l.71.54s.06.06.06.08c0 .04-.05.06-.14.08-.28.06-.61.3-1.91 1.69h2.07l.41-.54.82.58c.06.05.1.08.1.12s-.04.07-.1.11l-.38.24v2.07c0 .77.01 1.08.06 1.61 0 .04.01.07.01.11 0 .14-.07.19-.32.3-.11.05-.18.07-.23.07-.08 0-.08-.05-.08-.49h-2.96v1.54h3.78l.61-.74.76.83Zm-5.72-3.85V2.69h-2.83v1.68zm0 1.96v-1.7h-2.83v1.7zM26.95.04c.44.25 1.68 1.03 1.68 1.62 0 .3-.22.61-.42.61-.14 0-.22-.12-.3-.54-.06-.34-.36-.92-1.06-1.56zm5.87 4.33V2.69h-2.96v1.68zm0 1.96v-1.7h-2.96v1.7zM39.53.67c.08.06.13.1.13.13 0 .05-.05.08-.12.12-.3.17-.37.26-.46.44-.35.74-.68 1.4-1.02 2.01l.43.17c.06.02.08.05.08.07 0 .04-.02.07-.07.12l-.26.29v5.1c0 .62 0 1.12.04 1.67v.05c0 .18-.07.24-.41.42-.07.04-.12.06-.17.06-.07 0-.11-.06-.11-.23 0-.05 0-.12.01-.19.06-.62.08-1.2.08-1.8V4.05c-.55.94-1.09 1.69-1.63 2.29l-.16-.11c1.22-1.81 2.18-3.74 2.91-6.01l.71.44Zm7.43 9.13c.07.06.1.11.1.16 0 .06-.05.1-.14.1h-7.34c-.25 0-.6.05-.8.13l-.34-.44c.3.04.6.05.88.05h3.71c.92-3.06 1.18-3.98 1.51-6.09l.86.56c.07.05.11.08.11.12 0 .02-.04.05-.07.06-.2.08-.29.18-.56.97-.54 1.54-1.04 2.96-1.55 4.38h2.29l.52-.74.84.76Zm-.44-6.83c.1.07.13.13.13.17 0 .06-.07.08-.18.08h-6.14c-.25 0-.6.05-.8.13l-.34-.44c.3.04.6.05.88.05h5.11l.52-.73.83.74Zm-6.21 1.19c.9 1.22 1.8 2.88 1.8 3.69 0 .58-.29.92-.56.92-.16 0-.23-.1-.23-.73 0-.84-.26-2.27-1.14-3.79l.13-.1ZM41.75.05c1.18.64 1.68 1.2 1.75 1.54.01.07.02.14.02.22 0 .37-.22.65-.42.65-.14 0-.19-.06-.29-.46-.11-.42-.53-1.19-1.14-1.82l.07-.12Z" class="cls-1"/></svg>