<svg viewBox="0 0 47.2 11.35" xmlns="http://www.w3.org/2000/svg"><defs><style>.cls-1 {
        isolation: isolate;
      }</style></defs><g id="a"><g><g class="cls-1"><path d="M10.75,2.95s.08.07.08.11-.05.06-.16.07c-.4.04-.74.2-1.38.84l-.12-.07.55-.92H2.1v.56c0,5.01-.44,6.18-1.98,7.8l-.12-.11c1.08-1.39,1.54-3,1.54-6.19v-1.32c0-.5-.01-1.04-.02-1.59l.72.6h3.07V.92c0-.31-.01-.62-.05-.92l.86.36c.1.04.14.07.14.11s-.04.06-.38.28v.56h2.93l.47-.67.7.67c.1.1.13.14.13.18,0,.05-.06.06-.2.06h-4.02v1.18h3.83l.3-.4.74.62ZM10.82,10.29c.1.1.14.16.14.2s-.07.06-.22.06H2.76c-.25,0-.6.05-.8.13l-.34-.44c.3.02.6.05.88.05h2.43v-2.85c0-.47-.01-.75-.04-1.17l.8.32c.1.04.14.07.14.11,0,.05-.04.08-.34.31v3.29h1.43v-2.93c0-.47-.01-.76-.04-1.18l.8.31c.1.04.14.07.14.11s-.04.07-.34.3v2.51c.55-.58,1.28-1.46,1.76-2.21l.61.41c.07.05.11.1.11.13,0,.05-.05.08-.16.11-.13.04-.26.08-.34.14l-1.99,1.65v.64h2.13l.54-.64.64.64ZM9.61,4.32c0,.59.12.88.32,1.02.05.04.07.06.07.11,0,.1-.3.54-.82.59-.72.05-1.67.07-2.3.07-1.58,0-1.58-.11-1.58-1.32l-1.46.22c-.26.04-.59.13-.78.24l-.4-.37c.32,0,.61-.04.89-.07l1.75-.25v-.64c0-.24-.01-.61-.02-.84l.83.35c.06.02.08.05.08.07,0,.04-.04.06-.35.29v.7l1.81-.26.35-.62.66.48c.11.07.16.12.16.16s-.05.05-.16.07l-2.82.42v.23c0,.7.11.7,1.03.7.68,0,1.59-.04,1.98-.08.37-.05.48-.19.59-1.24h.17ZM2.87,7.1c.74.5,1.44,1.08,1.44,1.66,0,.38-.23.54-.38.54-.1,0-.14-.06-.22-.35-.17-.66-.36-1.07-.91-1.74l.07-.11Z"/></g><g class="cls-1"><path d="m18.79 5c.08.1.13.16.13.2s-.07.06-.19.06h-5.61c-.24 0-.59.05-.77.12l-.32-.43c.28.02.58.05.84.05h2.94c.34-.77.61-1.52.96-2.6l.82.42c.07.04.11.08.11.11 0 .04-.05.07-.13.08-.17.02-.43.23-.53.4l-.94 1.59h1.55l.54-.7.61.7zm-.3-3.19c.1.08.14.14.14.19s-.07.06-.19.06h-4.93c-.24 0-.59.05-.77.12l-.32-.43c.28.02.58.05.84.05h4.15l.43-.61.65.62zm-5.06.67c.97.65 1.32 1.09 1.35 1.32 0 .04.01.08.01.12 0 .36-.25.6-.43.6-.14 0-.24-.06-.24-.35s-.29-1.03-.8-1.58l.11-.11zm4.12 4.26c.07.06.1.1.1.13 0 .02-.02.06-.07.08l-.34.19v1.7c0 .41.01.75.05 1.29v.1c0 .16-.04.2-.29.31-.12.05-.19.07-.23.07-.07 0-.08-.06-.08-.16v-.83h-2.72v.88c0 .18-.01.22-.23.3-.11.05-.19.07-.24.07-.08 0-.11-.07-.11-.25 0-.25.04-1.5.04-1.59v-1.75c-.01-.29-.02-.86-.05-1.24l.7.58h2.47l.34-.49.67.6zm-.86 2.64v-2.48h-2.72v2.48h2.72zm-2.21-9.34c1.09.43 1.46.76 1.46 1.16 0 .26-.18.53-.41.53-.11 0-.18-.08-.19-.2-.06-.37-.37-.96-.94-1.38l.07-.11zm6.52 4.54c1.52 1.26 1.97 2.15 1.97 3.01 0 1.27-1.34 1.75-1.44 1.75-.05 0-.08-.02-.1-.11-.07-.35-.24-.43-1.34-.73l.02-.16c.58.14 1 .22 1.31.22s.9 0 .9-1.2c0-.71-.48-1.61-1.59-2.7l1.03-3.03h-2v6.87c0 .91.01 1.78.05 2.32v.08c0 .18-.05.22-.3.32-.11.05-.19.07-.24.07-.08 0-.11-.07-.11-.25v-.13c.02-.71.04-1.75.04-2.43v-5.94c0-.49-.02-1.31-.05-1.75l.76.58h1.73l.4-.58.76.7s.07.08.07.11-.04.05-.11.07c-.2.05-.55.4-.65.6l-1.09 2.31z"/></g><g class="cls-1"><path d="m28.33 2.99c.06.06.08.1.08.12 0 .04-.05.05-.16.05h-1.94v2.24l1.86-.96.08.17-1.94 1.26v3.98c0 .86-.02.94-.72 1.2-.05.01-.08.02-.11.02-.06 0-.08-.04-.11-.12-.1-.3-.29-.47-1.15-.82l.02-.16c.6.16.97.24 1.19.24.32 0 .35-.18.35-.58v-3.44l-.4.25c-.46.29-.73.56-.78.7-.01.04-.04.06-.06.06-.04 0-.08-.04-.14-.1l-.49-.49 1.87-.96v-2.51h-.73c-.35 0-.54.04-.77.12l-.36-.42c.25.02.6.04.89.04h.97v-.82c0-.89-.01-1.56-.04-1.99l.9.5s.07.05.07.07-.02.05-.08.08l-.32.18v1.97h.92l.41-.59.68.68zm6.77 7.29c-.58.13-.9.32-1 .62-.02.07-.05.1-.16.1h-.06c-3.26-.31-3.99-.42-5.01-2.54-.62 1.48-1.19 2.23-2.16 2.89l-.1-.14c1.28-1.24 1.73-2.38 2.11-4.4l.76.35s.08.05.08.07c0 .04-.2.18-.32.26-.1.26-.19.5-.28.73.67 1.15 1.15 1.61 2.03 1.86v-3.85h-2.58c-.26 0-.5.04-.65.11l-.44-.41c.23.02.48.04.88.04h5.52l.44-.64.74.74s.08.08.08.11c0 .04-.05.05-.16.05h-3.29v1.51h1.45l.42-.62.66.67c.08.08.12.13.12.17s-.05.05-.17.05h-2.48v2.18c.36.05.78.08 1.28.08.62 0 1.38-.05 2.27-.16v.17zm-1.33-9.26c.07.05.11.08.11.12 0 .02-.04.06-.1.1l-.32.2v1.68c0 .7.01 1.01.06 1.55v.06c0 .14-.05.2-.29.35-.12.07-.19.11-.24.11-.08 0-.08-.02-.08-.58h-3.38v.41c0 .17-.04.22-.24.3-.12.05-.19.08-.25.08-.07 0-.1-.06-.1-.18 0-.06 0-.13.01-.22.02-.22.04-.73.04-1.04v-2.33c0-.61-.01-.92-.04-1.24l.71.59h3.02l.35-.5.74.54zm-.86 1.65v-1.43h-3.38v1.43h3.38zm0 1.67v-1.4h-3.38v1.4h3.38z"/></g><g class="cls-1"><path d="m42.79.96c.06.06.1.11.1.14s-.05.06-.14.06h-1.97v6.25l1.88-.47.06.19-1.94.6v1.49c0 .25.06 1.44.06 1.63 0 .16-.04.2-.29.31-.11.05-.19.07-.25.07-.08 0-.11-.07-.11-.28 0-.25.02-1.49.02-1.76v-1.28l-2.31.72c-.43.13-1.07.44-1.27.62-.02.02-.05.04-.07.04s-.05-.01-.08-.05l-.61-.61 1.58-.4v-7.07h-.42c-.25 0-.6.05-.8.13l-.34-.44c.3.02.6.05.88.05h4.88l.48-.66.67.72zm-2.57 2.19v-1.99h-2.22v1.99h2.22zm0 2.33v-2.06h-2.22v2.06h2.22zm0 2.08v-1.81h-2.22v2.36l2.22-.55zm6.98 2.33c-.74-.01-1.02.1-1.14.28-.01.02-.04.04-.07.04-.11 0-1.38-.96-2.12-2-.72 1.04-1.62 1.83-2.89 2.65l-.06-.23c1.09-.84 1.97-1.74 2.64-2.88-.82-1.33-1.15-2.93-1.42-5.33-.24.01-.52.06-.7.12l-.34-.43c.3.02.6.05.88.05h3.06l.41-.58.78.64s.07.08.07.11c0 .04-.02.07-.07.1l-.38.23c-.48 2.25-.97 3.83-1.68 5.06.73.96 1.7 1.57 3.03 2.03v.16zm-4.78-7.47c.3 2.15.73 3.68 1.42 4.81.65-1.25 1.08-2.79 1.34-4.81h-2.76z"/></g></g></g></svg>
