<svg viewBox="0 0 70.81 11.42" xmlns="http://www.w3.org/2000/svg"><defs><style>.cls-1 {
        isolation: isolate;
      }</style></defs><g id="a"><g><g class="cls-1"><path d="M10.71,3.06s.07.07.07.1-.02.04-.08.05c-.43.1-.79.31-1.54,1.12l-.11-.1.72-1.15H1.32c-.1,1.2-.73,1.37-.95,1.37-.19,0-.37-.08-.37-.2,0-.14.04-.26.17-.35.58-.37.86-.77.98-1.6h.17c.01.19.01.36.01.52h3.59v-1.22c0-.44-.01-1.18-.04-1.58l.85.43c.1.05.14.08.14.12,0,.06-.05.08-.43.3v1.95h1.06c.56-.66.99-1.19,1.59-2.05l.62.49s.07.06.07.08-.05.04-.12.04c-.23,0-.44.11-.56.22l-1.34,1.22h2.91l.34-.38.7.64ZM9,7.36s.06.06.06.08-.01.05-.06.08l-.35.24v1.88c0,.59-.08.77-.74,1.08-.04.01-.07.02-.1.02-.05,0-.07-.02-.08-.1-.1-.35-.3-.53-1.27-.77l.02-.14c.6.1.98.14,1.22.14.38,0,.41-.12.41-.38v-2h-2.66v1.63c0,.26.02,1.54.02,1.82,0,.16-.05.2-.26.31-.12.06-.19.08-.25.08-.07,0-.08-.06-.08-.19v-.08c.02-.49.04-1.28.04-1.97v-1.61h-2.54v1.87c0,.13.02.76.02.89,0,.24-.49.4-.5.4-.06,0-.08-.05-.08-.17,0-.17.04-.95.04-1.13v-1.81c0-.25-.01-.67-.02-.9l.7.59h2.4v-1.12h-1.58c0,.29,0,.31-.21.41-.13.06-.22.1-.28.1-.05,0-.06-.04-.06-.1v-.05c.04-.35.05-.59.05-1.01v-1.18c0-.29-.01-.5-.04-.74l.64.52h3.78l.31-.41.67.53s.06.05.06.07-.02.05-.07.07l-.29.14v1.08c0,.1.04.54.04.64,0,.14-.05.18-.26.28-.1.05-.17.06-.22.06-.07,0-.07-.04-.07-.41h-1.92v1.12h2.53l.29-.4.73.52ZM1.97.68c1.2.53,1.76.83,1.76,1.4,0,.24-.13.42-.25.42-.14,0-.21-.07-.28-.22-.18-.43-.5-.94-1.32-1.48l.08-.13ZM7.36,5.88v-1.55H3.32v1.55h4.04Z"/></g><g class="cls-1"><path d="m21.8.83s.06.05.06.08c0 .02-.02.05-.06.08l-.36.31v8.71c0 .44-.18.67-.76 1.03-.04.02-.07.04-.08.04-.05 0-.07-.04-.08-.12-.07-.37-.29-.54-1.4-.77l.02-.2c.53.1.91.14 1.16.14.48 0 .58-.17.58-.58v-2.91h-3.21v1.26c0 1.14.01 1.84.04 2.29v.1c0 .16-.04.2-.28.31-.11.05-.19.07-.25.07-.08 0-.11-.07-.11-.28v-.11c.02-.77.04-1.55.04-2.41v-1.24h-3.06c-.04 2.12-.91 3.56-2.21 4.67l-.13-.12c1.54-1.8 1.81-2.76 1.81-6.38v-3.15c0-.46-.02-.98-.04-1.39l.72.56h6.44l.36-.52.8.52zm-4.71 5.55v-2.46h-3.03c0 .76-.01 1.54-.02 2.46h3.06zm0-2.72v-2.57h-3.03v2.57h3.03zm3.78 0v-2.57h-3.21v2.57h3.21zm0 2.72v-2.46h-3.21v2.46h3.21z"/></g><g class="cls-1"><path d="M28.79,1.94c.06.05.1.08.1.12s-.04.07-.12.12l-.41.24c-.37,1.33-.77,2.49-1.26,3.56.64.89,1.12,1.69,1.39,2.34.06.14.1.29.1.43,0,.42-.25.74-.37.74-.23,0-.26-.02-.36-.49-.11-.6-.44-1.45-1.02-2.51-.77,1.49-1.76,2.77-3.24,4.03l-.11-.16c1.34-1.42,2.33-2.83,3.05-4.39-.49-.83-1.13-1.77-1.92-2.79l.16-.13c.74.86,1.42,1.69,1.98,2.45.43-1.02.76-2.11,1.01-3.3h-2.96c-.25,0-.6.05-.8.13l-.34-.44c.3.02.6.05.88.05h3.09l.4-.54.77.54ZM34.73,3.37c.08.1.13.16.13.19,0,.05-.06.06-.18.06h-1.83v6.51c0,.53-.1.7-.96,1.1-.04.01-.07.02-.1.02s-.05-.02-.06-.08c-.08-.42-.43-.7-1.49-.94l.02-.19c.8.12,1.3.19,1.58.19.42,0,.44-.13.44-.42V3.62h-2.69c-.25,0-.6.05-.8.13l-.34-.44c.3.02.6.05.88.05h2.95v-1.6c0-.49-.02-1.19-.05-1.63l.86.44c.08.05.13.07.13.11,0,.05-.01.06-.4.32v2.35h.73l.52-.68.64.7ZM29.2,4.59c1.01.7,1.47,1.39,1.52,1.58.02.11.04.19.04.29,0,.4-.23.61-.46.61-.12,0-.23-.08-.29-.46-.08-.54-.24-1-.92-1.91l.11-.12Z"/></g><g class="cls-1"><path d="m41.59 3.09c.06.05.08.08.08.11 0 .04-.05.05-.16.05h-2.46v.41c.43.12 1.95.54 1.95 1.24 0 .19-.1.36-.24.36-.13 0-.19-.02-.34-.24-.25-.36-.73-.83-1.38-1.18v1.21c0 .12-.04.17-.23.24-.11.04-.18.06-.23.06-.07 0-.1-.05-.1-.12v-.05c.02-.34.04-.74.04-1.2v-.72c-.97 1.39-1.67 2.12-2.9 3l-.11-.11c1.07-1.01 1.64-1.67 2.39-2.9h-.94c-.25 0-.6.05-.8.13l-.34-.44c.3.02.6.05.88.05h1.82v-1.83c0-.3-.01-.64-.04-1.03l.85.43c.06.02.08.05.08.07s-.02.05-.08.08l-.3.17v2.11h1.38l.44-.56.71.67zm-.77 3.58s.06.06.06.07c0 .04-.04.05-.07.05-.14 0-.35.19-.44.37-.4.78-.56 1.1-.85 1.5.63.28.97.54 1.16.77.08.1.11.23.11.35 0 .2-.1.38-.24.38-.11 0-.19-.06-.38-.3-.2-.26-.49-.53-.95-.82-.67.82-1.56 1.42-3.43 2.06l-.06-.16c1.66-.77 2.55-1.49 3.08-2.13-.47-.24-1.09-.49-1.92-.76.24-.4.47-.8.66-1.2l-.82.04c-.25 0-.41.04-.6.12l-.46-.4c.3.05.56.05.84.04l1.15-.05c.22-.43.38-.85.52-1.24l.64.38s.07.05.07.07c0 .05-.04.06-.36.14l-.33.61 1.66-.07.29-.38.68.54zm-4.31-5.91c1.07.54 1.35.94 1.35 1.33 0 .24-.14.42-.35.42-.1 0-.2-.13-.25-.37-.07-.4-.37-.85-.82-1.27l.06-.11zm.91 7.24c.66.16 1.2.32 1.63.48.36-.52.62-1.09.85-1.72l-1.86.07-.62 1.16zm7.92-4.94c-.28 2.12-.9 4.22-1.39 5.05.7 1.06 1.52 1.67 2.87 2.24l-.05.12c-.13-.01-.24-.01-.34-.01-.32 0-.52.06-.72.28-.02.02-.06.05-.08.05-.07 0-1.29-1.07-2.03-2.22-1.2 1.39-2.23 2.17-4.08 2.85l-.05-.17c1.56-.73 3.01-1.91 3.87-3.13-.49-1.01-.89-2.57-1.02-4.08-.38.83-.77 1.56-1.19 2.21l-.12-.1c.95-2.04 1.75-4.39 2.12-6.08l.82.47c.06.04.08.06.08.08s-.04.04-.13.06c-.23.05-.28.12-.38.42-.23.61-.46 1.16-.66 1.69h2.71l.44-.55.68.66s.07.08.07.11-.04.05-.14.05h-1.3zm-4.09-1.92c.06.04.1.06.1.08s-.04.04-.11.05c-.36.04-.47.07-1.59 1.36l-.14-.1c.41-.6.74-1.16 1.04-1.79l.71.4zm1.51 1.92c-.08.2-.17.4-.25.59.34 2.03.7 3.12 1.15 3.97.42-.82.84-2.53 1.03-4.56h-1.93z"/></g><g class="cls-1"><path d="m57.92 3.8c.12.05.18.08.18.13 0 .04-.06.1-.17.17l-.32.22v4.07c0 .91.01 1.56.05 2.1v.07c0 .18-.05.23-.31.34-.12.06-.2.08-.25.08-.06 0-.07-.06-.07-.17v-.8h-7.6l-.32.36s-.07.07-.11.07c-.02 0-.06-.01-.1-.05l-.7-.64.55-.46v-4.25c0-.49-.02-1.31-.05-1.75l.89.44c.1.05.14.08.14.12s-.05.08-.13.14l-.31.24v5.49h7.74v-4.59c0-.49-.02-1.31-.05-1.75l.95.41zm-.3-2.62c.07.06.1.11.1.14 0 .06-.07.06-.23.06-.48 0-1.39.38-3.81 1.82l-.1.16v1.82c.82-.59 1.56-1.21 2.26-1.86l.54.47c.07.06.1.1.1.13s-.05.05-.13.06c-.19.01-.38.1-.56.19l-2.2 1.22v.06c1.34.64 1.81.95 2.17 1.31.23.23.31.47.31.67 0 .25-.13.44-.26.44s-.2-.07-.37-.35c-.31-.52-.94-1.2-1.85-1.86v2.35c0 .56-.25.9-.95 1.21-.04.01-.06.02-.07.02-.05 0-.06-.04-.07-.1-.06-.34-.29-.48-1.27-.72l.02-.18c.61.1 1.02.14 1.28.14.44 0 .49-.13.49-.41v-2.43l-1.75 1.25c-.47.34-.67.55-.78.74-.04.06-.06.1-.1.1-.01 0-.04-.01-.06-.04l-.54-.41 3.23-1.9v-1.57c0-.55-.01-1.04-.02-1.29l.79.43 2.41-1.68h-6.07c-.25 0-.6.05-.8.13l-.34-.44c.3.02.6.05.88.05h6.38l.58-.43.8.67zm-7.16 1.89c.79.46 1.25.9 1.35 1.13.06.13.08.26.08.38 0 .31-.19.55-.4.55-.16 0-.22-.08-.29-.47-.07-.42-.22-.79-.88-1.48l.12-.12z"/></g><g class="cls-1"><path d="m65.59 3.09c.06.05.08.08.08.11 0 .04-.05.05-.16.05h-2.46v.41c.43.12 1.96.54 1.96 1.24 0 .19-.1.36-.24.36-.13 0-.19-.02-.34-.24-.25-.36-.73-.83-1.38-1.18v1.21c0 .12-.04.17-.23.24-.11.04-.18.06-.23.06-.07 0-.1-.05-.1-.12v-.05c.02-.34.04-.74.04-1.2v-.72c-.97 1.39-1.67 2.12-2.9 3l-.11-.11c1.07-1.01 1.64-1.67 2.39-2.9h-.94c-.25 0-.6.05-.8.13l-.34-.44c.3.02.6.05.88.05h1.82v-1.83c0-.3-.01-.64-.04-1.03l.85.43c.06.02.08.05.08.07s-.02.05-.08.08l-.3.17v2.11h1.38l.44-.56.71.67zm-.78 3.58s.06.06.06.07c0 .04-.04.05-.07.05-.14 0-.35.19-.44.37-.4.78-.56 1.1-.85 1.5.64.28.97.54 1.16.77.08.1.11.23.11.35 0 .2-.1.38-.24.38-.11 0-.19-.06-.38-.3-.21-.26-.49-.53-.95-.82-.67.82-1.56 1.42-3.43 2.06l-.06-.16c1.65-.77 2.55-1.49 3.08-2.13-.47-.24-1.09-.49-1.92-.76.24-.4.47-.8.66-1.2l-.82.04c-.25 0-.41.04-.6.12l-.46-.4c.3.05.56.05.84.04l1.15-.05c.22-.43.38-.85.52-1.24l.64.38s.07.05.07.07c0 .05-.04.06-.36.14l-.33.61 1.65-.07.29-.38.68.54zm-4.3-5.91c1.07.54 1.36.94 1.36 1.33 0 .24-.14.42-.35.42-.1 0-.2-.13-.25-.37-.07-.4-.37-.85-.82-1.27l.06-.11zm.91 7.24c.66.16 1.2.32 1.63.48.36-.52.62-1.09.85-1.72l-1.86.07-.62 1.16zm7.91-4.94c-.28 2.12-.9 4.22-1.39 5.05.7 1.06 1.52 1.67 2.87 2.24l-.05.12c-.13-.01-.24-.01-.34-.01-.32 0-.52.06-.72.28-.02.02-.06.05-.08.05-.07 0-1.29-1.07-2.03-2.22-1.2 1.39-2.23 2.17-4.08 2.85l-.05-.17c1.56-.73 3.01-1.91 3.87-3.13-.49-1.01-.89-2.57-1.02-4.08-.38.83-.77 1.56-1.19 2.21l-.12-.1c.95-2.04 1.75-4.39 2.12-6.08l.81.47c.06.04.08.06.08.08s-.04.04-.13.06c-.23.05-.28.12-.38.42-.23.61-.46 1.16-.66 1.69h2.71l.44-.55.68.66s.07.08.07.11-.04.05-.14.05h-1.3zm-4.09-1.92c.06.04.1.06.1.08s-.04.04-.11.05c-.36.04-.47.07-1.59 1.36l-.14-.1c.41-.6.74-1.16 1.04-1.79l.71.4zm1.51 1.92c-.08.2-.17.4-.25.59.34 2.03.7 3.12 1.15 3.97.42-.82.84-2.53 1.03-4.56h-1.93z"/></g></g></g></svg>
