<svg viewBox="0 0 63.68 11.3" xmlns="http://www.w3.org/2000/svg"><defs><style>.cls-1 {
        isolation: isolate;
      }</style></defs><g id="a"><g><g><g class="cls-1"><path d="M2.89,2.88c-.54,1.72-1.2,3.85-1.2,4.64,0,.25.18,1.51.18,1.8,0,.59-.2.71-.43.71-.19,0-.34-.05-.34-.47,0-.2.04-.49.11-.91.07-.43.12-.74.12-.96,0-.24-.05-.37-.17-.42-.2-.08-.59-.13-1.16-.17v-.18c1.09.05,1.26-.23,1.43-.67l1.32-3.42.14.05ZM.85,1.12c1.01.54,1.48,1.07,1.48,1.49,0,.36-.3.65-.42.65-.16,0-.23-.07-.3-.47-.1-.53-.25-.89-.88-1.55l.12-.12ZM10.81,8c-.07.55-.1,1.02-.1,1.42,0,.73.1,1.2.2,1.37.04.07.06.12.06.18,0,.11-.06.13-.17.13-.73,0-1.92-1.36-2.41-2.39-.79,1.04-1.85,1.69-3.61,2.41l-.07-.16c1.65-.84,2.75-1.71,3.48-2.78-.4-1.14-.59-2.71-.64-5.21h-3.61v2.91c0,2.48-.5,3.75-2.33,5.13l-.11-.11c1.64-1.61,1.88-3,1.88-5.31v-2.12c0-.62-.01-1.07-.04-1.32l.83.55h3.37c-.01-.66-.04-1.54-.06-2.48l.84.41s.02.19.02.2l-.26.24c-.02.77-.04,1.31-.04,1.63h1.85l.42-.6.61.61c.07.07.11.13.11.18s-.05.07-.14.07h-2.84c.05,2.21.19,3.68.47,4.65.53-.96.82-2.08,1.03-3.44l.79.49c.06.04.08.07.08.1,0,.04-.05.06-.14.08-.11.02-.22.19-.31.49-.41,1.22-.79,2.15-1.25,2.88.35.84.91,1.61,1.38,1.79l.52-2.02h.18ZM7.18,4.35c.07.07.11.13.11.17,0,.05-.05.07-.14.07h-1.88c-.25,0-.6.05-.8.13l-.34-.42c.3.02.6.05.88.05h1.31l.37-.52.5.52ZM6.97,5.84s.07.07.07.11-.02.07-.07.11l-.24.16v1.43c0,.44.01.77.04.96v.06c0,.19-.4.31-.48.31s-.08-.05-.08-.47h-1.08v.7c0,.22-.02.26-.23.35-.11.05-.17.07-.22.07-.06,0-.08-.05-.08-.17,0-.14.04-1.12.04-1.32v-1.79c0-.3-.01-.74-.04-.94l.54.43h.95l.31-.4.58.4ZM6.2,8.25v-2.17h-1.08v2.17h1.08ZM8.85.8c.59.14,1.31.42,1.31.95,0,.29-.23.46-.32.46-.08,0-.19-.11-.25-.25-.17-.42-.3-.59-.8-1.02l.07-.13Z"/></g><g class="cls-1"><path d="M22.97,5.01c.08.08.12.13.12.17,0,.05-.05.06-.16.06h-6.7l-.85,1.71h4.32l.41-.54.84.65s.06.05.06.06c0,.02-.02.05-.06.07l-.49.29c-.25,1.02-.61,2.05-.86,2.53-.26.52-.7.84-1.62,1.16-.04.01-.06.01-.08.01-.05,0-.06-.02-.07-.11-.05-.46-.18-.61-1.51-1.14l.04-.18c.97.34,1.54.5,1.91.5.4,0,.58-.19.8-.56.35-.58.6-1.39.83-2.53h-4.46l-.3.3s-.04.02-.05.02c-.04,0-.06-.01-.11-.06l-.56-.52c.41-.16.52-.22.62-.44l.6-1.24h-2.69c-.25,0-.6.05-.8.13l-.34-.44c.3.02.6.05.88.05h9.06l.52-.7.73.73ZM20.77.77c.06.05.1.07.1.11s-.04.07-.1.12l-.37.26v1.25c0,.41,0,.75.04,1.29v.1c0,.16-.04.2-.29.31-.11.05-.18.07-.23.07-.07,0-.08-.06-.08-.16v-.52h-4.86v.3c0,.17-.02.22-.23.3-.12.05-.19.08-.25.08-.08,0-.11-.07-.11-.24v-.16c.04-.68.04-.82.04-1.24v-1.28c0-.29-.01-.86-.04-1.24l.78.61h4.51l.31-.52.78.53ZM19.83,3.35V1.02h-4.86v2.33h4.86Z"/></g></g><path id="b" d="m27.99 2.36c0-.06.04-.12.08-.16.05-.05.11-.07.19-.08.1 0 .19.08.29.24l3.22 7.22 3.22-7.22c.08-.14.15-.22.22-.23.02 0 .04-.01.07-.01.16 0 .25.08.27.24 0 .05-.29.75-.88 2.09s-1.18 2.67-1.78 3.99-.9 1.99-.91 2c-.05.06-.11.1-.2.1s-.16-.03-.2-.1c0 0-.31-.67-.9-1.98s-1.18-2.64-1.78-3.99-.9-2.05-.9-2.1z"/><g><g class="cls-1"><path d="m47.05 4.84s.08.05.08.08c0 .02-.01.05-.06.08l-.3.23c-.08 1.97-.29 2.84-.61 3.36-.91 1.44-3.02 2.24-5.06 2.7l-.05-.17c2.43-.8 3.8-1.61 4.5-2.61.44-.66.59-1.8.58-4.02l.92.35zm3.43-1.27c.06.04.08.07.08.11s-.02.08-.08.12l-.42.29v2.27c0 .55.01 1.09.02 1.51v.07c0 .18-.05.25-.23.36-.13.07-.22.11-.28.11-.07 0-.1-.06-.1-.17 0-.23.01-1.37.01-1.63v-2.75h-5.7v2.74c0 .22.02 1.29.02 1.54 0 .2-.49.41-.55.41s-.08-.05-.08-.16v-.08c.04-.53.05-1.13.05-1.8v-1.87c0-.38-.01-.97-.02-1.38-.65.77-1.19 1.27-1.77 1.75l-.13-.13c1.46-1.49 2.53-3.13 3.35-4.87l.83.43s.06.05.06.07-.04.06-.1.08c-.4.17-.46.26-.82.8h3.09l.4-.53.88.73s.04.04.04.06-.04.04-.1.05c-.53.05-.74.2-2.12 1.89h2.51l.36-.59.8.56zm-2.73-1.91h-3.31c-.46.61-.86 1.15-1.13 1.47l.59.47h2.59l1.26-1.94zm-.77 6.48c2.16.6 3.44 1.24 3.78 1.77.11.17.14.34.14.48 0 .3-.17.52-.28.52-.19 0-.34-.1-.52-.38-.42-.64-1.5-1.56-3.2-2.23l.07-.16z"/></g><g class="cls-1"><path d="M63.56,5.01c.08.08.12.13.12.17,0,.05-.05.06-.16.06h-6.7l-.85,1.71h4.32l.41-.54.84.65s.06.05.06.06c0,.02-.02.05-.06.07l-.49.29c-.25,1.02-.61,2.05-.86,2.53-.26.52-.7.84-1.62,1.16-.04.01-.06.01-.08.01-.05,0-.06-.02-.07-.11-.05-.46-.18-.61-1.51-1.14l.04-.18c.97.34,1.54.5,1.91.5.4,0,.58-.19.8-.56.35-.58.6-1.39.83-2.53h-4.46l-.3.3s-.04.02-.05.02c-.04,0-.06-.01-.11-.06l-.56-.52c.41-.16.52-.22.62-.44l.6-1.24h-2.69c-.25,0-.6.05-.8.13l-.34-.44c.3.02.6.05.88.05h9.06l.52-.7.73.73ZM61.36.77c.06.05.1.07.1.11s-.04.07-.1.12l-.37.26v1.25c0,.41,0,.75.04,1.29v.1c0,.16-.04.2-.29.31-.11.05-.18.07-.23.07-.07,0-.08-.06-.08-.16v-.52h-4.86v.3c0,.17-.02.22-.23.3-.12.05-.19.08-.25.08-.08,0-.11-.07-.11-.24v-.16c.04-.68.04-.82.04-1.24v-1.28c0-.29-.01-.86-.04-1.24l.78.61h4.51l.31-.52.78.53ZM60.42,3.35V1.02h-4.86v2.33h4.86Z"/></g></g></g></g></svg>
