<svg xmlns="http://www.w3.org/2000/svg" viewBox="0 0 35.29 11.17"><defs><style>.cls-1{isolation:isolate}</style></defs><path d="M11.05 2.41c.08.08.13.13.13.17s-.06.05-.17.05H4.8C3.42 6.4 2.45 8.05.12 10.27L0 10.11c1.91-2.03 3.3-4.64 4.2-7.48H1.43c-.24 0-.38.01-.64.07l-.34-.37c.29.02.48.04.71.04h3.12c.24-.77.44-1.56.61-2.36l.85.52c.1.06.14.1.14.13 0 .02-.05.06-.14.11L5.4.94c-.18.52-.35.98-.52 1.44H9.8l.52-.72.72.77Zm-.1 7.56c.07.08.12.13.12.17s-.06.05-.19.05H2.89c-.29 0-.48.02-.71.1l-.38-.4c.34.02.56.04.88.04h3.74V5.77H4.59c-.24 0-.38.01-.58.06l-.3-.36c.26.02.44.04.72.04h4.5l.5-.66.65.71c.07.08.11.13.11.17s-.05.05-.14.05H7.03v4.16h2.69l.53-.73.72.78ZM16.84 2.77c.07.08.11.13.11.17 0 .05-.05.06-.16.06h-2v2.48l1.82-.73.06.17-1.88.93v3.91c0 .92-.04 1.07-.83 1.38-.04.01-.06.02-.07.02-.05 0-.07-.04-.08-.1-.07-.4-.2-.59-1.18-.88l.05-.17c.62.14 1 .2 1.22.2.32 0 .35-.13.35-.37V6.11c-1.03.54-1.4.83-1.54 1.01-.02.05-.06.07-.08.07-.04 0-.07-.02-.12-.08l-.5-.53 2.24-.9v-2.7h-1.06c-.25 0-.6.05-.8.13l-.34-.44c.3.02.6.05.88.05h1.32v-.98c0-.49-.02-1.31-.05-1.75l.85.44c.1.05.14.08.14.12 0 .05-.01.06-.41.31v1.86h.91l.49-.67.65.71ZM23.2 4.1c.08.07.12.12.12.16 0 .05-.05.06-.17.06h-3.42l-.07 2.27h1.55l.37-.54.73.56c.06.05.1.07.1.11s-.04.06-.1.1l-.31.17v2.33c0 .41.01.76.05 1.3v.08c0 .17-.05.22-.31.32-.11.05-.18.06-.22.06-.07 0-.08-.05-.08-.14v-.85h-4.07v.67c0 .17-.02.22-.23.3-.11.05-.19.07-.25.07-.08 0-.11-.07-.11-.28 0-.25.04-1.51.04-1.61V7.25c0-.29-.01-.86-.04-1.24l.74.58h1.54l.1-2.27h-1.97c-.25 0-.6.05-.8.13l-.34-.44c.3.02.6.05.88.05h2.24l.11-2.51c-.95.14-1.9.28-2.55.35l-.05-.16c2.17-.47 3.78-.91 4.87-1.31l.59.53q.12.12.12.18c0 .02-.02.05-.07.05-.06 0-.34-.06-.4-.06-.13 0-.28.02-.41.05-.43.08-.97.18-1.55.28l-.08 2.6h2.19l.53-.67.73.72Zm-1.76 5.71V6.85h-4.07v2.96zM35.17 4.95c.08.08.12.13.12.17 0 .05-.05.06-.16.06h-6.7l-.85 1.71h4.32l.41-.54.84.65s.06.05.06.06c0 .02-.02.05-.06.07l-.49.29c-.25 1.02-.61 2.05-.86 2.53-.26.52-.7.84-1.62 1.16-.04.01-.06.01-.08.01-.05 0-.06-.02-.07-.11-.05-.46-.18-.61-1.51-1.14l.04-.18c.97.34 1.54.5 1.91.5.4 0 .58-.19.8-.56.35-.58.6-1.39.83-2.53h-4.46l-.3.3s-.04.02-.05.02c-.04 0-.06-.01-.11-.06l-.56-.52c.41-.16.52-.22.62-.44l.6-1.24h-2.69c-.25 0-.6.05-.8.13l-.34-.44c.3.02.6.05.88.05h9.06l.52-.7.73.73ZM32.97.71c.06.05.1.07.1.11s-.04.07-.1.12l-.37.26v1.25c0 .41 0 .75.04 1.29v.1c0 .16-.04.2-.29.31-.11.05-.18.07-.23.07-.07 0-.08-.06-.08-.16v-.52h-4.86v.3c0 .17-.02.22-.23.3-.12.05-.19.08-.25.08-.08 0-.11-.07-.11-.24v-.16c.04-.68.04-.82.04-1.24V1.3c0-.29-.01-.86-.04-1.24l.78.61h4.51l.31-.52.78.53Zm-.94 2.58V.96h-4.86v2.33z" class="cls-1"/></svg>