<svg viewBox="0 0 63.71 11.05" xmlns="http://www.w3.org/2000/svg"><defs><style>.cls-1 {
        isolation: isolate;
      }</style></defs><g id="a"><g><g><g class="cls-1"><path d="m5.83 2.99c.06.05.11.1.11.13s-.02.06-.08.11l-.43.35c-.06 1.78-.19 4.07-.31 5.38-.07.76-.34 1.28-1.1 1.64-.05.02-.08.04-.12.04-.06 0-.11-.06-.14-.17-.11-.31-.36-.5-1.39-.78l.04-.18c.66.13 1.12.22 1.42.22.58 0 .66-.28.72-.91.13-1.32.28-3.95.34-5.53h-1.85c-.24 3.68-.96 5.88-2.83 7.74l-.17-.13c1.44-1.8 2.21-3.6 2.41-7.6h-1.28c-.35 0-.6.05-.8.13l-.34-.44c.3.04.6.05.88.05h1.57c.04-.92.06-1.44.06-2.04 0-.29 0-.58-.01-.94l1.02.49s.06.04.06.06c0 .01-.01.04-.05.06l-.38.23c-.01.36-.06 1.42-.11 2.13h1.6l.47-.6.73.56zm4.99-.45c.07.05.1.08.1.11 0 .04-.02.07-.1.12l-.41.3v4.77c0 .91.02 1.66.06 2.2v.08c0 .17-.05.22-.3.32-.12.05-.19.07-.24.07-.07 0-.08-.06-.08-.16v-1.12h-2.43v1.2c0 .14-.04.2-.26.3-.12.05-.2.07-.25.07-.07 0-.1-.05-.1-.17v-.13c.04-.71.05-1.34.05-2.55v-4.77c0-.29-.01-.86-.04-1.24l.79.54h2.03l.41-.53.78.59zm-.97 6.44v-6.23h-2.43v6.24h2.43z"/></g><g class="cls-1"><path d="M23,4.87c.08.08.12.13.12.17,0,.05-.05.06-.16.06h-6.7l-.85,1.71h4.32l.41-.54.84.65s.06.05.06.06c0,.02-.02.05-.06.07l-.49.29c-.25,1.02-.61,2.05-.86,2.53-.26.52-.7.84-1.62,1.16-.04.01-.06.01-.08.01-.05,0-.06-.02-.07-.11-.05-.46-.18-.61-1.51-1.14l.04-.18c.97.34,1.54.5,1.91.5.4,0,.58-.19.8-.56.35-.58.6-1.39.83-2.53h-4.46l-.3.3s-.04.02-.05.02c-.04,0-.06-.01-.11-.06l-.56-.52c.41-.16.52-.22.62-.44l.6-1.24h-2.69c-.25,0-.6.05-.8.13l-.34-.44c.3.02.6.05.88.05h9.06l.52-.7.73.73ZM20.79.62c.06.05.1.07.1.11s-.04.07-.1.12l-.37.26v1.25c0,.41,0,.75.04,1.29v.1c0,.16-.04.2-.29.31-.11.05-.18.07-.23.07-.07,0-.08-.06-.08-.16v-.52h-4.86v.3c0,.17-.02.22-.23.3-.12.05-.19.08-.25.08-.08,0-.11-.07-.11-.24v-.16c.04-.68.04-.82.04-1.24v-1.28c0-.29-.01-.86-.04-1.24l.78.61h4.51l.31-.52.78.53ZM19.85,3.2V.88h-4.86v2.33h4.86Z"/></g></g><path id="b" d="m28.01 2.21c0-.06.04-.12.08-.16.05-.05.11-.07.19-.08.1 0 .19.08.29.24l3.22 7.22 3.22-7.22c.08-.14.15-.22.22-.23.02 0 .04-.01.07-.01.16 0 .25.08.27.24 0 .05-.29.75-.88 2.09s-1.18 2.67-1.78 3.99-.9 1.99-.91 2c-.05.06-.11.1-.2.1s-.16-.03-.2-.1c0 0-.31-.67-.9-1.98s-1.18-2.64-1.78-3.99-.9-2.05-.9-2.1z"/><g><g class="cls-1"><path d="M51.3,9.89c.07.07.11.13.11.18s-.06.08-.17.08h-9.4c-.25,0-.61.05-.8.12l-.34-.43c.29.02.6.05.88.05h1.44v-4.44c0-.49-.02-1.19-.05-1.63l.94.52c.1.05.14.1.14.13s-.04.08-.12.13l-.34.22v5.07h2.55V1.46h-3.48c-.25,0-.61.05-.8.12l-.34-.43c.29.02.6.05.88.05h7.27l.5-.67.7.67c.07.06.1.12.1.17,0,.06-.05.1-.16.1h-4.08v3.73h2.29l.53-.68.7.68c.08.07.12.13.12.18s-.06.08-.17.08h-3.47v4.44h3.31l.56-.68.7.68Z"/></g><g class="cls-1"><path d="M63.59,4.87c.08.08.12.13.12.17,0,.05-.05.06-.16.06h-6.7l-.85,1.71h4.32l.41-.54.84.65s.06.05.06.06c0,.02-.02.05-.06.07l-.49.29c-.25,1.02-.61,2.05-.86,2.53-.26.52-.7.84-1.62,1.16-.04.01-.06.01-.08.01-.05,0-.06-.02-.07-.11-.05-.46-.18-.61-1.51-1.14l.04-.18c.97.34,1.54.5,1.91.5.4,0,.58-.19.8-.56.35-.58.6-1.39.83-2.53h-4.46l-.3.3s-.04.02-.05.02c-.04,0-.06-.01-.11-.06l-.56-.52c.41-.16.52-.22.62-.44l.6-1.24h-2.69c-.25,0-.6.05-.8.13l-.34-.44c.3.02.6.05.88.05h9.06l.52-.7.73.73ZM61.38.62c.06.05.1.07.1.11s-.04.07-.1.12l-.37.26v1.25c0,.41,0,.75.04,1.29v.1c0,.16-.04.2-.29.31-.11.05-.18.07-.23.07-.07,0-.08-.06-.08-.16v-.52h-4.86v.3c0,.17-.02.22-.23.3-.12.05-.19.08-.25.08-.08,0-.11-.07-.11-.24v-.16c.04-.68.04-.82.04-1.24v-1.28c0-.29-.01-.86-.04-1.24l.78.61h4.51l.31-.52.78.53ZM60.44,3.2V.88h-4.86v2.33h4.86Z"/></g></g></g></g></svg>
