<svg xmlns="http://www.w3.org/2000/svg" viewBox="0 0 23.1 11.42"><defs><style>.cls-1{isolation:isolate}</style></defs><path d="M5.91 5.5c1 2.05 2.85 3.83 5.45 4.37v.14c-.13-.01-.24-.01-.35-.01-.47 0-.76.1-.98.32-.04.04-.07.06-.1.06s-.05-.01-.08-.04C7.74 8.83 6.71 7.57 5.92 6.01v2.33c0 .91.01 1.81.04 2.35v.07c0 .18-.05.23-.31.34-.11.05-.19.07-.25.07-.07 0-.1-.06-.1-.22v-.17c.04-.7.06-1.79.06-2.47V6.18C4.35 7.84 2.52 9.45.07 10.57l-.06-.16c2.25-1.24 4.34-3.2 5.35-5.17V2.87h-4.2c-.25 0-.6.05-.8.13l-.34-.43c.3.02.6.05.88.05h4.45V1.18c-1.24.1-2.7.19-4.13.24v-.17C3.87.98 7.3.48 8.58.07l.53.61c.06.07.08.12.08.14s-.01.04-.06.04c-.04 0-.47-.05-.56-.05-.19 0-.41.02-.68.07-.42.07-1.12.16-1.97.24v1.49h3.89l.48-.66.89.78c.06.05.1.08.1.11s-.05.04-.12.04H5.93v2.63ZM4.1 3.47c.11.05.16.07.16.11 0 .02-.05.07-.14.13l-.22.16v1.98c0 .12.02.73.02.86 0 .17-.44.31-.5.31s-.07-.06-.07-.22v-.61l-1.28.41c-.43.13-.78.34-.98.54-.02.02-.05.04-.06.04-.02 0-.05-.01-.08-.05l-.44-.52 2.85-.65V4.74H1.8c-.25 0-.6.05-.8.13l-.34-.44c.3.02.6.05.88.05h1.82c0-.49 0-.73-.04-1.32l.79.31Zm6.57 1.66c.01.92.06 1.04.3 1.2.05.04.07.06.07.1 0 .01 0 .04-.02.07-.34.59-.68.59-1.86.59-1.56 0-1.7-.06-1.7-.79V4.63c0-.44-.01-1.15-.04-1.56l.84.42c.07.04.11.06.11.08s-.04.06-.11.11l-.28.17v1.26c.71-.4 1.38-.8 2.07-1.34l.55.48s.06.06.06.08c0 .04-.05.05-.16.05-.26 0-.74.17-2.53 1.01v.84c0 .37.12.37.91.37.37 0 .73 0 .88-.01.52-.04.61-.16.74-1.45h.16ZM22.96 2.37c.1.08.14.16.14.19 0 .05-.06.07-.18.07h-6.03c-.02.65-.06 1.06-.16 2.14h3.23l.38-.58.79.61c.06.05.1.08.1.12 0 .02-.04.05-.1.08l-.43.23c-.06 1.76-.25 3.54-.43 4.37-.16.71-.59 1.1-1.28 1.36-.05.01-.08.02-.11.02-.05 0-.07-.02-.08-.1-.07-.44-.5-.77-1.39-1l.04-.19c.71.14 1.18.23 1.5.23.49 0 .62-.19.72-.56.22-.83.42-2.3.46-4.34h-3.41c-.36 3.53-1.75 5.15-4.46 6.39l-.07-.14c1.86-1.02 3.19-2.51 3.69-4.59.2-.8.42-2.41.41-4.04h-2.84c-.25 0-.6.05-.8.13l-.34-.43c.3.02.6.05.88.05h8.47l.47-.79.85.78ZM16.42 0c1.28.46 1.86.91 1.86 1.5 0 .37-.22.62-.42.62-.14 0-.28-.05-.32-.37-.06-.38-.31-.95-1.19-1.63z" class="cls-1"/></svg>