<svg viewBox="0 0 59.12 11.43" xmlns="http://www.w3.org/2000/svg"><defs><style>.cls-1 {
        isolation: isolate;
      }</style></defs><g id="a"><g><g class="cls-1"><path d="M10.77,8.53c.06.06.1.11.1.13,0,.04-.05.05-.17.05h-3.14v1.14c0,.16.02.91.02,1.08,0,.19-.55.34-.56.34-.06,0-.07-.04-.07-.13v-.07c.04-.52.04-1,.04-1.32v-1.03h-2.73c-.28,1.46-1.16,2.24-3.98,2.69v-.17c2.09-.58,3.24-1.21,3.45-2.52H1.14c-.25,0-.6.05-.8.13l-.34-.44c.3.02.6.05.88.05h2.88c.05-.41.06-.78.06-1.14l.76.24c.06.02.1.04.1.06s-.18.17-.31.29c-.01.19-.04.37-.06.55h2.69c0-.38-.01-.76-.02-1.1l.8.35c.06.02.08.04.08.06,0,.04-.04.05-.29.22v.48h2l.47-.62.74.71ZM5.95,1.63s.06.06.06.08c0,.04-.04.05-.12.05h-2.36c.54.34.73.58.73.79,0,.3-.14.52-.32.52-.1,0-.18-.13-.22-.31-.05-.23-.23-.59-.53-1h-.78c-.72.96-1.43,1.77-1.99,2.27l-.12-.11C1.15,2.9,2.21,1.31,2.78.07l.83.41s.07.04.07.06c0,.01-.04.02-.11.04-.2.02-.46.23-.56.37-.13.19-.26.37-.4.55h2.34l.37-.53.62.66ZM10.96,1.66s.06.07.06.1-.04.04-.11.04h-3.01c.2.12.78.5.78.86,0,.12-.04.23-.11.3l.58.53s.06.06.06.1c0,.02-.01.05-.06.07l-.31.16v1.87c0,.8.01,1.15.04,1.57v.06c0,.12-.05.16-.25.28-.12.07-.2.1-.25.1-.07,0-.07-.01-.07-.46H2.91c0,.22-.05.26-.25.36-.12.06-.2.08-.25.08-.07,0-.1-.05-.1-.16,0-.05,0-.12.01-.19.04-.34.05-.92.05-1.29v-2.03c0-.29-.01-.91-.04-1.28l.77.56h2.13C5.98,2.21,6.73.92,7.12.01l.72.36c.07.04.12.06.12.08s-.05.04-.13.05c-.16.02-.34.18-.44.34-.16.22-.32.44-.5.68h2.89l.44-.64.74.77ZM8.3,4.49v-.95H2.91v.95h5.38ZM8.3,5.71v-.96H2.91v.96h5.38ZM8.3,6.96v-.98H2.91v.98h5.38ZM8.38,3c-.12-.02-.19-.11-.24-.23-.17-.42-.32-.65-.62-.98h-.83c-.43.56-.89,1.14-1.19,1.49h2.66l.22-.28Z"/></g><g class="cls-1"><path d="m17.91 3.02c.06.05.08.08.08.11 0 .04-.05.05-.16.05h-2.46v.41c.43.12 1.95.54 1.95 1.24 0 .19-.1.36-.24.36-.13 0-.19-.02-.34-.24-.25-.36-.73-.83-1.38-1.18v1.21c0 .12-.04.17-.23.24-.11.04-.18.06-.23.06-.07 0-.1-.05-.1-.12v-.05c.02-.34.04-.74.04-1.2v-.72c-.97 1.39-1.67 2.12-2.9 3l-.11-.11c1.07-1.01 1.64-1.67 2.39-2.9h-.94c-.25 0-.6.05-.8.13l-.34-.44c.3.02.6.05.88.05h1.82v-1.83c0-.3-.01-.64-.04-1.03l.85.43c.06.02.08.05.08.07s-.02.05-.08.08l-.3.17v2.11h1.38l.44-.56.71.67zm-.78 3.58s.06.06.06.07c0 .04-.04.05-.07.05-.14 0-.35.19-.44.37-.4.78-.56 1.1-.85 1.5.64.28.97.54 1.16.77.08.1.11.23.11.35 0 .2-.1.38-.24.38-.11 0-.19-.06-.38-.3-.2-.26-.49-.53-.95-.82-.67.82-1.56 1.42-3.43 2.06l-.06-.16c1.65-.77 2.55-1.49 3.08-2.13-.47-.24-1.09-.49-1.92-.76.24-.4.47-.8.66-1.2l-.82.04c-.25 0-.41.04-.6.12l-.46-.4c.3.05.56.05.84.04l1.15-.05c.22-.43.38-.85.52-1.24l.64.38s.07.05.07.07c0 .05-.04.06-.36.14l-.34.61 1.65-.07.29-.38.68.54zm-4.3-5.92c1.07.54 1.35.94 1.35 1.33 0 .24-.14.42-.35.42-.1 0-.2-.13-.25-.37-.07-.4-.37-.85-.82-1.27l.06-.11zm.91 7.25c.66.16 1.2.32 1.63.48.36-.52.62-1.09.85-1.72l-1.86.07-.62 1.16zm7.91-4.94c-.28 2.12-.9 4.22-1.39 5.05.7 1.06 1.52 1.67 2.87 2.24l-.05.12c-.13-.01-.24-.01-.34-.01-.32 0-.52.06-.72.28-.02.02-.06.05-.08.05-.07 0-1.29-1.07-2.03-2.22-1.2 1.39-2.23 2.17-4.08 2.85l-.05-.17c1.56-.73 3.01-1.91 3.87-3.13-.49-1.01-.89-2.57-1.02-4.08-.38.83-.77 1.56-1.19 2.21l-.12-.1c.95-2.04 1.75-4.39 2.12-6.08l.82.47c.06.04.08.06.08.08s-.04.04-.13.06c-.23.05-.28.12-.38.42-.23.61-.46 1.16-.66 1.69h2.71l.44-.55.68.66s.07.08.07.11-.04.05-.14.05h-1.3zm-4.09-1.92c.06.04.1.06.1.08s-.04.04-.11.05c-.36.04-.47.07-1.6 1.36l-.14-.1c.41-.6.74-1.16 1.04-1.79l.71.4zm1.51 1.92c-.08.2-.17.4-.25.59.34 2.03.7 3.12 1.15 3.97.42-.82.84-2.53 1.03-4.56h-1.93z"/></g><g class="cls-1"><path d="m34.97 5.66c.08.08.13.16.13.19 0 .05-.06.07-.17.07h-5.05v2.33c0 .91.01 1.8.05 2.34v.1c0 .16-.05.2-.3.31-.12.05-.19.08-.25.08-.08 0-.11-.08-.11-.26v-.13c.02-.71.04-1.77.04-2.46v-2.3h-4.32c-.25 0-.6.05-.8.13l-.34-.44c.3.02.6.05.88.05h4.58v-4.54h-3.38c-.25 0-.6.05-.8.13l-.34-.44c.3.02.6.05.88.05h7.12l.58-.68.6.68c.08.1.12.16.12.19 0 .05-.06.07-.2.07h-3.99v4.53h3.87l.54-.73.67.73zm-9.07-3.69c1.18.82 2 1.62 2 2.15 0 .47-.28.66-.47.66-.17 0-.2-.1-.29-.53-.12-.61-.58-1.38-1.33-2.15l.08-.13zm7.33.28c.07.05.11.08.11.12 0 .05-.06.08-.18.14-.32.16-.59.41-2.25 2.54l-.17-.12c.65-.96 1.48-2.39 1.83-3.15l.66.47z"/></g><g class="cls-1"><path d="M46.76,2.39c.1.08.14.16.14.19,0,.05-.06.07-.18.07h-6.03c-.02.65-.06,1.06-.16,2.13h3.23l.38-.58.79.61c.06.05.1.08.1.12,0,.02-.04.05-.1.08l-.43.23c-.06,1.76-.25,3.54-.43,4.37-.16.71-.59,1.1-1.28,1.36-.05.01-.08.02-.11.02-.05,0-.07-.02-.08-.1-.07-.44-.5-.77-1.39-1l.04-.19c.71.14,1.18.23,1.5.23.49,0,.62-.19.72-.56.22-.83.42-2.3.46-4.34h-3.41c-.36,3.53-1.75,5.15-4.46,6.39l-.07-.14c1.86-1.02,3.19-2.51,3.69-4.59.2-.8.42-2.41.41-4.04h-2.84c-.25,0-.6.05-.8.13l-.34-.43c.3.02.6.05.88.05h8.47l.47-.79.85.78ZM40.23.01c1.28.46,1.86.91,1.86,1.5,0,.37-.22.62-.42.62-.14,0-.28-.05-.32-.37-.06-.38-.31-.95-1.19-1.63l.07-.12Z"/></g><g class="cls-1"><path d="m52.44 2.96c.08.08.13.14.13.18s-.06.05-.17.05h-1.82v1.54c1.07.36 1.65.72 1.65 1.2 0 .26-.16.47-.29.47-.12 0-.22-.05-.32-.3-.19-.42-.48-.8-1.04-1.15v3.43c0 1.03 0 1.77.02 2.3v.1c0 .16-.04.2-.29.3-.11.05-.19.07-.24.07-.07 0-.1-.06-.1-.2v-.17c.04-.68.06-1.75.06-2.42v-3.93c-.56 1.56-1.24 2.93-2.01 4.05l-.16-.08c.86-1.46 1.55-3.27 2.09-5.19h-.84c-.25 0-.6.05-.8.13l-.34-.44c.3.02.6.05.88.05h1.19v-1.16c0-.48-.02-1.28-.05-1.72l.85.4c.07.04.12.06.12.1 0 .05-.31.28-.38.32v2.06h.8l.46-.58.6.61zm6.68 7.22c-.67-.04-.95.08-1.15.37-.02.04-.05.06-.07.06s-.05-.01-.07-.04c-1.83-1.31-2.87-2.83-3.44-4.94h-1.03v4.51l2.17-.9.07.17c-2.11 1.19-2.45 1.46-2.66 1.76-.02.04-.05.06-.07.06s-.05-.02-.08-.07l-.48-.62c.36-.23.5-.42.5-.82v-7.08c0-.79-.02-1.69-.04-2.04l.74.59h3.25l.35-.5.73.59c.06.05.08.08.08.12s-.02.06-.08.1l-.32.19v2.29c0 .26.06 1.44.06 1.64 0 .18-.05.22-.31.35-.1.04-.16.06-.2.06-.11 0-.11-.04-.11-.38h-2.35c.32.96.73 1.69 1.19 2.3.86-.7 1.56-1.42 2-1.98l.66.53s.07.07.07.1-.02.02-.08.04c-.29.04-.66.2-1.31.66l-1.19.84c.85 1.03 1.87 1.6 3.18 1.92v.14zm-2.17-6.89v-1.83h-3.6v1.83h3.6zm0 2.08v-1.82h-3.6v1.82h3.6z"/></g></g></g></svg>
