<svg viewBox="0 0 83.08 11.38" xmlns="http://www.w3.org/2000/svg"><defs><style>.cls-1 {
        isolation: isolate;
      }</style></defs><g id="a"><g><g class="cls-1"><path d="M10.96,10.4c-.66.07-.89.18-1.09.49-.05.07-.07.1-.13.1-.05,0-2.76-.42-4.11-1.25-1.25.78-3.31,1.4-5.51,1.6v-.14c2.15-.43,3.98-1.04,5.11-1.74-.8-.64-1.34-1.33-1.77-2.02h-.12c-.91,1.03-2.29,2.33-3.25,2.82l-.08-.12c1.08-.82,2.9-2.72,3.73-4.19h-.74c0,.28-.04.31-.26.42-.12.05-.2.08-.25.08-.06,0-.08-.05-.08-.14,0-.05,0-.11.01-.18.02-.26.04-.52.04-1.2v-1.34c0-.29-.01-.86-.04-1.24l.62.5h4.82l.31-.47.73.52c.07.05.11.08.11.11,0,.04-.04.06-.11.11l-.34.23v1.74c0,.14.04.83.04.98,0,.13-.04.18-.26.3-.12.06-.19.1-.24.1-.08,0-.08-.02-.08-.52H3.92l.42.34c.1.08.14.13.14.17,0,.02-.06.04-.16.05-.13.01-.36.17-.41.24-.1.13-.22.28-.35.43h3.87l.36-.4.58.52c.07.07.12.12.12.14,0,.05-.06.06-.17.07-.12.01-.3.13-.6.44-.42.46-1.01,1.01-1.69,1.51,1.14.54,3.06.83,4.92.79v.14ZM10.18,1.6c.08.08.12.13.12.18,0,.04-.06.06-.2.06H2.57C1.56,3.2.8,4.07.16,4.63l-.1-.12C.88,3.55,2.21,1.57,3,.01l.67.43c.1.06.14.1.14.13,0,.04-.05.05-.16.07-.25.05-.31.08-.47.31-.16.22-.3.42-.43.61h6.26l.47-.67.7.7ZM8,4.32v-1.2H2.99v1.2h5.01ZM8,5.69v-1.1H2.99v1.1h5.01ZM3.71,7.44c.47.61,1.09,1.27,1.88,1.78.72-.52,1.47-1.27,1.81-1.78h-3.69Z"/></g><g class="cls-1"><path d="m17.87 3.05c.06.05.08.08.08.11 0 .04-.05.05-.16.05h-2.46v.41c.43.12 1.96.54 1.96 1.24 0 .19-.1.36-.24.36-.13 0-.19-.02-.34-.24-.25-.36-.73-.83-1.38-1.17v1.21c0 .12-.04.17-.23.24-.11.04-.18.06-.23.06-.07 0-.1-.05-.1-.12v-.05c.02-.34.04-.74.04-1.2v-.72c-.97 1.39-1.67 2.12-2.9 3l-.11-.11c1.07-1.01 1.64-1.67 2.39-2.9h-.94c-.25 0-.6.05-.8.13l-.34-.44c.3.02.6.05.88.05h1.82v-1.83c0-.3-.01-.64-.04-1.03l.85.43c.06.02.08.05.08.07s-.02.05-.08.08l-.3.17v2.11h1.38l.44-.56.71.67zm-.78 3.57s.06.06.06.07c0 .04-.04.05-.07.05-.14 0-.35.19-.44.37-.4.78-.56 1.1-.85 1.5.63.28.97.54 1.16.77.08.1.11.23.11.35 0 .2-.1.38-.24.38-.11 0-.19-.06-.38-.3-.2-.26-.49-.53-.95-.82-.67.82-1.56 1.42-3.43 2.06l-.06-.16c1.65-.77 2.55-1.49 3.08-2.13-.47-.24-1.09-.49-1.92-.76.24-.4.47-.8.66-1.2l-.82.04c-.25 0-.41.04-.6.12l-.46-.4c.3.05.56.05.84.04l1.15-.05c.22-.43.38-.85.52-1.24l.64.38s.07.05.07.07c0 .05-.04.06-.36.14l-.33.61 1.65-.07.29-.38.68.54zm-4.3-5.91c1.07.54 1.36.94 1.36 1.33 0 .24-.14.42-.35.42-.1 0-.2-.13-.25-.37-.07-.4-.37-.85-.82-1.27l.06-.11zm.91 7.24c.66.16 1.2.32 1.63.48.36-.52.62-1.09.85-1.71l-1.86.07-.62 1.16zm7.92-4.94c-.28 2.12-.9 4.22-1.39 5.05.7 1.06 1.52 1.67 2.87 2.24l-.05.12c-.13-.01-.24-.01-.34-.01-.32 0-.52.06-.72.28-.02.02-.06.05-.08.05-.07 0-1.29-1.07-2.03-2.22-1.2 1.39-2.23 2.17-4.08 2.85l-.05-.17c1.56-.73 3.01-1.91 3.87-3.13-.49-1.01-.89-2.57-1.02-4.08-.38.83-.77 1.56-1.19 2.21l-.12-.1c.95-2.04 1.75-4.39 2.12-6.08l.82.47c.06.04.08.06.08.08s-.04.04-.13.06c-.23.05-.28.12-.38.42-.23.61-.46 1.16-.66 1.69h2.71l.44-.55.68.66s.07.08.07.11-.04.05-.14.05h-1.3zm-4.09-1.92c.06.04.1.06.1.08s-.04.04-.11.05c-.36.04-.47.07-1.59 1.36l-.14-.1c.41-.6.74-1.16 1.04-1.79l.71.4zm1.51 1.92c-.08.21-.17.4-.25.59.34 2.03.7 3.12 1.15 3.97.42-.82.84-2.53 1.03-4.56h-1.93z"/></g><g class="cls-1"><path d="m28.53 3.08c.06.06.08.1.08.12 0 .04-.05.05-.11.05h-1.99v1.45c.79.29 1.38.59 1.55.98.02.07.04.14.04.23 0 .23-.1.47-.25.47-.12 0-.17-.05-.26-.24-.19-.38-.62-.92-1.07-1.22v3.36c0 1.02 0 1.89.02 2.35v.1c0 .16-.04.2-.29.31-.11.05-.19.07-.25.07-.07 0-.1-.06-.1-.21v-.17c.04-.7.06-1.79.06-2.47v-3.74c-.47 1.29-1.14 2.47-2.06 3.78l-.14-.07c1-1.76 1.74-3.46 2.11-4.96h-.79c-.25 0-.6.05-.8.13l-.34-.44c.3.02.6.05.88.05h1.15v-1.18c0-.49-.02-1.31-.05-1.75l.9.41s.07.05.07.08c0 .02-.02.06-.07.1l-.3.23v2.11h.84l.49-.61.68.71zm6.6 7.35c-.64.01-.92.14-1.06.35-.01.02-.04.04-.06.04-.07 0-1.52-1.01-2.19-1.82-.94 1.01-2.22 1.79-3.83 2.39l-.07-.18c2-1.01 2.72-1.59 3.59-2.6-.88-1.21-1.44-2.48-1.75-4.95-.08 3.31-.47 5.64-2.99 7.57l-.11-.14c1.51-1.31 2.39-3.38 2.54-6.09.05-.78.07-2.27.05-3.43-.38 0-.62.04-.88.13l-.34-.44c.37.04.6.05.88.05h3.75l.42-.53.68.66s.04.05.04.07c0 .04-.02.06-.07.08-.43.19-.47.19-.54.36l-1.08 2.55h1.03l.34-.53.7.66s.06.07.06.1-.02.04-.07.06c-.32.12-.37.17-.48.54-.43 1.42-.91 2.48-1.54 3.28.74.77 2.01 1.45 2.97 1.7v.14zm-5.34-8.13c.3 3.24 1.15 4.79 2.03 5.89.56-.78 1.03-1.89 1.43-3.47h-1.1l-.24.37s-.04.05-.07.05c-.01 0-.04-.01-.07-.04l-.65-.46.52-.31 1.13-2.79h-2.96v.76z"/></g><g class="cls-1"><path d="m46.8 10.19c.07.07.11.13.11.17 0 .05-.06.07-.17.07h-9.68c-.25 0-.61.05-.8.12l-.34-.43c.29.02.6.05.88.05h4.57v-2.51h-2.79c-.24 0-.59.04-.77.11l-.32-.42c.28.02.58.05.84.05h3.05v-6.16c0-.47-.01-.74-.04-1.16l.86.31c.1.04.14.06.14.1 0 .02-.04.06-.11.11l-.3.22v6.6h2.72l.47-.7.76.71c.1.08.14.14.14.19s-.07.06-.2.06h-3.89v2.51h3.63l.53-.71.71.73zm-7.16-8.74c.12.07.17.12.17.16 0 .05-.05.07-.14.1-.24.06-.35.17-.43.36-.2.44-.4.86-.59 1.26 1.13.77 1.67 1.33 1.83 1.67.05.08.06.18.06.28 0 .29-.19.56-.4.56-.13 0-.22-.05-.26-.24-.19-.73-.55-1.34-1.33-2.1-.77 1.52-1.49 2.64-2.24 3.56l-.16-.11c1.13-1.82 2.03-3.6 2.76-5.92l.73.43zm5.72.16c.1.05.14.1.14.13s-.05.06-.14.1c-.29.1-.35.13-.44.31-.23.46-.43.85-.61 1.21 1.32.77 1.97 1.39 2.1 1.77.04.11.05.2.05.3 0 .32-.19.54-.35.54-.14 0-.2-.06-.26-.24-.2-.62-.78-1.56-1.63-2.18-.71 1.37-1.16 2.09-1.88 3.01l-.17-.11c1.13-1.82 1.61-3.05 2.41-5.31l.79.47z"/></g><g class="cls-1"><path d="m52.5 3.13s.07.08.07.1c0 .04-.05.05-.17.05h-1.99v1.54c.86.31 1.52.66 1.52 1.17 0 .23-.13.44-.3.44-.08 0-.2-.13-.28-.34-.1-.28-.35-.6-.95-1.08v3.38c0 1.09 0 1.91.02 2.3v.08c0 .14-.04.19-.29.32-.13.07-.22.11-.26.11-.07 0-.1-.06-.1-.19 0-.06 0-.13.01-.23.04-.54.06-1.39.06-2.42v-3.81c-.46 1.31-1.08 2.51-1.96 3.75l-.13-.08c.88-1.57 1.59-3.37 2-4.95h-.82c-.41 0-.55.02-.76.12l-.43-.43c.3.04.59.05.92.05h1.16v-1.21c0-1.04-.01-1.43-.04-1.8l.84.37c.08.04.12.06.12.1s-.02.07-.08.12l-.29.26v2.16h.85l.49-.65.74.77zm1.5 2.87c.06.04.08.06.08.07 0 .02-.04.04-.12.06-.18.04-.36.2-.42.32-.48.98-1.49 2.72-2.37 3.71l-.13-.11c1.17-1.73 2-3.75 2.15-4.52l.82.47zm4.91-1.69c.07.07.11.12.11.16s-.06.05-.2.05h-3.26v5.3c0 .77-.18.97-.77 1.27-.1.05-.16.07-.19.07-.06 0-.08-.05-.11-.16-.1-.32-.19-.49-1.27-.83l.04-.16c.72.13 1.14.2 1.38.2.32 0 .34-.13.34-.42v-5.29h-2.08c-.32 0-.61.02-.82.08l-.35-.38c.3.02.55.04.9.04h5.05l.52-.66.72.72zm-.75-2.79c.07.07.11.12.11.14 0 .04-.05.05-.16.05h-4.37c-.24 0-.47.04-.7.12l-.42-.43c.32.04.62.05.9.05h3.35l.53-.67.76.74zm-1.82 4.36c1.44 1.39 2.23 2.63 2.23 3.02 0 .58-.2.8-.47.8-.06 0-.13-.04-.22-.49-.08-.47-.49-1.56-1.67-3.24l.12-.1z"/></g><g class="cls-1"><path d="m63.64 3.87c.12.07.18.12.18.16 0 .02-.06.05-.19.08-.14.04-.3.18-.41.32-.19.25-.37.5-.55.73v3.66c0 .74.01 1.37.04 1.91v.08c0 .13-.04.19-.26.31-.13.07-.23.12-.28.12-.07 0-.1-.06-.1-.19 0-.06 0-.14.01-.24.06-.61.11-1.44.11-2.02v-3.01c-.84 1.07-1.55 1.88-2.12 2.48l-.13-.13c.73-.9 2.45-3.33 3.03-4.67l.67.4zm2.08-2.02c.08.08.12.13.12.17s-.07.05-.22.05h-2.1c.68.52.89.85.89 1.15 0 .23-.19.47-.37.47-.11 0-.22-.11-.24-.34-.02-.24-.25-.89-.56-1.28h-1.12c-.72 1.04-1.34 1.87-2.03 2.62l-.16-.1c.88-1.24 2.05-3.28 2.55-4.53l.76.4c.11.06.17.11.17.14s-.06.06-.18.08c-.11.02-.3.17-.4.32-.18.29-.36.55-.54.8h2.32l.46-.62.65.67zm5.14 3.65c.06.06.1.11.1.14 0 .04-.05.06-.16.06h-2.44v4.08c0 .77-.05 1.02-.92 1.4-.05.02-.07.04-.11.04s-.06-.05-.08-.13c-.11-.42-.35-.58-1.59-.91l.04-.17c.9.17 1.43.25 1.73.25.35 0 .4-.12.4-.36v-4.2h-2.99c-.25 0-.6.05-.8.13l-.34-.44c.3.02.6.05.88.05h3.25c0-.52-.02-1.44-.05-1.85l.9.41s.07.05.07.07-.02.05-.07.08l-.3.2v1.08h1.3l.44-.72.76.78zm-6.43.95c1.18.56 1.66 1.03 1.71 1.38.01.07.01.14.01.2 0 .34-.14.61-.36.61-.16 0-.29-.29-.32-.47-.07-.41-.48-1.06-1.13-1.61l.08-.12zm5.99-4.63c.08.08.13.14.13.19s-.06.06-.19.06h-2.29c.67.46.89.79.89 1.1 0 .26-.18.49-.37.49-.11 0-.18-.08-.2-.28-.05-.35-.24-.86-.62-1.32h-1.12c-.61.92-1.31 1.87-1.71 2.32l-.17-.11c.94-1.38 1.91-3.3 2.22-4.25l.76.4c.07.04.11.07.11.1 0 .04-.05.06-.13.1-.12.04-.29.22-.38.37-.16.25-.32.53-.52.81h2.55l.44-.62.61.64z"/></g><g class="cls-1"><path d="M82.96,5.04c.08.08.12.13.12.17,0,.05-.05.06-.16.06h-6.7l-.85,1.71h4.32l.41-.54.84.65s.06.05.06.06c0,.02-.02.05-.06.07l-.49.29c-.25,1.02-.61,2.05-.86,2.53-.26.52-.7.84-1.62,1.16-.04.01-.06.01-.08.01-.05,0-.06-.02-.07-.11-.05-.46-.18-.61-1.51-1.14l.04-.18c.97.34,1.54.5,1.91.5.4,0,.58-.19.8-.56.35-.58.6-1.39.83-2.53h-4.46l-.3.3s-.04.02-.05.02c-.04,0-.06-.01-.11-.06l-.56-.52c.41-.16.52-.22.62-.44l.6-1.23h-2.69c-.25,0-.6.05-.8.13l-.34-.44c.3.02.6.05.88.05h9.06l.52-.7.73.73ZM80.76.79c.06.05.1.07.1.11s-.04.07-.1.12l-.37.26v1.25c0,.41,0,.75.04,1.29v.1c0,.16-.04.2-.29.31-.11.05-.18.07-.23.07-.07,0-.08-.06-.08-.16v-.52h-4.86v.3c0,.17-.02.22-.23.3-.12.05-.19.08-.25.08-.08,0-.11-.07-.11-.24v-.16c.04-.68.04-.82.04-1.24v-1.28c0-.29-.01-.86-.04-1.24l.78.61h4.51l.31-.52.78.53ZM79.82,3.37V1.04h-4.86v2.33h4.86Z"/></g></g></g></svg>
