<svg viewBox="0 0 32.99 11.3" xmlns="http://www.w3.org/2000/svg"><defs><style>.cls-1 {
        isolation: isolate;
      }</style></defs><g id="a"><g><g class="cls-1"><path d="M7.2,2.15c.1.07.14.13.14.17,0,.05-.05.08-.14.13l-.32.17v5.78c0,.91.02,1.65.06,2.19v.08c0,.17-.05.22-.3.32-.12.05-.19.07-.24.07-.07,0-.08-.06-.08-.16v-.92H.6v.83c0,.17-.02.2-.26.3-.11.05-.18.07-.24.07-.08,0-.1-.07-.1-.25v-.13c.02-.71.04-1.79.04-2.47V2.73c0-.29-.01-.86-.04-1.24l.77.64h1.44l.43-2.13.85.26c.11.04.16.07.16.1,0,.04-.04.06-.1.1-.34.17-.53.42-1.1,1.68h3.62l.41-.58.72.59ZM6.31,4.64v-2.24H.6v2.24h5.71ZM6.31,7.1v-2.19H.6v2.19h5.71ZM6.31,9.73v-2.36H.6v2.36h5.71Z"/></g><g class="cls-1"><path d="m13.16 3.63s.06.06.06.08c0 .04-.04.05-.1.06-.13.01-.38.13-.46.22-.4.41-1.37 1.22-2.58 2.15l-.14-.13c.88-.79 1.77-1.74 2.57-2.94l.65.56zm7.93 6.8c-.76.06-1.09.25-1.26.53-.02.04-.05.05-.1.05-.06 0-2.71-.59-4.26-1.57-1.32.89-3.19 1.49-5.37 1.86l-.05-.2c2.08-.49 3.75-1.16 4.97-1.97-.94-.71-1.5-1.48-2.05-2.6h-.41c-.2 0-.42.04-.62.13l-.33-.44c.3.02.6.05.88.05h4.97l.48-.52.73.65c.06.05.08.08.08.12s-.04.05-.12.06c-.23.02-.48.17-.66.43-.55.8-1.26 1.52-2.04 2.12 1.34.67 3.08 1.06 5.17 1.15v.16zm-.6-8.37c.06.06.08.11.08.13 0 .05-.04.06-.12.06h-3.53v1.62c0 .73.02 1.18.05 1.48v.06c0 .14-.05.18-.3.26-.11.04-.18.06-.23.06-.08 0-.11-.06-.11-.22 0-.24.01-1.39.01-1.65v-1.61h-1.78v1.67c0 .73.01 1.01.02 1.48 0 .19-.02.24-.26.32-.11.04-.18.06-.24.06-.1 0-.12-.07-.12-.23v-.08c.02-.56.04-1.02.04-1.56v-1.65h-2.59c-.25 0-.6.05-.8.13l-.34-.44c.3.02.6.05.88.05h8l.54-.76.79.83zm-7.18 4.46c.48.92 1.22 1.76 2.12 2.33.91-.7 1.61-1.55 2.08-2.33h-4.2zm1.11-6.48c.55.16 1.67.58 1.67 1.28 0 .31-.19.53-.38.53-.13 0-.19-.13-.24-.3-.14-.48-.47-.97-1.12-1.4l.07-.11zm3.44 3.31c1.64.6 2.58 1.24 2.65 1.68.01.07.01.14.01.2 0 .31-.13.48-.3.48-.11 0-.2-.1-.36-.38-.24-.46-1.02-1.21-2.06-1.86l.06-.12z"/></g><g class="cls-1"><path d="m32.91 4.2c.06.05.08.08.08.11 0 .04-.05.06-.13.06h-9.87c-.25 0-.6.05-.8.13l-.33-.35c.3.02.6.05.88.05h8.96l.47-.66.76.66zm-.16 6.26s.07.08.07.11c0 .04-.04.05-.12.05h-9.58c-.25 0-.6.05-.8.13l-.33-.35c.3.02.6.05.88.05h4.25v-1.12h-2.6c-.25 0-.6.05-.8.13l-.34-.35c.3.02.6.05.88.05h2.87v-1.09h-2.57v.26c0 .17-.04.22-.28.3-.1.04-.17.05-.22.05-.07 0-.08-.04-.08-.12 0-.06.04-.9.04-1.07v-1.62c0-.34-.01-.74-.04-1.08l.68.49h5.45l.3-.44.74.49c.06.04.08.07.08.11s-.02.06-.08.1l-.35.22v1.35c0 .3.01.62.05.97 0 .02.01.05.01.07 0 .23-.49.41-.53.41-.11 0-.11-.05-.11-.49h-2.53v1.09h2.85l.44-.64.7.67s.07.07.07.1-.05.04-.14.04h-3.92v1.12h3.89l.46-.65.73.66zm-1.79-9.62c.06.04.08.08.08.12s-.02.06-.08.1l-.37.22v1.34c0 .11.02.64.02.76 0 .2-.5.32-.5.32-.11 0-.11-.05-.11-.46h-5.18c0 .37 0 .41-.28.55-.12.06-.19.1-.24.1-.07 0-.08-.05-.08-.16 0-.12.02-.97.02-1.15v-1.3c0-.34-.01-.74-.04-1.08l.73.59h4.91l.38-.5.73.55zm-3.86 5.73v-1.12h-2.57v1.12h2.57zm0 1.33v-1.16h-2.57v1.16h2.57zm2.91-5.99v-.95h-5.18v.95h5.18zm0 1.16v-1h-5.18v1h5.18zm.2 3.5v-1.12h-2.53v1.12h2.53zm0 1.33v-1.16h-2.53v1.16h2.53z"/></g></g></g></svg>
