<svg xmlns="http://www.w3.org/2000/svg" viewBox="0 0 6.23 13.56"><path d="M1.4 6.04h-.3c-.2 0-.37-.07-.5-.2s-.2-.31-.2-.53c0-.32.15-.6.46-.84s.86-.37 1.64-.37c.66 0 1.19.14 1.6.43s.68.63.81 1.03c.05.13.07.27.07.42s0 .67.01 1.56v.95c0 .43.02.73.07.9s.14.24.29.24c.14 0 .23-.07.27-.22.05-.14.07-.38.07-.72V8.2h.54v.53c0 .36-.02.57-.04.64-.08.27-.24.48-.48.64-.24.15-.48.24-.75.24s-.48-.07-.64-.24q-.24-.255-.33-.57v-.05l-.03.04s-.04.05-.07.08-.06.07-.11.12-.1.1-.16.15-.13.1-.2.16q-.105.09-.24.15c-.09.04-.19.07-.3.11s-.23.06-.35.08c-.13.02-.27.03-.42.04q-.81 0-1.47-.42c-.43-.28-.65-.67-.65-1.18 0-.19.03-.37.1-.54s.19-.36.37-.56.4-.37.65-.5c.25-.14.61-.26 1.06-.38s.95-.19 1.49-.2h.19v-.3c0-.31-.03-.53-.08-.68q-.3-.96-1.32-.96c-.16 0-.32 0-.46.01s-.26.03-.34.05-.12.04-.11.04c.2.14.3.33.3.6 0 .23-.07.4-.22.53l-.23.2Zm-.15 2.7q0 .42.33.75c.33.33.48.33.8.34.34 0 .65-.1.91-.31s.44-.48.53-.81c.02-.06.03-.36.04-.9 0-.52 0-.79-.01-.79-.07 0-.17 0-.29.01s-.32.05-.61.12-.55.16-.79.27-.44.28-.62.5-.28.5-.29.81Z"/></svg>