<svg xmlns="http://www.w3.org/2000/svg" viewBox="0 0 6.81 13.56"><path d="M3.9 10.33q-.99 0-1.89-.9l-.14.24-.07.12c-.03.05-.05.1-.08.15s-.05.08-.05.1l-.07.12h-.27l-.27.01V6.13c0-2.72 0-4.1-.01-4.14-.03-.17-.09-.29-.19-.34s-.3-.1-.61-.12H.01v-.31c0-.21 0-.31.03-.31h.14C.27.89.4.88.57.87c.17 0 .34-.02.5-.03.15 0 .32-.02.5-.03.18 0 .32-.02.41-.04s.14-.02.15-.01h.04v2.05c0 1.38 0 2.06.01 2.06l.04-.04s.07-.06.12-.1.12-.08.2-.14.18-.1.29-.14.23-.08.35-.14c.13-.05.27-.09.43-.11s.33-.03.5-.04c.71 0 1.33.29 1.87.86s.82 1.31.83 2.21c0 .91-.29 1.66-.87 2.23s-1.26.86-2.05.86ZM2.2 8.85s.02.05.07.11.09.11.12.15.08.09.14.16c.05.07.11.13.16.16s.12.09.2.15.16.1.23.12.17.05.29.08.23.05.33.04c.32 0 .62-.09.92-.27s.52-.48.67-.91c.11-.32.16-.76.16-1.34 0-.68-.05-1.18-.16-1.51-.24-.74-.75-1.11-1.52-1.11-.27 0-.55.07-.83.2-.28.14-.51.33-.69.58l-.08.11v3.27Z"/></svg>