<svg xmlns="http://www.w3.org/2000/svg" viewBox="0 0 5.17 13.56"><path d="M4.56 6.04h-.28c-.19 0-.35-.07-.49-.2s-.21-.31-.22-.52c0-.21.07-.38.2-.52.05-.05.07-.07.07-.08s-.05-.02-.14-.03c-.24-.04-.46-.05-.66-.05-.44 0-.81.14-1.09.43-.43.43-.64 1.14-.64 2.13 0 .74.14 1.33.42 1.75.37.55.87.83 1.49.83.37 0 .67-.12.9-.35.23-.24.39-.52.49-.84.02-.07.04-.12.07-.14s.1-.03.22-.03h.19c.05.05.08.09.08.12 0 .04-.02.11-.05.22s-.11.26-.22.45-.24.36-.39.52c-.15.15-.37.29-.65.42s-.59.19-.94.18q-1.17 0-2.04-.87C.3 8.88.01 8.15 0 7.28c0-.94.29-1.71.88-2.29.59-.59 1.27-.88 2.05-.88s1.32.12 1.63.37.46.53.46.87c0 .21-.08.38-.23.5l-.23.2Z"/></svg>