<svg xmlns="http://www.w3.org/2000/svg" viewBox="0 0 6.19 13.56"><path d="M4.07 4.63c.4-.4.85-.6 1.36-.6.27 0 .47.09.58.26s.18.34.18.52c0 .13-.04.24-.12.34s-.2.15-.37.15c-.3 0-.47-.14-.5-.41-.02-.13 0-.22.04-.29 0 0 0-.02.01-.04-.25.01-.49.11-.72.29-.07.05-.11.08-.11.1 0 0 .02.03.05.07s.08.09.12.16.1.15.15.24.1.21.12.35.05.29.05.45c0 .56-.22 1.04-.67 1.43s-.99.59-1.64.6c-.45 0-.9-.13-1.34-.38-.1.16-.15.33-.15.52 0 .32.12.55.35.71.08.05.16.08.23.08s.4 0 .98.03c.76 0 1.25.04 1.47.08.55.08.99.27 1.3.56.35.35.53.8.53 1.33 0 .61-.35 1.07-1.06 1.4-.54.28-1.19.42-1.93.42s-1.4-.14-1.94-.42c-.71-.32-1.06-.77-1.06-1.36 0-.33.1-.6.29-.81s.38-.37.57-.45l.15-.08C.66 9.6.5 9.22.5 8.74c0-.43.13-.81.39-1.15-.4-.4-.6-.85-.6-1.34 0-.57.23-1.05.68-1.44s1-.59 1.64-.6c.46 0 .89.12 1.29.35l.15.1Zm-.41.89c-.05-.25-.16-.45-.35-.6s-.43-.22-.71-.23c-.26 0-.49.07-.68.22s-.31.35-.35.61c-.03.15-.04.38-.04.69 0 .4.03.69.1.88s.2.35.41.48c.15.09.35.14.58.14.2 0 .37-.03.52-.1.14-.06.25-.14.31-.24s.11-.19.15-.27.06-.15.07-.2c.03-.14.04-.37.04-.68s-.01-.54-.04-.69Zm1.42 5.68a.8.8 0 0 0-.19-.56c-.13-.14-.31-.25-.56-.31-.24-.06-.47-.1-.67-.12s-.44-.03-.73-.03h-.37c-.61 0-.97.03-1.09.08a.9.9 0 0 0-.42.38c-.1.17-.15.35-.16.54 0 .09.03.19.08.31s.15.25.29.41c.14.15.35.28.65.38s.66.15 1.09.16c.62 0 1.13-.13 1.51-.38q.57-.375.57-.87Z"/></svg>