<svg xmlns="http://www.w3.org/2000/svg" viewBox="0 0 7.02 13.56"><path d="M.22 9.56h.19c.35 0 .57-.06.64-.19V7.92c0-.22 0-.44.01-.68s0-.48 0-.75V3.64c0-.31 0-.58-.01-.81s0-.43 0-.6V2c-.03-.17-.09-.29-.19-.34s-.3-.1-.61-.12H.01v-.31c0-.21 0-.31.03-.31h.14C.27.9.4.89.57.88c.17 0 .34-.02.5-.03.15 0 .32-.02.5-.03.18 0 .32-.02.41-.04s.14-.02.15-.01h.04v4.44q.81-1.02 1.95-1.02 1.665 0 1.83 1.53c0 .06.01.69.01 1.89v1.17c0 .34 0 .55.03.61s.07.11.15.14c.19.03.41.04.67.04h.22v.62H6.6c-.21-.02-.43-.03-.68-.03s-.42 0-.52-.01c-.93 0-1.44.01-1.52.04h-.11v-.62h.22c.55 0 .83-.07.83-.22 0-.02.01-.64.01-1.87 0-1.22-.02-1.87-.03-1.94q-.075-.375-.27-.57c-.195-.195-.24-.2-.33-.23s-.21-.04-.35-.03c-.41 0-.76.15-1.07.46-.24.24-.4.49-.46.75s-.1.63-.11 1.13v1.68c0 .27 0 .45.01.54 0 .09.02.15.04.18s.06.05.12.08c.19.03.41.04.67.04h.22v.62h-.42q-.33-.03-.69-.03c-.36 0-.42 0-.52-.01-.93 0-1.44.01-1.52.04H.01v-.62h.22Z"/></svg>