<svg xmlns="http://www.w3.org/2000/svg" viewBox="0 0 6.66 13.56"><path d="M.22 9.56h.19c.35 0 .57-.06.64-.19V8.5c0-.17 0-.37.01-.58s0-.44 0-.68V2.83c0-.24 0-.43-.01-.6s0-.24 0-.23c-.03-.17-.09-.29-.19-.34s-.3-.1-.61-.12H.01v-.31c0-.21 0-.31.03-.31h.14C.27.9.4.89.57.88c.17 0 .34-.02.5-.03.15 0 .32-.02.5-.03.18 0 .32-.02.41-.04s.14-.02.15-.01h.04v6.26L3 6.3q.81-.735.87-.81c.05-.08.08-.16.08-.23 0-.17-.1-.27-.29-.29h-.07v-.62h.12c.14.03.67.04 1.62.04.57 0 .9-.01.98-.04h.07v.62H6.2c-.62.05-1.15.24-1.57.6-.67.57-1 .87-1 .91a203 203 0 0 0 1.82 2.64c.13.17.27.29.42.35s.38.1.67.1h.15v.62h-.08c-.08-.03-.48-.04-1.18-.04-.87 0-1.37.01-1.51.04h-.11v-.62h.1c.22-.02.33-.1.33-.26 0-.06-.02-.13-.05-.19-.03-.05-.25-.38-.68-1s-.64-.94-.65-.94l-.71.62v1.25c0 .17 0 .29.03.34s.07.1.15.14c.19.03.41.04.67.04h.22v.62h-.11c-.14-.03-.63-.04-1.48-.04s-1.34.01-1.48.04H.04v-.62h.22Z"/></svg>