<svg xmlns="http://www.w3.org/2000/svg" viewBox="0 0 3.22 13.56"><path d="M.22 9.56h.19c.35 0 .57-.06.64-.19V8.5c0-.17 0-.37.01-.58s0-.44 0-.68V2.83c0-.24 0-.43-.01-.6s0-.24 0-.23c-.03-.17-.09-.29-.19-.34s-.3-.1-.61-.12H.01v-.31c0-.21 0-.31.03-.31h.14C.27.9.4.89.57.88c.17 0 .34-.02.5-.03.15 0 .32-.02.5-.03.18 0 .32-.02.41-.04s.14-.02.15-.01h.04v4.28c0 2.87 0 4.31.01 4.33.04.07.09.12.16.15.19.03.41.04.67.04h.22v.62h-.42c-.21-.02-.43-.03-.67-.03s-.41 0-.52-.01-.28 0-.52 0-.46.02-.68.03H.11l-.11.01v-.62h.22Z"/></svg>