<svg xmlns="http://www.w3.org/2000/svg" viewBox="0 0 10.78 13.56"><path d="M.22 9.56h.19c.35 0 .57-.06.64-.19v-.84c0-.15 0-.33.01-.53s0-.39 0-.57v-.9c0-.32 0-.58-.01-.8v-.31c-.03-.17-.09-.29-.19-.34s-.3-.1-.61-.12H.01v-.31c0-.21 0-.31.03-.31h.14c.09-.02.22-.03.38-.04l.5-.03c.15 0 .32-.02.49-.03.17 0 .3-.02.39-.04s.14-.02.15-.01h.04v.54c0 .34 0 .52.01.52s.03-.02.07-.07.09-.11.16-.2.16-.17.26-.24.23-.16.39-.26.33-.17.52-.22.41-.07.69-.07c.14 0 .26 0 .38.03s.22.05.31.08.18.07.26.11.15.08.2.12.1.1.15.15.09.1.12.15.07.1.1.15.05.1.05.14.02.07.04.11l.03.07.04-.05.08-.11q.045-.06.12-.15c.075-.09.11-.12.18-.18s.13-.11.2-.18.16-.12.27-.16.21-.09.31-.14.22-.08.35-.1.28-.03.42-.04q1.71 0 1.86 1.53c0 .06.01.69.01 1.89v1.17c0 .34 0 .55.03.61s.07.11.15.14c.19.03.41.04.67.04h.22v.62h-.42q-.33-.03-.69-.03c-.36 0-.42 0-.52-.01-.93 0-1.44.01-1.52.04h-.11v-.62h.22c.55 0 .83-.07.83-.22 0-.02.01-.64.01-1.87 0-1.22-.02-1.87-.03-1.94q-.075-.375-.27-.57c-.195-.195-.24-.2-.33-.23s-.21-.04-.35-.03c-.41 0-.76.15-1.07.46-.24.24-.4.49-.46.75s-.1.63-.11 1.13v1.68c0 .27 0 .45.01.54 0 .09.02.15.04.18s.06.05.12.08c.19.03.41.04.67.04h.22v.62h-.43c-.21-.02-.43-.03-.68-.03s-.42 0-.52-.01c-.93 0-1.44.01-1.52.04h-.11v-.62h.22c.55 0 .83-.07.83-.22 0-.02.01-.64.01-1.87 0-1.22-.02-1.87-.03-1.94q-.075-.375-.27-.57c-.195-.195-.24-.2-.33-.23s-.21-.04-.35-.03c-.41 0-.76.15-1.07.46-.24.24-.4.49-.46.75s-.1.63-.11 1.13v1.68c0 .27 0 .45.01.54 0 .09.02.15.04.18s.06.05.12.08c.19.03.41.04.67.04h.22v.62h-.42q-.33-.03-.69-.03c-.36 0-.42 0-.52-.01-.93 0-1.44.01-1.52.04H0v-.62h.22Z"/></svg>