<svg xmlns="http://www.w3.org/2000/svg" viewBox="0 0 4.67 13.56"><path d="M.22 9.56h.19c.35 0 .57-.06.64-.19v-.42c0-.13 0-.27.01-.42V5.42c-.04-.17-.1-.29-.2-.34s-.3-.1-.61-.12H.01v-.31c0-.21 0-.31.03-.31h.14c.09-.02.22-.03.38-.04l.49-.03c.14 0 .3-.02.48-.03.17 0 .3-.02.39-.04s.14-.02.15-.01h.04v.94c.35-.62.79-.92 1.32-.92h.08q.615 0 .9.3c.285.3.29.41.29.62 0 .19-.06.35-.18.49s-.29.2-.52.2-.39-.07-.5-.22-.17-.3-.18-.46c0-.08 0-.15.03-.22s.04-.12.07-.16.04-.07.04-.07c-.02-.02-.12 0-.31.05-.14.07-.25.14-.33.2-.43.41-.64 1.22-.64 2.43v1.44c0 .11 0 .2.01.27s0 .14 0 .2v.07s.02.04.04.05.04.03.07.04.05.02.07.04.05.03.1.03.08 0 .1.01.06.01.12.01h.12s.06 0 .14.01.12 0 .14 0h.42v.62h-.12c-.16-.03-.74-.04-1.72-.04-.93 0-1.44.01-1.52.04H.04v-.62h.22Z"/></svg>