<svg xmlns="http://www.w3.org/2000/svg" viewBox="0 0 4.42 13.56"><path d="M3.56 5.89c0-.36-.12-.67-.37-.94s-.6-.39-1.06-.39q-.495 0-.84.18c-.27.17-.41.41-.41.71v.18c0 .08.08.18.22.33s.33.26.58.34q.24.075.6.12c.36.045.43.08.6.12s.31.1.43.18q.225.105.45.27c.225.165.29.29.43.56s.22.54.23.84c0 .56-.17 1.02-.52 1.38-.34.36-.9.55-1.67.56h-.11c-.47 0-.9-.16-1.3-.49l-.11.09-.12.12c-.05.05-.11.1-.16.15l-.15.14H.12s-.07-.03-.12-.08V8.4c0-.19 0-.3.03-.34s.06-.06.14-.07h.12c.11 0 .18.02.22.05s.06.09.07.16.04.19.09.37c.05.17.14.36.26.57q.48.69 1.32.69c.88 0 1.32-.35 1.32-1.06 0-.26-.08-.47-.24-.64-.18-.22-.56-.38-1.13-.49s-.95-.21-1.13-.31C.74 7.18.49 6.97.3 6.71a1.4 1.4 0 0 1-.28-.84c0-.35.08-.65.23-.9s.35-.43.58-.54.46-.2.68-.24.42-.07.6-.07h.15c.36 0 .68.07.95.2l.2.11.12-.09c.09-.08.19-.16.3-.23h.16s.07.03.12.08v1.79l-.08.08h-.38c-.05-.05-.08-.11-.08-.16Z"/></svg>