<svg xmlns="http://www.w3.org/2000/svg" viewBox="0 0 7.02 13.56"><path d="M4.86 9.39c-.51.62-1.08.92-1.72.92h-.1c-1.13 0-1.78-.45-1.95-1.34 0-.06-.02-.68-.03-1.86 0-.99-.01-1.54-.01-1.66s-.03-.21-.08-.29c-.09-.14-.36-.22-.81-.22H.01v-.31c0-.21 0-.31.03-.31h.15c.09-.02.22-.03.39-.04.17 0 .34-.02.52-.03.15 0 .32-.02.5-.03s.32-.02.41-.04.14-.02.16-.01h.04v2.46c0 1.67.02 2.56.04 2.67.03.14.09.24.19.33.18.13.45.19.81.19.24 0 .45-.04.64-.12s.33-.19.43-.31c.1-.13.19-.27.27-.43s.14-.3.16-.41.05-.22.05-.33v-.23c0-.14 0-.33.01-.54s0-.43 0-.64V5.9c0-.42-.05-.67-.14-.77s-.32-.16-.68-.18h-.24v-.62s.36-.02 1.03-.07 1.03-.07 1.07-.08h.1V6.6c0 1.63 0 2.46.01 2.48.03.18.09.3.19.35s.3.1.61.12H7v.62s-.36.02-1.02.07-1.01.07-1.05.08h-.1v-.94Z"/></svg>