<svg xmlns="http://www.w3.org/2000/svg" viewBox="0 0 6.64 13.56"><path d="M4.33 4.33q.075.03 1.14.03c.52 0 .88 0 1.1-.03h.07v.62h-.15c-.52.04-.86.22-1 .54-.02.04-.32.82-.91 2.35s-.9 2.32-.92 2.36c-.05.08-.16.12-.34.12s-.28-.04-.33-.12c-1.27-3.27-1.9-4.92-1.91-4.97C1.03 5.1.96 5.03.86 5s-.28-.05-.53-.05H0v-.62h.19c.07.01.16.01.27.01h.35c.13 0 .24 0 .34.01s.18.01.24.01c.86 0 1.36-.01 1.49-.04h.11v.62H2.8c-.35 0-.54.08-.57.2 0 .04.23.65.69 1.85l.69 1.79 1.24-3.24v-.11c0-.13-.05-.23-.14-.31s-.17-.13-.24-.15-.14-.03-.19-.03h-.05v-.62h.1Z"/></svg>