<svg xmlns="http://www.w3.org/2000/svg" viewBox="0 0 9.3 13.56"><path d="M.98 5.18c-.05-.09-.12-.14-.19-.16S.55 4.98.3 4.95H0v-.62h.34l.56.03c.2.01.34.01.43.01.81 0 1.29-.01 1.43-.04h.11v.62h-.19c-.34.02-.52.1-.52.23 0 0 .2.59.6 1.75l.6 1.71 1-2.92-.08-.23c-.09-.26-.17-.42-.23-.46-.07-.05-.24-.07-.52-.08h-.27v-.62h.08c.05.03.43.04 1.14.04.82 0 1.3-.01 1.44-.04h.1v.62H5.9c-.43 0-.65.07-.65.22 0 .03.06.23.19.61s.27.79.42 1.22.3.85.43 1.24l.2.58.56-1.62q.57-1.65.57-1.74c0-.14-.07-.26-.2-.35s-.29-.14-.46-.16h-.11v-.62h.1c.11.03.54.04 1.29.04.62 0 .95-.01 1-.04h.07v.62h-.16s-.09 0-.12.01c-.43.06-.71.29-.86.68l-.81 2.35c-.12.33-.26.74-.42 1.22-.18.53-.29.85-.34.95s-.12.15-.22.16h-.11c-.17 0-.28-.03-.31-.1 0 0-.23-.63-.67-1.86l-.62-1.82s-.45 1.26-1.29 3.68c-.05.06-.15.1-.31.1H3c-.12 0-.2-.04-.24-.11z"/></svg>