<svg xmlns="http://www.w3.org/2000/svg" viewBox="0 0 5.62 13.56"><path d="M.37 4.52V3.47c0-.7.24-1.26.73-1.68s1.05-.64 1.68-.65q.96 0 1.71.57c.75.57.75.87.75 1.48 0 .27-.05.52-.15.76s-.22.43-.35.57-.28.27-.42.38-.26.19-.35.24-.14.09-.15.11l.19.12c.13.09.25.18.38.27s.2.14.22.15c.68.53 1.02 1.21 1.02 2.02 0 .71-.26 1.33-.79 1.86-.52.52-1.2.79-2.04.8q-1.215 0-2.01-.69C.27 9.32 0 8.75 0 8.07c0-.98.58-1.79 1.75-2.44l-.24-.18c-.19-.12-.31-.21-.37-.27C.62 4.74.37 4.17.37 3.47zm2.93.42.08-.05c.05-.04.1-.06.12-.08s.07-.05.14-.1.12-.09.16-.14.1-.1.15-.16l.15-.18c.05-.06.09-.13.14-.22s.09-.17.12-.23.06-.15.07-.27.02-.22.03-.3q0-.585-.39-.99c-.39-.405-.57-.44-.91-.52-.06 0-.21-.01-.45-.01-.37 0-.72.12-1.05.35s-.49.53-.5.88q0 .315.18.57c.18.255.24.3.35.39s.34.24.68.43c.06.05.11.08.15.1l.79.52Zm-.49 4.95c.52 0 .98-.15 1.36-.46q.57-.465.57-1.11c0-.15-.02-.3-.07-.43s-.1-.25-.16-.34-.16-.19-.3-.3-.24-.19-.31-.24-.2-.14-.39-.26-.31-.19-.37-.23c-.13-.08-.26-.17-.41-.26s-.26-.17-.35-.23l-.11-.07c-.05 0-.19.08-.39.23s-.43.4-.65.75C1 7.28.89 7.65.88 8.05c0 .53.19.97.58 1.32.39.34.84.52 1.36.53Z"/></svg>