<svg xmlns="http://www.w3.org/2000/svg" viewBox="0 0 6.56 13.56"><path d="M6.56 9.79c0 .18-.1.27-.29.27-.05 0-.14-.07-.3-.22-.15-.14-.58-.57-1.28-1.26L3.28 7.17 1.85 8.6C.89 9.54.4 10.02.37 10.04c-.04.02-.07.03-.1.03-.07 0-.14-.03-.19-.08s-.09-.12-.1-.19c0-.06.06-.16.19-.3s.55-.57 1.28-1.29L2.86 6.8 1.45 5.39C.72 4.66.29 4.23.17 4.1s-.18-.23-.19-.3c0-.08.03-.14.08-.19s.12-.07.2-.07c.05 0 .08 0 .1.01.03.02.52.5 1.48 1.44l1.43 1.43 1.41-1.41c.7-.7 1.12-1.12 1.28-1.26s.25-.22.3-.22c.19 0 .29.09.29.27 0 .06-.05.14-.14.24s-.53.54-1.33 1.33L3.67 6.8l1.41 1.43c.76.76 1.19 1.2 1.3 1.32s.16.2.16.26Z"/></svg>