<svg xmlns="http://www.w3.org/2000/svg" viewBox="0 0 7.55 13.56"><path d="M.45 10.47H.27c-.12 0-.21-.06-.27-.19v-3.9C0 5.17.03 4.5.07 4.37c0-.02.01-.03.01-.04.14-.62.56-1.16 1.24-1.6s1.49-.67 2.44-.67c1 0 1.86.24 2.58.73.71.49 1.11 1.12 1.19 1.89 0 .05.01 1.01.01 2.86v2.73c-.06.14-.15.2-.27.2-.08 0-.17-.06-.26-.18l-.03-5.62c-.06-.25-.13-.45-.19-.6s-.19-.31-.37-.49Q6 3.115 5.28 2.86c-.72-.255-.98-.26-1.51-.27q-1.125 0-2.1.54c-.65.36-1.03.89-1.13 1.59 0 .05-.01.99-.01 2.82v2.71c-.06.13-.15.19-.27.19h.18Z"/></svg>