<svg xmlns="http://www.w3.org/2000/svg" viewBox="0 0 1.68 13.56"><path d="M0 5.16c0-.22.08-.41.23-.57s.35-.24.58-.24c.22 0 .41.07.57.22a.807.807 0 0 1 .03 1.16c-.15.16-.35.24-.58.24a.8.8 0 0 1-.82-.81Zm0 4.21c0-.23.07-.42.22-.58s.34-.24.58-.24c.59 0 .88.51.88 1.53 0 .47-.09.93-.26 1.38s-.35.79-.53 1.02-.3.34-.35.34c-.03 0-.08-.04-.16-.11s-.13-.13-.15-.16c0-.03.05-.11.16-.26s.25-.36.41-.65c.15-.29.26-.6.31-.94 0-.05.02-.13.03-.22 0-.09.02-.17.04-.24s.02-.11 0-.11h-.05c-.04 0-.12.03-.26.05-.29 0-.51-.08-.65-.24S0 9.59 0 9.37"/></svg>