<svg xmlns="http://www.w3.org/2000/svg" viewBox="0 0 6.77 13.56"><path d="M0 6.79c0-1.1.37-2.01 1.11-2.71.74-.71 1.62-1.11 2.63-1.21h.23c.14 0 .33 0 .57-.01s.46 0 .68 0h1.34c.14.07.2.16.2.27 0 .08-.06.17-.18.26H5.17c-1 .02-1.62.05-1.86.1-.44.11-.84.27-1.18.49s-.61.44-.8.67-.35.48-.49.75-.22.49-.24.65-.05.32-.07.46v.03h6.03c.14.07.2.16.2.27s-.07.2-.2.27H.54v.03c0 .19.05.42.14.69s.24.57.45.88q.315.48.87.87c.37.26.81.45 1.32.56.24.05.87.09 1.87.1H6.6q.18.135.18.27c0 .11-.07.2-.2.27H4.92c-.16 0-.29 0-.39.01q-2.1 0-3.33-1.17C.4 8.85.01 7.92.01 6.81Z"/></svg>