<svg xmlns="http://www.w3.org/2000/svg" viewBox="0 0 5.01 13.57"><path d="M5.01 13.31c0 .12-.03.2-.08.26h-.24c-1.17 0-1.98-.3-2.44-.9-.05-.06-.08-.12-.11-.16s-.05-.1-.07-.15-.04-.11-.05-.18-.03-.13-.03-.2 0-.17-.01-.3-.01-.25-.01-.37V9.45c0-.81-.03-1.26-.07-1.36 0 0-.01-.02-.01-.03-.13-.33-.35-.58-.68-.76s-.65-.27-.96-.27c-.1 0-.16-.01-.19-.04s-.04-.1-.04-.22.01-.19.04-.22.09-.04.19-.04c.31 0 .62-.09.95-.27s.56-.43.69-.76c.05-.1.07-.24.07-.43s0-.88.01-2.06v-.68c0-.5.03-.85.08-1.05s.19-.39.39-.57c.24-.24.6-.43 1.09-.57q.495-.105.72-.12h.18c.1 0 .18 0 .24-.01h.27c.05.05.08.14.08.24 0 .12-.01.19-.04.22-.02.03-.09.04-.22.04-.48.03-.86.14-1.13.33s-.43.38-.49.57c-.05.12-.07.79-.07 2.01v1.11c0 .43-.01.71-.04.87s-.1.33-.23.53c-.28.39-.67.66-1.18.8l-.19.07.19.07c.16.05.33.12.49.2s.35.24.57.46.34.49.38.8c0 .05.01.67.01 1.85s.02 1.89.07 2.01c.09.24.29.45.58.61s.64.26 1.03.29c.13 0 .2.01.22.04.03.03.04.1.04.2"/></svg>