<svg xmlns="http://www.w3.org/2000/svg" viewBox="0 0 7.52 13.56"><path d="M1.53 10.33c-.31 0-.46-.15-.46-.45v-.15l.18-.38c.68-1.43 1.17-2.66 1.48-3.71l.11-.33h-.43c-.34 0-.59.01-.73.04s-.32.11-.53.26q-.15.09-.3.24c-.15.15-.19.19-.26.29-.07.09-.11.14-.12.16-.02 0-.09.01-.2.01-.17 0-.26-.05-.26-.14 0-.05.09-.21.26-.48q.255-.39.75-.84c.495-.45.65-.47.96-.52.06-.02 1.08-.03 3.05-.03 1.45 0 2.19 0 2.23.01.18.06.27.19.27.38 0 .28-.14.47-.43.57-.05.02-.37.03-.94.03h-.87l-.04.23a10 10 0 0 0-.16 1.62q0 .705.12 1.26c.08.37.17.66.26.87s.14.33.14.38c0 .15-.06.3-.19.43s-.29.2-.49.2c-.1 0-.18-.01-.24-.04s-.14-.14-.22-.33-.15-.46-.22-.81c0-.08-.01-.28-.01-.6 0-.44.04-.92.12-1.43s.16-.92.24-1.25.13-.51.14-.54H3.41v.05s-.1.38-.27 1.07-.37 1.42-.58 2.19q-.33 1.155-.42 1.32c-.1.25-.29.38-.58.38Z"/></svg>