<svg xmlns="http://www.w3.org/2000/svg" viewBox="0 0 5.42 13.56"><path d="M1.55 8.05c0 .22-.07.4-.22.54s-.32.22-.53.22H.7c.42.71.97 1.07 1.66 1.07q.945 0 1.38-.81c.17-.3.26-.88.26-1.74 0-.93-.12-1.56-.37-1.89-.24-.3-.5-.45-.79-.45h-.08c-.71 0-1.24.31-1.6.92-.04.06-.07.1-.1.11s-.1.02-.2.03c-.15 0-.24-.03-.26-.08-.02-.04-.03-.83-.03-2.38V1.84c0-.45.02-.68.07-.68.02-.02.04-.03.05-.03a6.718 6.718 0 0 0 1.04.33c.32.08.66.11 1.02.11.64 0 1.26-.13 1.85-.38.07-.04.13-.05.18-.05.07 0 .11.08.11.24v.18c-.74.88-1.67 1.32-2.78 1.32-.28 0-.53-.03-.76-.08l-.14-.03V5.1c.17-.13.31-.23.41-.3s.26-.14.49-.22.46-.11.69-.11c.73 0 1.35.29 1.86.88s.76 1.28.76 2.09-.29 1.54-.87 2.13-1.28.89-2.12.9c-.73 0-1.32-.24-1.76-.73S0 8.7 0 8.08c0-.22.05-.39.15-.52s.2-.21.31-.24.21-.05.31-.05c.23 0 .41.08.56.23s.22.33.22.54Z"/></svg>