<svg xmlns="http://www.w3.org/2000/svg" viewBox="0 0 5.62 13.56"><path d="M4.21 6.28c-.43.69-.98 1.03-1.63 1.03-.71 0-1.28-.27-1.74-.8Q.165 5.715.03 4.8C.01 4.66 0 4.47 0 4.26v-.11c0-.84.31-1.57.94-2.2.54-.54 1.14-.81 1.79-.81h.08s.07 0 .11.01h.05c.11 0 .22 0 .34.03s.29.07.5.16.43.24.64.43.4.47.58.8c.39.8.58 1.82.58 3.07s-.27 2.34-.81 3.22c-.32.51-.7.9-1.14 1.18s-.91.43-1.41.43c-.55 0-1-.13-1.36-.39Q.365 9.69.35 8.91c-.015-.78.23-.77.72-.76.2 0 .37.06.5.19.14.13.2.3.2.53q0 .24-.12.42c-.08.12-.15.19-.22.22s-.12.05-.18.07H1.2s.03.06.1.1.18.08.35.14.36.08.57.07h.08c.54 0 1-.29 1.37-.87.35-.51.53-1.38.53-2.63v-.1Zm-1.47.53c.43 0 .78-.22 1.05-.67s.4-1.05.41-1.81c0-.71-.04-1.21-.11-1.52-.02-.09-.05-.18-.08-.27s-.1-.21-.19-.35-.23-.27-.41-.37-.39-.14-.64-.14c-.34 0-.64.12-.88.37-.19.2-.31.43-.37.71s-.09.75-.1 1.43c0 .75.02 1.26.07 1.52s.14.48.27.64c.23.31.55.46.98.46"/></svg>