<svg xmlns="http://www.w3.org/2000/svg" viewBox="0 0 8.23 13.56"><path d="M.14 10.19c-.09-.09-.14-.15-.14-.18 0-.1.14-.39.42-.88s1-1.67 2.16-3.53l2.59-4.22h-.62c-.93 0-1.63.09-2.09.27-.38.14-.69.33-.92.54-.24.22-.38.41-.45.58s-.12.33-.16.49c-.05.15-.09.24-.12.26-.03 0-.06.01-.11.01-.07 0-.16-.06-.26-.19l.12-1.15c.02-.17.04-.35.07-.54s.05-.34.05-.46.02-.18.03-.18C.74.99.77.96.81.93.83.91 1.97.9 4.24.9h3.41c.11.09.16.17.16.23 0 .04-.87 1.47-2.61 4.32L2.61 9.67s.36.03 1.09.03c.95 0 1.61-.06 1.97-.18.52-.18.96-.47 1.32-.86.35-.39.6-.85.73-1.37.05-.24.14-.37.27-.37.06 0 .12.02.16.07s.07.1.08.15c0 .07-.06.57-.19 1.49s-.2 1.4-.23 1.43l-.1.1s-1.28.03-3.8.03zm1.48-8.66.24-.15h-.73v.22s-.02.07-.03.14-.02.11-.03.14c0 .04 0 .05.03.05s.05-.02.08-.05.1-.09.18-.15.17-.13.26-.19Zm5.48-.12s-.22-.03-.65-.03c-.47 0-.71.02-.73.07-.02.04-.85 1.39-2.5 4.07S.72 9.58.65 9.67q0 .03.69.03h.69l2.54-4.13zm.27 8.3q.12-.735.12-.84l-.27.27q-.255.24-.48.39l-.24.15.42.03z"/></svg>