<svg xmlns="http://www.w3.org/2000/svg" viewBox="0 0 7.56 13.56"><path d="M1.4 1.74q-.09-.09-.15-.12c-.06-.03-.11-.03-.22-.04s-.3-.02-.58-.04H0V.92h.15c.11.03.77.04 1.98.04C3.41.96 4.17.95 4.38.92h.16v.62h-.37c-.54 0-.88 0-1.02.03s-.25.08-.34.18v3.8L2.8 8.44c0 .65.02 1 .07 1.05s.4.07 1.03.07 1.08-.03 1.32-.08c.54-.15.94-.41 1.19-.77s.43-.86.52-1.51c0-.05 0-.12.01-.23s.02-.21.04-.31l.03-.15s.09 0 .27-.01h.27v.07s-.08.62-.19 1.78-.17 1.76-.19 1.79v.07H0v-.62h.45c.38 0 .61-.02.69-.04s.17-.07.26-.16z"/></svg>