<svg xmlns="http://www.w3.org/2000/svg" viewBox="0 0 8.51 13.56"><path d="M1.4 1.78q-.09-.09-.15-.12c-.06-.03-.11-.03-.22-.04s-.3-.02-.58-.04H0V.96h7.76v.05c.02.05.08.58.19 1.57.11 1 .17 1.52.19 1.57v.05H7.6v-.05s-.02-.12-.04-.29c-.04-.32-.09-.59-.16-.83s-.15-.44-.23-.61-.19-.31-.34-.41-.28-.18-.41-.24-.31-.11-.56-.14-.45-.05-.62-.05-.43-.01-.79-.01c-.79 0-1.25 0-1.38.01s-.22.06-.24.15-.01.59-.01 1.7v1.64h.73c.66-.02 1.07-.06 1.24-.12.33-.14.5-.52.53-1.14v-.33h.54v3.8h-.54v-.27c0-.32-.05-.57-.11-.75s-.18-.31-.34-.39-.32-.13-.46-.15-.38-.03-.71-.03h-.88v2.93c0 .52.02.8.07.84.05.05.29.07.71.07h1.38c.33 0 .61-.01.83-.04s.46-.08.72-.16.48-.22.64-.41.31-.43.43-.73c.09-.24.16-.48.2-.73s.08-.47.11-.64.05-.28.07-.31v-.04h.54v.04s-.1.63-.27 1.81-.27 1.78-.3 1.82v.04H0v-.62h.45c.38 0 .61-.02.69-.04s.17-.07.26-.16z"/></svg>