<svg xmlns="http://www.w3.org/2000/svg" viewBox="0 0 7.56 13.56"><path d="M1.4 1.78q-.09-.09-.15-.12c-.06-.03-.11-.03-.22-.04s-.3-.02-.58-.04H0V.96h7.18v.05c.02.05.08.58.19 1.57.11 1 .17 1.52.19 1.57v.05h-.54v-.05s-.02-.16-.05-.46-.1-.6-.2-.91-.24-.55-.42-.72c-.34-.33-.99-.49-1.94-.49h-.2c-.63 0-1.02 0-1.15.01s-.21.06-.22.16c0 .03-.01 1.3-.01 3.83v3.77c.08.06.13.1.18.12s.16.04.34.05.47.03.86.03h.37v.62h-.16c-.22-.03-.97-.04-2.25-.04-1.19 0-1.85.01-1.98.04H.04v-.62h.45c.38 0 .61-.02.69-.04s.17-.07.26-.16V1.78Z"/></svg>