<svg xmlns="http://www.w3.org/2000/svg" viewBox="0 0 12.07 13.56"><path d="M0 7.23c0-.8.25-1.5.76-2.12s1.15-.93 1.94-.94c.8 0 1.54.28 2.24.83.34.28.68.63 1 1.06l.19.26.1-.14c.94-1.34 2-2.01 3.16-2.01.78 0 1.42.31 1.91.92s.75 1.34.76 2.17q0 1.17-.75 2.1c-.75.93-1.16.94-1.98.95-.78 0-1.52-.28-2.21-.83-.34-.28-.68-.63-1-1.06l-.19-.26-.1.14c-.94 1.34-2 2.01-3.16 2.01-.78 0-1.42-.31-1.91-.92C.26 8.77.01 8.05 0 7.22Zm11.56 0c0-.62-.17-1.18-.52-1.68s-.83-.76-1.47-.76c-.19 0-.38.02-.56.07s-.35.11-.52.19-.32.17-.46.26-.28.2-.39.33-.23.24-.34.34-.2.21-.27.34-.14.23-.2.3-.11.15-.15.23l-.07.11.42.54c.28.36.5.63.65.81q.225.27.57.6c.345.33.45.37.68.45s.46.13.69.14c.56 0 1.02-.22 1.38-.67q.54-.66.54-1.59ZM.5 7.28c0 .62.18 1.19.53 1.7s.84.76 1.47.76c1.07 0 2.05-.72 2.95-2.17l-.42-.54c-.55-.71-.96-1.19-1.24-1.41-.44-.39-.9-.58-1.37-.58-.56 0-1.02.22-1.37.67S.52 6.68.51 7.3Z"/></svg>