<svg xmlns="http://www.w3.org/2000/svg" viewBox="0 0 8.46 13.56"><path d="M1.4 1.74q-.09-.09-.15-.12c-.06-.03-.11-.03-.22-.04s-.3-.02-.58-.04H0V.92h4.32c.7 0 1.21.02 1.53.07s.65.17.98.37c.39.22.7.49.92.83s.34.69.34 1.06c0 .46-.19.88-.56 1.26s-.86.65-1.45.8l-.14.04c.66.08 1.24.33 1.75.75s.76.94.76 1.56-.23 1.16-.69 1.63-1.05.76-1.78.87c-.12.02-1.14.03-3.08.04H0v-.62h.45c.38 0 .61-.02.69-.04s.17-.07.26-.16zm5.16 1.48c0-.43-.12-.79-.35-1.1s-.55-.5-.94-.57h-.61c-.18 0-.35 0-.52-.01-.61 0-.98 0-1.11.01s-.22.05-.26.11c-.03.04-.04.62-.04 1.75v1.7H5l.14-.04c.04 0 .09-.02.15-.04s.18-.08.34-.18.31-.21.43-.33.24-.29.34-.53.15-.49.16-.77m.35 4.41c0-.46-.13-.89-.38-1.28a1.63 1.63 0 0 0-1.07-.73H4.09l-1.36-.01v3c0 .53.02.82.07.87s.51.07 1.36.07h.67c.38 0 .65-.03.81-.08.39-.13.7-.36.92-.69.23-.33.34-.71.35-1.14Z"/></svg>