<svg xmlns="http://www.w3.org/2000/svg" viewBox="0 0 6.65 13.56"><path d="M4.52.91s.33-.02.98-.07.97-.07.99-.08c.11 0 .16.04.16.11 0 .06-.33 1.43-.99 4.1q-.99 4.005-1.02 4.08c-.03.075-.02.12-.01.2 0 .38.13.57.38.57.08 0 .17-.05.27-.12.19-.18.38-.62.56-1.3.05-.18.1-.28.14-.28.02 0 .06-.01.14-.01h.11c.14 0 .2.04.2.11 0 .05-.01.12-.04.22-.12.45-.25.82-.41 1.1-.15.28-.28.46-.38.54s-.23.15-.38.22q-.105.03-.33.03c-.31 0-.57-.07-.77-.2s-.34-.28-.41-.42l-.08-.2s-.03 0-.05.01l-.05.05c-.53.51-1.08.76-1.63.76q-.75 0-1.32-.54C.2 9.43.01 8.85.01 8.07c0-.43.09-.88.27-1.33s.4-.84.65-1.17c.43-.52.85-.87 1.28-1.07s.81-.3 1.15-.3q.765 0 1.14.57c.05.05.07.07.07.05 0-.04.13-.53.37-1.48s.36-1.45.38-1.51c0-.12-.03-.19-.09-.22s-.24-.05-.53-.07h-.28c-.05-.05-.08-.09-.08-.11s0-.1.03-.26c.05-.17.1-.26.18-.26Zm-.19 4.84c-.21-.71-.55-1.07-1.02-1.07-.32 0-.62.14-.91.42s-.52.65-.68 1.1c-.26.71-.45 1.46-.56 2.23v.15c0 .07 0 .13-.01.16q0 .615.24.84c.24.225.36.24.58.24.49 0 .99-.33 1.51-.98l.11-.15.73-2.94Z"/></svg>