<svg xmlns="http://www.w3.org/2000/svg" viewBox="0 0 11.35 13.56"><path d="M0 6.28c0-.05.02-.13.04-.22s.07-.26.16-.52c.09-.25.18-.47.27-.64s.24-.34.43-.5.4-.24.6-.23c.2 0 .39.04.58.1s.33.14.41.24.15.21.22.3.1.18.11.26l.03.1s0 .03.01.03l.15-.15c.54-.58 1.18-.87 1.91-.87.15 0 .29 0 .42.03s.24.05.35.1.19.09.26.14.13.1.2.16.12.12.14.18.05.11.11.18.07.12.05.16 0 .09.04.12.05.07.03.1l.11-.14c.57-.68 1.24-1.02 2.02-1.02.49 0 .88.12 1.18.37s.45.6.46 1.07c0 .46-.17 1.18-.52 2.14-.34.97-.52 1.55-.52 1.74 0 .13.03.21.07.26s.1.07.2.07c.25 0 .49-.14.71-.41s.39-.64.53-1.11c.03-.1.05-.16.08-.18s.1-.03.22-.03c.18 0 .27.04.27.11l-.05.2c-.07.26-.17.52-.3.77s-.33.51-.62.76-.6.38-.94.37c-.43 0-.73-.12-.92-.37s-.29-.5-.29-.76c0-.17.16-.71.49-1.63.33-.91.49-1.6.5-2.06 0-.53-.2-.8-.6-.8h-.07c-.78 0-1.43.46-1.97 1.37l-.1.16-.45 1.82c-.3 1.19-.47 1.82-.52 1.91-.12.24-.31.37-.58.37a.4.4 0 0 1-.29-.1c-.07-.06-.12-.12-.15-.16a.25.25 0 0 1-.04-.14c0-.1.15-.75.46-1.94l.49-1.98c.03-.14.04-.31.04-.52 0-.53-.2-.8-.6-.8h-.07c-.78 0-1.43.46-1.97 1.37l-.1.16-.45 1.82c-.3 1.19-.47 1.82-.52 1.91-.12.24-.31.37-.58.37-.12 0-.21-.03-.29-.08s-.12-.11-.15-.16-.04-.1-.03-.14c0-.12.17-.86.52-2.23.35-1.39.53-2.12.53-2.19.03-.14.04-.26.04-.37 0-.33-.11-.49-.34-.49-.2 0-.37.13-.5.38s-.24.53-.31.83-.13.46-.16.49c-.02.02-.09.03-.22.03H.08C.03 6.34 0 6.29 0 6.27Z"/></svg>