<svg xmlns="http://www.w3.org/2000/svg" viewBox="0 0 5.88 13.56"><path d="M4.23 5.59q-.135 0-.72-.15c-.585-.15-.67-.15-.86-.15s-.33.02-.46.05-.23.08-.31.14-.14.1-.16.15-.06.1-.1.15l-.03.05s-.1.04-.2.04c-.19 0-.29-.04-.29-.11 0-.05.01-.11.04-.19.12-.35.31-.66.58-.91s.57-.41.9-.46c.11-.02.19-.03.23-.03.23 0 .43.08.61.23s.35.3.52.45.33.22.52.23q.3 0 .6-.45c.3-.45.3-.45.31-.45 0 0 .08-.01.2-.01h.18c.05.05.08.09.08.11 0 .04-.02.1-.07.19s-.11.19-.19.29-.16.2-.23.3-.14.19-.19.26l-.1.12c-.39.46-1 1.07-1.85 1.83S1.88 8.52 1.68 8.74l-.16.16h.2c.2.01.49.06.87.16s.67.15.86.15c.34 0 .66-.09.95-.26s.48-.4.57-.68c.04-.08.07-.13.1-.15s.1-.03.2-.03c.17 0 .26.05.26.14 0 .05 0 .09-.01.12-.15.56-.45 1.03-.9 1.4-.44.37-.89.56-1.33.57-.24 0-.44-.08-.62-.23s-.36-.31-.53-.46-.34-.23-.52-.23c-.4 0-.76.27-1.07.81-.05.07-.13.11-.23.11H.08c-.05-.05-.08-.1-.08-.12 0-.14.26-.52.79-1.17.35-.41.95-1 1.79-1.76Q3.84 6.115 4.14 5.8c.11-.14.14-.22.1-.22Z"/></svg>