<svg xmlns="http://www.w3.org/2000/svg" viewBox="0 0 6.8 13.56"><path d="M4.64 3.46v-.54c0-.22 0-.37.01-.45 0-.41-.05-.66-.14-.76s-.32-.16-.69-.18h-.24v-.31c0-.21 0-.31.03-.31h.14c.09-.02.22-.03.39-.04l.5-.03c.15 0 .32-.02.5-.03s.32-.02.41-.04.14-.02.15-.01h.04v4.13c0 2.77 0 4.17.01 4.19.03.18.09.3.19.35s.3.1.61.12h.24v.62s-.36.02-1.03.07-1.03.07-1.07.08h-.1v-.75l-.11.1a2.7 2.7 0 0 1-1.76.65c-.7 0-1.33-.28-1.89-.83s-.84-1.3-.84-2.24.29-1.64.86-2.21 1.24-.86 2-.87c.68 0 1.28.22 1.79.67zM4.6 5.54c-.41-.57-.92-.86-1.53-.86-.44 0-.84.16-1.18.49-.24.25-.4.54-.46.87s-.1.75-.11 1.28c0 .51.03.92.1 1.24.06.32.22.59.48.83.27.3.62.45 1.06.45.64 0 1.19-.35 1.66-1.05V5.55Z"/></svg>