<svg xmlns="http://www.w3.org/2000/svg" viewBox="0 0 5.25 13.56"><path d="M0 7.22c0-.5.09-.95.27-1.36s.41-.74.68-.99.57-.44.88-.57.62-.19.9-.2q.72 0 1.23.24c.51.24.61.39.79.68s.31.58.38.87.11.61.12.96c0 .06-.03.13-.09.19H1.33v.2c0 1.34.45 2.15 1.36 2.44.18.05.38.08.6.08.38 0 .71-.14.98-.43.15-.15.28-.34.37-.57l.14-.33s.1-.04.22-.04h.04c.15 0 .23.05.23.14 0 .04-.01.09-.04.18-.17.5-.46.89-.85 1.18-.4.29-.85.43-1.34.43-.86 0-1.57-.31-2.14-.94S0 8.04 0 7.22m4.14-.77c-.1-1.16-.53-1.77-1.29-1.85h-.03c-.07 0-.14 0-.22.01s-.19.05-.34.11-.28.16-.39.28-.21.31-.31.56-.17.54-.22.9v.09h2.8v-.11Z"/></svg>