<svg xmlns="http://www.w3.org/2000/svg" viewBox="0 0 4.7 13.56"><path d="M3.35 10.18c-.16-.03-.74-.04-1.72-.04-.93 0-1.44.01-1.52.04H0v-.62h.22c.25 0 .48-.01.67-.04.07-.03.13-.08.16-.15 0-.02.01-.76.01-2.23V4.95H.1v-.62h.96V2.52l.04-.14c.17-.59.46-1.01.87-1.28S2.81.67 3.26.61h.12c.07 0 .14 0 .19-.01.37.03.65.14.84.35s.29.44.29.71c0 .21-.06.38-.19.5s-.29.19-.5.19-.38-.06-.5-.19-.19-.29-.19-.5q0-.27.24-.54h-.05s-.09-.01-.15-.01c-.25 0-.48.1-.68.29s-.35.44-.46.75c-.05.18-.09.61-.1 1.29v.9h1.51v.62H2.16v2.17c0 1.47 0 2.21.01 2.23s.02.04.04.05.04.03.07.04.05.02.07.04.05.03.1.03.08 0 .1.01.06.01.12.01h.12s.06 0 .14.01.12 0 .14 0h.42v.62h-.12Z"/></svg>