<svg xmlns="http://www.w3.org/2000/svg" viewBox="0 0 6.64 13.56"><path d="M.68 11.08c.2 0 .36.06.48.19s.18.29.19.49q0 .24-.12.39c-.12.15-.16.17-.24.2-.06.03-.04.05.08.08.06.02.13.03.19.03.18 0 .35-.04.5-.12s.28-.18.37-.29.19-.25.3-.43.18-.32.22-.42.09-.24.16-.43l.23-.58-.98-2.48c-.18-.45-.38-.97-.61-1.55q-.33-.825-.39-.96C1 5.065.94 5.05.84 5.02c0 0-.02-.01-.03-.01-.11-.03-.31-.04-.6-.04h-.2v-.62h.37q.255.015.57.03c.315.015.36.01.46.01h.27c.12 0 .25 0 .39-.01s.28-.01.39-.01h.45l.11-.01v.62H2.9c-.44 0-.66.09-.64.26l1.37 3.45.62-1.56.6-1.55v-.12c0-.14-.05-.24-.14-.31s-.17-.12-.24-.14-.14-.03-.19-.03h-.04v-.62h.41c.09 0 .19 0 .29.01s.2.01.31.01h.23c.5 0 .86 0 1.1-.03h.07v.62H6.5q-.765.075-1.02.54c-.02.02-.22.52-.6 1.49s-.78 2-1.21 3.07-.71 1.7-.84 1.9c-.43.66-.94.99-1.55.99-.4 0-.71-.12-.94-.37-.23-.24-.34-.52-.34-.83 0-.24.07-.42.22-.52.14-.1.3-.15.46-.16"/></svg>