<svg xmlns="http://www.w3.org/2000/svg" viewBox="0 0 9.35 13.56"><path d="M.01 1.15q0-.09.15-.24h2.62c1.76.02 2.74.05 2.96.08.2.04.39.08.57.14s.34.11.48.18.26.13.38.2.22.14.3.22.16.14.24.22.14.14.18.2.08.13.14.19.09.12.1.18.03.1.05.15l.04.08c.05.16.07.39.07.69 0 .45-.06.81-.18 1.06-.32.64-.95 1.06-1.9 1.26l-.24.07q.09.15.24.39c.15.24.3.46.6.9s.57.82.83 1.15c.25.33.52.65.8.94s.5.46.67.5c.17.05.26.13.26.26 0 .08-.05.16-.16.23H6.73c-.06-.06-.54-.79-1.44-2.17L3.96 5.98h-.52V7.7c.02 1.05.03 1.61.04 1.68.03.15.12.25.27.29.04 0 .16.02.38.04.23 0 .38.03.46.1.08.1.08.21 0 .34l-.1.05H.16c-.11-.05-.16-.13-.16-.23 0-.17.18-.26.53-.26.37-.03.58-.1.62-.23.05-.07.07-1.38.07-3.92S1.2 1.7 1.15 1.61c-.05-.12-.26-.19-.62-.22-.34-.01-.52-.08-.52-.24M3.05 9.7C3.02 9.64 3 9.59 3 9.56s-.02-.18-.03-.45-.02-.66-.03-1.15V1.75l.05-.19.1-.18H1.58c.03.06.05.11.05.14s.02.19.03.48.02.68.03 1.17 0 1.28 0 2.39c0 1.9 0 3.04-.01 3.42s-.04.62-.08.71c0 0-.01.02-.01.03h1.47Zm2.94-6.25c0-.4-.04-.73-.11-1s-.18-.48-.33-.61-.26-.22-.34-.26-.19-.08-.31-.12c-.03 0-.2-.02-.52-.07-.35 0-.62.06-.79.18-.09.06-.14.18-.15.34s-.02.75-.03 1.75v1.83h.22c.39 0 .8-.03 1.24-.08q.63-.165.87-.54c.24-.375.24-.72.24-1.41Zm.47-.56v.56c0 .37-.02.68-.05.94s-.08.43-.14.52-.1.17-.12.24-.05.12-.07.14c0 0 0 .01.01.01.04 0 .18-.05.43-.14.87-.27 1.3-.84 1.3-1.7S7.3 1.97 6.25 1.63l-.27-.1.05.15c.12.14.24.43.37.88.04.22.05.51.05.88v-.56Zm-.38 3.99c-.48-.67-.72-1-.73-1-.05 0-.1 0-.12.03-.15 0-.29.01-.42.04h-.33l2.44 3.76h1.26L8 9.51c-.48-.53-1.12-1.41-1.93-2.62Z"/></svg>