<svg viewBox="0 0 156.32 39.24" xmlns="http://www.w3.org/2000/svg"><g id="a"><g><g><g><path id="b" d="m1.4 11.47h-.3c-.2 0-.37-.07-.5-.2s-.2-.31-.2-.53c0-.32.15-.6.46-.84s.86-.37 1.64-.37c.66 0 1.19.14 1.6.43s.68.63.81 1.03c.05.13.07.27.07.42s0 .67.01 1.56v.95c0 .43.02.73.07.9s.14.24.29.24c.14 0 .23-.07.27-.22.05-.14.07-.38.07-.72v-.49h.54v.53c0 .36-.02.57-.04.64-.08.27-.24.48-.48.64-.24.15-.48.24-.75.24s-.48-.07-.64-.24-.27-.36-.33-.57v-.05l-.03.04s-.04.05-.07.08-.06.07-.11.12-.1.1-.16.15-.13.1-.2.16-.15.11-.24.15-.19.07-.3.11-.23.06-.35.08c-.13.02-.27.03-.42.04-.54 0-1.03-.14-1.47-.42-.43-.28-.65-.67-.65-1.18 0-.19.03-.37.1-.54s.19-.36.37-.56.4-.37.65-.5c.25-.14.61-.26 1.06-.38s.95-.19 1.49-.2h.19v-.3c0-.31-.03-.53-.08-.68-.2-.64-.64-.96-1.32-.96-.16 0-.32 0-.46.01s-.26.03-.34.05-.12.04-.11.04c.2.14.3.33.3.6 0 .23-.07.4-.22.53l-.23.2zm-.15 2.7c0 .28.11.53.33.75s.48.33.8.34c.34 0 .65-.1.91-.31s.44-.48.53-.81c.02-.06.03-.36.04-.9 0-.52 0-.79-.01-.79-.07 0-.17 0-.29.01s-.32.05-.61.12-.55.16-.79.27-.44.28-.62.5-.28.5-.29.81z"/><path id="c" d="m6.81 14.99h.19c.35 0 .57-.06.64-.19v-.42c0-.13 0-.27.01-.42v-.53s0-.39 0-.57v-2.01c-.04-.17-.1-.29-.2-.34s-.3-.1-.61-.12h-.24v-.31c0-.21 0-.31.03-.31h.14c.09-.02.22-.03.38-.04s.33-.02.49-.03c.14 0 .3-.02.48-.03.17 0 .3-.02.39-.04s.14-.02.15-.01h.04v.94c.35-.62.79-.92 1.32-.92h.08c.41 0 .71.1.9.3s.29.41.29.62c0 .19-.06.35-.18.49s-.29.2-.52.2-.39-.07-.5-.22-.17-.3-.18-.46c0-.08 0-.15.03-.22s.04-.12.07-.16.04-.07.04-.07c-.02-.02-.12 0-.31.05-.14.07-.25.14-.33.2-.43.41-.64 1.22-.64 2.43v1.44c0 .11 0 .2.01.27s0 .14 0 .2v.07s.02.04.04.05.04.03.07.04.05.02.07.04.05.03.1.03.08 0 .1.01.06.01.12.01h.12s.06 0 .14.01.12 0 .14 0h.42v.62h-.12c-.16-.03-.74-.04-1.72-.04-.93 0-1.44.01-1.52.04h-.11v-.62h.22z"/><path id="d" d="m16.67 11.47h-.29c-.19 0-.35-.07-.49-.2s-.21-.31-.22-.52c0-.21.07-.38.2-.52.05-.05.07-.07.07-.08s-.05-.02-.14-.03c-.24-.04-.46-.05-.67-.05-.44 0-.81.14-1.09.43-.43.43-.64 1.14-.64 2.13 0 .74.14 1.33.42 1.75.37.55.87.83 1.49.83.37 0 .67-.12.9-.35.23-.24.39-.52.49-.84.02-.07.04-.12.07-.14s.1-.03.22-.03h.19c.05.05.08.1.08.12 0 .04-.02.11-.05.22s-.11.26-.22.45-.24.36-.39.52c-.15.15-.37.29-.65.42s-.59.19-.94.18c-.78 0-1.46-.29-2.04-.87s-.87-1.31-.88-2.19c0-.94.29-1.71.88-2.29.59-.59 1.27-.88 2.05-.88s1.32.12 1.63.37.46.53.46.87c0 .21-.08.38-.23.5l-.23.2z"/><path id="e" d="m18.23 14.99h.19c.35 0 .57-.06.64-.19v-1.45c0-.22 0-.44.01-.68s0-.48 0-.75v-.77-2.08c0-.31 0-.58-.01-.81s0-.43 0-.6 0-.24 0-.23c-.03-.17-.09-.29-.19-.34s-.3-.1-.61-.12h-.24v-.31c0-.21 0-.31.03-.31h.14c.09-.02.22-.03.39-.04.17 0 .34-.02.5-.03.15 0 .32-.02.5-.03.18 0 .32-.02.41-.04s.14-.02.15-.01h.04v4.44c.54-.68 1.19-1.02 1.95-1.02 1.11 0 1.72.51 1.83 1.53 0 .06.01.69.01 1.89v1.17c0 .34 0 .55.03.61s.07.11.15.14c.19.03.41.04.67.04h.22v.62h-.43c-.21-.02-.43-.03-.68-.03s-.42 0-.52-.01c-.93 0-1.44.01-1.52.04h-.11v-.62h.22c.55 0 .83-.07.83-.22 0-.02.01-.64.01-1.87 0-1.22-.02-1.87-.03-1.94-.05-.25-.14-.44-.27-.57s-.24-.2-.33-.23-.21-.04-.35-.03c-.41 0-.76.15-1.07.46-.24.24-.4.49-.46.75s-.1.63-.11 1.13v1.68c0 .27 0 .45.01.54 0 .09.02.15.04.18s.06.05.12.08c.19.03.41.04.67.04h.22v.62h-.42c-.22-.02-.45-.03-.69-.03s-.42 0-.52-.01c-.93 0-1.44.01-1.52.04h-.11v-.62h.22z"/></g><path id="f" d="m29.32 11.69c.06-.38.31-.82.73-1.32.43-.5.95-.75 1.57-.76.32 0 .61.08.87.24s.46.37.58.61c.38-.57.84-.86 1.37-.86.33 0 .62.1.87.3s.37.47.38.8c0 .26-.06.48-.19.64s-.25.26-.37.3-.22.05-.31.05c-.17 0-.31-.05-.42-.15s-.16-.23-.16-.39c0-.42.23-.7.68-.86-.1-.12-.28-.18-.54-.18-.12 0-.2 0-.26.03-.34.14-.6.44-.76.9-.54 2-.81 3.17-.81 3.5 0 .25.07.43.22.54s.3.16.48.16c.33 0 .67-.15.99-.45s.55-.67.67-1.1c.03-.09.05-.14.08-.15s.1-.02.22-.03h.05c.14 0 .2.04.2.11 0 0 0 .06-.03.15-.14.52-.43.97-.84 1.37-.42.4-.9.6-1.45.6-.63 0-1.11-.29-1.44-.86-.37.56-.8.84-1.28.84h-.08c-.44 0-.76-.12-.95-.35-.19-.24-.29-.48-.3-.75 0-.29.09-.52.26-.71.17-.18.38-.27.61-.27.39 0 .58.19.58.57 0 .18-.05.34-.16.48s-.21.23-.31.27-.16.07-.18.07h-.04s.03.04.08.07.13.06.22.1.18.05.26.04c.33 0 .61-.2.84-.61.08-.14.19-.45.31-.92.13-.47.25-.96.38-1.47s.2-.81.22-.9c.05-.24.07-.42.07-.53 0-.25-.07-.43-.2-.54s-.29-.16-.46-.16c-.36 0-.7.14-1.02.43s-.54.66-.67 1.11c-.02.08-.04.13-.07.14s-.1.02-.22.03h-.19c-.05-.05-.08-.1-.08-.15z"/><path id="g" d="m40.91 10.9c0-.12.06-.21.19-.27h8.65c.14.07.2.16.2.27 0 .1-.06.19-.19.26h-4.32s-4.32.01-4.32.01c-.14-.05-.22-.14-.22-.27zm0 2.63c0-.14.07-.23.22-.27h8.63c.13.09.19.18.19.27 0 .12-.07.21-.2.27h-8.65c-.13-.06-.19-.15-.19-.27z"/><g><path id="h" d="m55.05 14.99h.19c.35 0 .57-.06.64-.19v-.87c0-.17 0-.37.01-.58s0-.44 0-.68 0-.48 0-.75v-.77-2.89c0-.24 0-.43-.01-.6s0-.24 0-.23c-.03-.17-.09-.29-.19-.34s-.3-.1-.61-.12h-.24v-.31c0-.21 0-.31.03-.31h.14c.09-.02.22-.03.39-.04.17 0 .34-.02.5-.03.15 0 .32-.02.5-.03.18 0 .32-.02.41-.04s.14-.02.15-.01h.04v4.28c0 2.87 0 4.31.01 4.33.04.07.09.12.16.15.19.03.41.04.67.04h.22v.62h-.42c-.21-.02-.43-.03-.67-.03s-.41 0-.52-.01-.28 0-.52 0-.46.02-.68.03h-.31s-.11.01-.11.01v-.62h.22z"/><path id="i" d="m58.81 14.99h.19c.35 0 .57-.06.64-.19v-.84c0-.15 0-.33.01-.53s0-.39 0-.57v-.9c0-.32 0-.58-.01-.8v-.31c-.03-.17-.09-.29-.19-.34s-.3-.1-.61-.12h-.24v-.31c0-.21 0-.31.03-.31h.14c.09-.02.22-.03.38-.04s.33-.02.5-.03c.15 0 .32-.02.49-.03.17 0 .3-.02.39-.04s.14-.02.15-.01h.04v.54c0 .34 0 .52.01.52s.03-.02.07-.07.09-.11.16-.2.16-.17.26-.24.23-.16.39-.26.33-.17.52-.22.41-.07.69-.07c1.03.04 1.61.55 1.72 1.53 0 .06.01.69.01 1.89v1.17c0 .34 0 .55.03.61s.07.11.15.14c.19.03.41.04.67.04h.22v.62h-.43c-.21-.02-.43-.03-.68-.03s-.42 0-.52-.01c-.93 0-1.44.01-1.52.04h-.11v-.62h.22c.55 0 .83-.07.83-.22 0-.02.01-.64.01-1.87 0-1.22-.02-1.87-.03-1.94-.05-.25-.14-.44-.27-.57s-.24-.2-.33-.23-.21-.04-.35-.03c-.41 0-.76.15-1.07.46-.24.24-.4.49-.46.75s-.1.63-.11 1.13v1.68c0 .27 0 .45.01.54 0 .09.02.15.04.18s.06.05.12.08c.19.03.41.04.67.04h.22v.62h-.42c-.22-.02-.45-.03-.69-.03s-.42 0-.52-.01c-.93 0-1.44.01-1.52.04h-.11v-.62h.22z"/></g><g><path id="j" d="m68.24 14.31v-2.09c0-1.39.11-2.71.34-3.95s.5-2.28.83-3.11.72-1.62 1.18-2.36.87-1.31 1.24-1.7.74-.76 1.13-1.1h.38c.05.05.08.1.08.12 0 .04-.07.13-.22.29s-.33.37-.56.65-.48.63-.77 1.05-.57.95-.83 1.59-.52 1.35-.76 2.13-.43 1.72-.57 2.82-.21 2.29-.22 3.56c0 1.07.04 1.95.11 2.65.12 1.29.33 2.49.62 3.6.3 1.1.63 1.99.99 2.66s.71 1.24 1.03 1.71c.33.47.6.82.83 1.06s.34.38.34.42c0 .03-.03.07-.08.12h-.38c-.4-.33-.78-.7-1.14-1.1s-.77-.96-1.22-1.7-.85-1.52-1.18-2.35-.61-1.87-.83-3.11l-.34-1.86z"/><path id="k" d="m74.61 11.69c.06-.38.31-.82.73-1.32.43-.5.95-.75 1.57-.76.32 0 .61.08.87.24s.46.37.58.61c.38-.57.84-.86 1.37-.86.33 0 .62.1.87.3s.37.47.38.8c0 .26-.06.48-.19.64s-.25.26-.37.3-.22.05-.31.05c-.17 0-.31-.05-.42-.15s-.16-.23-.16-.39c0-.42.23-.7.68-.86-.1-.12-.28-.18-.54-.18-.12 0-.2 0-.26.03-.34.14-.6.44-.76.9-.54 2-.81 3.17-.81 3.5 0 .25.07.43.22.54s.3.16.48.16c.33 0 .67-.15.99-.45s.55-.67.67-1.1c.03-.09.05-.14.08-.15s.1-.02.22-.03h.05c.14 0 .2.04.2.11 0 0 0 .06-.03.15-.14.52-.43.97-.84 1.37-.42.4-.9.6-1.45.6-.63 0-1.11-.29-1.44-.86-.37.56-.8.84-1.28.84h-.08c-.44 0-.76-.12-.95-.35-.19-.24-.29-.48-.3-.75 0-.29.09-.52.26-.71.17-.18.38-.27.61-.27.39 0 .58.19.58.57 0 .18-.05.34-.16.48s-.21.23-.31.27-.16.07-.18.07h-.04s.03.04.08.07.13.06.22.1.18.05.26.04c.33 0 .61-.2.84-.61.08-.14.19-.45.31-.92.13-.47.25-.96.38-1.47s.2-.81.22-.9c.05-.24.07-.42.07-.53 0-.25-.07-.43-.2-.54s-.29-.16-.46-.16c-.36 0-.7.14-1.02.43s-.54.66-.67 1.11c-.02.08-.04.13-.07.14s-.1.02-.22.03h-.19c-.05-.05-.08-.1-.08-.15z"/><path id="l" d="m85.45 12.39v-.18c0-.12.06-.21.19-.27h4.06v-4.07c.1-.12.19-.18.27-.18.12 0 .21.07.27.2v4.05h4.05c.14.07.2.16.2.27s-.07.2-.2.27h-4.05v4.05c-.07.13-.15.19-.24.19h-.05c-.11 0-.19-.06-.24-.19v-4.05h-4.06c-.13-.06-.19-.15-.19-.27v.18z"/><g><g><g><path id="m" d="m112.81 11.69c.06-.38.31-.82.73-1.32.43-.5.95-.75 1.57-.76.32 0 .61.08.87.24s.46.37.58.61c.38-.57.84-.86 1.37-.86.33 0 .62.1.87.3s.37.47.38.8c0 .26-.06.48-.19.64s-.25.26-.37.3-.22.05-.31.05c-.17 0-.31-.05-.42-.15s-.16-.23-.16-.39c0-.42.23-.7.68-.86-.1-.12-.28-.18-.54-.18-.12 0-.2 0-.26.03-.34.14-.6.44-.76.9-.54 2-.81 3.17-.81 3.5 0 .25.07.43.22.54s.3.16.48.16c.33 0 .67-.15.99-.45s.55-.67.67-1.1c.03-.09.05-.14.08-.15s.1-.02.22-.03h.05c.14 0 .2.04.2.11 0 0 0 .06-.03.15-.14.52-.43.97-.84 1.37-.42.4-.9.6-1.45.6-.63 0-1.11-.29-1.44-.86-.37.56-.8.84-1.28.84h-.08c-.44 0-.76-.12-.95-.35-.19-.24-.29-.48-.3-.75 0-.29.09-.52.26-.71.17-.18.38-.27.61-.27.39 0 .58.19.58.57 0 .18-.05.34-.16.48s-.21.23-.31.27-.16.07-.18.07h-.04s.03.04.08.07.13.06.22.1.18.05.26.04c.33 0 .61-.2.84-.61.08-.14.19-.45.31-.92.13-.47.25-.96.38-1.47s.2-.81.22-.9c.05-.24.07-.42.07-.53 0-.25-.07-.43-.2-.54s-.29-.16-.46-.16c-.36 0-.7.14-1.02.43s-.54.66-.67 1.11c-.02.08-.04.13-.07.14s-.1.02-.22.03h-.19c-.05-.05-.08-.1-.08-.15z"/><path id="n" d="m120.92 7.57c-.17 0-.31-.06-.41-.17-.1-.12-.15-.26-.15-.42 0-.45.17-.85.51-1.18s.76-.5 1.27-.5c.58 0 1.07.18 1.46.54s.59.82.6 1.39c0 .28-.06.54-.19.79s-.28.47-.46.65-.44.42-.77.71c-.23.2-.55.49-.96.88l-.57.54h.73c1 0 1.54 0 1.6-.04.04-.01.12-.3.23-.85v-.03h.38v.03s-.05.31-.12.87c-.08.56-.12.86-.14.88v.03h-3.56v-.3s.02-.09.06-.14.13-.16.29-.34c.19-.2.35-.38.48-.54.06-.06.17-.18.33-.36s.27-.29.33-.36.15-.17.28-.32.22-.26.27-.33.12-.17.22-.29.16-.22.2-.31.09-.18.14-.28.1-.2.12-.31.05-.2.07-.29.03-.2.03-.32c0-.4-.11-.75-.33-1.05s-.53-.44-.93-.44c-.21 0-.4.05-.56.16s-.27.21-.34.32-.1.16-.1.18h.05c.12 0 .23.04.36.13s.18.24.18.44c0 .16-.05.29-.15.4s-.25.17-.43.17z"/></g><path id="o" d="m129.51 12.39v-.18c0-.12.06-.21.19-.27h7.89c.14.07.2.16.2.27s-.07.2-.2.27h-7.89c-.13-.06-.19-.15-.19-.27v.18z"/><path id="p" d="m144.84 7.76-.18.07c-.13.05-.31.09-.54.14s-.5.08-.79.1h-.26v-.62h.26c.43-.02.82-.09 1.18-.2s.62-.23.76-.33.27-.2.38-.3c.02-.03.07-.04.16-.04.08 0 .16.03.23.08v8.13c.08.06.13.1.18.12s.15.04.33.05.45.03.84.03h.35v.62h-.15c-.19-.03-.91-.04-2.16-.04s-1.94.01-2.13.04h-.16v-.62h.87c.14 0 .26 0 .34-.01s.15-.02.22-.04.1-.03.11-.03.04-.02.08-.07.07-.06.08-.05v-7.02z"/></g><path id="q" d="m101.83 9.46s.24.54.71 1.62c.46 1.08.92 2.15 1.38 3.23s.7 1.62.72 1.63l3.46-7.19c2.32-4.84 3.48-7.27 3.49-7.29.06-.1.15-.15.26-.15.06 0 .12.03.16.08s.08.11.1.16v.08l-3.79 7.91c-.87 1.81-1.78 3.71-2.73 5.69-.55 1.15-.87 1.82-.96 2.01s-.16.3-.22.33c-.04.02-.11.03-.23.03h-.16s-1.48-3.45-1.48-3.45c-.99-2.28-1.48-3.42-1.49-3.42l-.46.35c-.3.24-.45.35-.46.35l-.35-.35 2.06-1.62z"/><rect x="112.11" y="1.3" width="36.62" height=".81"/></g><path id="r" d="m149.21.16c0-.11.07-.16.22-.16h.24c.4.33.78.7 1.14 1.1s.77.96 1.22 1.7c.45.73.85 1.52 1.18 2.35s.61 1.87.83 3.12.33 2.57.34 3.95-.1 2.7-.34 3.94-.51 2.28-.83 3.12-.71 1.62-1.18 2.35c-.47.72-.88 1.29-1.24 1.7s-.73.77-1.13 1.1h-.18c-.12 0-.19 0-.23-.03s-.05-.06-.05-.14c.27-.27.61-.67 1.02-1.21 1.57-2.1 2.5-4.83 2.8-8.2.07-.7.11-1.58.11-2.65s-.04-1.94-.11-2.63c-.34-3.91-1.56-6.98-3.64-9.2-.11-.13-.17-.19-.18-.2z"/></g></g><g><path id="s" d="m123.38 34.76c.06-.38.31-.82.73-1.32.43-.5.95-.75 1.57-.76.32 0 .61.08.87.24s.46.37.58.61c.38-.57.84-.86 1.37-.86.33 0 .62.1.87.3s.37.47.38.8c0 .26-.06.48-.19.64s-.25.26-.37.3-.22.05-.31.05c-.17 0-.31-.05-.42-.15s-.16-.23-.16-.39c0-.42.23-.7.68-.86-.1-.12-.28-.18-.54-.18-.12 0-.2 0-.26.03-.34.14-.6.44-.76.9-.54 2-.81 3.17-.81 3.5 0 .25.07.43.22.54s.3.16.48.16c.33 0 .67-.15.99-.45s.55-.67.67-1.1c.03-.09.05-.14.08-.15s.1-.02.22-.03h.05c.14 0 .2.04.2.11 0 0 0 .06-.03.15-.14.52-.43.97-.84 1.37-.42.4-.9.6-1.45.6-.63 0-1.11-.29-1.44-.86-.37.56-.8.84-1.28.84h-.08c-.44 0-.76-.12-.95-.35-.19-.24-.29-.48-.3-.75 0-.29.09-.52.26-.71.17-.18.38-.27.61-.27.39 0 .58.19.58.57 0 .18-.05.34-.16.48s-.21.23-.31.27-.16.07-.18.07h-.04s.03.04.08.07.13.06.22.1.18.05.26.04c.33 0 .61-.2.84-.61.08-.14.19-.45.31-.92.13-.47.25-.96.38-1.47s.2-.81.22-.9c.05-.24.07-.42.07-.53 0-.25-.07-.43-.2-.54s-.29-.16-.46-.16c-.36 0-.7.14-1.02.43s-.54.66-.67 1.11c-.02.08-.04.13-.07.14s-.1.02-.22.03h-.19c-.05-.05-.08-.1-.08-.15z"/><path id="t" d="m135.35 35.29c0-1.1.37-2.01 1.11-2.71.74-.71 1.62-1.11 2.63-1.21h.23c.14 0 .33 0 .57-.01s.46 0 .68 0h1.34c.14.07.2.16.2.27 0 .08-.06.17-.18.26h-1.41c-1 .02-1.62.05-1.86.1-.44.11-.84.27-1.18.49s-.61.44-.8.67-.35.48-.49.75-.22.49-.24.65-.05.32-.07.46v.03h6.03c.14.07.2.16.2.27s-.07.2-.2.27h-6.03v.03c0 .19.05.42.14.69s.24.57.45.88c.21.32.5.61.87.87s.81.45 1.32.56c.24.05.87.09 1.87.1h1.41c.12.09.18.18.18.27 0 .11-.07.2-.2.27h-1.66c-.16 0-.29 0-.39.01-1.4 0-2.51-.39-3.33-1.17-.8-.74-1.19-1.67-1.19-2.78z"/><path id="u" d="m156.32 36.9c0 .05-.05.15-.16.3s-.29.32-.53.52-.52.39-.81.57c-.3.18-.68.33-1.14.46s-.93.19-1.4.19c-.51 0-1-.07-1.49-.22-.49-.14-.95-.37-1.38-.67s-.81-.7-1.13-1.19c-.32-.5-.53-1.07-.64-1.72-.05-.2-.07-.56-.07-1.09s.02-.89.07-1.09c.2-1.06.65-1.92 1.34-2.58.7-.66 1.59-1.06 2.69-1.19.03 0 .13 0 .31-.01s.32-.01.42-.01c.49.03.98.14 1.47.33s.86.29 1.11.3c.16 0 .28-.03.35-.1s.11-.14.12-.22.03-.15.07-.22.1-.1.19-.11c.1 0 .18.05.24.16v2.84l-.05.1c-.12.06-.23.07-.34.03-.04-.04-.08-.14-.14-.33s-.16-.38-.31-.61c-.3-.42-.7-.8-1.19-1.14-.5-.34-1.03-.52-1.59-.52h-.12c-.4 0-.77.17-1.11.52-.79.71-1.18 2.01-1.18 3.92 0 .79.1 1.5.29 2.13.37 1.35 1.15 2.02 2.33 2.02s2.23-.45 3.2-1.36c.15-.15.27-.23.34-.23.05 0 .1.02.15.05s.09.09.1.16zm-5.89-6.7c.13-.16.18-.24.15-.24-.21.07-.42.18-.64.31s-.46.32-.72.56-.49.55-.69.94-.34.82-.42 1.3c-.05.27-.07.6-.07.99s.02.72.07.99c.09.5.24.95.46 1.34s.45.71.69.92.48.4.72.54.43.24.58.3l.23.07c-.06-.06-.12-.13-.18-.19-.59-.57-.96-1.5-1.13-2.8-.03-.24-.04-.65-.04-1.22s.01-.98.04-1.22c.17-1.13.48-2 .94-2.59zm5.03.81v-.81s-.07.03-.11.03c-.09.04-.19.05-.31.05h-.2l.18.19c.18.2.28.32.3.35l.15.19z"/></g></g></g></svg>
