<svg viewBox="0 0 269.19 294.75" xmlns="http://www.w3.org/2000/svg"><defs><style>.cls-1 {
        fill: #4d4d4d;
      }

      .cls-2 {
        fill: none;
      }

      .cls-3 {
        clip-path: url(#a);
      }

      .cls-4 {
        clip-path: url(#b);
      }</style><clipPath id="b"><rect class="cls-2" x="45.85" y="11.93" width="13.12" height="83.67"/></clipPath><clipPath id="a"><rect class="cls-2" x="45.85" y="119.5" width="13.12" height="83.67"/></clipPath></defs><g id="c"><path d="m1.36 109.68c0 .3.12.58.35.81.24.24.53.36.87.37.37 0 .7-.11.99-.34s.48-.52.58-.88c.02-.07.03-.39.04-.97 0-.57 0-.86-.01-.86-.08 0-.18 0-.31.01-.13 0-.35.05-.66.13s-.6.18-.86.29c-.26.12-.48.3-.68.55s-.3.54-.31.88zm.16-2.94h-.32c-.22 0-.4-.07-.55-.22s-.22-.34-.22-.58c0-.34.17-.65.5-.91.33-.27.93-.4 1.79-.4.72 0 1.3.16 1.74.47s.74.69.89 1.12c.05.14.07.29.07.46s0 .73.01 1.7v1.03c0 .47.02.8.07.97.05.18.15.27.31.27.15 0 .25-.08.3-.24s.07-.42.07-.78v-.53h.59v.58c0 .39-.02.62-.04.69-.09.3-.26.53-.52.69-.26.17-.53.26-.81.27s-.52-.08-.69-.27-.3-.39-.35-.62v-.06l-.03.04s-.04.06-.07.09-.07.07-.12.13-.11.11-.18.16-.14.11-.22.18-.17.12-.27.16-.21.08-.32.12c-.12.04-.25.07-.38.09-.14.02-.29.03-.46.04-.59 0-1.12-.15-1.59-.46-.47-.3-.71-.73-.71-1.28 0-.21.03-.4.1-.59s.2-.39.4-.6c.2-.22.43-.4.71-.55s.66-.29 1.15-.41c.49-.13 1.03-.2 1.62-.22h.21v-.32c0-.33-.03-.58-.09-.74-.22-.7-.69-1.05-1.43-1.05-.18 0-.34 0-.5.01-.16 0-.28.03-.37.06s-.13.04-.12.04c.22.15.32.36.32.65 0 .25-.08.44-.24.58l-.25.22z"/><path d="m7.41 110.56h.21c.38 0 .61-.07.69-.21v-.46c0-.14 0-.29.01-.46v-.58-.62-2.18c-.04-.19-.11-.31-.22-.37s-.33-.1-.66-.13h-.27v-.34c0-.23 0-.34.03-.34h.15c.1-.02.24-.03.41-.04s.35-.02.53-.03c.16 0 .33-.02.52-.03s.33-.02.43-.04.15-.02.16-.01h.04v1.02c.38-.67.86-1 1.43-1h.09c.44 0 .77.11.97.32.21.22.31.44.31.68 0 .21-.06.38-.19.53s-.31.22-.56.22-.43-.08-.55-.24-.18-.32-.19-.5c0-.09 0-.17.03-.24.02-.07.04-.13.07-.18s.04-.07.04-.07c-.02-.02-.13 0-.34.06-.16.08-.28.15-.35.22-.46.44-.69 1.32-.69 2.64v1.56c0 .12 0 .22.01.29v.22.07s.02.04.04.06.04.03.07.04c.03 0 .05.02.07.04s.05.03.1.03.08 0 .1.01c.02 0 .06.01.13.01h.13s.07 0 .15.01h.15.46v.68h-.13c-.18-.03-.8-.04-1.87-.04-1.01 0-1.56.01-1.65.04h-.12v-.68h.24z"/><path d="m18.61 112.35c0-.25-.07-.45-.21-.6s-.34-.27-.61-.34-.51-.11-.72-.13c-.22-.02-.48-.03-.8-.03h-.4c-.66 0-1.05.03-1.18.09-.2.09-.35.23-.46.41s-.17.38-.18.59c0 .1.03.21.09.34s.16.28.31.44c.15.17.38.3.71.41.32.11.72.17 1.18.18.68 0 1.22-.14 1.64-.41.41-.28.62-.59.62-.94zm-1.54-6.17c-.05-.28-.18-.49-.38-.65-.21-.16-.46-.24-.77-.25-.29 0-.53.08-.74.24s-.33.38-.38.66c-.03.17-.04.42-.04.75 0 .43.03.75.1.96s.22.38.44.52c.17.1.38.15.63.15.22 0 .4-.03.56-.1s.27-.16.34-.27.12-.21.16-.29.06-.16.07-.22c.03-.16.04-.4.04-.74s-.01-.59-.04-.75zm.45-.97c.43-.43.92-.65 1.48-.65.3 0 .51.09.63.28s.19.37.19.56c0 .14-.04.26-.13.37s-.22.16-.4.16c-.32 0-.51-.15-.55-.44-.02-.14 0-.24.04-.31 0 0 0-.02.01-.04-.28.01-.54.12-.78.31-.08.05-.12.08-.12.1 0 0 .02.03.06.07s.08.1.13.18.1.17.16.27.1.23.13.38c.03.16.05.32.06.49 0 .61-.24 1.13-.72 1.55s-1.08.64-1.79.65c-.49 0-.98-.14-1.46-.41-.11.18-.16.36-.16.56 0 .34.13.6.38.77.09.06.17.09.25.09s.43 0 1.06.03c.83 0 1.36.04 1.59.09.6.09 1.07.29 1.42.6.38.38.58.87.58 1.45 0 .66-.38 1.17-1.15 1.52-.59.3-1.29.46-2.1.46s-1.52-.15-2.11-.46c-.77-.34-1.15-.84-1.15-1.47 0-.35.1-.65.31-.88.21-.24.41-.4.62-.49l.16-.09c-.35-.3-.53-.72-.53-1.24 0-.46.14-.88.43-1.25-.43-.43-.65-.92-.65-1.46 0-.62.25-1.14.74-1.56s1.09-.64 1.79-.65c.5 0 .97.13 1.4.38l.16.1z"/><path d="m24.5 106.98c.07-.41.33-.89.8-1.43.46-.54 1.03-.82 1.71-.83.34 0 .66.09.94.27.29.18.5.4.63.66.41-.62.91-.93 1.49-.93.36 0 .68.11.94.32s.4.51.41.87c0 .29-.07.52-.21.69-.14.18-.27.29-.4.32-.13.04-.24.06-.34.06-.19 0-.34-.05-.46-.16s-.18-.25-.18-.43c0-.45.25-.76.74-.93-.11-.13-.31-.19-.59-.19-.13 0-.22 0-.28.03-.37.16-.65.48-.83.97-.59 2.17-.89 3.44-.89 3.81 0 .28.08.47.24.59s.33.18.52.18c.36 0 .72-.16 1.08-.49.35-.32.6-.72.72-1.19.03-.1.06-.15.09-.16.03 0 .11-.02.24-.03h.06c.15 0 .22.04.22.12 0 0 0 .06-.03.16-.16.56-.46 1.06-.91 1.49s-.98.65-1.58.65c-.69 0-1.21-.31-1.56-.93-.4.61-.87.91-1.39.91h-.09c-.48 0-.83-.13-1.03-.38-.21-.26-.31-.53-.32-.81 0-.31.09-.57.28-.77s.41-.29.66-.29c.42 0 .63.21.63.62 0 .2-.06.37-.18.52s-.23.25-.34.29-.17.07-.19.07h-.04s.03.04.09.07.14.06.24.1.19.05.28.04c.35 0 .66-.22.91-.66.09-.16.2-.49.34-1s.28-1.04.41-1.59c.14-.55.22-.88.24-.97.05-.27.07-.46.07-.58 0-.28-.07-.47-.22-.59s-.31-.18-.5-.18c-.39 0-.76.16-1.11.47-.34.31-.59.72-.72 1.21-.02.09-.04.14-.07.15-.03 0-.11.02-.24.03h-.21c-.06-.06-.09-.11-.09-.16z"/><path d="m35.1 108.98c0-.15.08-.25.24-.29h9.39c.14.1.21.2.21.29 0 .13-.07.23-.22.29h-9.4c-.14-.07-.21-.17-.21-.29zm0-2.86c0-.13.07-.23.21-.29h9.4c.15.08.22.18.22.29s-.07.2-.21.28h-4.69s-4.69.01-4.69.01c-.16-.05-.24-.15-.24-.3z"/><path d="m56.36 0 .09.09v.41c0 .11-.07.2-.21.28-.76.52-1.38 1.19-1.87 2.01s-.82 1.73-.99 2.73c0 0 0 .03-.01.06-.04.28-.06 1.12-.07 2.54v1.61c0 2.38 0 3.58-.01 3.6 0 .04-.05.06-.13.07-.08 0-.32.01-.74.01-.51 0-.78 0-.8-.01-.03 0-.05-.03-.06-.06-.02-.1-.03-1.25-.03-3.47v-1.21c0-.49 0-.84-.01-1.03 0-.97.04-1.73.13-2.26s.3-1.13.62-1.78c.75-1.47 1.88-2.64 3.39-3.48l.19-.1h.52z"/><path d="m56.45 215.02-.09.09h-.52l-.16-.09c-1.22-.67-2.19-1.55-2.92-2.64s-1.14-2.26-1.22-3.51c0-.1-.01-1.05-.01-2.86 0-2.8 0-4.21.01-4.23l.06-.06s.3-.01.81-.01c.41 0 .66 0 .74.01.08 0 .12.03.13.07 0 .02.01 1.21.01 3.58v1.87c0 1.02.02 1.75.06 2.17s.15.89.32 1.42c.16.47.35.91.58 1.31s.46.74.71 1.02.46.5.65.66c.19.17.37.32.56.46s.28.2.27.19c0 0 0 .09.01.29v.25z"/><path d="m51.59 94.14s.34-.01.97-.01c.4 0 .61 0 .63.01.03 0 .05.03.06.06.02.1.03 1.23.03 3.41 0 2.29 0 3.48-.01 3.57-.09 1.31-.47 2.5-1.15 3.58s-1.57 1.97-2.69 2.65l-.21.13.21.13c1.04.65 1.92 1.51 2.63 2.58s1.11 2.29 1.21 3.66c0 .09.01 1.28.01 3.57v3.02c0 .29-.02.43-.07.44h-.01s-.29.01-.8.01-.78 0-.8-.01c-.03 0-.05-.03-.06-.06-.02-.1-.03-1.23-.03-3.39v-2.11c0-1.04-.03-1.86-.1-2.45s-.24-1.21-.52-1.86c-.17-.43-.37-.84-.61-1.21s-.46-.68-.68-.93-.42-.45-.61-.6-.34-.29-.46-.38l-.18-.15s-.01-.1-.01-.27 0-.26.01-.27c0 0 .1-.09.3-.24s.44-.38.72-.69c.29-.31.58-.69.89-1.12s.57-1.01.8-1.73.37-1.48.43-2.29c0-.12.01-1.33.01-3.63s0-3.36.01-3.39l.06-.06z"/><g class="cls-4"><path d="M51.52,48.62V.89c0-10.42.02-16.32.07-17.69.02-.27.34-.41.97-.41.4,0,.61.14.63.41.04.27.06,1.78.07,4.53,0,4.12.01,24.42.01,60.9v56.79c0,5.49-.02,8.37-.07,8.64h-.01c-.02.27-.29.41-.8.41s-.78-.14-.8-.41c-.04-.27-.06-1.78-.07-4.53,0-4.12-.01-24.42-.01-60.9Z"/></g><g class="cls-3"><path d="m51.52 156.19v-47.73c0-10.42.02-16.32.07-17.69.02-.27.34-.41.97-.41.4 0 .61.14.63.41.04.27.06 1.78.07 4.53 0 4.12.01 24.42.01 60.9v56.79c0 5.49-.02 8.37-.07 8.64h-.01c-.02.27-.29.41-.8.41s-.78-.14-.8-.41c-.04-.27-.06-1.78-.07-4.53 0-4.12-.01-24.42-.01-60.9z"/></g><path d="m58.83 18.64c0 .3.12.58.35.81.24.24.53.36.87.37.37 0 .7-.11.99-.34s.48-.52.58-.88c.02-.07.03-.39.04-.97 0-.57 0-.86-.01-.86-.08 0-.18 0-.31.01-.13 0-.35.05-.66.13s-.6.18-.86.29c-.26.12-.48.3-.68.55s-.3.54-.31.88zm.17-2.93h-.32c-.22 0-.4-.07-.55-.22s-.22-.34-.22-.58c0-.34.17-.65.5-.91.33-.27.93-.4 1.79-.4.72 0 1.3.16 1.74.47s.74.69.89 1.12c.05.14.07.29.07.46s0 .73.01 1.7v1.03c0 .47.02.8.07.97s.15.27.31.27c.15 0 .25-.08.3-.24s.07-.42.07-.78v-.53h.59v.58c0 .39-.02.62-.04.69-.09.29-.26.53-.52.69s-.53.26-.81.27-.52-.08-.69-.27c-.18-.19-.3-.39-.35-.62v-.06l-.03.04s-.04.06-.07.09-.07.07-.12.13-.11.11-.18.16-.14.11-.22.18-.17.12-.27.16-.21.08-.32.12c-.12.04-.25.07-.38.09-.14.02-.29.03-.46.04-.59 0-1.12-.15-1.59-.46-.47-.3-.71-.73-.71-1.28 0-.21.03-.4.1-.59s.2-.39.4-.6c.2-.22.43-.4.71-.55s.66-.29 1.15-.41c.49-.13 1.03-.2 1.62-.22h.21v-.32c0-.33-.03-.58-.09-.74-.22-.7-.69-1.05-1.43-1.05-.18 0-.34 0-.5.01-.16 0-.28.03-.37.06s-.13.04-.12.04c.22.15.32.36.32.65 0 .25-.08.44-.24.58l-.25.22z"/><path d="m64.88 19.53h.21c.38 0 .61-.07.69-.21v-.46c0-.14 0-.29.01-.46v-.58s0-.42 0-.62v-2.18c-.04-.19-.11-.31-.22-.37s-.33-.1-.66-.13h-.27v-.34c0-.23 0-.34.03-.34h.15c.1-.02.24-.03.41-.04.18 0 .35-.02.53-.03.16 0 .33-.02.52-.03s.33-.02.43-.04.15-.02.16-.01h.04v1.02c.38-.67.86-1 1.43-1h.09c.44 0 .77.11.97.32.21.22.31.44.31.68 0 .21-.06.38-.19.53s-.31.22-.56.22-.43-.08-.55-.24-.18-.32-.19-.5c0-.09 0-.17.03-.24.02-.07.04-.13.07-.18s.04-.07.04-.07c-.02-.02-.13 0-.34.06-.16.08-.28.15-.35.22-.46.44-.69 1.32-.69 2.64v1.56c0 .12 0 .22.01.29s0 .15 0 .22v.07s.02.04.04.06.04.03.07.04c.03 0 .05.02.07.04s.05.03.1.03.08 0 .1.01c.02 0 .06.01.13.01h.13s.07 0 .15.01h.15.46v.68h-.13c-.18-.03-.8-.04-1.87-.04-1.01 0-1.56.01-1.65.04h-.12v-.68h.24z"/><path d="m75.6 15.71h-.31c-.21 0-.38-.07-.53-.22s-.23-.33-.24-.56c0-.23.07-.41.22-.56.05-.05.07-.08.07-.09s-.05-.02-.15-.03c-.26-.04-.5-.06-.72-.06-.48 0-.88.16-1.18.47-.46.46-.69 1.23-.69 2.32 0 .81.15 1.44.46 1.9.4.6.94.9 1.62.9.4 0 .73-.13.97-.38s.42-.56.53-.91c.02-.08.04-.13.07-.15s.11-.03.24-.03h.21c.06.06.09.1.09.13 0 .04-.02.12-.06.24s-.12.28-.24.49-.26.39-.43.56-.4.32-.71.46c-.3.14-.64.2-1.02.19-.85 0-1.58-.31-2.21-.94s-.95-1.42-.96-2.37c0-1.02.32-1.85.96-2.49s1.38-.96 2.23-.96 1.44.13 1.77.4.5.58.5.94c0 .23-.08.41-.25.55l-.25.22z"/><path d="m77.09 13.98c.52-.04.92-.31 1.21-.83s.44-1.11.47-1.8v-.22h.59v2.71h1.99v.68h-1.99v2.12c0 1.23.01 1.92.01 2.08s.03.31.1.47c.14.38.38.58.72.58.43 0 .7-.35.8-1.05 0-.08.01-.3.01-.68v-.52h.59v.69c0 .76-.21 1.33-.62 1.73-.27.27-.61.4-1.03.4-.33 0-.62-.06-.87-.18s-.43-.27-.56-.46-.22-.36-.28-.52-.09-.31-.1-.47c0-.07-.01-.8-.01-2.18v-2.02h-1.17v-.55h.13z"/><path d="m84.29 18.64c0 .3.12.58.35.81.24.24.53.36.87.37.37 0 .7-.11.99-.34s.48-.52.58-.88c.02-.07.03-.39.04-.97 0-.57 0-.86-.01-.86-.08 0-.18 0-.31.01-.13 0-.35.05-.66.13s-.6.18-.86.29c-.26.12-.48.3-.68.55s-.3.54-.31.88zm.16-2.93h-.32c-.22 0-.4-.07-.55-.22s-.22-.34-.22-.58c0-.34.17-.65.5-.91.33-.27.93-.4 1.79-.4.72 0 1.3.16 1.74.47s.74.69.89 1.12c.05.14.07.29.07.46s0 .73.01 1.7v1.03c0 .47.02.8.07.97s.15.27.31.27c.15 0 .25-.08.3-.24s.07-.42.07-.78v-.53h.59v.58c0 .39-.02.62-.04.69-.09.29-.26.53-.52.69-.26.17-.53.26-.81.27s-.52-.08-.69-.27c-.18-.19-.3-.39-.35-.62v-.06l-.03.04s-.04.06-.07.09-.07.07-.12.13-.11.11-.18.16-.14.11-.22.18-.17.12-.27.16-.21.08-.32.12c-.12.04-.25.07-.38.09-.14.02-.29.03-.46.04-.59 0-1.12-.15-1.59-.46-.47-.3-.71-.73-.71-1.28 0-.21.03-.4.1-.59s.2-.39.4-.6c.2-.22.43-.4.71-.55s.66-.29 1.15-.41c.49-.13 1.03-.2 1.62-.22h.21v-.32c0-.33-.03-.58-.09-.74-.22-.7-.69-1.05-1.43-1.05-.18 0-.34 0-.5.01-.16 0-.28.03-.37.06s-.13.04-.12.04c.22.15.32.36.32.65 0 .25-.08.44-.24.58l-.25.22z"/><path d="m90.41 19.53h.21c.38 0 .61-.07.69-.21v-.91c0-.17 0-.36.01-.58v-.62-.97c0-.34 0-.63-.01-.87v-.34c-.03-.19-.1-.31-.21-.37s-.33-.1-.66-.13h-.27v-.34c0-.23 0-.34.03-.34h.15c.1-.02.24-.03.41-.04s.36-.02.55-.03c.17 0 .34-.02.53-.03s.33-.02.43-.04.15-.02.16-.01h.04v.59c0 .37 0 .56.01.56s.03-.02.07-.07.1-.12.18-.22.17-.19.28-.27.25-.17.43-.28.36-.19.56-.24.45-.07.75-.07c1.12.04 1.75.59 1.87 1.67 0 .07.01.75.01 2.05v1.27c0 .37 0 .59.03.66.02.07.07.12.16.15.21.03.45.04.72.04h.24v.68h-.47c-.23-.02-.47-.03-.74-.03s-.45 0-.56-.01c-1.01 0-1.56.01-1.65.04h-.12v-.68h.24c.6 0 .9-.08.9-.24 0-.02.01-.7.01-2.04 0-1.33-.02-2.03-.03-2.11-.06-.28-.16-.48-.3-.62s-.26-.22-.35-.25c-.1-.03-.23-.04-.38-.03-.44 0-.83.17-1.17.5-.27.27-.43.54-.5.81-.07.28-.11.68-.12 1.22v1.83c0 .29 0 .49.01.59 0 .1.02.16.04.19s.06.06.13.09c.21.03.45.04.72.04h.24v.68h-.46c-.24-.02-.49-.03-.75-.03s-.45 0-.56-.01c-1.01 0-1.56.01-1.65.04h-.12v-.68h.24z"/><path d="m109.42 5.44v-.09c0-.73-.3-1.09-.9-1.09-.17 0-.34.04-.52.12s-.34.18-.49.31-.28.25-.38.35-.2.22-.27.32l-.09.12-.31 1.27c-.22.85-.32 1.45-.32 1.8 0 .47.12.83.35 1.06.16.16.35.24.59.24.32 0 .65-.16.99-.47.25-.23.44-.5.59-.83.15-.32.31-.84.49-1.55s.27-1.23.27-1.56zm-3.88-4.75c0-.1.02-.21.06-.34s.1-.19.18-.19c0 0 .36-.02 1.06-.07s1.06-.08 1.08-.09c.12 0 .18.04.18.13s-.17.79-.5 2.11c-.08.33-.16.68-.25 1.03s-.16.62-.22.8l-.06.28s.03.01.09-.04c.48-.39.98-.59 1.49-.59.61 0 1.1.23 1.48.68.37.45.57 1.02.58 1.71 0 1.09-.39 2.08-1.17 2.96s-1.61 1.33-2.51 1.33c-.49 0-.94-.19-1.34-.56s-.61-.98-.62-1.81v-.13c0-.21.04-.49.12-.86.08-.36.32-1.33.72-2.91.49-1.94.74-2.96.74-3.08s-.19-.19-.56-.21h-.38s-.06-.01-.1-.04-.05-.06-.04-.1z"/><path d="m108.9 25.49c0-.06-.02-.17-.07-.32s-.16-.33-.34-.52-.4-.29-.68-.29c-.34 0-.67.15-.99.46-.31.3-.56.7-.74 1.19-.29.78-.49 1.58-.61 2.42v.16c0 .08 0 .14-.01.18 0 .44.09.75.27.91.18.17.39.26.63.27.37 0 .74-.16 1.11-.49s.58-.58.65-.75c.02-.04.15-.57.4-1.58s.37-1.56.38-1.64zm-4.69 2.52c0-.99.37-1.94 1.12-2.83s1.59-1.35 2.52-1.36c.5 0 .94.24 1.33.72.16-.29.38-.44.68-.44.13 0 .24.04.34.12s.15.18.15.29c0 .13-.18.91-.55 2.36s-.55 2.26-.56 2.45c0 .25.03.41.1.49s.17.12.31.13c.09 0 .19-.05.3-.13.21-.2.41-.67.61-1.42.06-.2.11-.3.15-.31.02 0 .07-.01.15-.01h.06c.19 0 .28.04.28.13 0 .06-.02.19-.07.4s-.15.47-.3.8c-.15.32-.3.57-.47.74-.13.13-.29.23-.47.31-.08.02-.2.03-.35.03-.33 0-.61-.07-.84-.22s-.37-.3-.44-.46l-.09-.22s-.03 0-.06.01l-.06.06c-.58.55-1.17.83-1.77.83-.54 0-1.02-.2-1.43-.59s-.62-1.02-.62-1.87z"/><rect x="102.25" y="16.08" width="10.76" height=".88"/><path d="m118.88 16.71v-.19c0-.13.07-.23.21-.29h4.41v-4.42c.11-.13.21-.19.3-.19.13 0 .23.07.3.22v4.4h4.4c.15.08.22.18.22.29s-.07.22-.22.29h-4.4v4.4c-.08.14-.17.21-.27.21h-.06c-.12 0-.21-.07-.27-.21v-4.4h-4.41c-.14-.07-.21-.17-.21-.29v.19z"/><path d="m134.42 13.88c-.27 0-.48-.09-.63-.27-.16-.18-.24-.39-.24-.65 0-.7.26-1.3.78-1.81s1.17-.77 1.95-.77c.9 0 1.64.28 2.24.83s.91 1.26.92 2.14c0 .42-.1.83-.3 1.21s-.43.72-.71 1c-.28.29-.67.65-1.18 1.09-.35.3-.85.76-1.48 1.36l-.87.83h1.12c1.54.01 2.37 0 2.46-.06.07-.02.19-.46.35-1.31v-.04h.59v.04s-.07.48-.19 1.34c-.12.87-.19 1.32-.22 1.36v.04h-5.48v-.46c0-.07.03-.14.09-.22s.21-.25.44-.52c.29-.31.53-.59.74-.83.09-.1.26-.28.5-.55.25-.27.41-.45.5-.55s.23-.26.43-.49.33-.39.41-.5.19-.26.34-.44c.15-.19.25-.34.31-.47s.13-.27.22-.43.15-.31.19-.47.07-.3.1-.44.04-.3.04-.49c0-.62-.17-1.16-.5-1.61s-.81-.68-1.43-.68c-.32 0-.61.08-.86.25s-.42.33-.52.49-.15.25-.15.28c0 0 .02.01.07.01.18 0 .36.07.55.21s.28.36.28.68c0 .25-.08.45-.24.62s-.38.26-.66.27z"/><path d="m141.98 10.66c0-.1.02-.21.06-.34s.1-.19.18-.19c0 0 .36-.02 1.06-.07s1.06-.08 1.08-.09c.12 0 .18.04.18.12 0 .07-.25 1.1-.74 3.08-.49 1.95-.74 2.95-.74 3.02.19-.1.33-.19.43-.28.24-.18.58-.49 1.02-.93s.79-.74 1.03-.9c.39-.27.77-.4 1.12-.4.3 0 .53.09.69.28.17.19.26.45.27.8 0 .25-.03.45-.1.62s-.16.29-.28.37-.22.13-.31.16-.18.04-.27.04c-.2 0-.35-.05-.47-.16s-.18-.25-.18-.43c0-.25.08-.45.24-.6.16-.16.31-.26.47-.31l.24-.04c-.12-.12-.24-.18-.35-.18h-.06c-.31.03-.62.15-.93.37s-.66.53-1.08.94c-.41.41-.74.71-.97.9.02 0 .09.02.22.04s.25.05.35.09c.11.04.24.08.38.12.15.04.28.11.4.21s.23.19.32.27c.1.08.18.21.25.38.07.18.1.34.09.49 0 .17-.02.37-.07.6-.05.24-.08.43-.09.59 0 .39.13.59.4.59.47 0 .86-.59 1.15-1.76.02-.08.12-.12.3-.12h.06c.16 0 .24.04.24.13 0 .05-.01.12-.04.21-.4 1.39-.98 2.08-1.74 2.08-.44 0-.8-.13-1.08-.38-.28-.26-.41-.62-.41-1.11 0-.18.01-.33.04-.46s.04-.25.04-.35c0-.22-.07-.4-.21-.56s-.31-.27-.52-.34-.37-.12-.5-.16-.22-.05-.27-.04h-.03c-.12.41-.22.81-.31 1.19s-.16.67-.21.86-.09.37-.13.55-.07.29-.1.35-.06.12-.1.19-.09.11-.16.13c-.13.09-.27.13-.41.13-.17 0-.3-.05-.38-.15-.09-.1-.13-.18-.13-.25 0-.1.18-.88.55-2.36s.72-2.93 1.08-4.35l.55-2.14c0-.13-.02-.21-.1-.24s-.27-.05-.58-.07h-.27s-.06-.01-.1-.04-.05-.06-.04-.1z"/><path d="m149.83 20.37c-.33 0-.5-.16-.5-.49v-.16l.19-.41c.74-1.55 1.27-2.9 1.61-4.03l.12-.35h-.47c-.37 0-.64.01-.8.04s-.35.12-.58.28c-.11.07-.22.16-.32.27-.11.11-.2.21-.28.31s-.12.16-.13.18c-.02 0-.09.01-.22.01-.19 0-.28-.05-.28-.15 0-.06.09-.23.28-.52s.46-.59.81-.91.7-.51 1.05-.56c.07-.02 1.18-.03 3.32-.03 1.57 0 2.38 0 2.42.01.2.07.3.21.3.41 0 .3-.16.51-.47.62-.06.02-.4.03-1.02.03h-.94l-.04.25c-.12.71-.18 1.29-.18 1.76 0 .51.04.97.13 1.37s.18.72.28.94c.1.23.15.36.15.41 0 .17-.07.32-.21.47s-.31.22-.53.22c-.11 0-.2-.01-.27-.04s-.15-.15-.24-.35c-.09-.21-.17-.5-.24-.88 0-.09-.01-.3-.01-.65 0-.48.04-1 .13-1.55s.18-1 .27-1.36c.09-.35.14-.55.15-.59h-1.45v.06s-.11.42-.3 1.17-.4 1.54-.63 2.37c-.24.84-.39 1.31-.46 1.43-.11.28-.32.41-.63.41z"/><path d="m204.14 15.37c0-.06-.02-.17-.07-.32-.05-.16-.16-.33-.34-.52s-.4-.29-.68-.29c-.34 0-.67.15-.99.46-.31.3-.56.7-.74 1.19-.29.78-.49 1.58-.61 2.42v.16c0 .08 0 .14-.01.18 0 .44.09.75.27.91.18.17.39.26.63.27.37 0 .74-.16 1.11-.49.36-.32.58-.58.65-.75.02-.04.15-.57.4-1.58s.37-1.56.38-1.64zm-4.7 2.52c0-.99.37-1.94 1.12-2.83s1.59-1.35 2.52-1.36c.5 0 .94.24 1.33.72.16-.29.38-.44.68-.44.13 0 .24.04.34.12s.15.18.15.29c0 .13-.18.91-.55 2.36-.36 1.45-.55 2.26-.56 2.45 0 .25.03.41.1.49s.17.12.31.13c.09 0 .19-.05.3-.13.21-.2.41-.67.61-1.42.06-.2.11-.3.15-.31.02 0 .07-.01.15-.01h.06c.19 0 .28.04.28.13 0 .06-.02.19-.07.4s-.15.47-.3.8c-.15.32-.3.57-.47.74-.13.13-.29.23-.47.31-.08.02-.2.03-.35.03-.33 0-.61-.07-.84-.22s-.37-.3-.44-.46l-.09-.22s-.03 0-.06.01l-.06.06c-.58.55-1.17.83-1.77.83-.54 0-1.02-.2-1.43-.59s-.62-1.02-.62-1.87z"/><path d="m212.1 12.54c0-.08.02-.14.06-.19s.08-.08.12-.09h.04c.07-.01.83.32 2.27 1 1.45.68 2.88 1.35 4.29 2.02l2.11 1.02c.07.05.1.12.1.22s-.03.17-.1.22c-.02.02-1.46.7-4.31 2.05l-4.25 2.01h-.09c-.18-.02-.27-.12-.27-.29v-.04c0-.07.06-.15.22-.24.19-.1.92-.45 2.21-1.06.77-.36 1.41-.66 1.92-.9l3.66-1.74-3.66-1.74c-2.83-1.34-4.27-2.03-4.31-2.08-.02-.04-.03-.09-.03-.16z"/><path d="m231.18 11.4c-.3-.31-.64-.47-1.05-.47s-.77.16-1.06.47c-.25.26-.41.61-.49 1.06s-.12 1.4-.12 2.83c0 1.55.04 2.58.12 3.07s.26.88.53 1.17c.28.29.61.44 1.02.44s.73-.15 1-.44c.29-.29.46-.71.53-1.24s.11-1.53.12-2.99c0-1.43-.04-2.36-.12-2.82s-.24-.81-.49-1.08zm-3.32.18c.55-.8 1.3-1.19 2.26-1.19.47 0 .94.13 1.42.38.47.26.86.71 1.15 1.36.36.82.55 1.94.55 3.36 0 1.52-.21 2.69-.63 3.5-.2.41-.47.74-.81.99s-.64.4-.9.46-.51.09-.75.1c-.26 0-.51-.03-.77-.09s-.56-.22-.9-.47c-.34-.26-.61-.59-.81-.99-.42-.81-.63-1.97-.63-3.5 0-1.71.28-3.01.84-3.91z"/><path d="m58.83 66.81c0 .3.12.58.35.81.24.24.53.36.87.37.37 0 .7-.11.99-.34s.48-.52.58-.88c.02-.07.03-.39.04-.97 0-.57 0-.86-.01-.86-.08 0-.18 0-.31.01-.13 0-.35.05-.66.13s-.6.18-.86.29c-.26.12-.48.3-.68.55s-.3.54-.31.88zm.17-2.93h-.32c-.22 0-.4-.07-.55-.22s-.22-.34-.22-.58c0-.34.17-.65.5-.91.33-.27.93-.4 1.79-.4.72 0 1.3.16 1.74.47s.74.69.89 1.12c.05.14.07.29.07.46s0 .73.01 1.7v1.03c0 .47.02.8.07.97s.15.27.31.27c.15 0 .25-.08.3-.24s.07-.42.07-.78v-.53h.59v.58c0 .39-.02.62-.04.69-.09.3-.26.53-.52.69-.26.17-.53.26-.81.27s-.52-.08-.69-.27c-.18-.19-.3-.39-.35-.62v-.06l-.03.04s-.04.06-.07.09-.07.07-.12.13-.11.11-.18.16-.14.11-.22.18-.17.12-.27.16-.21.08-.32.12c-.12.04-.25.07-.38.09-.14.02-.29.03-.46.04-.59 0-1.12-.15-1.59-.46-.47-.3-.71-.73-.71-1.28 0-.21.03-.4.1-.59s.2-.39.4-.6c.2-.22.43-.4.71-.55s.66-.29 1.15-.41c.49-.13 1.03-.2 1.62-.22h.21v-.32c0-.33-.03-.58-.09-.74-.22-.7-.69-1.05-1.43-1.05-.18 0-.34 0-.5.01-.16 0-.28.03-.37.06s-.13.04-.12.04c.22.15.32.36.32.65 0 .25-.08.44-.24.58l-.25.22z"/><path d="m64.88 67.7h.21c.38 0 .61-.07.69-.21v-.46c0-.14 0-.29.01-.46v-.58s0-.42 0-.62v-2.18c-.04-.19-.11-.31-.22-.37s-.33-.1-.66-.13h-.27v-.34c0-.23 0-.34.03-.34h.15c.1-.02.24-.03.41-.04.18 0 .35-.02.53-.03.16 0 .33-.02.52-.03s.33-.02.43-.04.15-.02.16-.01h.04v1.02c.38-.67.86-1 1.43-1h.09c.44 0 .77.11.97.32.21.22.31.44.31.68 0 .21-.06.38-.19.53s-.31.22-.56.22-.43-.08-.55-.24-.18-.32-.19-.5c0-.09 0-.17.03-.24.02-.07.04-.13.07-.18s.04-.07.04-.07c-.02-.02-.13 0-.34.06-.16.08-.28.15-.35.22-.46.44-.69 1.32-.69 2.64v1.56c0 .12 0 .22.01.29s0 .15 0 .22v.07s.02.04.04.06.04.03.07.04c.03 0 .05.02.07.04s.05.03.1.03.08 0 .1.01c.02 0 .06.01.13.01h.13s.07 0 .15.01h.15.46v.68h-.13c-.18-.03-.8-.04-1.87-.04-1.01 0-1.56.01-1.65.04h-.12v-.68h.24z"/><path d="m75.6 63.88h-.31c-.21 0-.38-.07-.53-.22s-.23-.33-.24-.56c0-.23.07-.41.22-.56.05-.05.07-.08.07-.09s-.05-.02-.15-.03c-.26-.04-.5-.06-.72-.06-.48 0-.88.16-1.18.47-.46.46-.69 1.23-.69 2.32 0 .81.15 1.44.46 1.9.4.6.94.9 1.62.9.4 0 .73-.13.97-.38s.42-.56.53-.91c.02-.08.04-.13.07-.15s.11-.03.24-.03h.21c.06.06.09.1.09.13 0 .04-.02.12-.06.24s-.12.28-.24.49-.26.39-.43.56-.4.32-.71.46c-.3.14-.64.2-1.02.19-.85 0-1.58-.31-2.21-.94s-.95-1.42-.96-2.37c0-1.02.32-1.85.96-2.49s1.38-.96 2.23-.96 1.44.13 1.77.4.5.58.5.94c0 .23-.08.41-.25.55l-.25.22z"/><path d="m77.09 62.15c.52-.04.92-.31 1.21-.83s.44-1.11.47-1.8v-.22h.59v2.71h1.99v.68h-1.99v2.12c0 1.23.01 1.92.01 2.08s.03.31.1.47c.14.38.38.58.72.58.43 0 .7-.35.8-1.05 0-.08.01-.3.01-.68v-.52h.59v.69c0 .76-.21 1.33-.62 1.73-.27.27-.61.4-1.03.4-.33 0-.62-.06-.87-.18s-.43-.27-.56-.46-.22-.36-.28-.52-.09-.31-.1-.47c0-.07-.01-.8-.01-2.18v-2.02h-1.17v-.55h.13z"/><path d="m84.29 66.81c0 .3.12.58.35.81.24.24.53.36.87.37.37 0 .7-.11.99-.34s.48-.52.58-.88c.02-.07.03-.39.04-.97 0-.57 0-.86-.01-.86-.08 0-.18 0-.31.01-.13 0-.35.05-.66.13s-.6.18-.86.29c-.26.12-.48.3-.68.55s-.3.54-.31.88zm.16-2.93h-.32c-.22 0-.4-.07-.55-.22s-.22-.34-.22-.58c0-.34.17-.65.5-.91.33-.27.93-.4 1.79-.4.72 0 1.3.16 1.74.47s.74.69.89 1.12c.05.14.07.29.07.46s0 .73.01 1.7v1.03c0 .47.02.8.07.97s.15.27.31.27c.15 0 .25-.08.3-.24s.07-.42.07-.78v-.53h.59v.58c0 .39-.02.62-.04.69-.09.3-.26.53-.52.69-.26.17-.53.26-.81.27s-.52-.08-.69-.27c-.18-.19-.3-.39-.35-.62v-.06l-.03.04s-.04.06-.07.09-.07.07-.12.13-.11.11-.18.16-.14.11-.22.18-.17.12-.27.16-.21.08-.32.12c-.12.04-.25.07-.38.09-.14.02-.29.03-.46.04-.59 0-1.12-.15-1.59-.46-.47-.3-.71-.73-.71-1.28 0-.21.03-.4.1-.59s.2-.39.4-.6c.2-.22.43-.4.71-.55s.66-.29 1.15-.41c.49-.13 1.03-.2 1.62-.22h.21v-.32c0-.33-.03-.58-.09-.74-.22-.7-.69-1.05-1.43-1.05-.18 0-.34 0-.5.01-.16 0-.28.03-.37.06s-.13.04-.12.04c.22.15.32.36.32.65 0 .25-.08.44-.24.58l-.25.22z"/><path d="m90.41 67.7h.21c.38 0 .61-.07.69-.21v-.91c0-.17 0-.36.01-.58v-.62-.97c0-.34 0-.63-.01-.87v-.34c-.03-.19-.1-.31-.21-.37s-.33-.1-.66-.13h-.27v-.34c0-.23 0-.34.03-.34h.15c.1-.02.24-.03.41-.04s.36-.02.55-.03c.17 0 .34-.02.53-.03s.33-.02.43-.04.15-.02.16-.01h.04v.59c0 .37 0 .56.01.56s.03-.02.07-.07.1-.12.18-.22.17-.19.28-.27.25-.17.43-.28.36-.19.56-.24.45-.07.75-.07c1.12.04 1.75.59 1.87 1.67 0 .07.01.75.01 2.05v1.27c0 .37 0 .59.03.66.02.07.07.12.16.15.21.03.45.04.72.04h.24v.68h-.47c-.23-.02-.47-.03-.74-.03s-.45 0-.56-.01c-1.01 0-1.56.01-1.65.04h-.12v-.68h.24c.6 0 .9-.08.9-.24 0-.02.01-.7.01-2.04 0-1.33-.02-2.03-.03-2.11-.06-.28-.16-.48-.3-.62s-.26-.22-.35-.25c-.1-.03-.23-.04-.38-.03-.44 0-.83.17-1.17.5-.27.27-.43.54-.5.81-.07.28-.11.68-.12 1.22v1.83c0 .29 0 .49.01.59s.02.16.04.19.06.06.13.09c.21.03.45.04.72.04h.24v.68h-.46c-.24-.02-.49-.03-.75-.03s-.45 0-.56-.01c-1.01 0-1.56.01-1.65.04h-.12v-.68h.24z"/><path d="m108.42 53.61v-.09c0-.73-.3-1.09-.9-1.09-.17 0-.34.04-.52.12s-.34.18-.49.31-.28.25-.38.35c-.11.11-.2.22-.27.32l-.09.12-.31 1.27c-.22.85-.32 1.45-.32 1.8 0 .47.12.83.35 1.06.16.16.35.24.59.24.32 0 .65-.16.99-.47.25-.23.44-.5.59-.83.15-.32.31-.84.49-1.55s.27-1.23.27-1.56zm-3.88-4.75c0-.1.02-.21.06-.34s.1-.19.18-.19c0 0 .36-.02 1.06-.07s1.06-.08 1.08-.09c.12 0 .18.04.18.13s-.17.79-.5 2.11c-.08.33-.16.68-.25 1.03s-.16.62-.22.8l-.06.28s.03.01.09-.04c.48-.39.98-.59 1.49-.59.61 0 1.1.23 1.48.68.37.45.57 1.02.58 1.71 0 1.09-.39 2.08-1.17 2.96-.78.89-1.61 1.33-2.51 1.33-.49 0-.94-.19-1.34-.56s-.61-.98-.62-1.81v-.13c0-.21.04-.49.12-.86.08-.36.32-1.33.72-2.91.49-1.94.74-2.96.74-3.08s-.19-.19-.56-.21h-.38s-.06-.01-.1-.04-.05-.06-.04-.1z"/><path d="m107.9 73.66c0-.06-.02-.17-.07-.32-.05-.16-.16-.33-.34-.52s-.4-.29-.68-.29c-.34 0-.67.15-.99.46-.31.3-.56.7-.74 1.19-.29.78-.49 1.58-.61 2.42v.16c0 .08 0 .14-.01.18 0 .44.09.75.27.91.18.17.39.26.63.27.37 0 .74-.16 1.11-.49s.58-.58.65-.75c.02-.04.15-.57.4-1.58s.37-1.56.38-1.64zm-4.69 2.52c0-.99.37-1.94 1.12-2.83s1.59-1.35 2.52-1.36c.5 0 .94.24 1.33.72.16-.29.38-.44.68-.44.13 0 .24.04.34.12s.15.18.15.29c0 .13-.18.91-.55 2.36s-.55 2.26-.56 2.45c0 .25.03.41.1.49s.17.12.31.13c.09 0 .19-.05.3-.13.21-.2.41-.67.61-1.42.06-.2.11-.3.15-.31.02 0 .07-.01.15-.01h.06c.19 0 .28.04.28.13 0 .06-.02.19-.07.4s-.15.47-.3.8c-.15.32-.3.57-.47.74-.13.13-.29.23-.47.31-.08.02-.2.03-.35.03-.33 0-.61-.07-.84-.22s-.37-.3-.44-.46l-.09-.22s-.03 0-.06.01l-.06.06c-.58.55-1.17.83-1.77.83-.54 0-1.02-.2-1.43-.59s-.62-1.02-.62-1.87z"/><rect x="101.25" y="64.25" width="10.76" height=".88"/><path d="m116.88 64.88v-.19c0-.13.07-.23.21-.29h4.41v-4.42c.11-.13.21-.19.3-.19.13 0 .23.07.3.22v4.4h4.4c.15.08.22.18.22.29s-.07.22-.22.29h-4.4v4.4c-.08.14-.17.21-.27.21h-.06c-.12 0-.21-.07-.27-.21v-4.4h-4.41c-.14-.07-.21-.17-.21-.29v.19z"/><path d="m131.2 64.69c0-.68.05-1.32.15-1.93s.21-1.14.34-1.58.31-.88.55-1.3.42-.75.56-.99.34-.49.62-.77.44-.44.49-.5.17-.16.37-.31h.25c.14 0 .21.04.21.13 0 .03-.08.13-.25.31s-.37.44-.61.78-.48.77-.72 1.27c-.25.5-.45 1.18-.62 2.04s-.25 1.8-.25 2.85.08 1.99.25 2.83c.17.85.37 1.53.61 2.05s.48.94.72 1.27c.25.32.45.59.62.78.17.2.25.3.25.31 0 .09-.07.13-.22.13h-.24l-.41-.35c-.92-.84-1.6-1.88-2.02-3.13s-.63-2.55-.63-3.89z"/><path d="m137.17 62.05c-.27 0-.48-.09-.63-.27-.16-.18-.24-.39-.24-.65 0-.7.26-1.3.78-1.81s1.17-.77 1.95-.77c.9 0 1.64.28 2.24.83s.91 1.26.91 2.14c0 .42-.1.83-.3 1.21s-.43.72-.71 1c-.28.29-.67.65-1.18 1.09-.35.3-.85.76-1.48 1.36l-.87.83h1.12c1.54.01 2.37 0 2.46-.06.07-.02.19-.46.35-1.31v-.04h.59v.04s-.07.48-.19 1.34-.19 1.32-.22 1.36v.04h-5.48v-.46c0-.07.03-.14.09-.22s.21-.25.44-.52c.29-.31.53-.59.74-.83.09-.1.26-.28.5-.55.25-.27.41-.45.5-.55s.23-.26.43-.49.33-.39.41-.5.19-.26.34-.44c.15-.19.25-.34.31-.47s.13-.27.22-.43.15-.31.19-.47.07-.3.1-.44.04-.3.04-.49c0-.62-.17-1.16-.5-1.61s-.81-.68-1.43-.68c-.32 0-.61.08-.86.25s-.42.33-.52.49-.15.25-.15.28c0 0 .02.01.07.01.18 0 .36.07.55.21s.28.36.28.68c0 .25-.08.45-.24.62s-.38.26-.66.27z"/><path d="m144.72 58.83c0-.1.02-.21.06-.34s.1-.19.18-.19c0 0 .36-.02 1.06-.07s1.06-.08 1.08-.09c.12 0 .18.04.18.12 0 .07-.25 1.1-.74 3.08-.49 1.95-.74 2.95-.74 3.02.19-.1.33-.19.43-.28.24-.18.58-.49 1.02-.93s.79-.74 1.03-.9c.39-.27.77-.4 1.12-.4.3 0 .53.09.69.28s.26.45.27.8c0 .25-.03.45-.1.62s-.16.29-.28.37-.22.13-.31.16-.18.04-.27.04c-.2 0-.35-.05-.47-.16s-.18-.25-.18-.43c0-.25.08-.45.24-.6.16-.16.31-.26.47-.31l.24-.04c-.12-.12-.24-.18-.35-.18h-.06c-.31.03-.62.15-.93.37s-.66.53-1.08.94c-.41.41-.74.71-.97.9.02 0 .09.02.22.04s.25.05.35.09c.11.04.24.08.38.12.15.04.28.11.4.21s.23.19.32.27c.1.08.18.21.25.38.07.18.1.34.09.49 0 .17-.02.37-.07.6-.05.24-.08.43-.09.59 0 .39.13.59.4.59.47 0 .86-.59 1.15-1.76.02-.08.12-.12.3-.12h.06c.16 0 .24.04.24.13 0 .05-.01.12-.04.21-.4 1.39-.98 2.08-1.74 2.08-.44 0-.8-.13-1.08-.38-.28-.26-.41-.62-.41-1.11 0-.18.01-.33.04-.46s.04-.25.04-.35c0-.22-.07-.4-.21-.56s-.31-.27-.52-.34-.37-.12-.5-.16-.22-.05-.27-.04h-.03c-.12.41-.22.81-.31 1.19s-.16.67-.21.86-.09.37-.13.55-.07.29-.1.35-.06.12-.1.19-.09.11-.16.13c-.13.09-.27.13-.41.13-.17 0-.3-.05-.38-.15-.09-.1-.13-.18-.13-.25 0-.1.18-.89.55-2.36.36-1.47.72-2.93 1.08-4.35l.55-2.14c0-.13-.02-.21-.1-.24s-.27-.05-.58-.07h-.27s-.06-.01-.1-.04-.05-.06-.04-.1z"/><path d="m154.73 64.88v-.19c0-.13.07-.23.21-.29h4.41v-4.42c.11-.13.21-.19.3-.19.13 0 .23.07.3.22v4.4h4.4c.15.08.22.18.22.29s-.07.22-.22.29h-4.4v4.4c-.08.14-.17.21-.27.21h-.06c-.12 0-.21-.07-.27-.21v-4.4h-4.41c-.14-.07-.21-.17-.21-.29v.19z"/><path d="m171.81 59.85-.19.07c-.14.05-.33.1-.59.15s-.54.08-.86.1h-.28v-.68h.28c.46-.02.89-.09 1.28-.22s.67-.25.83-.35.3-.22.41-.32c.02-.03.08-.04.18-.04.09 0 .17.03.25.09v8.83c.08.07.14.11.19.13s.17.04.35.06c.19.02.49.03.91.03h.38v.68h-.16c-.21-.03-.99-.04-2.35-.04s-2.11.01-2.32.04h-.18v-.68h.94c.16 0 .28 0 .37-.01.09 0 .17-.02.24-.04s.11-.03.12-.03.04-.02.09-.07.08-.07.09-.06v-7.63z"/><path d="m176.93 57.33h.06s.1-.01.15-.01h.18l.41.35c.92.84 1.6 1.88 2.02 3.13s.63 2.55.63 3.89c0 .67-.05 1.31-.15 1.93s-.21 1.15-.34 1.58-.31.87-.55 1.3-.42.76-.56.99-.34.48-.61.75c-.27.28-.42.44-.47.49s-.16.14-.34.28l-.06.06h-.34s-.05-.01-.07-.04-.03-.07-.04-.13c0 0 .06-.07.16-.19 1.52-1.58 2.29-3.92 2.29-7.01s-.76-5.42-2.29-7.01c-.1-.12-.15-.18-.16-.19 0-.08.02-.13.07-.16z"/><path d="m183.73 68.54c-.33 0-.5-.16-.5-.49v-.16l.19-.41c.74-1.55 1.27-2.9 1.61-4.03l.12-.35h-.47c-.37 0-.64.01-.8.04s-.35.12-.58.28c-.11.07-.22.16-.32.27-.11.11-.2.21-.28.31s-.12.16-.13.18c-.02 0-.09.01-.22.01-.19 0-.28-.05-.28-.15 0-.06.09-.23.28-.52s.46-.59.81-.91.7-.51 1.05-.56c.07-.02 1.18-.03 3.32-.03 1.57 0 2.38 0 2.42.01.2.07.3.21.3.41 0 .3-.16.51-.47.62-.06.02-.4.03-1.02.03h-.94l-.04.25c-.12.71-.18 1.29-.18 1.76 0 .51.04.97.13 1.37s.18.72.28.94c.1.23.15.36.15.41 0 .17-.07.32-.21.47s-.31.22-.53.22c-.11 0-.2-.01-.27-.04s-.15-.15-.24-.35c-.09-.21-.17-.5-.24-.88 0-.09-.01-.3-.01-.65 0-.48.04-1 .13-1.55s.18-1 .27-1.36c.09-.35.14-.55.15-.59h-1.45v.06s-.11.42-.3 1.17-.4 1.54-.63 2.37c-.24.84-.39 1.31-.46 1.43-.11.28-.32.41-.63.41z"/><path d="m204.14 63.54c0-.06-.02-.17-.07-.32-.05-.16-.16-.33-.34-.52s-.4-.29-.68-.29c-.34 0-.67.15-.99.46-.31.3-.56.7-.74 1.19-.29.78-.49 1.58-.61 2.42v.16c0 .08 0 .14-.01.18 0 .44.09.75.27.91.18.17.39.26.63.27.37 0 .74-.16 1.11-.49.36-.32.58-.58.65-.75.02-.04.15-.57.4-1.58s.37-1.56.38-1.64zm-4.7 2.52c0-.99.37-1.94 1.12-2.83s1.59-1.35 2.52-1.36c.5 0 .94.24 1.33.72.16-.29.38-.44.68-.44.13 0 .24.04.34.12s.15.18.15.29c0 .13-.18.91-.55 2.36-.36 1.45-.55 2.26-.56 2.45 0 .25.03.41.1.49s.17.12.31.13c.09 0 .19-.05.3-.13.21-.2.41-.67.61-1.42.06-.2.11-.3.15-.31.02 0 .07-.01.15-.01h.06c.19 0 .28.04.28.13 0 .06-.02.19-.07.4s-.15.47-.3.8-.3.57-.47.74c-.13.13-.29.23-.47.31-.08.02-.2.03-.35.03-.33 0-.61-.07-.84-.22s-.37-.3-.44-.46l-.09-.22s-.03 0-.06.01l-.06.06c-.58.55-1.17.83-1.77.83-.54 0-1.02-.2-1.43-.59s-.62-1.02-.62-1.87z"/><path d="m220.1 68.54v.12c0 .08-.03.15-.09.21s-.11.09-.15.1c-.07 0-.83-.34-2.27-1.02-1.45-.68-2.87-1.35-4.28-2.02l-2.13-1.02c-.07-.05-.1-.12-.1-.22 0-.11.04-.19.12-.24 5.64-2.69 8.53-4.04 8.66-4.04.03 0 .07.03.13.09s.09.13.1.22c0 .09-.02.16-.1.21 0 0-1.34.64-3.98 1.9l-3.93 1.86 3.93 1.86c2.65 1.26 3.97 1.89 3.98 1.9.07.06.1.13.1.21v-.12z"/><path d="m229.18 59.57c-.3-.31-.64-.47-1.05-.47s-.77.16-1.06.47c-.25.26-.41.61-.49 1.06s-.12 1.4-.12 2.83c0 1.55.04 2.58.12 3.07s.26.88.53 1.17c.28.29.61.44 1.02.44s.73-.15 1-.44c.29-.29.46-.71.53-1.24s.11-1.53.12-2.99c0-1.43-.04-2.36-.12-2.82s-.24-.81-.49-1.08zm-3.32.18c.55-.8 1.3-1.19 2.26-1.19.47 0 .94.13 1.42.38.47.26.86.71 1.15 1.36.36.82.55 1.94.55 3.36 0 1.52-.21 2.69-.63 3.5-.2.41-.47.74-.81.99s-.64.4-.9.46-.51.09-.75.1c-.26 0-.51-.03-.77-.09s-.56-.22-.9-.47c-.34-.26-.61-.59-.81-.99-.42-.81-.63-1.97-.63-3.5 0-1.71.28-3.01.84-3.91z"/><path d="m232.97 67.86v-.37c0-.25.08-.46.24-.63s.37-.27.63-.27.52.12.74.37.33.68.34 1.3c0 .34-.04.68-.13 1s-.19.6-.31.84-.25.44-.38.6c-.14.17-.26.3-.35.4-.1.1-.16.14-.19.13-.04 0-.1-.04-.19-.13s-.13-.15-.13-.19.05-.12.16-.24.23-.27.37-.44c.14-.18.27-.42.38-.74.12-.31.2-.67.24-1.08v-.18h-.01s-.04.03-.07.04-.06.02-.09.04-.07.03-.13.03-.12 0-.18.01c-.27 0-.48-.08-.65-.25l-.27-.27z"/><path d="m243.34 63.58v-.09c0-.73-.3-1.09-.9-1.09-.17 0-.34.04-.52.12s-.34.18-.49.31-.28.25-.38.35-.2.22-.27.32l-.09.12-.31 1.27c-.22.85-.32 1.45-.32 1.8 0 .47.12.83.35 1.06.16.16.35.24.59.24.32 0 .65-.16.99-.47.25-.23.44-.5.59-.83.15-.32.31-.84.49-1.55s.27-1.23.27-1.56zm-3.88-4.75c0-.1.02-.21.06-.34s.1-.19.18-.19c0 0 .36-.02 1.06-.07s1.06-.08 1.08-.09c.12 0 .18.04.18.13s-.17.79-.5 2.11c-.08.33-.16.68-.25 1.03s-.16.62-.22.8l-.06.28s.03.01.09-.04c.48-.39.98-.59 1.49-.59.61 0 1.1.23 1.48.68.37.45.57 1.02.58 1.71 0 1.09-.39 2.08-1.17 2.96s-1.61 1.33-2.51 1.33c-.49 0-.94-.19-1.34-.56s-.61-.98-.62-1.81v-.13c0-.21.04-.49.12-.86.08-.36.32-1.33.72-2.91.49-1.94.74-2.96.74-3.08s-.19-.19-.56-.21h-.38s-.06-.01-.1-.04-.05-.06-.04-.1z"/><path d="m249.05 70.12c0-.1.07-.2.22-.29h8.54c.16.06.24.16.24.29 0 .12-.07.22-.22.29h-8.57c-.14-.07-.21-.17-.21-.29zm-.01-10.83c0-.08.03-.15.09-.21s.11-.09.15-.09c.08 0 .84.33 2.27 1 1.44.67 2.86 1.34 4.28 2.02s2.13 1.02 2.13 1.03c.07.05.1.12.1.22s-.03.17-.1.22c-.02.02-1.46.7-4.31 2.05l-4.25 2.01h-.09c-.18-.02-.27-.12-.27-.29v-.04c0-.07.06-.15.22-.24.19-.1.92-.45 2.21-1.06.77-.36 1.41-.66 1.92-.9l3.66-1.74-3.93-1.86c-.68-.32-1.47-.7-2.36-1.12-.87-.4-1.37-.64-1.51-.72s-.21-.17-.22-.28z"/><path d="m267.13 59.57c-.3-.31-.64-.47-1.05-.47s-.77.16-1.06.47c-.25.26-.41.61-.49 1.06s-.12 1.4-.12 2.83c0 1.55.04 2.58.12 3.07s.26.88.53 1.17c.28.29.61.44 1.02.44s.73-.15 1-.44c.29-.29.46-.71.53-1.24s.11-1.53.12-2.99c0-1.43-.04-2.36-.12-2.82s-.24-.81-.49-1.08zm-3.32.18c.55-.8 1.3-1.19 2.26-1.19.47 0 .94.13 1.42.38.47.26.86.71 1.15 1.36.36.82.55 1.94.55 3.36 0 1.52-.21 2.69-.63 3.5-.2.41-.47.74-.81.99s-.64.4-.9.46-.51.09-.75.1c-.26 0-.51-.03-.77-.09s-.56-.22-.9-.47c-.34-.26-.61-.59-.81-.99-.42-.81-.63-1.97-.63-3.5 0-1.71.28-3.01.84-3.91z"/><path d="m58.83 114.99c0 .3.12.58.35.81.24.24.53.36.87.37.37 0 .7-.11.99-.34s.48-.52.58-.88c.02-.07.03-.39.04-.97 0-.57 0-.86-.01-.86-.08 0-.18 0-.31.01-.13 0-.35.05-.66.13s-.6.18-.86.29-.48.3-.68.55-.3.54-.31.88zm.17-2.94h-.32c-.22 0-.4-.07-.55-.22s-.22-.34-.22-.58c0-.34.17-.65.5-.91.33-.27.93-.4 1.79-.4.72 0 1.3.16 1.74.47s.74.69.89 1.12c.05.14.07.29.07.46s0 .73.01 1.7v1.03c0 .47.02.8.07.97.05.18.15.27.31.27.15 0 .25-.08.3-.24s.07-.42.07-.78v-.53h.59v.58c0 .39-.02.62-.04.69-.09.29-.26.53-.52.69-.26.17-.53.26-.81.27s-.52-.08-.69-.27c-.18-.19-.3-.39-.35-.62v-.06l-.03.04s-.04.06-.07.09-.07.07-.12.13-.11.11-.18.16-.14.11-.22.18-.17.12-.27.16-.21.08-.32.12c-.12.04-.25.07-.38.09-.14.02-.29.03-.46.04-.59 0-1.12-.15-1.59-.46-.47-.3-.71-.73-.71-1.28 0-.21.03-.4.1-.59s.2-.39.4-.6c.2-.22.43-.4.71-.55s.66-.29 1.15-.41c.49-.13 1.03-.2 1.62-.22h.21v-.32c0-.33-.03-.58-.09-.74-.22-.7-.69-1.05-1.43-1.05-.18 0-.34 0-.5.01-.16 0-.28.03-.37.06s-.13.04-.12.04c.22.15.32.36.32.65 0 .25-.08.44-.24.58l-.25.22z"/><path d="m64.88 115.87h.21c.38 0 .61-.07.69-.21v-.46c0-.14 0-.29.01-.46v-.58-.62-2.18c-.04-.19-.11-.31-.22-.37s-.33-.1-.66-.13h-.27v-.34c0-.23 0-.34.03-.34h.15c.1-.02.24-.03.41-.04.18 0 .35-.02.53-.03.16 0 .33-.02.52-.03.19 0 .33-.02.43-.04s.15-.02.16-.01h.04v1.02c.38-.67.86-1 1.43-1h.09c.44 0 .77.11.97.32.21.22.31.44.31.68 0 .21-.06.38-.19.53s-.31.22-.56.22-.43-.08-.55-.24-.18-.32-.19-.5c0-.09 0-.17.03-.24s.04-.13.07-.18.04-.07.04-.07c-.02-.02-.13 0-.34.06-.16.08-.28.15-.35.22-.46.44-.69 1.32-.69 2.64v1.56c0 .12 0 .22.01.3v.22.07s.02.04.04.06.04.03.07.04c.03 0 .05.02.07.04s.05.03.1.03.08 0 .1.01c.02 0 .06.01.13.01h.13s.07 0 .15.01h.15.46v.68h-.13c-.18-.03-.8-.04-1.87-.04-1.01 0-1.56.01-1.65.04h-.12v-.68h.24z"/><path d="m75.6 112.05h-.31c-.21 0-.38-.07-.53-.22s-.23-.33-.24-.56c0-.23.07-.41.22-.56.05-.05.07-.08.07-.09s-.05-.02-.15-.03c-.26-.04-.5-.06-.72-.06-.48 0-.88.16-1.18.47-.46.46-.69 1.23-.69 2.32 0 .81.15 1.44.46 1.9.4.6.94.9 1.62.9.4 0 .73-.13.97-.38.25-.26.42-.56.53-.91.02-.08.04-.13.07-.15s.11-.03.24-.03h.21c.06.06.09.1.09.13 0 .04-.02.12-.06.24s-.12.28-.24.49-.26.39-.43.56-.4.32-.71.46c-.3.14-.64.2-1.02.19-.85 0-1.58-.31-2.21-.94s-.95-1.42-.96-2.37c0-1.02.32-1.85.96-2.49s1.38-.96 2.23-.96 1.44.13 1.77.4.5.58.5.94c0 .23-.08.41-.25.55l-.25.22z"/><path d="m77.09 110.32c.52-.04.92-.31 1.21-.83.29-.51.44-1.11.47-1.8v-.22h.59v2.71h1.99v.68h-1.99v2.12c0 1.23.01 1.92.01 2.08s.03.31.1.47c.14.38.38.58.72.58.43 0 .7-.35.8-1.05 0-.08.01-.3.01-.68v-.52h.59v.69c0 .76-.21 1.33-.62 1.73-.27.27-.61.4-1.03.4-.33 0-.62-.06-.87-.18s-.43-.27-.56-.46-.22-.36-.28-.52-.09-.31-.1-.47c0-.07-.01-.8-.01-2.18v-2.02h-1.17v-.55h.13z"/><path d="m84.29 114.99c0 .3.12.58.35.81.24.24.53.36.87.37.37 0 .7-.11.99-.34s.48-.52.58-.88c.02-.07.03-.39.04-.97 0-.57 0-.86-.01-.86-.08 0-.18 0-.31.01-.13 0-.35.05-.66.13s-.6.18-.86.29-.48.3-.68.55-.3.54-.31.88zm.16-2.94h-.32c-.22 0-.4-.07-.55-.22s-.22-.34-.22-.58c0-.34.17-.65.5-.91.33-.27.93-.4 1.79-.4.72 0 1.3.16 1.74.47s.74.69.89 1.12c.05.14.07.29.07.46s0 .73.01 1.7v1.03c0 .47.02.8.07.97.05.18.15.27.31.27.15 0 .25-.08.3-.24s.07-.42.07-.78v-.53h.59v.58c0 .39-.02.62-.04.69-.09.29-.26.53-.52.69-.26.17-.53.26-.81.27s-.52-.08-.69-.27c-.18-.19-.3-.39-.35-.62v-.06l-.03.04s-.04.06-.07.09-.07.07-.12.13-.11.11-.18.16-.14.11-.22.18-.17.12-.27.16-.21.08-.32.12c-.12.04-.25.07-.38.09-.14.02-.29.03-.46.04-.59 0-1.12-.15-1.59-.46-.47-.3-.71-.73-.71-1.28 0-.21.03-.4.1-.59s.2-.39.4-.6c.2-.22.43-.4.71-.55s.66-.29 1.15-.41c.49-.13 1.03-.2 1.62-.22h.21v-.32c0-.33-.03-.58-.09-.74-.22-.7-.69-1.05-1.43-1.05-.18 0-.34 0-.5.01-.16 0-.28.03-.37.06s-.13.04-.12.04c.22.15.32.36.32.65 0 .25-.08.44-.24.58l-.25.22z"/><path d="m90.41 115.87h.21c.38 0 .61-.07.69-.21v-.91c0-.17 0-.36.01-.58v-.62-.97c0-.34 0-.63-.01-.87v-.34c-.03-.19-.1-.31-.21-.37s-.33-.1-.66-.13h-.27v-.34c0-.23 0-.34.03-.34h.15c.1-.02.24-.03.41-.04s.36-.02.55-.03c.17 0 .34-.02.53-.03.19 0 .33-.02.43-.04s.15-.02.16-.01h.04v.59c0 .37 0 .56.01.56s.03-.02.07-.07.1-.12.18-.22.17-.19.28-.27.25-.17.43-.28.36-.19.56-.24.45-.07.75-.07c1.12.04 1.75.59 1.87 1.67 0 .07.01.75.01 2.05v1.27c0 .37 0 .59.03.66s.07.12.16.15c.21.03.45.04.72.04h.24v.68h-.47c-.23-.02-.47-.03-.74-.03s-.45 0-.56-.01c-1.01 0-1.56.01-1.65.04h-.12v-.68h.24c.6 0 .9-.08.9-.24 0-.02.01-.7.01-2.04 0-1.33-.02-2.03-.03-2.11-.06-.28-.16-.48-.3-.62s-.26-.22-.35-.25c-.1-.03-.23-.04-.38-.03-.44 0-.83.17-1.17.5-.27.27-.43.54-.5.81-.07.28-.11.68-.12 1.22v1.83c0 .29 0 .49.01.59s.02.16.04.19.06.06.13.09c.21.03.45.04.72.04h.24v.68h-.46c-.24-.02-.49-.03-.75-.03s-.45 0-.56-.01c-1.01 0-1.56.01-1.65.04h-.12v-.68h.24z"/><path d="m108.42 101.78v-.09c0-.73-.3-1.09-.9-1.09-.17 0-.34.04-.52.12s-.34.18-.49.31-.28.25-.38.35-.2.22-.27.32l-.09.12-.31 1.27c-.22.85-.32 1.45-.32 1.8 0 .47.12.83.35 1.06.16.16.35.24.59.24.32 0 .65-.16.99-.47.25-.23.44-.5.59-.83.15-.32.31-.84.49-1.55s.27-1.23.27-1.56zm-3.88-4.74c0-.1.02-.21.06-.34s.1-.19.18-.19c0 0 .36-.02 1.06-.07s1.06-.08 1.08-.09c.12 0 .18.04.18.13s-.17.79-.5 2.11c-.08.33-.16.68-.25 1.03s-.16.62-.22.8l-.06.28s.03.01.09-.04c.48-.39.98-.59 1.49-.59.61 0 1.1.23 1.48.68.37.45.57 1.02.58 1.71 0 1.09-.39 2.08-1.17 2.96s-1.61 1.33-2.51 1.33c-.49 0-.94-.19-1.34-.56s-.61-.98-.62-1.81v-.13c0-.21.04-.49.12-.86.08-.36.32-1.33.72-2.91.49-1.94.74-2.96.74-3.08s-.19-.19-.56-.21h-.38s-.06-.01-.1-.04-.05-.06-.04-.1z"/><path d="m107.9 121.83c0-.06-.02-.17-.07-.32-.05-.16-.16-.33-.34-.52s-.4-.29-.68-.29c-.34 0-.67.15-.99.46-.31.3-.56.7-.74 1.19-.29.78-.49 1.58-.61 2.42v.16c0 .08 0 .14-.01.18 0 .44.09.75.27.91.18.17.39.26.63.27.37 0 .74-.16 1.11-.49.36-.32.58-.58.65-.75.02-.04.15-.57.4-1.58s.37-1.56.38-1.64zm-4.69 2.52c0-.99.37-1.94 1.12-2.83s1.59-1.35 2.52-1.36c.5 0 .94.24 1.33.72.16-.29.38-.44.68-.44.13 0 .24.04.34.12s.15.18.15.29c0 .13-.18.91-.55 2.36s-.55 2.26-.56 2.45c0 .25.03.41.1.49s.17.12.31.13c.09 0 .19-.05.3-.13.21-.2.41-.67.61-1.42.06-.2.11-.3.15-.31.02 0 .07-.01.15-.01h.06c.19 0 .28.04.28.13 0 .06-.02.19-.07.4s-.15.47-.3.8c-.15.32-.3.57-.47.74-.13.13-.29.23-.47.31-.08.02-.2.03-.35.03-.33 0-.61-.07-.84-.22s-.37-.3-.44-.46l-.09-.22s-.03 0-.06.01l-.06.06c-.58.55-1.17.83-1.77.83-.54 0-1.02-.2-1.43-.59s-.62-1.02-.62-1.87z"/><rect x="101.25" y="112.42" width="10.76" height=".88"/><path d="m116.88 113.05v-.19c0-.13.07-.23.21-.29h4.41v-4.42c.11-.13.21-.19.3-.19.13 0 .23.07.3.22v4.4h4.4c.15.08.22.18.22.29s-.07.22-.22.29h-4.4v4.4c-.08.14-.17.21-.27.21h-.06c-.12 0-.21-.07-.27-.21v-4.4h-4.41c-.14-.07-.21-.17-.21-.29v.19z"/><path d="m131.2 112.86c0-.68.05-1.32.15-1.93s.21-1.14.34-1.58.31-.88.55-1.3.42-.75.56-.99.34-.49.62-.77.44-.44.49-.5.17-.16.37-.31h.25c.14 0 .21.04.21.13 0 .03-.08.13-.25.31s-.37.44-.61.78-.48.77-.72 1.27c-.25.5-.45 1.18-.62 2.04s-.25 1.8-.25 2.85.08 1.99.25 2.83c.17.85.37 1.53.61 2.05s.48.94.72 1.27c.25.32.45.59.62.78.17.2.25.3.25.31 0 .09-.07.13-.22.13h-.24l-.41-.35c-.92-.84-1.6-1.88-2.02-3.13s-.63-2.55-.63-3.89z"/><path d="m137.17 110.22c-.27 0-.48-.09-.63-.27-.16-.18-.24-.39-.24-.65 0-.7.26-1.3.78-1.81s1.17-.77 1.95-.77c.9 0 1.64.28 2.24.83s.91 1.26.91 2.14c0 .42-.1.83-.3 1.21s-.43.72-.71 1c-.28.29-.67.65-1.18 1.09-.35.3-.85.76-1.48 1.36l-.87.83h1.12c1.54.01 2.37 0 2.46-.06.07-.02.19-.46.35-1.31v-.04h.59v.04s-.07.48-.19 1.34-.19 1.32-.22 1.36v.04h-5.48v-.46c0-.07.03-.14.09-.22s.21-.25.44-.52c.29-.31.53-.59.74-.83.09-.1.26-.28.5-.55.25-.27.41-.45.5-.55s.23-.26.43-.49.33-.39.41-.5.19-.26.34-.44c.15-.19.25-.34.31-.47s.13-.27.22-.43.15-.31.19-.47.07-.3.1-.44.04-.3.04-.49c0-.62-.17-1.16-.5-1.61s-.81-.68-1.43-.68c-.32 0-.61.08-.86.25s-.42.33-.52.49-.15.25-.15.28c0 0 .02.01.07.01.18 0 .36.07.55.21s.28.36.28.68c0 .25-.08.45-.24.62s-.38.26-.66.27z"/><path d="m144.72 107.01c0-.1.02-.21.06-.34s.1-.19.18-.19c0 0 .36-.02 1.06-.07s1.06-.08 1.08-.09c.12 0 .18.04.18.12 0 .07-.25 1.1-.74 3.08-.49 1.95-.74 2.95-.74 3.02.19-.1.33-.19.43-.28.24-.18.58-.49 1.02-.93s.79-.74 1.03-.9c.39-.27.77-.4 1.12-.4.3 0 .53.09.69.28s.26.45.27.8c0 .25-.03.45-.1.62s-.16.29-.28.37-.22.13-.31.16-.18.04-.27.04c-.2 0-.35-.05-.47-.16s-.18-.25-.18-.43c0-.25.08-.45.24-.6.16-.16.31-.26.47-.31l.24-.04c-.12-.12-.24-.18-.35-.18h-.06c-.31.03-.62.15-.93.37-.3.22-.66.53-1.08.94-.41.41-.74.71-.97.9.02 0 .09.02.22.04s.25.05.35.09c.11.04.24.08.38.12s.28.11.4.21.23.19.32.27.18.21.25.38c.07.18.1.34.09.49 0 .17-.02.37-.07.6s-.08.43-.09.59c0 .39.13.59.4.59.47 0 .86-.59 1.15-1.76.02-.08.12-.12.3-.12h.06c.16 0 .24.04.24.13 0 .05-.01.12-.04.21-.4 1.39-.98 2.08-1.74 2.08-.44 0-.8-.13-1.08-.38-.28-.26-.41-.62-.41-1.11 0-.18.01-.33.04-.46s.04-.25.04-.35c0-.22-.07-.4-.21-.56s-.31-.27-.52-.34-.37-.12-.5-.16-.22-.05-.27-.04h-.03c-.12.41-.22.81-.31 1.19s-.16.67-.21.86-.09.37-.13.55-.07.29-.1.35-.06.12-.1.19-.09.11-.16.13c-.13.09-.27.13-.41.13-.17 0-.3-.05-.38-.15-.09-.1-.13-.18-.13-.25 0-.1.18-.88.55-2.36.36-1.47.72-2.93 1.08-4.35l.55-2.14c0-.13-.02-.21-.1-.24s-.27-.05-.58-.07h-.27s-.06-.01-.1-.04-.05-.06-.04-.1z"/><path d="m155.14 113.05v-.19c0-.13.07-.23.21-.29h8.57c.15.08.22.18.22.29s-.07.22-.22.29h-8.57c-.14-.07-.21-.17-.21-.29v.19z"/><path d="m171.81 108.02-.19.07c-.14.05-.33.1-.59.15s-.54.08-.86.1h-.28v-.68h.28c.46-.02.89-.09 1.28-.22s.67-.25.83-.35.3-.22.41-.32c.02-.03.08-.04.18-.04.09 0 .17.03.25.09v8.83c.08.07.14.11.19.13s.17.04.35.06.49.03.91.03h.38v.68h-.16c-.21-.03-.99-.04-2.35-.04s-2.11.01-2.32.04h-.18v-.68h.94c.16 0 .28 0 .37-.01.09 0 .17-.02.24-.04s.11-.03.12-.03.04-.02.09-.07.08-.07.09-.06v-7.63z"/><path d="m176.93 105.5h.06s.1-.01.15-.01h.18l.41.35c.92.84 1.6 1.88 2.02 3.13s.63 2.55.63 3.89c0 .67-.05 1.31-.15 1.93s-.21 1.15-.34 1.58-.31.87-.55 1.3-.42.76-.56.99-.34.48-.61.75c-.27.28-.42.44-.47.49s-.16.14-.34.28l-.06.06h-.34s-.05-.01-.07-.04-.03-.07-.04-.13c0 0 .06-.07.16-.19 1.52-1.58 2.29-3.92 2.29-7.01s-.76-5.42-2.29-7.01c-.1-.12-.15-.18-.16-.19 0-.08.02-.13.07-.16z"/><path d="m183.73 116.71c-.33 0-.5-.16-.5-.49v-.16l.19-.41c.74-1.55 1.27-2.9 1.61-4.03l.12-.35h-.47c-.37 0-.64.01-.8.04s-.35.12-.58.28c-.11.07-.22.16-.32.27-.11.11-.2.21-.28.31s-.12.16-.13.18c-.02 0-.09.01-.22.01-.19 0-.28-.05-.28-.15 0-.06.09-.23.28-.52s.46-.59.81-.91.7-.51 1.05-.56c.07-.02 1.18-.03 3.32-.03 1.57 0 2.38 0 2.42.01.2.07.3.21.3.41 0 .3-.16.51-.47.62-.06.02-.4.03-1.02.03h-.94l-.04.25c-.12.71-.18 1.29-.18 1.76 0 .51.04.97.13 1.37s.18.72.28.94c.1.23.15.36.15.41 0 .17-.07.32-.21.47s-.31.22-.53.22c-.11 0-.2-.01-.27-.04s-.15-.15-.24-.35c-.09-.21-.17-.5-.24-.88 0-.09-.01-.3-.01-.65 0-.48.04-1 .13-1.55s.18-1 .27-1.36c.09-.35.14-.55.15-.59h-1.45v.06s-.11.42-.3 1.17-.4 1.54-.63 2.37c-.24.84-.39 1.31-.46 1.43-.11.28-.32.41-.63.41z"/><path d="m204.14 111.71c0-.06-.02-.17-.07-.32-.05-.16-.16-.33-.34-.52s-.4-.29-.68-.29c-.34 0-.67.15-.99.46-.31.3-.56.7-.74 1.19-.29.78-.49 1.58-.61 2.42v.16c0 .08 0 .14-.01.18 0 .44.09.75.27.91.18.17.39.26.63.27.37 0 .74-.16 1.11-.49.36-.32.58-.58.65-.75.02-.04.15-.57.4-1.58s.37-1.56.38-1.64zm-4.7 2.52c0-.99.37-1.94 1.12-2.83s1.59-1.35 2.52-1.36c.5 0 .94.24 1.33.72.16-.29.38-.44.68-.44.13 0 .24.04.34.12s.15.18.15.29c0 .13-.18.91-.55 2.36-.36 1.45-.55 2.26-.56 2.45 0 .25.03.41.1.49s.17.12.31.13c.09 0 .19-.05.3-.13.21-.2.41-.67.61-1.42.06-.2.11-.3.15-.31.02 0 .07-.01.15-.01h.06c.19 0 .28.04.28.13 0 .06-.02.19-.07.4s-.15.47-.3.8c-.15.32-.3.57-.47.74-.13.13-.29.23-.47.31-.08.02-.2.03-.35.03-.33 0-.61-.07-.84-.22s-.37-.3-.44-.46l-.09-.22s-.03 0-.06.01l-.06.06c-.58.55-1.17.83-1.77.83-.54 0-1.02-.2-1.43-.59s-.62-1.02-.62-1.87z"/><path d="m220.1 116.71v.12c0 .08-.03.15-.09.21s-.11.09-.15.1c-.07 0-.83-.34-2.27-1.02-1.45-.68-2.87-1.35-4.28-2.02l-2.13-1.02c-.07-.05-.1-.12-.1-.22 0-.11.04-.19.12-.24 5.64-2.69 8.53-4.04 8.66-4.04.03 0 .07.03.13.09s.09.13.1.22c0 .09-.02.16-.1.21 0 0-1.34.64-3.98 1.9l-3.93 1.86 3.93 1.86c2.65 1.26 3.97 1.89 3.98 1.9.07.06.1.13.1.21v-.12z"/><path d="m229.18 107.74c-.3-.31-.64-.47-1.05-.47s-.77.16-1.06.47c-.25.26-.41.61-.49 1.06s-.12 1.4-.12 2.83c0 1.55.04 2.58.12 3.07s.26.88.53 1.17c.28.29.61.44 1.02.44s.73-.15 1-.44c.29-.29.46-.71.53-1.24s.11-1.53.12-2.99c0-1.43-.04-2.36-.12-2.82-.08-.45-.24-.81-.49-1.08zm-3.32.18c.55-.8 1.3-1.19 2.26-1.19.47 0 .94.13 1.42.38.47.26.86.71 1.15 1.36.36.82.55 1.94.55 3.36 0 1.52-.21 2.69-.63 3.5-.2.41-.47.74-.81.99s-.64.4-.9.46-.51.09-.75.1c-.26 0-.51-.03-.77-.09s-.56-.22-.9-.47c-.34-.26-.61-.59-.81-.99-.42-.81-.63-1.97-.63-3.5 0-1.71.28-3.01.84-3.91z"/><path d="m232.97 116.03v-.37c0-.25.08-.46.24-.63s.37-.27.63-.27.52.12.74.37.33.68.34 1.3c0 .34-.04.68-.13 1s-.19.6-.31.84-.25.44-.38.6c-.14.17-.26.3-.35.4-.1.1-.16.14-.19.13-.04 0-.1-.04-.19-.13s-.13-.15-.13-.19.05-.12.16-.24.23-.27.37-.44c.14-.18.27-.42.38-.74s.2-.67.24-1.08v-.18h-.01s-.04.03-.07.04-.06.02-.09.04-.07.03-.13.03-.12 0-.18.01c-.27 0-.48-.08-.65-.25l-.27-.27z"/><path d="m243.34 111.76v-.09c0-.73-.3-1.09-.9-1.09-.17 0-.34.04-.52.12s-.34.18-.49.31-.28.25-.38.35-.2.22-.27.32l-.09.12-.31 1.27c-.22.85-.32 1.45-.32 1.8 0 .47.12.83.35 1.06.16.16.35.24.59.24.32 0 .65-.16.99-.47.25-.23.44-.5.59-.83.15-.32.31-.84.49-1.55s.27-1.23.27-1.56zm-3.88-4.75c0-.1.02-.21.06-.34s.1-.19.18-.19c0 0 .36-.02 1.06-.07s1.06-.08 1.08-.09c.12 0 .18.04.18.13s-.17.79-.5 2.11c-.08.33-.16.68-.25 1.03s-.16.62-.22.8l-.06.28s.03.01.09-.04c.48-.39.98-.59 1.49-.59.61 0 1.1.23 1.48.68.37.45.57 1.02.58 1.71 0 1.09-.39 2.08-1.17 2.96s-1.61 1.33-2.51 1.33c-.49 0-.94-.19-1.34-.56s-.61-.98-.62-1.81v-.13c0-.21.04-.49.12-.86.08-.36.32-1.33.72-2.91.49-1.94.74-2.96.74-3.08s-.19-.19-.56-.21h-.38s-.06-.01-.1-.04-.05-.06-.04-.1z"/><path d="m258.06 116.71v.12c0 .08-.03.15-.09.21s-.11.09-.15.1c-.07 0-.83-.34-2.27-1.02-1.45-.68-2.87-1.35-4.28-2.02l-2.13-1.02c-.07-.05-.1-.12-.1-.22 0-.11.04-.19.12-.24 5.64-2.69 8.53-4.04 8.66-4.04.03 0 .07.03.13.09s.09.13.1.22c0 .09-.02.16-.1.21 0 0-1.34.64-3.98 1.9l-3.93 1.86 3.93 1.86c2.65 1.26 3.97 1.89 3.98 1.9.07.06.1.13.1.21v-.12z"/><path d="m267.13 107.74c-.3-.31-.64-.47-1.05-.47s-.77.16-1.06.47c-.25.26-.41.61-.49 1.06s-.12 1.4-.12 2.83c0 1.55.04 2.58.12 3.07s.26.88.53 1.17c.28.29.61.44 1.02.44s.73-.15 1-.44c.29-.29.46-.71.53-1.24s.11-1.53.12-2.99c0-1.43-.04-2.36-.12-2.82-.08-.45-.24-.81-.49-1.08zm-3.32.18c.55-.8 1.3-1.19 2.26-1.19.47 0 .94.13 1.42.38.47.26.86.71 1.15 1.36.36.82.55 1.94.55 3.36 0 1.52-.21 2.69-.63 3.5-.2.41-.47.74-.81.99s-.64.4-.9.46-.51.09-.75.1c-.26 0-.51-.03-.77-.09s-.56-.22-.9-.47c-.34-.26-.61-.59-.81-.99-.42-.81-.63-1.97-.63-3.5 0-1.71.28-3.01.84-3.91z"/><path d="m62.17 151.03c-.33 0-.5-.16-.5-.49v-.16l.19-.41c.74-1.55 1.27-2.9 1.61-4.03l.12-.35h-.47c-.37 0-.64.01-.8.04s-.35.12-.58.28c-.11.07-.22.16-.32.27-.11.11-.2.21-.28.31s-.12.16-.13.18c-.02 0-.09.01-.22.01-.19 0-.28-.05-.28-.15 0-.06.09-.23.28-.52s.46-.59.81-.91.7-.51 1.05-.56c.07-.02 1.18-.03 3.32-.03 1.57 0 2.38 0 2.42.01.2.07.3.21.3.41 0 .3-.16.51-.47.62-.06.02-.4.03-1.02.03h-.94l-.04.25c-.12.71-.18 1.29-.18 1.76 0 .51.04.97.13 1.37s.18.72.28.94c.1.23.15.36.15.41 0 .17-.07.32-.21.47s-.31.22-.53.22c-.11 0-.2-.01-.27-.04s-.15-.15-.24-.35c-.09-.21-.17-.5-.24-.88 0-.09-.01-.3-.01-.65 0-.48.04-1 .13-1.55s.18-1 .27-1.36.14-.55.15-.59h-1.45v.06s-.11.42-.3 1.17-.4 1.54-.63 2.37c-.24.84-.39 1.31-.46 1.43-.11.28-.32.41-.63.41z"/><path d="m62.35 164.63c-.27 0-.48-.09-.63-.27-.16-.18-.24-.39-.24-.65 0-.7.26-1.3.78-1.81s1.17-.77 1.95-.77c.9 0 1.64.28 2.24.83s.91 1.26.91 2.14c0 .42-.1.83-.3 1.21s-.43.72-.71 1c-.28.29-.67.65-1.18 1.09-.35.3-.85.76-1.48 1.36l-.87.83h1.12c1.54.01 2.37 0 2.46-.06.07-.02.19-.46.35-1.31v-.04h.59v.04s-.07.48-.19 1.34-.19 1.32-.22 1.36v.04h-5.48v-.46c0-.07.03-.14.09-.22s.21-.25.44-.52c.29-.31.53-.59.74-.83.09-.1.26-.28.5-.55.25-.27.41-.45.5-.55s.23-.26.43-.49.33-.39.41-.5.19-.26.34-.44c.15-.19.25-.34.31-.47s.13-.27.22-.43.15-.31.19-.47.07-.3.1-.44.04-.3.04-.49c0-.62-.17-1.16-.5-1.61s-.81-.68-1.43-.68c-.32 0-.61.08-.86.25s-.42.33-.52.49-.15.25-.15.28c0 0 .02.01.07.01.18 0 .36.07.55.21s.28.36.28.68c0 .25-.08.45-.24.62s-.38.26-.66.27z"/><rect x="58.74" y="156.71" width="11.36" height=".88"/><path d="m75.98 157.35v-.19c0-.13.07-.23.21-.29h4.41v-4.42c.11-.13.21-.19.3-.19.13 0 .23.07.3.22v4.4h4.4c.15.08.22.18.22.29s-.07.22-.22.3h-4.4v4.4c-.08.14-.17.21-.27.21h-.06c-.12 0-.21-.07-.27-.21v-4.4h-4.41c-.14-.07-.21-.17-.21-.3v.19z"/><path d="m91.53 154.51c-.27 0-.48-.09-.63-.27-.16-.18-.24-.39-.24-.65 0-.7.26-1.3.78-1.81s1.17-.77 1.95-.77c.9 0 1.64.28 2.24.83s.91 1.26.92 2.14c0 .42-.1.83-.3 1.21s-.43.72-.71 1c-.28.29-.67.65-1.18 1.09-.35.3-.85.76-1.48 1.36l-.87.83h1.12c1.54.01 2.37 0 2.46-.06.07-.02.19-.46.35-1.31v-.04h.59v.04s-.07.48-.19 1.34c-.12.87-.19 1.32-.22 1.36v.04h-5.48v-.46c0-.07.03-.14.09-.22s.21-.25.44-.52c.29-.31.53-.59.74-.83.09-.1.26-.28.5-.55.25-.27.41-.45.5-.55s.23-.26.43-.49.33-.39.41-.5.19-.26.34-.44c.15-.19.25-.34.31-.47s.13-.27.22-.43.15-.31.19-.47.07-.3.1-.44.04-.3.04-.49c0-.62-.17-1.16-.5-1.61s-.81-.68-1.43-.68c-.32 0-.61.08-.86.25s-.42.33-.52.49-.15.25-.15.28c0 0 .02.01.07.01.18 0 .36.07.55.21s.28.36.28.68c0 .25-.08.45-.24.62s-.38.26-.66.27z"/><path d="m99.08 151.3c0-.1.02-.21.06-.34s.1-.19.18-.19c0 0 .36-.02 1.06-.07s1.06-.08 1.08-.09c.12 0 .18.04.18.12 0 .07-.25 1.1-.74 3.08-.49 1.95-.74 2.95-.74 3.02.19-.1.33-.19.43-.28.24-.18.58-.49 1.02-.93s.79-.74 1.03-.9c.39-.27.77-.4 1.12-.4.3 0 .53.09.69.28.17.19.26.45.27.8 0 .25-.03.45-.1.62s-.16.29-.28.37-.22.13-.31.16-.18.04-.27.04c-.2 0-.35-.05-.47-.16s-.18-.25-.18-.43c0-.25.08-.45.24-.6.16-.16.31-.26.47-.31l.24-.04c-.12-.12-.24-.18-.35-.18h-.06c-.31.03-.62.15-.93.37s-.66.53-1.08.94c-.41.41-.74.71-.97.9.02 0 .09.02.22.04s.25.05.35.09c.11.04.24.08.38.12.15.04.28.11.4.21s.23.19.32.27c.1.08.18.21.25.38.07.18.1.34.09.49 0 .17-.02.37-.07.6-.05.24-.08.43-.09.59 0 .39.13.59.4.59.47 0 .86-.59 1.15-1.76.02-.08.12-.12.3-.12h.06c.16 0 .24.04.24.13 0 .05-.01.12-.04.21-.4 1.39-.98 2.08-1.74 2.08-.44 0-.8-.13-1.08-.38-.28-.26-.41-.62-.41-1.11 0-.18.01-.33.04-.46s.04-.25.04-.35c0-.22-.07-.4-.21-.56s-.31-.27-.52-.34-.37-.12-.5-.16-.22-.05-.27-.04h-.03c-.12.41-.22.81-.31 1.19s-.16.67-.21.86-.09.37-.13.55-.07.29-.1.35-.06.12-.1.19-.09.11-.16.13c-.13.09-.27.13-.41.13-.17 0-.3-.05-.38-.15s-.13-.18-.13-.25c0-.1.18-.88.55-2.36s.72-2.93 1.08-4.35l.55-2.14c0-.13-.02-.21-.1-.24s-.27-.05-.58-.07h-.27s-.06-.01-.1-.04-.05-.06-.04-.1z"/><path d="m106.93 161c-.33 0-.5-.16-.5-.49v-.16l.19-.41c.74-1.55 1.27-2.9 1.61-4.03l.12-.35h-.47c-.37 0-.64.01-.8.04s-.35.12-.58.28c-.11.07-.22.16-.32.27-.11.11-.2.21-.28.31s-.12.16-.13.18c-.02 0-.09.01-.22.01-.19 0-.28-.05-.28-.15 0-.06.09-.23.28-.52s.46-.59.81-.91.7-.51 1.05-.56c.07-.02 1.18-.03 3.32-.03 1.57 0 2.38 0 2.42.01.2.07.3.21.3.41 0 .3-.16.51-.47.62-.06.02-.4.03-1.02.03h-.94l-.04.25c-.12.71-.18 1.29-.18 1.76 0 .51.04.97.13 1.37s.18.72.28.94c.1.23.15.36.15.41 0 .17-.07.32-.21.47s-.31.22-.53.22c-.11 0-.2-.01-.27-.04s-.15-.15-.24-.35c-.09-.21-.17-.5-.24-.89 0-.09-.01-.3-.01-.65 0-.48.04-1 .13-1.55s.18-1 .27-1.36.14-.55.15-.59h-1.45v.06s-.11.42-.3 1.17-.4 1.54-.63 2.37c-.24.84-.39 1.31-.46 1.43-.11.28-.32.41-.63.41z"/><path d="m204.14 156c0-.06-.02-.17-.07-.32-.05-.16-.16-.33-.34-.52s-.4-.29-.68-.3c-.34 0-.67.15-.99.46-.31.3-.56.7-.74 1.19-.29.78-.49 1.58-.61 2.42v.16c0 .08 0 .14-.01.18 0 .44.09.75.27.91.18.17.39.26.63.27.37 0 .74-.16 1.11-.49.36-.32.58-.58.65-.75.02-.04.15-.57.4-1.58s.37-1.56.38-1.64zm-4.7 2.53c0-.99.37-1.94 1.12-2.83s1.59-1.35 2.52-1.36c.5 0 .94.24 1.33.72.16-.29.38-.44.68-.44.13 0 .24.04.34.12s.15.18.15.29c0 .13-.18.91-.55 2.36-.36 1.45-.55 2.26-.56 2.45 0 .25.03.41.1.49s.17.12.31.13c.09 0 .19-.05.3-.13.21-.2.41-.67.61-1.42.06-.2.11-.3.15-.31.02 0 .07-.01.15-.01h.06c.19 0 .28.04.28.13 0 .06-.02.19-.07.4s-.15.47-.3.8c-.15.32-.3.57-.47.74-.13.13-.29.23-.47.31-.08.02-.2.03-.35.03-.33 0-.61-.07-.84-.22s-.37-.3-.44-.46l-.09-.22s-.03 0-.06.01l-.06.06c-.58.55-1.17.83-1.77.83-.54 0-1.02-.2-1.43-.59s-.62-1.02-.62-1.87z"/><path d="m210.69 158.58c0-.15.08-.25.24-.29h9.39c.14.1.21.2.21.29 0 .13-.07.23-.22.29h-9.4c-.14-.07-.21-.17-.21-.29zm0-2.86c0-.13.07-.23.21-.29h9.4c.15.08.22.18.22.29s-.07.2-.21.28h-4.69s-4.69.01-4.69.01c-.16-.05-.24-.15-.24-.29z"/><path d="m229.18 152.04c-.3-.31-.64-.47-1.05-.47s-.77.16-1.06.47c-.25.26-.41.61-.49 1.06s-.12 1.4-.12 2.83c0 1.55.04 2.58.12 3.07s.26.88.53 1.17c.28.29.61.44 1.02.44s.73-.15 1-.44c.29-.3.46-.71.53-1.24s.11-1.53.12-2.99c0-1.43-.04-2.36-.12-2.82-.08-.45-.24-.81-.49-1.08zm-3.32.17c.55-.8 1.3-1.19 2.26-1.19.47 0 .94.13 1.42.38.47.26.86.71 1.15 1.36.36.82.55 1.94.55 3.36 0 1.52-.21 2.69-.63 3.5-.2.41-.47.74-.81.99s-.64.4-.9.46-.51.09-.75.1c-.26 0-.51-.03-.77-.09s-.56-.22-.9-.47c-.34-.26-.61-.59-.81-.99-.42-.81-.63-1.97-.63-3.5 0-1.71.28-3.01.84-3.91z"/><path d="m232.97 160.32v-.37c0-.25.08-.46.24-.63.16-.18.37-.27.63-.27s.52.12.74.37.33.68.34 1.3c0 .34-.04.68-.13 1s-.19.6-.31.84-.25.44-.38.6c-.14.17-.26.3-.35.4-.1.1-.16.14-.19.13-.04 0-.1-.04-.19-.13s-.13-.15-.13-.19.05-.12.16-.24.23-.27.37-.44c.14-.18.27-.42.38-.74s.2-.67.24-1.08v-.18h-.01s-.04.03-.07.04-.06.02-.09.04-.07.03-.13.03-.12 0-.18.01c-.27 0-.48-.08-.65-.25l-.27-.27z"/><path d="m243.34 156.05v-.09c0-.73-.3-1.09-.9-1.09-.17 0-.34.04-.52.12s-.34.18-.49.31-.28.25-.38.35-.2.22-.27.32l-.09.12-.31 1.27c-.22.85-.32 1.45-.32 1.8 0 .47.12.83.35 1.06.16.16.35.24.59.24.32 0 .65-.16.99-.47.25-.23.44-.5.59-.83.15-.32.31-.84.49-1.55s.27-1.23.27-1.56zm-3.88-4.75c0-.1.02-.21.06-.34s.1-.19.18-.19c0 0 .36-.02 1.06-.07s1.06-.08 1.08-.09c.12 0 .18.04.18.13s-.17.79-.5 2.11c-.08.33-.16.68-.25 1.03s-.16.62-.22.8l-.06.28s.03.01.09-.04c.48-.39.98-.59 1.49-.59.61 0 1.1.23 1.48.68.37.45.57 1.02.58 1.71 0 1.09-.39 2.08-1.17 2.96s-1.61 1.33-2.51 1.33c-.49 0-.94-.19-1.34-.56s-.61-.98-.62-1.81v-.13c0-.21.04-.49.12-.86.08-.36.32-1.33.72-2.91.49-1.94.74-2.96.74-3.08s-.19-.19-.56-.21h-.38s-.06-.01-.1-.04-.05-.06-.04-.1z"/><path d="m249.05 153.17c0-.08.02-.14.06-.19s.08-.08.12-.09h.04c.07-.01.83.32 2.27 1 1.45.68 2.88 1.35 4.29 2.02l2.11 1.02c.07.05.1.12.1.22s-.03.17-.1.22c-.02.02-1.46.7-4.31 2.05l-4.25 2.01h-.09c-.18-.02-.27-.12-.27-.29v-.04c0-.07.06-.15.22-.24.19-.1.92-.45 2.21-1.06.77-.36 1.41-.66 1.92-.9l3.66-1.74-3.66-1.74c-2.83-1.34-4.27-2.03-4.31-2.08-.02-.04-.03-.09-.03-.16z"/><path d="m267.13 152.04c-.3-.31-.64-.47-1.05-.47s-.77.16-1.06.47c-.25.26-.41.61-.49 1.06s-.12 1.4-.12 2.83c0 1.55.04 2.58.12 3.07s.26.88.53 1.17c.28.29.61.44 1.02.44s.73-.15 1-.44c.29-.3.46-.71.53-1.24s.11-1.53.12-2.99c0-1.43-.04-2.36-.12-2.82-.08-.45-.24-.81-.49-1.08zm-3.32.17c.55-.8 1.3-1.19 2.26-1.19.47 0 .94.13 1.42.38s.86.71 1.15 1.36c.36.82.55 1.94.55 3.36 0 1.52-.21 2.69-.63 3.5-.2.41-.47.74-.81.99s-.64.4-.9.46-.51.09-.75.1c-.26 0-.51-.03-.77-.09s-.56-.22-.9-.47c-.34-.26-.61-.59-.81-.99-.42-.81-.63-1.97-.63-3.5 0-1.71.28-3.01.84-3.91z"/><path d="m58.21 201.49v-.19c0-.13.07-.23.21-.29h8.57c.15.08.22.18.22.29s-.07.22-.22.3h-8.57c-.14-.07-.21-.17-.21-.3v.19z"/><path d="m73.65 195.18c-.33 0-.5-.16-.5-.49v-.16l.19-.41c.74-1.55 1.27-2.9 1.61-4.03l.12-.35h-.47c-.37 0-.64.01-.8.04s-.35.12-.58.28c-.11.07-.22.16-.32.27-.11.11-.2.21-.28.31s-.12.16-.13.18c-.02 0-.09.01-.22.01-.19 0-.28-.05-.28-.15 0-.06.09-.23.28-.52s.46-.59.81-.91.7-.51 1.05-.56c.07-.02 1.18-.03 3.32-.03 1.57 0 2.38 0 2.42.01.2.07.3.21.3.41 0 .3-.16.51-.47.62-.06.02-.4.03-1.02.03h-.94l-.04.25c-.12.71-.18 1.29-.18 1.76 0 .51.04.97.13 1.37s.18.72.28.94c.1.23.15.36.15.41 0 .17-.07.32-.21.47s-.31.22-.53.22c-.11 0-.2-.01-.27-.04s-.15-.15-.24-.35c-.09-.21-.17-.5-.24-.88 0-.09-.01-.3-.01-.65 0-.48.04-1 .13-1.55s.18-1 .27-1.36c.09-.35.14-.55.15-.59h-1.45v.06s-.11.42-.3 1.17-.4 1.54-.63 2.37c-.24.84-.39 1.31-.46 1.43-.11.28-.32.41-.63.41z"/><path d="m73.83 208.78c-.27 0-.48-.09-.63-.27-.16-.18-.24-.39-.24-.65 0-.7.26-1.3.78-1.81s1.17-.77 1.95-.77c.9 0 1.64.28 2.24.83s.91 1.26.91 2.14c0 .42-.1.83-.3 1.21s-.43.72-.71 1-.67.65-1.18 1.09c-.35.3-.85.76-1.48 1.36l-.87.83h1.12c1.54.01 2.37 0 2.46-.06.07-.02.19-.46.35-1.31v-.04h.59v.04s-.07.48-.19 1.34c-.12.87-.19 1.32-.22 1.36v.04h-5.48v-.46c0-.07.03-.14.09-.22s.21-.25.44-.52c.29-.31.53-.59.74-.83.09-.1.26-.28.5-.55s.41-.45.5-.55.23-.26.43-.49.33-.39.41-.5.19-.26.34-.44c.15-.19.25-.34.31-.47s.13-.27.22-.43.15-.31.19-.47.07-.3.1-.44.04-.3.04-.49c0-.62-.17-1.16-.5-1.61s-.81-.68-1.43-.68c-.32 0-.61.08-.86.25s-.42.33-.52.49-.15.25-.15.28c0 0 .02.01.07.01.18 0 .36.07.55.21s.28.36.28.68c0 .25-.08.45-.24.62s-.38.26-.66.27z"/><rect x="70.23" y="200.86" width="11.36" height=".88"/><path d="m87.47 201.49v-.19c0-.13.07-.23.21-.29h4.41v-4.42c.11-.13.21-.19.3-.19.13 0 .23.07.3.22v4.4h4.4c.15.08.22.18.22.29s-.07.22-.22.3h-4.4v4.4c-.08.14-.17.21-.27.21h-.06c-.12 0-.21-.07-.27-.21v-4.4h-4.41c-.14-.07-.21-.17-.21-.3v.19z"/><path d="m103.01 198.66c-.27 0-.48-.09-.63-.27-.16-.18-.24-.39-.24-.65 0-.7.26-1.3.78-1.81s1.17-.77 1.95-.77c.9 0 1.64.28 2.24.83s.91 1.26.91 2.14c0 .42-.1.83-.3 1.21s-.43.72-.71 1-.67.65-1.18 1.09c-.35.3-.85.76-1.48 1.36l-.87.83h1.12c1.54.01 2.37 0 2.46-.06.07-.02.19-.46.35-1.31v-.04h.59v.04s-.07.48-.19 1.34c-.12.87-.19 1.32-.22 1.36v.04h-5.48v-.46c0-.07.03-.14.09-.22s.21-.25.44-.52c.29-.31.53-.59.74-.83.09-.1.26-.28.5-.55s.41-.45.5-.55.23-.26.43-.49.33-.39.41-.5.19-.26.34-.44c.15-.19.25-.34.31-.47s.13-.27.22-.43.15-.31.19-.47.07-.3.1-.44.04-.3.04-.49c0-.62-.17-1.16-.5-1.61s-.81-.68-1.43-.68c-.32 0-.61.08-.86.25s-.42.33-.52.49-.15.25-.15.28c0 0 .02.01.07.01.18 0 .36.07.55.21s.28.36.28.68c0 .25-.08.45-.24.62s-.38.26-.66.27z"/><path d="m110.57 195.44c0-.1.02-.21.06-.34s.1-.19.18-.19c0 0 .36-.02 1.06-.07s1.06-.08 1.08-.09c.12 0 .18.04.18.12 0 .07-.25 1.1-.74 3.08-.49 1.95-.74 2.95-.74 3.02.19-.1.33-.19.43-.28.24-.18.58-.49 1.02-.93s.79-.74 1.03-.9c.39-.27.77-.4 1.12-.4.3 0 .53.09.69.28.17.19.26.45.27.8 0 .25-.03.45-.1.62s-.16.29-.28.37-.22.13-.31.16-.18.04-.27.04c-.2 0-.35-.05-.47-.16s-.18-.25-.18-.43c0-.25.08-.45.24-.6.16-.16.31-.26.47-.31l.24-.04c-.12-.12-.24-.18-.35-.18h-.06c-.31.03-.62.15-.93.37-.3.22-.66.53-1.08.94-.41.41-.74.71-.97.9.02 0 .09.02.22.04s.25.05.35.09c.11.04.24.08.38.12.15.04.28.11.4.21s.23.19.32.27.18.21.25.38.1.34.09.49c0 .17-.02.37-.07.6-.05.24-.08.43-.09.59 0 .39.13.59.4.59.47 0 .86-.59 1.15-1.76.02-.08.12-.12.3-.12h.06c.16 0 .24.04.24.13 0 .05-.01.12-.04.21-.4 1.39-.98 2.08-1.74 2.08-.44 0-.8-.13-1.08-.38s-.41-.62-.41-1.11c0-.18.01-.33.04-.46s.04-.25.04-.35c0-.22-.07-.4-.21-.56s-.31-.27-.52-.34-.37-.12-.5-.16-.22-.05-.27-.04h-.03c-.12.41-.22.81-.31 1.19s-.16.67-.21.86-.09.37-.13.55-.07.29-.1.35-.06.12-.1.19-.09.11-.16.13c-.13.09-.27.13-.41.13-.17 0-.3-.05-.38-.15-.09-.1-.13-.18-.13-.25 0-.1.18-.88.55-2.36s.72-2.93 1.08-4.35l.55-2.14c0-.13-.02-.21-.1-.24s-.27-.05-.58-.07h-.27s-.06-.01-.1-.04-.05-.06-.04-.1z"/><path d="m118.42 205.15c-.33 0-.5-.16-.5-.49v-.16l.19-.41c.74-1.55 1.27-2.9 1.61-4.03l.12-.35h-.47c-.37 0-.64.01-.8.04s-.35.12-.58.28c-.11.07-.22.16-.32.27-.11.11-.2.21-.28.31s-.12.16-.13.18c-.02 0-.09.01-.22.01-.19 0-.28-.05-.28-.15 0-.06.09-.23.28-.52s.46-.59.81-.91.7-.51 1.05-.56c.07-.02 1.18-.03 3.32-.03 1.57 0 2.38 0 2.42.01.2.07.3.21.3.41 0 .3-.16.51-.47.62-.06.02-.4.03-1.02.03h-.94l-.04.25c-.12.71-.18 1.29-.18 1.76 0 .51.04.97.13 1.37s.18.72.28.94c.1.23.15.36.15.41 0 .17-.07.32-.21.47s-.31.22-.53.22c-.11 0-.2-.01-.27-.04s-.15-.15-.24-.35c-.09-.21-.17-.5-.24-.89 0-.09-.01-.3-.01-.65 0-.48.04-1 .13-1.55s.18-1 .27-1.36.14-.55.15-.59h-1.45v.06s-.11.42-.3 1.17-.4 1.54-.63 2.37c-.24.84-.39 1.31-.46 1.43-.11.28-.32.41-.63.41z"/><path d="m204.14 200.15c0-.06-.02-.17-.07-.32-.05-.16-.16-.33-.34-.52s-.4-.29-.68-.3c-.34 0-.67.15-.99.46-.31.3-.56.7-.74 1.19-.29.78-.49 1.58-.61 2.42v.16c0 .08 0 .14-.01.18 0 .44.09.75.27.91.18.17.39.26.63.27.37 0 .74-.16 1.11-.49.36-.32.58-.58.65-.75.02-.04.15-.57.4-1.58s.37-1.56.38-1.64zm-4.7 2.52c0-.99.37-1.94 1.12-2.83s1.59-1.35 2.52-1.36c.5 0 .94.24 1.33.72.16-.29.38-.44.68-.44.13 0 .24.04.34.12s.15.18.15.29c0 .13-.18.91-.55 2.36-.36 1.45-.55 2.26-.56 2.45 0 .25.03.41.1.49s.17.12.31.13c.09 0 .19-.05.3-.13.21-.2.41-.67.61-1.42.06-.2.11-.3.15-.31.02 0 .07-.01.15-.01h.06c.19 0 .28.04.28.13 0 .06-.02.19-.07.4s-.15.47-.3.8c-.15.32-.3.57-.47.74-.13.13-.29.23-.47.31-.08.02-.2.03-.35.03-.33 0-.61-.07-.84-.22s-.37-.3-.44-.46l-.09-.22s-.03 0-.06.01l-.06.06c-.58.55-1.17.83-1.77.83-.54 0-1.02-.2-1.43-.59s-.62-1.02-.62-1.87z"/><path d="m210.69 202.73c0-.15.08-.25.24-.29h9.39c.14.1.21.2.21.29 0 .13-.07.23-.22.29h-9.4c-.14-.07-.21-.17-.21-.29zm0-2.86c0-.13.07-.23.21-.29h9.4c.15.08.22.18.22.29s-.07.2-.21.28h-4.69s-4.69.01-4.69.01c-.16-.05-.24-.15-.24-.29z"/><path d="m229.18 196.18c-.3-.31-.64-.47-1.05-.47s-.77.16-1.06.47c-.25.26-.41.61-.49 1.06s-.12 1.4-.12 2.83c0 1.55.04 2.58.12 3.07s.26.88.53 1.17c.28.29.61.44 1.02.44s.73-.15 1-.44c.29-.3.46-.71.53-1.24s.11-1.53.12-2.99c0-1.43-.04-2.36-.12-2.82-.08-.45-.24-.81-.49-1.08zm-3.32.18c.55-.8 1.3-1.19 2.26-1.19.47 0 .94.13 1.42.38.47.26.86.71 1.15 1.36.36.82.55 1.94.55 3.36 0 1.52-.21 2.69-.63 3.5-.2.41-.47.74-.81.99s-.64.4-.9.46-.51.09-.75.1c-.26 0-.51-.03-.77-.09s-.56-.22-.9-.47c-.34-.26-.61-.59-.81-.99-.42-.81-.63-1.97-.63-3.5 0-1.71.28-3.01.84-3.91z"/><path d="m232.97 204.47v-.37c0-.25.08-.46.24-.63.16-.18.37-.27.63-.27s.52.12.74.37.33.68.34 1.3c0 .34-.04.68-.13 1s-.19.6-.31.84-.25.44-.38.6c-.14.17-.26.3-.35.4-.1.1-.16.14-.19.13-.04 0-.1-.04-.19-.13s-.13-.15-.13-.19.05-.12.16-.24.23-.27.37-.44c.14-.18.27-.42.38-.74s.2-.67.24-1.08v-.18h-.01s-.04.03-.07.04c-.03 0-.06.02-.09.04s-.07.03-.13.03-.12 0-.18.01c-.27 0-.48-.08-.65-.25l-.27-.27z"/><path d="m243.34 200.19v-.09c0-.73-.3-1.09-.9-1.09-.17 0-.34.04-.52.12s-.34.18-.49.31-.28.25-.38.35-.2.22-.27.32l-.09.12-.31 1.27c-.22.85-.32 1.45-.32 1.8 0 .47.12.83.35 1.06.16.16.35.24.59.24.32 0 .65-.16.99-.47.25-.23.44-.5.59-.83.15-.32.31-.84.49-1.55s.27-1.23.27-1.56zm-3.88-4.75c0-.1.02-.21.06-.34s.1-.19.18-.19c0 0 .36-.02 1.06-.07s1.06-.08 1.08-.09c.12 0 .18.04.18.13s-.17.79-.5 2.11c-.08.33-.16.68-.25 1.03s-.16.62-.22.8l-.06.28s.03.01.09-.04c.48-.39.98-.59 1.49-.59.61 0 1.1.23 1.48.68.37.45.57 1.02.58 1.71 0 1.09-.39 2.08-1.17 2.96s-1.61 1.33-2.51 1.33c-.49 0-.94-.19-1.34-.56s-.61-.98-.62-1.81v-.13c0-.21.04-.49.12-.86.08-.36.32-1.33.72-2.91.49-1.94.74-2.96.74-3.08s-.19-.19-.56-.21h-.38s-.06-.01-.1-.04-.05-.06-.04-.1z"/><path d="m258.06 205.15v.12c0 .08-.03.15-.09.21s-.11.09-.15.1c-.07 0-.83-.34-2.27-1.02s-2.87-1.35-4.28-2.02l-2.13-1.02c-.07-.05-.1-.12-.1-.22 0-.11.04-.19.12-.24 5.64-2.69 8.53-4.04 8.66-4.04.03 0 .07.03.13.09s.09.13.1.22c0 .09-.02.16-.1.21 0 0-1.34.64-3.98 1.9l-3.93 1.86 3.93 1.86c2.65 1.26 3.97 1.89 3.98 1.9.07.06.1.13.1.21v-.12z"/><path d="m267.13 196.18c-.3-.31-.64-.47-1.05-.47s-.77.16-1.06.47c-.25.26-.41.61-.49 1.06s-.12 1.4-.12 2.83c0 1.55.04 2.58.12 3.07s.26.88.53 1.17c.28.29.61.44 1.02.44s.73-.15 1-.44c.29-.3.46-.71.53-1.24s.11-1.53.12-2.99c0-1.43-.04-2.36-.12-2.82-.08-.45-.24-.81-.49-1.08zm-3.32.18c.55-.8 1.3-1.19 2.26-1.19.47 0 .94.13 1.42.38.47.26.86.71 1.15 1.36.36.82.55 1.94.55 3.36 0 1.52-.21 2.69-.63 3.5-.2.41-.47.74-.81.99s-.64.4-.9.46-.51.09-.75.1c-.26 0-.51-.03-.77-.09s-.56-.22-.9-.47c-.34-.26-.61-.59-.81-.99-.42-.81-.63-1.97-.63-3.5 0-1.71.28-3.01.84-3.91z"/><path d="m5.13 247.96h4.92v.39h-4.92v-.39zm0-2.14h4.92v.38h-4.92v-.38zm4.51-4 1.33.13c0 .09-.05.16-.12.23s-.19.11-.35.14v7.99h-.86v-8.49zm-4.98 0 1.32.13c0 .09-.05.16-.12.23s-.19.11-.35.14v7.99h-.85v-8.49zm-2.78 1.95h9.62l.63-.77s.04.03.12.08c.08.06.18.13.29.23s.24.2.38.31c.13.11.25.22.36.33-.03.14-.14.21-.34.21h-10.94l-.12-.39zm3.76 7.07 1.24.65c-.03.07-.1.12-.2.14s-.24.02-.41 0c-.33.25-.73.51-1.21.78-.47.27-.99.52-1.55.76s-1.12.43-1.69.59l-.1-.18c.5-.22 1.01-.48 1.52-.8s.97-.64 1.4-.98c.42-.34.76-.66 1.01-.95zm3.22.19c.83.17 1.51.36 2.05.55.54.2.98.4 1.3.6s.55.4.69.58.21.35.22.49c0 .14-.04.26-.12.34-.09.08-.2.12-.34.11s-.27-.07-.39-.18c-.3-.36-.75-.75-1.34-1.15s-1.3-.78-2.15-1.13l.08-.21zm-7.28-.94h10.12l.65-.81s.04.03.12.1.19.15.31.25c.13.1.26.21.4.32s.27.22.38.33c-.02.07-.06.12-.12.16-.06.03-.14.05-.23.05h-11.51l-.12-.39z"/><path d="m21.48 241.94c-.02.09-.06.16-.12.23s-.18.11-.36.14v11.08s-.03.09-.1.15-.15.1-.26.14-.22.06-.35.06h-.17v-11.94l1.36.14zm-5.16 7.74s-.03.06-.1.11-.16.09-.26.13-.22.06-.35.06h-.14v-5.89l.95.44h8.67v.38h-8.76v4.77zm8.35-5.15.48-.55 1.08.83c-.04.05-.12.1-.22.15s-.22.08-.35.11v4.47s-.04.06-.13.1-.19.08-.3.12c-.11.03-.22.05-.31.05h-.13v-5.29h-.13zm.48 3.83v.38h-9.26v-.38h9.26z"/><path d="m30.15 247.03c-.23 0-.42-.08-.57-.23-.16-.16-.23-.34-.23-.55 0-.23.08-.41.23-.57.16-.15.35-.23.57-.23.24 0 .44.08.59.23s.22.34.22.57c0 .21-.07.39-.22.55s-.34.23-.59.23zm0 5.24c-.23 0-.42-.08-.57-.24-.16-.16-.23-.34-.23-.54 0-.23.08-.43.23-.57.16-.15.35-.22.57-.22.24 0 .44.07.59.22s.22.34.22.57c0 .2-.07.38-.22.54s-.34.24-.59.24z"/><path d="m45.35 247.88c0-.06-.02-.17-.07-.32s-.16-.33-.34-.52-.4-.29-.68-.29c-.34 0-.67.15-.99.46-.31.3-.56.7-.74 1.19-.29.78-.49 1.58-.61 2.42v.16c0 .08 0 .14-.01.18 0 .44.09.75.27.91.18.17.39.26.63.27.37 0 .74-.16 1.11-.49.36-.32.58-.58.65-.75.02-.04.15-.57.4-1.58s.37-1.56.38-1.64zm-4.69 2.52c0-.99.37-1.94 1.12-2.83s1.59-1.35 2.52-1.36c.5 0 .94.24 1.33.72.16-.29.38-.44.68-.44.13 0 .24.04.34.12s.15.18.15.3c0 .13-.18.91-.55 2.36s-.55 2.26-.56 2.45c0 .25.03.41.1.49s.17.12.31.13c.09 0 .19-.05.3-.13.21-.2.41-.67.61-1.42.06-.2.11-.3.15-.31.02 0 .07-.01.15-.01h.06c.19 0 .28.04.28.13 0 .06-.02.19-.07.4s-.15.47-.3.8c-.15.32-.31.57-.47.74-.13.13-.29.23-.47.31-.08.02-.2.03-.35.03-.33 0-.61-.07-.84-.22s-.37-.3-.44-.46l-.09-.22s-.03 0-.06.01l-.06.06c-.58.55-1.17.83-1.77.83-.54 0-1.02-.2-1.43-.59s-.62-1.02-.62-1.87z"/><path d="m52.91 250.46c0-.15.08-.25.24-.29h9.39c.14.1.21.2.21.29 0 .13-.07.23-.22.3h-9.4c-.14-.07-.21-.17-.21-.3zm0-2.86c0-.13.07-.23.21-.3h9.4c.15.08.22.18.22.3 0 .11-.07.2-.21.28h-4.69s-4.69.01-4.69.01c-.16-.05-.24-.15-.24-.29z"/><path d="m68.19 252.04h.21c.38 0 .61-.07.69-.21v-.46c0-.14 0-.29.01-.46v-.58-.62-2.18c-.04-.19-.11-.31-.22-.37s-.33-.1-.66-.13h-.27v-.34c0-.23 0-.34.03-.34h.15c.1-.02.24-.03.41-.04.18 0 .35-.02.53-.03.16 0 .33-.02.52-.03.19 0 .33-.02.43-.04s.15-.02.16-.01h.04v1.02c.38-.67.86-1 1.43-1h.09c.44 0 .77.11.97.32.21.22.31.44.31.68 0 .21-.06.38-.19.53s-.31.22-.56.22-.43-.08-.55-.24-.18-.32-.19-.5c0-.09 0-.17.03-.24.02-.07.04-.13.07-.18s.04-.07.04-.07c-.02-.02-.13 0-.34.06-.16.08-.28.15-.35.22-.46.44-.69 1.32-.69 2.64v1.56c0 .12 0 .22.01.29v.22.07s.02.04.04.06.04.03.07.04c.03 0 .05.02.07.04s.05.03.1.03.08 0 .1.01c.02 0 .06.01.13.01h.13s.07 0 .15.01.13 0 .15 0h.46v.68h-.13c-.18-.03-.8-.04-1.87-.04-1.01 0-1.56.01-1.65.04h-.12v-.68h.24z"/><path d="m78.36 248.66c-.11-1.26-.58-1.93-1.4-2.01h-.03c-.08 0-.16 0-.24.01-.08 0-.2.05-.37.12s-.31.17-.43.31-.23.34-.34.6c-.11.27-.19.59-.24.97v.1h3.04v-.12zm-4.5.84c0-.54.1-1.03.3-1.47s.44-.8.74-1.08.61-.48.96-.62c.34-.14.67-.21.97-.22.52 0 .97.09 1.34.27s.66.42.86.74.33.63.41.94.12.66.13 1.05c0 .07-.03.14-.1.21h-4.16v.22c0 1.46.49 2.34 1.48 2.65.2.06.41.09.65.09.41 0 .77-.16 1.06-.47.17-.17.3-.37.4-.62l.15-.35s.11-.04.24-.04h.04c.17 0 .25.05.25.15 0 .04-.01.1-.04.19-.19.54-.5.97-.93 1.28s-.92.47-1.46.47c-.93 0-1.71-.34-2.33-1.02s-.93-1.47-.94-2.36z"/><path d="m84.45 248.45c.07-.41.33-.89.8-1.43.46-.54 1.03-.82 1.71-.83.34 0 .66.09.94.27.29.18.5.4.63.66.41-.62.91-.93 1.49-.93.36 0 .68.11.94.32.27.22.4.51.41.87 0 .29-.07.52-.21.69-.14.18-.27.29-.4.32-.13.04-.24.06-.34.06-.19 0-.34-.05-.46-.16s-.18-.25-.18-.43c0-.45.25-.76.74-.93-.11-.13-.31-.19-.59-.19-.13 0-.22 0-.28.03-.37.16-.65.48-.83.97-.59 2.17-.89 3.44-.89 3.81 0 .28.08.47.24.59s.33.18.52.18c.36 0 .72-.16 1.08-.49.35-.32.6-.72.72-1.19.03-.1.06-.15.09-.16.03 0 .11-.02.24-.03h.06c.15 0 .22.04.22.12 0 0 0 .06-.03.16-.16.56-.46 1.06-.91 1.49s-.98.65-1.58.65c-.69 0-1.21-.31-1.56-.93-.4.61-.87.91-1.39.91h-.09c-.48 0-.83-.13-1.03-.38-.21-.26-.31-.53-.32-.81 0-.31.09-.57.28-.77s.41-.3.66-.3c.42 0 .63.21.63.62 0 .2-.06.37-.18.52s-.23.25-.34.29c-.11.05-.17.07-.19.07h-.04s.03.04.09.07.14.06.24.1.19.05.28.04c.35 0 .66-.22.91-.66.09-.16.2-.49.34-1s.28-1.04.41-1.59c.14-.55.22-.88.24-.97.05-.27.07-.46.07-.58 0-.28-.07-.47-.22-.59s-.31-.18-.5-.18c-.39 0-.76.16-1.11.47-.34.31-.59.72-.72 1.21-.02.09-.04.14-.07.15-.03 0-.11.02-.24.03h-.21c-.06-.06-.09-.11-.09-.16z"/><path d="m93.28 252.2v-.37c0-.25.08-.46.24-.63.16-.18.37-.27.63-.27s.52.12.74.37.33.68.34 1.3c0 .34-.04.68-.13 1s-.19.6-.31.84-.25.44-.38.6c-.14.17-.26.3-.35.4-.1.1-.16.14-.19.13-.04 0-.1-.04-.19-.13s-.13-.15-.13-.19.05-.12.16-.24.23-.27.37-.44c.14-.18.27-.42.38-.74.12-.31.2-.67.24-1.08v-.18h-.01s-.04.03-.07.04-.06.02-.09.04-.07.03-.13.03-.12 0-.18.01c-.27 0-.48-.08-.65-.25l-.27-.27z"/><path d="m107.34 247.92v-.09c0-.73-.3-1.09-.9-1.09-.17 0-.34.04-.52.12s-.34.18-.49.31-.28.25-.38.35c-.11.11-.2.22-.27.32l-.09.12-.31 1.27c-.22.85-.32 1.45-.32 1.8 0 .47.12.83.35 1.06.16.16.35.24.59.24.32 0 .65-.16.99-.47.25-.23.44-.5.59-.83.15-.32.31-.84.49-1.55s.27-1.23.27-1.56zm-3.88-4.75c0-.1.02-.21.06-.34s.1-.19.18-.19c0 0 .36-.02 1.06-.07s1.06-.08 1.08-.09c.12 0 .18.04.18.13s-.17.79-.5 2.11c-.08.33-.16.68-.25 1.03s-.16.62-.22.8l-.06.28s.03.01.09-.04c.48-.39.98-.59 1.49-.59.61 0 1.1.23 1.48.68.37.45.57 1.02.58 1.71 0 1.09-.39 2.08-1.17 2.96-.78.89-1.61 1.33-2.51 1.33-.49 0-.94-.19-1.34-.56s-.61-.98-.62-1.81v-.13c0-.21.04-.49.12-.86.08-.36.32-1.33.72-2.91.49-1.94.74-2.96.74-3.08s-.19-.19-.56-.21h-.38s-.06-.01-.1-.04-.05-.06-.04-.1z"/><path d="m113.64 250.46c0-.15.08-.25.24-.29h9.39c.14.1.21.2.21.29 0 .13-.07.23-.22.3h-9.4c-.14-.07-.21-.17-.21-.3zm0-2.86c0-.13.07-.23.21-.3h9.4c.15.08.22.18.22.3 0 .11-.07.2-.21.28h-4.69s-4.69.01-4.69.01c-.16-.05-.24-.15-.24-.29z"/><path d="m132.04 252.71c-.15-.03-.66-.04-1.53-.04h-.55c-.26 0-.5 0-.74.03h-.32s-.12.01-.12.01v-.68h.24c.28 0 .52-.01.72-.04.09-.04.14-.09.16-.16s.03-.28.03-.62v-2.82c0-.51 0-.84-.03-.97-.02-.14-.09-.23-.21-.28-.14-.07-.37-.1-.69-.1h-.16v-.34c0-.23 0-.34.03-.34h.15c.1-.02.24-.03.41-.04.18 0 .35-.02.53-.03.17 0 .34-.02.53-.03.19 0 .33-.02.43-.04s.15-.02.16-.01h.04v5.6c.05.1.11.16.18.18s.24.04.52.06h.34v.68h-.12zm-2.63-8.98c0-.28.09-.49.27-.65s.39-.24.65-.24c.23.02.42.1.59.25s.25.36.25.63c0 .3-.08.52-.25.66-.17.15-.37.22-.62.22s-.45-.07-.62-.22-.26-.37-.27-.66z"/><path d="m133.1 252.04h.21c.38 0 .61-.07.69-.21v-.91c0-.17 0-.36.01-.58v-.62-.97c0-.34 0-.63-.01-.87v-.34c-.03-.19-.1-.31-.21-.37s-.33-.1-.66-.13h-.27v-.34c0-.23 0-.34.03-.34h.15c.1-.02.24-.03.41-.04.18 0 .36-.02.55-.03.17 0 .34-.02.53-.03.19 0 .33-.02.43-.04s.15-.02.16-.01h.04v.59c0 .37 0 .56.01.56s.03-.02.07-.07.1-.12.18-.22.17-.19.28-.27.25-.17.43-.28.36-.19.56-.24.45-.07.75-.07c.15 0 .29 0 .41.03.13.02.24.05.34.09s.19.08.28.12.16.08.22.13.11.1.16.16.09.11.13.16.07.1.1.16.05.11.06.15c0 .04.02.08.04.12l.03.07.04-.06s.06-.08.09-.12.07-.09.13-.16.12-.13.19-.19.14-.12.22-.19.18-.13.3-.18.23-.1.34-.15.24-.08.38-.1c.15-.02.3-.03.46-.04 1.24 0 1.91.56 2.02 1.67 0 .07.01.75.01 2.05v1.27c0 .37 0 .59.03.66.02.07.07.12.16.15.21.03.45.04.72.04h.24v.68h-.46c-.24-.02-.49-.03-.75-.03s-.45 0-.56-.01c-1.01 0-1.56.01-1.65.04h-.12v-.68h.24c.6 0 .9-.08.9-.24 0-.02.01-.7.01-2.04 0-1.33-.02-2.03-.03-2.11-.06-.28-.16-.48-.3-.62s-.26-.22-.35-.25c-.1-.03-.23-.04-.38-.03-.44 0-.83.17-1.17.5-.27.27-.43.54-.5.81-.07.28-.11.68-.12 1.22v1.83c0 .3 0 .49.01.59 0 .1.02.16.04.19s.06.06.13.09c.21.03.45.04.72.04h.24v.68h-.47c-.23-.02-.47-.03-.74-.03s-.45 0-.56-.01c-1.01 0-1.56.01-1.65.04h-.12v-.68h.24c.6 0 .9-.08.9-.24 0-.02.01-.7.01-2.04 0-1.33-.02-2.03-.03-2.11-.06-.28-.16-.48-.3-.62s-.26-.22-.35-.25-.23-.04-.38-.03c-.44 0-.83.17-1.17.5-.27.27-.43.54-.5.81-.07.28-.11.68-.12 1.22v1.83c0 .3 0 .49.01.59 0 .1.02.16.04.19s.06.06.13.09c.21.03.45.04.72.04h.24v.68h-.46c-.24-.02-.49-.03-.75-.03s-.45 0-.56-.01c-1.01 0-1.56.01-1.65.04h-.12v-.68h.24z"/><path d="m149.25 248.45c.07-.41.33-.89.8-1.43.46-.54 1.03-.82 1.71-.83.34 0 .66.09.94.27.29.18.5.4.63.66.41-.62.91-.93 1.49-.93.36 0 .68.11.94.32.27.22.4.51.41.87 0 .29-.07.52-.21.69s-.27.29-.4.32c-.13.04-.24.06-.34.06-.19 0-.34-.05-.46-.16s-.18-.25-.18-.43c0-.45.25-.76.74-.93-.11-.13-.31-.19-.59-.19-.13 0-.22 0-.28.03-.37.16-.65.48-.83.97-.59 2.17-.89 3.44-.89 3.81 0 .28.08.47.24.59s.33.18.52.18c.36 0 .72-.16 1.08-.49.35-.32.6-.72.72-1.19.03-.1.06-.15.09-.16.03 0 .11-.02.24-.03h.06c.15 0 .22.04.22.12 0 0 0 .06-.03.16-.16.56-.46 1.06-.91 1.49s-.98.65-1.58.65c-.69 0-1.21-.31-1.56-.93-.4.61-.87.91-1.39.91h-.09c-.48 0-.83-.13-1.03-.38-.21-.26-.31-.53-.32-.81 0-.31.09-.57.28-.77s.41-.3.66-.3c.42 0 .63.21.63.62 0 .2-.06.37-.18.52s-.23.25-.34.29-.17.07-.19.07h-.04s.03.04.09.07.14.06.24.1.19.05.28.04c.35 0 .66-.22.92-.66.09-.16.2-.49.34-1s.28-1.04.41-1.59c.14-.55.22-.88.24-.97.05-.27.07-.46.07-.58 0-.28-.07-.47-.22-.59s-.31-.18-.5-.18c-.39 0-.76.16-1.11.47-.34.31-.59.72-.72 1.21-.02.09-.04.14-.07.15-.03 0-.11.02-.24.03h-.21c-.06-.06-.09-.11-.09-.16z"/><path d="m158.07 252.2v-.37c0-.25.08-.46.24-.63.16-.18.37-.27.63-.27s.52.12.74.37.33.68.34 1.3c0 .34-.04.68-.13 1s-.19.6-.31.84-.25.44-.38.6c-.14.17-.26.3-.35.4-.1.1-.16.14-.19.13-.04 0-.1-.04-.19-.13s-.13-.15-.13-.19.05-.12.16-.24.23-.27.37-.44c.14-.18.27-.42.38-.74.12-.31.2-.67.24-1.08v-.18h-.01s-.04.03-.07.04c-.03 0-.06.02-.09.04s-.07.03-.13.03-.12 0-.18.01c-.27 0-.48-.08-.65-.25l-.27-.27z"/><path d="m168.96 243.17c0-.1.02-.21.06-.34s.1-.19.18-.19c0 0 .36-.02 1.06-.07s1.06-.08 1.08-.09c.12 0 .18.04.18.12 0 .07-.25 1.1-.74 3.08-.49 1.95-.74 2.95-.74 3.02.19-.1.33-.19.43-.28.24-.18.58-.49 1.02-.93s.79-.74 1.03-.9c.39-.27.77-.4 1.12-.4.3 0 .53.09.69.28.17.19.26.45.27.8 0 .25-.03.45-.1.62s-.16.29-.28.37-.22.13-.31.16-.18.04-.27.04c-.2 0-.35-.05-.47-.16s-.18-.25-.18-.43c0-.25.08-.45.24-.6.16-.16.31-.26.47-.31l.24-.04c-.12-.12-.24-.18-.35-.18h-.06c-.31.03-.62.15-.93.37-.3.22-.66.53-1.08.94-.41.41-.74.71-.97.9.02 0 .09.02.22.04s.25.05.35.09c.11.04.24.08.38.12s.28.11.4.21.23.19.32.27c.1.08.18.21.25.38.07.18.1.34.09.49 0 .17-.02.37-.07.6-.05.24-.08.43-.09.59 0 .39.13.59.4.59.47 0 .86-.59 1.15-1.76.02-.08.12-.12.3-.12h.06c.16 0 .24.04.24.13 0 .05-.01.12-.04.21-.4 1.39-.98 2.08-1.74 2.08-.44 0-.8-.13-1.08-.38s-.41-.62-.41-1.11c0-.18.01-.33.04-.46s.04-.25.04-.35c0-.22-.07-.4-.21-.56s-.31-.27-.52-.34-.37-.12-.5-.16-.22-.05-.27-.04h-.03c-.12.41-.22.81-.31 1.19s-.16.67-.21.86-.09.37-.13.55-.07.3-.1.35c-.03.06-.06.12-.1.19s-.09.11-.16.13c-.13.09-.27.13-.41.13-.17 0-.3-.05-.38-.15-.09-.1-.13-.18-.13-.25 0-.1.18-.88.55-2.36s.72-2.93 1.08-4.35l.55-2.14c0-.13-.02-.21-.1-.24s-.27-.05-.58-.07h-.27s-.06-.01-.1-.04-.05-.06-.04-.1z"/><path d="m180.2 249.03c0-1.2.4-2.18 1.21-2.95s1.76-1.2 2.86-1.31h.25c.16 0 .36 0 .62-.01h.74 1.46c.15.08.22.18.22.3 0 .09-.06.18-.19.28h-1.53c-1.09.02-1.77.05-2.02.1-.48.12-.91.3-1.28.53-.37.24-.66.48-.87.72-.21.25-.38.52-.53.81s-.24.53-.27.71-.05.34-.07.5v.03h6.55c.15.08.22.18.22.3s-.07.22-.22.29h-6.55v.03c0 .21.05.46.15.75.1.3.26.61.49.96s.54.66.94.94.88.49 1.43.6c.27.06.94.09 2.04.1h1.53c.13.1.19.2.19.29 0 .12-.07.22-.22.29h-1.8c-.18 0-.32 0-.43.01-1.52 0-2.73-.42-3.62-1.27-.87-.81-1.3-1.81-1.3-3.02z"/><path d="m201.34 252.2c.09-.53.13-.84.13-.91l-.3.29c-.19.18-.36.32-.52.43l-.27.16.46.03h.49zm-.29-9.01s-.24-.03-.71-.03c-.51 0-.78.02-.8.07-.02.04-.92 1.51-2.72 4.42s-2.72 4.41-2.79 4.51c0 .02.25.03.75.03h.75l2.76-4.48 2.74-4.53zm-5.96.13.27-.16h-.8v.24s-.02.08-.03.15c0 .07-.02.12-.03.15 0 .04 0 .06.03.06s.05-.02.09-.06.1-.09.19-.16.18-.14.28-.21zm-1.61 9.41c-.1-.1-.15-.16-.15-.19 0-.11.15-.43.46-.96.3-.53 1.09-1.81 2.35-3.83l2.82-4.59h-.68c-1.01 0-1.77.1-2.27.29-.41.16-.75.35-1 .59-.26.24-.42.45-.49.63-.07.19-.13.36-.18.53s-.09.26-.13.28c-.03 0-.07.01-.12.01-.08 0-.17-.07-.28-.21l.13-1.25c.02-.19.04-.38.07-.59s.05-.37.06-.5c0-.13.02-.19.03-.19.03-.02.06-.05.1-.09.02-.02 1.26-.03 3.73-.03h3.7c.12.1.18.18.18.25 0 .04-.94 1.6-2.83 4.69l-2.82 4.59s.39.03 1.18.03c1.03 0 1.75-.06 2.14-.19.57-.2 1.05-.51 1.43-.93s.65-.92.8-1.49c.05-.27.15-.4.3-.4.07 0 .13.02.18.07s.08.1.09.16c0 .08-.07.62-.21 1.62s-.22 1.52-.25 1.55l-.1.1s-1.4.03-4.13.03h-4.1z"/><path class="cls-1" d="m15.46 288.44c.08 0 .14-.01.18-.04s.09-.1.15-.23c.04-.09.08-.17.12-.23s.08-.17.14-.29c.06-.13.14-.31.24-.55s.23-.56.4-.96.38-.91.65-1.52.58-1.37.97-2.26l.23.07c-.11.33-.24.71-.38 1.13s-.29.85-.44 1.3c-.15.44-.3.86-.43 1.26s-.25.75-.36 1.05-.17.51-.21.65c-.06.2-.11.4-.14.6s-.05.38-.05.55c0 .14.02.28.06.44.04.15.08.32.13.5s.09.37.12.58.04.45.02.72c0 .28-.07.5-.2.66-.12.16-.29.24-.51.24-.13 0-.23-.06-.3-.17s-.11-.27-.13-.48c.06-.44.09-.84.1-1.2 0-.36-.02-.65-.07-.88s-.12-.38-.22-.45c-.08-.06-.17-.1-.27-.13s-.22-.04-.37-.05v-.27h.57zm-.74-5.22c.47.05.85.14 1.14.27s.51.27.66.43.24.31.27.46.03.28-.03.4c-.05.11-.14.18-.26.22s-.26 0-.42-.07c-.08-.19-.2-.38-.35-.58-.16-.2-.33-.38-.53-.55s-.4-.32-.6-.44l.12-.13zm.93-2.82c.48.06.87.16 1.17.31s.53.3.68.47.25.34.28.5.02.3-.04.42c-.06.11-.15.19-.28.23s-.27.02-.42-.07c-.07-.21-.19-.42-.35-.64-.17-.22-.35-.42-.55-.61s-.41-.35-.61-.48l.12-.12zm6.03 2.63h.86v8.41h-.86v-8.41zm-1.35-2.88c.53.13.96.29 1.29.49s.58.4.74.62.27.42.3.61.02.35-.05.49c-.07.13-.17.22-.31.25s-.3 0-.47-.1c-.05-.26-.17-.53-.35-.81s-.38-.55-.61-.8-.46-.46-.68-.64l.13-.1zm-2.68 11.08h7.28l.61-.78s.04.03.12.09.18.14.29.23.24.2.37.31.25.22.35.33c-.02.13-.13.2-.34.2h-8.58l-.1-.38zm.79-4.48h6.04l.59-.77s.04.03.12.09.17.14.29.23c.11.09.23.19.37.3s.24.22.34.32c-.03.13-.14.2-.34.2h-7.29l-.1-.36zm-.03-3.78h6.35l.63-.78s.04.03.11.09.17.14.29.24.24.2.37.31.25.22.35.32c-.03.14-.14.21-.35.21h-7.64l-.1-.39z"/><path class="cls-1" d="m30.15 285.38c-.23 0-.42-.08-.57-.23-.16-.16-.23-.34-.23-.55 0-.23.08-.41.23-.57.16-.15.35-.23.57-.23.24 0 .44.08.59.23s.22.34.22.57c0 .21-.07.39-.22.55s-.34.23-.59.23zm0 5.24c-.23 0-.42-.08-.57-.24-.16-.16-.23-.34-.23-.54 0-.23.08-.43.23-.57.16-.15.35-.22.57-.22.24 0 .44.07.59.22s.22.34.22.57c0 .2-.07.38-.22.54s-.34.24-.59.24z"/><path class="cls-1" d="m41.96 281.52c0-.1.02-.21.06-.34s.1-.19.18-.19c0 0 .36-.02 1.06-.07s1.06-.08 1.08-.09c.12 0 .18.04.18.12 0 .07-.25 1.1-.74 3.08-.49 1.95-.74 2.95-.74 3.02.19-.1.33-.19.43-.28.24-.18.58-.49 1.02-.93s.79-.74 1.03-.9c.39-.27.77-.4 1.12-.4.3 0 .53.09.69.28.17.19.26.45.27.8 0 .25-.03.45-.1.62s-.16.29-.28.37-.22.13-.31.16-.18.04-.27.04c-.2 0-.35-.05-.47-.16s-.18-.25-.18-.43c0-.25.08-.45.24-.6.16-.16.31-.26.47-.31l.24-.04c-.12-.12-.24-.18-.35-.18h-.06c-.31.03-.62.15-.93.37-.3.22-.66.53-1.08.94-.41.41-.74.71-.97.9.02 0 .09.02.22.04s.25.05.35.09c.11.04.24.08.38.12.15.04.28.11.4.21s.23.19.32.27.18.21.25.38.1.34.09.49c0 .17-.02.37-.07.6-.05.24-.08.43-.09.59 0 .39.13.59.4.59.47 0 .86-.59 1.15-1.76.02-.08.12-.12.3-.12h.06c.16 0 .24.04.24.13 0 .05-.01.12-.04.21-.4 1.39-.98 2.08-1.74 2.08-.44 0-.8-.13-1.08-.38-.28-.26-.41-.62-.41-1.11 0-.18.01-.33.04-.46s.04-.25.04-.35c0-.22-.07-.4-.21-.56s-.31-.27-.52-.34-.37-.12-.5-.16-.22-.05-.27-.04h-.03c-.12.41-.22.81-.31 1.19s-.16.67-.21.86-.09.37-.13.55-.07.3-.1.35-.06.12-.1.19-.09.11-.16.13c-.13.09-.27.13-.41.13-.17 0-.3-.05-.38-.15s-.13-.18-.13-.25c0-.1.18-.88.55-2.36.36-1.47.72-2.93 1.08-4.35l.55-2.14c0-.13-.02-.21-.1-.24s-.27-.05-.58-.07h-.27s-.06-.01-.1-.04-.05-.06-.04-.1z"/><path class="cls-1" d="m52.79 288.81c0-.15.08-.25.24-.29h9.39c.14.1.21.2.21.29 0 .13-.07.23-.22.3h-9.4c-.14-.07-.21-.17-.21-.3zm0-2.87c0-.13.07-.23.21-.29h9.4c.15.08.22.18.22.29s-.07.2-.21.28h-4.69s-4.69.01-4.69.01c-.16-.05-.24-.15-.24-.29z"/><path class="cls-1" d="m72.28 282.26c-.3-.31-.64-.47-1.05-.47s-.77.16-1.06.47c-.25.26-.41.61-.49 1.06s-.12 1.4-.12 2.83c0 1.55.04 2.58.12 3.07s.26.88.53 1.17c.28.29.61.44 1.02.44s.73-.15 1-.44c.29-.3.46-.71.53-1.24s.11-1.53.12-2.99c0-1.43-.04-2.36-.12-2.82-.08-.45-.24-.81-.49-1.08zm-3.32.17c.55-.8 1.3-1.19 2.26-1.19.47 0 .94.13 1.42.38.47.26.86.71 1.15 1.36.36.82.55 1.94.55 3.36 0 1.52-.21 2.69-.63 3.5-.2.41-.47.74-.81.99s-.64.4-.9.46-.51.09-.75.1c-.26 0-.51-.03-.77-.09s-.56-.22-.9-.47c-.34-.26-.61-.58-.81-.99-.42-.81-.63-1.97-.63-3.5 0-1.71.28-3.01.84-3.91z"/><path class="cls-1" d="m84.89 285.24c.53.28.95.57 1.27.87s.55.6.7.89.23.55.25.79c.01.23-.02.43-.1.57-.08.15-.18.23-.32.25s-.28-.04-.45-.18c0-.35-.09-.71-.25-1.09s-.35-.75-.57-1.1-.45-.66-.7-.92l.16-.09zm5.67-2.75s.04.03.12.1.18.15.29.25c.12.1.24.21.37.33s.24.23.34.34c-.03.14-.15.21-.34.21h-7.2l-.1-.39h5.91l.61-.83zm-.73-2.05c0 .1-.05.17-.12.23s-.19.1-.36.12v9.97c0 .23-.03.44-.1.63-.07.18-.21.33-.42.44-.22.11-.56.2-1.02.25-.03-.14-.07-.26-.12-.36s-.13-.19-.25-.26c-.12-.09-.29-.16-.5-.22s-.51-.11-.88-.15v-.2s.09 0 .27.02c.18.01.39.03.63.04s.47.03.69.04.37.02.46.02c.15 0 .25-.02.3-.07s.08-.13.08-.24v-10.4l1.34.14zm-9.74.46.97.43h-.16v9.41s-.03.05-.08.1-.13.1-.23.14-.23.06-.38.06h-.12v-10.14zm2.69.43.48-.53 1.04.82c-.04.05-.12.1-.22.14s-.22.08-.35.1v8.24s-.04.06-.12.11-.17.09-.27.13-.2.06-.3.06h-.13v-9.07h-.13zm.49 0v.39h-2.74v-.39h2.74zm-.02 3.78v.39h-2.75v-.39h2.75zm.02 3.78v.39h-2.74v-.39h2.74z"/><path class="cls-1" d="m98.02 289.5c0 .3.12.58.35.81.24.24.53.36.87.37.37 0 .7-.11.99-.34s.48-.52.58-.88c.02-.07.03-.39.04-.97 0-.57 0-.86-.01-.86-.08 0-.18 0-.31.01-.13 0-.35.05-.66.13s-.6.18-.86.29c-.26.12-.48.3-.68.55s-.3.54-.31.88zm.17-2.94h-.32c-.22 0-.4-.07-.55-.22s-.22-.34-.22-.58c0-.34.17-.65.5-.91.33-.27.93-.4 1.79-.4.72 0 1.3.16 1.74.47s.74.69.89 1.12c.05.14.07.29.07.46s0 .73.01 1.7v1.03c0 .47.02.8.07.97s.15.27.31.27c.15 0 .25-.08.3-.24s.07-.42.07-.78v-.53h.59v.58c0 .39-.02.62-.04.69-.09.29-.26.53-.52.69-.26.17-.53.26-.81.27s-.52-.08-.69-.27c-.18-.19-.3-.39-.35-.62v-.06l-.03.04s-.04.06-.07.09-.07.07-.12.13-.11.11-.18.16-.14.11-.22.18-.17.12-.27.16-.21.08-.32.12c-.12.04-.25.07-.38.09-.14.02-.29.03-.46.04-.59 0-1.12-.15-1.59-.46-.47-.3-.71-.73-.71-1.28 0-.21.03-.4.1-.59s.2-.39.4-.6c.2-.22.43-.4.71-.55s.66-.29 1.15-.41c.49-.13 1.03-.2 1.62-.22h.21v-.32c0-.33-.03-.58-.09-.74-.22-.7-.69-1.05-1.43-1.05-.18 0-.34 0-.5.01-.16 0-.28.03-.37.06s-.13.04-.12.04c.22.15.32.36.32.65 0 .25-.08.44-.24.58l-.25.22z"/><path class="cls-1" d="m104.08 290.38h.21c.38 0 .61-.07.69-.21v-.46c0-.14 0-.29.01-.46v-.58-.62-2.18c-.04-.19-.11-.31-.22-.37s-.33-.1-.66-.13h-.27v-.34c0-.23 0-.34.03-.34h.15c.1-.02.24-.03.41-.04.18 0 .35-.02.53-.03.16 0 .33-.02.52-.03.19 0 .33-.02.43-.04s.15-.02.16-.01h.04v1.02c.38-.67.86-1 1.43-1h.09c.44 0 .77.11.97.32.21.22.31.44.31.68 0 .21-.06.38-.19.53s-.31.22-.56.22-.43-.08-.55-.24-.18-.32-.19-.5c0-.09 0-.17.03-.24.02-.07.04-.13.07-.18s.04-.07.04-.07c-.02-.02-.13 0-.34.06-.16.08-.28.15-.35.22-.46.44-.69 1.32-.69 2.64v1.56c0 .12 0 .22.01.3v.22.07s.02.04.04.06.04.03.07.04c.03 0 .05.02.07.04s.05.03.1.03.08 0 .1.01.06.01.13.01h.13s.07 0 .15.01h.15.46v.68h-.13c-.18-.03-.8-.04-1.87-.04-1.01 0-1.56.01-1.65.04h-.12v-.68h.24z"/><path class="cls-1" d="m115.28 292.17c0-.25-.07-.45-.21-.6s-.34-.27-.61-.34-.51-.11-.72-.13c-.22-.02-.48-.03-.8-.03h-.4c-.66 0-1.05.03-1.18.09-.2.09-.35.23-.46.41-.11.19-.17.38-.18.59 0 .1.03.21.09.34s.16.28.31.44c.15.17.38.3.71.41.32.11.72.17 1.18.18.68 0 1.22-.14 1.64-.41s.62-.59.62-.94zm-1.54-6.17c-.05-.28-.18-.49-.38-.65-.21-.16-.46-.24-.77-.25-.29 0-.53.08-.74.24s-.33.38-.38.66c-.03.17-.04.42-.04.75 0 .43.03.75.1.96s.22.38.44.52c.17.1.38.15.63.15.22 0 .4-.03.56-.1s.27-.16.34-.27.12-.21.16-.3.06-.16.07-.22c.03-.16.04-.4.04-.74s-.01-.59-.04-.75zm.44-.97c.43-.43.92-.65 1.48-.65.3 0 .51.09.63.28.13.19.19.37.19.56 0 .14-.04.26-.13.37s-.22.16-.4.16c-.32 0-.51-.15-.55-.44-.02-.14 0-.24.04-.31 0 0 0-.02.01-.04-.28.01-.54.12-.78.31-.08.05-.12.08-.12.1 0 0 .02.03.06.07s.08.1.13.18.1.17.16.27.1.23.13.38c.03.16.05.32.06.49 0 .61-.24 1.13-.72 1.55s-1.08.64-1.79.65c-.49 0-.98-.14-1.46-.41-.11.18-.16.36-.16.56 0 .34.13.6.38.77.09.06.17.09.25.09s.43 0 1.06.03c.83 0 1.36.04 1.59.09.6.09 1.07.29 1.42.6.38.38.58.87.58 1.45 0 .66-.38 1.17-1.15 1.52-.59.3-1.29.46-2.1.46s-1.52-.15-2.11-.46c-.77-.34-1.15-.84-1.15-1.47 0-.35.1-.65.31-.89s.41-.4.62-.49l.16-.09c-.35-.3-.53-.72-.53-1.24 0-.46.14-.88.43-1.25-.43-.43-.65-.92-.65-1.46 0-.62.25-1.14.74-1.56s1.09-.64 1.79-.65c.5 0 .97.13 1.4.38l.16.1z"/><path class="cls-1" d="m118.1 287.38c0-.68.05-1.32.15-1.93s.21-1.14.34-1.58.31-.88.55-1.3.42-.75.56-.99.34-.49.62-.77.44-.44.49-.5.17-.16.37-.31h.25c.14 0 .21.04.21.13 0 .03-.08.13-.25.31s-.37.44-.61.78-.48.77-.72 1.27c-.25.5-.45 1.18-.62 2.04s-.25 1.8-.25 2.85.08 1.99.25 2.83c.17.85.37 1.53.61 2.05s.48.94.72 1.27c.25.32.45.59.62.78.17.2.25.3.25.31 0 .09-.07.13-.22.13h-.24l-.41-.35c-.92-.84-1.6-1.88-2.02-3.13s-.63-2.55-.63-3.89z"/><path class="cls-1" d="m123.22 286.8c.07-.41.33-.89.8-1.43.46-.54 1.03-.82 1.71-.83.34 0 .66.09.94.27.29.18.5.4.63.66.41-.62.91-.93 1.49-.93.36 0 .68.11.94.32.27.22.4.51.41.87 0 .29-.07.52-.21.69s-.27.29-.4.32c-.13.04-.24.06-.34.06-.19 0-.34-.05-.46-.16s-.18-.25-.18-.43c0-.45.25-.76.74-.93-.11-.13-.31-.19-.59-.19-.13 0-.22 0-.28.03-.37.16-.65.48-.83.97-.59 2.17-.89 3.44-.89 3.81 0 .28.08.47.24.59s.33.18.52.18c.36 0 .72-.16 1.08-.49.35-.32.6-.72.72-1.19.03-.1.06-.15.09-.16.03 0 .11-.02.24-.03h.06c.15 0 .22.04.22.12 0 0 0 .06-.03.16-.16.56-.46 1.06-.91 1.49s-.98.65-1.58.65c-.69 0-1.21-.31-1.56-.93-.4.61-.87.91-1.39.91h-.09c-.48 0-.83-.13-1.03-.38-.21-.26-.31-.53-.32-.81 0-.31.09-.57.28-.77s.41-.29.66-.29c.42 0 .63.21.63.62 0 .2-.06.37-.18.52s-.23.25-.34.3-.17.07-.19.07h-.04s.03.04.09.07.14.06.24.1.19.05.28.04c.35 0 .66-.22.91-.66.09-.16.2-.49.34-1s.28-1.04.41-1.59.22-.88.24-.97c.05-.27.07-.46.07-.58 0-.28-.07-.47-.22-.59s-.31-.18-.5-.18c-.39 0-.76.16-1.11.47-.34.31-.59.72-.72 1.21-.02.09-.04.14-.07.15-.03 0-.11.02-.24.03h-.21c-.06-.06-.09-.11-.09-.16z"/><path class="cls-1" d="m131.78 280.02h.06s.1-.01.15-.01h.18l.41.35c.92.84 1.6 1.88 2.02 3.13s.63 2.55.63 3.89c0 .67-.05 1.31-.15 1.93s-.21 1.15-.34 1.58-.31.87-.55 1.3-.42.76-.56.99-.34.48-.61.75-.42.44-.47.49-.16.14-.34.28l-.06.06h-.34s-.05-.01-.07-.04-.03-.07-.04-.13c0 0 .06-.07.16-.19 1.52-1.58 2.29-3.92 2.29-7.01s-.76-5.42-2.29-7.01c-.1-.12-.15-.18-.16-.19 0-.08.02-.13.07-.16z"/><path class="cls-1" d="m147.4 280.48s.04.03.12.09.18.14.29.23c.12.1.24.2.37.3s.25.21.36.31c-.03.14-.15.21-.35.21h-6.78l-.1-.38h5.5l.6-.77zm-3.97.77v8.2l-.83.14v-8.34h.83zm3.24 10.53s-.03.07-.08.12c-.06.05-.14.1-.24.14s-.23.06-.38.06h-.13v-10.84h.83v10.53zm-.38-8.04v.39h-3.35v-.39h3.35zm0 2.54v.38h-3.35v-.38h3.35zm5.83-3.7v.38h-5l-.12-.38h5.11zm-.52 0 .55-.56.97.9c-.05.06-.12.1-.19.12s-.18.04-.33.06c-.17.86-.4 1.71-.68 2.54s-.63 1.64-1.07 2.41-.98 1.49-1.62 2.16c-.65.67-1.42 1.26-2.3 1.77l-.17-.17c.74-.54 1.39-1.16 1.95-1.85.56-.7 1.04-1.44 1.45-2.25s.73-1.64.99-2.51.45-1.75.59-2.63h-.13zm-10.4 6.85c.31-.05.72-.13 1.21-.23s1.06-.23 1.7-.38 1.32-.31 2.04-.48c.73-.17 1.47-.35 2.22-.52l.05.21c-.76.29-1.66.61-2.71.97s-2.27.77-3.67 1.22c-.06.17-.16.27-.3.31l-.55-1.09zm7.08-6.83c.19 1.35.52 2.57.98 3.68s1.05 2.08 1.76 2.91 1.53 1.52 2.46 2.05l-.04.14c-.19.02-.36.08-.5.18s-.24.24-.28.42c-1.3-.9-2.34-2.14-3.12-3.72-.77-1.59-1.3-3.44-1.57-5.56l.3-.1z"/><path class="cls-1" d="m157.29 285.16c-.05.11-.19.19-.4.23v6.4s-.03.06-.1.11-.15.09-.25.13-.21.06-.31.06h-.17v-6.65l.46-.59.78.3zm1.18-1.81c-.03.07-.09.12-.16.15s-.19.03-.35 0c-.25.4-.57.84-.95 1.32s-.8.95-1.26 1.41-.94.89-1.45 1.27l-.14-.16c.42-.43.82-.92 1.21-1.47.39-.54.75-1.09 1.07-1.64s.58-1.05.77-1.49l1.25.61zm-.23-2.57c-.04.07-.1.12-.17.14s-.18.02-.33 0c-.24.3-.55.62-.91.97s-.75.7-1.18 1.04-.86.64-1.3.91l-.16-.16c.37-.33.73-.7 1.09-1.12s.7-.84 1-1.26.56-.81.75-1.15l1.2.64zm7.12 6.18s.06.05.18.15.27.22.44.36.33.28.46.42c-.03.14-.15.21-.34.21h-8.11l-.1-.39h6.89l.59-.76zm-.56-1.89s.04.03.11.08c.07.06.17.13.29.23s.24.2.37.31.25.22.35.32c-.03.14-.15.21-.35.21h-6.93l-.1-.38h5.65l.61-.77zm-5.38 3.31c.45.11.82.25 1.1.4.28.16.48.32.62.49.13.17.21.33.23.48s0 .28-.07.39-.17.17-.29.2c-.12.02-.26-.01-.4-.1-.06-.19-.17-.4-.31-.61s-.31-.43-.49-.63-.35-.38-.52-.51l.13-.1zm-.11-8.08.97.42h3.61l.42-.51.94.73s-.1.08-.17.12-.17.07-.3.08v3.66s-.07.07-.21.14-.31.1-.51.1h-.13v-3.96h-3.81v3.85s-.06.08-.18.15-.28.1-.5.1h-.13v-4.89zm5.06 2.16v.39h-4.56v-.39h4.56zm0 1.76v.39h-4.56v-.39h4.56zm-.35 6.62c0 .23-.03.43-.1.61s-.19.32-.38.43-.49.18-.89.23c0-.13-.03-.25-.07-.35s-.1-.19-.18-.26c-.1-.07-.24-.13-.42-.18s-.41-.09-.72-.14v-.2s.07 0 .21.01c.14 0 .3.02.49.03s.37.02.53.03.28.01.35.01c.13 0 .22-.02.25-.06.04-.04.06-.1.06-.19v-4.89h.86v4.9z"/><path class="cls-1" d="m171.41 280.15c.63.12 1.16.28 1.57.46.41.19.73.39.97.61.23.22.38.42.46.62s.1.37.06.51c-.04.15-.12.25-.25.29s-.28.03-.46-.06c-.13-.27-.33-.55-.61-.84s-.58-.57-.91-.83-.65-.47-.96-.64l.13-.13zm1.48 3.03h.89v8.15h-.89v-8.15zm-5.52 7.96h10.06l.68-.85s.04.03.12.1.19.15.32.25.27.21.41.33.28.23.4.35c-.03.13-.15.2-.35.2h-11.52l-.12-.38zm1.42-4.22h7.54l.65-.81s.04.03.12.09.18.14.31.24c.12.1.25.21.38.33s.26.23.38.33c0 .06-.05.11-.11.14-.07.03-.15.05-.24.05h-8.93l-.1-.38zm-.54-3.74h8.61l.67-.83.13.1c.09.07.19.15.32.25s.26.21.4.33.27.23.39.34c-.03.14-.15.21-.34.21h-10.06l-.12-.39z"/><path class="cls-1" d="m191.09 281.05s.04.03.11.09.17.14.29.23c.12.1.24.2.37.31s.25.22.35.33c-.02.14-.13.21-.34.21h-7.8l-.1-.39h6.48l.64-.78zm-.6 4.38v.39h-5.1v-.39h5.1zm-.04 1.83v.38h-5.03v-.38h5.03zm-.03 1.83v.39h-4.98v-.39h4.98zm-1.7-8.83c0 .09-.05.16-.12.23s-.18.11-.31.12c-.02.32-.05.68-.08 1.08-.04.4-.07.78-.1 1.15s-.06.7-.09.98h-.72c.02-.3.03-.65.05-1.08.02-.42.03-.86.04-1.32 0-.46.02-.88.03-1.28l1.3.12zm2.84 10.19s.06.05.18.14c.12.1.26.22.42.36s.3.28.42.4c-.03.14-.14.21-.33.21h-8.76l-.1-.38h7.62l.56-.73zm-6.58-7.25.97.42h3.89l.46-.59 1.13.86c-.04.06-.12.11-.22.15s-.23.07-.38.08v7.23h-.85v-7.35h-4.17v7.35h-.82v-8.16zm-1.75.62c-.02.06-.06.11-.12.16s-.16.07-.28.09v7.69s-.03.06-.1.11-.16.09-.26.13-.21.06-.33.06h-.17v-8.06l.39-.51.87.33zm1.27-3.24c-.03.07-.09.13-.17.18s-.19.07-.34.07c-.29.81-.62 1.58-.99 2.33-.37.74-.78 1.43-1.22 2.06s-.9 1.18-1.38 1.66l-.18-.12c.37-.53.73-1.15 1.09-1.86s.7-1.48 1.01-2.29.57-1.64.78-2.47l1.4.44z"/></g></svg>
