<svg viewBox="0 0 191.1 11.41" xmlns="http://www.w3.org/2000/svg"><defs><style>.cls-1 {
        isolation: isolate;
      }</style></defs><g id="a"><g><g class="cls-1"><path d="m10.1.82s.06.05.06.08c0 .02-.02.05-.06.08l-.36.31v8.71c0 .44-.18.67-.75 1.03-.04.02-.07.04-.08.04-.05 0-.07-.04-.08-.12-.07-.37-.29-.54-1.4-.77l.02-.2c.53.1.91.14 1.16.14.48 0 .58-.17.58-.58v-2.91h-3.21v1.26c0 1.14.01 1.84.04 2.29v.1c0 .16-.04.2-.28.31-.11.05-.19.07-.25.07-.08 0-.11-.07-.11-.28v-.11c.02-.77.04-1.55.04-2.41v-1.24h-3.06c-.04 2.12-.91 3.56-2.21 4.67l-.13-.12c1.54-1.8 1.81-2.76 1.81-6.38v-3.15c0-.46-.03-.98-.04-1.39l.72.56h6.44l.36-.52.8.52zm-4.7 5.55v-2.46h-3.04c0 .76-.01 1.54-.02 2.46h3.06zm0-2.72v-2.57h-3.04v2.57h3.04zm3.77 0v-2.57h-3.21v2.57h3.21zm0 2.72v-2.46h-3.21v2.46h3.21z"/></g><g class="cls-1"><path d="M22.8,4.71c.07.08.11.13.11.17,0,.05-.05.06-.14.06h-4.94v5.1c0,.59-.11.79-.9,1.16-.04.01-.07.02-.1.02-.05,0-.07-.02-.08-.1-.1-.52-.31-.72-1.64-1.04v-.17c.78.13,1.27.2,1.6.2.5,0,.55-.17.55-.52v-4.67h-4.2c-.25,0-.61.05-.8.12l-.33-.43c.29.02.6.05.88.05h4.46V1.72h-3.2c-.24,0-.59.05-.77.12l-.32-.43c.28.02.58.05.84.05h6.93l.52-.7.72.78c.06.06.1.11.1.13,0,.04-.06.05-.16.05h-4.08v2.96h3.69l.58-.72.71.76Z"/></g><g class="cls-1"><path d="M29.01.78c.07.04.11.06.11.1,0,.02-.05.05-.14.07-.26.06-.42.16-.54.34-1.34,2.11-2.68,3.74-4.49,4.98l-.1-.16c1.79-1.5,3.41-3.83,4.15-5.82l1.01.49ZM32.45,5.22c.06.05.1.08.1.11,0,.04-.04.06-.1.11l-.41.28c0,1.37-.07,2.28-.23,3.48-.12,1-.41,1.43-1.23,1.88-.04.01-.06.02-.08.02-.04,0-.06-.02-.07-.1-.12-.5-.29-.72-1.67-1.1l.07-.17c.66.14,1.15.23,1.51.23.62,0,.85-.25.94-.91.12-.93.17-1.94.17-3.54h-2.81c-.29,3.39-1.19,4.62-4.38,5.83l-.06-.18c3.18-1.48,3.66-3.08,3.8-5.65h-1.33c-.25,0-.6.05-.8.13l-.33-.44c.3.02.6.05.88.05h4.77l.48-.7.79.67ZM31.18.84c.3,1.93,1.85,3.85,3.95,4.41l-.02.12c-.65-.02-1.03.11-1.21.34-.02.02-.05.05-.07.05-.01,0-.04-.02-.07-.05-1.88-1.57-2.58-2.96-3.19-5.62l.89.29c.08.02.13.05.13.08,0,.02-.04.06-.1.12l-.3.26Z"/></g><g class="cls-1"><path d="m40.06 1.07s.07.07.07.1-.02.04-.08.06c-.46.14-.54.25-.9 1l-.8 1.67c.82 1.13 1.24 2.16 1.24 2.83 0 .56-.26 1-1.06 1.5-.04.01-.06.02-.07.02-.04 0-.06-.02-.07-.08-.06-.3-.29-.5-.97-.65v-.22c.25.05.47.07.66.07.7 0 .98-.34.98-1s-.25-1.46-.95-2.5l.91-2.7h-1.65v7.32c0 .84.01 1.67.05 2.16v.07c0 .16-.05.2-.28.3-.11.05-.18.07-.23.07-.08 0-.11-.07-.11-.25v-.11c.02-.65.04-1.64.04-2.27v-6.65c0-.46-.02-1.21-.05-1.62l.78.72h1.37l.38-.47.74.62zm6.56 4.36c.08.05.12.1.12.13s-.04.07-.12.12l-.35.23v4.22c0 .44-.13.67-.8 1.01-.04.02-.06.02-.08.02-.04 0-.06-.02-.07-.07-.1-.38-.24-.54-1.2-.83l.02-.17c.55.1.91.14 1.15.14.37 0 .42-.12.42-.32v-4.25h-5.02v2.66c0 .34.02 1.98.02 2.35 0 .14-.04.19-.28.3-.11.05-.18.07-.23.07-.08 0-.11-.07-.11-.26v-.11c.02-.67.04-1.71.04-2.36v-1.83c0-.47-.02-1.26-.05-1.68l.78.6h4.67l.32-.52.77.54zm-.02-4.28c.07.07.12.13.12.17 0 .05-.06.07-.18.07h-5.04c-.25 0-.6.05-.8.13l-.34-.44c.3.02.6.05.88.05h4.17l.5-.65.68.67zm-1.24 6.71c.06.07.08.12.08.14 0 .05-.05.06-.14.06h-1.88v.9c0 .8.01 1.08.05 1.44 0 .04.01.07.01.1 0 .14-.07.19-.3.29-.11.05-.19.07-.24.07-.08 0-.11-.06-.11-.22v-.14c.02-.43.04-.91.04-1.56v-.88h-.83c-.25 0-.62.06-.83.13l-.34-.44c.3.02.61.05.89.05h1.45c.4-.68.67-1.26.94-1.94l.73.46s.05.04.05.06-.02.04-.07.05c-.29.08-.61.35-1.39 1.38h1l.4-.53.5.59zm.23-5.36c.06.05.08.07.08.1 0 .04-.02.06-.07.08l-.32.19v.56c0 .12.04.74.04.88 0 .16-.05.2-.25.29-.12.05-.19.07-.24.07-.1 0-.1-.05-.1-.42h-3c0 .23 0 .26-.24.35-.11.05-.18.07-.23.07-.06 0-.07-.04-.07-.12s.01-.64.01-.76v-.77c0-.26-.01-.79-.02-1.14l.64.48h2.79l.33-.38.65.52zm-3.92 3.45c.6.29 1.07.73 1.13.92.02.06.02.12.02.18 0 .25-.14.42-.31.42-.13 0-.2-.05-.28-.32-.07-.29-.3-.76-.66-1.1l.1-.1zm3.06-1.97v-1.36h-3v1.36h3z"/></g><g class="cls-1"><path d="m53.89 3.08c.06.05.08.08.08.11 0 .04-.05.05-.16.05h-2.46v.41c.43.12 1.95.54 1.95 1.24 0 .19-.1.36-.24.36-.13 0-.19-.02-.34-.24-.25-.36-.73-.83-1.38-1.18v1.21c0 .12-.04.17-.23.24-.11.04-.18.06-.23.06-.07 0-.1-.05-.1-.12v-.05c.02-.34.04-.74.04-1.2v-.72c-.97 1.39-1.67 2.12-2.9 3l-.11-.11c1.07-1.01 1.64-1.67 2.39-2.9h-.94c-.25 0-.6.05-.8.13l-.34-.44c.3.02.6.05.88.05h1.82v-1.83c0-.3-.01-.64-.04-1.03l.85.43c.06.02.08.05.08.07s-.02.05-.08.08l-.3.17v2.11h1.38l.44-.56.71.67zm-.78 3.58s.06.06.06.07c0 .04-.04.05-.07.05-.14 0-.35.19-.44.37-.4.78-.56 1.1-.85 1.5.63.28.97.54 1.16.77.08.1.11.23.11.35 0 .2-.1.38-.24.38-.11 0-.19-.06-.38-.3-.2-.26-.49-.53-.95-.82-.67.82-1.56 1.42-3.43 2.06l-.06-.16c1.66-.77 2.55-1.49 3.08-2.13-.47-.24-1.09-.49-1.92-.76.24-.4.47-.8.66-1.2l-.82.04c-.25 0-.41.04-.6.12l-.46-.4c.3.05.56.05.84.04l1.15-.05c.22-.43.38-.85.52-1.24l.64.38s.07.05.07.07c0 .05-.04.06-.36.14l-.34.61 1.66-.07.29-.38.68.54zm-4.3-5.92c1.07.54 1.35.94 1.35 1.33 0 .24-.14.42-.35.42-.1 0-.2-.13-.25-.37-.07-.4-.37-.85-.81-1.27l.06-.11zm.91 7.25c.66.16 1.2.32 1.63.48.36-.52.62-1.09.85-1.71l-1.86.07-.62 1.16zm7.92-4.94c-.28 2.12-.9 4.22-1.39 5.05.7 1.06 1.52 1.67 2.87 2.24l-.05.12c-.13-.01-.24-.01-.34-.01-.32 0-.52.06-.72.28-.02.02-.06.05-.08.05-.07 0-1.29-1.07-2.03-2.22-1.2 1.39-2.23 2.17-4.08 2.85l-.05-.17c1.56-.73 3.01-1.91 3.88-3.13-.49-1.01-.89-2.57-1.02-4.08-.38.83-.77 1.56-1.19 2.21l-.12-.1c.95-2.04 1.75-4.39 2.12-6.08l.82.47c.06.04.08.06.08.08s-.04.04-.13.06c-.23.05-.28.12-.38.42-.23.61-.46 1.16-.66 1.69h2.71l.44-.55.68.66s.07.08.07.11-.04.05-.14.05h-1.29zm-4.09-1.92c.06.04.1.06.1.08s-.04.04-.11.05c-.36.04-.47.07-1.6 1.36l-.14-.1c.41-.6.74-1.16 1.04-1.79l.71.4zm1.51 1.92c-.08.2-.17.4-.25.59.34 2.03.7 3.12 1.15 3.97.42-.82.84-2.53 1.03-4.56h-1.93z"/></g><g class="cls-1"><path d="M70.81,6.68c.12.13.19.22.19.25,0,.06-.08.07-.24.07h-4.88v3.01c0,.89-.04,1-1.01,1.36-.02.01-.04.01-.06.01-.04,0-.07-.02-.08-.08-.08-.35-.24-.48-1.51-.9v-.18c.85.16,1.36.24,1.65.24.43,0,.46-.18.46-.59v-2.87h-4.22c-.25,0-.6.05-.8.13l-.33-.46c.3.02.6.05.88.05h4.49c0-.7-.01-1.02-.02-1.26l.58.28,1.92-1.59h-4.88c-.25,0-.6.05-.8.13l-.34-.44c.3.02.6.05.88.05h5.15l.46-.43.67.74c.06.06.08.1.08.13s-.03.04-.21.04c-.31,0-.86.26-2.71,1.47.07.02.1.06.1.08,0,.05-.02.07-.31.23v.58h3.72l.53-.76.68.71ZM70.77,2c.07.06.11.11.11.13,0,.05-.1.05-.17.05-.32,0-.76.23-1.7,1.13l-.14-.07.73-1.14h-7.65c-.11.89-.46,1.42-1.06,1.42-.22,0-.37-.12-.37-.25s.16-.37.38-.5c.36-.22.7-.53.9-1.51h.19c0,.22-.01.41-.02.59h7.57l.46-.5.78.67ZM64.52,0c1.02.37,1.5.79,1.57,1.01.04.1.05.19.05.26,0,.31-.19.52-.38.52-.1,0-.23-.13-.29-.31-.17-.52-.36-.82-1.02-1.37l.07-.11Z"/></g><g class="cls-1"><path d="m77.1 2.53c.06.04.1.07.1.1 0 .04-.04.06-.1.1l-.41.25v4.64c0 .91.02 1.66.06 2.19v.07c0 .18-.05.23-.31.34-.12.05-.19.07-.23.07-.07 0-.08-.06-.08-.16v-.88h-2.58v1.14c0 .16-.02.19-.24.29-.11.05-.18.07-.24.07-.1 0-.12-.08-.12-.29v-.08c.02-.67.04-1.69.04-2.34v-4.97c0-.61-.01-.82-.04-1.17l.73.6h.56c.32-.77.61-1.68.8-2.39l.76.4c.1.05.14.08.14.12s-.05.06-.13.07c-.17.02-.29.11-.4.28l-.95 1.52h1.47l.4-.55.76.59zm-.97 3.07v-2.85h-2.58v2.85h2.58zm0 3.4v-3.13h-2.58v3.13h2.58zm6.31-6.38c.07.05.1.08.1.12s-.02.06-.1.11l-.38.23c-.08 3.11-.18 5.19-.25 6.22-.08 1.12-.19 1.48-1.12 1.99-.02.01-.05.02-.06.02-.05 0-.07-.05-.11-.14-.13-.41-.41-.59-1.5-.88v-.19c.68.16 1.14.25 1.45.25.59 0 .68-.31.74-1.02.11-1.16.23-3.61.29-6.5h-2.81c-.52 1.14-.95 1.91-1.52 2.73l-.13-.08c.79-1.44 1.6-3.66 2.05-5.33l.71.36c.12.06.18.11.18.16s-.06.08-.19.11c-.13.02-.23.12-.37.44-.22.5-.42.95-.6 1.34h2.52l.35-.56.76.61zm-4.19 2.13c.97.53 1.46 1.01 1.58 1.34.04.11.06.22.06.32 0 .32-.18.58-.35.58-.18 0-.24-.07-.29-.3-.13-.58-.49-1.22-1.09-1.83l.08-.11z"/></g><g class="cls-1"><path d="m90.12 1.63c.08.07.13.12.13.16 0 .05-.06.06-.17.06h-2.64v.94h1.15l.28-.36.62.4s.07.05.07.07-.19.16-.31.23v.48c0 .2.02.53.02.73 0 .14-.06.19-.23.26-.1.05-.17.06-.22.06-.1 0-.1-.06-.1-.26h-1.29v.48c1.2.24 1.98.46 1.98 1.05 0 .18-.08.34-.2.34-.07 0-.19-.07-.36-.28-.26-.32-.86-.78-1.41-.97v1.8c0 .13-.04.16-.25.25-.11.05-.18.07-.23.07-.08 0-.11-.07-.11-.23v-.16c.05-.66.06-1.03.06-1.69v-.48c-.98 1.16-1.68 1.73-2.77 2.47l-.11-.14c1.28-1.01 1.79-1.51 2.48-2.52h-1.01c0 .26 0 .29-.25.4-.1.04-.17.06-.22.06-.06 0-.07-.04-.07-.13 0-.11.02-.62.02-.74v-.79c0-.28-.01-.52-.02-.73l.5.34h1.44v-.94h-1.39c-.25 0-.6.05-.8.13l-.34-.44c.3.02.6.05.88.05h1.66c0-.48-.02-1.13-.05-1.5l.8.46c.06.04.1.07.1.1s-.2.14-.32.22v.73h1.59l.43-.53.65.58zm4.55 8.87c.07.06.11.12.11.16 0 .05-.05.07-.16.07h-9.43c-.25 0-.6.05-.8.13l-.34-.44c.3.02.6.05.88.05h1.67v-1.07c0-.44-.02-.89-.04-1.3l.79.4c.07.04.11.06.11.1 0 .05-.04.06-.34.23v1.64h2.11v-2.81h-2.99c-.25 0-.6.05-.8.13l-.34-.44c.3.02.6.05.88.05h6.37l.5-.64.73.66c.1.08.16.14.16.18 0 .05-.07.06-.21.06h-3.75v1.2h2.21l.41-.54.59.59c.06.06.1.12.1.16s-.05.06-.14.06h-3.15v1.34h3.63l.56-.62.68.66zm-7.76-6.37v-1.08h-1.4v1.08h1.4zm1.83 0v-1.08h-1.29v1.08h1.29zm4.71-1.74c-.26 1.16-.58 1.92-1.08 2.58.68.61 1.67 1.06 2.69 1.26l-.02.12c-.62.01-.71.06-.98.36-.04.04-.06.05-.08.05-.1 0-1.26-.85-1.89-1.45-.64.7-1.38 1.21-2.99 1.82l-.07-.14c1.38-.73 2.25-1.4 2.75-2.01-.35-.46-.72-1.2-.96-2.05-.36.6-.71 1.15-1.03 1.58l-.14-.08c.68-1.19 1.24-2.52 1.82-4.21l.62.48c.08.06.12.11.12.13 0 .04-.05.06-.16.07-.16.02-.19.06-.35.37-.16.3-.3.59-.44.86h2.41l.41-.55.6.6c.07.07.12.13.12.17s-.06.05-.17.05h-1.16zm-2.35 0c-.06.1-.11.19-.17.29.36.91.67 1.48 1.08 1.94.36-.54.56-1.03.88-2.23h-1.79z"/></g><g class="cls-1"><path d="m101.89 3.08c.06.05.08.08.08.11 0 .04-.05.05-.16.05h-2.46v.41c.43.12 1.95.54 1.95 1.24 0 .19-.1.36-.24.36-.13 0-.19-.02-.34-.24-.25-.36-.73-.83-1.38-1.18v1.21c0 .12-.04.17-.23.24-.11.04-.18.06-.23.06-.07 0-.1-.05-.1-.12v-.05c.02-.34.04-.74.04-1.2v-.72c-.97 1.39-1.67 2.12-2.9 3l-.11-.11c1.07-1.01 1.64-1.67 2.39-2.9h-.94c-.25 0-.6.05-.8.13l-.34-.44c.3.02.6.05.88.05h1.82v-1.83c0-.3-.01-.64-.04-1.03l.85.43c.06.02.08.05.08.07s-.02.05-.08.08l-.3.17v2.11h1.38l.44-.56.71.67zm-.78 3.58s.06.06.06.07c0 .04-.04.05-.07.05-.14 0-.35.19-.44.37-.4.78-.56 1.1-.85 1.5.63.28.97.54 1.16.77.08.1.11.23.11.35 0 .2-.1.38-.24.38-.11 0-.19-.06-.38-.3-.2-.26-.49-.53-.95-.82-.67.82-1.56 1.42-3.43 2.06l-.06-.16c1.66-.77 2.55-1.49 3.08-2.13-.47-.24-1.09-.49-1.92-.76.24-.4.47-.8.66-1.2l-.82.04c-.25 0-.41.04-.6.12l-.46-.4c.3.05.56.05.84.04l1.15-.05c.22-.43.38-.85.52-1.24l.64.38s.07.05.07.07c0 .05-.04.06-.36.14l-.33.61 1.66-.07.29-.38.68.54zm-4.31-5.92c1.07.54 1.35.94 1.35 1.33 0 .24-.14.42-.35.42-.1 0-.2-.13-.25-.37-.07-.4-.37-.85-.82-1.27l.06-.11zm.91 7.25c.66.16 1.2.32 1.63.48.36-.52.62-1.09.85-1.71l-1.86.07-.62 1.16zm7.92-4.94c-.28 2.12-.9 4.22-1.39 5.05.7 1.06 1.52 1.67 2.87 2.24l-.05.12c-.13-.01-.24-.01-.34-.01-.32 0-.52.06-.72.28-.02.02-.06.05-.08.05-.07 0-1.29-1.07-2.03-2.22-1.2 1.39-2.23 2.17-4.08 2.85l-.05-.17c1.56-.73 3.01-1.91 3.87-3.13-.49-1.01-.89-2.57-1.02-4.08-.38.83-.77 1.56-1.19 2.21l-.12-.1c.95-2.04 1.75-4.39 2.12-6.08l.82.47c.06.04.08.06.08.08s-.04.04-.13.06c-.23.05-.28.12-.38.42-.23.61-.46 1.16-.66 1.69h2.71l.44-.55.68.66s.07.08.07.11-.04.05-.14.05h-1.3zm-4.09-1.92c.06.04.1.06.1.08s-.04.04-.11.05c-.36.04-.47.07-1.59 1.36l-.14-.1c.41-.6.74-1.16 1.04-1.79l.71.4zm1.51 1.92c-.08.2-.17.4-.25.59.34 2.03.7 3.12 1.15 3.97.42-.82.84-2.53 1.03-4.56h-1.93z"/></g><g class="cls-1"><path d="m114.74 5.03c.08.1.13.16.13.2s-.07.06-.19.06h-5.61c-.24 0-.59.05-.77.12l-.32-.43c.28.02.58.05.84.05h2.94c.34-.77.61-1.52.96-2.6l.82.42c.07.04.11.08.11.11 0 .04-.05.07-.13.08-.17.02-.43.23-.53.4l-.94 1.59h1.55l.54-.7.61.7zm-.3-3.2c.1.08.14.14.14.19s-.07.06-.19.06h-4.93c-.24 0-.59.05-.77.12l-.32-.43c.28.02.58.05.84.05h4.15l.43-.61.65.62zm-5.06.68c.97.65 1.32 1.09 1.35 1.32 0 .04.01.08.01.12 0 .36-.25.6-.43.6-.14 0-.24-.06-.24-.35s-.29-1.03-.8-1.58l.11-.11zm4.12 4.25c.07.06.1.1.1.13 0 .02-.02.06-.07.08l-.34.19v1.7c0 .41.01.75.05 1.29v.1c0 .16-.04.2-.29.31-.12.05-.19.07-.23.07-.07 0-.08-.06-.08-.16v-.83h-2.72v.88c0 .18-.01.22-.23.3-.11.05-.19.07-.24.07-.08 0-.11-.07-.11-.25 0-.25.04-1.5.04-1.59v-1.75c-.01-.29-.02-.86-.05-1.24l.7.58h2.47l.34-.49.67.6zm-.86 2.64v-2.48h-2.72v2.48h2.72zm-2.21-9.34c1.09.43 1.46.76 1.46 1.16 0 .26-.18.53-.41.53-.11 0-.18-.08-.19-.2-.06-.37-.37-.96-.94-1.38l.07-.11zm6.52 4.55c1.52 1.26 1.97 2.15 1.97 3.01 0 1.27-1.34 1.75-1.44 1.75-.05 0-.08-.02-.1-.11-.07-.35-.24-.43-1.34-.73l.02-.16c.58.14 1 .22 1.31.22s.9 0 .9-1.2c0-.71-.48-1.61-1.6-2.7l1.03-3.03h-2v6.87c0 .91.01 1.78.05 2.32v.08c0 .18-.05.22-.3.32-.11.05-.19.07-.24.07-.08 0-.11-.07-.11-.25v-.13c.02-.71.04-1.75.04-2.43v-5.94c0-.49-.02-1.31-.05-1.75l.76.58h1.73l.39-.58.76.7s.07.08.07.11-.04.05-.11.07c-.21.05-.55.4-.65.6l-1.09 2.31z"/></g><g class="cls-1"><path d="m125 .78c.07.04.11.06.11.1 0 .02-.05.05-.14.07-.26.06-.42.16-.54.34-1.34 2.11-2.67 3.74-4.49 4.98l-.1-.16c1.79-1.5 3.41-3.83 4.15-5.82l1.01.49zm3.44 4.44c.06.05.1.08.1.11 0 .04-.04.06-.1.11l-.41.28c0 1.37-.07 2.28-.23 3.48-.12 1-.41 1.43-1.24 1.88-.04.01-.06.02-.08.02-.04 0-.06-.02-.07-.1-.12-.5-.29-.72-1.67-1.1l.07-.17c.66.14 1.15.23 1.51.23.62 0 .85-.25.94-.91.12-.93.17-1.94.17-3.54h-2.81c-.29 3.39-1.19 4.62-4.38 5.83l-.06-.18c3.18-1.48 3.66-3.08 3.8-5.65h-1.33c-.25 0-.6.05-.8.13l-.33-.44c.3.02.6.05.88.05h4.77l.48-.7.79.67zm-1.27-4.38c.3 1.93 1.85 3.85 3.95 4.41l-.02.12c-.65-.02-1.03.11-1.21.34-.02.02-.05.05-.07.05-.01 0-.04-.02-.07-.05-1.88-1.57-2.58-2.96-3.19-5.62l.89.29c.08.02.13.05.13.08 0 .02-.04.06-.1.12l-.3.26z"/></g><g class="cls-1"><path d="m140.08 7.7c.06.05.08.08.08.11s-.04.04-.12.04h-7.08c-.25 0-.6.05-.8.13l-.34-.44c.3.02.6.05.88.05h6.08l.52-.6.78.72zm2.8-5.31c.08.07.12.12.12.16s-.05.05-.16.05h-7.47l-.13 2.42h5.47l.43-.55.82.72s.08.08.08.11-.04.05-.1.08l-.48.22c-.03 1.5-.12 3.04-.18 3.54-.16 1.34-.55 1.82-1.55 2.16-.05.01-.08.02-.11.02-.07 0-.1-.04-.11-.11-.07-.52-.22-.71-1.79-1.2l.04-.17c.97.24 1.61.36 2.02.36.71 0 .8-.33.91-1.07.11-.78.21-2.6.19-3.85h-5.51l-.3.36s-.06.06-.08.06c-.04 0-.07-.02-.12-.06l-.74-.54.55-.37.16-3.49c.02-.55.02-.8.01-1.21l.92.48c.06.04.1.05.1.08 0 .02-.02.05-.07.08l-.35.29-.07 1.37h6.2l.48-.68.81.74z"/></g><g class="cls-1"><path d="m147.66 3.43c.1.07.14.12.14.17 0 .04-.05.08-.14.12-.18.07-.26.14-.37.37-1.31 2.9-2.21 4.33-3.21 5.34l-.11-.1c1.04-1.55 1.92-3.12 2.97-6.38l.72.48zm2.63-2.77c.1.05.14.1.14.14 0 .06-.04.08-.35.28v8.71c0 .92-.1 1.14-.79 1.44-.06.02-.1.04-.13.04-.06 0-.08-.04-.1-.13-.08-.41-.47-.61-1.6-.94l.05-.18c.8.16 1.28.24 1.57.24.37 0 .41-.14.41-.43v-7.56c0-.6-.02-1.49-.05-2.06l.84.46zm1.27 2.72c1.36 1.14 3.26 3.18 3.26 4.25 0 .43-.24.67-.41.67s-.23-.11-.31-.47c-.22-.95-1.43-3.06-2.67-4.34l.13-.11z"/></g><g class="cls-1"><path d="m161.88 3.08c.06.05.08.08.08.11 0 .04-.05.05-.16.05h-2.46v.41c.43.12 1.96.54 1.96 1.24 0 .19-.1.36-.24.36-.13 0-.19-.02-.34-.24-.25-.36-.73-.83-1.38-1.18v1.21c0 .12-.04.17-.23.24-.11.04-.18.06-.23.06-.07 0-.1-.05-.1-.12v-.05c.02-.34.04-.74.04-1.2v-.72c-.97 1.39-1.67 2.12-2.9 3l-.11-.11c1.07-1.01 1.64-1.67 2.39-2.9h-.94c-.25 0-.6.05-.8.13l-.34-.44c.3.02.6.05.88.05h1.82v-1.83c0-.3-.01-.64-.04-1.03l.85.43c.06.02.08.05.08.07s-.02.05-.08.08l-.3.17v2.11h1.38l.44-.56.71.67zm-.78 3.58s.06.06.06.07c0 .04-.04.05-.07.05-.14 0-.35.19-.44.37-.39.78-.56 1.1-.85 1.5.64.28.97.54 1.16.77.08.1.11.23.11.35 0 .2-.1.38-.24.38-.11 0-.19-.06-.38-.3-.2-.26-.49-.53-.95-.82-.67.82-1.56 1.42-3.43 2.06l-.06-.16c1.65-.77 2.55-1.49 3.08-2.13-.47-.24-1.09-.49-1.92-.76.24-.4.47-.8.66-1.2l-.81.04c-.25 0-.41.04-.6.12l-.46-.4c.3.05.56.05.84.04l1.15-.05c.21-.43.38-.85.52-1.24l.63.38s.07.05.07.07c0 .05-.04.06-.36.14l-.34.61 1.65-.07.29-.38.68.54zm-4.31-5.92c1.07.54 1.36.94 1.36 1.33 0 .24-.14.42-.35.42-.1 0-.2-.13-.25-.37-.07-.4-.37-.85-.82-1.27l.06-.11zm.91 7.25c.66.16 1.2.32 1.63.48.36-.52.62-1.09.85-1.71l-1.86.07-.62 1.16zm7.92-4.94c-.28 2.12-.9 4.22-1.39 5.05.7 1.06 1.52 1.67 2.87 2.24l-.05.12c-.13-.01-.24-.01-.34-.01-.32 0-.52.06-.72.28-.02.02-.06.05-.08.05-.07 0-1.29-1.07-2.03-2.22-1.2 1.39-2.23 2.17-4.08 2.85l-.05-.17c1.56-.73 3.01-1.91 3.87-3.13-.49-1.01-.89-2.57-1.02-4.08-.38.83-.77 1.56-1.19 2.21l-.12-.1c.95-2.04 1.75-4.39 2.12-6.08l.82.47c.06.04.08.06.08.08s-.04.04-.13.06c-.23.05-.28.12-.38.42-.23.61-.46 1.16-.66 1.69h2.71l.44-.55.68.66s.07.08.07.11-.04.05-.14.05h-1.29zm-4.09-1.92c.06.04.1.06.1.08s-.04.04-.11.05c-.36.04-.47.07-1.6 1.36l-.14-.1c.41-.6.74-1.16 1.04-1.79l.71.4zm1.51 1.92c-.08.2-.17.4-.25.59.34 2.03.7 3.12 1.15 3.97.42-.82.84-2.53 1.03-4.56h-1.93z"/></g><g class="cls-1"><path d="m174.73 5.03c.08.1.13.16.13.2s-.07.06-.19.06h-5.61c-.24 0-.59.05-.77.12l-.32-.43c.28.02.58.05.84.05h2.94c.34-.77.61-1.52.96-2.6l.82.42c.07.04.11.08.11.11 0 .04-.05.07-.13.08-.17.02-.43.23-.53.4l-.94 1.59h1.55l.54-.7.61.7zm-.3-3.2c.1.08.14.14.14.19s-.07.06-.19.06h-4.93c-.24 0-.59.05-.77.12l-.32-.43c.28.02.58.05.84.05h4.15l.43-.61.65.62zm-5.06.68c.97.65 1.32 1.09 1.36 1.32 0 .04.01.08.01.12 0 .36-.25.6-.43.6-.14 0-.24-.06-.24-.35s-.29-1.03-.8-1.58l.11-.11zm4.12 4.25c.07.06.1.1.1.13 0 .02-.02.06-.07.08l-.34.19v1.7c0 .41.01.75.05 1.29v.1c0 .16-.04.2-.29.31-.12.05-.19.07-.23.07-.07 0-.08-.06-.08-.16v-.83h-2.72v.88c0 .18-.01.22-.23.3-.11.05-.19.07-.24.07-.08 0-.11-.07-.11-.25 0-.25.04-1.5.04-1.59v-1.75c-.01-.29-.02-.86-.05-1.24l.7.58h2.47l.34-.49.67.6zm-.86 2.64v-2.48h-2.72v2.48h2.72zm-2.21-9.34c1.09.43 1.46.76 1.46 1.16 0 .26-.18.53-.41.53-.11 0-.18-.08-.19-.2-.06-.37-.37-.96-.94-1.38l.07-.11zm6.53 4.55c1.52 1.26 1.97 2.15 1.97 3.01 0 1.27-1.34 1.75-1.44 1.75-.05 0-.08-.02-.1-.11-.07-.35-.24-.43-1.34-.73l.02-.16c.58.14 1 .22 1.31.22s.9 0 .9-1.2c0-.71-.48-1.61-1.59-2.7l1.03-3.03h-2v6.87c0 .91.01 1.78.05 2.32v.08c0 .18-.05.22-.3.32-.11.05-.19.07-.24.07-.08 0-.11-.07-.11-.25v-.13c.02-.71.04-1.75.04-2.43v-5.94c0-.49-.02-1.31-.05-1.75l.76.58h1.73l.4-.58.76.7s.07.08.07.11-.04.05-.11.07c-.2.05-.55.4-.65.6l-1.09 2.31z"/></g><g class="cls-1"><path d="m184.99.78c.07.04.11.06.11.1 0 .02-.05.05-.14.07-.26.06-.42.16-.54.34-1.34 2.11-2.68 3.74-4.49 4.98l-.1-.16c1.79-1.5 3.41-3.83 4.15-5.82l1.01.49zm3.44 4.44c.06.05.1.08.1.11 0 .04-.04.06-.1.11l-.41.28c0 1.37-.07 2.28-.23 3.48-.12 1-.41 1.43-1.23 1.88-.04.01-.06.02-.08.02-.04 0-.06-.02-.07-.1-.12-.5-.29-.72-1.67-1.1l.07-.17c.66.14 1.15.23 1.51.23.62 0 .85-.25.94-.91.12-.93.17-1.94.17-3.54h-2.81c-.29 3.39-1.19 4.62-4.38 5.83l-.06-.18c3.18-1.48 3.66-3.08 3.8-5.65h-1.33c-.25 0-.6.05-.8.13l-.33-.44c.3.02.6.05.88.05h4.77l.48-.7.79.67zm-1.27-4.38c.3 1.93 1.85 3.85 3.95 4.41l-.02.12c-.65-.02-1.03.11-1.21.34-.02.02-.05.05-.07.05-.01 0-.04-.02-.07-.05-1.88-1.57-2.58-2.96-3.19-5.62l.89.29c.08.02.13.05.13.08 0 .02-.04.06-.1.12l-.3.26z"/></g></g></g></svg>
