<svg viewBox="0 0 68.77 29.74" xmlns="http://www.w3.org/2000/svg"><g id="a"><g><g><g><path id="b" d="M0,7.22c0-.5.09-.95.27-1.36s.41-.74.68-.99.57-.44.88-.57.62-.19.9-.2c.48,0,.89.08,1.24.24s.61.39.79.68.31.58.38.87.11.61.12.96c0,.06-.03.13-.1.19H1.33v.2c0,1.34.45,2.15,1.36,2.44.18.05.38.08.6.08.38,0,.71-.14.98-.43.15-.15.28-.34.37-.57l.14-.33s.1-.04.22-.04h.04c.15,0,.23.05.23.14,0,.04-.01.1-.04.18-.17.5-.46.89-.86,1.18-.4.29-.85.43-1.34.43-.86,0-1.57-.31-2.14-.94S0,8.05,0,7.22ZM4.14,6.45c-.1-1.16-.53-1.77-1.29-1.85h-.03c-.07,0-.14,0-.22.01s-.19.05-.34.11-.29.16-.39.29-.21.31-.31.56-.17.54-.22.9v.1h2.8v-.11Z"/><path id="c" d="m8.38 10.18c-.11-.03-.56-.04-1.34-.04-.69 0-1.07.01-1.15.04h-.08v-.62h.19c.21 0 .4-.04.57-.08.17-.05.3-.09.39-.12s.2-.11.34-.23.22-.2.24-.24.12-.16.29-.35.25-.32.27-.38l.62-.81-.79-1.06c-.08-.12-.17-.24-.26-.37s-.16-.22-.22-.29-.1-.13-.15-.2-.09-.13-.12-.16-.06-.07-.08-.1-.05-.05-.1-.08-.07-.04-.08-.04-.04 0-.08-.03-.08-.03-.11-.03c-.05 0-.22 0-.49-.03h-.38v-.62h.1c.33.02.79.03 1.4.03.84 0 1.31 0 1.4-.03h.11v.62c-.33.04-.49.11-.49.22 0 .02.05.09.14.22s.22.3.38.52.29.4.39.56l.05.05.34-.46c.29-.37.43-.62.43-.73 0-.05 0-.1-.03-.15s-.04-.08-.07-.1-.05-.04-.07-.05-.05-.04-.1-.05h-.04s-.07-.01-.07-.01v-.62h.1c.14.03.58.04 1.34.04.71 0 1.1-.01 1.15-.04h.08v.62h-.1c-.44 0-.81.08-1.1.23-.15.07-.31.19-.46.37s-.45.55-.88 1.14l-.22.29.84 1.15c.6.81.92 1.24.96 1.28s.12.07.23.1c.16.04.4.05.72.05h.23v.62h-.19c-.07 0-.16-.01-.27-.01s-.22 0-.34-.01h-.34c-.11 0-.19 0-.24-.01h-.5c-.24 0-.46 0-.68.03h-.31s-.12.01-.12.01v-.62h.04c.1 0 .2-.02.3-.07s.15-.1.15-.16c0-.02-.18-.28-.54-.77l-.56-.75s-.15.2-.42.57-.43.57-.46.61c-.04.05-.05.11-.05.19 0 .1.03.19.1.26s.14.11.24.12c.02 0 .03.1.03.31v.31h-.1z"/><path id="d" d="m13.3 12.19h.19c.35 0 .57-.06.64-.19v-.77c0-.16 0-.34.01-.53s0-.39 0-.6v-.67-.69-2.58c0-.22 0-.39-.01-.53s0-.21 0-.22c-.03-.17-.09-.29-.19-.34s-.3-.1-.61-.12h-.24v-.31c0-.21 0-.31.03-.31h.14c.09-.02.22-.03.39-.04.17 0 .34-.02.5-.03.15 0 .32-.02.5-.03.18 0 .32-.02.41-.04s.14-.02.15-.01h.04v.71s.12-.1.12-.1c.53-.4 1.16-.6 1.87-.6s1.36.29 1.87.87.78 1.31.79 2.19c0 .91-.29 1.66-.88 2.23s-1.25.86-2 .86c-.62 0-1.16-.2-1.63-.6l-.11-.1v1.91c0 .24 0 .39.03.45s.07.1.15.15c.19.03.41.04.67.04h.22v.62h-.43c-.21-.02-.43-.03-.68-.03s-.42 0-.52-.01c-.93 0-1.44.01-1.52.04h-.11v-.62h.22zm5.27-4.97c0-.67-.15-1.25-.46-1.75s-.69-.75-1.15-.75c-.64 0-1.2.29-1.67.88v3.24c.36.65.87.98 1.52.98.46 0 .87-.24 1.22-.73s.53-1.11.54-1.87z"/></g><g><path id="e" d="m21.64 6.79c0-.62.05-1.22.14-1.78s.19-1.05.31-1.45c.12-.41.29-.81.5-1.19s.39-.69.52-.91.32-.45.57-.71c.25-.25.4-.41.45-.46s.16-.15.34-.29h.23c.13 0 .19.04.19.12 0 .03-.08.12-.23.29s-.34.4-.56.72-.44.71-.67 1.17-.42 1.09-.57 1.87-.23 1.66-.23 2.62.08 1.83.23 2.61.34 1.41.56 1.89.44.87.67 1.17.42.54.57.72.23.28.23.29c0 .08-.07.12-.2.12h-.22l-.38-.33c-.85-.77-1.47-1.73-1.86-2.88s-.58-2.34-.58-3.58z"/><path id="f" d="m26.35 6.26c.06-.38.31-.82.73-1.32.43-.5.95-.75 1.57-.76.32 0 .61.08.87.24s.46.37.58.61c.38-.57.84-.86 1.37-.86.33 0 .62.1.87.3s.37.47.38.8c0 .26-.06.48-.19.64s-.25.26-.37.3-.22.05-.31.05c-.17 0-.31-.05-.42-.15s-.16-.23-.16-.39c0-.42.23-.7.68-.86-.1-.12-.28-.18-.54-.18-.12 0-.2 0-.26.03-.34.14-.6.44-.76.9-.54 2-.81 3.17-.81 3.5 0 .25.07.43.22.54s.3.16.48.16c.33 0 .67-.15.99-.45s.55-.67.67-1.1c.03-.09.05-.14.08-.15s.1-.02.22-.03h.05c.14 0 .2.04.2.11 0 0 0 .06-.03.15-.14.52-.43.97-.84 1.37-.42.4-.9.6-1.45.6-.63 0-1.11-.29-1.44-.86-.37.56-.8.84-1.28.84h-.08c-.44 0-.76-.12-.95-.35-.19-.24-.29-.48-.3-.75 0-.29.09-.52.26-.71.17-.18.38-.27.61-.27.39 0 .58.19.58.57 0 .18-.05.34-.16.48s-.21.23-.31.27-.16.07-.18.07h-.04s.03.04.08.07.13.06.22.1.18.05.26.04c.33 0 .61-.2.84-.61.08-.14.19-.45.31-.92.13-.47.25-.96.38-1.47s.2-.81.22-.9c.05-.24.07-.42.07-.53 0-.25-.07-.43-.2-.54s-.29-.16-.46-.16c-.36 0-.7.14-1.02.43s-.54.66-.67 1.11c-.02.08-.04.13-.07.14s-.1.02-.22.03h-.19c-.05-.05-.08-.1-.08-.15z"/><path id="g" d="m34.22.01h.05s.09-.01.14-.01h.16l.38.33c.85.77 1.47 1.73 1.86 2.88s.58 2.34.58 3.58c0 .62-.05 1.21-.14 1.78s-.19 1.05-.31 1.45-.29.8-.5 1.19c-.22.4-.39.7-.52.91s-.31.44-.56.69-.39.4-.43.45-.15.13-.31.26l-.05.05h-.31s-.05-.01-.07-.04-.03-.07-.04-.12c0 0 .06-.07.15-.18 1.4-1.46 2.1-3.61 2.1-6.45s-.7-4.99-2.1-6.45c-.09-.11-.14-.17-.15-.18 0-.07.02-.12.07-.15z"/></g><path id="h" d="m43.22 5.47c0-.12.06-.21.19-.27h8.65c.14.07.2.16.2.27 0 .1-.06.19-.19.26h-4.32s-4.32.01-4.32.01c-.14-.05-.22-.14-.22-.27zm0 2.63c0-.14.07-.23.22-.27h8.63c.13.09.19.18.19.27 0 .12-.07.21-.2.27h-8.65c-.13-.06-.19-.15-.19-.27z"/><g><path id="i" d="m57.32 7.9c0-.52.09-.99.26-1.41.17-.43.39-.78.67-1.06s.57-.52.91-.71.65-.33.95-.42.58-.13.86-.12h.04c.41 0 .76.1 1.06.3s.45.49.45.88c0 .81-.5 1.35-1.51 1.6-.44.12-1.05.18-1.82.19-.33 0-.51 0-.52.03 0 .02-.03.18-.08.48s-.09.56-.1.79c0 .43.1.76.29 1s.48.37.86.38.8-.08 1.26-.26.88-.48 1.25-.9c.08-.09.14-.14.16-.14.04 0 .1.04.18.12s.13.14.14.19-.03.12-.12.22-.23.22-.41.37c-.18.14-.39.29-.62.42s-.52.25-.86.34-.68.14-1.03.14c-.71 0-1.27-.24-1.66-.72s-.59-1.05-.6-1.71zm4.54-2.51c-.05-.47-.36-.71-.92-.71-.3 0-.57.06-.83.19-.25.13-.46.28-.61.46s-.29.37-.39.56-.18.35-.22.49-.06.22-.07.26c0 0 .09.01.27.01 1.02 0 1.74-.11 2.14-.33s.62-.53.62-.94z"/><path id="j" d="m63.62 2.48c.04-.27.22-.58.52-.93s.67-.53 1.11-.54c.22 0 .43.06.61.17s.32.26.41.43c.27-.4.59-.6.97-.6.24 0 .44.07.61.21s.26.33.27.57c0 .19-.04.34-.13.45-.09.12-.18.19-.26.21s-.16.04-.22.04c-.12 0-.22-.04-.3-.11s-.12-.16-.12-.28c0-.29.16-.5.48-.6-.07-.08-.2-.12-.38-.12-.08 0-.14 0-.18.02-.24.1-.42.31-.54.63-.38 1.41-.58 2.24-.58 2.48 0 .18.05.31.15.38s.21.12.34.12c.24 0 .47-.11.7-.32s.39-.47.47-.78c.02-.06.04-.1.06-.11s.07-.01.15-.02h.04c.1 0 .14.03.14.08 0 0 0 .04-.02.11-.1.36-.3.69-.6.97-.29.28-.64.42-1.03.42-.45 0-.79-.2-1.02-.6-.26.4-.56.6-.9.6h-.06c-.31 0-.54-.08-.67-.25s-.2-.34-.21-.53c0-.2.06-.37.18-.5s.27-.19.43-.19c.28 0 .41.13.41.4 0 .13-.04.24-.12.34s-.15.16-.22.19-.11.05-.12.05h-.03s.02.03.06.05.09.04.15.07.12.04.18.03c.23 0 .43-.14.6-.43.06-.1.13-.32.22-.65s.18-.68.27-1.04.14-.57.15-.63c.03-.17.05-.3.05-.37 0-.18-.05-.31-.14-.38s-.2-.12-.33-.12c-.26 0-.5.1-.72.31-.22.2-.38.47-.47.79-.01.06-.03.09-.05.1s-.07.01-.15.02h-.13s-.06-.07-.06-.11z"/></g></g><g><path id="k" d="m35.83 25.26c.06-.38.31-.82.73-1.32.43-.5.95-.75 1.57-.76.32 0 .61.08.87.24s.46.37.58.61c.38-.57.84-.86 1.37-.86.33 0 .62.1.87.3s.37.47.38.8c0 .26-.06.48-.19.64s-.25.26-.37.3-.22.05-.31.05c-.17 0-.31-.05-.42-.15s-.16-.23-.16-.39c0-.42.23-.7.68-.86-.1-.12-.28-.18-.54-.18-.12 0-.2 0-.26.03-.34.14-.6.44-.76.9-.54 2-.81 3.17-.81 3.5 0 .25.07.43.22.54s.3.16.48.16c.33 0 .67-.15.99-.45s.55-.67.67-1.1c.03-.09.05-.14.08-.15s.1-.02.22-.03h.05c.14 0 .2.04.2.11 0 0 0 .06-.03.15-.14.52-.43.97-.84 1.37-.42.4-.9.6-1.45.6-.63 0-1.11-.29-1.44-.86-.37.56-.8.84-1.28.84h-.08c-.44 0-.76-.12-.95-.35-.19-.24-.29-.48-.3-.75 0-.29.09-.52.26-.71.17-.18.38-.27.61-.27.39 0 .58.19.58.57 0 .18-.05.34-.16.48s-.21.23-.31.27-.16.07-.18.07h-.04s.03.04.08.07.13.06.22.1.18.05.26.04c.33 0 .61-.2.84-.61.08-.14.19-.45.31-.92.13-.47.25-.96.38-1.47s.2-.81.22-.9c.05-.24.07-.42.07-.53 0-.25-.07-.43-.2-.54s-.29-.16-.46-.16c-.36 0-.7.14-1.02.43s-.54.66-.67 1.11c-.02.08-.04.13-.07.14s-.1.02-.22.03h-.19c-.05-.05-.08-.1-.08-.15z"/><path id="l" d="m47.8 25.79c0-1.1.37-2.01 1.11-2.71.74-.71 1.62-1.11 2.63-1.21h.23c.14 0 .33 0 .57-.01s.46 0 .68 0h1.34c.14.07.2.16.2.27 0 .08-.06.17-.18.26h-1.41c-1 .02-1.62.05-1.86.1-.44.11-.84.27-1.18.49s-.61.44-.8.67-.35.48-.49.75-.22.49-.24.65-.05.32-.07.46v.03h6.03c.14.07.2.16.2.27s-.07.2-.2.27h-6.03v.03c0 .19.05.42.14.69s.24.57.45.88c.21.32.5.61.87.87s.81.45 1.32.56c.24.05.87.09 1.87.1h1.41c.12.09.18.18.18.27 0 .11-.07.2-.2.27h-1.66c-.16 0-.29 0-.39.01-1.4 0-2.51-.39-3.33-1.17-.8-.74-1.19-1.67-1.19-2.78z"/><path id="m" d="m68.77 27.41c0 .05-.05.15-.16.3s-.29.32-.53.52-.52.39-.81.57c-.3.18-.68.33-1.14.46s-.93.19-1.4.19c-.51 0-1-.07-1.49-.22-.49-.14-.95-.37-1.38-.67s-.81-.7-1.13-1.19c-.32-.5-.53-1.07-.64-1.72-.05-.2-.07-.56-.07-1.09s.02-.89.07-1.09c.2-1.06.65-1.92 1.34-2.58.7-.66 1.59-1.06 2.69-1.19.03 0 .13 0 .31-.01s.32-.01.42-.01c.49.03.98.14 1.47.33s.86.29 1.11.3c.16 0 .28-.03.35-.1s.11-.14.12-.22.03-.15.07-.22.1-.1.19-.11c.1 0 .18.05.24.16v2.84l-.05.1c-.12.06-.23.07-.34.03-.04-.04-.08-.14-.14-.33s-.16-.38-.31-.61c-.3-.42-.7-.8-1.19-1.14-.5-.34-1.03-.52-1.59-.52h-.12c-.4 0-.77.17-1.11.52-.79.71-1.18 2.01-1.18 3.92 0 .79.1 1.5.29 2.13.37 1.35 1.15 2.02 2.33 2.02s2.23-.45 3.2-1.36c.15-.15.27-.23.34-.23.05 0 .1.02.15.05s.09.09.1.16zm-5.89-6.71c.13-.16.18-.24.15-.24-.21.07-.42.18-.64.31s-.46.32-.72.56-.49.55-.69.94-.34.82-.42 1.3c-.05.27-.07.6-.07.99s.02.72.07.99c.09.5.24.95.46 1.34s.45.71.69.92.48.4.72.54.43.24.58.3l.23.07c-.06-.06-.12-.13-.18-.19-.59-.57-.96-1.5-1.13-2.8-.03-.24-.04-.65-.04-1.22s.01-.98.04-1.22c.17-1.13.48-2 .94-2.59zm5.04.82v-.81s-.07.03-.11.03c-.09.04-.19.05-.31.05h-.2l.18.19c.18.2.28.32.3.35l.15.19z"/></g></g></g></svg>
