<svg viewBox="0 0 111.61 29.83" xmlns="http://www.w3.org/2000/svg"><defs><style>.cls-1 {
        isolation: isolate;
      }</style></defs><g id="a"><g><g><g><path id="b" d="m.58 2c0-.25.08-.45.24-.6s.36-.22.6-.22c.21.02.39.1.54.23s.23.33.23.58c0 .27-.08.48-.23.61s-.34.2-.57.2-.42-.07-.57-.2-.24-.34-.24-.61zm2.42 8.27c-.14-.03-.61-.04-1.41-.04h-.5c-.24 0-.46 0-.68.03h-.3s-.11.01-.11.01v-.62h.22c.25 0 .48-.01.67-.04.08-.04.13-.09.15-.15s.03-.25.03-.57v-2.59c0-.47 0-.77-.03-.9s-.08-.21-.19-.26c-.13-.06-.34-.1-.64-.1h-.16v-.31c0-.21 0-.31.03-.31h.14c.09-.02.22-.03.38-.04s.33-.02.49-.03c.15 0 .32-.02.49-.03s.3-.02.39-.04.14-.02.15-.01h.04v5.16c.05.09.1.14.16.16s.22.04.48.05h.31v.62h-.11z"/><path id="c" d="m3.98 9.64h.19c.35 0 .57-.06.64-.19v-.84c0-.15 0-.33.01-.53s0-.39 0-.57v-.9c0-.32 0-.58-.01-.8v-.31c-.03-.17-.09-.29-.19-.34s-.3-.1-.61-.12h-.24v-.31c0-.21 0-.31.03-.31h.14c.09-.02.22-.03.38-.04s.33-.02.5-.03c.15 0 .32-.02.49-.03.17 0 .3-.02.39-.04s.14-.02.15-.01h.04v.54c0 .34 0 .52.01.52s.03-.02.07-.07.09-.11.16-.2.16-.17.26-.24.23-.16.39-.26.33-.17.52-.22.41-.07.69-.07c.14 0 .26 0 .38.03s.22.05.31.08.18.07.26.11.15.08.2.12.1.1.15.15.09.1.12.15.07.1.1.15.05.1.05.14.02.07.04.11l.03.07.04-.05s.05-.07.08-.11.07-.09.12-.15.11-.12.18-.18.13-.11.2-.18.16-.12.27-.16.21-.09.31-.14.22-.08.35-.1.28-.03.42-.04c1.14 0 1.76.51 1.86 1.53 0 .06.01.69.01 1.89v1.17c0 .34 0 .55.03.61s.07.11.15.14c.19.03.41.04.67.04h.22v.62h-.42c-.22-.02-.45-.03-.69-.03s-.42 0-.52-.01c-.93 0-1.44.01-1.52.04h-.11v-.62h.22c.55 0 .83-.07.83-.22 0-.02.01-.64.01-1.87 0-1.22-.02-1.87-.03-1.94-.05-.25-.14-.44-.27-.57s-.24-.2-.33-.23-.21-.04-.35-.03c-.41 0-.76.15-1.07.46-.24.24-.4.49-.46.75s-.1.63-.11 1.13v1.68c0 .27 0 .45.01.54 0 .09.02.15.04.18s.06.05.12.08c.19.03.41.04.67.04h.22v.62h-.43c-.21-.02-.43-.03-.68-.03s-.42 0-.52-.01c-.93 0-1.44.01-1.52.04h-.11v-.62h.22c.55 0 .83-.07.83-.22 0-.02.01-.64.01-1.87 0-1.22-.02-1.87-.03-1.94-.05-.25-.14-.44-.27-.57s-.24-.2-.33-.23-.21-.04-.35-.03c-.41 0-.76.15-1.07.46-.24.24-.4.49-.46.75s-.1.63-.11 1.13v1.68c0 .27 0 .45.01.54 0 .09.02.15.04.18s.06.05.12.08c.19.03.41.04.67.04h.22v.62h-.42c-.22-.02-.45-.03-.69-.03s-.42 0-.52-.01c-.93 0-1.44.01-1.52.04h-.11v-.62h.22z"/></g><path id="d" d="m16 6.87c0-.62.05-1.22.14-1.78s.19-1.05.31-1.45c.12-.41.29-.81.5-1.19s.39-.69.52-.91.32-.45.57-.71c.25-.25.4-.41.45-.46s.16-.15.34-.29h.23c.13 0 .19.04.19.12 0 .03-.08.12-.23.29s-.34.4-.56.72-.44.71-.67 1.17-.42 1.09-.57 1.87-.23 1.66-.23 2.62.08 1.83.23 2.61.34 1.41.56 1.89.44.87.67 1.17.42.54.57.72.23.28.23.29c0 .08-.07.12-.2.12h-.22l-.38-.33c-.85-.77-1.47-1.73-1.86-2.88s-.58-2.34-.58-3.58z"/><path id="e" d="m20.71 6.34c.06-.38.31-.82.73-1.32.43-.5.95-.75 1.57-.76.32 0 .61.08.87.24s.46.37.58.61c.38-.57.84-.86 1.37-.86.33 0 .62.1.87.3s.37.47.38.8c0 .26-.06.48-.19.64s-.25.26-.37.3-.22.05-.31.05c-.17 0-.31-.05-.42-.15s-.16-.23-.16-.39c0-.42.23-.7.68-.86-.1-.12-.28-.18-.54-.18-.12 0-.2 0-.26.03-.34.14-.6.44-.76.9-.54 2-.81 3.17-.81 3.5 0 .25.07.43.22.54s.3.16.48.16c.33 0 .67-.15.99-.45s.55-.67.67-1.1c.03-.09.05-.14.08-.15s.1-.02.22-.03h.05c.14 0 .2.04.2.11 0 0 0 .06-.03.15-.14.52-.43.97-.84 1.37-.42.4-.9.6-1.45.6-.63 0-1.11-.29-1.44-.86-.37.56-.8.84-1.28.84h-.08c-.44 0-.76-.12-.95-.35-.19-.24-.29-.48-.3-.75 0-.29.09-.52.26-.71.17-.18.38-.27.61-.27.39 0 .58.19.58.57 0 .18-.05.34-.16.48s-.21.23-.31.27-.16.07-.18.07h-.04s.03.04.08.07.13.06.22.1.18.05.26.04c.33 0 .61-.2.84-.61.08-.14.19-.45.31-.92.13-.47.25-.96.38-1.47s.2-.81.22-.9c.05-.24.07-.42.07-.53 0-.25-.07-.43-.2-.54s-.29-.16-.46-.16c-.36 0-.7.14-1.02.43s-.54.66-.67 1.11c-.02.08-.04.13-.07.14s-.1.02-.22.03h-.19c-.05-.05-.08-.1-.08-.15z"/><path id="f" d="m28.59.1h.05s.09-.01.14-.01h.16l.38.33c.85.77 1.47 1.73 1.86 2.88s.58 2.34.58 3.58c0 .62-.05 1.21-.14 1.78s-.19 1.05-.31 1.45-.29.8-.5 1.19c-.22.4-.39.7-.52.91s-.31.44-.56.69-.39.4-.43.45-.15.13-.31.26l-.05.05h-.31s-.05-.01-.07-.04-.03-.07-.04-.12c0 0 .06-.07.15-.18 1.4-1.46 2.1-3.61 2.1-6.45s-.7-4.99-2.1-6.45c-.09-.11-.14-.17-.15-.18 0-.07.02-.12.07-.15z"/><g><g class="cls-1"><path d="m48.47 10.16c-.44.05-.83.29-.97.56-.06.12-.11.14-.25.14h-1.56c-1.33 0-2.42-.01-3.15-.02-1.28-.04-2.43-.5-3.05-1.8-.1-.2-.17-.31-.25-.31-.29 0-.97 1.34-1.17 1.81-.06.14-.1.2-.16.2-.04 0-.07-.02-.12-.06l-.54-.38 1.81-1.81v-3.56h-.89c-.25 0-.6.05-.8.13l-.31-.42c.3.02.6.05.88.05h.94l.4-.58.79.56c.07.05.11.08.11.12s-.04.06-.11.1l-.42.24v2.99c0 1 .73 2.1 2.64 2.18.37.01.74.02 1.13.02 1.56 0 3.21-.13 5.07-.34v.17zm-10.11-9.49c.74.36 1.69 1 1.77 1.5.01.05.01.1.01.14 0 .36-.23.67-.47.67-.16 0-.19-.08-.3-.54-.11-.43-.48-1.03-1.09-1.68l.07-.1zm8.79 3.12c.07.05.11.1.11.13 0 .04-.06.07-.17.1-.17.04-.34.18-.43.5-.26.86-.58 1.57-.96 2.16 1.1.74 1.86 1.35 1.86 1.97 0 .25-.12.43-.29.43-.14 0-.24-.04-.58-.62-.13-.24-.6-.75-1.29-1.35-.82 1.05-1.96 1.71-3.62 2.31l-.06-.16c1.63-.73 2.64-1.5 3.32-2.46-.59-.48-1.28-.98-2.07-1.42l.06-.14c.85.36 1.62.77 2.25 1.17.4-.68.65-1.46.85-2.39h-3.41c-.11 3-.62 3.98-2.28 5.41l-.12-.14c1.24-1.35 1.5-2.1 1.71-3.54.1-.66.14-3.21.12-4.61l.74.72c1.37-.35 2.82-.86 3.68-1.32l.71.56c.06.05.08.08.08.11s-.02.04-.08.04c-.02 0-.14-.01-.18-.01-.17 0-.43.05-.8.14-.92.23-2.49.53-3.55.7 0 .62 0 1.18-.02 1.68h3.26l.4-.52.76.54z"/></g><g class="cls-1"><path d="m59.43.98c.06.05.1.08.1.12s-.04.07-.1.11l-.35.22v6.66c0 .91.02 1.66.06 2.2v.06c0 .18-.06.23-.32.35-.12.06-.2.08-.25.08-.06 0-.07-.06-.07-.17v-1.15h-7.33v1.13c0 .14-.05.23-.28.32-.14.06-.23.1-.29.1-.08 0-.11-.06-.11-.17 0-.05 0-.1.01-.17.07-.7.08-1.15.08-2.57v-5.95c0-.7-.01-1.4-.04-1.77l.83.66h6.85l.38-.6.82.55zm-.94 8.21v-7.89h-7.33v7.89h7.33zm-1.61-5.81c.06.05.1.07.1.11s-.04.07-.1.12l-.36.21v1.88c0 .41.01.76.05 1.3v.07c0 .16-.05.22-.28.34-.12.06-.19.08-.24.08-.06 0-.07-.06-.07-.17v-.54h-2.47v.58c0 .14-.02.2-.23.3-.11.05-.18.07-.23.07-.08 0-.1-.07-.1-.25 0-.25.04-1.54.04-1.63v-1.86c0-.29-.01-.86-.04-1.23l.7.6h2.16l.31-.49.76.52zm-.89 3.15v-2.9h-2.47v2.9h2.47z"/></g></g><path id="g" d="m65.3 6.34c.06-.38.31-.82.73-1.32.43-.5.95-.75 1.57-.76.32 0 .61.08.87.24s.46.37.58.61c.38-.57.84-.86 1.37-.86.33 0 .62.1.87.3s.37.47.38.8c0 .26-.06.48-.19.64s-.25.26-.37.3-.22.05-.31.05c-.17 0-.31-.05-.42-.15s-.16-.23-.16-.39c0-.42.23-.7.68-.86-.1-.12-.28-.18-.54-.18-.12 0-.2 0-.26.03-.34.14-.6.44-.76.9-.54 2-.81 3.17-.81 3.5 0 .25.07.43.22.54s.3.16.48.16c.33 0 .67-.15.99-.45s.55-.67.67-1.1c.03-.09.05-.14.08-.15s.1-.02.22-.03h.05c.14 0 .2.04.2.11 0 0 0 .06-.03.15-.14.52-.43.97-.84 1.37-.42.4-.9.6-1.45.6-.63 0-1.11-.29-1.44-.86-.37.56-.8.84-1.28.84h-.08c-.44 0-.76-.12-.95-.35-.19-.24-.29-.48-.3-.75 0-.29.09-.52.26-.71.17-.18.38-.27.61-.27.39 0 .58.19.58.57 0 .18-.05.34-.16.48s-.21.23-.31.27-.16.07-.18.07h-.04s.03.04.08.07.13.06.22.1.18.05.26.04c.33 0 .61-.2.84-.61.08-.14.19-.45.31-.92.13-.47.25-.96.38-1.47s.2-.81.22-.9c.05-.24.07-.42.07-.53 0-.25-.07-.43-.2-.54s-.29-.16-.46-.16c-.36 0-.7.14-1.02.43s-.54.66-.67 1.11c-.02.08-.04.13-.07.14s-.1.02-.22.03h-.19c-.05-.05-.08-.1-.08-.15z"/><g><g class="cls-1"><path d="m81.74 2.51c.06.04.1.07.1.1 0 .04-.04.06-.1.1l-.41.25v4.64c0 .91.02 1.66.06 2.19v.07c0 .18-.05.23-.31.34-.12.05-.19.07-.23.07-.07 0-.08-.06-.08-.16v-.88h-2.58v1.14c0 .16-.02.19-.24.29-.11.05-.18.07-.24.07-.1 0-.12-.08-.12-.29v-.08c.02-.67.04-1.69.04-2.34v-4.97c0-.61-.01-.82-.04-1.18l.73.6h.56c.32-.77.61-1.68.8-2.39l.76.4c.1.05.14.08.14.12s-.05.06-.13.07c-.17.02-.29.11-.4.28l-.95 1.52h1.47l.4-.55.75.59zm-.97 3.07v-2.86h-2.58v2.86h2.58zm0 3.39v-3.13h-2.58v3.13h2.58zm6.31-6.38c.07.05.1.08.1.12s-.02.06-.1.11l-.38.23c-.08 3.11-.18 5.19-.25 6.22-.08 1.12-.19 1.47-1.12 1.99-.02.01-.05.02-.06.02-.05 0-.07-.05-.11-.14-.13-.41-.41-.59-1.5-.88v-.19c.68.16 1.14.25 1.45.25.59 0 .68-.31.74-1.02.11-1.16.23-3.61.29-6.5h-2.81c-.52 1.14-.95 1.91-1.52 2.73l-.13-.08c.79-1.44 1.59-3.66 2.05-5.32l.71.36c.12.06.18.11.18.16s-.06.08-.19.11c-.13.02-.23.12-.37.44-.22.5-.42.95-.6 1.34h2.52l.35-.56.76.61zm-4.19 2.14c.97.53 1.46 1.01 1.58 1.34.04.11.06.22.06.32 0 .32-.18.58-.35.58-.18 0-.24-.07-.29-.3-.13-.58-.49-1.22-1.09-1.83l.08-.11z"/></g><g class="cls-1"><path d="m99.34 2.95s.08.07.08.11-.05.06-.16.07c-.4.04-.74.2-1.38.84l-.12-.07.55-.92h-7.63v.56c0 5.01-.44 6.18-1.98 7.79l-.12-.11c1.08-1.39 1.54-3 1.54-6.19v-1.32c0-.5-.01-1.04-.02-1.6l.72.6h3.07v-1.79c0-.31-.01-.62-.05-.92l.86.36c.1.04.14.07.14.11s-.04.06-.38.28v.56h2.93l.47-.67.7.67c.1.1.13.14.13.18 0 .05-.06.06-.2.06h-4.02v1.17h3.83l.3-.39.74.62zm.07 7.34c.1.1.14.16.14.2s-.07.06-.22.06h-7.99c-.25 0-.6.05-.8.13l-.34-.44c.3.02.6.05.88.05h2.43v-2.85c0-.47-.01-.75-.04-1.17l.8.32c.1.04.14.07.14.11 0 .05-.04.08-.34.31v3.29h1.43v-2.93c0-.47-.01-.76-.04-1.18l.8.31c.1.04.14.07.14.11s-.04.07-.34.3v2.51c.55-.58 1.28-1.46 1.76-2.21l.61.41c.07.05.11.1.11.13 0 .05-.05.08-.16.11-.13.04-.26.08-.34.14l-1.99 1.66v.64h2.13l.54-.64.63.64zm-1.21-5.97c0 .59.12.88.32 1.02.05.04.07.06.07.11 0 .1-.3.54-.82.59-.72.05-1.67.07-2.3.07-1.58 0-1.58-.11-1.58-1.32l-1.46.22c-.26.04-.59.13-.78.24l-.4-.37c.32 0 .61-.04.89-.07l1.75-.25v-.64c0-.24-.01-.61-.02-.84l.83.35c.06.02.08.05.08.07 0 .04-.04.06-.35.29v.7l1.81-.26.35-.62.66.48c.11.07.16.12.16.16s-.05.05-.16.07l-2.82.42v.23c0 .7.11.7 1.03.7.68 0 1.59-.04 1.98-.08.37-.05.48-.19.59-1.24h.17zm-6.74 2.78c.74.5 1.44 1.08 1.44 1.65 0 .38-.23.54-.38.54-.1 0-.14-.06-.22-.35-.17-.66-.36-1.07-.91-1.74l.07-.11z"/></g><g class="cls-1"><path d="m107.38 5c.08.1.13.16.13.2s-.07.06-.19.06h-5.61c-.24 0-.59.05-.77.12l-.32-.43c.28.02.58.05.84.05h2.94c.34-.77.61-1.52.96-2.6l.82.42c.07.04.11.08.11.11 0 .04-.05.07-.13.08-.17.02-.43.23-.53.39l-.94 1.6h1.55l.54-.7.61.7zm-.3-3.19c.1.08.14.14.14.19s-.07.06-.19.06h-4.93c-.24 0-.59.05-.77.12l-.32-.43c.28.02.58.05.84.05h4.15l.43-.61.65.62zm-5.06.67c.97.65 1.32 1.09 1.35 1.32 0 .04.01.08.01.12 0 .36-.25.6-.43.6-.14 0-.24-.06-.24-.35s-.29-1.03-.8-1.58l.11-.11zm4.13 4.26c.07.06.1.1.1.13 0 .02-.02.06-.07.08l-.34.19v1.7c0 .41.01.76.05 1.29v.1c0 .16-.04.2-.29.31-.12.05-.19.07-.23.07-.07 0-.08-.06-.08-.16v-.83h-2.72v.88c0 .18-.01.21-.23.3-.11.05-.19.07-.24.07-.08 0-.11-.07-.11-.25 0-.25.04-1.5.04-1.59v-1.75c-.01-.29-.02-.86-.05-1.24l.7.58h2.47l.34-.49.67.6zm-.86 2.64v-2.48h-2.72v2.48h2.72zm-2.21-9.34c1.09.43 1.46.76 1.46 1.16 0 .26-.18.53-.41.53-.11 0-.18-.08-.19-.21-.06-.37-.37-.96-.94-1.38l.07-.11zm6.52 4.54c1.52 1.26 1.97 2.15 1.97 3.01 0 1.27-1.34 1.75-1.44 1.75-.05 0-.08-.02-.1-.11-.07-.35-.24-.43-1.34-.73l.02-.16c.58.14 1 .22 1.31.22s.9 0 .9-1.2c0-.71-.48-1.61-1.59-2.7l1.03-3.03h-2v6.87c0 .91.01 1.78.05 2.31v.08c0 .18-.05.22-.3.32-.11.05-.19.07-.24.07-.08 0-.11-.07-.11-.25v-.13c.02-.71.04-1.75.04-2.43v-5.93c0-.49-.02-1.31-.05-1.75l.76.58h1.73l.4-.58.76.7s.07.08.07.11-.04.05-.11.07c-.2.05-.55.4-.65.6l-1.09 2.31z"/></g></g></g><g><path id="h" d="m78.67 25.35c.06-.38.31-.82.73-1.32.43-.5.95-.75 1.57-.76.32 0 .61.08.87.24s.46.37.58.61c.38-.57.84-.86 1.37-.86.33 0 .62.1.87.3s.37.47.38.8c0 .26-.06.48-.19.64s-.25.26-.37.3-.22.05-.31.05c-.17 0-.31-.05-.42-.15s-.16-.23-.16-.39c0-.42.23-.7.68-.86-.1-.12-.28-.18-.54-.18-.12 0-.2 0-.26.03-.34.14-.6.44-.76.9-.54 2-.81 3.17-.81 3.5 0 .25.07.43.22.54s.3.16.48.16c.33 0 .67-.15.99-.45s.55-.67.67-1.1c.03-.09.05-.14.08-.15s.1-.02.22-.03h.05c.14 0 .2.04.2.11 0 0 0 .06-.03.15-.14.52-.43.97-.84 1.37-.42.4-.9.6-1.45.6-.63 0-1.11-.29-1.44-.86-.37.56-.8.84-1.28.84h-.08c-.44 0-.76-.12-.95-.35-.19-.24-.29-.48-.3-.75 0-.29.09-.52.26-.71.17-.18.38-.27.61-.27.39 0 .58.19.58.57 0 .18-.05.34-.16.48s-.21.23-.31.27-.16.07-.18.07h-.04s.03.04.08.07.13.06.22.1.18.05.26.04c.33 0 .61-.2.84-.61.08-.14.19-.45.31-.92.13-.47.25-.96.38-1.47s.2-.81.22-.9c.05-.24.07-.42.07-.53 0-.25-.07-.43-.2-.54s-.29-.16-.46-.16c-.36 0-.7.14-1.02.43s-.54.66-.67 1.11c-.02.08-.04.13-.07.14s-.1.02-.22.03h-.19c-.05-.05-.08-.1-.08-.15z"/><path id="i" d="m90.64 25.88c0-1.1.37-2.01 1.11-2.71.74-.71 1.62-1.11 2.63-1.21h.23c.14 0 .33 0 .57-.01s.46 0 .68 0h1.34c.14.07.2.16.2.27 0 .08-.06.17-.18.26h-1.41c-1 .02-1.62.05-1.86.1-.44.11-.84.27-1.18.49s-.61.44-.8.67-.35.48-.49.75-.22.49-.24.65-.05.32-.07.46v.03h6.03c.14.07.2.16.2.27s-.07.2-.2.27h-6.03v.03c0 .19.05.42.14.69s.24.57.45.88c.21.32.5.61.87.87s.81.45 1.32.56c.24.05.87.09 1.87.1h1.41c.12.09.18.18.18.27 0 .11-.07.2-.2.27h-1.66c-.16 0-.29 0-.39.01-1.4 0-2.51-.39-3.33-1.17-.8-.74-1.19-1.67-1.19-2.78z"/><path id="j" d="m111.61 27.49c0 .05-.05.15-.16.3s-.29.32-.53.52-.52.39-.81.57c-.3.18-.68.33-1.14.46s-.93.19-1.4.19c-.51 0-1-.07-1.49-.22-.49-.14-.95-.37-1.38-.67s-.81-.7-1.13-1.19c-.32-.5-.53-1.07-.64-1.72-.05-.2-.07-.56-.07-1.09s.02-.89.07-1.09c.2-1.06.65-1.92 1.34-2.58.7-.66 1.59-1.06 2.69-1.19.03 0 .13 0 .31-.01s.32-.01.42-.01c.49.03.98.14 1.47.33s.86.29 1.11.3c.16 0 .28-.03.35-.1s.11-.14.12-.22.03-.15.07-.22.1-.1.19-.11c.1 0 .18.05.24.16v2.84l-.05.1c-.12.06-.23.07-.34.03-.04-.04-.08-.14-.14-.33s-.16-.38-.31-.61c-.3-.42-.7-.8-1.19-1.14-.5-.34-1.03-.52-1.59-.52h-.12c-.4 0-.77.17-1.11.52-.79.71-1.18 2.01-1.18 3.92 0 .79.1 1.5.29 2.13.37 1.35 1.15 2.02 2.33 2.02s2.23-.45 3.2-1.36c.15-.15.27-.23.34-.23.05 0 .1.02.15.05s.09.09.1.16zm-5.89-6.7c.13-.16.18-.24.15-.24-.21.07-.42.18-.64.31s-.46.32-.72.56-.49.55-.69.94-.34.82-.42 1.3c-.05.27-.07.6-.07.99s.02.72.07.99c.09.5.24.95.46 1.34s.45.71.69.92.48.4.72.54.43.24.58.3l.23.07c-.06-.06-.12-.13-.18-.19-.59-.57-.96-1.5-1.13-2.8-.03-.24-.04-.65-.04-1.22s.01-.98.04-1.22c.17-1.13.48-2 .94-2.59zm5.04.81v-.81s-.07.03-.11.03c-.09.04-.19.05-.31.05h-.2l.18.19c.18.2.28.32.3.35l.15.19z"/></g></g></g></svg>
