<svg viewBox="0 0 183.62 80.71" xmlns="http://www.w3.org/2000/svg"><defs><style>.cls-1 {
        fill: #4d4d4d;
      }

      .cls-2 {
        isolation: isolate;
      }</style></defs><g id="a"><g><g><path id="b" d="m11.85 19.83c.06-.38.31-.82.73-1.32.43-.5.95-.75 1.57-.76.32 0 .61.08.87.24s.46.37.58.61c.38-.57.84-.86 1.37-.86.33 0 .62.1.87.3s.37.47.38.8c0 .26-.06.48-.19.64s-.25.26-.37.3-.22.05-.31.05c-.17 0-.31-.05-.42-.15s-.16-.23-.16-.39c0-.42.23-.7.68-.86-.1-.12-.28-.18-.54-.18-.12 0-.2 0-.26.03-.34.14-.6.44-.76.9-.54 2-.81 3.17-.81 3.5 0 .25.07.43.22.54s.3.16.48.16c.33 0 .67-.15.99-.45s.55-.67.67-1.1c.03-.09.05-.14.08-.15s.1-.02.22-.03h.05c.14 0 .2.04.2.11 0 0 0 .06-.03.15-.14.52-.43.97-.84 1.37-.42.4-.9.6-1.45.6-.63 0-1.11-.29-1.44-.86-.37.56-.8.84-1.28.84h-.08c-.44 0-.76-.12-.95-.35-.19-.24-.29-.48-.3-.75 0-.29.09-.52.26-.71.17-.18.38-.27.61-.27.39 0 .58.19.58.57 0 .18-.05.34-.16.48s-.21.23-.31.27-.16.07-.18.07h-.04s.03.04.08.07.13.06.22.1.18.05.26.04c.33 0 .61-.2.84-.61.08-.14.19-.45.31-.92.13-.47.25-.96.38-1.47s.2-.81.22-.9c.05-.24.07-.42.07-.53 0-.25-.07-.43-.2-.54s-.29-.16-.46-.16c-.36 0-.7.14-1.02.43s-.54.66-.67 1.11c-.02.08-.04.13-.07.14s-.1.02-.22.03h-.19c-.05-.05-.08-.1-.08-.15z"/><path id="c" d="m.86 20.92c-.05 0-.12-.04-.19-.11s-.11-.14-.12-.19.13-.19.42-.41.59-.44.9-.68.48-.37.52-.39c.02-.02.04-.03.07-.03h.01c.05 0 .12.08.19.23s.32.68.73 1.59c.17.39.31.7.42.94l1.15 2.51s.48-.96 1.41-2.89 1.86-3.87 2.8-5.82 1.42-2.95 1.45-3c.05-.13.14-.19.27-.19.06 0 .12.03.16.08s.08.11.1.16v.08l-3.16 6.56-3.19 6.6c-.04.06-.12.1-.26.1-.08 0-.14-.01-.16-.04-.02-.02-.46-.98-1.33-2.88l-1.3-2.85-.22.15-.42.33s-.23.16-.24.16z"/><rect x="11.15" y="12.48" width="7.76" height=".81"/></g><path id="d" d="m23.44 19.04c0-.12.06-.21.19-.27h8.65c.14.07.2.16.2.27 0 .1-.06.19-.19.26h-4.32s-4.32.01-4.32.01c-.14-.05-.22-.14-.22-.27zm0 2.64c0-.14.07-.23.22-.27h8.63c.13.09.19.18.19.27 0 .12-.07.21-.2.27h-8.65c-.13-.06-.19-.15-.19-.27z"/><g><path id="e" d="m45.99 40.63-.08.08h-.45l-.24-.12c-.91-.45-1.68-1.05-2.31-1.81s-1.01-1.65-1.17-2.69c-.02-.11-.03-1.96-.03-5.57v-5.44s-.04-.22-.04-.22c-.07-.77-.33-1.53-.76-2.29s-1.02-1.38-1.76-1.85c-.1-.08-.15-.14-.16-.18s-.01-.1-.01-.19c0-.14 0-.22.01-.24s.06-.07.16-.14c.77-.5 1.36-1.13 1.78-1.89s.67-1.51.75-2.25l.03-.23v-5.44c.01-3.59.02-5.44.04-5.55.28-1.92 1.42-3.41 3.42-4.47l.3-.15h.45l.08.08v.46s-.02.04-.05.07-.08.05-.12.07-.13.06-.24.14-.24.17-.38.3c-.12.08-.24.19-.38.34s-.33.37-.58.68-.47.69-.64 1.15-.29.96-.34 1.49c0 .08-.01 1.88-.01 5.39s0 5.29-.01 5.38c-.14 1.54-.85 2.85-2.12 3.92-.43.35-.87.65-1.34.88l.65.39c.09.05.32.22.69.5 1.29 1.08 1.99 2.38 2.12 3.92 0 .08.01 1.88.01 5.39s0 5.29.01 5.38c.04.43.12.84.26 1.24s.28.72.42.98c.14.25.32.5.53.73s.35.39.43.48.18.16.3.24c.16.14.31.26.43.34s.21.13.26.14.07.03.08.07.02.1.03.18v.31z"/><g><g><g><path id="f" d="M49.84,17.63h-.03c-.11,0-.19-.06-.24-.19V4.25c.1-.12.19-.18.27-.18.12,0,.21.07.27.2v13.17c-.07.13-.15.19-.24.19h-.03Z"/><g><path id="g" d="m52.44 10.33c.06-.38.31-.82.73-1.32.43-.5.95-.75 1.57-.76.32 0 .61.08.87.24s.46.37.58.61c.38-.57.84-.86 1.37-.86.33 0 .62.1.87.3s.37.47.38.8c0 .26-.06.48-.19.64s-.25.26-.37.3-.22.05-.31.05c-.17 0-.31-.05-.42-.15s-.16-.23-.16-.39c0-.42.23-.7.68-.86-.1-.12-.28-.18-.54-.18-.12 0-.2 0-.26.03-.34.14-.6.44-.76.9-.54 2-.81 3.17-.81 3.5 0 .25.07.43.22.54s.3.16.48.16c.33 0 .67-.15.99-.45s.55-.67.67-1.1c.03-.09.05-.14.08-.15s.1-.02.22-.03h.05c.14 0 .2.04.2.11 0 0 0 .06-.03.15-.14.52-.43.97-.84 1.37-.42.4-.9.6-1.45.6-.63 0-1.11-.29-1.44-.86-.37.56-.8.84-1.28.84h-.08c-.44 0-.76-.12-.95-.35-.19-.24-.29-.48-.3-.75 0-.29.09-.52.26-.71.17-.18.38-.27.61-.27.39 0 .58.19.58.57 0 .18-.05.34-.16.48s-.21.23-.31.27-.16.07-.18.07h-.04s.03.04.08.07.13.06.22.1.18.05.26.04c.33 0 .61-.2.84-.61.08-.14.19-.45.31-.92.13-.47.25-.96.38-1.47s.2-.81.22-.9c.05-.24.07-.42.07-.53 0-.25-.07-.43-.2-.54s-.29-.16-.46-.16c-.36 0-.7.14-1.02.43s-.54.66-.67 1.11c-.02.08-.04.13-.07.14s-.1.02-.22.03h-.19c-.05-.05-.08-.1-.08-.15z"/><g><path id="h" d="m61.54 3.78-.12.05c-.09.03-.22.06-.38.1s-.35.05-.56.07h-.18v-.44h.18c.3-.01.58-.06.83-.14s.44-.16.54-.23.19-.14.27-.21c.01-.02.05-.03.12-.03.06 0 .11.02.16.06v5.75c.05.04.09.07.12.09s.11.03.23.04.32.02.6.02h.25v.44h-.11c-.13-.02-.64-.03-1.53-.03s-1.37 0-1.51.03h-.12v-.44h.61.24s.11-.02.15-.03.07-.02.08-.02.03-.02.06-.05.05-.04.06-.04v-4.99z"/><path id="i" d="m68.35 2.13c.06 0 .11.02.14.06s.06.08.06.13c0 .03-.55 1.57-1.66 4.63-1.11 3.05-1.68 4.61-1.72 4.68-.04.06-.1.1-.16.1-.04 0-.09-.02-.12-.05s-.06-.08-.06-.13c0-.06.56-1.63 1.67-4.68 1.11-3.06 1.68-4.6 1.7-4.64.03-.06.08-.1.15-.1z"/><path id="j" d="m70.14 5.21c-.17 0-.31-.06-.41-.17-.1-.12-.15-.26-.15-.42 0-.45.17-.85.51-1.18s.76-.5 1.27-.5c.58 0 1.07.18 1.46.54s.59.82.6 1.39c0 .28-.06.54-.19.79s-.28.47-.46.65-.44.42-.77.71c-.23.2-.55.49-.96.88l-.57.54h.73c1 0 1.54 0 1.6-.04.04-.01.12-.3.23-.85v-.03h.38v.03s-.05.31-.12.87c-.08.56-.12.86-.14.88v.03h-3.56v-.3s.02-.09.06-.14.13-.16.29-.34c.19-.2.35-.38.48-.54.06-.06.17-.18.33-.36s.27-.29.33-.36.15-.17.28-.32.22-.26.27-.33.12-.17.22-.29.16-.22.2-.31.09-.18.14-.28.1-.2.12-.31.05-.2.07-.29.03-.2.03-.32c0-.4-.11-.75-.33-1.05s-.53-.44-.93-.44c-.21 0-.4.05-.56.16s-.27.21-.34.32-.1.16-.1.18h.05c.12 0 .23.04.36.13s.18.24.18.44c0 .16-.05.29-.15.4s-.25.17-.43.17z"/></g></g><path id="k" d="M76.46,17.63h-.03c-.11,0-.19-.06-.24-.19V4.25c.1-.12.19-.18.27-.18.12,0,.21.07.27.2v13.17c-.07.13-.15.19-.24.19h-.03Z"/></g><g><path id="l" d="m92.63 10.33c.06-.38.31-.82.73-1.32.43-.5.95-.75 1.57-.76.32 0 .61.08.87.24s.46.37.58.61c.38-.57.84-.86 1.37-.86.33 0 .62.1.87.3s.37.47.38.8c0 .26-.06.48-.19.64s-.25.26-.37.3-.22.05-.31.05c-.17 0-.31-.05-.42-.15s-.16-.23-.16-.39c0-.42.23-.7.68-.86-.1-.12-.28-.18-.54-.18-.12 0-.2 0-.26.03-.34.14-.6.44-.76.9-.54 2-.81 3.17-.81 3.5 0 .25.07.43.22.54s.3.16.48.16c.33 0 .67-.15.99-.45s.55-.67.67-1.1c.03-.09.05-.14.08-.15s.1-.02.22-.03h.05c.14 0 .2.04.2.11 0 0 0 .06-.03.15-.14.52-.43.97-.84 1.37-.42.4-.9.6-1.45.6-.63 0-1.11-.29-1.44-.86-.37.56-.8.84-1.28.84h-.08c-.44 0-.76-.12-.95-.35-.19-.24-.29-.48-.3-.75 0-.29.09-.52.26-.71.17-.18.38-.27.61-.27.39 0 .58.19.58.57 0 .18-.05.34-.16.48s-.21.23-.31.27-.16.07-.18.07h-.04s.03.04.08.07.13.06.22.1.18.05.26.04c.33 0 .61-.2.84-.61.08-.14.19-.45.31-.92.13-.47.25-.96.38-1.47s.2-.81.22-.9c.05-.24.07-.42.07-.53 0-.25-.07-.43-.2-.54s-.29-.16-.46-.16c-.36 0-.7.14-1.02.43s-.54.66-.67 1.11c-.02.08-.04.13-.07.14s-.1.02-.22.03h-.19c-.05-.05-.08-.1-.08-.15z"/><path id="m" d="m104.58 5.89c0-.07.03-.14.08-.19s.1-.08.14-.08c.07 0 .77.31 2.09.92 1.32.62 2.63 1.24 3.94 1.86s1.95.94 1.95.95c.06.05.1.11.1.2s-.03.16-.1.2c-.02.02-1.34.65-3.96 1.89l-3.91 1.85h-.08c-.16-.02-.24-.11-.24-.27v-.04c0-.06.06-.14.2-.22.17-.09.85-.42 2.04-.98.71-.33 1.29-.61 1.76-.83l3.37-1.6-3.61-1.71c-.62-.3-1.35-.64-2.17-1.03-.8-.37-1.26-.59-1.38-.67s-.19-.16-.2-.26zm.02 9.97c0-.09.07-.18.2-.27h7.86c.14.05.22.14.22.27 0 .11-.07.2-.2.27h-7.89c-.13-.06-.19-.15-.19-.27z"/><path id="n" d="m119.09 6.31c.51-.73 1.2-1.1 2.08-1.1.43 0 .87.12 1.3.35s.79.65 1.06 1.25c.33.75.5 1.78.5 3.09 0 1.4-.19 2.48-.58 3.22-.18.38-.43.68-.75.91s-.59.37-.83.42-.47.09-.69.1c-.24 0-.47-.03-.71-.08s-.51-.2-.83-.43c-.32-.24-.57-.54-.75-.91-.39-.74-.58-1.81-.58-3.22 0-1.57.26-2.77.77-3.6zm3.05-.16c-.27-.29-.59-.43-.96-.43s-.71.14-.98.43c-.23.24-.38.56-.45.98s-.11 1.29-.11 2.61c0 1.43.04 2.37.11 2.82s.24.81.49 1.07c.25.27.57.41.94.41s.67-.14.92-.41c.26-.27.43-.65.49-1.14s.1-1.41.11-2.76c0-1.31-.04-2.18-.11-2.59-.07-.42-.22-.75-.45-.99z"/></g></g><g><g><path id="o" d="m48.66 31.28c.06-.38.31-.82.73-1.32.43-.5.95-.75 1.57-.76.32 0 .61.08.87.24s.46.37.58.61c.38-.57.84-.86 1.37-.86.33 0 .62.1.87.3s.37.47.38.8c0 .26-.06.48-.19.64s-.25.26-.37.3-.22.05-.31.05c-.17 0-.31-.05-.42-.15s-.16-.23-.16-.39c0-.42.23-.7.68-.86-.1-.12-.28-.18-.54-.18-.12 0-.2 0-.26.03-.34.14-.6.44-.76.9-.54 2-.81 3.17-.81 3.5 0 .25.07.43.22.54s.3.16.48.16c.33 0 .67-.15.99-.45s.55-.67.67-1.1c.03-.09.05-.14.08-.15s.1-.02.22-.03h.05c.14 0 .2.04.2.11 0 0 0 .06-.03.15-.14.52-.43.97-.84 1.37-.42.4-.9.6-1.45.6-.63 0-1.11-.29-1.44-.86-.37.56-.8.84-1.28.84h-.08c-.44 0-.76-.12-.95-.35-.19-.24-.29-.48-.3-.75 0-.29.09-.52.26-.71.17-.18.38-.27.61-.27.39 0 .58.19.58.57 0 .18-.05.34-.16.48s-.21.23-.31.27-.16.07-.18.07h-.04s.03.04.08.07.13.06.22.1.18.05.26.04c.33 0 .61-.2.84-.61.08-.14.19-.45.31-.92.13-.47.25-.96.38-1.47s.2-.81.22-.9c.05-.24.07-.42.07-.53 0-.25-.07-.43-.2-.54s-.29-.16-.46-.16c-.36 0-.7.14-1.02.43s-.54.66-.67 1.11c-.02.08-.04.13-.07.14s-.1.02-.22.03h-.19c-.05-.05-.08-.1-.08-.15z"/><g><path id="p" d="m57.76 24.73-.12.05c-.09.03-.22.06-.38.1s-.35.05-.56.07h-.18v-.44h.18c.3-.01.58-.06.83-.14s.44-.16.54-.23.19-.14.27-.21c.01-.02.05-.03.12-.03.06 0 .11.02.16.06v5.75c.05.04.09.07.12.09s.11.03.23.04.32.02.6.02h.25v.44h-.11c-.13-.02-.64-.03-1.53-.03s-1.37 0-1.51.03h-.12v-.44h.61.24s.11-.02.15-.03.07-.02.08-.02.03-.02.06-.05.05-.04.06-.04v-4.96z"/><path id="q" d="m64.58 23.08c.06 0 .11.02.14.06s.06.08.06.13c0 .03-.55 1.57-1.66 4.63-1.11 3.05-1.68 4.61-1.72 4.68-.04.06-.1.1-.16.1-.04 0-.09-.02-.12-.05s-.06-.08-.06-.13c0-.06.56-1.63 1.67-4.68 1.11-3.06 1.68-4.6 1.7-4.64.03-.06.08-.1.15-.1z"/><path id="r" d="m66.36 26.16c-.17 0-.31-.06-.41-.17-.1-.12-.15-.26-.15-.42 0-.45.17-.85.51-1.18s.76-.5 1.27-.5c.58 0 1.07.18 1.46.54s.59.82.6 1.39c0 .28-.06.54-.19.79s-.28.47-.46.65-.44.42-.77.71c-.23.2-.55.49-.96.88l-.57.54h.73c1 0 1.54 0 1.6-.04.04-.01.12-.3.23-.85v-.03h.38v.03s-.05.31-.12.87c-.08.56-.12.86-.14.88v.03h-3.56v-.3s.02-.09.06-.14.13-.16.29-.34c.19-.2.35-.38.48-.54.06-.06.17-.18.33-.36s.27-.29.33-.36.15-.17.28-.32.22-.26.27-.33.12-.17.22-.29.16-.22.2-.31.09-.18.14-.28.1-.2.12-.31.05-.2.07-.29.03-.2.03-.32c0-.4-.11-.75-.33-1.05s-.53-.44-.93-.44c-.21 0-.4.05-.56.16s-.27.21-.34.32-.1.16-.1.18h.05c.12 0 .23.04.36.13s.18.24.18.44c0 .16-.05.29-.15.4s-.25.17-.43.17z"/></g></g><g><path id="s" d="m92.63 31.28c.06-.38.31-.82.73-1.32.43-.5.95-.75 1.57-.76.32 0 .61.08.87.24s.46.37.58.61c.38-.57.84-.86 1.37-.86.33 0 .62.1.87.3s.37.47.38.8c0 .26-.06.48-.19.64s-.25.26-.37.3-.22.05-.31.05c-.17 0-.31-.05-.42-.15s-.16-.23-.16-.39c0-.42.23-.7.68-.86-.1-.12-.28-.18-.54-.18-.12 0-.2 0-.26.03-.34.14-.6.44-.76.9-.54 2-.81 3.17-.81 3.5 0 .25.07.43.22.54s.3.16.48.16c.33 0 .67-.15.99-.45s.55-.67.67-1.1c.03-.09.05-.14.08-.15s.1-.02.22-.03h.05c.14 0 .2.04.2.11 0 0 0 .06-.03.15-.14.52-.43.97-.84 1.37-.42.4-.9.6-1.45.6-.63 0-1.11-.29-1.44-.86-.37.56-.8.84-1.28.84h-.08c-.44 0-.76-.12-.95-.35-.19-.24-.29-.48-.3-.75 0-.29.09-.52.26-.71.17-.18.38-.27.61-.27.39 0 .58.19.58.57 0 .18-.05.34-.16.48s-.21.23-.31.27-.16.07-.18.07h-.04s.03.04.08.07.13.06.22.1.18.05.26.04c.33 0 .61-.2.84-.61.08-.14.19-.45.31-.92.13-.47.25-.96.38-1.47s.2-.81.22-.9c.05-.24.07-.42.07-.53 0-.25-.07-.43-.2-.54s-.29-.16-.46-.16c-.36 0-.7.14-1.02.43s-.54.66-.67 1.11c-.02.08-.04.13-.07.14s-.1.02-.22.03h-.19c-.05-.05-.08-.1-.08-.15z"/><path id="t" d="m104.6 31.81c0-1.1.37-2.01 1.11-2.71.74-.71 1.62-1.11 2.63-1.21h.23c.14 0 .33 0 .57-.01s.46 0 .68 0h1.34c.14.07.2.16.2.27 0 .08-.06.17-.18.26h-1.41c-1 .02-1.62.05-1.86.1-.44.11-.84.27-1.18.49s-.61.44-.8.67-.35.48-.49.75-.22.49-.24.65-.05.32-.07.46v.03h6.03c.14.07.2.16.2.27s-.07.2-.2.27h-6.03v.03c0 .19.05.42.14.69s.24.57.45.88c.21.32.5.61.87.87s.81.45 1.32.56c.24.05.87.09 1.87.1h1.41c.12.09.18.18.18.27 0 .11-.07.2-.2.27h-1.66c-.16 0-.29 0-.39.01-1.4 0-2.51-.39-3.33-1.17-.8-.74-1.19-1.67-1.19-2.78z"/><path id="u" d="m125.57 33.42c0 .05-.05.15-.16.3s-.29.32-.53.52-.52.39-.81.57c-.3.18-.68.33-1.14.46s-.93.19-1.4.19c-.51 0-1-.07-1.49-.22-.49-.14-.95-.37-1.38-.67s-.81-.7-1.13-1.19c-.32-.5-.53-1.07-.64-1.72-.05-.2-.07-.56-.07-1.09s.02-.89.07-1.09c.2-1.06.65-1.92 1.34-2.58.7-.66 1.59-1.06 2.69-1.19.03 0 .13 0 .31-.01s.32-.01.42-.01c.49.03.98.14 1.47.33s.86.29 1.11.3c.16 0 .28-.03.35-.1s.11-.14.12-.22.03-.15.07-.22.1-.1.19-.11c.1 0 .18.05.24.16v2.84l-.05.1c-.12.06-.23.07-.34.03-.04-.04-.08-.14-.14-.33s-.16-.38-.31-.61c-.3-.42-.7-.8-1.19-1.14-.5-.34-1.03-.52-1.59-.52h-.12c-.4 0-.77.17-1.11.52-.79.71-1.18 2.01-1.18 3.92 0 .79.1 1.5.29 2.13.37 1.35 1.15 2.02 2.33 2.02s2.23-.45 3.2-1.36c.15-.15.27-.23.34-.23.05 0 .1.02.15.05s.09.09.1.16zm-5.9-6.7c.13-.16.18-.24.15-.24-.21.07-.42.18-.64.31s-.46.32-.72.56-.49.55-.69.94-.34.82-.42 1.3c-.05.27-.07.6-.07.99s.02.72.07.99c.09.5.24.95.46 1.34s.45.71.69.92.48.4.72.54.43.24.58.3l.23.07c-.06-.06-.12-.13-.18-.19-.59-.57-.96-1.5-1.13-2.8-.03-.24-.04-.65-.04-1.22s.01-.98.04-1.22c.17-1.13.48-2 .94-2.59zm5.04.81v-.81s-.07.03-.11.03c-.09.04-.19.05-.31.05h-.2l.18.19c.18.2.28.32.3.35l.15.19z"/><path id="v" d="m129.86 25.28c0-.08.03-.14.08-.19s.11-.07.18-.07c.09 0 .17.05.23.14.04.06.84 2.26 2.42 6.58 1.57 4.33 2.36 6.52 2.36 6.6s-.03.13-.08.18-.12.07-.19.08c-.09 0-.17-.05-.23-.14-.03-.04-.83-2.22-2.4-6.54-1.57-4.33-2.36-6.54-2.36-6.64z"/><path id="w" d="m140.5 38.6v-13.57h1.86v.54h-1.32v12.49h1.32v.54h-1.86z"/><path id="x" d="m143.98 27.26c.51-.73 1.2-1.1 2.08-1.1.43 0 .87.12 1.3.35s.79.65 1.06 1.25c.33.75.5 1.78.5 3.09 0 1.4-.19 2.48-.58 3.22-.18.38-.43.68-.75.91s-.59.37-.83.42-.47.09-.69.1c-.24 0-.47-.03-.71-.08s-.51-.2-.83-.43c-.32-.24-.57-.54-.75-.91-.39-.74-.58-1.81-.58-3.22 0-1.57.26-2.77.77-3.6zm3.05-.16c-.27-.29-.59-.43-.96-.43s-.71.14-.98.43c-.23.24-.38.56-.45.98s-.11 1.29-.11 2.61c0 1.43.04 2.37.11 2.82s.24.81.49 1.07c.25.27.57.41.94.41s.67-.14.92-.41c.26-.27.43-.65.49-1.14s.1-1.41.11-2.76c0-1.31-.04-2.18-.11-2.59-.07-.42-.22-.75-.45-.99z"/><path id="y" d="m150.52 34.73v-.34c0-.23.07-.42.22-.58s.34-.24.58-.24.48.11.68.34.3.62.31 1.19c0 .32-.04.62-.12.92s-.18.56-.29.77-.23.4-.35.56-.24.28-.33.37-.15.13-.18.12c-.04 0-.1-.04-.18-.12s-.12-.14-.12-.18.05-.11.15-.22.21-.24.34-.41c.13-.16.24-.39.35-.68s.18-.62.22-.99v-.16h-.01s-.04.03-.07.04-.05.02-.08.04-.07.03-.12.03-.11 0-.16.01c-.24 0-.44-.08-.6-.23l-.24-.24z"/><path id="z" d="m156.26 31.99v-.18c0-.12.06-.21.19-.27h4.06v-4.07c.1-.12.19-.18.27-.18.12 0 .21.07.27.2v4.05h4.05c.14.07.2.16.2.27s-.07.2-.2.27h-4.05v4.05c-.07.13-.15.19-.24.19h-.05c-.11 0-.19-.06-.24-.19v-4.05h-4.06c-.13-.06-.19-.15-.19-.27v.18z"/><path id="aa" d="m166.81 32.26c0-.8.25-1.5.76-2.12s1.15-.93 1.94-.94c.8 0 1.54.28 2.24.83.34.28.68.63 1 1.06l.19.26.1-.14c.94-1.34 2-2.01 3.16-2.01.78 0 1.42.31 1.91.92s.75 1.34.76 2.17c0 .78-.25 1.48-.75 2.1s-1.16.94-1.98.95c-.78 0-1.52-.28-2.21-.83-.34-.28-.68-.63-1-1.06l-.19-.26-.1.14c-.94 1.34-2 2.01-3.16 2.01-.78 0-1.42-.31-1.91-.92-.5-.62-.75-1.34-.76-2.17zm11.56 0c0-.62-.17-1.18-.52-1.68s-.83-.76-1.47-.76c-.19 0-.38.02-.56.07s-.35.11-.52.19-.32.17-.46.26-.28.2-.39.33-.23.24-.34.34-.2.21-.27.34-.14.23-.2.3-.11.15-.15.23l-.07.11.42.54c.28.36.5.63.65.81s.34.38.57.6.45.37.68.45.46.13.69.14c.56 0 1.02-.22 1.38-.67.36-.44.54-.97.54-1.59zm-11.06.04c0 .62.18 1.19.53 1.7s.84.76 1.47.76c1.07 0 2.05-.72 2.95-2.17l-.42-.54c-.55-.71-.96-1.19-1.24-1.41-.44-.39-.9-.58-1.37-.58-.56 0-1.02.22-1.37.67s-.53.97-.54 1.59z"/><path id="ab" d="m180.45 25.04h.05s.09-.01.14-.01h.16l.38.33c.85.77 1.47 1.73 1.86 2.88s.58 2.34.58 3.58c0 .62-.05 1.21-.14 1.78s-.19 1.05-.31 1.45-.29.8-.5 1.19c-.22.4-.39.7-.52.91s-.31.44-.56.69-.39.4-.43.45-.15.13-.31.26l-.05.05h-.31s-.05-.01-.07-.04-.03-.07-.04-.12c0 0 .06-.07.15-.18 1.4-1.46 2.1-3.61 2.1-6.45s-.7-4.99-2.1-6.45c-.09-.11-.14-.17-.15-.18 0-.07.02-.12.07-.15z"/></g></g></g></g></g><g><g><g class="cls-2"><path class="cls-1" d="m.02 70.48c1.42.29 2.02.59 2.02 1.12 0 .28-.18.5-.32.5-.1 0-.19-.02-.26-.2-.23-.53-.56-.86-1.45-1.28l.02-.13zm3.93-1.63c-.55 1.76-1.24 4.03-1.67 5.5-.12.4-.16.75-.16 1.12 0 .43.06.88.17 1.39.02.14.04.28.04.4 0 .52-.22.86-.44.86-.19 0-.3-.28-.3-.73 0-.2.13-1.15.13-1.37 0-.64-.19-.84-1.57-1.04l.02-.17c.32.02.58.05.78.05.56 0 .68-.14.84-.59l1.98-5.49.18.07zm-3-1.12c1.73.5 1.97.84 1.97 1.23 0 .29-.16.54-.29.54-.16 0-.24-.11-.35-.35-.17-.38-.52-.76-1.39-1.31l.06-.12zm9.94 9.55c.1.1.16.16.16.19 0 .05-.07.06-.2.06h-7.07c-.25 0-.6.05-.8.13l-.34-.44c.3.02.6.05.88.05h3.33v-3.91h-1.73c-.25 0-.6.05-.8.13l-.34-.44c.3.02.6.05.88.05h1.99v-3.07h-1.89c-.25 0-.6.05-.8.13l-.34-.44c.3.02.6.05.88.05h4.7l.53-.66.67.66c.11.1.16.17.16.2 0 .05-.07.06-.2.06h-3.12v3.07h1.48l.54-.66.7.66c.1.1.16.16.16.2s-.07.06-.2.06h-2.66v3.91h2.25l.52-.64.7.65zm-5.03-10.03c.96.49 1.67 1.08 1.67 1.46 0 .28-.26.6-.44.6-.13 0-.23-.07-.29-.41-.08-.5-.37-1.01-1.01-1.51l.07-.14z"/></g><path id="ac" class="cls-1" d="m12.63 72.29c0-.22.08-.41.23-.57s.35-.24.58-.24c.22 0 .41.07.57.22s.25.34.26.58c0 .23-.08.42-.23.58s-.35.24-.58.24-.43-.08-.58-.23-.24-.35-.24-.58zm0 4.21c0-.22.08-.41.23-.57s.35-.24.58-.24c.22 0 .41.07.57.22s.25.34.26.58c0 .23-.08.42-.23.58s-.35.24-.58.24-.43-.08-.58-.23-.24-.35-.24-.58z"/></g><g><g><path id="ad" class="cls-1" d="m31.02 73.39c.06-.38.31-.82.73-1.32.43-.5.95-.75 1.57-.76.32 0 .61.08.87.24s.46.37.58.61c.38-.57.84-.86 1.37-.86.33 0 .62.1.87.3s.37.47.38.8c0 .26-.06.48-.19.64s-.25.26-.37.3-.22.05-.31.05c-.17 0-.31-.05-.42-.15s-.16-.23-.16-.39c0-.42.23-.7.68-.86-.1-.12-.28-.18-.54-.18-.12 0-.2 0-.26.03-.34.14-.6.44-.76.9-.54 2-.81 3.17-.81 3.5 0 .25.07.43.22.54s.3.16.48.16c.33 0 .67-.15.99-.45s.55-.67.67-1.1c.03-.09.05-.14.08-.15s.1-.02.22-.03h.05c.14 0 .2.04.2.11 0 0 0 .06-.03.15-.14.52-.43.97-.84 1.37-.42.4-.9.6-1.45.6-.63 0-1.11-.29-1.44-.86-.37.56-.8.84-1.28.84h-.08c-.44 0-.76-.12-.95-.35-.19-.24-.29-.48-.3-.75 0-.29.09-.52.26-.71.17-.18.38-.27.61-.27.39 0 .58.19.58.57 0 .18-.05.34-.16.48s-.21.23-.31.27-.16.07-.18.07h-.04s.03.04.08.07.13.06.22.1.18.05.26.04c.33 0 .61-.2.84-.61.08-.14.19-.45.31-.92.13-.47.25-.96.38-1.47s.2-.81.22-.9c.05-.24.07-.42.07-.53 0-.25-.07-.43-.2-.54s-.29-.16-.46-.16c-.36 0-.7.14-1.02.43s-.54.66-.67 1.11c-.02.08-.04.13-.07.14s-.1.02-.22.03h-.19c-.05-.05-.08-.1-.08-.15z"/><path id="ae" class="cls-1" d="m20.03 74.48c-.05 0-.12-.04-.19-.11s-.11-.14-.12-.19.13-.19.42-.41.59-.44.9-.68.48-.37.52-.39c.02-.02.04-.03.07-.03h.01c.05 0 .12.08.19.23s.32.68.73 1.59c.17.39.31.7.42.94l1.15 2.51s.48-.96 1.41-2.89 1.86-3.87 2.8-5.82 1.42-2.95 1.45-3c.05-.13.14-.19.27-.19.06 0 .12.03.16.08s.08.11.1.16v.08l-3.16 6.56-3.19 6.6c-.04.06-.12.1-.26.1-.08 0-.14-.01-.16-.04-.02-.02-.46-.98-1.33-2.88l-1.3-2.85-.22.15-.42.33s-.23.16-.24.16z"/><rect class="cls-1" x="30.31" y="66.04" width="7.76" height=".81"/></g><path id="af" class="cls-1" d="m42.61 72.6c0-.12.06-.21.19-.27h8.65c.14.07.2.16.2.27 0 .1-.06.19-.19.26h-4.32s-4.32.01-4.32.01c-.14-.05-.22-.14-.22-.27zm0 2.64c0-.14.07-.23.22-.27h8.63c.13.09.19.18.19.27 0 .12-.07.21-.2.27h-8.65c-.13-.06-.19-.15-.19-.27z"/><g><path id="ag" class="cls-1" d="m60.19 73.03c0-.36-.12-.67-.37-.94s-.6-.39-1.06-.39c-.33 0-.61.06-.84.18-.27.17-.41.41-.41.71v.18s.08.18.22.33.33.26.58.34c.16.05.36.09.6.12s.43.08.6.12.31.1.43.18c.15.07.3.16.45.27s.29.29.43.56.22.54.23.84c0 .56-.17 1.02-.52 1.38-.34.36-.9.55-1.67.56h-.11c-.47 0-.9-.16-1.3-.49l-.11.1-.12.12c-.05.05-.11.1-.16.15l-.15.14h-.16s-.07-.03-.12-.08v-1.86c0-.19 0-.3.03-.34s.06-.06.14-.07h.12c.11 0 .18.02.22.05s.06.09.07.16.04.19.1.37c.05.17.14.36.26.57.32.46.76.69 1.32.69.88 0 1.32-.35 1.32-1.06 0-.26-.08-.48-.24-.64-.18-.22-.56-.38-1.13-.49s-.95-.21-1.13-.31c-.33-.15-.58-.36-.77-.62s-.29-.54-.29-.84c0-.35.08-.65.23-.9s.35-.43.58-.54.46-.2.68-.24.42-.07.6-.07h.15c.36 0 .68.07.95.2l.2.11.12-.1c.09-.08.19-.16.3-.23h.16s.07.03.12.08v1.79l-.08.08h-.38c-.05-.05-.08-.11-.08-.16z"/><path id="ah" class="cls-1" d="m61.98 74.36c0-.81.28-1.52.84-2.12s1.2-.9 1.91-.91h.14c.76 0 1.37.31 1.83.94l.08.11s.09-.18.23-.53l.22-.53h.5v3.88c0 2.61 0 3.92.01 3.94.04.07.09.12.16.15.19.03.41.04.67.04h.22v.62h-.42c-.22-.02-.45-.03-.69-.03s-.42 0-.52-.01c-.93 0-1.44.01-1.52.04h-.11v-.62h.22c.25 0 .48-.01.67-.04.08-.04.13-.08.15-.14s.03-.19.03-.39v-2.1c-.54.54-1.16.81-1.86.81-.74 0-1.38-.29-1.93-.87-.54-.58-.82-1.33-.83-2.24zm4.65-1.12c-.27-.81-.71-1.26-1.33-1.37h-.12c-.05 0-.09 0-.11-.01-.45.02-.86.25-1.22.71s-.54 1.07-.54 1.85c0 .7.15 1.29.46 1.79s.71.75 1.19.75c.39 0 .73-.12 1.02-.37s.51-.53.65-.87v-2.47z"/><path id="ai" class="cls-1" d="m69.19 76.69h.19c.35 0 .57-.06.64-.19v-.42c0-.13 0-.27.01-.42v-.53s0-.39 0-.57v-2.01c-.04-.17-.1-.29-.2-.34s-.3-.1-.61-.12h-.24v-.31c0-.21 0-.31.03-.31h.14c.09-.02.22-.03.38-.04s.33-.02.49-.03c.14 0 .3-.02.48-.03.17 0 .3-.02.39-.04s.14-.02.15-.01h.04v.94c.35-.62.79-.92 1.32-.92h.08c.41 0 .71.1.9.3s.29.41.29.62c0 .19-.06.35-.18.49s-.29.2-.52.2-.39-.07-.5-.22-.17-.3-.18-.46c0-.08 0-.15.03-.22s.04-.12.07-.16.04-.07.04-.07c-.02-.02-.12 0-.31.05-.14.07-.25.14-.33.2-.43.41-.64 1.22-.64 2.43v1.44c0 .11 0 .2.01.27s0 .14 0 .2v.07s.02.04.04.05.04.03.07.04.05.02.07.04.05.03.1.03.08 0 .1.01.06.01.12.01h.12s.06 0 .14.01.12 0 .14 0h.42v.62h-.12c-.16-.03-.74-.04-1.72-.04-.93 0-1.44.01-1.52.04h-.11v-.62h.22z"/><path id="aj" class="cls-1" d="m74.39 71.59c.48-.04.85-.29 1.11-.76s.41-1.02.43-1.66v-.2h.54v2.5h1.83v.62h-1.83v1.95c0 1.13.01 1.77.01 1.91s.03.29.1.43c.13.35.35.53.67.53.4 0 .64-.32.73-.96 0-.07.01-.28.01-.62v-.48h.54v.64c0 .7-.19 1.23-.57 1.59-.24.24-.56.37-.95.37-.31 0-.57-.05-.8-.16s-.4-.25-.52-.42-.2-.33-.26-.48c-.05-.14-.09-.29-.1-.43 0-.06-.01-.73-.01-2.01v-1.86h-1.07v-.5h.12z"/></g><path id="ak" class="cls-1" d="m80.58 73.92c0-.62.05-1.22.14-1.78s.19-1.05.31-1.45c.12-.41.29-.81.5-1.19s.39-.69.52-.91.32-.45.57-.71c.25-.25.4-.41.45-.46s.16-.15.34-.29h.23c.13 0 .19.04.19.12 0 .03-.08.12-.23.29s-.34.4-.56.72-.44.71-.67 1.17-.42 1.09-.57 1.87-.23 1.66-.23 2.62.08 1.83.23 2.61.34 1.41.56 1.89.44.87.67 1.17.42.54.57.72.23.28.23.29c0 .08-.07.12-.2.12h-.22l-.38-.33c-.85-.77-1.47-1.73-1.86-2.88s-.58-2.34-.58-3.58z"/><path id="al" class="cls-1" d="m85.29 73.39c.06-.38.31-.82.73-1.32.43-.5.95-.75 1.57-.76.32 0 .61.08.87.24s.46.37.58.61c.38-.57.84-.86 1.37-.86.33 0 .62.1.87.3s.37.47.38.8c0 .26-.06.48-.19.64s-.25.26-.37.3-.22.05-.31.05c-.17 0-.31-.05-.42-.15s-.16-.23-.16-.39c0-.42.23-.7.68-.86-.1-.12-.28-.18-.54-.18-.12 0-.2 0-.26.03-.34.14-.6.44-.76.9-.54 2-.81 3.17-.81 3.5 0 .25.07.43.22.54s.3.16.48.16c.33 0 .67-.15.99-.45s.55-.67.67-1.1c.03-.09.05-.14.08-.15s.1-.02.22-.03h.05c.14 0 .2.04.2.11 0 0 0 .06-.03.15-.14.52-.43.97-.84 1.37-.42.4-.9.6-1.45.6-.63 0-1.11-.29-1.44-.86-.37.56-.8.84-1.28.84h-.08c-.44 0-.76-.12-.95-.35-.19-.24-.29-.48-.3-.75 0-.29.09-.52.26-.71.17-.18.38-.27.61-.27.39 0 .58.19.58.57 0 .18-.05.34-.16.48s-.21.23-.31.27-.16.07-.18.07h-.04s.03.04.08.07.13.06.22.1.18.05.26.04c.33 0 .61-.2.84-.61.08-.14.19-.45.31-.92.13-.47.25-.96.38-1.47s.2-.81.22-.9c.05-.24.07-.42.07-.53 0-.25-.07-.43-.2-.54s-.29-.16-.46-.16c-.36 0-.7.14-1.02.43s-.54.66-.67 1.11c-.02.08-.04.13-.07.14s-.1.02-.22.03h-.19c-.05-.05-.08-.1-.08-.15z"/><path id="am" class="cls-1" d="m93.16 67.15h.05s.09-.01.14-.01h.16l.38.33c.85.77 1.47 1.73 1.86 2.88s.58 2.34.58 3.58c0 .62-.05 1.21-.14 1.78s-.19 1.05-.31 1.45-.29.8-.5 1.19c-.22.4-.39.7-.52.91s-.31.44-.56.69-.39.4-.43.45-.15.13-.31.26l-.05.05h-.31s-.05-.01-.07-.04-.03-.07-.04-.12c0 0 .06-.07.15-.18 1.4-1.46 2.1-3.61 2.1-6.45s-.7-4.99-2.1-6.45c-.09-.11-.14-.17-.15-.18 0-.07.02-.12.07-.15z"/></g></g></g></svg>
