<svg viewBox="0 0 139.45 31.82" xmlns="http://www.w3.org/2000/svg"><g id="a"><g><g><path id="b" d="M0,6.29s.02-.06.03-.11.03-.14.07-.3.08-.29.14-.42.12-.28.2-.45.17-.31.27-.41.22-.2.35-.3.29-.14.45-.12c.26,0,.49.05.69.16s.34.21.42.3.13.18.15.27c.02.05.03.08.04.08s.05-.03.11-.1c.43-.47.94-.71,1.51-.71h.04c.43,0,.76.19.98.56.07.17.11.34.11.5,0,.27-.06.49-.18.65s-.24.27-.35.31-.23.06-.34.05c-.18,0-.33-.05-.43-.15s-.16-.23-.16-.39c0-.43.25-.72.76-.87-.2-.12-.36-.18-.49-.18-.51,0-.97.33-1.4,1-.09.14-.16.29-.2.45s-.2.76-.46,1.81c-.31,1.27-.48,1.94-.53,2.02-.12.24-.31.37-.58.37-.12,0-.21-.03-.29-.08s-.12-.11-.15-.16-.04-.1-.03-.14c0-.12.18-.9.54-2.33.36-1.44.54-2.24.54-2.4,0-.35-.12-.53-.35-.53-.19,0-.35.13-.49.38s-.24.53-.33.83-.13.46-.15.49c-.02.02-.09.03-.22.03H.08c-.05-.05-.08-.1-.08-.12Z"/><path id="c" d="m6.8 10.18-.04-.03s-.05-.02-.07-.04-.04-.05-.07-.08-.04-.08-.04-.12c0-.02 0-.05.03-.11.09-.14 1.4-1.64 3.92-4.52.46-.53 1.04-1.2 1.74-2 1.1-1.27 1.74-2 1.93-2.21s.33-.31.42-.31.15.03.19.08.06.12.07.19c0 .05-.01.1-.04.15 0 0-.17.19-.49.56s-.78.9-1.4 1.62c-.62.71-1.22 1.41-1.82 2.08l-3.67 4.19h3.61s3.62.01 3.62.01c.12.09.18.18.18.27 0 .11-.07.2-.2.27h-7.87z"/><path id="d" d="m16.11 7.47c0-.92.18-1.9.53-2.92s.83-1.9 1.44-2.65 1.24-1.17 1.89-1.28h.11c.06 0 .12 0 .16-.01.49.04.87.26 1.14.67.35.54.53 1.27.53 2.19 0 1.04-.2 2.1-.61 3.18s-.93 1.96-1.56 2.65-1.24 1.03-1.82 1.03h-.1c-.33 0-.61-.09-.84-.27-.24-.18-.41-.42-.53-.72s-.2-.6-.26-.91c-.05-.31-.08-.62-.08-.95zm4.73-4.97c0-.92-.24-1.38-.72-1.38-.33 0-.64.2-.95.61s-.56.87-.76 1.38-.35.97-.46 1.36-.17.62-.18.68c.44 0 .88.01 1.32.01h1.32s.05-.17.11-.46.14-.65.22-1.09.12-.81.11-1.11zm-3.67 5.89c0 .96.24 1.44.72 1.44.14 0 .28-.05.43-.14s.34-.26.56-.52c.22-.25.43-.65.65-1.18s.43-1.19.65-1.98l.07-.23h-2.65s-.04.2-.12.52-.15.67-.22 1.06-.1.73-.1 1.03z"/><path id="e" d="m26.54 5.47c0-.12.06-.21.19-.27h8.65c.14.07.2.16.2.27 0 .1-.06.19-.19.26h-4.32s-4.32.01-4.32.01c-.14-.05-.22-.14-.22-.27zm0 2.63c0-.14.07-.23.22-.27h8.63c.13.09.19.18.19.27 0 .12-.07.21-.2.27h-8.65c-.13-.06-.19-.15-.19-.27z"/><path id="f" d="m40.39 6.29s.02-.06.03-.11.03-.14.07-.3.08-.29.14-.42.12-.28.2-.45.17-.31.27-.41.22-.2.35-.3.29-.14.45-.12c.26 0 .49.05.69.16s.34.21.42.3.13.18.15.27c.02.05.03.08.04.08s.05-.03.11-.1c.43-.47.94-.71 1.51-.71h.04c.43 0 .76.19.98.56.07.17.11.34.11.5 0 .27-.06.49-.18.65s-.24.27-.35.31-.23.06-.34.05c-.18 0-.33-.05-.43-.15s-.16-.23-.16-.39c0-.43.25-.72.76-.87-.2-.12-.36-.18-.49-.18-.51 0-.97.33-1.4 1-.09.14-.16.29-.2.45s-.2.76-.46 1.81c-.31 1.27-.48 1.94-.53 2.02-.12.24-.31.37-.58.37-.12 0-.21-.03-.29-.08s-.12-.11-.15-.16-.04-.1-.03-.14c0-.12.18-.9.54-2.33.36-1.44.54-2.24.54-2.4 0-.35-.12-.53-.35-.53-.19 0-.35.13-.49.38s-.24.53-.33.83-.13.46-.15.49c-.02.02-.09.03-.22.03h-.19c-.05-.05-.08-.1-.08-.12z"/><path id="g" d="m47.51 6.79c0-.62.05-1.22.14-1.78s.19-1.05.31-1.45c.12-.41.29-.81.5-1.19s.39-.69.52-.91.32-.45.57-.71c.25-.25.4-.41.45-.46s.16-.15.34-.29h.23c.13 0 .19.04.19.12 0 .03-.08.12-.23.29s-.34.4-.56.72-.44.71-.67 1.17-.42 1.09-.57 1.87-.23 1.66-.23 2.62.08 1.83.23 2.61.34 1.41.56 1.89.44.87.67 1.17.42.54.57.72.23.28.23.29c0 .08-.07.12-.2.12h-.22l-.38-.33c-.85-.77-1.47-1.73-1.86-2.88s-.58-2.34-.58-3.58z"/><g><path id="h" d="m56.53 6.04h-.29c-.19 0-.35-.07-.49-.2s-.21-.31-.22-.52c0-.21.07-.38.2-.52.05-.05.07-.07.07-.08s-.05-.02-.14-.03c-.24-.04-.46-.05-.67-.05-.44 0-.81.14-1.09.43-.43.43-.64 1.14-.64 2.13 0 .74.14 1.33.42 1.75.37.55.87.83 1.49.83.37 0 .67-.12.9-.35.23-.24.39-.52.49-.84.02-.07.04-.12.07-.14s.1-.03.22-.03h.19c.05.05.08.1.08.12 0 .04-.02.11-.05.22s-.11.26-.22.45-.24.36-.39.52c-.15.15-.37.29-.65.42s-.59.19-.94.18c-.78 0-1.46-.29-2.04-.87s-.87-1.31-.88-2.19c0-.94.29-1.71.88-2.29.59-.59 1.27-.88 2.05-.88s1.32.12 1.63.37.46.53.46.87c0 .21-.08.38-.23.5l-.23.2z"/><path id="i" d="m57.92 7.28c0-.86.29-1.6.88-2.23.59-.62 1.3-.94 2.13-.95.81 0 1.52.31 2.1.92s.89 1.36.9 2.24c0 .86-.29 1.58-.87 2.17s-1.29.88-2.13.88-1.6-.3-2.16-.91-.85-1.32-.86-2.13zm3.01 2.49c1.1 0 1.66-.74 1.66-2.21v-.77c0-.2 0-.37-.01-.52s-.04-.32-.1-.52-.13-.36-.22-.49-.23-.25-.42-.38-.41-.22-.67-.27c-.05 0-.12-.01-.22-.01-.27 0-.53.05-.77.16-.39.2-.64.48-.76.83s-.18.77-.18 1.25v.27c0 .87.09 1.48.26 1.83.29.55.76.83 1.43.83z"/><path id="j" d="m68.33 5.89c0-.36-.12-.67-.37-.94s-.6-.39-1.06-.39c-.33 0-.61.06-.84.18-.27.17-.41.41-.41.71v.18s.08.18.22.33.33.26.58.34c.16.05.36.09.6.12s.43.08.6.12.31.1.43.18c.15.07.3.16.45.27s.29.29.43.56.22.54.23.84c0 .56-.17 1.02-.52 1.38-.34.36-.9.55-1.67.56h-.11c-.47 0-.9-.16-1.3-.49l-.11.1-.12.12c-.05.05-.11.1-.16.15l-.15.14h-.16s-.07-.03-.12-.08v-1.86c0-.19 0-.3.03-.34s.06-.06.14-.07h.12c.11 0 .18.02.22.05s.06.09.07.16.04.19.1.37c.05.17.14.36.26.57.32.46.76.69 1.32.69.88 0 1.32-.35 1.32-1.06 0-.26-.08-.48-.24-.64-.18-.22-.56-.38-1.13-.49s-.95-.21-1.13-.31c-.33-.15-.58-.36-.77-.62s-.29-.54-.29-.84c0-.35.08-.65.23-.9s.35-.43.58-.54.46-.2.68-.24.42-.07.6-.07h.15c.36 0 .68.07.95.2l.2.11.12-.1c.09-.08.19-.16.3-.23h.16s.07.03.12.08v1.79l-.08.08h-.38c-.05-.05-.08-.11-.08-.16z"/></g><path id="k" d="m72.41 7.47c0-.92.18-1.9.53-2.92s.83-1.9 1.44-2.65 1.24-1.17 1.89-1.28h.11c.06 0 .12 0 .16-.01.49.04.87.26 1.14.67.35.54.53 1.27.53 2.19 0 1.04-.2 2.1-.61 3.18s-.93 1.96-1.56 2.65-1.24 1.03-1.82 1.03h-.1c-.33 0-.61-.09-.84-.27-.24-.18-.41-.42-.53-.72s-.2-.6-.26-.91c-.05-.31-.08-.62-.08-.95zm4.72-4.97c0-.92-.24-1.38-.72-1.38-.33 0-.64.2-.95.61s-.56.87-.76 1.38-.35.97-.46 1.36-.17.62-.18.68c.44 0 .88.01 1.32.01h1.32s.05-.17.11-.46.14-.65.22-1.09.12-.81.11-1.11zm-3.66 5.89c0 .96.24 1.44.72 1.44.14 0 .28-.05.43-.14s.34-.26.56-.52c.22-.25.43-.65.65-1.18s.43-1.19.65-1.98l.07-.23h-2.65s-.04.2-.12.52-.15.67-.22 1.06-.1.73-.1 1.03z"/><path id="l" d="M82.08,6.96v-.18c0-.12.06-.21.19-.27h4.06V2.44c.1-.12.19-.18.27-.18.12,0,.21.07.27.2v4.05h4.05c.14.07.2.16.2.27s-.07.2-.2.27h-4.05v4.05c-.07.13-.15.19-.24.19h-.05c-.11,0-.19-.06-.24-.19v-4.05h-4.06c-.13-.06-.19-.15-.19-.27v.18Z"/><path id="m" d="m97.39 2.04c0-.22.09-.41.26-.57s.37-.25.6-.26c.16 0 .3.05.41.16s.17.24.18.41c0 .21-.09.4-.27.57s-.38.26-.6.27c-.14 0-.26-.05-.38-.14s-.18-.24-.19-.45zm-2.21 4.25c0-.07.04-.21.12-.42s.19-.44.33-.69.33-.48.6-.69.53-.31.81-.3c.35 0 .65.1.88.31s.36.49.37.84c0 .15-.06.41-.19.76s-.31.83-.54 1.43-.43 1.11-.57 1.53c-.05.2-.07.34-.07.43 0 .23.08.34.23.34.08 0 .17-.01.26-.04s.19-.09.31-.19.24-.26.37-.48.24-.48.34-.8c.03-.11.05-.17.07-.19s.1-.03.23-.03c.18 0 .27.05.27.14 0 .07-.04.21-.12.42s-.19.44-.34.69c-.14.25-.35.48-.61.68s-.54.3-.84.3-.56-.1-.8-.29-.37-.48-.38-.87c0-.15.02-.3.07-.43s.24-.65.58-1.55c.34-.91.54-1.46.6-1.64s.09-.36.1-.53c0-.22-.08-.33-.23-.33h-.03c-.27 0-.52.15-.75.45s-.4.68-.52 1.14c0 0-.02.02-.03.04s-.01.03-.01.04 0 .02-.03.03-.03.01-.04.01h-.35c-.05-.05-.08-.1-.08-.12z"/><path id="n" d="m103.65 6.79c0-.22.08-.41.23-.57s.35-.24.58-.24c.22 0 .41.07.57.22s.25.34.26.58c0 .23-.08.42-.23.58s-.35.24-.58.24-.43-.08-.58-.23-.24-.35-.24-.58z"/><g><path id="o" d="m113.39 5.89c0-.36-.12-.67-.37-.94s-.6-.39-1.06-.39c-.33 0-.61.06-.84.18-.27.17-.41.41-.41.71v.18s.08.18.22.33.33.26.58.34c.16.05.36.09.6.12s.43.08.6.12.31.1.43.18c.15.07.3.16.45.27s.29.29.43.56.22.54.23.84c0 .56-.17 1.02-.52 1.38-.34.36-.9.55-1.67.56h-.11c-.47 0-.9-.16-1.3-.49l-.11.1-.12.12c-.05.05-.11.1-.16.15l-.15.14h-.16s-.07-.03-.12-.08v-1.86c0-.19 0-.3.03-.34s.06-.06.14-.07h.12c.11 0 .18.02.22.05s.06.09.07.16.04.19.1.37c.05.17.14.36.26.57.32.46.76.69 1.32.69.88 0 1.32-.35 1.32-1.06 0-.26-.08-.48-.24-.64-.18-.22-.56-.38-1.13-.49s-.95-.21-1.13-.31c-.33-.15-.58-.36-.77-.62s-.29-.54-.29-.84c0-.35.08-.65.23-.9s.35-.43.58-.54.46-.2.68-.24.42-.07.6-.07h.15c.36 0 .68.07.95.2l.2.11.12-.1c.09-.08.19-.16.3-.23h.16s.07.03.12.08v1.79l-.08.08h-.38c-.05-.05-.08-.11-.08-.16z"/><path id="p" d="m115.67 1.91c0-.25.08-.45.24-.6s.36-.22.6-.22c.21.02.39.1.54.23s.23.33.23.58c0 .27-.08.48-.23.61s-.34.2-.57.2-.42-.07-.57-.2-.24-.34-.24-.61zm2.42 8.27c-.14-.03-.61-.04-1.41-.04h-.5c-.24 0-.46 0-.68.03h-.3s-.11.01-.11.01v-.62h.22c.25 0 .48-.01.67-.04.08-.04.13-.09.15-.15s.03-.25.03-.57v-2.59c0-.47 0-.77-.03-.9s-.08-.21-.19-.26c-.13-.06-.34-.1-.64-.1h-.15v-.31c0-.21 0-.31.03-.31h.14c.09-.02.22-.03.38-.04s.33-.02.49-.03c.15 0 .32-.02.49-.03s.3-.02.39-.04.14-.02.15-.01h.04v5.16c.05.09.1.14.16.16s.22.04.48.05h.31v.62h-.11z"/><path id="q" d="m119.06 9.56h.19c.35 0 .57-.06.64-.19v-.84c0-.15 0-.33.01-.53s0-.39 0-.57v-.9c0-.32 0-.58-.01-.8v-.31c-.03-.17-.09-.29-.19-.34s-.3-.1-.61-.12h-.24v-.31c0-.21 0-.31.03-.31h.14c.09-.02.22-.03.38-.04s.33-.02.5-.03c.15 0 .32-.02.49-.03.17 0 .3-.02.39-.04s.14-.02.15-.01h.04v.54c0 .34 0 .52.01.52s.03-.02.07-.07.09-.11.16-.2.16-.17.26-.24.23-.16.39-.26.33-.17.52-.22.41-.07.69-.07c1.03.04 1.61.55 1.72 1.53 0 .06.01.69.01 1.89v1.17c0 .34 0 .55.03.61s.07.11.15.14c.19.03.41.04.67.04h.22v.62h-.43c-.21-.02-.43-.03-.68-.03s-.42 0-.52-.01c-.93 0-1.44.01-1.52.04h-.11v-.62h.22c.55 0 .83-.07.83-.22 0-.02.01-.64.01-1.87 0-1.22-.02-1.87-.03-1.94-.05-.25-.14-.44-.27-.57s-.24-.2-.33-.23-.21-.04-.35-.03c-.41 0-.76.15-1.07.46-.24.24-.4.49-.46.75s-.1.63-.11 1.13v1.68c0 .27 0 .45.01.54 0 .09.02.15.04.18s.06.05.12.08c.19.03.41.04.67.04h.22v.62h-.42c-.22-.02-.45-.03-.69-.03s-.42 0-.52-.01c-.93 0-1.44.01-1.52.04h-.11v-.62h.22z"/></g><path id="r" d="m128.79 7.47c0-.92.18-1.9.53-2.92s.83-1.9 1.44-2.65 1.24-1.17 1.89-1.28h.11c.06 0 .12 0 .16-.01.49.04.87.26 1.14.67.35.54.53 1.27.53 2.19 0 1.04-.2 2.1-.61 3.18s-.93 1.96-1.56 2.65-1.24 1.03-1.82 1.03h-.1c-.33 0-.61-.09-.84-.27-.24-.18-.41-.42-.53-.72s-.2-.6-.26-.91c-.05-.31-.08-.62-.08-.95zm4.73-4.97c0-.92-.24-1.38-.72-1.38-.33 0-.64.2-.95.61s-.56.87-.76 1.38-.35.97-.46 1.36-.17.62-.18.68c.44 0 .88.01 1.32.01h1.32s.05-.17.11-.46.14-.65.22-1.09.12-.81.11-1.11zm-3.67 5.89c0 .96.24 1.44.72 1.44.14 0 .28-.05.43-.14s.34-.26.56-.52c.22-.25.43-.65.65-1.18s.43-1.19.65-1.98l.07-.23h-2.65s-.04.2-.12.52-.15.67-.22 1.06-.1.73-.1 1.03z"/><path id="s" d="m135.5.01h.05s.09-.01.14-.01h.16l.38.33c.85.77 1.47 1.73 1.86 2.88s.58 2.34.58 3.58c0 .62-.05 1.21-.14 1.78s-.19 1.05-.31 1.45-.29.8-.5 1.19c-.22.4-.39.7-.52.91s-.31.44-.56.69-.39.4-.43.45-.15.13-.31.26l-.05.05h-.31s-.05-.01-.07-.04-.03-.07-.04-.12c0 0 .06-.07.15-.18 1.4-1.46 2.1-3.61 2.1-6.45s-.7-4.99-2.1-6.45c-.09-.11-.14-.17-.15-.18 0-.07.02-.12.07-.15z"/></g><g><path id="t" d="m95.33 25.29s.02-.06.03-.11.03-.14.07-.3.08-.29.14-.42.12-.28.2-.45.17-.31.27-.41.22-.2.35-.3.29-.14.45-.12c.26 0 .49.05.69.16s.34.21.42.3.13.18.15.27c.02.05.03.08.04.08s.05-.03.11-.1c.43-.47.94-.71 1.51-.71h.04c.43 0 .76.19.98.56.07.17.11.34.11.5 0 .27-.06.49-.18.65s-.24.27-.35.31-.23.06-.34.05c-.18 0-.33-.05-.43-.15s-.16-.23-.16-.39c0-.43.25-.72.76-.87-.2-.12-.36-.18-.49-.18-.51 0-.97.33-1.4 1-.09.14-.16.29-.2.45s-.2.76-.46 1.81c-.31 1.27-.48 1.94-.53 2.02-.12.24-.31.37-.58.37-.12 0-.21-.03-.29-.08s-.12-.11-.15-.16-.04-.1-.03-.14c0-.12.18-.9.54-2.33.36-1.44.54-2.24.54-2.4 0-.35-.12-.53-.35-.53-.19 0-.35.13-.49.38s-.24.53-.33.83-.13.46-.15.49c-.02.02-.09.03-.22.03h-.19c-.05-.05-.08-.1-.08-.12z"/><path id="u" d="m102.22 28.71v-.34c0-.23.07-.42.22-.58s.34-.24.58-.24.48.11.68.34.3.62.31 1.19c0 .32-.04.62-.12.92s-.18.56-.29.77-.23.4-.35.56-.24.28-.33.37-.15.13-.18.12c-.04 0-.1-.04-.18-.12s-.12-.14-.12-.18.05-.11.15-.22.21-.24.34-.41c.13-.16.24-.39.35-.68s.18-.62.22-.99v-.16h-.01s-.04.03-.07.04-.05.02-.08.04-.07.03-.12.03-.11 0-.16.01c-.24 0-.44-.08-.6-.23l-.24-.24z"/><path id="v" d="m107.68 26.47c0-.92.18-1.9.53-2.92s.83-1.9 1.44-2.65 1.24-1.17 1.89-1.28h.11c.06 0 .12 0 .16-.01.49.04.87.26 1.14.67.35.54.53 1.27.53 2.19 0 1.04-.2 2.1-.61 3.18s-.93 1.96-1.56 2.65-1.24 1.03-1.82 1.03h-.1c-.33 0-.61-.09-.84-.27-.24-.18-.41-.42-.53-.72s-.2-.6-.26-.91c-.05-.31-.08-.62-.08-.95zm4.72-4.97c0-.92-.24-1.38-.72-1.38-.33 0-.64.2-.95.61s-.56.87-.76 1.38-.35.97-.46 1.36-.17.62-.18.68c.44 0 .88.01 1.32.01h1.32s.05-.17.11-.46.14-.65.22-1.09.12-.81.11-1.11zm-3.66 5.89c0 .96.24 1.44.72 1.44.14 0 .28-.05.43-.14s.34-.26.56-.52c.22-.25.43-.65.65-1.18s.43-1.19.65-1.98l.07-.23h-2.65s-.04.2-.12.52-.15.67-.22 1.06-.1.73-.1 1.03z"/><path id="w" d="m118.48 25.79c0-1.1.37-2.01 1.11-2.71.74-.71 1.62-1.11 2.63-1.21h.23c.14 0 .33 0 .57-.01s.46 0 .68 0h1.34c.14.07.2.16.2.27 0 .08-.06.17-.18.26h-1.41c-1 .02-1.62.05-1.86.1-.44.11-.84.27-1.18.49s-.61.44-.8.67-.35.48-.49.75-.22.49-.24.65-.05.32-.07.46v.03h6.03c.14.07.2.16.2.27s-.07.2-.2.27h-6.03v.03c0 .19.05.42.14.69s.24.57.45.88c.21.32.5.61.87.87s.81.45 1.32.56c.24.05.87.09 1.87.1h1.41c.12.09.18.18.18.27 0 .11-.07.2-.2.27h-1.66c-.16 0-.29 0-.39.01-1.4 0-2.51-.39-3.33-1.17-.8-.74-1.19-1.67-1.19-2.78z"/><path id="x" d="m139.45 27.41c0 .05-.05.15-.16.3s-.29.32-.53.52-.52.39-.81.57c-.3.18-.68.33-1.14.46s-.93.19-1.4.19c-.51 0-1-.07-1.49-.22-.49-.14-.95-.37-1.38-.67s-.81-.7-1.13-1.19c-.32-.5-.53-1.07-.64-1.72-.05-.2-.07-.56-.07-1.09s.02-.89.07-1.09c.2-1.06.65-1.92 1.34-2.58.7-.66 1.59-1.06 2.69-1.19.03 0 .13 0 .31-.01s.32-.01.42-.01c.49.03.98.14 1.47.33s.86.29 1.11.3c.16 0 .28-.03.35-.1s.11-.14.12-.22.03-.15.07-.22.1-.1.19-.11c.1 0 .18.05.24.16v2.84l-.05.1c-.12.06-.23.07-.34.03-.04-.04-.08-.14-.14-.33s-.16-.38-.31-.61c-.3-.42-.7-.8-1.19-1.14-.5-.34-1.03-.52-1.59-.52h-.12c-.4 0-.77.17-1.11.52-.79.71-1.18 2.01-1.18 3.92 0 .79.1 1.5.29 2.13.37 1.35 1.15 2.02 2.33 2.02s2.23-.45 3.2-1.36c.15-.15.27-.23.34-.23.05 0 .1.02.15.05s.09.09.1.16zm-5.89-6.71c.13-.16.18-.24.15-.24-.21.07-.42.18-.64.31s-.46.32-.72.56-.49.55-.69.94-.34.82-.42 1.3c-.05.27-.07.6-.07.99s.02.72.07.99c.09.5.24.95.46 1.34s.45.71.69.92.48.4.72.54.43.24.58.3l.23.07c-.06-.06-.12-.13-.18-.19-.59-.57-.96-1.5-1.13-2.8-.03-.24-.04-.65-.04-1.22s.01-.98.04-1.22c.17-1.13.48-2 .94-2.59zm5.03.82v-.81s-.07.03-.11.03c-.09.04-.19.05-.31.05h-.2l.18.19c.18.2.28.32.3.35l.15.19z"/></g></g></g></svg>
