<svg xmlns="http://www.w3.org/2000/svg" viewBox="0 0 5.71 13.56"><path d="M.77 2.24c.51-.73 1.2-1.1 2.08-1.1.43 0 .87.12 1.3.35s.79.65 1.06 1.25c.33.75.5 1.78.5 3.09 0 1.4-.19 2.47-.58 3.22-.18.38-.43.68-.75.91s-.59.37-.83.42-.47.09-.69.1c-.24 0-.47-.03-.71-.08s-.51-.2-.83-.43C1 9.73.75 9.43.57 9.06c-.39-.74-.58-1.81-.58-3.22 0-1.57.26-2.77.77-3.6Zm3.06-.16c-.27-.29-.59-.43-.96-.43s-.71.14-.98.43c-.23.24-.38.56-.45.98s-.11 1.28-.11 2.61c0 1.43.04 2.37.11 2.82s.24.81.49 1.07c.25.27.57.41.94.41s.67-.14.92-.41c.26-.27.43-.65.49-1.14s.1-1.41.11-2.76c0-1.31-.04-2.18-.11-2.59q-.105-.63-.45-.99"/></svg>