<svg xmlns="http://www.w3.org/2000/svg" viewBox="0 0 5.42 13.56"><path d="M.8 4.36c-.24 0-.44-.08-.58-.24a.89.89 0 0 1-.22-.6c0-.64.24-1.2.72-1.67s1.08-.71 1.79-.71c.82 0 1.51.25 2.06.76s.83 1.16.84 1.97q0 .585-.27 1.11c-.27.525-.4.66-.65.92s-.62.6-1.09 1c-.33.28-.78.7-1.36 1.25l-.8.76h1.03c1.42.01 2.18 0 2.27-.05.06-.02.17-.42.33-1.21v-.04h.54v.04s-.07.44-.18 1.24-.18 1.21-.2 1.25v.04H0v-.42c0-.06.03-.13.08-.2s.19-.23.41-.48c.26-.29.49-.54.68-.76.08-.09.24-.26.46-.5s.38-.41.46-.5.21-.24.39-.45.31-.36.38-.46.18-.24.31-.41.23-.32.29-.43.12-.25.2-.39.14-.29.18-.43.07-.28.1-.41.04-.28.04-.45c0-.57-.15-1.06-.46-1.48s-.75-.62-1.32-.62c-.3 0-.56.08-.79.23s-.38.3-.48.45-.14.23-.14.26c0 0 .02.01.07.01.16 0 .33.06.5.19s.26.33.26.62c0 .23-.07.42-.22.57s-.35.24-.61.24Z"/></svg>