<svg xmlns="http://www.w3.org/2000/svg" viewBox="0 0 5.63 13.56"><path d="M1.15 3.9c-.24 0-.43-.08-.57-.23s-.21-.35-.22-.6c0-.5.22-.94.65-1.33s.96-.58 1.57-.58c.32 0 .52 0 .6.01q1.005.165 1.53.72c.525.555.53.77.54 1.21 0 .47-.15.93-.46 1.37s-.73.76-1.28.96l-.04.03s.04.02.12.04.21.06.39.12.35.16.52.29c.74.48 1.11 1.11 1.11 1.9 0 .71-.28 1.34-.84 1.87s-1.27.8-2.13.8c-.72 0-1.35-.19-1.87-.58s-.79-.88-.79-1.48c0-.25.08-.46.24-.61s.37-.24.61-.24c.25 0 .46.08.62.24s.24.37.24.61c0 .1-.01.19-.04.27s-.06.15-.1.22-.09.12-.15.16-.12.08-.16.11-.09.05-.14.05-.08.02-.11.04H.94c.46.42 1.02.62 1.68.62.5 0 .87-.24 1.13-.72.15-.3.23-.76.23-1.37v-.27c0-.86-.29-1.43-.87-1.72-.14-.05-.41-.09-.83-.1h-.57l-.04-.04c-.02-.03-.03-.1-.03-.22 0-.16.04-.24.11-.24.25 0 .52-.02.79-.07q.465-.075.84-.57c.375-.495.38-.84.38-1.52v-.11c0-.52-.16-.87-.48-1.07-.2-.13-.41-.19-.64-.19-.29 0-.56.05-.8.15s-.42.2-.52.31-.15.16-.15.16h.04s.06.02.11.03.09.03.14.07.1.07.16.1.11.08.14.15.06.14.11.2.06.15.04.27c0 .2-.06.38-.19.53s-.33.24-.61.24Z"/></svg>