<svg xmlns="http://www.w3.org/2000/svg" viewBox="0 0 5.62 13.56"><path d="M0 5.93c0-1.47.37-2.64 1.1-3.5s1.55-1.29 2.44-1.29c.62 0 1.07.16 1.34.49s.41.69.41 1.09c0 .23-.06.41-.19.54s-.3.2-.53.2c-.21 0-.38-.06-.52-.19s-.2-.3-.2-.53c0-.4.21-.64.64-.72-.2-.2-.48-.31-.84-.34q-.96 0-1.59.81c-.43.6-.64 1.51-.64 2.74v.05q.09-.075.12-.18c.37-.54.86-.81 1.45-.81h.05c.42 0 .78.09 1.1.26.22.13.43.31.65.54s.39.49.53.77c.19.44.29.93.29 1.45v.24c0 .21-.02.4-.07.58q-.15.795-.87 1.56c-.48.51-1.09.76-1.82.76-.25 0-.5-.04-.73-.11-.24-.07-.49-.21-.76-.41s-.5-.47-.69-.8-.35-.77-.49-1.32S0 6.66 0 5.93m2.92-1.14c-.27 0-.51.08-.71.23s-.35.36-.46.61-.19.51-.23.77-.07.54-.08.84c0 .75.05 1.29.16 1.62s.28.59.52.79q.33.24.72.24c.46 0 .81-.17 1.06-.52.12-.16.2-.37.24-.61s.07-.72.07-1.43-.02-1.21-.07-1.45-.13-.45-.24-.61c-.24-.33-.57-.49-.98-.49Z"/></svg>