<svg xmlns="http://www.w3.org/2000/svg" viewBox="0 0 5.84 13.56"><path d="M0 3.96s.09-.51.23-1.48l.22-1.45S.54 1 .72 1h.27v.05c0 .09.07.17.2.23s.37.1.71.12 1.1.03 2.29.03h1.64v.53l-.92 1.26c-.08.11-.22.29-.41.54s-.31.42-.37.5-.15.23-.29.43-.23.37-.27.49-.11.29-.19.5-.14.43-.18.62-.07.44-.11.73-.06.6-.08.92-.03.7-.04 1.11v.38c0 .13 0 .24-.01.33v.12c-.04.15-.12.29-.26.39s-.29.16-.46.16c-.1 0-.19-.01-.29-.04s-.19-.11-.29-.26-.15-.33-.15-.54c0-1.43.44-2.91 1.32-4.45.18-.29.56-.84 1.14-1.64l.62-.86H3.33c-1.57 0-2.4.03-2.48.08q-.075.045-.15.33c-.075.285-.09.38-.14.58l-.04.29v.04h-.54v-.04Z"/></svg>