<svg viewBox="0 0 270.35 170.24" xmlns="http://www.w3.org/2000/svg"><defs><style>.cls-1 {
        fill: none;
      }

      .cls-2 {
        clip-path: url(#a);
      }

      .cls-3 {
        clip-path: url(#b);
      }</style><clipPath id="b"><rect class="cls-1" x="65.1" y="11.92" width="13.12" height="61.26"/></clipPath><clipPath id="a"><rect class="cls-1" x="65.1" y="97.06" width="13.12" height="61.26"/></clipPath></defs><g id="c"><path d="m1.36 87.24c0 .3.12.57.35.81.24.24.53.36.87.37.37 0 .7-.11.99-.34s.48-.52.58-.88c.02-.07.03-.39.04-.97 0-.57 0-.85-.01-.85-.08 0-.18 0-.31.01s-.35.05-.66.13-.6.18-.86.29c-.26.12-.48.3-.68.55s-.3.54-.31.88zm.16-2.93h-.32c-.22 0-.4-.07-.55-.22s-.22-.34-.22-.57c0-.34.17-.65.5-.91.33-.27.93-.4 1.79-.4.72 0 1.3.16 1.74.47s.74.69.89 1.12c.05.14.07.29.07.46s0 .73.01 1.69v1.03c0 .47.02.8.07.97.05.18.15.27.31.27.15 0 .25-.08.3-.24s.07-.42.07-.78v-.53h.59v.57c0 .39-.02.62-.04.69-.09.29-.26.53-.52.69s-.53.26-.81.27c-.29 0-.52-.08-.69-.27-.18-.19-.3-.39-.35-.62v-.06l-.03.04s-.04.06-.07.09-.07.07-.12.13-.11.11-.18.16-.14.11-.22.18-.17.12-.27.16-.21.08-.32.12-.25.07-.38.09c-.14.02-.29.03-.46.04-.59 0-1.12-.15-1.59-.46-.47-.3-.71-.73-.71-1.28 0-.21.03-.4.1-.59s.2-.39.4-.6c.2-.22.43-.4.71-.55s.66-.28 1.15-.41 1.03-.2 1.62-.22h.21v-.32c0-.33-.03-.58-.09-.74-.22-.7-.69-1.05-1.43-1.05-.18 0-.34 0-.5.01-.16 0-.28.03-.37.06s-.13.04-.12.04c.22.15.32.36.32.65 0 .25-.08.44-.24.57l-.25.22z"/><path d="m7.41 88.13h.21c.38 0 .61-.07.69-.21v-.46c0-.14 0-.29.01-.46v-.57-.62-2.18c-.04-.19-.11-.31-.22-.37s-.33-.1-.66-.13h-.27v-.34c0-.23 0-.34.03-.34h.15c.1-.02.24-.03.41-.04s.35-.02.53-.03c.16 0 .33-.02.52-.03s.33-.02.43-.04.15-.02.16-.01h.04v1.02c.38-.67.86-1 1.43-1h.09c.44 0 .77.11.97.32.21.22.31.44.31.68 0 .21-.06.38-.19.53s-.31.22-.56.22-.43-.08-.55-.24-.18-.32-.19-.5c0-.09 0-.17.03-.24.02-.07.04-.13.07-.18s.04-.07.04-.07c-.02-.02-.13 0-.34.06-.16.08-.28.15-.35.22-.46.44-.69 1.32-.69 2.64v1.56c0 .12 0 .22.01.29v.22.07s.02.04.04.06.04.03.07.04.05.02.07.04.05.03.1.03.08 0 .1.01.06.01.13.01h.13s.07 0 .15.01.13 0 .15 0h.46v.68h-.13c-.18-.03-.8-.04-1.87-.04-1.01 0-1.56.01-1.65.04h-.12v-.68h.24z"/><path d="m18.12 84.31h-.31c-.21 0-.38-.07-.53-.22s-.23-.33-.24-.56c0-.23.07-.41.22-.56.05-.05.07-.08.07-.09s-.05-.02-.15-.03c-.26-.04-.5-.06-.72-.06-.48 0-.88.16-1.18.47-.46.46-.69 1.23-.69 2.31 0 .81.15 1.44.46 1.9.4.6.94.9 1.62.9.4 0 .73-.13.97-.38.25-.26.42-.56.53-.91.02-.08.04-.13.07-.15s.11-.03.24-.03h.21c.06.06.09.1.09.13 0 .04-.02.12-.06.24s-.12.28-.24.49-.26.39-.43.56-.4.32-.71.46c-.3.14-.64.2-1.02.19-.85 0-1.58-.31-2.21-.94s-.95-1.42-.96-2.37c0-1.02.32-1.85.96-2.49s1.38-.96 2.23-.96 1.44.13 1.77.4.5.58.5.94c0 .23-.08.41-.25.55l-.25.22z"/><path d="m19.61 82.59c.52-.04.92-.31 1.21-.83.29-.51.44-1.11.47-1.8v-.22h.59v2.71h1.99v.68h-1.99v2.12c0 1.23.01 1.92.01 2.08s.03.31.1.47c.14.38.38.57.72.57.43 0 .7-.35.8-1.05 0-.08.01-.3.01-.68v-.52h.59v.69c0 .76-.21 1.33-.62 1.72-.27.27-.61.4-1.03.4-.33 0-.62-.06-.87-.18s-.43-.27-.56-.46-.22-.36-.28-.52-.09-.31-.1-.47c0-.07-.01-.8-.01-2.18v-2.02h-1.17v-.55h.13z"/><path d="m26.81 87.24c0 .3.12.57.35.81.24.24.53.36.87.37.37 0 .7-.11.99-.34s.48-.52.58-.88c.02-.07.03-.39.04-.97 0-.57 0-.85-.01-.85-.08 0-.18 0-.31.01-.13 0-.35.05-.66.13s-.6.18-.86.29c-.26.12-.48.3-.68.55s-.3.54-.31.88zm.16-2.93h-.32c-.22 0-.4-.07-.55-.22s-.22-.34-.22-.57c0-.34.17-.65.5-.91s.93-.4 1.79-.4c.72 0 1.3.16 1.74.47s.74.69.89 1.12c.05.14.07.29.07.46s0 .73.01 1.69v1.03c0 .47.02.8.07.97.05.18.15.27.31.27.15 0 .25-.08.3-.24s.07-.42.07-.78v-.53h.59v.57c0 .39-.02.62-.04.69-.09.29-.26.53-.52.69s-.53.26-.81.27c-.29 0-.52-.08-.69-.27s-.3-.39-.35-.62v-.06l-.03.04s-.04.06-.07.09-.07.07-.12.13-.11.11-.18.16-.14.11-.22.18-.17.12-.27.16-.21.08-.32.12-.25.07-.38.09c-.14.02-.29.03-.46.04-.59 0-1.12-.15-1.59-.46-.47-.3-.71-.73-.71-1.28 0-.21.03-.4.1-.59s.2-.39.4-.6c.2-.22.43-.4.71-.55s.66-.28 1.15-.41 1.03-.2 1.62-.22h.21v-.32c0-.33-.03-.58-.09-.74-.22-.7-.69-1.05-1.43-1.05-.18 0-.34 0-.5.01-.16 0-.28.03-.37.06s-.13.04-.12.04c.22.15.32.36.32.65 0 .25-.08.44-.24.57l-.25.22z"/><path d="m32.93 88.13h.21c.38 0 .61-.07.69-.21v-.91c0-.17 0-.36.01-.57v-.62-.97c0-.34 0-.63-.01-.87v-.34c-.03-.19-.1-.31-.21-.37s-.33-.1-.66-.13h-.27v-.34c0-.23 0-.34.03-.34h.15c.1-.02.24-.03.41-.04.18 0 .36-.02.55-.03.17 0 .34-.02.53-.03.19 0 .33-.02.43-.04s.15-.02.16-.01h.04v.59c0 .37 0 .56.01.56s.03-.02.07-.07.1-.12.18-.22.17-.19.28-.27.25-.17.43-.28.36-.19.56-.24.45-.07.75-.07c1.12.04 1.75.59 1.87 1.67 0 .07.01.75.01 2.05v1.27c0 .37 0 .59.03.66.02.07.07.12.16.15.21.03.45.04.72.04h.24v.68h-.47c-.23-.02-.47-.03-.74-.03s-.45 0-.56-.01c-1.01 0-1.56.01-1.65.04h-.12v-.68h.24c.6 0 .9-.08.9-.24 0-.02.01-.7.01-2.03s-.02-2.03-.03-2.11c-.06-.28-.16-.48-.3-.62s-.26-.22-.35-.25-.23-.04-.38-.03c-.44 0-.83.17-1.17.5-.27.27-.43.54-.5.81-.07.28-.11.68-.12 1.22v1.83c0 .29 0 .49.01.59 0 .1.02.16.04.19s.06.06.13.09c.21.03.45.04.72.04h.24v.68h-.46c-.24-.02-.49-.03-.75-.03s-.45 0-.56-.01c-1.01 0-1.56.01-1.65.04h-.12v-.68h.24z"/><path d="m43.75 84.55c.07-.41.33-.89.8-1.43s1.03-.82 1.71-.83c.34 0 .66.09.94.27.29.18.5.4.63.66.41-.62.91-.93 1.49-.93.36 0 .68.11.94.32.27.22.4.51.41.87 0 .28-.07.52-.21.69-.14.18-.27.28-.4.32s-.24.06-.34.06c-.19 0-.34-.05-.46-.16s-.18-.25-.18-.43c0-.45.25-.76.74-.93-.11-.13-.3-.19-.59-.19-.13 0-.22 0-.28.03-.37.16-.65.48-.83.97-.59 2.17-.89 3.44-.89 3.8 0 .28.08.47.24.59s.33.18.52.18c.36 0 .72-.16 1.08-.49s.6-.72.72-1.19c.03-.1.06-.15.09-.16s.11-.02.24-.03h.06c.15 0 .22.04.22.12 0 0 0 .06-.03.16-.16.56-.46 1.06-.91 1.49s-.98.65-1.58.65c-.69 0-1.21-.31-1.56-.93-.4.61-.87.91-1.39.91h-.09c-.48 0-.83-.13-1.03-.38-.21-.26-.31-.53-.32-.81 0-.31.09-.57.28-.77s.41-.29.66-.29c.42 0 .63.21.63.62 0 .2-.06.37-.18.52s-.23.25-.34.29c-.11.05-.17.07-.19.07h-.04s.03.04.09.07.14.06.24.1.19.05.28.04c.35 0 .66-.22.91-.66.09-.16.2-.49.34-1s.28-1.04.41-1.59c.14-.55.22-.87.24-.97.05-.27.07-.46.07-.57 0-.28-.07-.47-.22-.59s-.31-.18-.5-.18c-.39 0-.76.16-1.11.47-.34.31-.59.72-.72 1.21-.02.09-.04.14-.07.15-.03 0-.11.02-.24.03h-.21c-.06-.06-.09-.11-.09-.16z"/><path d="m54.35 86.55c0-.15.08-.25.24-.29h9.38c.14.1.21.2.21.29 0 .13-.07.23-.22.29h-9.4c-.14-.07-.21-.17-.21-.29zm0-2.86c0-.13.07-.23.21-.29h9.4c.15.08.22.18.22.29s-.07.2-.21.28h-4.69s-4.69.01-4.69.01c-.16-.05-.24-.15-.24-.29z"/><path d="m75.6 0 .09.09v.41c0 .11-.07.2-.21.28-.76.52-1.38 1.19-1.87 2s-.82 1.72-.99 2.73c0 0 0 .03-.01.06-.04.28-.06 1.12-.07 2.53v1.61c0 2.38 0 3.58-.01 3.6 0 .04-.05.06-.13.07s-.32.01-.74.01c-.51 0-.78 0-.8-.01-.03 0-.05-.03-.06-.06-.02-.1-.03-1.25-.03-3.46v-1.21c0-.49 0-.84-.01-1.03 0-.97.04-1.72.13-2.25s.3-1.12.62-1.78c.75-1.47 1.88-2.63 3.39-3.48l.19-.1h.52z"/><path d="m75.69 170.16-.09.09h-.52l-.16-.09c-1.22-.67-2.19-1.55-2.92-2.64s-1.14-2.26-1.22-3.51c0-.1-.01-1.05-.01-2.86 0-2.8 0-4.21.01-4.23l.06-.06s.3-.01.81-.01c.41 0 .66 0 .74.01.08 0 .12.03.13.07 0 .02.01 1.21.01 3.58v1.87c0 1.02.02 1.74.06 2.17.04.42.15.89.32 1.41.16.47.35.91.58 1.31s.46.74.71 1.02.46.5.65.66c.19.17.37.32.56.46s.28.2.27.19 0 .09.01.29v.25z"/><path d="m70.84 71.73s.34-.01.97-.01c.4 0 .61 0 .63.01.03 0 .05.03.06.06.02.1.03 1.23.03 3.4 0 2.29 0 3.48-.01 3.57-.09 1.31-.47 2.5-1.15 3.58s-1.57 1.96-2.69 2.65l-.21.13.21.13c1.04.65 1.92 1.51 2.63 2.58s1.11 2.29 1.21 3.65c0 .09.01 1.28.01 3.57v3.02c0 .28-.02.43-.07.44h-.01s-.29.01-.8.01-.78 0-.8-.01c-.03 0-.05-.03-.06-.06-.02-.1-.03-1.23-.03-3.39v-2.11c0-1.04-.03-1.86-.1-2.45s-.24-1.21-.52-1.86c-.17-.43-.37-.84-.6-1.21-.24-.37-.46-.68-.68-.93s-.42-.45-.6-.6c-.19-.16-.34-.28-.46-.38l-.18-.15s-.01-.1-.01-.27 0-.26.01-.27c0 0 .1-.09.3-.24s.44-.38.72-.69c.29-.31.58-.69.89-1.12.3-.43.57-1.01.8-1.72.23-.72.37-1.48.43-2.28 0-.12.01-1.33.01-3.63s0-3.36.01-3.39l.06-.06z"/><g class="cls-3"><path d="M70.76,38.79V3.84c0-7.63.02-11.95.07-12.96.02-.2.34-.3.97-.3.4,0,.61.1.63.3.04.2.06,1.31.07,3.31,0,3.01.01,17.88.01,44.59v41.58c0,4.02-.02,6.13-.07,6.33h-.01c-.02.2-.29.3-.8.3s-.78-.1-.8-.3c-.04-.2-.06-1.31-.07-3.31,0-3.01-.01-17.88-.01-44.59Z"/></g><g class="cls-2"><path d="m70.76 123.92v-34.95c0-7.63.02-11.95.07-12.96.02-.2.34-.3.97-.3.4 0 .61.1.63.3.04.2.06 1.31.07 3.31 0 3.01.01 17.88.01 44.59v41.58c0 4.02-.02 6.13-.07 6.33h-.01c-.02.2-.29.3-.8.3s-.78-.1-.8-.3c-.04-.2-.06-1.31-.07-3.31 0-3.01-.01-17.88-.01-44.59z"/></g><path d="m77.1 9.06s3-.03 8.93-.03h8.88l.86 1.99c.58 1.36.89 2.07.93 2.15h-.59l-.1-.21c-.21-.4-.48-.79-.83-1.15-.49-.47-1.04-.85-1.64-1.13s-1.29-.5-2.08-.63c-.79-.14-1.53-.22-2.23-.25s-1.6-.05-2.7-.06h-6.61l.12.16c4.55 6.22 6.84 9.36 6.86 9.42v.09c-.03.03-1.33 1.51-3.89 4.45l-3.89 4.42s1.04.01 3.11.01h2.08c.88 0 1.5 0 1.89.01 1.34 0 2.42-.02 3.25-.07s1.65-.15 2.46-.31c.82-.16 1.51-.4 2.08-.72s1.08-.75 1.52-1.28c.21-.26.41-.61.6-1.06h.59s-.03.11-.1.31-.19.52-.37.96-.33.85-.46 1.24l-.86 2.28h-8.87c-5.92.01-8.9 0-8.93-.01-.06-.02-.09-.06-.09-.13 0-.02 0-.05.03-.09l7.86-8.99s-.16-.23-.49-.66c-.32-.43-.84-1.14-1.55-2.12s-1.35-1.86-1.92-2.62l-3.92-5.38v-.22c-.01-.21 0-.32.06-.35z"/><path d="m77.29 36.07s.02-.1.03-.17.06-.2.13-.4c.07-.19.14-.36.21-.49s.18-.26.34-.39c.16-.12.32-.18.48-.18.25 0 .46.06.63.19.17.12.27.24.31.35s.06.18.06.22c0 .01 0 .02.01.02l.11-.11c.42-.44.91-.67 1.45-.67.38 0 .68.09.91.28s.35.46.35.82-.13.91-.4 1.64-.4 1.17-.4 1.32c0 .18.06.27.18.27.04 0 .07 0 .09-.01.2-.03.38-.17.54-.4s.28-.51.37-.83c.01-.06.08-.08.21-.08.14 0 .21.03.21.08 0 0-.01.06-.04.16-.06.2-.13.4-.23.59s-.26.39-.48.58-.46.29-.72.28c-.33 0-.56-.09-.71-.28s-.22-.38-.22-.58c0-.13.13-.55.38-1.25s.38-1.23.39-1.58c0-.41-.15-.61-.46-.61h-.05c-.6 0-1.1.35-1.51 1.05l-.07.12-.34 1.4c-.23.91-.36 1.4-.4 1.47-.09.19-.24.28-.45.28-.09 0-.16-.02-.22-.06s-.09-.08-.11-.12-.03-.08-.02-.1c0-.09.13-.66.4-1.7.26-1.04.4-1.61.42-1.7 0-.03.01-.11.01-.24 0-.27-.08-.41-.25-.41-.26 0-.48.35-.66 1.04-.04.14-.06.21-.06.22-.01.04-.08.06-.2.06h-.15s-.06-.07-.06-.09z"/><path d="m83.91 37.46c0-.1.06-.17.17-.21h6.63c.1.07.15.14.15.21 0 .09-.05.16-.16.21h-6.64c-.1-.05-.15-.12-.15-.21zm0-2.02c0-.09.05-.16.15-.21h6.64c.1.06.16.12.16.21 0 .08-.05.14-.15.2h-3.32s-3.32.01-3.32.01c-.11-.03-.17-.1-.17-.21z"/><path d="m94.79 32.84c-.21-.22-.46-.33-.74-.33s-.54.11-.75.33c-.17.18-.29.43-.34.75-.06.32-.08.99-.08 2 0 1.1.03 1.82.08 2.17.06.35.18.62.38.82.19.21.43.31.72.31s.51-.1.71-.31.33-.5.38-.88.08-1.08.08-2.12c0-1.01-.03-1.67-.08-1.99-.06-.32-.17-.57-.34-.76zm-2.35.12c.39-.56.92-.84 1.6-.84.33 0 .67.09 1 .27s.6.5.81.96c.26.58.39 1.37.39 2.38 0 1.08-.15 1.9-.45 2.47-.14.29-.33.52-.57.7-.24.17-.46.28-.64.32s-.36.07-.53.07c-.18 0-.36-.02-.54-.06s-.39-.15-.64-.33c-.24-.18-.43-.41-.57-.7-.3-.57-.45-1.39-.45-2.47 0-1.21.2-2.13.59-2.76z"/><path d="m82.61 3.85c0 .48.14.91.41 1.3s.65.58 1.13.58c.82 0 1.57-.56 2.26-1.67l-.32-.42c-.42-.55-.74-.91-.95-1.08-.34-.3-.69-.45-1.05-.45-.43 0-.78.17-1.05.51s-.41.75-.42 1.22zm8.5-.03c0-.47-.13-.9-.4-1.29-.26-.39-.64-.58-1.13-.58-.15 0-.29.02-.43.05s-.27.08-.4.15c-.13.06-.24.13-.35.2s-.21.15-.3.25-.18.18-.26.26-.15.16-.21.26-.11.17-.16.23-.09.11-.11.18l-.05.08.32.42c.22.28.38.49.5.63s.26.29.44.46c.17.17.35.28.52.34s.35.1.53.1c.43 0 .79-.17 1.06-.51.28-.34.42-.75.42-1.22zm-8.89 0c0-.61.19-1.15.58-1.63.39-.47.89-.71 1.49-.72.61 0 1.19.21 1.72.64.26.22.52.49.77.81l.15.2.07-.1c.72-1.03 1.53-1.54 2.43-1.54.6 0 1.09.24 1.47.71s.58 1.03.58 1.67c0 .6-.19 1.14-.57 1.61-.38.48-.89.72-1.52.73-.6 0-1.16-.21-1.7-.64-.26-.22-.52-.49-.77-.81l-.15-.2-.07.1c-.72 1.03-1.53 1.54-2.43 1.54-.6 0-1.09-.24-1.47-.71s-.58-1.03-.58-1.67z"/><path d="m106.76 8.88c0-.68.05-1.32.15-1.93s.21-1.13.34-1.58c.13-.44.31-.87.55-1.3.24-.42.42-.75.56-.99s.34-.49.62-.77.44-.44.49-.5.17-.16.37-.31h.25c.14 0 .21.04.21.13 0 .03-.08.13-.25.31s-.37.44-.6.78c-.24.34-.48.77-.72 1.27s-.45 1.18-.62 2.03-.25 1.8-.25 2.84.08 1.98.25 2.83c.17.84.37 1.53.6 2.05.24.52.48.94.72 1.27.25.32.45.58.62.78s.25.3.25.31c0 .09-.07.13-.22.13h-.24l-.41-.35c-.92-.84-1.6-1.88-2.02-3.12-.42-1.25-.63-2.54-.63-3.89z"/><path d="m112.35 9.07v-.19c0-.13.07-.23.21-.29h8.57c.15.08.22.18.22.29s-.07.22-.22.29h-8.57c-.14-.07-.21-.17-.21-.29v.19z"/><path d="m125.73 4.05-.19.07c-.14.05-.33.1-.59.15s-.54.08-.86.1h-.28v-.68h.28c.46-.02.89-.09 1.28-.22s.67-.25.83-.35c.16-.11.3-.22.41-.32.02-.03.08-.04.18-.04.09 0 .17.03.25.09v8.83c.08.07.14.11.19.13s.17.04.35.06c.19.02.49.03.91.03h.38v.68h-.16c-.21-.03-.99-.04-2.35-.04s-2.11.01-2.32.04h-.18v-.68h.94c.16 0 .28 0 .37-.01.09 0 .17-.02.24-.04s.11-.03.12-.03.04-.02.09-.07.08-.07.09-.06v-7.62z"/><path d="m130.85 1.53h.06s.1-.01.15-.01h.18l.41.35c.92.84 1.6 1.88 2.02 3.12.42 1.25.63 2.54.63 3.89 0 .67-.05 1.31-.15 1.93s-.21 1.14-.34 1.58c-.13.43-.31.86-.55 1.3-.24.43-.42.76-.56.99s-.34.48-.6.75c-.27.28-.42.44-.47.49s-.16.14-.34.28l-.06.06h-.34s-.05-.01-.07-.04-.03-.07-.04-.13c0 0 .06-.07.16-.19 1.52-1.58 2.29-3.92 2.29-7s-.76-5.42-2.29-7c-.1-.12-.15-.18-.16-.19 0-.08.02-.13.07-.16z"/><path d="m135.93 4.22s.02-.1.03-.17.06-.2.13-.4c.07-.19.14-.36.21-.49s.18-.26.34-.39.32-.18.48-.18c.25 0 .46.06.63.19s.27.24.31.35.06.18.06.22c0 .01 0 .02.01.02l.11-.11c.42-.44.91-.67 1.45-.67.38 0 .68.09.91.28s.35.46.35.82-.13.91-.4 1.64-.4 1.17-.4 1.32c0 .18.06.27.18.27.04 0 .07 0 .09-.01.2-.03.38-.17.54-.4s.28-.51.37-.83c.01-.06.08-.08.21-.08.14 0 .21.03.21.08 0 0-.01.06-.04.16-.06.2-.13.4-.23.59s-.26.39-.48.58-.46.29-.72.28c-.33 0-.56-.09-.71-.28s-.22-.38-.22-.58c0-.13.13-.55.38-1.25s.38-1.23.39-1.58c0-.41-.15-.61-.46-.61h-.05c-.6 0-1.1.35-1.51 1.05l-.07.13-.34 1.4c-.23.91-.36 1.4-.4 1.47-.09.19-.24.28-.45.28-.09 0-.16-.02-.22-.06s-.09-.08-.11-.13-.03-.08-.02-.1c0-.09.13-.66.4-1.7s.4-1.61.42-1.7c0-.03.01-.11.01-.24 0-.27-.08-.41-.25-.41-.26 0-.48.35-.66 1.04-.04.14-.06.21-.06.22-.01.04-.08.06-.2.06h-.15s-.06-.07-.06-.09z"/><path d="m104.83 26.81c-.27 0-.48-.09-.63-.27-.16-.18-.24-.39-.24-.65 0-.7.26-1.3.78-1.81s1.17-.77 1.95-.77c.9 0 1.64.28 2.24.83s.9 1.26.91 2.14c0 .42-.1.83-.3 1.21s-.43.72-.71 1-.67.65-1.18 1.09c-.35.3-.85.76-1.48 1.36l-.87.83h1.12c1.54.01 2.37 0 2.46-.06.07-.02.19-.46.35-1.31v-.04h.59v.04s-.07.48-.19 1.34-.19 1.32-.22 1.36v.04h-5.47v-.46c0-.07.03-.14.09-.22s.21-.25.44-.52c.29-.31.53-.59.74-.83.09-.1.26-.28.5-.55s.41-.45.5-.55.23-.26.43-.49.33-.39.41-.5.19-.26.34-.44c.15-.19.25-.34.31-.47s.13-.27.22-.43.15-.31.19-.47.07-.3.1-.44.04-.3.04-.49c0-.62-.17-1.15-.5-1.61-.33-.45-.81-.68-1.43-.68-.32 0-.61.08-.86.25s-.42.33-.52.49-.15.25-.15.28c0 0 .02.01.07.01.18 0 .36.07.55.21s.28.36.28.68c0 .25-.08.45-.24.62s-.38.26-.66.27z"/><path d="m110.91 28.91c0-.06.02-.14.04-.24s.08-.28.18-.56.2-.51.3-.69c.1-.19.26-.37.49-.55s.45-.26.68-.25c.35 0 .65.09.89.27s.38.34.44.5.09.26.09.31c0 .02 0 .03.01.03l.16-.16c.6-.63 1.28-.94 2.05-.94.53 0 .96.13 1.28.4s.49.65.5 1.16-.18 1.28-.56 2.31-.57 1.66-.56 1.87c0 .26.08.38.25.38.06 0 .1 0 .13-.01.29-.05.54-.24.77-.56s.4-.72.52-1.18c.02-.08.12-.12.3-.12.2 0 .3.04.3.12 0 0-.02.08-.06.22-.08.28-.19.56-.32.84s-.36.55-.68.83c-.31.28-.65.41-1.02.4-.46 0-.8-.13-1-.4s-.31-.54-.31-.83c0-.19.18-.78.53-1.77s.54-1.74.55-2.24c0-.58-.22-.87-.65-.87h-.07c-.85 0-1.56.5-2.14 1.49l-.1.18-.49 1.97c-.32 1.29-.51 1.98-.56 2.08-.13.27-.34.4-.63.4-.13 0-.23-.03-.31-.09s-.13-.12-.16-.18-.04-.11-.03-.15c0-.13.19-.93.56-2.4s.57-2.27.59-2.4c0-.05.01-.16.01-.34 0-.38-.12-.57-.35-.57-.37 0-.68.49-.93 1.47-.06.2-.09.3-.09.31-.02.06-.11.09-.28.09h-.21c-.06-.06-.09-.1-.09-.13z"/><path d="m123.55 29.64v-.19c0-.13.07-.23.21-.29h4.41v-4.42c.11-.13.21-.19.3-.19.13 0 .23.07.3.22v4.39h4.4c.15.08.22.18.22.29s-.07.22-.22.29h-4.4v4.39c-.08.14-.17.21-.27.21h-.06c-.12 0-.21-.07-.27-.21v-4.39h-4.41c-.14-.07-.21-.17-.21-.29v.19z"/><path d="m140.63 24.62-.19.07c-.14.05-.33.1-.59.15s-.54.08-.86.1h-.28v-.68h.28c.46-.02.89-.09 1.28-.22s.67-.25.83-.35c.16-.11.3-.22.41-.32.02-.03.08-.04.18-.04.09 0 .17.03.25.09v8.83c.08.07.14.11.19.13s.17.04.35.06c.19.02.49.03.91.03h.38v.68h-.16c-.21-.03-.99-.04-2.35-.04s-2.11.01-2.32.04h-.18v-.68h.94c.16 0 .28 0 .37-.01.09 0 .17-.02.24-.04s.11-.03.12-.03.04-.02.09-.07.08-.07.09-.06v-7.62z"/><rect x="101.75" y="18.9" width="44.59" height=".88"/><path d="m148.87 18.77c.07-.41.33-.89.8-1.43.46-.54 1.03-.82 1.71-.83.34 0 .66.09.94.27.29.18.5.4.63.66.41-.62.91-.93 1.49-.93.36 0 .68.11.94.32.27.22.4.51.41.87 0 .28-.07.52-.21.69-.14.18-.27.28-.4.32s-.24.06-.34.06c-.19 0-.34-.05-.46-.16s-.18-.25-.18-.43c0-.45.25-.76.74-.93-.11-.13-.3-.19-.59-.19-.13 0-.22 0-.28.03-.37.16-.65.48-.83.97-.59 2.17-.89 3.44-.89 3.8 0 .28.08.47.24.59s.33.18.52.18c.36 0 .72-.16 1.08-.49.35-.32.6-.72.72-1.19.03-.1.06-.15.09-.16s.11-.02.24-.03h.06c.15 0 .22.04.22.12 0 0 0 .06-.03.16-.16.56-.46 1.06-.91 1.49s-.98.65-1.58.65c-.69 0-1.21-.31-1.56-.93-.4.61-.87.91-1.39.91h-.09c-.48 0-.83-.13-1.03-.38s-.31-.53-.32-.81c0-.31.09-.57.28-.77s.41-.29.66-.29c.42 0 .63.21.63.62 0 .2-.06.37-.18.52s-.23.25-.34.29-.17.07-.19.07h-.04s.03.04.09.07.14.06.24.1.19.05.28.04c.35 0 .66-.22.91-.66.09-.16.2-.49.34-1s.28-1.04.41-1.59c.14-.55.22-.87.24-.97.05-.27.07-.46.07-.57 0-.28-.07-.47-.22-.59s-.31-.18-.5-.18c-.39 0-.76.16-1.11.47s-.59.72-.72 1.21c-.02.09-.04.14-.07.15-.03 0-.11.02-.24.03h-.21c-.06-.06-.09-.11-.09-.16z"/><path d="m157.68 12.47c-.19 0-.34-.06-.45-.19-.11-.12-.17-.28-.17-.46 0-.49.18-.92.55-1.28s.83-.54 1.38-.54c.63 0 1.16.19 1.59.58s.64.89.65 1.51c0 .3-.07.58-.21.85s-.31.51-.5.71-.47.46-.83.77c-.25.22-.6.53-1.04.96l-.62.58h.79c1.09.01 1.67 0 1.74-.04.05-.01.13-.32.25-.93v-.03h.42v.03s-.05.34-.14.95c-.08.61-.14.93-.16.96v.03h-3.87v-.32s.02-.1.06-.16.15-.18.31-.36c.2-.22.38-.42.52-.58.06-.07.18-.2.35-.39s.29-.32.35-.39.16-.18.3-.34.24-.28.29-.35c.06-.08.14-.18.24-.31s.18-.24.22-.33.09-.19.16-.3c.06-.11.11-.22.14-.33s.05-.22.07-.31.03-.21.03-.34c0-.44-.12-.82-.35-1.14s-.57-.48-1.01-.48c-.23 0-.43.06-.6.18s-.3.23-.37.34-.1.18-.1.2c0 0 .02.01.05.01.13 0 .25.05.39.15s.2.26.2.48c0 .17-.06.32-.17.44s-.27.18-.47.19z"/><path d="m161.98 13.95s.02-.1.03-.17.06-.2.13-.4c.07-.19.14-.36.21-.49s.18-.26.34-.39.32-.18.48-.18c.25 0 .46.06.63.19.17.12.27.24.31.35s.06.18.06.22c0 .01 0 .02.01.02l.11-.11c.42-.44.91-.67 1.45-.67.38 0 .68.09.91.28s.35.46.35.82-.13.91-.4 1.64-.4 1.17-.4 1.32c0 .18.06.27.18.27.04 0 .07 0 .09-.01.2-.03.38-.17.54-.4s.28-.51.37-.83c.01-.06.08-.08.21-.08.14 0 .21.03.21.08 0 0-.01.06-.04.16-.06.2-.13.4-.23.59s-.26.39-.48.58-.46.29-.72.28c-.33 0-.56-.09-.71-.28s-.22-.38-.22-.58c0-.13.13-.55.38-1.25s.38-1.23.39-1.58c0-.41-.15-.61-.46-.61h-.05c-.6 0-1.1.35-1.51 1.05l-.07.12-.34 1.4c-.23.91-.36 1.4-.4 1.47-.09.19-.24.28-.45.28-.09 0-.16-.02-.22-.06s-.09-.08-.11-.12-.03-.08-.02-.1c0-.09.13-.66.4-1.7s.4-1.61.42-1.7c0-.03.01-.11.01-.24 0-.27-.08-.41-.25-.41-.26 0-.48.35-.66 1.04-.04.14-.06.21-.06.22-.01.04-.08.06-.2.06h-.15s-.06-.07-.06-.09z"/><path d="m168.6 14.47v-.14c0-.09.05-.16.15-.21h3.12v-3.13c.08-.09.15-.14.21-.14.09 0 .16.05.21.16v3.1h3.11c.1.06.16.12.16.21s-.05.15-.16.21h-3.11v3.1c-.06.1-.12.15-.19.15h-.04c-.08 0-.15-.05-.19-.15v-3.1h-3.12c-.1-.05-.15-.12-.15-.21v.14z"/><path d="m178.35 10.92-.14.05c-.1.03-.24.07-.42.1s-.38.06-.6.07h-.2v-.48h.2c.33-.01.63-.07.91-.16s.47-.17.58-.25.21-.15.29-.23c.01-.02.06-.03.13-.03.06 0 .12.02.18.06v6.24c.06.05.1.08.14.09.03.01.12.03.25.04s.35.02.65.02h.27v.48h-.11c-.15-.02-.7-.03-1.66-.03s-1.49.01-1.64.03h-.13v-.48h.67c.11 0 .2 0 .26-.01.06 0 .12-.02.17-.03s.08-.02.08-.02.03-.02.06-.05.06-.05.06-.04v-5.39z"/><path d="m197.61 18.77c.07-.41.33-.89.8-1.43.46-.54 1.03-.82 1.71-.83.34 0 .66.09.94.27.29.18.5.4.63.66.41-.62.91-.93 1.49-.93.36 0 .68.11.94.32.27.22.4.51.41.87 0 .28-.07.52-.21.69-.14.18-.27.28-.4.32s-.24.06-.34.06c-.19 0-.34-.05-.46-.16s-.18-.25-.18-.43c0-.45.25-.76.74-.93-.11-.13-.3-.19-.59-.19-.13 0-.22 0-.28.03-.37.16-.65.48-.83.97-.59 2.17-.89 3.44-.89 3.8 0 .28.08.47.24.59s.33.18.52.18c.36 0 .72-.16 1.08-.49.35-.32.6-.72.72-1.19.03-.1.06-.15.09-.16.03 0 .11-.02.24-.03h.06c.15 0 .22.04.22.12 0 0 0 .06-.03.16-.16.56-.46 1.06-.91 1.49s-.98.65-1.58.65c-.69 0-1.21-.31-1.56-.93-.4.61-.87.91-1.39.91h-.09c-.48 0-.83-.13-1.03-.38s-.31-.53-.32-.81c0-.31.09-.57.28-.77s.41-.29.66-.29c.42 0 .63.21.63.62 0 .2-.06.37-.18.52s-.23.25-.34.29c-.11.05-.17.07-.19.07h-.04s.03.04.09.07.14.06.24.1.19.05.28.04c.35 0 .66-.22.91-.66.09-.16.2-.49.34-1s.28-1.04.41-1.59c.14-.55.22-.87.24-.97.05-.27.07-.46.07-.57 0-.28-.07-.47-.22-.59s-.31-.18-.5-.18c-.39 0-.76.16-1.11.47s-.59.72-.72 1.21c-.02.09-.04.14-.07.15-.03 0-.11.02-.24.03h-.21c-.06-.06-.09-.11-.09-.16z"/><path d="m210.62 19.34c0-1.2.4-2.18 1.21-2.95s1.76-1.2 2.86-1.31h.25c.16 0 .36 0 .62-.01h.74 1.46c.15.08.22.18.22.29 0 .09-.06.18-.19.28h-1.53c-1.09.02-1.77.05-2.02.1-.48.12-.91.29-1.28.53s-.66.48-.87.72-.38.52-.53.81-.24.53-.27.71-.05.34-.07.5v.03h6.55c.15.08.22.18.22.29s-.07.22-.22.29h-6.55v.03c0 .21.05.46.15.75s.26.61.49.96c.23.34.54.66.94.94s.88.49 1.43.6c.27.06.94.09 2.04.1h1.53c.13.1.19.2.19.29 0 .12-.07.22-.22.29h-1.8c-.18 0-.32 0-.43.01-1.52 0-2.73-.42-3.61-1.27-.87-.81-1.3-1.81-1.3-3.02z"/><polygon points="225.06 26.71 225.06 11.97 227.08 11.97 227.08 12.56 225.65 12.56 225.65 26.12 227.08 26.12 227.08 26.71"/><path d="m228.66 19.53v-.19c0-.13.07-.23.21-.29h8.57c.15.08.22.18.22.29s-.07.22-.22.29h-8.57c-.14-.07-.21-.17-.21-.29v.19z"/><path d="m242.04 14.51-.19.07c-.14.05-.33.1-.59.15s-.54.08-.86.1h-.28v-.68h.28c.46-.02.89-.09 1.28-.22s.67-.25.83-.35c.16-.11.3-.22.41-.32.02-.03.08-.04.18-.04.09 0 .17.03.25.09v8.83c.08.07.14.11.19.13s.17.04.35.06c.19.02.49.03.91.03h.38v.68h-.16c-.21-.03-.99-.04-2.35-.04s-2.11.01-2.32.04h-.18v-.68h.94c.16 0 .28 0 .37-.01.09 0 .17-.02.24-.04s.11-.03.12-.03.04-.02.09-.07.08-.07.09-.06v-7.62z"/><path d="m247.42 22.51v-.37c0-.25.08-.46.24-.63.16-.18.37-.27.63-.27s.52.12.74.37.33.68.34 1.3c0 .34-.04.68-.13 1s-.19.6-.31.84-.25.44-.38.6c-.14.17-.26.3-.35.4-.1.1-.16.14-.19.13-.04 0-.1-.04-.19-.13s-.13-.15-.13-.19.05-.12.16-.24.23-.27.37-.44.27-.42.38-.74c.12-.31.2-.67.24-1.08v-.18h-.01s-.04.03-.07.04-.06.02-.09.04-.07.03-.13.03-.12 0-.18.01c-.27 0-.48-.08-.65-.25l-.27-.27z"/><path d="m255.97 14.51-.19.07c-.14.05-.33.1-.59.15s-.54.08-.86.1h-.28v-.68h.28c.46-.02.89-.09 1.28-.22s.67-.25.83-.35c.16-.11.3-.22.41-.32.02-.03.08-.04.18-.04.09 0 .17.03.25.09v8.83c.08.07.14.11.19.13s.17.04.35.06c.19.02.49.03.91.03h.38v.68h-.16c-.21-.03-.99-.04-2.35-.04s-2.11.01-2.32.04h-.18v-.68h.94c.16 0 .28 0 .37-.01.09 0 .17-.02.24-.04s.11-.03.12-.03.04-.02.09-.07.08-.07.09-.06v-7.62z"/><polygon points="260.53 12.56 260.53 11.97 262.55 11.97 262.55 26.71 260.53 26.71 260.53 26.12 261.96 26.12 261.96 12.56"/><path d="m81.41 69.05c-.33 0-.5-.16-.5-.49v-.16l.19-.41c.74-1.55 1.27-2.89 1.61-4.02l.12-.35h-.47c-.37 0-.64.01-.8.04s-.35.12-.58.28c-.11.07-.22.16-.32.27-.11.11-.2.21-.28.31s-.12.16-.13.18c-.02 0-.09.01-.22.01-.19 0-.28-.05-.28-.15 0-.06.09-.23.28-.52.19-.28.46-.59.81-.91s.7-.51 1.05-.56c.07-.02 1.18-.03 3.32-.03 1.57 0 2.38 0 2.42.01.2.07.3.21.3.41 0 .3-.16.51-.47.62-.06.02-.4.03-1.02.03h-.94l-.04.25c-.12.71-.18 1.29-.18 1.75 0 .51.04.97.13 1.37s.18.72.28.94c.1.23.15.36.15.41 0 .17-.07.32-.21.47s-.31.22-.53.22c-.11 0-.2-.01-.27-.04s-.15-.15-.24-.35c-.09-.21-.17-.5-.24-.88 0-.09-.01-.3-.01-.65 0-.48.04-1 .13-1.55s.18-1 .27-1.36c.09-.35.14-.55.15-.59h-1.45v.06s-.11.42-.3 1.16c-.19.75-.4 1.54-.63 2.37-.24.84-.39 1.31-.46 1.43-.11.28-.32.41-.63.41z"/><path d="m81.58 82.63c-.27 0-.48-.09-.63-.27-.16-.18-.24-.39-.24-.65 0-.7.26-1.3.78-1.81s1.17-.77 1.95-.77c.9 0 1.64.28 2.24.83s.9 1.26.91 2.14c0 .42-.1.83-.3 1.21s-.43.72-.71 1-.67.65-1.18 1.09c-.35.3-.85.76-1.48 1.36l-.87.83h1.12c1.54.01 2.37 0 2.46-.06.07-.02.19-.46.35-1.31v-.04h.59v.04s-.07.48-.19 1.34-.19 1.32-.22 1.36v.04h-5.47v-.46c0-.07.03-.14.09-.22s.21-.25.44-.52c.29-.31.53-.59.74-.83.09-.1.26-.28.5-.55.25-.27.41-.45.5-.55s.23-.26.43-.49.33-.39.41-.5.19-.26.34-.44c.15-.19.25-.34.31-.47s.13-.27.22-.43.15-.31.19-.47.07-.3.1-.44.04-.3.04-.49c0-.62-.17-1.15-.5-1.61-.33-.45-.81-.68-1.43-.68-.32 0-.61.08-.86.25s-.42.33-.52.49-.15.25-.15.28c0 0 .02.01.07.01.18 0 .36.07.55.21s.28.36.28.68c0 .25-.08.45-.24.62s-.38.26-.66.27z"/><rect x="77.98" y="74.72" width="11.36" height=".88"/><path d="m95.63 75.35v-.19c0-.13.07-.23.21-.29h8.57c.15.08.22.18.22.29s-.07.22-.22.29h-8.57c-.14-.07-.21-.17-.21-.29v.19z"/><path d="m111.01 77.29c0 .3.12.57.35.81.24.24.53.36.87.37.37 0 .7-.11.99-.34s.48-.52.58-.88c.02-.07.03-.39.04-.97 0-.57 0-.85-.01-.85-.08 0-.18 0-.31.01-.13 0-.35.05-.66.13s-.6.18-.86.29c-.26.12-.48.3-.68.55s-.3.54-.31.88zm.16-2.94h-.32c-.22 0-.4-.07-.55-.22s-.22-.34-.22-.57c0-.34.17-.65.5-.91.33-.27.93-.4 1.79-.4.72 0 1.3.16 1.74.47s.74.69.89 1.12c.05.14.07.29.07.46s0 .73.01 1.69v1.03c0 .47.02.8.07.97.05.18.15.27.31.27.15 0 .25-.08.3-.24s.07-.42.07-.78v-.53h.59v.57c0 .39-.02.62-.04.69-.09.29-.26.53-.52.69-.26.17-.53.26-.81.27s-.52-.08-.69-.27-.3-.39-.35-.62v-.06l-.03.04s-.04.06-.07.09-.07.07-.12.13-.11.11-.18.16-.14.11-.22.18-.17.12-.27.16-.21.08-.32.12c-.12.04-.25.07-.38.09-.14.02-.29.03-.46.04-.59 0-1.12-.15-1.59-.46s-.71-.73-.71-1.28c0-.21.03-.4.1-.59s.2-.39.4-.6c.2-.22.43-.4.71-.55s.66-.28 1.15-.41 1.03-.2 1.62-.22h.21v-.32c0-.33-.03-.58-.09-.74-.22-.7-.69-1.05-1.43-1.05-.18 0-.34 0-.5.01-.16 0-.28.03-.37.06s-.13.04-.12.04c.22.15.32.36.32.65 0 .25-.08.44-.24.57l-.25.22z"/><path d="m117.05 78.17h.21c.38 0 .61-.07.69-.21v-.46c0-.14 0-.29.01-.46v-.57-.62-2.18c-.04-.19-.11-.31-.22-.37s-.33-.1-.66-.13h-.27v-.34c0-.23 0-.34.03-.34h.15c.1-.02.24-.03.41-.04.18 0 .35-.02.53-.03.16 0 .33-.02.52-.03s.33-.02.43-.04.15-.02.16-.01h.04v1.02c.38-.67.86-1 1.43-1h.09c.44 0 .77.11.97.32.21.22.31.44.31.68 0 .21-.06.38-.19.53s-.31.22-.56.22-.43-.08-.55-.24-.18-.32-.19-.5c0-.09 0-.17.03-.24s.04-.13.07-.18.04-.07.04-.07c-.02-.02-.13 0-.34.06-.16.08-.28.15-.35.22-.46.44-.69 1.32-.69 2.64v1.56c0 .12 0 .22.01.29v.22.07s.02.04.04.06.04.03.07.04c.03 0 .05.02.07.04s.05.03.1.03.08 0 .1.01.06.01.13.01h.13s.07 0 .15.01h.15.46v.68h-.13c-.18-.03-.8-.04-1.87-.04-1.01 0-1.56.01-1.65.04h-.12v-.68h.24z"/><path d="m127.76 74.35h-.31c-.21 0-.38-.07-.53-.22s-.23-.33-.24-.56c0-.23.07-.41.22-.56.05-.05.07-.08.07-.09s-.05-.02-.15-.03c-.26-.04-.5-.06-.72-.06-.48 0-.88.16-1.18.47-.46.46-.69 1.23-.69 2.31 0 .81.15 1.44.46 1.9.4.6.94.9 1.62.9.4 0 .73-.13.97-.38.25-.26.42-.56.53-.91.02-.08.04-.13.07-.15s.11-.03.24-.03h.21c.06.06.09.1.09.13 0 .04-.02.12-.06.24s-.12.28-.24.49-.26.39-.43.56-.4.32-.71.46c-.3.14-.64.2-1.02.19-.85 0-1.58-.31-2.21-.94s-.95-1.42-.96-2.37c0-1.02.32-1.85.96-2.49s1.38-.96 2.23-.96 1.44.13 1.77.4.5.58.5.94c0 .23-.08.41-.25.55l-.25.22z"/><path d="m129.26 72.63c.52-.04.92-.31 1.21-.83s.44-1.11.47-1.8v-.22h.59v2.71h1.99v.68h-1.99v2.12c0 1.23.01 1.92.01 2.08s.03.31.1.47c.14.38.38.57.72.57.43 0 .7-.35.8-1.05 0-.08.01-.3.01-.68v-.52h.59v.69c0 .76-.21 1.33-.62 1.72-.27.27-.61.4-1.03.4-.33 0-.62-.06-.87-.18s-.43-.27-.56-.46-.22-.36-.28-.52-.09-.31-.1-.47c0-.07-.01-.8-.01-2.18v-2.02h-1.17v-.55h.13z"/><path d="m136.45 77.29c0 .3.12.57.35.81.24.24.53.36.87.37.37 0 .7-.11.99-.34s.48-.52.58-.88c.02-.07.03-.39.04-.97 0-.57 0-.85-.01-.85-.08 0-.18 0-.31.01s-.35.05-.66.13-.6.18-.86.29c-.26.12-.48.3-.68.55s-.3.54-.31.88zm.17-2.94h-.32c-.22 0-.4-.07-.55-.22s-.22-.34-.22-.57c0-.34.17-.65.5-.91.33-.27.93-.4 1.79-.4.72 0 1.3.16 1.74.47s.74.69.89 1.12c.05.14.07.29.07.46s0 .73.01 1.69v1.03c0 .47.02.8.07.97.05.18.15.27.31.27.15 0 .25-.08.3-.24s.07-.42.07-.78v-.53h.59v.57c0 .39-.02.62-.04.69-.09.29-.26.53-.52.69s-.53.26-.81.27-.52-.08-.69-.27-.3-.39-.35-.62v-.06l-.03.04s-.04.06-.07.09-.07.07-.12.13-.11.11-.18.16-.14.11-.22.18-.17.12-.27.16-.21.08-.32.12c-.12.04-.25.07-.38.09-.14.02-.29.03-.46.04-.59 0-1.12-.15-1.59-.46s-.71-.73-.71-1.28c0-.21.03-.4.1-.59s.2-.39.4-.6.43-.4.71-.55.66-.28 1.15-.41 1.03-.2 1.62-.22h.21v-.32c0-.33-.03-.58-.09-.74-.22-.7-.69-1.05-1.43-1.05-.18 0-.34 0-.5.01-.16 0-.28.03-.37.06s-.13.04-.12.04c.22.15.32.36.32.65 0 .25-.08.44-.24.57l-.25.22z"/><path d="m142.58 78.17h.21c.38 0 .61-.07.69-.21v-.91c0-.17 0-.36.01-.57v-.62-.97c0-.34 0-.63-.01-.87v-.34c-.03-.19-.1-.31-.21-.37s-.33-.1-.66-.13h-.27v-.34c0-.23 0-.34.03-.34h.15c.1-.02.24-.03.41-.04.18 0 .36-.02.55-.03.17 0 .34-.02.53-.03s.33-.02.43-.04.15-.02.16-.01h.04v.59c0 .37 0 .56.01.56s.03-.02.07-.07.1-.12.18-.22.17-.19.28-.27.25-.17.43-.28.36-.19.56-.24.45-.07.75-.07c1.12.04 1.75.59 1.87 1.67 0 .07.01.75.01 2.05v1.27c0 .37 0 .59.03.66s.07.12.16.15c.21.03.45.04.72.04h.24v.68h-.47c-.23-.02-.47-.03-.74-.03s-.45 0-.56-.01c-1.01 0-1.56.01-1.65.04h-.12v-.68h.24c.6 0 .9-.08.9-.24 0-.02.01-.7.01-2.03s-.02-2.03-.03-2.11c-.06-.28-.16-.48-.3-.62s-.26-.22-.35-.25c-.1-.03-.23-.04-.38-.03-.44 0-.83.17-1.17.5-.27.27-.43.54-.5.81s-.11.68-.12 1.22v1.83c0 .29 0 .49.01.59 0 .1.02.16.04.19s.06.06.13.09c.21.03.45.04.72.04h.24v.68h-.46c-.24-.02-.49-.03-.75-.03s-.45 0-.56-.01c-1.01 0-1.56.01-1.65.04h-.12v-.68h.24z"/><path d="m159.55 60.37-.19.07c-.14.05-.33.1-.59.15s-.54.08-.86.1h-.28v-.68h.28c.46-.02.89-.09 1.28-.22s.67-.25.83-.35c.16-.11.3-.22.41-.32.02-.03.08-.04.18-.04.09 0 .17.03.25.09v8.83c.08.07.14.11.19.13s.17.04.35.06c.19.02.49.03.91.03h.38v.68h-.16c-.21-.03-.99-.04-2.35-.04s-2.11.01-2.32.04h-.18v-.68h.94c.16 0 .28 0 .37-.01.09 0 .17-.02.24-.04s.11-.03.12-.03.04-.02.09-.07.08-.07.09-.06v-7.62z"/><path d="m156.65 84.7c.07-.41.33-.89.8-1.43.46-.54 1.03-.82 1.71-.83.34 0 .66.09.94.27s.5.4.63.66c.41-.62.91-.93 1.49-.93.36 0 .68.11.94.32.27.22.4.51.41.87 0 .28-.07.52-.21.69s-.27.28-.4.32-.24.06-.34.06c-.19 0-.34-.05-.46-.16s-.18-.25-.18-.43c0-.45.25-.76.74-.93-.11-.13-.3-.19-.59-.19-.13 0-.22 0-.28.03-.37.16-.65.48-.83.97-.59 2.17-.89 3.44-.89 3.8 0 .28.08.47.24.59s.33.18.52.18c.36 0 .72-.16 1.08-.49.35-.32.6-.72.72-1.19.03-.1.06-.15.09-.16.03 0 .11-.02.24-.03h.06c.15 0 .22.04.22.12 0 0 0 .06-.03.16-.16.56-.46 1.06-.91 1.49s-.98.65-1.58.65c-.69 0-1.21-.31-1.56-.93-.4.61-.87.91-1.39.91h-.09c-.48 0-.83-.13-1.03-.38s-.31-.53-.32-.81c0-.31.09-.57.28-.77s.41-.29.66-.29c.42 0 .63.21.63.62 0 .2-.06.37-.18.52s-.23.25-.34.29c-.11.05-.17.07-.19.07h-.04s.03.04.09.07.14.06.24.1.19.05.28.04c.35 0 .66-.22.91-.66.09-.16.2-.49.34-1s.28-1.04.41-1.59c.14-.55.22-.87.24-.97.05-.27.07-.46.07-.57 0-.28-.07-.47-.22-.59s-.31-.18-.5-.18c-.39 0-.76.16-1.11.47s-.59.72-.72 1.21c-.02.09-.04.14-.07.15-.03 0-.11.02-.24.03h-.21c-.06-.06-.09-.11-.09-.16z"/><rect x="154.4" y="74.72" width="11.39" height=".88"/><path d="m197.61 74.59c.07-.41.33-.89.8-1.43.46-.54 1.03-.82 1.71-.83.34 0 .66.09.94.27.29.18.5.4.63.66.41-.62.91-.93 1.49-.93.36 0 .68.11.94.32s.4.51.41.87c0 .28-.07.52-.21.69s-.27.28-.4.32-.24.06-.34.06c-.19 0-.34-.05-.46-.16s-.18-.25-.18-.43c0-.45.25-.76.74-.93-.11-.13-.3-.19-.59-.19-.13 0-.22 0-.28.03-.37.16-.65.48-.83.97-.59 2.17-.89 3.44-.89 3.8 0 .28.08.47.24.59s.33.18.52.18c.36 0 .72-.16 1.08-.49s.6-.72.72-1.19c.03-.1.06-.15.09-.16.03 0 .11-.02.24-.03h.06c.15 0 .22.04.22.12 0 0 0 .06-.03.16-.16.56-.46 1.06-.91 1.49s-.98.65-1.58.65c-.69 0-1.21-.31-1.56-.93-.4.61-.87.91-1.39.91h-.09c-.48 0-.83-.13-1.03-.38s-.31-.53-.32-.81c0-.31.09-.57.28-.77s.41-.29.66-.29c.42 0 .63.21.63.62 0 .2-.06.37-.18.52s-.23.25-.34.29c-.11.05-.17.07-.19.07h-.04s.03.04.09.07.14.06.24.1.19.05.28.04c.35 0 .66-.22.91-.66.09-.16.2-.49.34-1s.28-1.04.41-1.59c.14-.55.22-.87.24-.97.05-.27.07-.46.07-.57 0-.28-.07-.47-.22-.59s-.31-.18-.5-.18c-.39 0-.76.16-1.11.47s-.59.72-.72 1.21c-.02.09-.04.14-.07.15-.03 0-.11.02-.24.03h-.21c-.06-.06-.09-.11-.09-.16z"/><path d="m210.62 71.18c0-.08.02-.14.06-.19s.08-.08.12-.09h.04c.07-.01.83.32 2.27 1 1.45.68 2.88 1.35 4.29 2.02l2.11 1.02c.07.05.1.12.1.22s-.03.17-.1.22c-.02.02-1.46.7-4.31 2.05l-4.25 2h-.09c-.18-.02-.27-.12-.27-.29v-.04c0-.07.06-.15.22-.24.19-.1.92-.45 2.21-1.06.77-.36 1.41-.66 1.92-.9l3.66-1.74-3.66-1.74c-2.83-1.34-4.27-2.03-4.31-2.08-.02-.04-.03-.09-.03-.16z"/><path d="m228.1 70.33-.19.07c-.14.05-.33.1-.59.15s-.54.08-.86.1h-.28v-.68h.28c.46-.02.89-.09 1.28-.22s.67-.25.83-.35c.16-.11.3-.22.41-.32.02-.03.08-.04.18-.04.09 0 .17.03.25.09v8.83c.08.07.14.11.19.13s.17.04.35.06.49.03.91.03h.38v.68h-.16c-.21-.03-.99-.04-2.35-.04s-2.11.01-2.32.04h-.18v-.68h.94c.16 0 .28 0 .37-.01.09 0 .17-.02.24-.04s.11-.03.12-.03.04-.02.09-.07.08-.07.09-.06v-7.62z"/><path d="m77.45 114.36v-.19c0-.13.07-.23.21-.29h8.57c.15.08.22.18.22.29s-.07.22-.22.29h-8.57c-.14-.07-.21-.17-.21-.29v.19z"/><path d="m92.01 116.29c0 .3.12.57.35.81.24.24.53.36.87.37.37 0 .7-.11.99-.34s.48-.52.58-.88c.02-.07.03-.39.04-.97 0-.57 0-.85-.01-.85-.08 0-.18 0-.31.01-.13 0-.35.05-.66.13s-.6.18-.86.29c-.26.12-.48.3-.68.55s-.3.54-.31.88zm.16-2.93h-.32c-.22 0-.4-.07-.55-.22s-.22-.34-.22-.57c0-.34.17-.65.5-.91.33-.27.93-.4 1.79-.4.72 0 1.3.16 1.74.47s.74.69.89 1.12c.05.14.07.29.07.46s0 .73.01 1.69v1.03c0 .47.02.8.07.97.05.18.15.27.31.27.15 0 .25-.08.3-.24s.07-.42.07-.78v-.53h.59v.57c0 .39-.02.62-.04.69-.09.29-.26.53-.52.69-.26.17-.53.26-.81.27-.29 0-.52-.08-.69-.27-.18-.19-.3-.39-.35-.62v-.06l-.03.04s-.04.06-.07.09-.07.07-.12.13-.11.11-.18.16-.14.11-.22.18-.17.12-.27.16-.21.08-.32.12-.25.07-.38.09c-.14.02-.29.03-.46.04-.59 0-1.12-.15-1.59-.46s-.71-.73-.71-1.28c0-.21.03-.4.1-.59s.2-.39.4-.6c.2-.22.43-.4.71-.55s.66-.28 1.15-.41 1.03-.2 1.62-.22h.21v-.32c0-.33-.03-.58-.09-.74-.22-.7-.69-1.05-1.43-1.05-.18 0-.34 0-.5.01s-.28.03-.37.06-.13.04-.12.04c.22.15.32.36.32.65 0 .25-.08.44-.24.57l-.25.22z"/><path d="m98.06 117.18h.21c.38 0 .61-.07.69-.21v-.46c0-.14 0-.29.01-.46v-.57-.62-2.18c-.04-.19-.11-.31-.22-.37s-.33-.1-.66-.13h-.27v-.34c0-.23 0-.34.03-.34h.15c.1-.02.24-.03.41-.04s.35-.02.53-.03c.16 0 .33-.02.52-.03.19 0 .33-.02.43-.04s.15-.02.16-.01h.04v1.02c.38-.67.86-1 1.43-1h.09c.44 0 .77.11.97.32.21.22.31.44.31.68 0 .21-.06.38-.19.53s-.31.22-.56.22-.43-.08-.55-.24-.18-.32-.19-.5c0-.09 0-.17.03-.24.02-.07.04-.13.07-.18s.04-.07.04-.07c-.02-.02-.13 0-.34.06-.16.08-.28.15-.35.22-.46.44-.69 1.32-.69 2.64v1.56c0 .12 0 .22.01.29v.22.07s.02.04.04.06.04.03.07.04c.03 0 .05.02.07.04s.05.03.1.03.08 0 .1.01c.02 0 .06.01.13.01h.13s.07 0 .15.01h.15.46v.68h-.13c-.18-.03-.8-.04-1.87-.04-1.01 0-1.56.01-1.65.04h-.12v-.68h.24z"/><path d="m108.77 113.36h-.31c-.21 0-.38-.07-.53-.22s-.23-.33-.24-.56c0-.23.07-.41.22-.56.05-.05.07-.08.07-.09s-.05-.02-.15-.03c-.26-.04-.5-.06-.72-.06-.48 0-.88.16-1.18.47-.46.46-.69 1.23-.69 2.31 0 .81.15 1.44.46 1.9.4.6.94.9 1.62.9.4 0 .73-.13.97-.38.25-.26.42-.56.53-.91.02-.08.04-.13.07-.15s.11-.03.24-.03h.21c.06.06.09.1.09.13 0 .04-.02.12-.06.24s-.12.28-.24.49-.26.39-.43.56-.4.32-.71.46c-.3.14-.64.2-1.02.19-.85 0-1.58-.31-2.21-.94s-.95-1.42-.96-2.37c0-1.02.32-1.85.96-2.49s1.38-.96 2.23-.96 1.44.13 1.77.4.5.58.5.94c0 .23-.08.41-.25.55l-.25.22z"/><path d="m110.26 111.64c.52-.04.92-.31 1.21-.83s.44-1.11.47-1.8v-.22h.59v2.71h1.99v.68h-1.99v2.12c0 1.23.01 1.92.01 2.08s.03.31.1.47c.14.38.38.57.72.57.43 0 .7-.35.8-1.05 0-.08.01-.3.01-.68v-.52h.59v.69c0 .76-.21 1.33-.62 1.72-.27.27-.61.4-1.03.4-.33 0-.62-.06-.87-.18s-.43-.27-.56-.46-.22-.36-.28-.52-.09-.31-.1-.47c0-.07-.01-.8-.01-2.18v-2.02h-1.17v-.55h.13z"/><path d="m117.46 116.29c0 .3.12.57.35.81.24.24.53.36.87.37.37 0 .7-.11.99-.34s.48-.52.58-.88c.02-.07.03-.39.04-.97 0-.57 0-.85-.01-.85-.08 0-.18 0-.31.01-.13 0-.35.05-.66.13s-.6.18-.86.29c-.26.12-.48.3-.68.55s-.3.54-.31.88zm.16-2.93h-.32c-.22 0-.4-.07-.55-.22s-.22-.34-.22-.57c0-.34.17-.65.5-.91.33-.27.93-.4 1.79-.4.72 0 1.3.16 1.74.47s.74.69.89 1.12c.05.14.07.29.07.46s0 .73.01 1.69v1.03c0 .47.02.8.07.97.05.18.15.27.31.27.15 0 .25-.08.3-.24s.07-.42.07-.78v-.53h.59v.57c0 .39-.02.62-.04.69-.09.29-.26.53-.52.69-.26.17-.53.26-.81.27-.29 0-.52-.08-.69-.27-.18-.19-.3-.39-.35-.62v-.06l-.03.04s-.04.06-.07.09-.07.07-.12.13-.11.11-.18.16-.14.11-.22.18-.17.12-.27.16-.21.08-.32.12-.25.07-.38.09c-.14.02-.29.03-.46.04-.59 0-1.12-.15-1.59-.46s-.71-.73-.71-1.28c0-.21.03-.4.1-.59s.2-.39.4-.6c.2-.22.43-.4.71-.55s.66-.28 1.15-.41 1.03-.2 1.62-.22h.21v-.32c0-.33-.03-.58-.09-.74-.22-.7-.69-1.05-1.43-1.05-.18 0-.34 0-.5.01-.16 0-.28.03-.37.06s-.13.04-.12.04c.22.15.32.36.32.65 0 .25-.08.44-.24.57l-.25.22z"/><path d="m123.58 117.18h.21c.38 0 .61-.07.69-.21v-.91c0-.17 0-.36.01-.57s0-.42 0-.62v-.97c0-.34 0-.63-.01-.87v-.34c-.03-.19-.1-.31-.21-.37s-.33-.1-.66-.13h-.27v-.34c0-.23 0-.34.03-.34h.15c.1-.02.24-.03.41-.04.18 0 .36-.02.55-.03.17 0 .34-.02.53-.03.19 0 .33-.02.43-.04s.15-.02.16-.01h.04v.59c0 .37 0 .56.01.56s.03-.02.07-.07.1-.12.18-.22.17-.19.28-.27.25-.17.43-.28.36-.19.56-.24.45-.07.75-.07c1.12.04 1.75.59 1.87 1.67 0 .07.01.75.01 2.05v1.27c0 .37 0 .59.03.66.02.07.07.12.16.15.21.03.45.04.72.04h.24v.68h-.47c-.23-.02-.47-.03-.74-.03s-.45 0-.56-.01c-1.01 0-1.56.01-1.65.04h-.12v-.68h.24c.6 0 .9-.08.9-.24 0-.02.01-.7.01-2.03s-.02-2.03-.03-2.11c-.06-.28-.16-.48-.3-.62s-.26-.22-.35-.25c-.1-.03-.23-.04-.38-.03-.44 0-.83.17-1.17.5-.27.27-.43.54-.5.81s-.11.68-.12 1.22v1.83c0 .29 0 .49.01.59 0 .1.02.16.04.19s.06.06.13.09c.21.03.45.04.72.04h.24v.68h-.46c-.24-.02-.49-.03-.75-.03s-.45 0-.56-.01c-1.01 0-1.56.01-1.65.04h-.12v-.68h.24z"/><path d="m135.02 114.17c0-.68.05-1.32.15-1.93s.21-1.13.34-1.58c.13-.44.31-.87.55-1.3.24-.42.42-.75.56-.99s.34-.49.62-.77.44-.44.49-.5.17-.16.37-.31h.25c.14 0 .21.04.21.13 0 .03-.08.13-.25.31s-.37.44-.6.78-.48.77-.72 1.27c-.25.5-.45 1.18-.62 2.03s-.25 1.8-.25 2.84.08 1.98.25 2.83.37 1.53.6 2.05c.24.52.48.94.72 1.27.25.32.45.58.62.78s.25.3.25.31c0 .09-.07.13-.22.13h-.24l-.41-.35c-.92-.84-1.6-1.88-2.02-3.12s-.63-2.54-.63-3.89z"/><path d="m140.61 114.36v-.19c0-.13.07-.23.21-.29h8.57c.15.08.22.18.22.29s-.07.22-.22.29h-8.57c-.14-.07-.21-.17-.21-.29v.19z"/><path d="m151.62 113.6c.07-.41.33-.89.8-1.43.46-.54 1.03-.82 1.71-.83.34 0 .66.09.94.27.29.18.5.4.63.66.41-.62.91-.93 1.49-.93.36 0 .68.11.94.32.27.22.4.51.41.87 0 .28-.07.52-.21.69-.14.18-.27.28-.4.32s-.24.06-.34.06c-.19 0-.34-.05-.46-.16s-.18-.25-.18-.43c0-.45.25-.76.74-.93-.11-.13-.3-.19-.59-.19-.13 0-.22 0-.28.03-.37.16-.65.48-.83.97-.59 2.17-.89 3.44-.89 3.8 0 .28.08.47.24.59s.33.18.52.18c.36 0 .72-.16 1.08-.49.35-.32.6-.72.72-1.19.03-.1.06-.15.09-.16.03 0 .11-.02.24-.03h.06c.15 0 .22.04.22.12 0 0 0 .06-.03.16-.16.56-.46 1.06-.91 1.49s-.98.65-1.58.65c-.69 0-1.21-.31-1.56-.93-.4.61-.87.91-1.39.91h-.09c-.48 0-.83-.13-1.03-.38-.21-.26-.31-.53-.32-.81 0-.31.09-.57.28-.77s.41-.29.66-.29c.42 0 .63.21.63.62 0 .2-.06.37-.18.52s-.23.25-.34.29c-.11.05-.17.07-.19.07h-.04s.03.04.09.07.14.06.24.1.19.05.28.04c.35 0 .66-.22.91-.66.09-.16.2-.49.34-1s.28-1.04.41-1.59c.14-.55.22-.87.24-.97.05-.27.07-.46.07-.57 0-.28-.07-.47-.22-.59s-.31-.18-.5-.18c-.39 0-.76.16-1.11.47s-.59.72-.72 1.21c-.02.09-.04.14-.07.15-.03 0-.11.02-.24.03h-.21c-.06-.06-.09-.11-.09-.16z"/><path d="m160.18 106.82h.06s.1-.01.15-.01h.18l.41.35c.92.84 1.6 1.88 2.02 3.12.42 1.25.63 2.54.63 3.89 0 .67-.05 1.31-.15 1.93s-.21 1.14-.34 1.58c-.13.43-.31.86-.55 1.3-.24.43-.42.76-.56.99s-.34.48-.6.75c-.27.28-.42.44-.47.49s-.16.14-.34.28l-.06.06h-.34s-.05-.01-.07-.04-.03-.07-.04-.13c0 0 .06-.07.16-.19 1.52-1.58 2.29-3.92 2.29-7s-.76-5.42-2.29-7c-.1-.12-.15-.18-.16-.19 0-.08.02-.13.07-.16z"/><path d="m197.61 113.6c.07-.41.33-.89.8-1.43.46-.54 1.03-.82 1.71-.83.34 0 .66.09.94.27.29.18.5.4.63.66.41-.62.91-.93 1.49-.93.36 0 .68.11.94.32.27.22.4.51.41.87 0 .28-.07.52-.21.69-.14.18-.27.28-.4.32s-.24.06-.34.06c-.19 0-.34-.05-.46-.16s-.18-.25-.18-.43c0-.45.25-.76.74-.93-.11-.13-.3-.19-.59-.19-.13 0-.22 0-.28.03-.37.16-.65.48-.83.97-.59 2.17-.89 3.44-.89 3.8 0 .28.08.47.24.59s.33.18.52.18c.36 0 .72-.16 1.08-.49.35-.32.6-.72.72-1.19.03-.1.06-.15.09-.16.03 0 .11-.02.24-.03h.06c.15 0 .22.04.22.12 0 0 0 .06-.03.16-.16.56-.46 1.06-.91 1.49s-.98.65-1.58.65c-.69 0-1.21-.31-1.56-.93-.4.61-.87.91-1.39.91h-.09c-.48 0-.83-.13-1.03-.38-.21-.26-.31-.53-.32-.81 0-.31.09-.57.28-.77s.41-.29.66-.29c.42 0 .63.21.63.62 0 .2-.06.37-.18.52s-.23.25-.34.29c-.11.05-.17.07-.19.07h-.04s.03.04.09.07.14.06.24.1.19.05.28.04c.35 0 .66-.22.91-.66.09-.16.2-.49.34-1s.28-1.04.41-1.59c.14-.55.22-.87.24-.97.05-.27.07-.46.07-.57 0-.28-.07-.47-.22-.59s-.31-.18-.5-.18c-.39 0-.76.16-1.11.47s-.59.72-.72 1.21c-.02.09-.04.14-.07.15-.03 0-.11.02-.24.03h-.21c-.06-.06-.09-.11-.09-.16z"/><path d="m219.62 118.02v.12c0 .08-.03.15-.09.21s-.11.09-.15.1c-.07 0-.83-.34-2.27-1.02-1.45-.68-2.87-1.35-4.28-2.02l-2.12-1.02c-.07-.05-.1-.12-.1-.22 0-.11.04-.19.12-.24 5.64-2.69 8.52-4.04 8.66-4.04.03 0 .07.03.13.09s.09.13.1.22c0 .09-.02.16-.1.21 0 0-1.34.64-3.98 1.9l-3.92 1.86 3.92 1.86c2.65 1.26 3.97 1.89 3.98 1.9.07.06.1.13.1.21v-.12z"/><path d="m226.19 114.36v-.19c0-.13.07-.23.21-.29h8.57c.15.08.22.18.22.29s-.07.22-.22.29h-8.57c-.14-.07-.21-.17-.21-.29v.19z"/><path d="m239.57 109.34-.19.07c-.14.05-.33.1-.59.15s-.54.08-.86.1h-.28v-.68h.28c.46-.02.89-.09 1.28-.22s.67-.25.83-.35c.16-.11.3-.22.41-.32.02-.03.08-.04.18-.04.09 0 .17.03.25.09v8.83c.08.07.14.11.19.13s.17.04.35.06c.19.02.49.03.91.03h.38v.68h-.16c-.21-.03-.99-.04-2.35-.04s-2.11.01-2.32.04h-.18v-.68h.94c.16 0 .28 0 .37-.01.09 0 .17-.02.24-.04s.11-.03.12-.03.04-.02.09-.07.08-.07.09-.06v-7.62z"/><path d="m80.91 144.73c0-.08.04-.23.13-.46s.21-.48.35-.75c.15-.28.36-.53.65-.75.29-.23.58-.33.89-.32.38 0 .7.11.96.34s.39.53.4.91c0 .17-.07.44-.21.83-.14.38-.33.9-.59 1.55s-.46 1.2-.62 1.67c-.05.22-.07.37-.07.47 0 .25.08.37.25.37.09 0 .18-.01.28-.04s.21-.1.34-.21.26-.28.4-.52.26-.53.37-.87c.03-.12.05-.19.07-.21s.1-.03.25-.03c.2 0 .3.05.3.15 0 .08-.04.23-.13.46s-.21.48-.37.75-.38.52-.66.74-.59.32-.91.32-.6-.1-.87-.31-.4-.52-.41-.94c0-.17.02-.32.07-.47s.26-.71.63-1.68c.37-.99.59-1.59.65-1.78.06-.2.09-.39.1-.57 0-.24-.08-.35-.25-.35h-.03c-.3 0-.57.16-.81.49-.25.32-.43.74-.56 1.24 0 0-.02.02-.03.04 0 .02-.01.03-.01.04s0 .02-.03.03c-.02 0-.03.01-.04.01h-.38c-.06-.06-.09-.1-.09-.13zm2.41-4.61c0-.24.09-.44.28-.62s.4-.27.65-.28c.18 0 .32.06.44.18s.18.27.19.44c0 .23-.1.43-.3.62s-.41.28-.65.29c-.15 0-.29-.05-.41-.15-.13-.1-.2-.26-.21-.49z"/><path d="m81.07 162.71c-.27 0-.48-.09-.63-.27-.16-.18-.24-.39-.24-.65 0-.7.26-1.3.78-1.81s1.17-.77 1.95-.77c.9 0 1.64.28 2.24.83s.9 1.26.91 2.14c0 .42-.1.83-.3 1.21s-.43.72-.71 1-.67.65-1.18 1.09c-.35.3-.85.76-1.48 1.36l-.87.83h1.12c1.54.01 2.37 0 2.46-.06.07-.02.19-.46.35-1.31v-.04h.59v.04s-.07.48-.19 1.34-.19 1.32-.22 1.36v.04h-5.47v-.46c0-.07.03-.14.09-.22s.21-.25.44-.52c.29-.31.53-.59.74-.83.09-.1.26-.28.5-.55.25-.27.41-.45.5-.55s.23-.26.43-.49.33-.39.41-.5.19-.26.34-.44c.15-.19.25-.34.31-.47s.13-.27.22-.43.15-.31.19-.47.07-.3.1-.44.04-.3.04-.49c0-.62-.17-1.15-.5-1.61-.33-.45-.81-.68-1.43-.68-.32 0-.61.08-.86.25s-.42.33-.52.49-.15.25-.15.28c0 0 .02.01.07.01.18 0 .36.07.55.21s.28.36.28.68c0 .25-.08.45-.24.62s-.38.26-.66.27z"/><rect x="77.98" y="154.8" width="10.33" height=".88"/><path d="m90.7 158.25h.21c.38 0 .61-.07.69-.21v-.94c0-.19 0-.4.01-.63v-.74-.81-.84-3.14c0-.26 0-.47-.01-.65v-.25c-.03-.19-.1-.31-.21-.37s-.33-.1-.66-.13h-.27v-.34c0-.23 0-.34.03-.34h.15c.1-.02.24-.03.43-.04.19 0 .37-.02.55-.03.17 0 .35-.02.55-.03.2 0 .34-.02.44-.04s.15-.02.16-.01h.04v4.64c0 3.11 0 4.68.01 4.7.04.08.1.13.18.16.21.03.45.04.72.04h.24v.68h-.46c-.23-.02-.47-.03-.72-.03s-.44 0-.56-.01h-.56c-.26 0-.5.02-.74.03h-.34s-.12.01-.12.01v-.68h.24z"/><path d="m94.79 158.25h.21c.38 0 .61-.07.69-.21v-.91c0-.17 0-.36.01-.57s0-.42 0-.62v-.97c0-.34 0-.63-.01-.87v-.34c-.03-.19-.1-.31-.21-.37s-.33-.1-.66-.13h-.27v-.34c0-.23 0-.34.03-.34h.15c.1-.02.24-.03.41-.04.18 0 .36-.02.55-.03.17 0 .34-.02.53-.03.19 0 .33-.02.43-.04s.15-.02.16-.01h.04v.59c0 .37 0 .56.01.56s.03-.02.07-.07.1-.12.18-.22.17-.19.28-.27.25-.17.43-.28.36-.19.56-.24.45-.07.75-.07c1.12.04 1.75.59 1.87 1.67 0 .07.01.75.01 2.05v1.27c0 .37 0 .59.03.66.02.07.07.12.16.15.21.03.45.04.72.04h.24v.68h-.47c-.23-.02-.47-.03-.74-.03s-.45 0-.56-.01c-1.01 0-1.56.01-1.65.04h-.12v-.68h.24c.6 0 .9-.08.9-.24 0-.02.01-.7.01-2.03s-.02-2.03-.03-2.11c-.06-.28-.16-.48-.3-.62s-.26-.22-.35-.25c-.1-.03-.23-.04-.38-.03-.44 0-.83.17-1.17.5-.27.27-.43.54-.5.81-.07.28-.11.68-.12 1.22v1.83c0 .29 0 .49.01.59 0 .1.02.16.04.19s.06.06.13.09c.21.03.45.04.72.04h.24v.68h-.46c-.24-.02-.49-.03-.75-.03s-.45 0-.56-.01c-1.01 0-1.56.01-1.65.04h-.12v-.68h.24z"/><path d="m108.4 144.73c0-.08.04-.23.13-.46s.21-.48.35-.75c.15-.28.36-.53.65-.75s.58-.33.89-.32c.38 0 .7.11.96.34s.39.53.4.91c0 .17-.07.44-.21.83-.14.38-.33.9-.59 1.55s-.46 1.2-.62 1.67c-.05.22-.07.37-.07.47 0 .25.08.37.25.37.09 0 .18-.01.28-.04s.21-.1.34-.21.26-.28.4-.52.26-.53.37-.87c.03-.12.05-.19.07-.21s.1-.03.25-.03c.2 0 .3.05.3.15 0 .08-.04.23-.13.46s-.21.48-.37.75c-.16.28-.38.52-.66.74s-.59.32-.91.32-.6-.1-.87-.31-.4-.52-.41-.94c0-.17.02-.32.07-.47s.26-.71.63-1.68c.37-.99.59-1.59.65-1.78.06-.2.09-.39.1-.57 0-.24-.08-.35-.25-.35h-.03c-.3 0-.57.16-.81.49-.25.32-.43.74-.56 1.24 0 0-.02.02-.03.04 0 .02-.01.03-.01.04s0 .02-.03.03c-.02 0-.03.01-.04.01h-.38c-.06-.06-.09-.1-.09-.13zm2.4-4.61c0-.24.09-.44.28-.62s.4-.27.65-.28c.18 0 .32.06.44.18s.18.27.19.44c0 .23-.1.43-.3.62s-.41.28-.65.29c-.15 0-.29-.05-.41-.15-.13-.1-.2-.26-.21-.49z"/><path d="m117.28 145.47v-.19c0-.13.07-.23.21-.29h4.41v-4.42c.11-.13.21-.19.3-.19.13 0 .23.07.3.22v4.39h4.4c.15.08.22.18.22.29s-.07.22-.22.29h-4.4v4.39c-.08.14-.17.21-.27.21h-.06c-.12 0-.21-.07-.27-.21v-4.39h-4.41c-.14-.07-.21-.17-.21-.29v.19z"/><path d="m131.98 144.71c.07-.41.33-.89.8-1.43.46-.54 1.03-.82 1.71-.83.34 0 .66.09.94.27.29.18.5.4.63.66.41-.62.91-.93 1.49-.93.36 0 .68.11.94.32s.4.51.41.87c0 .28-.07.52-.21.69s-.27.28-.4.32-.24.06-.34.06c-.19 0-.34-.05-.46-.16s-.18-.25-.18-.43c0-.45.25-.76.74-.93-.11-.13-.3-.19-.59-.19-.13 0-.22 0-.28.03-.37.16-.65.48-.83.97-.59 2.17-.89 3.44-.89 3.8 0 .28.08.47.24.59s.33.18.52.18c.36 0 .72-.16 1.08-.49s.6-.72.72-1.19c.03-.1.06-.15.09-.16.03 0 .11-.02.24-.03h.06c.15 0 .22.04.22.12 0 0 0 .06-.03.16-.16.56-.46 1.06-.91 1.49s-.98.65-1.58.65c-.69 0-1.21-.31-1.56-.93-.4.61-.87.91-1.39.91h-.09c-.48 0-.83-.13-1.03-.38s-.31-.53-.32-.81c0-.31.09-.57.28-.77s.41-.29.66-.29c.42 0 .63.21.63.62 0 .2-.06.37-.18.52s-.23.25-.34.29c-.11.05-.17.07-.19.07h-.04s.03.04.09.07.14.06.24.1.19.05.28.04c.35 0 .66-.22.91-.66.09-.16.2-.49.34-1s.28-1.04.41-1.59c.14-.55.22-.87.24-.97.05-.27.07-.46.07-.57 0-.28-.07-.47-.22-.59s-.31-.18-.5-.18c-.39 0-.76.16-1.11.47s-.59.72-.72 1.21c-.02.09-.04.14-.07.15-.03 0-.11.02-.24.03h-.21c-.06-.06-.09-.11-.09-.16z"/><path d="m108.4 164.81c0-.08.04-.23.13-.46s.21-.48.35-.75c.15-.28.36-.53.65-.75s.58-.33.89-.32c.38 0 .7.11.96.34s.39.53.4.91c0 .17-.07.44-.21.83-.14.38-.33.9-.59 1.55s-.46 1.2-.62 1.67c-.05.22-.07.37-.07.47 0 .25.08.37.25.37.09 0 .18-.01.28-.04s.21-.1.34-.21.26-.28.4-.52.26-.53.37-.87c.03-.12.05-.19.07-.21s.1-.03.25-.03c.2 0 .3.05.3.15 0 .08-.04.23-.13.46s-.21.48-.37.75c-.16.28-.38.52-.66.74s-.59.32-.91.32-.6-.1-.87-.31-.4-.52-.41-.94c0-.17.02-.32.07-.47s.26-.71.63-1.68c.37-.99.59-1.59.65-1.78.06-.2.09-.39.1-.57 0-.24-.08-.35-.25-.35h-.03c-.3 0-.57.16-.81.49-.25.32-.43.74-.56 1.24 0 0-.02.02-.03.04 0 .02-.01.03-.01.04s0 .02-.03.03c-.02 0-.03.01-.04.01h-.38c-.06-.06-.09-.1-.09-.13zm2.4-4.62c0-.24.09-.44.28-.62s.4-.27.65-.28c.18 0 .32.06.44.18s.18.27.19.44c0 .23-.1.43-.3.62s-.41.28-.65.29c-.15 0-.29-.05-.41-.15-.13-.1-.2-.26-.21-.49z"/><path d="m117.7 165.54v-.19c0-.13.07-.23.21-.29h8.57c.15.08.22.18.22.29s-.07.22-.22.29h-8.57c-.14-.07-.21-.17-.21-.29v.19z"/><path d="m131.98 164.78c.07-.41.33-.89.8-1.43.46-.54 1.03-.82 1.71-.83.34 0 .66.09.94.27.29.18.5.4.63.66.41-.62.91-.93 1.49-.93.36 0 .68.11.94.32.27.22.4.51.41.87 0 .28-.07.52-.21.69s-.27.28-.4.32-.24.06-.34.06c-.19 0-.34-.05-.46-.16s-.18-.25-.18-.43c0-.45.25-.76.74-.93-.11-.13-.3-.19-.59-.19-.13 0-.22 0-.28.03-.37.16-.65.48-.83.97-.59 2.17-.89 3.44-.89 3.8 0 .28.08.47.24.59s.33.18.52.18c.36 0 .72-.16 1.08-.49s.6-.72.72-1.19c.03-.1.06-.15.09-.16.03 0 .11-.02.24-.03h.06c.15 0 .22.04.22.12 0 0 0 .06-.03.16-.16.56-.46 1.06-.91 1.49s-.98.65-1.58.65c-.69 0-1.21-.31-1.56-.93-.4.61-.87.91-1.39.91h-.09c-.48 0-.83-.13-1.03-.38s-.31-.53-.32-.81c0-.31.09-.57.28-.77s.41-.29.66-.29c.42 0 .63.21.63.62 0 .2-.06.37-.18.52s-.23.25-.34.29c-.11.05-.17.07-.19.07h-.04s.03.04.09.07.14.06.24.1.19.05.28.04c.35 0 .66-.22.91-.66.09-.16.2-.49.34-1s.28-1.04.41-1.59c.14-.55.22-.87.24-.97.05-.27.07-.46.07-.57 0-.28-.07-.47-.22-.59s-.31-.18-.5-.18c-.39 0-.76.16-1.11.47s-.59.72-.72 1.21c-.02.09-.04.14-.07.15-.03 0-.11.02-.24.03h-.21c-.06-.06-.09-.11-.09-.16z"/><rect x="106.61" y="154.8" width="34.51" height=".88"/><path d="m156.61 154.67c.07-.41.33-.89.8-1.43.46-.54 1.03-.82 1.71-.83.34 0 .66.09.94.27s.5.4.63.66c.41-.62.91-.93 1.49-.93.36 0 .68.11.94.32.27.22.4.51.41.87 0 .28-.07.52-.21.69s-.27.28-.4.32-.24.06-.34.06c-.19 0-.34-.05-.46-.16s-.18-.25-.18-.43c0-.45.25-.76.74-.93-.11-.13-.3-.19-.59-.19-.13 0-.22 0-.28.03-.37.16-.65.48-.83.97-.59 2.17-.89 3.44-.89 3.8 0 .28.08.47.24.59s.33.18.52.18c.36 0 .72-.16 1.08-.49s.6-.72.72-1.19c.03-.1.06-.15.09-.16.03 0 .11-.02.24-.03h.06c.15 0 .22.04.22.12 0 0 0 .06-.03.16-.16.56-.46 1.06-.91 1.49s-.98.65-1.58.65c-.69 0-1.21-.31-1.56-.93-.4.61-.87.91-1.39.91h-.09c-.48 0-.83-.13-1.03-.38s-.31-.53-.32-.81c0-.31.09-.57.28-.77s.41-.29.66-.29c.42 0 .63.21.63.62 0 .2-.06.37-.18.52s-.23.25-.34.29c-.11.05-.17.07-.19.07h-.04s.03.04.09.07.14.06.24.1.19.05.28.04c.35 0 .66-.22.91-.66.09-.16.2-.49.34-1s.28-1.04.41-1.59c.14-.55.22-.87.24-.97.05-.27.07-.46.07-.57 0-.28-.07-.47-.22-.59s-.31-.18-.5-.18c-.39 0-.76.16-1.11.47s-.59.72-.72 1.21c-.02.09-.04.14-.07.15-.03 0-.11.02-.24.03h-.21c-.06-.06-.09-.11-.09-.16z"/><path d="m167.62 155.24c0-1.2.4-2.18 1.21-2.95s1.76-1.2 2.86-1.31h.25c.16 0 .36 0 .62-.01h.74 1.46c.15.08.22.18.22.29 0 .09-.06.18-.19.28h-1.53c-1.09.02-1.77.05-2.02.1-.48.12-.91.29-1.28.53s-.66.48-.87.72-.38.52-.53.81-.24.53-.27.71-.05.34-.07.5v.03h6.55c.15.08.22.18.22.29s-.07.22-.22.29h-6.55v.03c0 .21.05.46.15.75s.26.61.49.96c.23.34.54.66.94.94s.88.49 1.43.6c.27.06.94.09 2.04.1h1.53c.13.1.19.2.19.29 0 .12-.07.22-.22.29h-1.8c-.18 0-.32 0-.43.01-1.52 0-2.73-.42-3.61-1.27-.87-.81-1.3-1.81-1.3-3.02z"/><path d="m188.48 150.6v-.88s-.08.03-.12.03c-.1.04-.21.06-.34.06h-.22l.19.21c.2.22.3.34.32.38l.16.21zm-5.48-.88c.14-.18.19-.27.16-.27-.23.08-.46.19-.69.34-.24.15-.5.35-.78.6-.29.26-.54.59-.75 1.02-.22.42-.37.89-.46 1.41-.05.29-.07.65-.07 1.08s.02.78.07 1.08c.1.54.27 1.03.5 1.46.24.43.49.77.75 1 .27.24.53.43.78.59.26.16.47.27.63.32l.25.07c-.07-.07-.13-.14-.19-.21-.64-.62-1.05-1.63-1.22-3.04-.03-.27-.04-.71-.04-1.33s.01-1.06.04-1.33c.19-1.23.53-2.17 1.02-2.81zm6.41 7.28c0 .06-.06.17-.18.32-.12.16-.31.34-.58.56s-.56.42-.89.62c-.32.2-.74.36-1.24.5s-1.01.21-1.52.21c-.55 0-1.09-.08-1.62-.24s-1.03-.4-1.5-.72-.88-.76-1.22-1.3-.58-1.16-.69-1.87c-.05-.22-.07-.61-.07-1.18s.02-.96.07-1.18c.22-1.15.7-2.08 1.46-2.8s1.73-1.15 2.92-1.3c.03 0 .14 0 .34-.01s.35-.01.46-.01c.53.03 1.06.15 1.59.35s.93.31 1.21.32c.18 0 .3-.03.38-.1s.12-.15.13-.24c0-.09.03-.17.07-.24s.11-.11.21-.12c.11 0 .2.06.27.18v3.08l-.06.1c-.13.07-.25.08-.37.03-.04-.04-.09-.16-.15-.35-.06-.2-.17-.42-.34-.66-.32-.45-.76-.86-1.3-1.24-.54-.37-1.12-.56-1.73-.56h-.13c-.43 0-.84.19-1.21.56-.86.77-1.28 2.19-1.28 4.26 0 .85.1 1.63.31 2.31.4 1.46 1.25 2.2 2.54 2.2s2.42-.49 3.48-1.47c.17-.17.29-.25.37-.25.05 0 .1.02.16.06s.09.1.1.18z"/><path d="m193.07 148.15c0-.09.03-.16.09-.21s.12-.07.19-.07c.1 0 .18.05.25.15.04.07.91 2.45 2.63 7.15 1.71 4.7 2.57 7.08 2.57 7.16s-.03.14-.09.19-.13.08-.21.09c-.1 0-.18-.05-.25-.15-.03-.04-.9-2.41-2.61-7.1s-2.57-7.1-2.57-7.21z"/><path d="m203.29 155.24c0-.68.05-1.32.15-1.93s.21-1.13.34-1.58c.13-.44.31-.87.55-1.3.24-.42.42-.75.56-.99s.34-.49.62-.77.44-.44.49-.5.17-.16.37-.31h.25c.14 0 .21.04.21.13 0 .03-.08.13-.25.31s-.37.44-.6.78c-.24.34-.48.77-.72 1.27-.25.5-.45 1.18-.62 2.03s-.25 1.8-.25 2.84.08 1.98.25 2.83c.17.84.37 1.53.6 2.05s.48.94.72 1.27c.25.32.45.58.62.78s.25.3.25.31c0 .09-.07.13-.22.13h-.24l-.41-.35c-.92-.84-1.6-1.88-2.02-3.12-.42-1.25-.63-2.54-.63-3.89z"/><path d="m214.48 155.35c-.52-.73-.79-1.09-.8-1.09-.06 0-.1 0-.13.03-.17 0-.32.01-.46.04h-.35l2.66 4.08h1.37l-.19-.22c-.52-.58-1.22-1.53-2.09-2.84zm.42-4.34v.6c0 .4-.02.74-.06 1.02s-.09.46-.15.56-.1.19-.13.27-.05.13-.07.15c0 0 0 .01.01.01.04 0 .2-.05.47-.15.94-.29 1.42-.91 1.42-1.84s-.57-1.62-1.71-1.99l-.3-.1.06.16c.13.15.26.47.4.96.04.24.06.56.06.96v-.6zm-.52.61c0-.43-.04-.8-.12-1.09s-.2-.52-.35-.66c-.16-.15-.28-.24-.37-.28s-.2-.08-.34-.13c-.03 0-.22-.02-.56-.07-.38 0-.67.06-.86.19-.1.07-.15.19-.16.37 0 .18-.02.81-.03 1.9v1.99h.24c.42 0 .87-.03 1.34-.09.45-.12.77-.31.94-.59s.27-.79.27-1.53zm-3.18 6.79c-.03-.07-.05-.12-.06-.15 0-.03-.02-.19-.03-.49 0-.29-.02-.71-.03-1.25v-2.56-4.19l.06-.21.1-.19h-1.64c.03.07.05.12.06.15 0 .03.02.2.03.52 0 .31.02.74.03 1.27v2.59c0 2.06 0 3.3-.01 3.71 0 .41-.04.67-.09.77 0 0-.01.02-.01.03h1.59zm-3.31-9.28c0-.07.05-.16.16-.27h2.85c1.91.02 2.98.05 3.22.09.22.04.42.09.62.15s.37.12.52.19.29.14.41.22.24.16.32.24l.27.24c.09.08.15.15.19.22s.09.14.15.21.09.13.1.19c0 .06.03.11.06.16l.04.09c.05.18.07.43.07.75 0 .49-.06.87-.19 1.15-.34.7-1.03 1.15-2.07 1.37l-.27.07c.07.11.16.25.27.43s.32.5.65.97c.32.47.62.89.9 1.25s.57.7.87 1.02c.3.31.55.5.72.55.19.05.28.14.28.28 0 .09-.06.17-.18.25h-2.7c-.07-.07-.59-.85-1.56-2.36l-1.45-2.23h-.56v1.87c.02 1.14.03 1.75.04 1.83.03.17.13.27.3.31.04 0 .18.02.41.04.25 0 .41.03.5.1.09.11.09.23 0 .37l-.1.06h-4.69c-.12-.06-.18-.14-.18-.25 0-.19.19-.28.58-.28.4-.03.63-.11.68-.25.05-.08.07-1.5.07-4.26s-.02-4.19-.07-4.29c-.06-.13-.29-.21-.68-.24-.37 0-.56-.08-.56-.25z"/><path d="m230.29 150.11h.01c.12 0 .21.07.28.22v4.23c0 1.32-.03 2.04-.07 2.18 0 .02-.01.03-.01.04-.19.76-.67 1.36-1.45 1.8s-1.63.66-2.57.66c-.64 0-1.25-.1-1.83-.31s-1.09-.54-1.52-.99-.68-.98-.74-1.58c0-.07-.01-1.11-.01-3.11v-2.96c.11-.13.21-.19.3-.19.1 0 .2.06.3.19v6.09s.04.15.04.15c.14.66.55 1.17 1.22 1.55.68.37 1.42.56 2.23.57.82 0 1.58-.2 2.29-.59s1.12-.97 1.22-1.72c0-.05.01-1.07.01-3.07v-2.95c.08-.15.18-.22.3-.22z"/><path d="m241.09 162.33c0 .13-.03.22-.09.28h-.27c-1.27 0-2.15-.32-2.66-.97-.05-.07-.09-.13-.12-.18s-.05-.1-.07-.16-.04-.12-.06-.19-.03-.14-.03-.22 0-.19-.01-.32c0-.14-.01-.27-.01-.4v-2.02c0-.87-.03-1.37-.07-1.47 0 0-.01-.02-.01-.03-.14-.35-.38-.63-.74-.83-.35-.2-.7-.29-1.05-.29-.11 0-.18-.01-.21-.04s-.04-.11-.04-.24.01-.21.04-.24.1-.04.21-.04c.33 0 .68-.1 1.03-.29.35-.2.6-.47.75-.83.05-.11.07-.27.07-.47s0-.95.01-2.24v-.74c0-.54.03-.92.09-1.13.06-.22.2-.42.43-.62.26-.26.65-.46 1.18-.62.36-.08.62-.12.78-.13h.19c.11 0 .2 0 .27-.01h.3c.06.06.09.15.09.27 0 .13-.01.21-.04.24-.02.03-.1.04-.24.04-.52.03-.93.15-1.22.35-.3.21-.47.41-.53.62-.05.13-.07.85-.07 2.18v1.21c0 .46-.01.78-.04.94-.03.17-.11.36-.25.57-.3.42-.73.71-1.28.87l-.21.07.21.07c.18.06.35.13.53.22s.38.26.62.5c.24.25.37.54.41.87 0 .06.01.73.01 2s.02 2.05.07 2.18c.1.27.31.49.63.66.32.18.7.28 1.12.31.14 0 .22.01.24.04.03.03.04.1.04.22z"/><path d="m242.89 154.21v-.19c0-.13.07-.23.21-.29h4.41v-2.2c0-1.46 0-2.22.03-2.25.05-.11.13-.16.25-.16.14 0 .22.06.25.18s.05.4.06.85v3.58h4.4c.15.08.22.18.22.29 0 .13-.07.23-.22.29h-4.4v4.02h4.4c.15.08.22.18.22.29s-.07.22-.22.29h-9.4c-.14-.07-.21-.17-.21-.29s.07-.23.21-.29h4.41v-4.02h-4.41c-.14-.07-.21-.17-.21-.29v.19z"/><path d="m253.85 154.7c0-.08.04-.23.13-.46s.21-.48.35-.75c.15-.28.36-.53.65-.75.29-.23.58-.33.89-.32.38 0 .7.11.96.34s.39.53.4.91c0 .17-.07.44-.21.83s-.33.9-.59 1.55-.46 1.2-.62 1.67c-.05.22-.07.37-.07.47 0 .25.08.37.25.37.09 0 .18-.01.28-.04s.21-.1.34-.21.26-.28.4-.52.26-.53.37-.87c.03-.12.05-.19.07-.21s.1-.03.25-.03c.2 0 .3.05.3.15 0 .08-.04.23-.13.46s-.21.48-.37.75c-.16.28-.38.52-.66.74-.29.22-.59.32-.91.32s-.6-.1-.87-.31-.4-.52-.41-.94c0-.17.02-.32.07-.47s.26-.71.63-1.68c.37-.99.59-1.59.65-1.78.06-.2.09-.39.1-.57 0-.24-.08-.35-.25-.35h-.03c-.3 0-.57.16-.81.49-.25.32-.43.74-.56 1.24 0 0-.02.02-.03.04 0 .02-.01.03-.01.04s0 .02-.03.03c-.02 0-.03.01-.04.01h-.38c-.06-.06-.09-.1-.09-.13zm2.41-4.62c0-.24.09-.44.28-.62s.4-.27.65-.28c.18 0 .32.06.44.18s.18.27.19.44c0 .23-.1.43-.3.62s-.41.28-.65.29c-.15 0-.29-.05-.41-.15-.13-.1-.2-.26-.21-.49z"/><path d="m259.59 148.15c0-.14.01-.22.04-.24s.13-.03.3-.04c.82 0 1.45.12 1.89.37s.75.52.93.81c.09.21.14.38.15.52 0 .14.02.8.03 1.97 0 1.37.02 2.07.03 2.12.13.44.38.77.77.97s.74.31 1.06.32c.11 0 .18.01.21.04s.04.11.04.24-.01.21-.04.24-.1.04-.21.04c-.36 0-.72.1-1.06.31s-.58.47-.69.78c-.05.14-.08.31-.09.53 0 .22-.01.95-.01 2.2v.75c0 .54-.03.92-.09 1.13-.06.22-.2.42-.43.62-.53.51-1.35.77-2.46.77-.18 0-.28-.01-.31-.04s-.04-.11-.04-.25v-.1s0-.03.01-.07c0-.04.02-.06.04-.06s.06 0 .12-.01c.14 0 .29-.01.46-.04s.35-.08.56-.15.39-.18.55-.34.28-.34.35-.56c0-.05.02-.75.03-2.09v-2c.14-.56.49-1.01 1.05-1.34.34-.17.59-.27.74-.29-.25-.07-.49-.17-.74-.29-.54-.33-.88-.74-1-1.21l-.03-.15v-2c-.02-1.35-.03-2.04-.04-2.09-.12-.39-.38-.67-.78-.83s-.78-.24-1.14-.25c-.09 0-.14-.01-.15-.04 0-.03-.02-.1-.03-.22z"/><path d="m266.89 147.89h.06s.1-.01.15-.01h.18l.41.35c.92.84 1.6 1.88 2.02 3.12s.63 2.54.63 3.89c0 .67-.05 1.31-.15 1.93s-.21 1.14-.34 1.58c-.13.43-.31.86-.55 1.3-.24.43-.42.76-.56.99s-.34.48-.6.75c-.27.28-.42.44-.47.49s-.16.14-.34.28l-.06.06h-.34s-.05-.01-.07-.04-.03-.07-.04-.13c0 0 .06-.07.16-.19 1.52-1.58 2.29-3.92 2.29-7s-.76-5.42-2.29-7c-.1-.12-.15-.18-.16-.19 0-.08.02-.13.07-.16z"/></g></svg>
