<svg viewBox="0 0 116.3 46.29" xmlns="http://www.w3.org/2000/svg"><g id="a"><g><g><g><path id="b" d="m1.4 14.08h-.3c-.2 0-.37-.07-.5-.2s-.2-.31-.2-.53c0-.32.15-.6.46-.84s.86-.37 1.64-.37c.66 0 1.19.14 1.6.43s.68.63.81 1.03c.05.13.07.27.07.42s0 .67.01 1.56v.95c0 .43.02.73.07.9s.14.24.29.24c.14 0 .23-.07.27-.22.05-.14.07-.38.07-.72v-.49h.54v.53c0 .36-.02.57-.04.64-.08.27-.24.48-.48.64-.24.15-.48.24-.75.24s-.48-.07-.64-.24-.27-.36-.33-.57v-.05l-.03.04s-.04.05-.07.08-.06.07-.11.12-.1.1-.16.15-.13.1-.2.16-.15.11-.24.15-.19.07-.3.11-.23.06-.35.08c-.13.02-.27.03-.42.04-.54 0-1.03-.14-1.47-.42-.43-.28-.65-.67-.65-1.18 0-.19.03-.37.1-.54s.19-.36.37-.56.4-.37.65-.5c.25-.14.61-.26 1.06-.38s.95-.19 1.49-.2h.19v-.3c0-.31-.03-.53-.08-.68-.2-.64-.64-.96-1.32-.96-.16 0-.32 0-.46.01s-.26.03-.34.05-.12.04-.11.04c.2.14.3.33.3.6 0 .23-.07.4-.22.53l-.23.2zm-.15 2.7c0 .28.11.53.33.75s.48.33.8.34c.34 0 .65-.1.91-.31s.44-.48.53-.81c.02-.06.03-.36.04-.9 0-.52 0-.79-.01-.79-.07 0-.17 0-.29.01s-.32.05-.61.12-.55.16-.79.27-.44.28-.62.5-.28.5-.29.81z"/><path id="c" d="m6.81 17.59h.19c.35 0 .57-.06.64-.19v-.42c0-.13 0-.27.01-.42v-.53s0-.39 0-.57v-2.01c-.04-.17-.1-.29-.2-.34s-.3-.1-.61-.12h-.24v-.31c0-.21 0-.31.03-.31h.14c.09-.02.22-.03.38-.04s.33-.02.49-.03c.14 0 .3-.02.48-.03.17 0 .3-.02.39-.04s.14-.02.15-.01h.04v.94c.35-.62.79-.92 1.32-.92h.08c.41 0 .71.1.9.3s.29.41.29.62c0 .19-.06.35-.18.49s-.29.2-.52.2-.39-.07-.5-.22-.17-.3-.18-.46c0-.08 0-.15.03-.22s.04-.12.07-.16.04-.07.04-.07c-.02-.02-.12 0-.31.05-.14.07-.25.14-.33.2-.43.41-.64 1.22-.64 2.43v1.44c0 .11 0 .2.01.27s0 .14 0 .2v.07s.02.04.04.05.04.03.07.04.05.02.07.04.05.03.1.03.08 0 .1.01.06.01.12.01h.12s.06 0 .14.01.12 0 .14 0h.42v.62h-.12c-.16-.03-.74-.04-1.72-.04-.93 0-1.44.01-1.52.04h-.11v-.62h.22z"/><path id="d" d="m12.01 12.49c.48-.04.85-.29 1.11-.76s.41-1.02.43-1.66v-.2h.54v2.5h1.83v.62h-1.83v1.95c0 1.13.01 1.77.01 1.91s.03.29.1.43c.13.35.35.53.67.53.4 0 .64-.32.73-.96 0-.07.01-.28.01-.62v-.48h.54v.64c0 .7-.19 1.23-.57 1.59-.24.24-.56.37-.95.37-.31 0-.57-.05-.8-.16s-.4-.25-.52-.42-.2-.33-.26-.48c-.05-.14-.09-.29-.1-.43 0-.06-.01-.73-.01-2.01v-1.86h-1.07v-.5h.12z"/><path id="e" d="m17.48 17.59h.19c.35 0 .57-.06.64-.19v-1.45c0-.22 0-.44.01-.68s0-.48 0-.75v-.77-2.08c0-.31 0-.58-.01-.81s0-.43 0-.6 0-.24 0-.23c-.03-.17-.09-.29-.19-.34s-.3-.1-.61-.12h-.24v-.31c0-.21 0-.31.03-.31h.14c.09-.02.22-.03.39-.04.17 0 .34-.02.5-.03.15 0 .32-.02.5-.03.18 0 .32-.02.41-.04s.14-.02.15-.01h.04v4.44c.54-.68 1.19-1.02 1.95-1.02 1.11 0 1.72.51 1.83 1.53 0 .06.01.69.01 1.89v1.17c0 .34 0 .55.03.61s.07.11.15.14c.19.03.41.04.67.04h.22v.62h-.43c-.21-.02-.43-.03-.68-.03s-.42 0-.52-.01c-.93 0-1.44.01-1.52.04h-.11v-.62h.22c.55 0 .83-.07.83-.22 0-.02.01-.64.01-1.87 0-1.22-.02-1.87-.03-1.94-.05-.25-.14-.44-.27-.57s-.24-.2-.33-.23-.21-.04-.35-.03c-.41 0-.76.15-1.07.46-.24.24-.4.49-.46.75s-.1.63-.11 1.13v1.68c0 .27 0 .45.01.54 0 .09.02.15.04.18s.06.05.12.08c.19.03.41.04.67.04h.22v.62h-.42c-.22-.02-.45-.03-.69-.03s-.42 0-.52-.01c-.93 0-1.44.01-1.52.04h-.11v-.62h.22z"/></g><path id="f" d="m28.57 14.29c.06-.38.31-.82.73-1.32.43-.5.95-.75 1.57-.76.32 0 .61.08.87.24s.46.37.58.61c.38-.57.84-.86 1.37-.86.33 0 .62.1.87.3s.37.47.38.8c0 .26-.06.48-.19.64s-.25.26-.37.3-.22.05-.31.05c-.17 0-.31-.05-.42-.15s-.16-.23-.16-.39c0-.42.23-.7.68-.86-.1-.12-.28-.18-.54-.18-.12 0-.2 0-.26.03-.34.14-.6.44-.76.9-.54 2-.81 3.17-.81 3.5 0 .25.07.43.22.54s.3.16.48.16c.33 0 .67-.15.99-.45s.55-.67.67-1.1c.03-.09.05-.14.08-.15s.1-.02.22-.03h.05c.14 0 .2.04.2.11 0 0 0 .06-.03.15-.14.52-.43.97-.84 1.37-.42.4-.9.6-1.45.6-.63 0-1.11-.29-1.44-.86-.37.56-.8.84-1.28.84h-.08c-.44 0-.76-.12-.95-.35-.19-.24-.29-.48-.3-.75 0-.29.09-.52.26-.71.17-.18.38-.27.61-.27.39 0 .58.19.58.57 0 .18-.05.34-.16.48s-.21.23-.31.27-.16.07-.18.07h-.04s.03.04.08.07.13.06.22.1.18.05.26.04c.33 0 .61-.2.84-.61.08-.14.19-.45.31-.92.13-.47.25-.96.38-1.47s.2-.81.22-.9c.05-.24.07-.42.07-.53 0-.25-.07-.43-.2-.54s-.29-.16-.46-.16c-.36 0-.7.14-1.02.43s-.54.66-.67 1.11c-.02.08-.04.13-.07.14s-.1.02-.22.03h-.19c-.05-.05-.08-.1-.08-.15z"/><path id="g" d="m40.16 13.51c0-.12.06-.21.19-.27h8.65c.14.07.2.16.2.27 0 .1-.06.19-.19.26h-4.32s-4.32.01-4.32.01c-.14-.05-.22-.14-.22-.27zm0 2.63c0-.14.07-.23.22-.27h8.63c.13.09.19.18.19.27 0 .12-.07.21-.2.27h-8.65c-.13-.06-.19-.15-.19-.27z"/><g><path id="h" d="m59.61 1.19-.18.07c-.13.05-.31.09-.54.14s-.5.08-.79.1h-.26v-.62h.26c.43-.02.82-.09 1.18-.2s.62-.23.76-.33.27-.2.38-.3c.02-.03.07-.04.16-.04.08 0 .16.03.23.08v8.13c.08.06.13.1.18.12s.15.04.33.05.45.03.84.03h.35v.62h-.15c-.19-.03-.91-.04-2.16-.04s-1.94.01-2.13.04h-.16v-.62h.87c.14 0 .26 0 .34-.01s.15-.02.22-.04.1-.03.11-.03.04-.02.08-.07.07-.06.08-.05v-7.03z"/><path id="i" d="m58.2 21.71c-.24 0-.44-.08-.58-.24s-.22-.36-.22-.6c0-.64.24-1.2.72-1.67s1.08-.71 1.79-.71c.82 0 1.51.25 2.06.76s.83 1.16.84 1.97c0 .39-.09.76-.27 1.11s-.4.66-.65.92-.62.6-1.09 1c-.33.28-.78.7-1.36 1.25l-.8.76h1.03c1.42.01 2.18 0 2.27-.05.06-.02.17-.42.33-1.21v-.04h.54v.04s-.07.44-.18 1.24-.18 1.21-.2 1.25v.04h-5.04v-.42c0-.06.03-.13.08-.2s.19-.23.41-.48c.26-.29.49-.54.68-.76.08-.09.24-.26.46-.5s.38-.41.46-.5.21-.24.39-.45.31-.36.38-.46.18-.24.31-.41.23-.32.29-.43.12-.25.2-.39.14-.29.18-.43.07-.28.1-.41.04-.28.04-.45c0-.57-.15-1.06-.46-1.48s-.75-.62-1.32-.62c-.3 0-.56.08-.79.23s-.38.3-.48.45-.14.23-.14.26c0 0 .02.01.07.01.16 0 .33.06.5.19s.26.33.26.62c0 .23-.07.42-.22.57s-.35.24-.61.24z"/><rect x="55.37" y="14.42" width="9.5" height=".81"/></g><g><path id="j" d="m67.07 17.59h.19c.35 0 .57-.06.64-.19v-.87c0-.17 0-.37.01-.58s0-.44 0-.68 0-.48 0-.75v-.77-2.89c0-.24 0-.43-.01-.6s0-.24 0-.23c-.03-.17-.09-.29-.19-.34s-.3-.1-.61-.12h-.24v-.31c0-.21 0-.31.03-.31h.14c.09-.02.22-.03.39-.04.17 0 .34-.02.5-.03.15 0 .32-.02.5-.03.18 0 .32-.02.41-.04s.14-.02.15-.01h.04v4.28c0 2.87 0 4.31.01 4.33.04.07.09.12.16.15.19.03.41.04.67.04h.22v.62h-.42c-.21-.02-.43-.03-.67-.03s-.41 0-.52-.01-.28 0-.52 0-.46.02-.68.03h-.31s-.11.01-.11.01v-.62h.22z"/><path id="k" d="m70.83 17.59h.19c.35 0 .57-.06.64-.19v-.84c0-.15 0-.33.01-.53s0-.39 0-.57v-.9c0-.32 0-.58-.01-.8v-.31c-.03-.17-.09-.29-.19-.34s-.3-.1-.61-.12h-.24v-.31c0-.21 0-.31.03-.31h.14c.09-.02.22-.03.38-.04s.33-.02.5-.03c.15 0 .32-.02.49-.03.17 0 .3-.02.39-.04s.14-.02.15-.01h.04v.54c0 .34 0 .52.01.52s.03-.02.07-.07.09-.11.16-.2.16-.17.26-.24.23-.16.39-.26.33-.17.52-.22.41-.07.69-.07c1.03.04 1.61.55 1.72 1.53 0 .06.01.69.01 1.89v1.17c0 .34 0 .55.03.61s.07.11.15.14c.19.03.41.04.67.04h.22v.62h-.43c-.21-.02-.43-.03-.68-.03s-.42 0-.52-.01c-.93 0-1.44.01-1.52.04h-.11v-.62h.22c.55 0 .83-.07.83-.22 0-.02.01-.64.01-1.87 0-1.22-.02-1.87-.03-1.94-.05-.25-.14-.44-.27-.57s-.24-.2-.33-.23-.21-.04-.35-.03c-.41 0-.76.15-1.07.46-.24.24-.4.49-.46.75s-.1.63-.11 1.13v1.68c0 .27 0 .45.01.54 0 .09.02.15.04.18s.06.05.12.08c.19.03.41.04.67.04h.22v.62h-.42c-.22-.02-.45-.03-.69-.03s-.42 0-.52-.01c-.93 0-1.44.01-1.52.04h-.11v-.62h.22z"/></g><g><g><path id="l" d="m85.96 1.19-.18.07c-.13.05-.31.09-.54.14s-.5.08-.79.1h-.26v-.62h.26c.43-.02.82-.09 1.18-.2s.62-.23.76-.33.27-.2.38-.3c.02-.03.07-.04.16-.04.08 0 .16.03.23.08v8.13c.08.06.13.1.18.12s.15.04.33.05.45.03.84.03h.35v.62h-.15c-.19-.03-.91-.04-2.16-.04s-1.94.01-2.13.04h-.16v-.62h.87c.14 0 .26 0 .34-.01s.15-.02.22-.04.1-.03.11-.03.04-.02.08-.07.07-.06.08-.05v-7.03z"/><path id="m" d="M93.63,5.82v-.18c0-.12.06-.21.19-.27h4.06V1.3c.1-.12.19-.18.27-.18.12,0,.21.07.27.2v4.05h4.05c.14.07.2.16.2.27s-.07.2-.2.27h-4.05v4.05c-.07.13-.15.19-.24.19h-.05c-.11,0-.19-.06-.24-.19v-4.05h-4.06c-.13-.06-.19-.15-.19-.27v.18Z"/><path id="n" d="m107.15 5.12c.06-.38.31-.82.73-1.32.43-.5.95-.75 1.57-.76.32 0 .61.08.87.24s.46.37.58.61c.38-.57.84-.86 1.37-.86.33 0 .62.1.87.3s.37.47.38.8c0 .26-.06.48-.19.64s-.25.26-.37.3-.22.05-.31.05c-.17 0-.31-.05-.42-.15s-.16-.23-.16-.39c0-.42.23-.7.68-.86-.1-.12-.28-.18-.54-.18-.12 0-.2 0-.26.03-.34.14-.6.44-.76.9-.54 2-.81 3.17-.81 3.5 0 .25.07.43.22.54s.3.16.48.16c.33 0 .67-.15.99-.45s.55-.67.67-1.1c.03-.09.05-.14.08-.15s.1-.02.22-.03h.05c.14 0 .2.04.2.11 0 0 0 .06-.03.15-.14.52-.43.97-.84 1.37-.42.4-.9.6-1.45.6-.63 0-1.11-.29-1.44-.86-.37.56-.8.84-1.28.84h-.08c-.44 0-.76-.12-.95-.35-.19-.24-.29-.48-.3-.75 0-.29.09-.52.26-.71.17-.18.38-.27.61-.27.39 0 .58.19.58.57 0 .18-.05.34-.16.48s-.21.23-.31.27-.16.07-.18.07h-.04s.03.04.08.07.13.06.22.1.18.05.26.04c.33 0 .61-.2.84-.61.08-.14.19-.45.31-.92.13-.47.25-.96.38-1.47s.2-.81.22-.9c.05-.24.07-.42.07-.53 0-.25-.07-.43-.2-.54s-.29-.16-.46-.16c-.36 0-.7.14-1.02.43s-.54.66-.67 1.11c-.02.08-.04.13-.07.14s-.1.02-.22.03h-.19c-.05-.05-.08-.1-.08-.15z"/></g><g><path id="o" d="m85.96 19.68-.18.07c-.13.05-.31.09-.54.14s-.5.08-.79.1h-.26v-.62h.26c.43-.02.82-.09 1.18-.2s.62-.23.76-.33.27-.2.38-.3c.02-.03.07-.04.16-.04.08 0 .16.03.23.08v8.13c.08.06.13.1.18.12s.15.04.33.05.45.03.84.03h.35v.62h-.15c-.19-.03-.91-.04-2.16-.04s-1.94.01-2.13.04h-.16v-.62h.87c.14 0 .26 0 .34-.01s.15-.02.22-.04.1-.03.11-.03.04-.02.08-.07.07-.06.08-.05v-7.02z"/><path id="p" d="m94.01 24.31v-.18c0-.12.06-.21.19-.27h7.89c.14.07.2.16.2.27s-.07.2-.2.27h-7.89c-.13-.06-.19-.15-.19-.27v.18z"/><path id="q" d="m107.15 23.61c.06-.38.31-.82.73-1.32.43-.5.95-.75 1.57-.76.32 0 .61.08.87.24s.46.37.58.61c.38-.57.84-.86 1.37-.86.33 0 .62.1.87.3s.37.47.38.8c0 .26-.06.48-.19.64s-.25.26-.37.3-.22.05-.31.05c-.17 0-.31-.05-.42-.15s-.16-.23-.16-.39c0-.42.23-.7.68-.86-.1-.12-.28-.18-.54-.18-.12 0-.2 0-.26.03-.34.14-.6.44-.76.9-.54 2-.81 3.17-.81 3.5 0 .25.07.43.22.54s.3.16.48.16c.33 0 .67-.15.99-.45s.55-.67.67-1.1c.03-.09.05-.14.08-.15s.1-.02.22-.03h.05c.14 0 .2.04.2.11 0 0 0 .06-.03.15-.14.52-.43.97-.84 1.37-.42.4-.9.6-1.45.6-.63 0-1.11-.29-1.44-.86-.37.56-.8.84-1.28.84h-.08c-.44 0-.76-.12-.95-.35-.19-.24-.29-.48-.3-.75 0-.29.09-.52.26-.71.17-.18.38-.27.61-.27.39 0 .58.19.58.57 0 .18-.05.34-.16.48s-.21.23-.31.27-.16.07-.18.07h-.04s.03.04.08.07.13.06.22.1.18.05.26.04c.33 0 .61-.2.84-.61.08-.14.19-.45.31-.92.13-.47.25-.96.38-1.47s.2-.81.22-.9c.05-.24.07-.42.07-.53 0-.25-.07-.43-.2-.54s-.29-.16-.46-.16c-.36 0-.7.14-1.02.43s-.54.66-.67 1.11c-.02.08-.04.13-.07.14s-.1.02-.22.03h-.19c-.05-.05-.08-.1-.08-.15z"/></g><rect x="81.71" y="14.42" width="33.86" height=".81"/></g></g><g><path id="r" d="m40 38.97c.06-.38.31-.82.73-1.32.43-.5.95-.75 1.57-.76.32 0 .61.08.87.24s.46.37.58.61c.38-.57.84-.86 1.37-.86.33 0 .62.1.87.3s.37.47.38.8c0 .26-.06.48-.19.64s-.25.26-.37.3-.22.05-.31.05c-.17 0-.31-.05-.42-.15s-.16-.23-.16-.39c0-.42.23-.7.68-.86-.1-.12-.28-.18-.54-.18-.12 0-.2 0-.26.03-.34.14-.6.44-.76.9-.54 2-.81 3.17-.81 3.5 0 .25.07.43.22.54s.3.16.48.16c.33 0 .67-.15.99-.45s.55-.67.67-1.1c.03-.09.05-.14.08-.15s.1-.02.22-.03h.05c.14 0 .2.04.2.11 0 0 0 .06-.03.15-.14.52-.43.97-.84 1.37-.42.4-.9.6-1.45.6-.63 0-1.11-.29-1.44-.86-.37.56-.8.84-1.28.84h-.08c-.44 0-.76-.12-.95-.35-.19-.24-.29-.48-.3-.75 0-.29.09-.52.26-.71.17-.18.38-.27.61-.27.39 0 .58.19.58.57 0 .18-.05.34-.16.48s-.21.23-.31.27-.16.07-.18.07h-.04s.03.04.08.07.13.06.22.1.18.05.26.04c.33 0 .61-.2.84-.61.08-.14.19-.45.31-.92.13-.47.25-.96.38-1.47s.2-.81.22-.9c.05-.24.07-.42.07-.53 0-.25-.07-.43-.2-.54s-.29-.16-.46-.16c-.36 0-.7.14-1.02.43s-.54.66-.67 1.11c-.02.08-.04.13-.07.14s-.1.02-.22.03h-.19c-.05-.05-.08-.1-.08-.15z"/><path id="s" d="m51.97 39.5c0-1.1.37-2.01 1.11-2.71.74-.71 1.62-1.11 2.63-1.21h.23c.14 0 .33 0 .57-.01s.46 0 .68 0h1.34c.14.07.2.16.2.27 0 .08-.06.17-.18.26h-1.41c-1 .02-1.62.05-1.86.1-.44.11-.84.27-1.18.49s-.61.44-.8.67-.35.48-.49.75-.22.49-.24.65-.05.32-.07.46v.03h6.03c.14.07.2.16.2.27s-.07.2-.2.27h-6.03v.03c0 .19.05.42.14.69s.24.57.45.88c.21.32.5.61.87.87s.81.45 1.32.56c.24.05.87.09 1.87.1h1.41c.12.09.18.18.18.27 0 .11-.07.2-.2.27h-1.66c-.16 0-.29 0-.39.01-1.4 0-2.51-.39-3.33-1.17-.8-.74-1.19-1.67-1.19-2.78z"/><path id="t" d="m72.94 41.12c0 .05-.05.15-.16.3s-.29.32-.53.52-.52.39-.81.57c-.3.18-.68.33-1.14.46s-.93.19-1.4.19c-.51 0-1-.07-1.49-.22-.49-.14-.95-.37-1.38-.67s-.81-.7-1.13-1.19c-.32-.5-.53-1.07-.64-1.72-.05-.2-.07-.56-.07-1.09s.02-.89.07-1.09c.2-1.06.65-1.92 1.34-2.58.7-.66 1.59-1.06 2.69-1.19.03 0 .13 0 .31-.01s.32-.01.42-.01c.49.03.98.14 1.47.33s.86.29 1.11.3c.16 0 .28-.03.35-.1s.11-.14.12-.22.03-.15.07-.22.1-.1.19-.11c.1 0 .18.05.24.16v2.84l-.05.1c-.12.06-.23.07-.34.03-.04-.04-.08-.14-.14-.33s-.16-.38-.31-.61c-.3-.42-.7-.8-1.19-1.14-.5-.34-1.03-.52-1.59-.52h-.12c-.4 0-.77.17-1.11.52-.79.71-1.18 2.01-1.18 3.92 0 .79.1 1.5.29 2.13.37 1.35 1.15 2.02 2.33 2.02s2.23-.45 3.2-1.36c.15-.15.27-.23.34-.23.05 0 .1.02.15.05s.09.09.1.16zm-5.89-6.71c.13-.16.18-.24.15-.24-.21.07-.42.18-.64.31s-.46.32-.72.56-.49.55-.69.94-.34.82-.42 1.3c-.05.27-.07.6-.07.99s.02.72.07.99c.09.5.24.95.46 1.34s.45.71.69.92.48.4.72.54.43.24.58.3l.23.07c-.06-.06-.12-.13-.18-.19-.59-.57-.96-1.5-1.13-2.8-.03-.24-.04-.65-.04-1.22s.01-.98.04-1.22c.17-1.13.48-2 .94-2.59zm5.03.82v-.81s-.07.03-.11.03c-.09.04-.19.05-.31.05h-.2l.18.19c.18.2.28.32.3.35l.15.19z"/><path id="u" d="m77.23 32.97c0-.08.03-.14.08-.19s.11-.07.18-.07c.09 0 .17.05.23.14.04.06.84 2.26 2.42 6.58 1.57 4.33 2.36 6.52 2.36 6.6s-.03.13-.08.18-.12.07-.19.08c-.09 0-.17-.05-.23-.14-.03-.04-.83-2.22-2.4-6.54-1.57-4.33-2.36-6.54-2.36-6.64z"/><path id="v" d="m92.17 46.03c0 .12-.03.2-.08.26h-.24c-1.17 0-1.98-.3-2.44-.9-.05-.06-.08-.12-.11-.16s-.05-.1-.07-.15-.04-.11-.05-.18-.03-.13-.03-.2 0-.17-.01-.3-.01-.25-.01-.37v-1.86c0-.81-.03-1.26-.07-1.36 0 0-.01-.02-.01-.03-.13-.33-.35-.58-.68-.76s-.65-.27-.96-.27c-.1 0-.16-.01-.19-.04s-.04-.1-.04-.22.01-.19.04-.22.09-.04.19-.04c.31 0 .62-.09.95-.27s.56-.43.69-.76c.05-.1.07-.24.07-.43s0-.88.01-2.06v-.68c0-.5.03-.85.08-1.05s.19-.39.39-.57c.24-.24.6-.43 1.09-.57.33-.07.57-.11.72-.12h.18c.1 0 .18 0 .24-.01h.27c.05.05.08.14.08.24 0 .12-.01.19-.04.22-.02.03-.09.04-.22.04-.48.03-.86.14-1.13.33s-.43.38-.49.57c-.05.12-.07.79-.07 2.01v1.11c0 .43-.01.71-.04.87s-.1.33-.23.53c-.28.39-.67.66-1.18.8l-.19.07.19.07c.16.05.33.12.49.2s.35.24.57.46.34.49.38.8c0 .05.01.67.01 1.85s.02 1.89.07 2.01c.09.24.29.45.58.61s.64.26 1.03.29c.13 0 .2.01.22.04.03.03.04.1.04.2z"/><path id="w" d="m93.82 38.55v-.18c0-.12.06-.21.19-.27h4.06v-2.02c0-1.35 0-2.04.03-2.08.05-.1.12-.15.23-.15.13 0 .2.05.23.16s.05.37.05.79v3.3h4.05c.14.07.2.16.2.27 0 .12-.07.21-.2.27h-4.05v3.71h4.05c.14.07.2.16.2.27s-.07.2-.2.27h-8.65c-.13-.06-.19-.15-.19-.27s.06-.21.19-.27h4.06v-3.71h-4.06c-.13-.06-.19-.15-.19-.27v.18z"/><path id="x" d="m106.52 35.05-.18.07c-.13.05-.31.09-.54.14s-.5.08-.79.1h-.26v-.62h.26c.43-.02.82-.09 1.18-.2s.62-.23.76-.33.27-.2.38-.3c.02-.03.07-.04.16-.04.08 0 .16.03.23.08v8.13c.08.06.13.1.18.12s.15.04.33.05.45.03.84.03h.35v.62h-.15c-.19-.03-.91-.04-2.16-.04s-1.94.01-2.13.04h-.16v-.62h.87c.14 0 .26 0 .34-.01s.15-.02.22-.04.1-.03.11-.03.04-.02.08-.07.07-.06.08-.05v-7.02z"/><path id="y" d="m111.29 32.97c0-.13.01-.2.04-.22s.12-.03.27-.04c.75 0 1.33.11 1.74.34s.69.48.86.75c.08.19.13.35.14.48s.02.73.03 1.82c0 1.26.02 1.91.03 1.95.12.41.35.71.71.9s.68.29.98.3c.1 0 .16.01.19.04s.04.1.04.22-.01.19-.04.22-.09.04-.19.04c-.33 0-.66.1-.98.29s-.53.43-.64.72c-.05.13-.07.29-.08.49 0 .2-.01.87-.01 2.02v.69c0 .5-.03.85-.08 1.05s-.19.39-.39.57c-.49.47-1.24.71-2.27.71-.16 0-.26-.01-.29-.04s-.04-.1-.04-.23v-.1s0-.03.01-.07.02-.05.04-.05.05 0 .11-.01c.13 0 .27-.01.42-.04s.33-.07.52-.14.36-.17.5-.31.25-.32.33-.52c0-.05.02-.69.03-1.93v-1.85c.13-.52.45-.93.96-1.24.32-.15.54-.24.68-.27-.23-.06-.45-.15-.68-.27-.5-.31-.81-.68-.92-1.11l-.03-.14v-1.85c-.02-1.24-.03-1.88-.04-1.93-.11-.36-.35-.62-.72-.76s-.72-.22-1.05-.23c-.08 0-.13-.01-.14-.04s-.02-.1-.03-.2z"/></g></g></g></svg>
