<svg viewBox="0 0 96.88 42.47" xmlns="http://www.w3.org/2000/svg"><g id="a"><g><g><g><path id="b" d="m4.56 14.21h-.29c-.19 0-.35-.07-.49-.2s-.21-.31-.22-.52c0-.21.07-.38.2-.52.05-.05.07-.07.07-.08s-.05-.02-.14-.03c-.24-.04-.46-.05-.67-.05-.44 0-.81.14-1.09.43-.43.43-.64 1.14-.64 2.13 0 .74.14 1.33.42 1.75.37.55.87.83 1.49.83.37 0 .67-.12.9-.35.23-.24.39-.52.49-.84.02-.07.04-.12.07-.14s.1-.03.22-.03h.19c.05.05.08.1.08.12 0 .04-.02.11-.05.22s-.11.26-.22.45-.24.36-.39.52c-.15.15-.37.29-.65.42s-.59.19-.94.18c-.78 0-1.46-.29-2.04-.87s-.87-1.31-.88-2.19c0-.94.29-1.71.88-2.29.59-.59 1.27-.88 2.05-.88s1.32.12 1.63.37.46.53.46.87c0 .21-.08.38-.23.5l-.23.2z"/><path id="c" d="m6.12 17.72h.19c.35 0 .57-.06.64-.19v-1.45c0-.22 0-.44.01-.68s0-.48 0-.75v-.77-2.08c0-.31 0-.58-.01-.81s0-.43 0-.6 0-.24 0-.23c-.03-.17-.09-.29-.19-.34s-.3-.1-.61-.12h-.24v-.31c0-.21 0-.31.03-.31h.14c.09-.02.22-.03.39-.04.17 0 .34-.02.5-.03.15 0 .32-.02.5-.03.18 0 .32-.02.41-.04s.14-.02.15-.01h.04v4.44c.54-.68 1.19-1.02 1.95-1.02 1.11 0 1.72.51 1.83 1.53 0 .06.01.69.01 1.89v1.17c0 .34 0 .55.03.61s.07.11.15.14c.19.03.41.04.67.04h.22v.62h-.43c-.21-.02-.43-.03-.68-.03s-.42 0-.52-.01c-.93 0-1.44.01-1.52.04h-.11v-.62h.22c.55 0 .83-.07.83-.22 0-.02.01-.64.01-1.87 0-1.22-.02-1.87-.03-1.94-.05-.25-.14-.44-.27-.57s-.24-.2-.33-.23-.21-.04-.35-.03c-.41 0-.76.15-1.07.46-.24.24-.4.49-.46.75s-.1.63-.11 1.13v1.68c0 .27 0 .45.01.54 0 .09.02.15.04.18s.06.05.12.08c.19.03.41.04.67.04h.22v.62h-.42c-.22-.02-.45-.03-.69-.03s-.42 0-.52-.01c-.93 0-1.44.01-1.52.04h-.11v-.62h.22z"/></g><path id="d" d="m17.21 14.42c.06-.38.31-.82.73-1.32.43-.5.95-.75 1.57-.76.32 0 .61.08.87.24s.46.37.58.61c.38-.57.84-.86 1.37-.86.33 0 .62.1.87.3s.37.47.38.8c0 .26-.06.48-.19.64s-.25.26-.37.3-.22.05-.31.05c-.17 0-.31-.05-.42-.15s-.16-.23-.16-.39c0-.42.23-.7.68-.86-.1-.12-.28-.18-.54-.18-.12 0-.2 0-.26.03-.34.14-.6.44-.76.9-.54 2-.81 3.17-.81 3.5 0 .25.07.43.22.54s.3.16.48.16c.33 0 .67-.15.99-.45s.55-.67.67-1.1c.03-.09.05-.14.08-.15s.1-.02.22-.03h.05c.14 0 .2.04.2.11 0 0 0 .06-.03.15-.14.52-.43.97-.84 1.37-.42.4-.9.6-1.45.6-.63 0-1.11-.29-1.44-.86-.37.56-.8.84-1.28.84h-.08c-.44 0-.76-.12-.95-.35-.19-.24-.29-.48-.3-.75 0-.29.09-.52.26-.71.17-.18.38-.27.61-.27.39 0 .58.19.58.57 0 .18-.05.34-.16.48s-.21.23-.31.27-.16.07-.18.07h-.04s.03.04.08.07.13.06.22.1.18.05.26.04c.33 0 .61-.2.84-.61.08-.14.19-.45.31-.92.13-.47.25-.96.38-1.47s.2-.81.22-.9c.05-.24.07-.42.07-.53 0-.25-.07-.43-.2-.54s-.29-.16-.46-.16c-.36 0-.7.14-1.02.43s-.54.66-.67 1.11c-.02.08-.04.13-.07.14s-.1.02-.22.03h-.19c-.05-.05-.08-.1-.08-.15z"/><path id="e" d="m28.8 13.64c0-.12.06-.21.19-.27h8.65c.14.07.2.16.2.27 0 .1-.06.19-.19.26h-4.32s-4.32.01-4.32.01c-.14-.05-.22-.14-.22-.27zm0 2.63c0-.14.07-.23.22-.27h8.63c.13.09.19.18.19.27 0 .12-.07.21-.2.27h-8.65c-.13-.06-.19-.15-.19-.27z"/><g><g><g><path id="f" d="m45.89 6.89c0-.52.09-.99.26-1.41.17-.43.39-.78.67-1.06s.57-.52.91-.71.65-.33.95-.42.58-.13.86-.12h.04c.41 0 .76.1 1.06.3s.45.49.45.88c0 .81-.5 1.35-1.51 1.6-.44.12-1.05.18-1.82.19-.33 0-.51 0-.52.03 0 .02-.03.18-.08.48s-.09.56-.1.79c0 .43.1.76.29 1s.48.37.86.38.8-.08 1.26-.26.88-.48 1.25-.9c.08-.09.14-.14.16-.14.04 0 .1.04.18.12s.13.14.14.19-.03.12-.12.22-.23.22-.41.37c-.18.14-.39.29-.62.42s-.52.25-.86.34-.68.14-1.03.14c-.71 0-1.27-.24-1.66-.72s-.59-1.05-.6-1.71zm4.53-2.51c-.05-.47-.36-.71-.92-.71-.3 0-.57.06-.83.19-.25.13-.46.28-.61.46s-.29.37-.39.56-.18.35-.22.49-.06.22-.07.26c0 0 .09.01.27.01 1.02 0 1.74-.11 2.14-.33s.62-.53.62-.94z"/><path id="g" d="m52.19 1.47c.04-.27.22-.58.52-.93s.67-.53 1.11-.54c.22 0 .43.06.61.17s.32.26.41.43c.27-.4.59-.6.97-.6.24 0 .44.07.61.21s.26.33.27.57c0 .19-.04.34-.13.45-.09.12-.18.19-.26.21s-.16.04-.22.04c-.12 0-.22-.04-.3-.11s-.12-.16-.12-.28c0-.29.16-.5.48-.6-.07-.08-.2-.12-.38-.12-.08 0-.14 0-.18.02-.24.1-.42.31-.54.63-.38 1.41-.58 2.24-.58 2.48 0 .18.05.31.15.38s.21.12.34.12c.24 0 .47-.11.7-.32s.39-.47.47-.78c.02-.06.04-.1.06-.11s.07-.01.15-.02h.04c.1 0 .14.03.14.08 0 0 0 .04-.02.11-.1.36-.3.69-.6.97-.29.28-.64.42-1.03.42-.45 0-.79-.2-1.02-.6-.26.4-.56.6-.9.6h-.06c-.31 0-.54-.08-.67-.25s-.2-.34-.21-.53c0-.2.06-.37.18-.5s.27-.19.43-.19c.28 0 .41.13.41.4 0 .13-.04.24-.12.34s-.15.16-.22.19-.11.05-.12.05h-.03s.02.03.06.05.09.04.15.07.12.04.18.03c.23 0 .43-.14.6-.43.06-.1.13-.32.22-.65s.18-.68.27-1.04.14-.57.15-.63c.03-.17.05-.3.05-.37 0-.18-.05-.31-.14-.38s-.2-.12-.33-.12c-.26 0-.5.1-.72.31-.22.2-.38.47-.47.79-.01.06-.03.09-.05.1s-.07.01-.15.02h-.13s-.06-.07-.06-.11z"/></g><path id="h" d="M61.63,5.95v-.18c0-.12.06-.21.19-.27h4.06V1.43c.1-.12.19-.18.27-.18.12,0,.21.07.27.2v4.05h4.05c.14.07.2.16.2.27s-.07.2-.2.27h-4.05v4.05c-.07.13-.15.19-.24.19h-.05c-.11,0-.19-.06-.24-.19v-4.05h-4.06c-.13-.06-.19-.15-.19-.27v.18Z"/><g><path id="i" d="m74.98 6.89c0-.52.09-.99.26-1.41.17-.43.39-.78.67-1.06s.57-.52.91-.71.65-.33.95-.42.58-.13.86-.12h.04c.41 0 .76.1 1.06.3s.45.49.45.88c0 .81-.5 1.35-1.51 1.6-.44.12-1.05.18-1.82.19-.33 0-.51 0-.52.03 0 .02-.03.18-.08.48s-.09.56-.1.79c0 .43.1.76.29 1s.48.37.86.38.8-.08 1.26-.26.88-.48 1.25-.9c.08-.09.14-.14.16-.14.04 0 .1.04.18.12s.13.14.14.19-.03.12-.12.22-.23.22-.41.37c-.18.14-.39.29-.62.42s-.52.25-.86.34-.68.14-1.03.14c-.71 0-1.27-.24-1.66-.72s-.59-1.05-.6-1.71zm4.53-2.51c-.05-.47-.36-.71-.92-.71-.3 0-.57.06-.83.19-.25.13-.46.28-.61.46s-.29.37-.39.56-.18.35-.22.49-.06.22-.07.26c0 0 .09.01.27.01 1.02 0 1.74-.11 2.14-.33s.62-.53.62-.94z"/><g><path id="j" d="m81.58 1.97v-.12c0-.08.04-.15.13-.19h5.58c.1.05.14.12.14.19s-.05.14-.14.19h-5.58c-.09-.04-.13-.11-.13-.19v.12z"/><path id="k" d="m88.74 1.47c.04-.27.22-.58.52-.93s.67-.53 1.11-.54c.22 0 .43.06.61.17s.32.26.41.43c.27-.4.59-.6.97-.6.24 0 .44.07.61.21s.26.33.27.57c0 .19-.04.34-.13.45-.09.12-.18.19-.26.21s-.16.04-.22.04c-.12 0-.22-.04-.3-.11s-.12-.16-.12-.28c0-.29.16-.5.48-.6-.07-.08-.2-.12-.38-.12-.08 0-.14 0-.18.02-.24.1-.42.31-.54.63-.38 1.41-.58 2.24-.58 2.48 0 .18.05.31.15.38s.21.12.34.12c.24 0 .47-.11.7-.32s.39-.47.47-.78c.02-.06.04-.1.06-.11s.07-.01.15-.02h.04c.1 0 .14.03.14.08 0 0 0 .04-.02.11-.1.36-.3.69-.6.97-.29.28-.64.42-1.03.42-.45 0-.79-.2-1.02-.6-.26.4-.56.6-.9.6h-.06c-.31 0-.54-.08-.67-.25s-.2-.34-.21-.53c0-.2.06-.37.18-.5s.27-.19.43-.19c.28 0 .41.13.41.4 0 .13-.04.24-.12.34s-.15.16-.22.19-.11.05-.12.05h-.03s.02.03.06.05.09.04.15.07.12.04.18.03c.23 0 .43-.14.6-.43.06-.1.13-.32.22-.65s.18-.68.27-1.04.14-.57.15-.63c.03-.17.05-.3.05-.37 0-.18-.05-.31-.14-.38s-.2-.12-.33-.12c-.26 0-.5.1-.72.31-.22.2-.38.47-.47.79-.01.06-.03.09-.05.1s-.07.01-.15.02h-.13s-.06-.07-.06-.11z"/></g></g></g><path id="l" d="m67.97 21.83c-.24 0-.44-.08-.58-.24s-.22-.36-.22-.6c0-.64.24-1.2.72-1.67s1.08-.71 1.79-.71c.82 0 1.51.25 2.06.76s.83 1.16.84 1.97c0 .39-.09.76-.27 1.11s-.4.66-.65.92-.62.6-1.09 1c-.33.28-.78.7-1.36 1.25l-.8.76h1.03c1.42.01 2.18 0 2.27-.05.06-.02.17-.42.33-1.21v-.04h.54v.04s-.07.44-.18 1.24-.18 1.21-.2 1.25v.04h-5.04v-.42c0-.06.03-.13.08-.2s.19-.23.41-.48c.26-.29.49-.54.68-.76.08-.09.24-.26.46-.5s.38-.41.46-.5.21-.24.39-.45.31-.36.38-.46.18-.24.31-.41.23-.32.29-.43.12-.25.2-.39.14-.29.18-.43.07-.28.1-.41.04-.28.04-.45c0-.57-.15-1.06-.46-1.48s-.75-.62-1.32-.62c-.3 0-.56.08-.79.23s-.38.3-.48.45-.14.23-.14.26c0 0 .02.01.07.01.16 0 .33.06.5.19s.26.33.26.62c0 .23-.07.42-.22.57s-.35.24-.61.24z"/><rect x="44" y="14.54" width="51.77" height=".81"/></g></g><g><path id="m" d="m63.94 37.99c.06-.38.31-.82.73-1.32.43-.5.95-.75 1.57-.76.32 0 .61.08.87.24s.46.37.58.61c.38-.57.84-.86 1.37-.86.33 0 .62.1.87.3s.37.47.38.8c0 .26-.06.48-.19.64s-.25.26-.37.3-.22.05-.31.05c-.17 0-.31-.05-.42-.15s-.16-.23-.16-.39c0-.42.23-.7.68-.86-.1-.12-.28-.18-.54-.18-.12 0-.2 0-.26.03-.34.14-.6.44-.76.9-.54 2-.81 3.17-.81 3.5 0 .25.07.43.22.54s.3.16.48.16c.33 0 .67-.15.99-.45s.55-.67.67-1.1c.03-.09.05-.14.08-.15s.1-.02.22-.03h.05c.14 0 .2.04.2.11 0 0 0 .06-.03.15-.14.52-.43.97-.84 1.37-.42.4-.9.6-1.45.6-.63 0-1.11-.29-1.44-.86-.37.56-.8.84-1.28.84h-.08c-.44 0-.76-.12-.95-.35-.19-.24-.29-.48-.3-.75 0-.29.09-.52.26-.71.17-.18.38-.27.61-.27.39 0 .58.19.58.57 0 .18-.05.34-.16.48s-.21.23-.31.27-.16.07-.18.07h-.04s.03.04.08.07.13.06.22.1.18.05.26.04c.33 0 .61-.2.84-.61.08-.14.19-.45.31-.92.13-.47.25-.96.38-1.47s.2-.81.22-.9c.05-.24.07-.42.07-.53 0-.25-.07-.43-.2-.54s-.29-.16-.46-.16c-.36 0-.7.14-1.02.43s-.54.66-.67 1.11c-.02.08-.04.13-.07.14s-.1.02-.22.03h-.19c-.05-.05-.08-.1-.08-.15z"/><path id="n" d="m75.91 38.52c0-1.1.37-2.01 1.11-2.71.74-.71 1.62-1.11 2.63-1.21h.23c.14 0 .33 0 .57-.01s.46 0 .68 0h1.34c.14.07.2.16.2.27 0 .08-.06.17-.18.26h-1.41c-1 .02-1.62.05-1.86.1-.44.11-.84.27-1.18.49s-.61.44-.8.67-.35.48-.49.75-.22.49-.24.65-.05.32-.07.46v.03h6.03c.14.07.2.16.2.27s-.07.2-.2.27h-6.03v.03c0 .19.05.42.14.69s.24.57.45.88c.21.32.5.61.87.87s.81.45 1.32.56c.24.05.87.09 1.87.1h1.41c.12.09.18.18.18.27 0 .11-.07.2-.2.27h-1.66c-.16 0-.29 0-.39.01-1.4 0-2.51-.39-3.33-1.17-.8-.74-1.19-1.67-1.19-2.78z"/><path id="o" d="m96.88 40.13c0 .05-.05.15-.16.3s-.29.32-.53.52-.52.39-.81.57c-.3.18-.68.33-1.14.46s-.93.19-1.4.19c-.51 0-1-.07-1.49-.22-.49-.14-.95-.37-1.38-.67s-.81-.7-1.13-1.19c-.32-.5-.53-1.07-.64-1.72-.05-.2-.07-.56-.07-1.09s.02-.89.07-1.09c.2-1.06.65-1.92 1.34-2.58.7-.66 1.59-1.06 2.69-1.19.03 0 .13 0 .31-.01s.32-.01.42-.01c.49.03.98.14 1.47.33s.86.29 1.11.3c.16 0 .28-.03.35-.1s.11-.14.12-.22.03-.15.07-.22.1-.1.19-.11c.1 0 .18.05.24.16v2.84l-.05.1c-.12.06-.23.07-.34.03-.04-.04-.08-.14-.14-.33s-.16-.38-.31-.61c-.3-.42-.7-.8-1.19-1.14-.5-.34-1.03-.52-1.59-.52h-.12c-.4 0-.77.17-1.11.52-.79.71-1.18 2.01-1.18 3.92 0 .79.1 1.5.29 2.13.37 1.35 1.15 2.02 2.33 2.02s2.23-.45 3.2-1.36c.15-.15.27-.23.34-.23.05 0 .1.02.15.05s.09.09.1.16zm-5.89-6.7c.13-.16.18-.24.15-.24-.21.07-.42.18-.64.31s-.46.32-.72.56-.49.55-.69.94-.34.82-.42 1.3c-.05.27-.07.6-.07.99s.02.72.07.99c.09.5.24.95.46 1.34s.45.71.69.92.48.4.72.54.43.24.58.3l.23.07c-.06-.06-.12-.13-.18-.19-.59-.57-.96-1.5-1.13-2.8-.03-.24-.04-.65-.04-1.22s.01-.98.04-1.22c.17-1.13.48-2 .94-2.59zm5.04.81v-.81s-.07.03-.11.03c-.09.04-.19.05-.31.05h-.2l.18.19c.18.2.28.32.3.35l.15.19z"/></g></g></g></svg>
