<svg viewBox="0 0 107.03 11.29" xmlns="http://www.w3.org/2000/svg"><defs><style>.cls-1 {
        isolation: isolate;
      }</style></defs><g id="a"><g><g class="cls-1"><path d="m10.1.77s.06.05.06.08c0 .02-.02.05-.06.08l-.36.31v8.71c0 .44-.18.67-.75 1.03-.04.02-.07.04-.08.04-.05 0-.07-.04-.08-.12-.07-.37-.29-.54-1.4-.77l.02-.2c.53.1.91.14 1.16.14.48 0 .58-.17.58-.58v-2.91h-3.21v1.26c0 1.14.01 1.84.04 2.29v.1c0 .16-.04.2-.28.31-.11.05-.19.07-.25.07-.08 0-.11-.07-.11-.28v-.11c.02-.77.04-1.55.04-2.41v-1.24h-3.06c-.04 2.12-.91 3.56-2.21 4.67l-.13-.12c1.54-1.8 1.81-2.76 1.81-6.38v-3.15c0-.46-.02-.98-.04-1.39l.72.56h6.44l.36-.52.8.52zm-4.7 5.55v-2.46h-3.03c0 .76-.01 1.54-.02 2.46h3.06zm0-2.72v-2.57h-3.03v2.57h3.03zm3.78 0v-2.57h-3.21v2.57h3.21zm0 2.72v-2.46h-3.21v2.46h3.21z"/></g><g class="cls-1"><path d="M22.8,4.67c.07.08.11.13.11.17,0,.05-.05.06-.14.06h-4.94v5.1c0,.59-.11.79-.9,1.16-.04.01-.07.02-.1.02-.05,0-.07-.02-.08-.1-.1-.52-.31-.72-1.64-1.04v-.17c.78.13,1.27.2,1.59.2.5,0,.55-.17.55-.52v-4.67h-4.2c-.25,0-.61.05-.8.12l-.33-.43c.29.02.6.05.88.05h4.46V1.67h-3.2c-.24,0-.59.05-.77.12l-.32-.43c.28.02.58.05.84.05h6.93l.52-.7.72.78c.06.06.1.11.1.13,0,.04-.06.05-.16.05h-4.08v2.96h3.69l.58-.72.71.76Z"/></g><g class="cls-1"><path d="m27.42.73c.08.04.13.07.13.1 0 .04-.05.06-.12.1l-.31.16v7.58c0 .91.01 1.5.05 2.04v.08c0 .17-.05.22-.29.32-.11.05-.19.07-.24.07-.08 0-.11-.07-.11-.25v-.13c.02-.71.04-1.48.04-2.16v-2.87l-1.36 1.49c-.35.38-.46.55-.58.78-.04.06-.06.1-.1.1s-.06-.01-.11-.05l-.53-.4 2.66-2.18v-3.47c0-.49-.02-1.29-.05-1.74l.9.43zm-3.21 1.54c1.28.75 1.69 1.2 1.69 1.73 0 .36-.23.56-.44.56-.12 0-.2-.08-.23-.47-.02-.38-.46-1.13-1.1-1.7l.08-.12zm9.68-.32c.07.05.11.08.11.12 0 .02-.04.04-.12.06-.16.04-.44.28-.59.47-1.75 2.47-3.57 3.3-5.7 3.98l-.02-.17c1.31-.56 3.91-1.7 5.23-4.25h-3.05c-.13.19-.26.36-.4.53 1.15.59 1.15.97 1.15 1.17 0 .31-.18.47-.36.47-.16 0-.28-.14-.28-.42 0-.36-.26-.76-.63-1.08-.48.6-.89 1.06-1.38 1.5l-.14-.12c1.16-1.43 1.88-2.67 2.59-4.15l.85.43s.07.05.07.07-.04.04-.11.06c-.29.06-.38.13-.48.28-.25.37-.49.71-.71 1.01h2.83l.4-.48.73.52zm1.15 4.73s.06.07.06.08c0 .04-.04.05-.1.05h-1.98v3.03c0 .83-.05.9-.88 1.31-.04.01-.06.02-.08.02-.04 0-.06-.04-.07-.11-.07-.43-.26-.65-1.49-.95l.02-.19c.82.17 1.28.25 1.57.25.35 0 .38-.13.38-.35v-3.02h-3.42c-.25 0-.6.05-.8.13l-.34-.44c.3.02.6.05.88.05h3.68c0-.31 0-1.15-.05-2.04l.84.4c.07.04.11.06.11.08s-.23.14-.36.22v1.34h.77l.48-.64.77.77zm-5.79.52c1.01.65 1.27 1.08 1.29 1.34.04.42-.23.64-.4.64-.13 0-.19-.07-.22-.46-.02-.36-.25-.82-.78-1.42l.1-.11z"/></g><g class="cls-1"><path d="m47.1 10.34c-.78-.02-1.16.11-1.4.42-.02.02-.05.05-.07.05s-.06-.01-.1-.04c-2.16-1.07-3.47-2.52-3.96-4.99-.42.5-.98 1.04-1.62 1.57v2.85l2.48-1.04.07.17-1.86 1.07c-.52.3-.88.59-1.08.83-.02.02-.05.05-.07.05s-.05-.02-.07-.05l-.5-.61c.36-.23.48-.35.48-.6v-2.23c-1.05.79-2.27 1.52-3.37 1.98l-.11-.16c2.18-1.26 3.93-2.67 4.95-3.86h-3.74c-.25 0-.6.05-.8.13l-.33-.47c.3.02.6.05.88.05h4.44v-1.45h-2.73c-.25 0-.6.05-.8.13l-.34-.44c.3.02.6.05.88.05h3v-1.54h-3.54c-.25 0-.6.05-.8.13l-.4-.46c.3.04.66.06.94.06h3.8c0-.83-.02-1.51-.05-1.94l.91.46c.07.04.11.07.11.11 0 .02-.04.06-.08.1l-.32.23v1.06h3.31l.46-.65.89.73c.07.06.1.1.1.13s-.04.05-.13.05h-4.62v1.54h2.44l.43-.62.8.7c.07.06.11.11.11.13 0 .05-.05.06-.14.06h-3.63v1.45h3.68l.48-.61.77.68c.08.07.12.12.12.16s-.06.06-.18.06h-4.94c.26.78.64 1.58 1.09 2.16.95-.55 1.87-1.19 2.29-1.54l.67.71s.06.07.06.1c0 .04-.04.05-.08.05s-.23-.02-.26-.02c-.3 0-.7.16-2.5.91.91 1.03 2.2 1.8 4.03 2.09v.14z"/></g><g class="cls-1"><path d="M59.2,10.13c-.56.08-.96.36-1.09.7-.02.06-.05.1-.14.1-1.85-.01-3.49-.06-4.62-.14-1.51-.11-2.25-.47-3.07-1.91-.06-.12-.11-.19-.17-.19-.16,0-1.1,1.69-1.3,2.1-.02.06-.06.1-.1.1-.02,0-.05-.01-.07-.04l-.61-.37,1.83-1.88v-3.59h-.96c-.21,0-.54.07-.7.16l-.35-.44c.23.02.56.05.76.05h1l.41-.6.85.61c.06.04.08.07.08.11,0,.02-.02.06-.07.08l-.44.26v3.39c.96,1.47,1.46,1.64,4.03,1.64,1.49,0,3.14-.1,4.73-.3v.17ZM48.95.62c.24.13,1.85,1.01,1.85,1.68,0,.29-.2.61-.38.61-.13,0-.22-.07-.3-.37-.12-.46-.6-1.26-1.24-1.79l.07-.13ZM58.74,3.43s.07.08.07.11c0,.04-.04.06-.12.06h-3.37c-.05.71-.11,1.37-.18,1.76,1.57.86,2.55,1.69,2.81,2.05.19.28.26.55.26.78,0,.32-.16.56-.35.56-.13,0-.19-.05-.31-.4-.18-.49-1.18-1.96-2.47-2.76-.42,1.78-1.74,3.15-3.47,3.87l-.08-.16c2.36-1.57,3.06-2.69,3.23-5.72h-2.22c-.25,0-.6.05-.8.13l-.34-.44c.3.02.6.05.88.05h2.49c.04-.84.05-1.88.04-3.23l1.01.55c.06.04.1.06.1.08s-.04.06-.08.08l-.41.23c-.01.65-.04,1.49-.08,2.28h2.07l.53-.72.8.82Z"/></g><g class="cls-1"><path d="m70.82 2.9c.1.1.14.14.14.18s-.06.05-.19.05h-4.17c.02.3.02.59.05.88.2 3.6 1.28 5.06 2.73 6 .13.08.24.13.31.13.13 0 .19-.12.25-.38l.34-1.56.22.02c-.07.6-.1 1.07-.1 1.43 0 .59.07.89.16 1 .17.24.23.35.23.42 0 .13-.1.14-.17.14-.16 0-.41-.06-.73-.22-3.35-1.59-3.67-4.82-3.83-7.86h-4.88c-.33 0-.66.02-.83.07l-.32-.37c.29.02.61.04.89.04h5.13c-.05-.76-.07-1.64-.1-2.7l.88.46c.07.04.12.07.12.1t-.38.3c-.01.61 0 1.24.02 1.85h2.96l.5-.7.77.73zm-4.74 5.59-3.83 1.16c-.72.22-1.33.48-1.46.64-.04.04-.06.06-.08.06-.04 0-.07-.04-.12-.11l-.44-.62 2.59-.58v-3.36h-1.31c-.44 0-.64.01-.84.07l-.31-.37c.23.04.49.05.89.05h3.27l.47-.62.65.67c.07.08.12.13.12.16 0 .04-.05.05-.14.05h-2.24v3.24l2.76-.61.04.18zm1.48-7.88c.84.34 1.37.76 1.49 1 .05.1.07.2.07.3 0 .28-.16.54-.36.54-.12 0-.18-.05-.29-.44-.06-.24-.43-.79-.97-1.28l.06-.11z"/></g><g class="cls-1"><path d="M77,.73c.07.04.11.06.11.1,0,.02-.05.05-.14.07-.26.06-.42.16-.54.34-1.34,2.11-2.68,3.74-4.49,4.98l-.1-.16c1.79-1.5,3.41-3.83,4.15-5.82l1.01.49ZM80.45,5.17c.06.05.1.08.1.11,0,.04-.04.06-.1.11l-.41.28c0,1.37-.07,2.28-.23,3.48-.12,1-.41,1.43-1.23,1.88-.04.01-.06.02-.08.02-.04,0-.06-.02-.07-.1-.12-.5-.29-.72-1.67-1.1l.07-.17c.66.14,1.15.23,1.51.23.62,0,.85-.25.94-.91.12-.93.17-1.94.17-3.54h-2.81c-.29,3.39-1.19,4.62-4.38,5.83l-.06-.18c3.18-1.48,3.66-3.08,3.8-5.65h-1.33c-.25,0-.6.05-.8.13l-.33-.44c.3.02.6.05.88.05h4.77l.48-.7.79.67ZM79.17.79c.3,1.93,1.85,3.85,3.95,4.41l-.02.12c-.65-.02-1.03.11-1.21.34-.02.02-.05.05-.07.05-.01,0-.04-.02-.07-.05-1.88-1.57-2.58-2.96-3.19-5.62l.89.29c.08.02.13.05.13.08,0,.02-.04.06-.1.12l-.3.26Z"/></g><g class="cls-1"><path d="m88.05 1.02s.07.07.07.1-.02.04-.08.06c-.46.14-.54.25-.9 1l-.8 1.67c.82 1.13 1.24 2.16 1.24 2.83 0 .56-.26 1-1.06 1.5-.04.01-.06.02-.07.02-.04 0-.06-.02-.07-.08-.06-.3-.29-.5-.97-.65v-.22c.25.05.47.07.66.07.7 0 .98-.34.98-1s-.25-1.46-.95-2.5l.91-2.7h-1.65v7.32c0 .84.01 1.67.05 2.16v.07c0 .16-.05.2-.28.3-.11.05-.18.07-.23.07-.08 0-.11-.07-.11-.25v-.11c.02-.65.04-1.64.04-2.27v-6.65c0-.46-.02-1.21-.05-1.62l.78.72h1.37l.38-.47.74.62zm6.56 4.36c.08.05.12.1.12.13s-.04.07-.12.12l-.35.23v4.22c0 .44-.13.67-.8 1.01-.04.02-.06.02-.08.02-.04 0-.06-.02-.07-.07-.1-.38-.24-.54-1.2-.83l.02-.17c.55.1.91.14 1.15.14.37 0 .42-.12.42-.32v-4.25h-5.03v2.66c0 .34.02 1.98.02 2.35 0 .14-.04.19-.28.3-.11.05-.18.07-.23.07-.08 0-.11-.07-.11-.26v-.11c.02-.67.04-1.71.04-2.36v-1.83c0-.47-.02-1.26-.05-1.68l.78.6h4.67l.32-.52.77.54zm-.02-4.28c.07.07.12.13.12.17 0 .05-.06.07-.18.07h-5.04c-.25 0-.6.05-.8.13l-.34-.44c.3.02.6.05.88.05h4.17l.5-.65.68.67zm-1.23 6.71c.06.07.08.12.08.14 0 .05-.05.06-.14.06h-1.88v.9c0 .8.01 1.08.05 1.44 0 .04.01.07.01.1 0 .14-.07.19-.3.29-.11.05-.19.07-.24.07-.08 0-.11-.06-.11-.22v-.14c.02-.43.04-.91.04-1.56v-.88h-.83c-.25 0-.62.06-.83.13l-.34-.44c.3.02.61.05.89.05h1.45c.4-.68.67-1.26.94-1.94l.73.46s.05.04.05.06-.02.04-.07.05c-.29.08-.61.35-1.39 1.38h1l.4-.53.5.59zm.22-5.36c.06.05.08.07.08.1 0 .04-.02.06-.07.08l-.32.19v.56c0 .12.04.74.04.88 0 .16-.05.2-.25.29-.12.05-.19.07-.24.07-.1 0-.1-.05-.1-.42h-3c0 .23 0 .26-.24.35-.11.05-.18.07-.23.07-.06 0-.07-.04-.07-.12s.01-.64.01-.76v-.77c0-.26-.01-.79-.02-1.14l.63.48h2.79l.34-.38.65.52zm-3.92 3.45c.6.29 1.07.73 1.13.92.02.06.02.12.02.18 0 .25-.14.42-.31.42-.13 0-.2-.05-.28-.32-.07-.29-.3-.76-.66-1.1l.1-.1zm3.06-1.97v-1.36h-3v1.36h3z"/></g><g class="cls-1"><path d="m106.95 5.13c.06.06.08.11.08.13 0 .04-.04.06-.13.06h-3.33v2.51c0 .94.01 2.03.05 2.57v.08c0 .17-.05.22-.3.32-.11.05-.19.07-.25.07-.08 0-.11-.07-.11-.28v-.11c.02-.71.04-2 .04-2.69v-2.48h-3.09c-.11 2.64-.68 4.37-3.72 5.78l-.06-.16c2.51-1.58 3.12-2.82 3.2-5.62h-2.24c-.25 0-.6.05-.8.13l-.34-.44c.3.02.6.05.88.05h2.51c.02-.86.04-1.51.04-2.27 0-.42 0-.88-.01-1.43h-1.75c-.25 0-.6.05-.8.13l-.33-.44c.3.02.6.05.88.05h7.68l.5-.7.76.77c.06.06.1.11.1.14s-.05.05-.16.05h-2.64v3.69h2.07l.53-.71.78.78zm-3.96-.07v-3.69h-3.03c0 1.51-.01 2.42-.06 3.69h3.09z"/></g></g></g></svg>
