<svg viewBox="0 0 74.26 39.45" xmlns="http://www.w3.org/2000/svg"><g id="a"><g><g><g><path id="b" d="m.23 11.1c.06-.38.31-.82.73-1.32.43-.5.95-.75 1.57-.76.32 0 .61.08.87.24s.46.37.58.61c.38-.57.84-.86 1.37-.86.33 0 .62.1.87.3s.37.47.38.8c0 .26-.06.48-.19.64s-.25.26-.37.3-.22.05-.31.05c-.17 0-.31-.05-.42-.15s-.16-.23-.16-.39c0-.42.23-.7.68-.86-.1-.12-.28-.18-.54-.18-.12 0-.2 0-.26.03-.34.14-.6.44-.76.9-.54 2-.81 3.17-.81 3.5 0 .25.07.43.22.54s.3.16.48.16c.33 0 .67-.15.99-.45s.55-.67.67-1.1c.03-.09.05-.14.08-.15s.1-.02.22-.03h.05c.14 0 .2.04.2.11 0 0 0 .06-.03.15-.14.52-.43.97-.84 1.37-.42.4-.9.6-1.45.6-.63 0-1.11-.29-1.44-.86-.37.56-.8.84-1.28.84h-.08c-.44 0-.76-.12-.95-.35-.19-.24-.29-.48-.3-.75 0-.29.09-.52.26-.71.17-.18.38-.27.61-.27.39 0 .58.19.58.57 0 .18-.05.34-.16.48s-.21.23-.31.27-.16.07-.18.07h-.04s.03.04.08.07.13.06.22.1.18.05.26.04c.33 0 .61-.2.84-.61.08-.14.19-.45.31-.92.13-.47.25-.96.38-1.47s.2-.81.22-.9c.05-.24.07-.42.07-.53 0-.25-.07-.43-.2-.54s-.29-.16-.46-.16c-.36 0-.7.14-1.02.43s-.54.66-.67 1.11c-.02.08-.04.13-.07.14s-.1.02-.22.03h-.19c-.05-.05-.08-.1-.08-.15z"/><path id="c" d="m7.82 7.01c0-.49.18-.92.55-1.3s.8-.56 1.31-.56.95.18 1.31.54.55.8.56 1.33c0 .5-.18.93-.54 1.31-.36.37-.8.56-1.32.56s-.95-.18-1.31-.55-.55-.81-.56-1.33zm1.82-1.46c-.36 0-.69.13-.99.4-.29.27-.44.62-.44 1.07s.14.78.43 1.06.64.42 1.05.42c.22 0 .42-.04.6-.12s.32-.17.39-.25c.08-.08.14-.16.2-.24.18-.24.27-.52.27-.86 0-.4-.14-.75-.41-1.04s-.64-.43-1.1-.43z"/></g><path id="d" d="m17.3 10.32c0-.12.06-.21.19-.27h8.65c.14.07.2.16.2.27 0 .1-.06.19-.19.26h-4.32s-4.32.01-4.32.01c-.14-.05-.22-.14-.22-.27zm0 2.63c0-.14.07-.23.22-.27h8.63c.13.09.19.18.19.27 0 .12-.07.21-.2.27h-8.65c-.13-.06-.19-.15-.19-.27z"/><g><path id="e" d="m41.96 6c-.31 0-.46-.15-.46-.45v-.15l.18-.38c.68-1.43 1.17-2.67 1.48-3.71l.11-.33h-.43c-.34 0-.59.01-.73.04s-.32.11-.53.26c-.1.06-.2.14-.3.24s-.19.19-.26.29c-.07.09-.11.14-.12.16-.02 0-.09.01-.2.01-.17 0-.26-.05-.26-.14 0-.05.09-.21.26-.48.17-.26.42-.54.75-.84s.65-.47.96-.52c.06-.02 1.08-.03 3.05-.03 1.45 0 2.19 0 2.23.01.18.06.27.19.27.38 0 .28-.14.47-.43.57-.05.02-.37.03-.94.03h-.87l-.04.23c-.11.65-.16 1.19-.16 1.62 0 .47.04.89.12 1.26s.17.66.26.87.14.33.14.38c0 .15-.06.3-.19.43s-.29.2-.49.2c-.1 0-.18-.01-.24-.04s-.14-.14-.22-.33-.15-.46-.22-.81c0-.08-.01-.28-.01-.6 0-.44.04-.92.12-1.43s.16-.92.24-1.25.13-.51.14-.54h-1.33v.05s-.1.38-.27 1.07-.37 1.42-.58 2.19c-.22.77-.36 1.21-.42 1.32-.1.25-.29.38-.58.38z"/><g><path id="f" d="m36.75 16.49-.18.07c-.13.05-.31.09-.54.14s-.5.08-.79.1h-.26v-.62h.26c.43-.02.82-.09 1.18-.2s.62-.23.76-.33.27-.2.38-.3c.02-.03.07-.04.16-.04.08 0 .16.03.23.08v8.13c.08.06.13.1.18.12s.15.04.33.05.45.03.84.03h.35v.62h-.15c-.19-.03-.91-.04-2.16-.04s-1.94.01-2.13.04h-.16v-.62h.87c.14 0 .26 0 .34-.01s.15-.02.22-.04.1-.03.11-.03.04-.02.08-.07.07-.06.08-.05v-7.02z"/><path id="g" d="m41.59 18.68v-1.05c0-.7.24-1.26.73-1.68s1.05-.64 1.68-.65c.64 0 1.21.19 1.71.57s.75.87.75 1.48c0 .27-.05.52-.15.76s-.22.43-.35.57-.28.27-.42.38-.26.19-.35.24-.14.09-.15.11l.19.12c.13.09.25.18.38.27s.2.14.22.15c.68.53 1.02 1.21 1.02 2.02 0 .71-.26 1.33-.79 1.86-.52.52-1.2.79-2.04.8-.81 0-1.48-.23-2.01-.69-.52-.46-.79-1.03-.79-1.71 0-.98.58-1.79 1.75-2.44l-.24-.18c-.19-.12-.31-.21-.37-.27-.52-.44-.77-1.01-.77-1.71v1.05zm2.94.42.08-.05c.05-.04.1-.06.12-.08s.07-.05.14-.1.12-.09.16-.14.1-.1.15-.16.1-.12.15-.18.09-.13.14-.22.09-.17.12-.23.06-.15.07-.27.02-.22.03-.3c0-.39-.13-.72-.39-.99s-.57-.44-.91-.52c-.06 0-.21-.01-.45-.01-.37 0-.72.12-1.05.35s-.49.53-.5.88c0 .21.06.4.18.57s.24.3.35.39.34.24.68.43c.06.05.11.08.15.1l.79.52zm-.49 4.95c.52 0 .98-.15 1.36-.46s.57-.68.57-1.11c0-.15-.02-.3-.07-.43s-.1-.25-.16-.34-.16-.19-.3-.3-.24-.19-.31-.24-.2-.14-.39-.26-.31-.19-.37-.23c-.13-.08-.26-.17-.41-.26s-.26-.17-.35-.23l-.11-.07c-.05 0-.19.08-.39.23s-.43.4-.65.75c-.23.34-.34.71-.35 1.11 0 .53.19.97.58 1.32.39.34.84.52 1.36.53z"/><path id="h" d="m48.73 16.4c.51-.73 1.2-1.1 2.08-1.1.43 0 .87.12 1.3.35s.79.65 1.06 1.25c.33.75.5 1.78.5 3.1 0 1.4-.19 2.48-.58 3.22-.18.38-.43.68-.75.91s-.59.37-.83.42-.47.09-.69.1c-.24 0-.47-.03-.71-.08s-.51-.2-.83-.43c-.32-.24-.57-.54-.75-.91-.39-.74-.58-1.81-.58-3.22 0-1.57.26-2.77.77-3.6zm3.06-.16c-.27-.29-.59-.43-.96-.43s-.71.14-.98.43c-.23.24-.38.56-.45.98s-.11 1.29-.11 2.61c0 1.43.04 2.37.11 2.82s.24.81.49 1.07c.25.27.57.41.94.41s.67-.14.92-.41c.26-.27.43-.65.49-1.14s.1-1.41.11-2.76c0-1.31-.04-2.18-.11-2.59-.07-.42-.22-.75-.45-.99z"/></g><rect x="32.5" y="11.23" width="23.08" height=".81"/></g><path id="i" d="m61.28 11.63c0-.22.08-.41.23-.57s.35-.24.58-.24c.22 0 .41.07.57.22s.25.34.26.58c0 .23-.08.42-.23.58s-.35.24-.58.24-.43-.08-.58-.23-.24-.35-.24-.58z"/><path id="j" d="m67.72 11.1c.06-.38.31-.82.73-1.32.43-.5.95-.75 1.57-.76.32 0 .61.08.87.24s.46.37.58.61c.38-.57.84-.86 1.37-.86.33 0 .62.1.87.3s.37.47.38.8c0 .26-.06.48-.19.64s-.25.26-.37.3-.22.05-.31.05c-.17 0-.31-.05-.42-.15s-.16-.23-.16-.39c0-.42.23-.7.68-.86-.1-.12-.28-.18-.54-.18-.12 0-.2 0-.26.03-.34.14-.6.44-.76.9-.54 2-.81 3.17-.81 3.5 0 .25.07.43.22.54s.3.16.48.16c.33 0 .67-.15.99-.45s.55-.67.67-1.1c.03-.09.05-.14.08-.15s.1-.02.22-.03h.05c.14 0 .2.04.2.11 0 0 0 .06-.03.15-.14.52-.43.97-.84 1.37-.42.4-.9.6-1.45.6-.63 0-1.11-.29-1.44-.86-.37.56-.8.84-1.28.84h-.08c-.44 0-.76-.12-.95-.35-.19-.24-.29-.48-.3-.75 0-.29.09-.52.26-.71.17-.18.38-.27.61-.27.39 0 .58.19.58.57 0 .18-.05.34-.16.48s-.21.23-.31.27-.16.07-.18.07h-.04s.03.04.08.07.13.06.22.1.18.05.26.04c.33 0 .61-.2.84-.61.08-.14.19-.45.31-.92.13-.47.25-.96.38-1.47s.2-.81.22-.9c.05-.24.07-.42.07-.53 0-.25-.07-.43-.2-.54s-.29-.16-.46-.16c-.36 0-.7.14-1.02.43s-.54.66-.67 1.11c-.02.08-.04.13-.07.14s-.1.02-.22.03h-.19c-.05-.05-.08-.1-.08-.15z"/></g><g><path id="k" d="m41.32 34.97c.06-.38.31-.82.73-1.32.43-.5.95-.75 1.57-.76.32 0 .61.08.87.24s.46.37.58.61c.38-.57.84-.86 1.37-.86.33 0 .62.1.87.3s.37.47.38.8c0 .26-.06.48-.19.64s-.25.26-.37.3-.22.05-.31.05c-.17 0-.31-.05-.42-.15s-.16-.23-.16-.39c0-.42.23-.7.68-.86-.1-.12-.28-.18-.54-.18-.12 0-.2 0-.26.03-.34.14-.6.44-.76.9-.54 2-.81 3.17-.81 3.5 0 .25.07.43.22.54s.3.16.48.16c.33 0 .67-.15.99-.45s.55-.67.67-1.1c.03-.09.05-.14.08-.15s.1-.02.22-.03h.05c.14 0 .2.04.2.11 0 0 0 .06-.03.15-.14.52-.43.97-.84 1.37-.42.4-.9.6-1.45.6-.63 0-1.11-.29-1.44-.86-.37.56-.8.84-1.28.84h-.08c-.44 0-.76-.12-.95-.35-.19-.24-.29-.48-.3-.75 0-.29.09-.52.26-.71.17-.18.38-.27.61-.27.39 0 .58.19.58.57 0 .18-.05.34-.16.48s-.21.23-.31.27-.16.07-.18.07h-.04s.03.04.08.07.13.06.22.1.18.05.26.04c.33 0 .61-.2.84-.61.08-.14.19-.45.31-.92.13-.47.25-.96.38-1.47s.2-.81.22-.9c.05-.24.07-.42.07-.53 0-.25-.07-.43-.2-.54s-.29-.16-.46-.16c-.36 0-.7.14-1.02.43s-.54.66-.67 1.11c-.02.08-.04.13-.07.14s-.1.02-.22.03h-.19c-.05-.05-.08-.1-.08-.15z"/><path id="l" d="m53.29 35.5c0-1.1.37-2.01 1.11-2.71.74-.71 1.62-1.11 2.63-1.21h.23c.14 0 .33 0 .57-.01s.46 0 .68 0h1.34c.14.07.2.16.2.27 0 .08-.06.17-.18.26h-1.41c-1 .02-1.62.05-1.86.1-.44.11-.84.27-1.18.49s-.61.44-.8.67-.35.48-.49.75-.22.49-.24.65-.05.32-.07.46v.03h6.03c.14.07.2.16.2.27s-.07.2-.2.27h-6.03v.03c0 .19.05.42.14.69s.24.57.45.88c.21.32.5.61.87.87s.81.45 1.32.56c.24.05.87.09 1.87.1h1.41c.12.09.18.18.18.27 0 .11-.07.2-.2.27h-1.66c-.16 0-.29 0-.39.01-1.4 0-2.51-.39-3.33-1.17-.8-.74-1.19-1.67-1.19-2.78z"/><path id="m" d="m74.26 37.11c0 .05-.05.15-.16.3s-.29.32-.53.52-.52.39-.81.57c-.3.18-.68.33-1.14.46s-.93.19-1.4.19c-.51 0-1-.07-1.49-.22-.49-.14-.95-.37-1.38-.67s-.81-.7-1.13-1.19c-.32-.5-.53-1.07-.64-1.72-.05-.2-.07-.56-.07-1.09s.02-.89.07-1.09c.2-1.06.65-1.92 1.34-2.58.7-.66 1.59-1.06 2.69-1.19.03 0 .13 0 .31-.01s.32-.01.42-.01c.49.03.98.14 1.47.33s.86.29 1.11.3c.16 0 .28-.03.35-.1s.11-.14.12-.22.03-.15.07-.22.1-.1.19-.11c.1 0 .18.05.24.16v2.84l-.05.1c-.12.06-.23.07-.34.03-.04-.04-.08-.14-.14-.33s-.16-.38-.31-.61c-.3-.42-.7-.8-1.19-1.14-.5-.34-1.03-.52-1.59-.52h-.12c-.4 0-.77.17-1.11.52-.79.71-1.18 2.01-1.18 3.92 0 .79.1 1.5.29 2.13.37 1.35 1.15 2.02 2.33 2.02s2.23-.45 3.2-1.36c.15-.15.27-.23.34-.23.05 0 .1.02.15.05s.09.09.1.16zm-5.89-6.7c.13-.16.18-.24.15-.24-.21.07-.42.18-.64.31s-.46.32-.72.56-.49.55-.69.94-.34.82-.42 1.3c-.05.27-.07.6-.07.99s.02.72.07.99c.09.5.24.95.46 1.34s.45.71.69.92.48.4.72.54.43.24.58.3l.23.07c-.06-.06-.12-.13-.18-.19-.59-.57-.96-1.5-1.13-2.8-.03-.24-.04-.65-.04-1.22s.01-.98.04-1.22c.17-1.13.48-2 .94-2.59zm5.04.81v-.81s-.07.03-.11.03c-.09.04-.19.05-.31.05h-.2l.18.19c.18.2.28.32.3.35l.15.19z"/></g></g></g></svg>
