<svg viewBox="0 0 175.5 106.5" xmlns="http://www.w3.org/2000/svg"><defs><style>.cls-1 {
        fill: none;
      }

      .cls-2 {
        clip-path: url(#c);
      }

      .cls-3 {
        clip-path: url(#a);
      }

      .cls-4 {
        clip-path: url(#b);
      }

      .cls-5 {
        clip-path: url(#d);
      }</style><clipPath id="d"><rect class="cls-1" width="175.5" height="106.5"/></clipPath><clipPath id="c"><rect class="cls-1" x="32.21" y="11.95" width="13.11" height="29.33"/></clipPath><clipPath id="b"><rect class="cls-1" x="32.21" y="65.22" width="13.11" height="29.33"/></clipPath><clipPath id="a"><rect class="cls-1" width="175.5" height="106.5"/></clipPath></defs><g id="e"><g class="cls-5"><path d="m.77 52.67c.07-.41.33-.89.8-1.43.46-.54 1.03-.82 1.71-.83.34 0 .66.09.94.27s.5.4.63.66c.41-.62.91-.93 1.49-.93.36 0 .68.11.94.33s.4.51.41.87c0 .29-.07.52-.21.69-.14.18-.27.29-.4.33s-.24.06-.34.06c-.19 0-.34-.05-.46-.16s-.18-.25-.18-.43c0-.45.25-.76.74-.93-.11-.13-.3-.19-.59-.19-.13 0-.22 0-.28.03-.37.16-.65.48-.83.98-.59 2.18-.89 3.45-.89 3.81 0 .28.08.47.24.59s.33.18.52.18c.36 0 .72-.16 1.08-.49s.59-.72.72-1.2c.03-.1.06-.15.09-.16.03 0 .11-.02.24-.03h.06c.15 0 .22.04.22.12 0 0 0 .06-.03.16-.16.56-.46 1.06-.91 1.49s-.98.65-1.58.65c-.69 0-1.21-.31-1.56-.93-.4.61-.87.92-1.39.92h-.09c-.48 0-.83-.13-1.03-.38-.21-.26-.31-.53-.32-.81 0-.32.09-.57.28-.77s.41-.3.66-.3c.42 0 .63.21.63.62 0 .2-.06.37-.18.52s-.23.25-.34.3-.17.07-.19.07h-.04s.03.04.09.07.14.06.24.1.19.05.28.04c.35 0 .66-.22.91-.66.09-.16.2-.49.34-1s.28-1.04.41-1.6c.14-.55.22-.88.24-.98.05-.27.07-.46.07-.58 0-.28-.07-.47-.22-.59s-.31-.18-.5-.18c-.39 0-.76.16-1.11.47s-.59.72-.72 1.21c-.02.09-.04.14-.07.15-.03 0-.11.02-.24.03h-.21c-.06-.06-.09-.11-.09-.16z"/><path d="m9.6 56.04c0-.28.09-.49.27-.65s.39-.24.65-.24c.23.02.42.1.59.25s.25.36.25.64c0 .3-.08.52-.25.66-.17.15-.37.22-.62.22s-.45-.07-.62-.22-.26-.37-.27-.66zm-.01-8.86c0-.21.09-.39.27-.56s.38-.25.62-.25.44.08.62.24.27.35.28.58c0 .07-.1 1.2-.3 3.38-.2 2.19-.3 3.3-.31 3.34-.02.08-.11.12-.28.12-.18 0-.28-.04-.3-.12 0-.03-.11-1.14-.31-3.32-.2-2.19-.3-3.32-.3-3.4z"/><path d="m17.46 54.68c0-.15.08-.25.24-.3h9.38c.14.1.21.2.21.3 0 .13-.07.23-.22.3h-9.4c-.14-.07-.21-.17-.21-.3zm0-2.86c0-.13.07-.23.21-.3h9.4c.15.08.22.18.22.3 0 .11-.07.2-.21.28h-4.69s-4.69.01-4.69.01c-.16-.05-.24-.15-.24-.3z"/><path d="m42.71 0 .09.09v.41c0 .11-.07.2-.21.28-.76.52-1.38 1.19-1.87 2.01s-.82 1.73-.99 2.73c0 0 0 .03-.01.06-.04.28-.06 1.12-.07 2.54v1.61c0 2.38 0 3.59-.01 3.6 0 .04-.05.06-.13.07s-.32.01-.74.01c-.51 0-.78 0-.8-.01-.03 0-.05-.03-.06-.06-.02-.1-.03-1.26-.03-3.47v-1.21c0-.49 0-.84-.01-1.03 0-.98.04-1.73.13-2.26s.3-1.13.62-1.79c.75-1.48 1.88-2.64 3.39-3.49l.19-.1h.52z"/><path d="m42.8 106.41-.09.09h-.52l-.16-.09c-1.22-.67-2.19-1.55-2.92-2.64s-1.14-2.27-1.22-3.52c0-.1-.01-1.05-.01-2.87 0-2.81 0-4.22.01-4.24l.06-.06s.3-.01.81-.01c.41 0 .66 0 .74.01.08 0 .12.03.13.07 0 .02.01 1.22.01 3.59v1.88c0 1.02.02 1.75.06 2.17s.15.9.32 1.42c.16.47.35.91.58 1.31s.46.74.71 1.02.46.5.65.66.37.32.56.46.28.2.27.19c0 0 0 .09.01.3v.25z"/><path d="m37.95 39.82s.34-.01.97-.01c.4 0 .61 0 .63.01.03 0 .05.03.06.06.02.1.03 1.24.03 3.41 0 2.29 0 3.49-.01 3.58-.09 1.31-.47 2.51-1.15 3.59s-1.57 1.97-2.68 2.66l-.21.13.21.13c1.04.65 1.92 1.51 2.63 2.59.71 1.07 1.11 2.29 1.21 3.66 0 .09.01 1.28.01 3.58v3.03c0 .29-.02.43-.07.44h-.01s-.29.01-.8.01-.78 0-.8-.01c-.03 0-.05-.03-.06-.06-.02-.1-.03-1.23-.03-3.4v-2.11c0-1.04-.03-1.86-.1-2.45s-.24-1.21-.52-1.86c-.17-.43-.37-.84-.6-1.21-.24-.37-.46-.68-.68-.93s-.42-.45-.6-.61c-.19-.16-.34-.29-.46-.38l-.18-.15s-.01-.1-.01-.27 0-.26.01-.27c0 0 .1-.09.3-.24s.44-.38.72-.69c.29-.32.58-.69.89-1.12.3-.43.57-1.01.8-1.73s.37-1.48.43-2.29c0-.12.01-1.33.01-3.63s0-3.37.01-3.4l.06-.06z"/></g><g class="cls-2"><path d="M37.87,24.82V8.08c0-3.65.02-5.72.07-6.2.02-.1.34-.14.97-.14.4,0,.61.05.63.14.04.1.06.63.07,1.59,0,1.44.01,8.56.01,21.35v19.9c0,1.92-.02,2.93-.07,3.03h-.01c-.02.1-.29.14-.8.14s-.78-.05-.8-.14c-.04-.1-.06-.63-.07-1.59,0-1.44-.01-8.56-.01-21.35Z"/></g><g class="cls-4"><path d="m37.87 78.08v-16.73c0-3.65.02-5.72.07-6.2.02-.1.34-.14.97-.14.4 0 .61.05.63.14.04.1.06.63.07 1.59 0 1.44.01 8.56.01 21.35v19.9c0 1.92-.02 2.93-.07 3.03h-.01c-.02.1-.29.14-.8.14s-.78-.05-.8-.14c-.04-.1-.06-.62-.07-1.59 0-1.44-.01-8.56-.01-21.35z"/></g><g class="cls-3"><path d="m48.46 2.54-.19.07c-.14.05-.33.1-.59.15s-.54.08-.86.1h-.28v-.68h.28c.46-.02.89-.09 1.28-.22s.67-.25.83-.35c.16-.11.3-.22.41-.33.02-.03.08-.04.18-.04.09 0 .17.03.25.09v8.85c.08.07.14.11.19.13s.17.04.35.06.49.03.91.03h.38v.68h-.16c-.21-.03-.99-.04-2.35-.04s-2.11.01-2.32.04h-.18v-.68h.94c.16 0 .28 0 .37-.01.09 0 .17-.02.24-.04s.11-.03.12-.03.04-.02.09-.07.08-.07.09-.06v-7.65z"/><path d="m115.38 6.81c.07-.41.33-.89.8-1.43.46-.54 1.03-.82 1.71-.83.34 0 .66.09.94.27.29.18.5.4.63.66.41-.62.91-.93 1.49-.93.36 0 .68.11.94.33.27.22.4.51.41.87 0 .29-.07.52-.21.69-.14.18-.27.29-.4.33s-.24.06-.34.06c-.19 0-.34-.05-.46-.16s-.18-.25-.18-.43c0-.45.25-.76.74-.93-.11-.13-.3-.19-.59-.19-.13 0-.22 0-.28.03-.37.16-.65.48-.83.98-.59 2.18-.89 3.45-.89 3.81 0 .28.08.47.24.59s.33.18.52.18c.36 0 .72-.16 1.08-.49.35-.33.59-.72.72-1.2.03-.1.06-.15.09-.16.03 0 .11-.02.24-.03h.06c.15 0 .22.04.22.12 0 0 0 .06-.03.16-.16.56-.46 1.06-.91 1.49s-.98.65-1.58.65c-.69 0-1.21-.31-1.56-.93-.4.61-.87.92-1.39.92h-.09c-.48 0-.83-.13-1.03-.38-.21-.26-.31-.53-.32-.81 0-.32.09-.57.28-.77s.41-.3.66-.3c.42 0 .63.21.63.62 0 .2-.06.37-.18.52s-.23.25-.34.3-.17.07-.19.07h-.04s.03.04.09.07.14.06.24.1.19.05.28.04c.35 0 .66-.22.91-.66.09-.16.2-.49.34-1s.28-1.04.41-1.6c.14-.55.22-.88.24-.98.05-.27.07-.46.07-.58 0-.28-.07-.47-.22-.59s-.31-.18-.5-.18c-.39 0-.76.16-1.11.47-.34.32-.59.72-.72 1.21-.02.09-.04.14-.07.15-.03 0-.11.02-.24.03h-.21c-.06-.06-.09-.11-.09-.16z"/><path d="m127.97 8.82c0-.15.08-.25.24-.3h9.38c.14.1.21.2.21.3 0 .13-.07.23-.22.3h-9.4c-.14-.07-.21-.17-.21-.3zm0-2.87c0-.13.07-.23.21-.3h9.4c.15.08.22.18.22.3 0 .11-.07.2-.21.28h-4.69s-4.69.01-4.69.01c-.16-.05-.24-.15-.24-.3z"/><path d="m147.45 2.26c-.29-.32-.64-.47-1.05-.47s-.77.16-1.06.47c-.25.26-.41.61-.49 1.06s-.12 1.4-.12 2.84c0 1.56.04 2.58.12 3.07s.26.88.53 1.17c.28.3.61.44 1.02.44s.73-.15 1-.44c.29-.3.46-.71.53-1.24s.11-1.53.12-3c0-1.43-.04-2.37-.12-2.82s-.24-.81-.49-1.08zm-3.32.18c.55-.8 1.3-1.2 2.26-1.2.47 0 .94.13 1.42.38.47.26.86.71 1.15 1.36.36.82.55 1.94.55 3.37 0 1.53-.21 2.69-.63 3.5-.2.41-.47.74-.81.99s-.64.4-.9.46-.51.09-.75.1c-.26 0-.51-.03-.77-.09s-.56-.22-.9-.47-.61-.59-.81-.99c-.42-.81-.63-1.97-.63-3.5 0-1.71.28-3.02.84-3.92z"/><path d="m48.94 43.59s0-.04-.03-.1c-.02-.06-.04-.11-.06-.15s-.05-.09-.09-.16-.08-.13-.13-.19-.12-.12-.21-.19-.18-.13-.28-.18-.23-.09-.38-.13c-.16-.04-.32-.07-.49-.09s-.37-.03-.6-.04h-.15v-.8h17.18v.8h-.15c-1.29 0-2.04.41-2.26 1.24v16.59c.18.84.93 1.26 2.26 1.26h.15v.8h-7.32v-.8h.15c1.27 0 2.02-.4 2.26-1.21 0-.02.01-.03.01-.04v-17.83h-7.39v17.83c.17.84.92 1.26 2.27 1.26h.15v.8h-7.32v-.8h.15c1.27 0 2.02-.4 2.26-1.21 0-.02.01-.03.01-.04v-16.59z"/><path d="m45.54 68.66s.02-.1.03-.17.06-.2.13-.4c.07-.19.14-.36.21-.49s.18-.26.34-.39.32-.18.48-.18c.25 0 .46.06.63.19s.27.24.31.36c.04.11.06.18.06.22 0 .01 0 .02.01.02l.11-.11c.42-.45.91-.67 1.45-.67.38 0 .68.09.91.28s.35.46.35.83c0 .36-.13.91-.4 1.64s-.4 1.17-.4 1.33c0 .18.06.27.18.27.04 0 .07 0 .09-.01.2-.03.38-.17.54-.4s.28-.51.36-.84c.01-.06.08-.08.21-.08.14 0 .21.03.21.08 0 0-.01.06-.04.16-.06.2-.13.4-.23.6s-.26.39-.48.58-.46.29-.72.28c-.33 0-.56-.09-.71-.28s-.22-.38-.22-.58c0-.13.13-.55.38-1.25s.38-1.23.39-1.59c0-.41-.15-.62-.46-.62h-.05c-.6 0-1.1.35-1.51 1.05l-.07.13-.34 1.4c-.23.91-.36 1.4-.4 1.47-.09.19-.24.28-.45.28-.09 0-.16-.02-.22-.06s-.09-.08-.11-.13c-.02-.04-.03-.08-.02-.1 0-.09.13-.66.4-1.7s.4-1.61.42-1.7c0-.03.01-.11.01-.24 0-.27-.08-.41-.25-.41-.26 0-.48.35-.66 1.04-.04.14-.06.21-.06.22-.01.04-.08.06-.2.06h-.15s-.06-.07-.06-.09z"/><path d="m52.16 70.06c0-.1.06-.17.17-.21h6.63c.1.07.15.14.15.21 0 .09-.05.16-.16.21h-6.64c-.1-.05-.15-.12-.15-.21zm0-2.02c0-.09.05-.16.15-.21h6.64c.1.06.16.13.16.21s-.05.14-.15.2h-3.32s-3.32.01-3.32.01c-.11-.03-.17-.1-.17-.21z"/><path d="m61.91 65.62-.14.05c-.1.03-.24.07-.42.1s-.38.06-.6.07h-.2v-.48h.2c.33-.01.63-.07.91-.16s.47-.17.58-.25.21-.15.29-.23c.01-.02.06-.03.13-.03.06 0 .12.02.18.06v6.26c.06.05.1.08.14.09s.12.03.25.04.35.02.65.02h.27v.48h-.11c-.15-.02-.7-.03-1.66-.03s-1.49.01-1.64.03h-.13v-.48h.67c.11 0 .2 0 .26-.01.06 0 .12-.02.17-.03s.08-.02.08-.02.03-.02.06-.05.06-.05.06-.04v-5.4z"/><path d="m52.67 35.58c.05-.29.24-.63.56-1.01.33-.38.73-.58 1.21-.58.24 0 .47.06.67.19s.35.28.45.47c.29-.44.64-.66 1.05-.66.26 0 .48.08.67.23s.29.36.29.62c0 .2-.05.37-.15.49-.1.13-.19.2-.28.23s-.17.04-.24.04c-.13 0-.24-.04-.32-.11-.08-.08-.13-.18-.13-.3 0-.32.17-.54.52-.66-.08-.09-.22-.14-.42-.14-.09 0-.16 0-.2.02-.26.11-.46.34-.58.69-.42 1.54-.63 2.44-.63 2.69 0 .19.06.33.17.42s.23.13.36.13c.26 0 .51-.11.76-.34s.42-.51.51-.85c.02-.07.04-.11.06-.11s.08-.01.17-.02h.04c.1 0 .16.03.16.08 0 0 0 .05-.02.11-.11.4-.33.75-.65 1.05s-.69.46-1.12.46c-.49 0-.86-.22-1.11-.66-.29.43-.61.65-.98.65h-.06c-.34 0-.58-.09-.73-.27s-.22-.37-.23-.57c0-.22.07-.4.2-.54s.29-.21.47-.21c.3 0 .45.15.45.44 0 .14-.04.26-.13.37-.08.1-.16.17-.24.21-.08.03-.12.05-.14.05h-.03s.02.03.06.05.1.05.17.07c.07.03.14.04.2.03.25 0 .47-.16.65-.47.06-.11.14-.35.24-.71s.19-.74.29-1.13.15-.62.17-.69c.03-.19.05-.32.05-.41 0-.2-.05-.33-.16-.42s-.22-.13-.35-.13c-.28 0-.54.11-.78.33s-.41.51-.51.86c-.01.06-.03.1-.05.1s-.08.01-.17.02h-.15s-.06-.08-.06-.11z"/><path d="m67.68 51.35c0-.06.02-.14.04-.24s.08-.29.18-.56c.1-.28.2-.51.3-.69s.26-.37.49-.55.45-.26.68-.25c.35 0 .65.09.89.27s.38.34.44.5.09.26.09.31c0 .02 0 .03.01.03l.16-.16c.6-.63 1.28-.95 2.05-.95.53 0 .96.13 1.28.4s.49.65.5 1.17c0 .51-.18 1.29-.56 2.32s-.57 1.66-.56 1.88c0 .26.08.38.25.38.06 0 .1 0 .13-.01.29-.05.54-.24.77-.56s.4-.72.52-1.18c.02-.08.12-.12.3-.12.2 0 .3.04.3.12 0 0-.02.08-.06.22-.08.29-.19.57-.32.84-.14.28-.36.55-.68.83-.31.28-.65.41-1.02.4-.46 0-.8-.13-1-.4-.21-.27-.31-.54-.31-.83 0-.19.18-.78.53-1.77s.54-1.74.55-2.25c0-.58-.22-.87-.65-.87h-.07c-.85 0-1.56.5-2.14 1.49l-.1.18-.49 1.98c-.32 1.29-.51 1.98-.56 2.08-.13.27-.34.4-.63.4-.13 0-.23-.03-.31-.09s-.13-.12-.16-.18-.04-.11-.03-.15c0-.13.19-.93.56-2.41s.57-2.28.59-2.41c0-.05.01-.16.01-.34 0-.38-.12-.58-.35-.58-.37 0-.68.49-.93 1.48-.06.2-.09.3-.09.31-.02.06-.11.09-.28.09h-.21c-.06-.06-.09-.1-.09-.13z"/><path d="m115.38 51.32c.07-.41.33-.89.8-1.43.46-.54 1.03-.82 1.71-.83.34 0 .66.09.94.27.29.18.5.4.63.66.41-.62.91-.93 1.49-.93.36 0 .68.11.94.33.27.22.4.51.41.87 0 .29-.07.52-.21.69-.14.18-.27.29-.4.33s-.24.06-.34.06c-.19 0-.34-.05-.46-.16s-.18-.25-.18-.43c0-.45.25-.76.74-.93-.11-.13-.3-.19-.59-.19-.13 0-.22 0-.28.03-.37.16-.65.48-.83.98-.59 2.18-.89 3.45-.89 3.81 0 .28.08.47.24.59s.33.18.52.18c.36 0 .72-.16 1.08-.49.35-.33.59-.72.72-1.2.03-.1.06-.15.09-.16.03 0 .11-.02.24-.03h.06c.15 0 .22.04.22.12 0 0 0 .06-.03.16-.16.56-.46 1.06-.91 1.49s-.98.65-1.58.65c-.69 0-1.21-.31-1.56-.93-.4.61-.87.92-1.39.92h-.09c-.48 0-.83-.13-1.03-.38-.21-.26-.31-.53-.32-.81 0-.32.09-.57.28-.77s.41-.3.66-.3c.42 0 .63.21.63.62 0 .2-.06.37-.18.52s-.23.25-.34.3-.17.07-.19.07h-.04s.03.04.09.07.14.06.24.1.19.05.28.04c.35 0 .66-.22.91-.66.09-.16.2-.49.34-1s.28-1.04.41-1.6c.14-.55.22-.88.24-.98.05-.27.07-.46.07-.58 0-.28-.07-.47-.22-.59s-.31-.18-.5-.18c-.39 0-.76.16-1.11.47s-.59.72-.72 1.21c-.02.09-.04.14-.07.15-.03 0-.11.02-.24.03h-.21c-.06-.06-.09-.11-.09-.16z"/><path d="m128.38 51.89c0-1.2.4-2.19 1.21-2.95s1.76-1.21 2.86-1.31h.25c.16 0 .36 0 .62-.01h.74 1.46c.15.08.22.18.22.3 0 .09-.06.18-.19.28h-1.53c-1.09.02-1.77.05-2.02.1-.48.12-.91.3-1.28.53-.37.24-.66.48-.87.72-.21.25-.38.52-.53.81-.15.3-.24.53-.27.71s-.05.34-.07.5v.03h6.55c.15.08.22.18.22.3s-.07.22-.22.3h-6.55v.03c0 .21.05.46.15.75.1.3.26.62.49.96s.54.66.94.95.88.49 1.43.61c.27.06.94.09 2.04.1h1.53c.13.1.19.2.19.3 0 .12-.07.22-.22.3h-1.8c-.18 0-.32 0-.43.01-1.52 0-2.73-.42-3.61-1.27-.87-.81-1.3-1.82-1.3-3.03z"/><path d="m147.17 49.4-2.55-3.38h-1.77l.24.3s1.12 1.43 3.32 4.24 3.31 4.22 3.33 4.24l.03-.21v-1.83l-2.6-3.35zm-5.79-3.62s.05-.11.16-.28h1.64c1.12 0 1.69 0 1.71.03 0 0 .11.15.31.41s.51.66.93 1.2c.42.53.82 1.04 1.18 1.54l2.36 3.09v-3.41c0-.38 0-.64.01-.75 0-.69-.05-1.12-.15-1.29s-.35-.27-.75-.3c-.22 0-.36-.03-.43-.09-.09-.11-.09-.23 0-.37l.1-.06h2.82c.11.07.16.15.16.25 0 .09-.02.16-.06.21-.1.04-.19.06-.27.06-.46 0-.72.18-.78.53-.03.11-.04 1.67-.04 4.7v4.46c-.08.12-.16.18-.25.18-.06 0-.11-.02-.16-.07-.03-.02-1.14-1.42-3.32-4.21l-3.17-4.11-.04 3.38v1.26c0 .49 0 .82-.01.99 0 .63.02 1.07.06 1.31s.12.41.24.5.32.14.6.15c.23 0 .37.03.43.09.11.11.11.23 0 .37l-.09.06h-2.95c-.12-.07-.18-.15-.18-.25 0-.18.16-.27.47-.27.02 0 .08-.02.19-.03.11 0 .19-.03.25-.06s.13-.08.21-.15.12-.18.13-.33c.02-.11.03-1.45.03-4.03v-3.81l-.22-.24c-.24-.24-.49-.38-.77-.43-.24 0-.35-.08-.35-.24z"/><path d="m154.19 45.72c0-.11.06-.21.16-.29s.22-.13.38-.14.28.04.38.14.15.19.16.29c0 .06-.03.29-.1.71l-.11.66s.09-.06.24-.18.33-.25.54-.41c.21-.15.36-.26.45-.32.05-.02.1-.03.16-.03.14 0 .26.06.36.17s.16.25.17.41c0 .06 0 .11-.01.16 0 .04-.03.08-.06.11s-.06.07-.08.09c-.02.03-.07.05-.14.07s-.12.04-.16.06-.1.05-.21.07-.19.06-.25.08l-.64.23.64.23c.06.02.13.05.23.07.1.03.17.05.22.07s.1.04.16.06.1.05.14.07c.03.03.06.06.08.09s.04.07.06.11.03.09.02.16c0 .17-.06.31-.18.42-.12.1-.24.16-.35.16h-.09s-.03 0-.04-.01c-.01 0-.03-.01-.04-.02s-.03-.02-.05-.03-.04-.03-.06-.04-.05-.03-.08-.06-.07-.06-.1-.08c-.03-.03-.08-.06-.14-.1s-.11-.09-.18-.14l-.59-.44.11.66c.07.42.1.65.1.71-.01.12-.07.22-.18.3s-.22.13-.35.13-.25-.04-.35-.13c-.1-.08-.16-.18-.18-.3 0-.06.03-.29.1-.71l.11-.66s-.09.06-.24.18-.33.25-.54.41c-.21.15-.36.26-.45.32-.05.02-.1.03-.16.03-.14 0-.26-.06-.37-.17-.1-.11-.16-.25-.17-.41 0-.06 0-.11.01-.16 0-.04.03-.08.06-.11s.06-.07.08-.09c.02-.03.07-.05.14-.07s.12-.04.16-.06.1-.05.21-.07.19-.06.25-.08l.64-.23-.64-.23c-.06-.02-.13-.05-.23-.07s-.17-.05-.22-.07-.1-.04-.16-.06-.1-.05-.14-.07c-.03-.03-.06-.06-.08-.09s-.04-.07-.06-.11-.03-.09-.02-.16c0-.17.06-.31.18-.42.12-.1.24-.16.35-.16h.09s.03 0 .04.01c.01 0 .03.01.04.02s.03.02.05.03.04.03.06.04.05.03.08.06.07.06.1.08c.03.03.08.06.14.1s.11.09.18.14l.59.44-.11-.66c-.07-.42-.1-.65-.1-.71z"/><path d="m47.21 93.66c-.07-.07-.12-.11-.16-.13s-.12-.03-.24-.04c-.12 0-.33-.02-.63-.04h-.49v-.68h7.8v.06c.02.06.09.63.21 1.71s.19 1.65.21 1.71v.06h-.59v-.06s-.02-.18-.06-.5c-.04-.33-.11-.65-.22-.99-.11-.33-.26-.6-.46-.78-.37-.35-1.08-.53-2.11-.53h-.22c-.69 0-1.11 0-1.25.01-.15 0-.23.07-.24.18 0 .03-.01 1.42-.01 4.17v4.11c.08.07.14.11.19.13s.17.04.37.06.51.03.93.03h.4v.68h-.18c-.24-.03-1.05-.04-2.45-.04-1.29 0-2.01.01-2.15.04h-.16v-.68h.49c.41 0 .66-.02.75-.04s.18-.08.28-.18v-8.24z"/><path d="m55.93 99.11c0-.68.05-1.32.15-1.94.1-.61.21-1.14.34-1.58s.31-.88.55-1.3.42-.75.56-.99.34-.49.62-.77.44-.44.49-.5.17-.16.37-.31h.25c.14 0 .21.04.21.13 0 .03-.08.13-.25.31s-.37.44-.6.78-.48.77-.72 1.27c-.25.5-.45 1.18-.62 2.04s-.25 1.81-.25 2.85.08 1.99.25 2.84.37 1.53.6 2.05.48.95.72 1.27c.25.33.45.59.62.78.17.2.25.3.25.31 0 .09-.07.13-.22.13h-.24l-.41-.35c-.92-.84-1.6-1.88-2.02-3.13s-.63-2.55-.63-3.9z"/><path d="m61.05 98.53c.07-.41.33-.89.8-1.43.46-.54 1.03-.82 1.71-.83.34 0 .66.09.94.27.29.18.5.4.63.66.41-.62.91-.93 1.49-.93.36 0 .68.11.94.33.27.22.4.51.41.87 0 .29-.07.52-.21.69-.14.18-.27.29-.4.33s-.24.06-.34.06c-.19 0-.34-.05-.46-.16s-.18-.25-.18-.43c0-.45.25-.76.74-.93-.11-.13-.3-.19-.59-.19-.13 0-.22 0-.28.03-.37.16-.65.48-.83.98-.59 2.18-.89 3.45-.89 3.81 0 .28.08.47.24.59s.33.18.52.18c.36 0 .72-.16 1.08-.49s.59-.72.72-1.2c.03-.1.06-.15.09-.16.03 0 .11-.02.24-.03h.06c.15 0 .22.04.22.12 0 0 0 .06-.03.16-.16.56-.46 1.06-.91 1.49s-.98.65-1.58.65c-.69 0-1.21-.31-1.56-.93-.4.61-.87.92-1.39.92h-.09c-.48 0-.83-.13-1.03-.38-.21-.26-.31-.53-.32-.81 0-.32.09-.57.28-.77s.41-.3.66-.3c.42 0 .63.21.63.62 0 .2-.06.37-.18.52s-.23.25-.34.3-.17.07-.19.07h-.04s.03.04.09.07.14.06.24.1.19.05.28.04c.35 0 .66-.22.91-.66.09-.16.2-.49.34-1s.28-1.04.41-1.6c.14-.55.22-.88.24-.98.05-.27.07-.46.07-.58 0-.28-.07-.47-.22-.59s-.31-.18-.5-.18c-.39 0-.76.16-1.11.47-.34.32-.59.72-.72 1.21-.02.09-.04.14-.07.15-.03 0-.11.02-.24.03h-.21c-.06-.06-.09-.11-.09-.16z"/><path d="m72.82 99.3v-.19c0-.13.07-.23.21-.3h4.41v-4.43c.11-.13.21-.19.3-.19.13 0 .23.07.3.22v4.4h4.4c.15.08.22.18.22.3s-.07.22-.22.3h-4.4v4.4c-.08.14-.17.21-.27.21h-.06c-.12 0-.21-.07-.27-.21v-4.4h-4.41c-.14-.07-.21-.17-.21-.3v.19z"/><path d="m89.89 94.26-.19.07c-.14.05-.33.1-.59.15s-.54.08-.86.1h-.28v-.68h.28c.46-.02.89-.09 1.28-.22s.67-.25.83-.35c.16-.11.3-.22.41-.33.02-.03.08-.04.18-.04.09 0 .17.03.25.09v8.85c.08.07.14.11.19.13s.17.04.35.06c.19.02.49.03.91.03h.38v.68h-.16c-.21-.03-.99-.04-2.35-.04s-2.11.01-2.32.04h-.18v-.68h.94c.16 0 .28 0 .37-.01.09 0 .17-.02.24-.04s.11-.03.12-.03.04-.02.09-.07.08-.07.09-.06v-7.64z"/><path d="m95.01 91.74h.06s.1-.01.15-.01h.18l.41.35c.92.84 1.6 1.88 2.02 3.13s.63 2.55.63 3.9c0 .67-.05 1.31-.15 1.94-.1.62-.21 1.15-.34 1.58s-.31.87-.55 1.3-.42.76-.56.99-.34.48-.6.75c-.27.28-.42.44-.47.49s-.16.14-.34.28l-.06.06h-.34s-.05-.01-.07-.04-.03-.07-.04-.13c0 0 .06-.07.16-.19 1.52-1.59 2.29-3.92 2.29-7.02s-.76-5.43-2.29-7.02c-.1-.12-.15-.18-.16-.19 0-.08.02-.13.07-.16z"/><path d="m115.38 98.53c.07-.41.33-.89.8-1.43.46-.54 1.03-.82 1.71-.83.34 0 .66.09.94.27.29.18.5.4.63.66.41-.62.91-.93 1.49-.93.36 0 .68.11.94.33.27.22.4.51.41.87 0 .29-.07.52-.21.69-.14.18-.27.29-.4.33s-.24.06-.34.06c-.19 0-.34-.05-.46-.16s-.18-.25-.18-.43c0-.45.25-.76.74-.93-.11-.13-.3-.19-.59-.19-.13 0-.22 0-.28.03-.37.16-.65.48-.83.98-.59 2.18-.89 3.45-.89 3.81 0 .28.08.47.24.59s.33.18.52.18c.36 0 .72-.16 1.08-.49.35-.33.59-.72.72-1.2.03-.1.06-.15.09-.16.03 0 .11-.02.24-.03h.06c.15 0 .22.04.22.12 0 0 0 .06-.03.16-.16.56-.46 1.06-.91 1.49s-.98.65-1.58.65c-.69 0-1.21-.31-1.56-.93-.4.61-.87.92-1.39.92h-.09c-.48 0-.83-.13-1.03-.38-.21-.26-.31-.53-.32-.81 0-.32.09-.57.28-.77s.41-.3.66-.3c.42 0 .63.21.63.62 0 .2-.06.37-.18.52s-.23.25-.34.3-.17.07-.19.07h-.04s.03.04.09.07.14.06.24.1.19.05.28.04c.35 0 .66-.22.91-.66.09-.16.2-.49.34-1s.28-1.04.41-1.6c.14-.55.22-.88.24-.98.05-.27.07-.46.07-.58 0-.28-.07-.47-.22-.59s-.31-.18-.5-.18c-.39 0-.76.16-1.11.47s-.59.72-.72 1.21c-.02.09-.04.14-.07.15-.03 0-.11.02-.24.03h-.21c-.06-.06-.09-.11-.09-.16z"/><path d="m128.38 99.11c0-1.2.4-2.19 1.21-2.95.81-.77 1.76-1.21 2.86-1.31h.25c.16 0 .36 0 .62-.01h.74 1.46c.15.08.22.18.22.3 0 .09-.06.18-.19.28h-1.53c-1.09.02-1.77.05-2.02.1-.48.12-.91.3-1.28.53-.37.24-.66.48-.87.72-.21.25-.38.52-.53.81-.15.3-.24.53-.27.71s-.05.34-.07.5v.03h6.55c.15.08.22.18.22.3s-.07.22-.22.3h-6.55v.03c0 .21.05.46.15.75.1.3.26.62.49.96s.54.66.94.95.88.49 1.43.61c.27.06.94.09 2.04.1h1.53c.13.1.19.2.19.3 0 .12-.07.22-.22.3h-1.8c-.18 0-.32 0-.43.01-1.52 0-2.73-.42-3.61-1.27-.87-.81-1.3-1.82-1.3-3.03z"/><path d="m150.24 94.46v-.89s-.08.03-.12.03c-.1.04-.21.06-.34.06h-.22l.19.21c.2.22.3.34.32.38l.16.21zm-5.47-.89c.14-.18.19-.27.16-.27-.23.08-.46.19-.69.34-.24.15-.5.35-.78.61-.29.26-.54.6-.75 1.02-.22.42-.37.9-.46 1.42-.05.3-.07.65-.07 1.08s.02.78.07 1.08c.1.54.27 1.03.5 1.46.24.43.49.77.75 1s.53.43.78.59.47.27.63.33l.25.07c-.07-.07-.13-.14-.19-.21-.64-.62-1.05-1.64-1.22-3.04-.03-.27-.04-.71-.04-1.33s.01-1.06.04-1.33c.19-1.23.53-2.17 1.02-2.82zm6.4 7.3c0 .06-.06.17-.18.33s-.31.34-.58.56-.56.42-.89.62c-.32.2-.74.36-1.24.5s-1.01.21-1.52.21c-.55 0-1.09-.08-1.62-.24s-1.03-.4-1.5-.72c-.47-.33-.88-.76-1.22-1.3s-.58-1.17-.69-1.88c-.05-.22-.07-.61-.07-1.18s.02-.97.07-1.18c.22-1.15.7-2.09 1.46-2.81s1.73-1.15 2.92-1.3c.03 0 .14 0 .34-.01.2 0 .35-.01.46-.01.53.03 1.06.15 1.59.35.53.21.93.32 1.21.33.18 0 .3-.03.38-.1s.12-.15.13-.24c0-.09.03-.17.07-.24s.11-.11.21-.12c.11 0 .2.06.27.18v3.09l-.06.1c-.13.07-.25.08-.37.03-.04-.04-.09-.16-.15-.35-.06-.2-.17-.42-.34-.66-.32-.45-.76-.87-1.3-1.24s-1.12-.56-1.73-.56h-.13c-.43 0-.84.19-1.21.56-.86.77-1.28 2.19-1.28 4.27 0 .86.1 1.63.31 2.32.4 1.47 1.25 2.2 2.54 2.2s2.42-.49 3.48-1.48c.17-.17.29-.25.37-.25.05 0 .1.02.16.06s.09.1.1.18z"/><path d="m155.83 92c0-.09.03-.16.09-.21s.12-.07.19-.07c.1 0 .18.05.25.15.04.07.91 2.46 2.63 7.17 1.71 4.71 2.57 7.1 2.57 7.18s-.03.14-.09.19-.13.08-.21.09c-.1 0-.18-.05-.25-.15-.03-.04-.9-2.41-2.61-7.12s-2.57-7.12-2.57-7.22z"/><path d="m174.1 102.29c.09-.53.13-.84.13-.92l-.3.3c-.19.18-.36.32-.52.43l-.27.16.46.03h.49zm-.3-9.03s-.24-.03-.71-.03c-.51 0-.78.02-.8.07-.02.04-.92 1.52-2.71 4.43-1.79 2.92-2.72 4.42-2.79 4.52 0 .02.25.03.75.03h.75l2.76-4.49 2.74-4.54zm-5.96.13.27-.16h-.8v.24s-.02.08-.03.15c0 .07-.02.12-.03.15 0 .04 0 .06.03.06s.05-.02.09-.06.1-.09.19-.16.18-.14.28-.21zm-1.6 9.43c-.1-.1-.15-.16-.15-.19 0-.11.15-.43.46-.96s1.09-1.81 2.35-3.84l2.82-4.59h-.68c-1.01 0-1.77.1-2.27.3-.41.16-.75.35-1 .59s-.42.45-.49.64-.13.36-.18.53-.09.26-.13.28c-.03 0-.07.01-.12.01-.08 0-.17-.07-.28-.21l.13-1.26c.02-.19.04-.38.07-.59s.05-.37.06-.5c0-.13.02-.19.03-.19.03-.02.06-.05.1-.09.02-.02 1.26-.03 3.73-.03h3.7c.12.1.18.18.18.25 0 .04-.94 1.61-2.83 4.7l-2.82 4.59s.39.03 1.18.03c1.03 0 1.75-.06 2.14-.19.57-.2 1.05-.51 1.43-.93s.65-.92.8-1.49c.05-.27.15-.4.3-.4.07 0 .13.02.18.07s.08.1.09.16c0 .08-.07.62-.21 1.63-.14 1-.22 1.52-.25 1.55l-.1.1s-1.4.03-4.13.03h-4.1z"/></g></g></svg>
