<svg viewBox="0 0 234.37 78.75" xmlns="http://www.w3.org/2000/svg"><defs><style>.cls-1 {
        fill: #4d4d4d;
      }

      .cls-2 {
        isolation: isolate;
      }</style></defs><g id="a"><g><g><g><path id="b" d="m1.93 15.15s0-.02.01-.04.02-.03.03-.04.02-.03.04-.05.04-.04.05-.04.04 0 .07-.03.06-.02.1-.01c.09.02.17.09.24.2v12.83h2.16c.25 0 .43.01.52.04s.14.1.15.23-.04.2-.15.23-.3.05-.57.05h-.42c-.22 0-.4 0-.54-.01h-1.47c-.11-.04-.18-.11-.22-.22v-13.14z"/><path id="c" d="m6.3 21.19c.06-.38.31-.82.73-1.32.43-.5.95-.75 1.57-.76.32 0 .61.08.87.24s.46.37.58.61c.38-.57.84-.86 1.37-.86.33 0 .62.1.87.3s.37.47.38.8c0 .26-.06.48-.19.64s-.25.26-.37.3-.22.05-.31.05c-.17 0-.31-.05-.42-.15s-.16-.23-.16-.39c0-.42.23-.7.68-.86-.1-.12-.28-.18-.54-.18-.12 0-.2 0-.26.03-.34.14-.6.44-.76.9-.54 2-.81 3.17-.81 3.5 0 .25.07.43.22.54s.3.16.48.16c.33 0 .67-.15.99-.45s.55-.67.67-1.1c.03-.09.05-.14.08-.15s.1-.02.22-.03h.05c.14 0 .2.04.2.11 0 0 0 .06-.03.15-.14.52-.43.97-.84 1.37-.42.4-.9.6-1.45.6-.63 0-1.11-.29-1.44-.86-.37.56-.8.84-1.28.84h-.08c-.44 0-.76-.12-.95-.35-.19-.24-.29-.48-.3-.75 0-.29.09-.52.26-.71.17-.18.38-.27.61-.27.39 0 .58.19.58.57 0 .18-.05.34-.16.48s-.21.23-.31.27-.16.07-.18.07h-.04s.03.04.08.07.13.06.22.1.18.05.26.04c.33 0 .61-.2.84-.61.08-.14.19-.45.31-.92.13-.47.25-.96.38-1.47s.2-.81.22-.9c.05-.24.07-.42.07-.53 0-.25-.07-.43-.2-.54s-.29-.16-.46-.16c-.36 0-.7.14-1.02.43s-.54.66-.67 1.11c-.02.08-.04.13-.07.14s-.1.02-.22.03h-.19c-.05-.05-.08-.1-.08-.15z"/><path id="d" d="m16.47 15.15s0-.02.01-.04.02-.03.03-.04.02-.03.04-.05.04-.04.05-.04.04 0 .07-.03.06-.02.1-.01c.1.02.18.09.24.2v13.17s-.09.11-.18.19h-1.48s-.95.01-.95.01c-.31 0-.51-.01-.61-.04s-.15-.1-.15-.23.05-.2.15-.23.28-.05.54-.05h.37c.18 0 .33 0 .46.01h1.3v-12.81z"/></g><path id="e" d="m23.92 20.4c0-.12.06-.21.19-.27h8.65c.14.07.2.16.2.27 0 .1-.06.19-.19.26h-4.32s-4.32.01-4.32.01c-.14-.05-.22-.14-.22-.27zm0 2.64c0-.14.07-.23.22-.27h8.63c.13.09.19.18.19.27 0 .12-.07.21-.2.27h-8.65c-.13-.06-.19-.15-.19-.27z"/><g><path id="f" d="m46.46 41.99-.08.08h-.45l-.24-.12c-.91-.45-1.68-1.05-2.31-1.81s-1.01-1.65-1.17-2.69c-.02-.11-.03-1.96-.03-5.57v-5.44s-.04-.22-.04-.22c-.07-.77-.33-1.53-.76-2.29s-1.02-1.38-1.76-1.85c-.1-.08-.15-.14-.16-.18s-.01-.1-.01-.19c0-.14 0-.22.01-.24s.06-.07.16-.14c.77-.5 1.36-1.13 1.78-1.89s.67-1.51.75-2.25l.03-.23v-5.44c.01-3.59.02-5.44.04-5.55.28-1.92 1.42-3.41 3.42-4.47l.3-.15h.45l.08.08v.46s-.02.04-.05.07-.08.05-.12.07-.13.06-.24.14-.24.17-.38.3c-.12.08-.24.19-.38.34s-.33.37-.58.68-.47.69-.64 1.15-.29.96-.34 1.49c0 .08-.01 1.88-.01 5.39s0 5.29-.01 5.38c-.14 1.54-.85 2.85-2.12 3.92-.43.35-.87.65-1.34.88l.65.39c.09.05.32.22.69.5 1.29 1.08 1.99 2.38 2.12 3.92 0 .08.01 1.88.01 5.39s0 5.29.01 5.38c.04.43.12.84.26 1.24s.28.72.42.98c.14.25.32.5.53.73s.35.39.43.48.18.16.3.24c.16.14.31.26.43.34s.21.13.26.14.07.03.08.07.02.1.03.18v.31z"/><g><g><g><g><path id="g" d="m48.99 9.56h.19c.35 0 .57-.06.64-.19v-.84c0-.15 0-.33.01-.53s0-.39 0-.57v-.9c0-.32 0-.58-.01-.8v-.31c-.03-.17-.09-.29-.19-.34s-.3-.1-.61-.12h-.24v-.31c0-.21 0-.31.03-.31h.14c.09-.02.22-.03.38-.04s.33-.02.5-.03c.15 0 .32-.02.49-.03.17 0 .3-.02.39-.04s.14-.02.15-.01h.04v.54c0 .34 0 .52.01.52s.03-.02.07-.07.09-.11.16-.2.16-.17.26-.24.23-.16.39-.26.33-.17.52-.22.41-.07.69-.07c.14 0 .26 0 .38.03s.22.05.31.08.18.07.26.11.15.08.2.12.1.1.15.15.09.1.12.15.07.1.1.15.05.1.05.14.02.07.04.11l.03.07.04-.05s.05-.07.08-.11.07-.09.12-.15.11-.12.18-.18.13-.11.2-.18.16-.12.27-.16.21-.09.31-.14.22-.08.35-.1.28-.03.42-.04c1.14 0 1.76.51 1.86 1.53 0 .06.01.69.01 1.89v1.17c0 .34 0 .55.03.61s.07.11.15.14c.19.03.41.04.67.04h.22v.62h-.42c-.22-.02-.45-.03-.69-.03s-.42 0-.52-.01c-.93 0-1.44.01-1.52.04h-.11v-.62h.22c.55 0 .83-.07.83-.22 0-.02.01-.64.01-1.87 0-1.22-.02-1.87-.03-1.94-.05-.25-.14-.44-.27-.57s-.24-.2-.33-.23-.21-.04-.35-.03c-.41 0-.76.15-1.07.46-.24.24-.4.49-.46.75s-.1.63-.11 1.13v1.68c0 .27 0 .45.01.54 0 .09.02.15.04.18s.06.05.12.08c.19.03.41.04.67.04h.22v.62h-.43c-.21-.02-.43-.03-.68-.03s-.42 0-.52-.01c-.93 0-1.44.01-1.52.04h-.11v-.62h.22c.55 0 .83-.07.83-.22 0-.02.01-.64.01-1.87 0-1.22-.02-1.87-.03-1.94-.05-.25-.14-.44-.27-.57s-.24-.2-.33-.23-.21-.04-.35-.03c-.41 0-.76.15-1.07.46-.24.24-.4.49-.46.75s-.1.63-.11 1.13v1.68c0 .27 0 .45.01.54 0 .09.02.15.04.18s.06.05.12.08c.19.03.41.04.67.04h.22v.62h-.42c-.22-.02-.45-.03-.69-.03s-.42 0-.52-.01c-.93 0-1.44.01-1.52.04h-.11v-.62h.22z"/><path id="h" d="m61.6 6.04h-.3c-.2 0-.37-.07-.5-.2s-.2-.31-.2-.53c0-.32.15-.6.46-.84s.86-.37 1.64-.37c.66 0 1.19.14 1.6.43s.68.63.81 1.03c.05.13.07.27.07.42s0 .67.01 1.56v.95c0 .43.02.73.07.9s.14.24.29.24c.14 0 .23-.07.27-.22.05-.14.07-.38.07-.72v-.49h.54v.53c0 .36-.02.57-.04.64-.08.27-.24.48-.48.64-.24.15-.48.24-.75.24s-.48-.07-.64-.24-.27-.36-.33-.57v-.05l-.03.04s-.04.05-.07.08-.06.07-.11.12-.1.1-.16.15-.13.1-.2.16-.15.11-.24.15-.19.07-.3.11-.23.06-.35.08c-.13.02-.27.03-.42.04-.54 0-1.03-.14-1.47-.42-.43-.28-.65-.67-.65-1.18 0-.19.03-.37.1-.54s.19-.36.37-.56.4-.37.65-.5c.25-.14.61-.26 1.06-.38s.95-.19 1.49-.2h.19v-.3c0-.31-.03-.53-.08-.68-.2-.64-.64-.96-1.32-.96-.16 0-.32 0-.46.01s-.26.03-.34.05-.12.04-.11.04c.2.14.3.33.3.6 0 .23-.07.4-.22.53l-.23.2zm-.15 2.7c0 .28.11.53.33.75s.48.33.8.34c.34 0 .65-.1.91-.31s.44-.48.53-.81c.02-.06.03-.36.04-.9 0-.52 0-.79-.01-.79-.07 0-.17 0-.29.01s-.32.05-.61.12-.55.16-.79.27-.44.28-.62.5-.28.5-.29.81z"/><path id="i" d="m69.25 10.18c-.11-.03-.56-.04-1.34-.04-.69 0-1.07.01-1.15.04h-.08v-.62h.19c.21 0 .4-.04.57-.08.17-.05.3-.09.39-.12s.2-.11.34-.23.22-.2.24-.24.12-.16.29-.35.25-.32.27-.38l.62-.81-.79-1.06c-.08-.12-.17-.24-.26-.37s-.16-.22-.22-.29-.1-.13-.15-.2-.09-.13-.12-.16-.06-.07-.08-.1-.05-.05-.1-.08-.07-.04-.08-.04-.04 0-.08-.03-.08-.03-.11-.03c-.05 0-.22 0-.49-.03h-.38v-.62h.1c.33.02.79.03 1.4.03.84 0 1.31 0 1.4-.03h.11v.62c-.33.04-.49.11-.49.22 0 .02.05.09.14.22s.22.3.38.52.29.4.39.56l.05.05.34-.46c.29-.37.43-.62.43-.73 0-.05 0-.1-.03-.15s-.04-.08-.07-.1-.05-.04-.07-.05-.05-.04-.1-.05h-.04s-.07-.01-.07-.01v-.62h.1c.14.03.58.04 1.34.04.71 0 1.1-.01 1.15-.04h.08v.62h-.1c-.44 0-.81.08-1.1.23-.15.07-.31.19-.46.37s-.45.55-.88 1.14l-.22.29.84 1.15c.6.81.92 1.24.96 1.28s.12.07.23.1c.16.04.4.05.72.05h.23v.62h-.19c-.07 0-.16-.01-.27-.01s-.22 0-.34-.01h-.34c-.11 0-.19 0-.24-.01h-.5c-.24 0-.46 0-.68.03h-.31s-.12.01-.12.01v-.62h.04c.1 0 .2-.02.3-.07s.15-.1.15-.16c0-.02-.18-.28-.54-.77l-.56-.75s-.15.2-.42.57-.43.57-.46.61c-.04.05-.05.11-.05.19 0 .1.03.19.1.26s.14.11.24.12c.02 0 .03.1.03.31v.31h-.1z"/></g><path id="j" d="m79.58 13.32c0 .12-.03.2-.08.26h-.24c-1.17 0-1.98-.3-2.44-.9-.05-.06-.08-.12-.11-.16s-.05-.1-.07-.15-.04-.11-.05-.18-.03-.13-.03-.2 0-.17-.01-.3-.01-.25-.01-.37v-1.86c0-.81-.03-1.26-.07-1.36 0 0-.01-.02-.01-.03-.13-.33-.35-.58-.68-.76s-.65-.27-.96-.27c-.1 0-.16-.01-.19-.04s-.04-.1-.04-.22.01-.19.04-.22.09-.04.19-.04c.31 0 .62-.09.95-.27s.56-.43.69-.76c.05-.1.07-.24.07-.43s0-.88.01-2.06v-.68c0-.5.03-.85.08-1.05s.19-.39.39-.57c.24-.24.6-.43 1.09-.57.33-.07.57-.11.72-.12h.18c.1 0 .18 0 .24-.01h.27c.05.05.08.14.08.24 0 .12-.01.19-.04.22-.02.03-.09.04-.22.04-.48.03-.86.14-1.13.33s-.43.38-.49.57c-.05.12-.07.79-.07 2.01v1.11c0 .43-.01.71-.04.87s-.1.33-.23.53c-.28.39-.67.66-1.18.8l-.19.07.19.07c.16.05.33.12.49.2s.35.24.57.46.34.49.38.8c0 .05.01.67.01 1.85s.02 1.89.07 2.01c.09.24.29.45.58.61s.64.26 1.03.29c.13 0 .2.01.22.04.03.03.04.1.04.2z"/><path id="k" d="m82.12 1.4c0-.09.02-.19.05-.31s.09-.18.16-.18c0 0 .33-.02.98-.07.64-.05.97-.07.99-.08.11 0 .16.04.16.11 0 .06-.23 1.01-.68 2.84-.45 1.79-.68 2.72-.68 2.78.17-.09.3-.18.39-.26.22-.16.53-.45.94-.86s.72-.68.95-.83c.36-.24.71-.37 1.03-.37.27 0 .48.09.64.26s.24.42.24.73c0 .23-.03.42-.1.57s-.15.27-.26.34-.2.12-.29.15-.16.04-.24.04c-.18 0-.33-.05-.43-.15s-.16-.23-.16-.39c0-.23.07-.41.22-.56s.29-.24.43-.29l.22-.04c-.11-.11-.22-.16-.33-.16h-.05c-.29.03-.57.14-.86.34s-.61.49-.99.87-.68.66-.9.83c.02 0 .09.02.2.04s.23.05.33.08.22.07.35.11.26.1.37.19.21.17.3.24.17.19.23.35.09.31.08.45c0 .15-.02.34-.07.56s-.07.4-.08.54c0 .36.12.54.37.54.43 0 .79-.54 1.06-1.62.02-.07.11-.11.27-.11h.05c.14 0 .22.04.22.12 0 .05-.01.11-.04.19-.37 1.28-.9 1.91-1.6 1.91-.41 0-.74-.12-.99-.35-.25-.24-.38-.57-.38-1.02 0-.16.01-.3.04-.42s.04-.23.04-.33c0-.2-.06-.37-.19-.52s-.29-.25-.48-.31-.34-.11-.46-.15-.2-.05-.24-.04h-.03c-.11.38-.2.75-.29 1.1s-.14.62-.19.79-.09.34-.12.5-.07.27-.1.33-.06.11-.1.18c-.04.06-.09.1-.15.12-.12.08-.24.12-.38.12-.15 0-.27-.05-.35-.14s-.12-.17-.12-.23c0-.09.17-.81.5-2.17s.67-2.69.99-4l.5-1.97c0-.12-.02-.19-.1-.22s-.25-.05-.53-.07h-.24s-.06-.01-.1-.04-.05-.06-.04-.1z"/><path id="l" d="m92.46 6.79c0-1.1.37-2.01 1.11-2.71.74-.71 1.62-1.11 2.63-1.21h.23c.14 0 .33 0 .57-.01s.46 0 .68 0h1.34c.14.07.2.16.2.27 0 .08-.06.17-.18.26h-1.41c-1 .02-1.62.05-1.86.1-.44.11-.84.27-1.18.49s-.61.44-.8.67-.35.48-.49.75-.22.49-.24.65-.05.32-.07.46v.03h6.03c.14.07.2.16.2.27s-.07.2-.2.27h-6.03v.03c0 .19.05.42.14.69s.24.57.45.88c.21.32.5.61.87.87s.81.45 1.32.56c.24.05.87.09 1.87.1h1.41c.12.09.18.18.18.27 0 .11-.07.2-.2.27h-1.66c-.16 0-.29 0-.39.01-1.4 0-2.51-.39-3.33-1.17-.8-.74-1.19-1.67-1.19-2.78z"/><path id="m" d="m104.68 10.19c-.09-.09-.14-.15-.14-.18 0-.1.14-.39.42-.88s1-1.67 2.16-3.53l2.59-4.22h-.62c-.93 0-1.63.09-2.09.27-.38.14-.69.33-.92.54-.24.22-.38.41-.45.58s-.12.33-.16.49c-.05.15-.09.24-.12.26-.03 0-.06.01-.11.01-.07 0-.16-.06-.26-.19l.12-1.15c.02-.17.04-.35.07-.54s.05-.34.05-.46.02-.18.03-.18c.03-.02.06-.05.1-.08.02-.02 1.16-.03 3.43-.03h3.41c.11.09.16.17.16.23 0 .04-.87 1.48-2.61 4.32l-2.59 4.22s.36.03 1.09.03c.95 0 1.61-.06 1.97-.18.52-.18.96-.47 1.32-.86.35-.39.6-.85.73-1.37.05-.24.14-.37.27-.37.06 0 .12.02.16.07s.07.1.08.15c0 .07-.06.57-.19 1.49s-.2 1.4-.23 1.43l-.1.1s-1.29.03-3.8.03h-3.77zm1.48-8.66.24-.15h-.73v.22s-.02.07-.03.14-.02.11-.03.14c0 .04 0 .05.03.05s.05-.02.08-.05.1-.09.18-.15.17-.13.26-.19zm5.48-.12s-.22-.03-.65-.03c-.47 0-.71.02-.73.07-.02.04-.85 1.39-2.5 4.07s-2.5 4.06-2.57 4.15c0 .02.23.03.69.03h.69l2.54-4.13 2.52-4.17zm.27 8.3c.08-.49.12-.77.12-.84l-.27.27c-.17.16-.33.29-.48.39l-.24.15.42.03h.45z"/><path id="n" d="M118.86,13.56h-.03c-.11,0-.19-.06-.24-.19V.18c.1-.12.19-.18.27-.18.12,0,.21.07.27.2v13.17c-.07.13-.15.19-.24.19h-.03Z"/><path id="o" d="m126.16 1.4c0-.09.02-.19.05-.31s.09-.18.16-.18c0 0 .33-.02.98-.07.64-.05.97-.07.99-.08.11 0 .16.04.16.11 0 .06-.23 1.01-.68 2.84-.45 1.79-.68 2.72-.68 2.78.17-.09.3-.18.39-.26.22-.16.53-.45.94-.86s.72-.68.95-.83c.36-.24.71-.37 1.03-.37.27 0 .48.09.64.26s.24.42.24.73c0 .23-.03.42-.1.57s-.15.27-.26.34-.2.12-.29.15-.16.04-.24.04c-.18 0-.33-.05-.43-.15s-.16-.23-.16-.39c0-.23.07-.41.22-.56s.29-.24.43-.29l.22-.04c-.11-.11-.22-.16-.33-.16h-.05c-.29.03-.57.14-.86.34s-.61.49-.99.87-.68.66-.9.83c.02 0 .09.02.2.04s.23.05.33.08.22.07.35.11.26.1.37.19.21.17.3.24.17.19.23.35.09.31.08.45c0 .15-.02.34-.07.56s-.07.4-.08.54c0 .36.12.54.37.54.43 0 .79-.54 1.06-1.62.02-.07.11-.11.27-.11h.05c.14 0 .22.04.22.12 0 .05-.01.11-.04.19-.37 1.28-.9 1.91-1.6 1.91-.41 0-.74-.12-.99-.35-.25-.24-.38-.57-.38-1.02 0-.16.01-.3.04-.42s.04-.23.04-.33c0-.2-.06-.37-.19-.52s-.29-.25-.48-.31-.34-.11-.46-.15-.2-.05-.24-.04h-.03c-.11.38-.2.75-.29 1.1s-.14.62-.19.79-.09.34-.12.5-.07.27-.1.33-.06.11-.1.18c-.04.06-.09.1-.15.12-.12.08-.24.12-.38.12-.15 0-.27-.05-.35-.14s-.12-.17-.12-.23c0-.09.17-.81.5-2.17s.67-2.69.99-4l.5-1.97c0-.12-.02-.19-.1-.22s-.25-.05-.53-.07h-.24s-.06-.01-.1-.04-.05-.06-.04-.1z"/><path id="p" d="m144.51 1.55c.07 0 .14.03.19.08s.08.12.08.2-.03.14-.1.19c0 0-1.23.59-3.67 1.75l-3.61 1.71 3.37 1.6c2.61 1.23 3.93 1.87 3.96 1.91.03.05.04.1.04.15 0 .16-.08.25-.24.27h-.08l-3.91-1.85c-2.62-1.24-3.95-1.87-3.96-1.89-.06-.05-.1-.12-.1-.23 0-.1.07-.18.18-.23.07-.04 1.37-.65 3.88-1.83 2.52-1.19 3.8-1.79 3.84-1.82.04-.02.08-.03.12-.03zm-8.01 10.23c0-.09.07-.18.2-.27h7.86c.14.05.22.14.22.27 0 .11-.07.2-.2.27h-7.89c-.13-.06-.19-.15-.19-.27z"/><path id="q" d="m150.4 6.26c.06-.38.31-.82.73-1.32.43-.5.95-.75 1.57-.76.32 0 .61.08.87.24s.46.37.58.61c.38-.57.84-.86 1.37-.86.33 0 .62.1.87.3s.37.47.38.8c0 .26-.06.48-.19.64s-.25.26-.37.3-.22.05-.31.05c-.17 0-.31-.05-.42-.15s-.16-.23-.16-.39c0-.42.23-.7.68-.86-.1-.12-.28-.18-.54-.18-.12 0-.2 0-.26.03-.34.14-.6.44-.76.9-.54 2-.81 3.17-.81 3.5 0 .25.07.43.22.54s.3.16.48.16c.33 0 .67-.15.99-.45s.55-.67.67-1.1c.03-.09.05-.14.08-.15s.1-.02.22-.03h.05c.14 0 .2.04.2.11 0 0 0 .06-.03.15-.14.52-.43.97-.84 1.37-.42.4-.9.6-1.45.6-.63 0-1.11-.29-1.44-.86-.37.56-.8.84-1.28.84h-.08c-.44 0-.76-.12-.95-.35-.19-.24-.29-.48-.3-.75 0-.29.09-.52.26-.71.17-.18.38-.27.61-.27.39 0 .58.19.58.57 0 .18-.05.34-.16.48s-.21.23-.31.27-.16.07-.18.07h-.04s.03.04.08.07.13.06.22.1.18.05.26.04c.33 0 .61-.2.84-.61.08-.14.19-.45.31-.92.13-.47.25-.96.38-1.47s.2-.81.22-.9c.05-.24.07-.42.07-.53 0-.25-.07-.43-.2-.54s-.29-.16-.46-.16c-.36 0-.7.14-1.02.43s-.54.66-.67 1.11c-.02.08-.04.13-.07.14s-.1.02-.22.03h-.19c-.05-.05-.08-.1-.08-.15z"/><path id="r" d="m158.34.26c0-.13.01-.2.04-.22s.12-.03.27-.04c.75 0 1.33.11 1.74.34s.69.48.86.75c.08.19.13.35.14.48s.02.73.03 1.82c0 1.26.02 1.91.03 1.95.12.41.35.71.71.9s.68.29.98.3c.1 0 .16.01.19.04s.04.1.04.22-.01.19-.04.22-.09.04-.19.04c-.33 0-.66.1-.98.29s-.53.43-.64.72c-.05.13-.07.29-.08.49 0 .2-.01.87-.01 2.02v.69c0 .5-.03.85-.08 1.05s-.19.39-.39.57c-.49.47-1.24.71-2.27.71-.16 0-.26-.01-.29-.04s-.04-.1-.04-.23v-.1s0-.03.01-.07.02-.05.04-.05.05 0 .11-.01c.13 0 .27-.01.42-.04s.33-.07.52-.14.36-.17.5-.31.25-.32.33-.52c0-.05.02-.69.03-1.93v-1.85c.13-.52.45-.93.96-1.24.32-.15.54-.24.68-.27-.23-.06-.45-.15-.68-.27-.5-.31-.81-.68-.92-1.11l-.03-.14v-1.85c-.02-1.24-.03-1.88-.04-1.93-.11-.36-.35-.62-.72-.76s-.72-.22-1.05-.23c-.08 0-.13-.01-.14-.04s-.02-.1-.03-.2z"/></g><g><path id="s" d="m178.52 6.26c.06-.38.31-.82.73-1.32.43-.5.95-.75 1.57-.76.32 0 .61.08.87.24s.46.37.58.61c.38-.57.84-.86 1.37-.86.33 0 .62.1.87.3s.37.47.38.8c0 .26-.06.48-.19.64s-.25.26-.37.3-.22.05-.31.05c-.17 0-.31-.05-.42-.15s-.16-.23-.16-.39c0-.42.23-.7.68-.86-.1-.12-.28-.18-.54-.18-.12 0-.2 0-.26.03-.34.14-.6.44-.76.9-.54 2-.81 3.17-.81 3.5 0 .25.07.43.22.54s.3.16.48.16c.33 0 .67-.15.99-.45s.55-.67.67-1.1c.03-.09.05-.14.08-.15s.1-.02.22-.03h.05c.14 0 .2.04.2.11 0 0 0 .06-.03.15-.14.52-.43.97-.84 1.37-.42.4-.9.6-1.45.6-.63 0-1.11-.29-1.44-.86-.37.56-.8.84-1.28.84h-.08c-.44 0-.76-.12-.95-.35-.19-.24-.29-.48-.3-.75 0-.29.09-.52.26-.71.17-.18.38-.27.61-.27.39 0 .58.19.58.57 0 .18-.05.34-.16.48s-.21.23-.31.27-.16.07-.18.07h-.04s.03.04.08.07.13.06.22.1.18.05.26.04c.33 0 .61-.2.84-.61.08-.14.19-.45.31-.92.13-.47.25-.96.38-1.47s.2-.81.22-.9c.05-.24.07-.42.07-.53 0-.25-.07-.43-.2-.54s-.29-.16-.46-.16c-.36 0-.7.14-1.02.43s-.54.66-.67 1.11c-.02.08-.04.13-.07.14s-.1.02-.22.03h-.19c-.05-.05-.08-.1-.08-.15z"/><path id="t" d="m190.49 6.79c0-1.1.37-2.01 1.11-2.71.74-.71 1.62-1.11 2.63-1.21h.23c.14 0 .33 0 .57-.01s.46 0 .68 0h1.34c.14.07.2.16.2.27 0 .08-.06.17-.18.26h-1.41c-1 .02-1.62.05-1.86.1-.44.11-.84.27-1.18.49s-.61.44-.8.67-.35.48-.49.75-.22.49-.24.65-.05.32-.07.46v.03h6.03c.14.07.2.16.2.27s-.07.2-.2.27h-6.03v.03c0 .19.05.42.14.69s.24.57.45.88c.21.32.5.61.87.87s.81.45 1.32.56c.24.05.87.09 1.87.1h1.41c.12.09.18.18.18.27 0 .11-.07.2-.2.27h-1.66c-.16 0-.29 0-.39.01-1.4 0-2.51-.39-3.33-1.17-.8-.74-1.19-1.67-1.19-2.78z"/><path id="u" d="m202.41 1.15c0-.06.05-.14.15-.24h2.62c1.76.02 2.74.05 2.96.08.2.04.39.08.57.14s.34.11.48.18.26.13.38.2.22.14.3.22.16.14.24.22.14.14.18.2.08.13.14.19.09.12.1.18.03.1.05.15l.04.08c.05.16.07.39.07.69 0 .45-.06.81-.18 1.06-.32.64-.95 1.06-1.9 1.26l-.24.07c.06.1.14.23.24.39s.3.46.6.9.57.82.83 1.15c.25.33.52.65.8.94s.5.46.67.5c.17.05.26.13.26.26 0 .08-.05.16-.16.23h-2.48c-.06-.06-.54-.79-1.44-2.17l-1.33-2.05h-.52v1.72c.02 1.05.03 1.61.04 1.68.03.15.12.25.27.29.04 0 .16.02.38.04.23 0 .38.03.46.1.08.1.08.21 0 .34l-.1.05h-4.32c-.11-.05-.16-.13-.16-.23 0-.17.18-.26.53-.26.37-.03.58-.1.62-.23.05-.07.07-1.38.07-3.92s-.02-3.86-.07-3.95c-.05-.12-.26-.19-.62-.22-.34 0-.52-.08-.52-.23zm3.04 8.56c-.03-.06-.05-.11-.05-.14s-.02-.18-.03-.45-.02-.66-.03-1.15v-2.36-3.86l.05-.19.1-.18h-1.51c.03.06.05.11.05.14s.02.19.03.48.02.68.03 1.17 0 1.29 0 2.39c0 1.9 0 3.04-.01 3.42s-.04.62-.08.71c0 0-.01.02-.01.03h1.47zm2.93-6.26c0-.4-.04-.73-.11-1s-.18-.48-.33-.61-.26-.22-.34-.26-.19-.08-.31-.12c-.03 0-.2-.02-.52-.07-.35 0-.62.06-.79.18-.09.06-.14.18-.15.34s-.02.75-.03 1.75v1.83h.22c.39 0 .8-.03 1.24-.08.42-.11.71-.29.87-.54s.24-.72.24-1.41zm.48-.56v.56c0 .37-.02.68-.05.94s-.08.43-.14.52-.1.17-.12.24-.05.12-.07.14c0 0 0 .01.01.01.04 0 .18-.05.43-.14.87-.27 1.3-.84 1.3-1.7s-.52-1.49-1.57-1.83l-.27-.1.05.15c.12.14.24.43.37.88.04.22.05.51.05.88v-.56zm-.38 3.99c-.48-.67-.72-1-.73-1-.05 0-.1 0-.12.03-.15 0-.29.01-.42.04h-.33l2.44 3.76h1.26l-.18-.2c-.48-.53-1.12-1.41-1.93-2.62z"/></g></g><g><g><g><path id="v" d="m50.79 30.08s0-.02.01-.04.02-.03.03-.04.02-.03.04-.05.04-.04.05-.04.04 0 .07-.03.06-.02.1-.01c.09.02.17.09.24.2v12.83h2.16c.25 0 .43.01.52.04s.14.1.15.23-.04.2-.15.23-.3.05-.57.05h-.42c-.22 0-.4 0-.54-.01h-1.47c-.11-.04-.18-.11-.22-.22v-13.14z"/><g><path id="w" d="m54.95 39.42h.19c.35 0 .57-.06.64-.19v-.42c0-.13 0-.27.01-.42v-.53s0-.39 0-.57v-2.01c-.04-.17-.1-.29-.2-.34s-.3-.1-.61-.12h-.24v-.31c0-.21 0-.31.03-.31h.14c.09-.02.22-.03.38-.04s.33-.02.49-.03c.14 0 .3-.02.48-.03.17 0 .3-.02.39-.04s.14-.02.15-.01h.04v.94c.35-.62.79-.92 1.32-.92h.08c.41 0 .71.1.9.3s.29.41.29.62c0 .19-.06.35-.18.49s-.29.2-.52.2-.39-.07-.5-.22-.17-.3-.18-.46c0-.08 0-.15.03-.22s.04-.12.07-.16.04-.07.04-.07c-.02-.02-.12 0-.31.05-.14.07-.25.14-.33.2-.43.41-.64 1.22-.64 2.43v1.44c0 .11 0 .2.01.27s0 .14 0 .2v.07s.02.04.04.05.04.03.07.04.05.02.07.04.05.03.1.03.08 0 .1.01.06.01.12.01h.12s.06 0 .14.01.12 0 .14 0h.42v.62h-.12c-.16-.03-.74-.04-1.72-.04-.93 0-1.44.01-1.52.04h-.11v-.62h.22z"/><path id="x" d="m60.16 37.09c0-.5.09-.95.27-1.36s.41-.74.68-.99.57-.44.88-.57.62-.19.9-.2c.48 0 .89.08 1.24.24s.61.39.79.68.31.58.38.87.11.61.12.96c0 .06-.03.13-.1.19h-3.83v.2c0 1.34.45 2.15 1.36 2.44.18.05.38.08.6.08.38 0 .71-.14.98-.43.15-.15.28-.34.37-.57l.14-.33s.1-.04.22-.04h.04c.15 0 .23.05.23.14 0 .04-.01.1-.04.18-.17.5-.46.89-.86 1.18s-.85.43-1.34.43c-.86 0-1.57-.31-2.14-.94s-.86-1.35-.87-2.17zm4.14-.78c-.1-1.16-.53-1.77-1.29-1.85h-.03c-.07 0-.14 0-.22.01s-.19.05-.34.11-.29.16-.39.29-.21.31-.31.56-.17.54-.22.9v.1h2.8v-.11z"/></g><path id="y" d="m69.91 36.12c.06-.38.31-.82.73-1.32.43-.5.95-.75 1.57-.76.32 0 .61.08.87.24s.46.37.58.61c.38-.57.84-.86 1.37-.86.33 0 .62.1.87.3s.37.47.38.8c0 .26-.06.48-.19.64s-.25.26-.37.3-.22.05-.31.05c-.17 0-.31-.05-.42-.15s-.16-.23-.16-.39c0-.42.23-.7.68-.86-.1-.12-.28-.18-.54-.18-.12 0-.2 0-.26.03-.34.14-.6.44-.76.9-.54 2-.81 3.17-.81 3.5 0 .25.07.43.22.54s.3.16.48.16c.33 0 .67-.15.99-.45s.55-.67.67-1.1c.03-.09.05-.14.08-.15s.1-.02.22-.03h.05c.14 0 .2.04.2.11 0 0 0 .06-.03.15-.14.52-.43.97-.84 1.37-.42.4-.9.6-1.45.6-.63 0-1.11-.29-1.44-.86-.37.56-.8.84-1.28.84h-.08c-.44 0-.76-.12-.95-.35-.19-.24-.29-.48-.3-.75 0-.29.09-.52.26-.71.17-.18.38-.27.61-.27.39 0 .58.19.58.57 0 .18-.05.34-.16.48s-.21.23-.31.27-.16.07-.18.07h-.04s.03.04.08.07.13.06.22.1.18.05.26.04c.33 0 .61-.2.84-.61.08-.14.19-.45.31-.92.13-.47.25-.96.38-1.47s.2-.81.22-.9c.05-.24.07-.42.07-.53 0-.25-.07-.43-.2-.54s-.29-.16-.46-.16c-.36 0-.7.14-1.02.43s-.54.66-.67 1.11c-.02.08-.04.13-.07.14s-.1.02-.22.03h-.19c-.05-.05-.08-.1-.08-.15z"/><path id="z" d="m80.07 30.08s0-.02.01-.04.02-.03.03-.04.02-.03.04-.05.04-.04.05-.04.04 0 .07-.03.06-.02.1-.01c.1.02.18.09.24.2v13.17s-.09.11-.18.19h-1.48s-.95.01-.95.01c-.31 0-.51-.01-.61-.04s-.15-.1-.15-.23.05-.2.15-.23.28-.05.54-.05h.37c.18 0 .33 0 .46.01h1.3v-12.81z"/></g><path id="aa" d="m86.77 36.83v-.18c0-.12.06-.21.19-.27h4.06v-4.07c.1-.12.19-.18.27-.18.12 0 .21.07.27.2v4.05h4.05c.14.07.2.16.2.27s-.07.2-.2.27h-4.05v4.05c-.07.13-.15.19-.24.19h-.05c-.11 0-.19-.06-.24-.19v-4.05h-4.06c-.13-.06-.19-.15-.19-.27v.18z"/><path id="ab" d="m102.08 31.9c0-.22.09-.41.26-.57s.37-.25.6-.26c.16 0 .3.05.41.16s.17.24.18.41c0 .21-.09.4-.27.57s-.38.26-.6.27c-.14 0-.26-.05-.38-.14s-.18-.24-.19-.45zm-2.21 4.25c0-.07.04-.21.12-.42s.19-.44.33-.69.33-.48.6-.69.53-.31.81-.3c.35 0 .65.1.88.31s.36.49.37.84c0 .15-.06.41-.19.76s-.31.83-.54 1.43-.43 1.11-.57 1.53c-.05.2-.07.34-.07.43 0 .23.08.34.23.34.08 0 .17-.01.26-.04s.19-.09.31-.19.24-.26.37-.48.24-.48.34-.8c.03-.11.05-.17.07-.19s.1-.03.23-.03c.18 0 .27.05.27.14 0 .07-.04.21-.12.42s-.19.44-.34.69c-.14.25-.35.48-.61.68s-.54.3-.84.3-.56-.1-.8-.29-.37-.48-.38-.87c0-.15.02-.3.07-.43s.24-.65.58-1.55c.34-.91.54-1.46.6-1.64s.09-.36.1-.53c0-.22-.08-.33-.23-.33h-.03c-.27 0-.52.15-.75.45s-.4.68-.52 1.14c0 0-.02.02-.03.04s-.01.03-.01.04 0 .02-.03.03-.03.01-.04.01h-.35c-.05-.05-.08-.1-.08-.12z"/><g><path id="ac" d="m106.63 30.08s0-.02.01-.04.02-.03.03-.04.02-.03.04-.05.04-.04.05-.04.04 0 .07-.03.06-.02.1-.01c.09.02.17.09.24.2v12.83h2.16c.25 0 .43.01.52.04s.14.1.15.23-.04.2-.15.23-.3.05-.57.05h-.42c-.22 0-.4 0-.54-.01h-1.47c-.11-.04-.18-.11-.22-.22v-13.14z"/><g><path id="ad" d="m111.23 31.78c0-.25.08-.45.24-.6s.36-.22.6-.22c.21.02.39.1.54.23s.23.33.23.58c0 .27-.08.48-.23.61s-.34.2-.57.2-.42-.07-.57-.2-.24-.34-.24-.61zm2.42 8.26c-.14-.03-.61-.04-1.41-.04h-.5c-.24 0-.46 0-.68.03h-.3s-.11.01-.11.01v-.62h.22c.25 0 .48-.01.67-.04.08-.04.13-.09.15-.15s.03-.25.03-.57v-2.59c0-.47 0-.77-.03-.9s-.08-.21-.19-.26c-.13-.06-.34-.1-.64-.1h-.15v-.31c0-.21 0-.31.03-.31h.14c.09-.02.22-.03.38-.04s.33-.02.49-.03c.15 0 .32-.02.49-.03s.3-.02.39-.04.14-.02.15-.01h.04v5.16c.05.09.1.14.16.16s.22.04.48.05h.31v.62h-.11z"/><path id="ae" d="m114.63 39.42h.19c.35 0 .57-.06.64-.19v-.84c0-.15 0-.33.01-.53s0-.39 0-.57v-.9c0-.32 0-.58-.01-.8v-.31c-.03-.17-.09-.29-.19-.34s-.3-.1-.61-.12h-.24v-.31c0-.21 0-.31.03-.31h.14c.09-.02.22-.03.38-.04s.33-.02.5-.03c.15 0 .32-.02.49-.03.17 0 .3-.02.39-.04s.14-.02.15-.01h.04v.54c0 .34 0 .52.01.52s.03-.02.07-.07.09-.11.16-.2.16-.17.26-.24.23-.16.39-.26.33-.17.52-.22.41-.07.69-.07c.14 0 .26 0 .38.03s.22.05.31.08.18.07.26.11.15.08.2.12.1.1.15.15.09.1.12.15.07.1.1.15.05.1.05.14.02.07.04.11l.03.07.04-.05s.05-.07.08-.11.07-.09.12-.15.11-.12.18-.18.13-.11.2-.18.16-.12.27-.16.21-.09.31-.14.22-.08.35-.1.28-.03.42-.04c1.14 0 1.76.51 1.86 1.53 0 .06.01.69.01 1.89v1.17c0 .34 0 .55.03.61s.07.11.15.14c.19.03.41.04.67.04h.22v.62h-.42c-.22-.02-.45-.03-.69-.03s-.42 0-.52-.01c-.93 0-1.44.01-1.52.04h-.11v-.62h.22c.55 0 .83-.07.83-.22 0-.02.01-.64.01-1.87 0-1.22-.02-1.87-.03-1.94-.05-.25-.14-.44-.27-.57s-.24-.2-.33-.23-.21-.04-.35-.03c-.41 0-.76.15-1.07.46-.24.24-.4.49-.46.75s-.1.63-.11 1.13v1.68c0 .27 0 .45.01.54 0 .09.02.15.04.18s.06.05.12.08c.19.03.41.04.67.04h.22v.62h-.43c-.21-.02-.43-.03-.68-.03s-.42 0-.52-.01c-.93 0-1.44.01-1.52.04h-.11v-.62h.22c.55 0 .83-.07.83-.22 0-.02.01-.64.01-1.87 0-1.22-.02-1.87-.03-1.94-.05-.25-.14-.44-.27-.57s-.24-.2-.33-.23-.21-.04-.35-.03c-.41 0-.76.15-1.07.46-.24.24-.4.49-.46.75s-.1.63-.11 1.13v1.68c0 .27 0 .45.01.54 0 .09.02.15.04.18s.06.05.12.08c.19.03.41.04.67.04h.22v.62h-.42c-.22-.02-.45-.03-.69-.03s-.42 0-.52-.01c-.93 0-1.44.01-1.52.04h-.11v-.62h.22z"/></g><path id="af" d="m129.48 36.12c.06-.38.31-.82.73-1.32.43-.5.95-.75 1.57-.76.32 0 .61.08.87.24s.46.37.58.61c.38-.57.84-.86 1.37-.86.33 0 .62.1.87.3s.37.47.38.8c0 .26-.06.48-.19.64s-.25.26-.37.3-.22.05-.31.05c-.17 0-.31-.05-.42-.15s-.16-.23-.16-.39c0-.42.23-.7.68-.86-.1-.12-.28-.18-.54-.18-.12 0-.2 0-.26.03-.34.14-.6.44-.76.9-.54 2-.81 3.17-.81 3.5 0 .25.07.43.22.54s.3.16.48.16c.33 0 .67-.15.99-.45s.55-.67.67-1.1c.03-.09.05-.14.08-.15s.1-.02.22-.03h.05c.14 0 .2.04.2.11 0 0 0 .06-.03.15-.14.52-.43.97-.84 1.37-.42.4-.9.6-1.45.6-.63 0-1.11-.29-1.44-.86-.37.56-.8.84-1.28.84h-.08c-.44 0-.76-.12-.95-.35-.19-.24-.29-.48-.3-.75 0-.29.09-.52.26-.71.17-.18.38-.27.61-.27.39 0 .58.19.58.57 0 .18-.05.34-.16.48s-.21.23-.31.27-.16.07-.18.07h-.04s.03.04.08.07.13.06.22.1.18.05.26.04c.33 0 .61-.2.84-.61.08-.14.19-.45.31-.92.13-.47.25-.96.38-1.47s.2-.81.22-.9c.05-.24.07-.42.07-.53 0-.25-.07-.43-.2-.54s-.29-.16-.46-.16c-.36 0-.7.14-1.02.43s-.54.66-.67 1.11c-.02.08-.04.13-.07.14s-.1.02-.22.03h-.19c-.05-.05-.08-.1-.08-.15z"/><path id="ag" d="m139.64 30.08s0-.02.01-.04.02-.03.03-.04.02-.03.04-.05.04-.04.05-.04.04 0 .07-.03.06-.02.1-.01c.1.02.18.09.24.2v13.17s-.09.11-.18.19h-1.48s-.95.01-.95.01c-.31 0-.51-.01-.61-.04s-.15-.1-.15-.23.05-.2.15-.23.28-.05.54-.05h.37c.18 0 .33 0 .46.01h1.3v-12.81z"/></g></g><g><path id="ah" d="m178.52 36.12c.06-.38.31-.82.73-1.32.43-.5.95-.75 1.57-.76.32 0 .61.08.87.24s.46.37.58.61c.38-.57.84-.86 1.37-.86.33 0 .62.1.87.3s.37.47.38.8c0 .26-.06.48-.19.64s-.25.26-.37.3-.22.05-.31.05c-.17 0-.31-.05-.42-.15s-.16-.23-.16-.39c0-.42.23-.7.68-.86-.1-.12-.28-.18-.54-.18-.12 0-.2 0-.26.03-.34.14-.6.44-.76.9-.54 2-.81 3.17-.81 3.5 0 .25.07.43.22.54s.3.16.48.16c.33 0 .67-.15.99-.45s.55-.67.67-1.1c.03-.09.05-.14.08-.15s.1-.02.22-.03h.05c.14 0 .2.04.2.11 0 0 0 .06-.03.15-.14.52-.43.97-.84 1.37-.42.4-.9.6-1.45.6-.63 0-1.11-.29-1.44-.86-.37.56-.8.84-1.28.84h-.08c-.44 0-.76-.12-.95-.35-.19-.24-.29-.48-.3-.75 0-.29.09-.52.26-.71.17-.18.38-.27.61-.27.39 0 .58.19.58.57 0 .18-.05.34-.16.48s-.21.23-.31.27-.16.07-.18.07h-.04s.03.04.08.07.13.06.22.1.18.05.26.04c.33 0 .61-.2.84-.61.08-.14.19-.45.31-.92.13-.47.25-.96.38-1.47s.2-.81.22-.9c.05-.24.07-.42.07-.53 0-.25-.07-.43-.2-.54s-.29-.16-.46-.16c-.36 0-.7.14-1.02.43s-.54.66-.67 1.11c-.02.08-.04.13-.07.14s-.1.02-.22.03h-.19c-.05-.05-.08-.1-.08-.15z"/><path id="ai" d="m190.49 36.65c0-1.1.37-2.01 1.11-2.71.74-.71 1.62-1.11 2.63-1.21h.23c.14 0 .33 0 .57-.01s.46 0 .68 0h1.34c.14.07.2.16.2.27 0 .08-.06.17-.18.26h-1.41c-1 .02-1.62.05-1.86.1-.44.11-.84.27-1.18.49s-.61.44-.8.67-.35.48-.49.75-.22.49-.24.65-.05.32-.07.46v.03h6.03c.14.07.2.16.2.27s-.07.2-.2.27h-6.03v.03c0 .19.05.42.14.69s.24.57.45.88c.21.32.5.61.87.87s.81.45 1.32.56c.24.05.87.09 1.87.1h1.41c.12.09.18.18.18.27 0 .11-.07.2-.2.27h-1.66c-.16 0-.29 0-.39.01-1.4 0-2.51-.39-3.33-1.17-.8-.74-1.19-1.67-1.19-2.78z"/><path id="aj" d="m211.46 38.27c0 .05-.05.15-.16.3s-.29.32-.53.52-.52.39-.81.57c-.3.18-.68.33-1.14.46s-.93.19-1.4.19c-.51 0-1-.07-1.49-.22-.49-.14-.95-.37-1.38-.67s-.81-.7-1.13-1.19c-.32-.5-.53-1.07-.64-1.72-.05-.2-.07-.56-.07-1.09s.02-.89.07-1.09c.2-1.06.65-1.92 1.34-2.58.7-.66 1.59-1.06 2.69-1.19.03 0 .13 0 .31-.01s.32-.01.42-.01c.49.03.98.14 1.47.33s.86.29 1.11.3c.16 0 .28-.03.35-.1s.11-.14.12-.22.03-.15.07-.22.1-.1.19-.11c.1 0 .18.05.24.16v2.84l-.05.1c-.12.06-.23.07-.34.03-.04-.04-.08-.14-.14-.33s-.16-.38-.31-.61c-.3-.42-.7-.8-1.19-1.14-.5-.34-1.03-.52-1.59-.52h-.12c-.4 0-.77.17-1.11.52-.79.71-1.18 2.01-1.18 3.92 0 .79.1 1.5.29 2.13.37 1.35 1.15 2.02 2.33 2.02s2.23-.45 3.2-1.36c.15-.15.27-.23.34-.23.05 0 .1.02.15.05s.09.09.1.16zm-5.89-6.71c.13-.16.18-.24.15-.24-.21.07-.42.18-.64.31s-.46.32-.72.56-.49.55-.69.94-.34.82-.42 1.3c-.05.27-.07.6-.07.99s.02.72.07.99c.09.5.24.95.46 1.34s.45.71.69.92.48.4.72.54.43.24.58.3l.23.07c-.06-.06-.12-.13-.18-.19-.59-.57-.96-1.5-1.13-2.8-.03-.24-.04-.65-.04-1.22s.01-.98.04-1.22c.17-1.13.48-2 .94-2.59zm5.04.82v-.81s-.07.03-.11.03c-.09.04-.19.05-.31.05h-.2l.18.19c.18.2.28.32.3.35l.15.19z"/><path id="ak" d="m215.76 30.12c0-.08.03-.14.08-.19s.11-.07.18-.07c.09 0 .17.05.23.14.04.06.84 2.26 2.42 6.58 1.57 4.33 2.36 6.52 2.36 6.6s-.03.13-.08.18-.12.07-.19.08c-.09 0-.17-.05-.23-.14-.03-.04-.83-2.22-2.4-6.54-1.57-4.33-2.36-6.54-2.36-6.64z"/><path id="al" d="m225.03 31.02c0-.06.05-.14.15-.24h2.62c1.76.02 2.74.05 2.96.08.2.04.39.08.57.14s.34.11.48.18.26.13.38.2.22.14.3.22.16.14.24.22.14.14.18.2.08.13.14.19.09.12.1.18.03.1.05.15l.04.08c.05.16.07.39.07.69 0 .45-.06.81-.18 1.06-.32.64-.95 1.06-1.9 1.26l-.24.07c.06.1.14.23.24.39s.3.46.6.9.57.82.83 1.15c.25.33.52.65.8.94s.5.46.67.5c.17.05.26.13.26.26 0 .08-.05.16-.16.23h-2.48c-.06-.06-.54-.79-1.44-2.17l-1.33-2.05h-.52v1.72c.02 1.05.03 1.61.04 1.68.03.15.12.25.27.29.04 0 .16.02.38.04.23 0 .38.03.46.1.08.1.08.21 0 .34l-.1.05h-4.32c-.11-.05-.16-.13-.16-.23 0-.17.18-.26.53-.26.37-.03.58-.1.62-.23.05-.07.07-1.38.07-3.92s-.02-3.86-.07-3.95c-.05-.12-.26-.19-.62-.22-.34 0-.52-.08-.52-.23zm3.04 8.55c-.03-.06-.05-.11-.05-.14s-.02-.18-.03-.45-.02-.66-.03-1.15v-2.36-3.86l.05-.19.1-.18h-1.51c.03.06.05.11.05.14s.02.19.03.48.02.68.03 1.17 0 1.29 0 2.39c0 1.9 0 3.04-.01 3.42s-.04.62-.08.71c0 0-.01.02-.01.03h1.47zm2.93-6.26c0-.4-.04-.73-.11-1s-.18-.48-.33-.61-.26-.22-.34-.26-.19-.08-.31-.12c-.03 0-.2-.02-.52-.07-.35 0-.62.06-.79.18-.09.06-.14.18-.15.34s-.02.75-.03 1.75v1.83h.22c.39 0 .8-.03 1.24-.08.42-.11.71-.29.87-.54s.24-.72.24-1.41zm.48-.55v.56c0 .37-.02.68-.05.94s-.08.43-.14.52-.1.17-.12.24-.05.12-.07.14c0 0 0 .01.01.01.04 0 .18-.05.43-.14.87-.27 1.3-.84 1.3-1.7s-.52-1.49-1.57-1.83l-.27-.1.05.15c.12.14.24.43.37.88.04.22.05.51.05.88v-.56zm-.38 3.99c-.48-.67-.72-1-.73-1-.05 0-.1 0-.12.03-.15 0-.29.01-.42.04h-.33l2.44 3.76h1.26l-.18-.2c-.48-.53-1.12-1.41-1.93-2.62z"/></g></g></g></g></g><g><g><g class="cls-2"><path class="cls-1" d="m.02 68.5c1.42.29 2.02.59 2.02 1.12 0 .28-.18.5-.32.5-.1 0-.19-.02-.26-.2-.23-.53-.56-.86-1.45-1.28l.02-.13zm3.93-1.63c-.55 1.76-1.24 4.03-1.67 5.5-.12.4-.16.76-.16 1.12 0 .43.06.88.17 1.39.02.14.04.28.04.4 0 .52-.22.86-.44.86-.19 0-.3-.28-.3-.73 0-.2.13-1.15.13-1.37 0-.64-.19-.84-1.57-1.04l.02-.17c.32.02.58.05.78.05.56 0 .68-.14.84-.59l1.98-5.49.18.07zm-3-1.11c1.73.5 1.97.84 1.97 1.24 0 .29-.16.54-.29.54-.16 0-.24-.11-.35-.35-.17-.38-.52-.76-1.39-1.31l.06-.12zm9.94 9.54c.1.1.16.16.16.19 0 .05-.07.06-.2.06h-7.07c-.25 0-.6.05-.8.13l-.34-.44c.3.02.6.05.88.05h3.33v-3.91h-1.73c-.25 0-.6.05-.8.13l-.34-.44c.3.02.6.05.88.05h1.99v-3.07h-1.89c-.25 0-.6.05-.8.13l-.34-.44c.3.02.6.05.88.05h4.7l.53-.66.67.66c.11.1.16.17.16.2 0 .05-.07.06-.2.06h-3.12v3.07h1.48l.54-.66.7.66c.1.1.16.16.16.2s-.07.06-.2.06h-2.66v3.91h2.25l.52-.64.7.65zm-5.03-10.02c.96.49 1.67 1.08 1.67 1.46 0 .28-.26.6-.44.6-.13 0-.23-.07-.29-.41-.08-.5-.37-1.01-1.01-1.51l.07-.14z"/></g><g class="cls-2"><path class="cls-1" d="m14.57 71.06c-.37 0-.68-.3-.68-.67s.31-.68.68-.68.68.31.68.68-.31.67-.68.67zm0 4.46c-.37 0-.68-.3-.68-.67s.31-.68.68-.68.68.31.68.68-.31.67-.68.67z"/></g></g><g><path id="am" class="cls-1" d="m25.93 65.37s0-.02.01-.04.02-.03.03-.04.02-.03.04-.05.04-.04.05-.04.04 0 .07-.03.06-.02.1-.01c.09.02.17.09.24.2v12.83h2.16c.25 0 .43.01.52.04s.14.1.15.23-.04.2-.15.23-.3.05-.57.05h-.42c-.22 0-.4 0-.54-.01h-1.47c-.11-.04-.18-.11-.22-.22v-13.14z"/><path id="an" class="cls-1" d="m30.3 71.42c.06-.38.31-.82.73-1.32.43-.5.95-.75 1.57-.76.32 0 .61.08.87.24s.46.37.58.61c.38-.57.84-.86 1.37-.86.33 0 .62.1.87.3s.37.47.38.8c0 .26-.06.48-.19.64s-.25.26-.37.3-.22.05-.31.05c-.17 0-.31-.05-.42-.15s-.16-.23-.16-.39c0-.42.23-.7.68-.86-.1-.12-.28-.18-.54-.18-.12 0-.2 0-.26.03-.34.14-.6.44-.76.9-.54 2-.81 3.17-.81 3.5 0 .25.07.43.22.54s.3.16.48.16c.33 0 .67-.15.99-.45s.55-.67.67-1.1c.03-.09.05-.14.08-.15s.1-.02.22-.03h.05c.14 0 .2.04.2.11 0 0 0 .06-.03.15-.14.52-.43.97-.84 1.37-.42.4-.9.6-1.45.6-.63 0-1.11-.29-1.44-.86-.37.56-.8.84-1.28.84h-.08c-.44 0-.76-.12-.95-.35-.19-.24-.29-.48-.3-.75 0-.29.09-.52.26-.71.17-.18.38-.27.61-.27.39 0 .58.19.58.57 0 .18-.05.34-.16.48s-.21.23-.31.27-.16.07-.18.07h-.04s.03.04.08.07.13.06.22.1.18.05.26.04c.33 0 .61-.2.84-.61.08-.14.19-.45.31-.92.13-.47.25-.96.38-1.47s.2-.81.22-.9c.05-.24.07-.42.07-.53 0-.25-.07-.43-.2-.54s-.29-.16-.46-.16c-.36 0-.7.14-1.02.43s-.54.66-.67 1.11c-.02.08-.04.13-.07.14s-.1.02-.22.03h-.19c-.05-.05-.08-.1-.08-.15z"/><path id="ao" class="cls-1" d="m40.47 65.37s0-.02.01-.04.02-.03.03-.04.02-.03.04-.05.04-.04.05-.04.04 0 .07-.03.06-.02.1-.01c.1.02.18.09.24.2v13.17s-.09.11-.18.19h-1.48s-.95.01-.95.01c-.31 0-.51-.01-.61-.04s-.15-.1-.15-.23.05-.2.15-.23.28-.05.54-.05h.37c.18 0 .33 0 .46.01h1.3v-12.81z"/></g><path id="ap" class="cls-1" d="m47.92 70.63c0-.12.06-.21.19-.27h8.65c.14.07.2.16.2.27 0 .1-.06.19-.19.26h-4.32s-4.32.01-4.32.01c-.14-.05-.22-.14-.22-.27zm0 2.63c0-.14.07-.23.22-.27h8.63c.13.09.19.18.19.27 0 .12-.07.21-.2.27h-8.65c-.13-.06-.19-.15-.19-.27z"/><g><path id="aq" class="cls-1" d="m65.2 75.34c-.16-.03-.74-.04-1.72-.04-.93 0-1.44.01-1.52.04h-.11v-.62h.22c.25 0 .48-.01.67-.04.07-.03.13-.08.16-.15 0-.02.01-.76.01-2.23v-2.19h-.96v-.62h.96v-1.81s.04-.14.04-.14c.17-.59.46-1.01.87-1.28s.84-.43 1.29-.49h.12c.07 0 .14 0 .19-.01.37.03.65.14.84.35s.29.44.29.71c0 .21-.06.38-.19.5s-.29.19-.5.19-.38-.06-.5-.19-.19-.29-.19-.5c0-.18.08-.36.24-.54h-.05s-.09-.01-.15-.01c-.25 0-.48.1-.68.29s-.35.44-.46.75c-.05.18-.09.61-.1 1.29v.9h1.51v.62h-1.47v2.17c0 1.47 0 2.21.01 2.23s.02.04.04.05.04.03.07.04.05.02.07.04.05.03.1.03.08 0 .1.01.06.01.12.01h.12s.06 0 .14.01.12 0 .14 0h.42v.62h-.12z"/><path id="ar" class="cls-1" d="m67.11 74.71h.19c.35 0 .57-.06.64-.19v-.87c0-.17 0-.37.01-.58s0-.44 0-.68 0-.48 0-.75v-.77-2.89c0-.24 0-.43-.01-.6s0-.24 0-.23c-.03-.17-.09-.29-.19-.34s-.3-.1-.61-.12h-.24v-.31c0-.21 0-.31.03-.31h.14c.09-.02.22-.03.39-.04.17 0 .34-.02.5-.03.15 0 .32-.02.5-.03.18 0 .32-.02.41-.04s.14-.02.15-.01h.04v4.28c0 2.87 0 4.31.01 4.33.04.07.09.12.16.15.19.03.41.04.67.04h.22v.62h-.42c-.21-.02-.43-.03-.67-.03s-.41 0-.52-.01-.28 0-.52 0-.46.02-.68.03h-.31s-.11.01-.11.01v-.62h.22z"/><path id="as" class="cls-1" d="m70.69 72.43c0-.86.29-1.6.88-2.23.59-.62 1.3-.94 2.13-.95.81 0 1.52.31 2.1.92s.89 1.36.9 2.24c0 .86-.29 1.58-.87 2.17s-1.29.88-2.13.88-1.6-.3-2.16-.91-.85-1.32-.86-2.13zm3.02 2.5c1.1 0 1.66-.74 1.66-2.21v-.77c0-.2 0-.37-.01-.52s-.04-.32-.1-.52-.13-.36-.22-.49-.23-.25-.42-.38-.41-.22-.67-.27c-.05 0-.12-.01-.22-.01-.27 0-.53.05-.77.16-.39.2-.64.48-.76.83s-.18.77-.18 1.25v.27c0 .87.09 1.48.26 1.83.29.55.76.83 1.43.83z"/><path id="at" class="cls-1" d="m77.48 72.43c0-.86.29-1.6.88-2.23.59-.62 1.3-.94 2.13-.95.81 0 1.52.31 2.1.92s.89 1.36.9 2.24c0 .86-.29 1.58-.87 2.17s-1.29.88-2.13.88-1.6-.3-2.16-.91-.85-1.32-.86-2.13zm3.01 2.5c1.1 0 1.66-.74 1.66-2.21v-.77c0-.2 0-.37-.01-.52s-.04-.32-.1-.52-.13-.36-.22-.49-.23-.25-.42-.38-.41-.22-.67-.27c-.05 0-.12-.01-.22-.01-.27 0-.53.05-.77.16-.39.2-.64.48-.76.83s-.18.77-.18 1.25v.27c0 .87.09 1.48.26 1.83.29.55.76.83 1.43.83z"/><path id="au" class="cls-1" d="m84.38 74.71h.19c.35 0 .57-.06.64-.19v-.42c0-.13 0-.27.01-.42v-.53s0-.39 0-.57v-2.01c-.04-.17-.1-.29-.2-.34s-.3-.1-.61-.12h-.24v-.31c0-.21 0-.31.03-.31h.14c.09-.02.22-.03.38-.04s.33-.02.49-.03c.14 0 .3-.02.48-.03.17 0 .3-.02.39-.04s.14-.02.15-.01h.04v.94c.35-.62.79-.92 1.32-.92h.08c.41 0 .71.1.9.3s.29.41.29.62c0 .19-.06.35-.18.49s-.29.2-.52.2-.39-.07-.5-.22-.17-.3-.18-.46c0-.08 0-.15.03-.22s.04-.12.07-.16.04-.07.04-.07c-.02-.02-.12 0-.31.05-.14.07-.25.14-.33.2-.43.41-.64 1.22-.64 2.43v1.44c0 .11 0 .2.01.27s0 .14 0 .2v.07s.02.04.04.05.04.03.07.04.05.02.07.04.05.03.1.03.08 0 .1.01.06.01.12.01h.12s.06 0 .14.01.12 0 .14 0h.42v.62h-.12c-.16-.03-.74-.04-1.72-.04-.93 0-1.44.01-1.52.04h-.11v-.62h.22z"/></g><path id="av" class="cls-1" d="m90.48 71.94c0-.62.05-1.22.14-1.78s.19-1.05.31-1.45c.12-.41.29-.81.5-1.19s.39-.69.52-.91.32-.45.57-.71c.25-.25.4-.41.45-.46s.16-.15.34-.29h.23c.13 0 .19.04.19.12 0 .03-.08.12-.23.29s-.34.4-.56.72-.44.71-.67 1.17-.42 1.09-.57 1.87-.23 1.66-.23 2.62.08 1.83.23 2.61.34 1.41.56 1.89.44.87.67 1.17.42.54.57.72.23.28.23.29c0 .08-.07.12-.2.12h-.22l-.38-.33c-.85-.77-1.47-1.73-1.86-2.88s-.58-2.34-.58-3.58z"/><path id="aw" class="cls-1" d="m95.2 71.42c.06-.38.31-.82.73-1.32.43-.5.95-.75 1.57-.76.32 0 .61.08.87.24s.46.37.58.61c.38-.57.84-.86 1.37-.86.33 0 .62.1.87.3s.37.47.38.8c0 .26-.06.48-.19.64s-.25.26-.37.3-.22.05-.31.05c-.17 0-.31-.05-.42-.15s-.16-.23-.16-.39c0-.42.23-.7.68-.86-.1-.12-.28-.18-.54-.18-.12 0-.2 0-.26.03-.34.14-.6.44-.76.9-.54 2-.81 3.17-.81 3.5 0 .25.07.43.22.54s.3.16.48.16c.33 0 .67-.15.99-.45s.55-.67.67-1.1c.03-.09.05-.14.08-.15s.1-.02.22-.03h.05c.14 0 .2.04.2.11 0 0 0 .06-.03.15-.14.52-.43.97-.84 1.37-.42.4-.9.6-1.45.6-.63 0-1.11-.29-1.44-.86-.37.56-.8.84-1.28.84h-.08c-.44 0-.76-.12-.95-.35-.19-.24-.29-.48-.3-.75 0-.29.09-.52.26-.71.17-.18.38-.27.61-.27.39 0 .58.19.58.57 0 .18-.05.34-.16.48s-.21.23-.31.27-.16.07-.18.07h-.04s.03.04.08.07.13.06.22.1.18.05.26.04c.33 0 .61-.2.84-.61.08-.14.19-.45.31-.92.13-.47.25-.96.38-1.47s.2-.81.22-.9c.05-.24.07-.42.07-.53 0-.25-.07-.43-.2-.54s-.29-.16-.46-.16c-.36 0-.7.14-1.02.43s-.54.66-.67 1.11c-.02.08-.04.13-.07.14s-.1.02-.22.03h-.19c-.05-.05-.08-.1-.08-.15z"/><path id="ax" class="cls-1" d="m103.07 65.17h.05s.09-.01.14-.01h.16l.38.33c.85.77 1.47 1.73 1.86 2.88s.58 2.34.58 3.58c0 .62-.05 1.21-.14 1.78s-.19 1.05-.31 1.45-.29.8-.5 1.19c-.22.4-.39.7-.52.91s-.31.44-.56.69-.39.4-.43.45-.15.13-.31.26l-.05.05h-.31s-.05-.01-.07-.04-.03-.07-.04-.12c0 0 .06-.07.15-.18 1.4-1.46 2.1-3.61 2.1-6.45s-.7-4.99-2.1-6.45c-.09-.11-.14-.17-.15-.18 0-.07.02-.12.07-.15z"/></g></g></g></svg>
