<svg viewBox="0 0 199.81 54.77" xmlns="http://www.w3.org/2000/svg"><g id="a"><g><g><path id="b" d="m1.4 11.81c-.06-.06-.11-.1-.15-.12s-.11-.03-.22-.04-.3-.02-.58-.04h-.45v-.62h7.18v.05c.02.05.08.58.19 1.57.11 1 .17 1.52.19 1.57v.05h-.54v-.05s-.02-.16-.05-.46-.1-.6-.2-.91-.24-.55-.42-.72c-.34-.33-.99-.49-1.94-.49h-.2c-.63 0-1.02 0-1.15.01s-.21.06-.22.16c0 .03-.01 1.3-.01 3.83v3.77c.08.06.13.1.18.12s.16.04.34.05.47.03.86.03h.37v.62h-.16c-.22-.03-.97-.04-2.25-.04-1.19 0-1.85.01-1.98.04h-.15v-.62h.45c.38 0 .61-.02.69-.04s.17-.07.26-.16v-7.57z"/><path id="c" d="m9.42 16.82c0-.62.05-1.22.14-1.78s.19-1.05.31-1.45c.12-.41.29-.81.5-1.19s.39-.69.52-.91.32-.45.57-.71c.25-.25.4-.41.45-.46s.16-.15.34-.29h.23c.13 0 .19.04.19.12 0 .03-.08.12-.23.29s-.34.4-.56.72-.44.71-.67 1.17-.42 1.09-.57 1.87-.23 1.66-.23 2.62.08 1.83.23 2.61.34 1.41.56 1.89.44.87.67 1.17.42.54.57.72.23.28.23.29c0 .08-.07.12-.2.12h-.22l-.38-.33c-.85-.77-1.47-1.73-1.86-2.88s-.58-2.34-.58-3.58z"/><path id="d" d="m14.13 16.29c.06-.38.31-.82.73-1.32.43-.5.95-.75 1.57-.76.32 0 .61.08.87.24s.46.37.58.61c.38-.57.84-.86 1.37-.86.33 0 .62.1.87.3s.37.47.38.8c0 .26-.06.48-.19.64s-.25.26-.37.3-.22.05-.31.05c-.17 0-.31-.05-.42-.15s-.16-.23-.16-.39c0-.42.23-.7.68-.86-.1-.12-.28-.18-.54-.18-.12 0-.2 0-.26.03-.34.14-.6.44-.76.9-.54 2-.81 3.17-.81 3.5 0 .25.07.43.22.54s.3.16.48.16c.33 0 .67-.15.99-.45s.55-.67.67-1.1c.03-.09.05-.14.08-.15s.1-.02.22-.03h.05c.14 0 .2.04.2.11 0 0 0 .06-.03.15-.14.52-.43.97-.84 1.37-.42.4-.9.6-1.45.6-.63 0-1.11-.29-1.44-.86-.37.56-.8.84-1.28.84h-.08c-.44 0-.76-.12-.95-.35-.19-.24-.29-.48-.3-.75 0-.29.09-.52.26-.71.17-.18.38-.27.61-.27.39 0 .58.19.58.57 0 .18-.05.34-.16.48s-.21.23-.31.27-.16.07-.18.07h-.04s.03.04.08.07.13.06.22.1.18.05.26.04c.33 0 .61-.2.84-.61.08-.14.19-.45.31-.92.13-.47.25-.96.38-1.47s.2-.81.22-.9c.05-.24.07-.42.07-.53 0-.25-.07-.43-.2-.54s-.29-.16-.46-.16c-.36 0-.7.14-1.02.43s-.54.66-.67 1.11c-.02.08-.04.13-.07.14s-.1.02-.22.03h-.19c-.05-.05-.08-.1-.08-.15z"/><path id="e" d="m22 10.05h.05s.09-.01.14-.01h.16l.38.33c.85.77 1.47 1.73 1.86 2.88s.58 2.34.58 3.58c0 .62-.05 1.21-.14 1.78s-.19 1.05-.31 1.45-.29.8-.5 1.19c-.22.4-.39.7-.52.91s-.31.44-.56.69-.39.4-.43.45-.15.13-.31.26l-.05.05h-.31s-.05-.01-.07-.04-.03-.07-.04-.12c0 0 .06-.07.15-.18 1.4-1.46 2.1-3.61 2.1-6.45s-.7-4.99-2.1-6.45c-.09-.11-.14-.17-.15-.18 0-.07.02-.12.07-.15z"/><path id="f" d="m31 15.5c0-.12.06-.21.19-.27h8.65c.14.07.2.16.2.27 0 .1-.06.19-.19.26h-4.32s-4.32.01-4.32.01c-.14-.05-.22-.14-.22-.27zm0 2.64c0-.14.07-.23.22-.27h8.63c.13.09.19.18.19.27 0 .12-.07.21-.2.27h-8.65c-.13-.06-.19-.15-.19-.27z"/><g><path id="g" d="m50.94 3.19-.18.07c-.13.05-.31.09-.54.14s-.5.08-.79.1h-.26v-.62h.26c.43-.02.82-.09 1.18-.2s.62-.23.76-.33.27-.2.38-.3c.02-.03.07-.04.16-.04.08 0 .16.03.23.08v8.13c.08.06.13.1.18.12s.15.04.33.05.45.03.84.03h.35v.62h-.15c-.19-.03-.91-.04-2.16-.04s-1.94.01-2.13.04h-.16v-.62h.87c.14 0 .26 0 .34-.01s.15-.02.22-.04.1-.03.11-.03.04-.02.08-.07.07-.06.08-.05v-7.03z"/><path id="h" d="m48.26 25.6c.06-.38.31-.82.73-1.32.43-.5.95-.75 1.57-.76.32 0 .61.08.87.24s.46.37.58.61c.38-.57.84-.86 1.37-.86.33 0 .62.1.87.3s.37.47.38.8c0 .26-.06.48-.19.64s-.25.26-.37.3-.22.05-.31.05c-.17 0-.31-.05-.42-.15s-.16-.23-.16-.39c0-.42.23-.7.68-.86-.1-.12-.28-.18-.54-.18-.12 0-.2 0-.26.03-.34.14-.6.44-.76.9-.54 2-.81 3.17-.81 3.5 0 .25.07.43.22.54s.3.16.48.16c.33 0 .67-.15.99-.45s.55-.67.67-1.1c.03-.09.05-.14.08-.15s.1-.02.22-.03h.05c.14 0 .2.04.2.11 0 0 0 .06-.03.15-.14.52-.43.97-.84 1.37-.42.4-.9.6-1.45.6-.63 0-1.11-.29-1.44-.86-.37.56-.8.84-1.28.84h-.08c-.44 0-.76-.12-.95-.35-.19-.24-.29-.48-.3-.75 0-.29.09-.52.26-.71.17-.18.38-.27.61-.27.39 0 .58.19.58.57 0 .18-.05.34-.16.48s-.21.23-.31.27-.16.07-.18.07h-.04s.03.04.08.07.13.06.22.1.18.05.26.04c.33 0 .61-.2.84-.61.08-.14.19-.45.31-.92.13-.47.25-.96.38-1.47s.2-.81.22-.9c.05-.24.07-.42.07-.53 0-.25-.07-.43-.2-.54s-.29-.16-.46-.16c-.36 0-.7.14-1.02.43s-.54.66-.67 1.11c-.02.08-.04.13-.07.14s-.1.02-.22.03h-.19c-.05-.05-.08-.1-.08-.15z"/><rect x="46.2" y="16.41" width="10.48" height=".81"/></g><g><path id="i" d="M63.9,9.19s0-.04-.03-.1-.04-.1-.05-.14-.05-.09-.08-.15-.08-.12-.12-.18-.11-.11-.19-.18-.17-.12-.26-.16-.21-.09-.35-.12-.29-.06-.45-.08-.34-.03-.56-.04h-.14v-.73h15.81v.73h-.14c-1.19,0-1.88.38-2.08,1.14v15.24c.16.77.86,1.15,2.08,1.15h.14v.73h-6.73v-.73h.14c1.17,0,1.86-.37,2.08-1.11,0-.02.01-.03.01-.04V8.05h-6.8v16.38c.16.77.85,1.15,2.09,1.15h.14v.73h-6.73v-.73h.14c1.17,0,1.86-.37,2.08-1.11,0-.02.01-.03.01-.04v-15.24Z"/><g><path id="j" d="m60.77 32.23s.02-.09.03-.15.05-.19.12-.36c.06-.18.13-.33.19-.45s.17-.24.32-.36.29-.17.44-.16c.23 0 .42.06.58.17s.25.22.29.33.06.17.06.2v.02l.11-.11c.39-.41.83-.61 1.33-.61.35 0 .62.09.83.26s.32.43.33.76-.12.83-.36 1.51-.37 1.08-.36 1.22c0 .17.05.25.16.25h.09c.19-.03.35-.15.5-.36s.26-.47.34-.77c.01-.05.08-.08.19-.08.13 0 .19.03.19.08 0 0-.01.05-.04.14-.05.19-.12.37-.21.55s-.24.36-.44.54-.43.27-.66.26c-.3 0-.52-.09-.65-.26s-.2-.35-.2-.54c0-.12.12-.51.35-1.15.23-.65.35-1.13.36-1.46 0-.38-.14-.57-.42-.57h-.05c-.55 0-1.01.32-1.39.97l-.07.12-.32 1.29c-.21.84-.33 1.29-.36 1.35-.08.17-.22.26-.41.26-.08 0-.15-.02-.2-.06s-.09-.08-.11-.12-.03-.07-.02-.1c0-.08.12-.6.36-1.56s.37-1.48.38-1.56v-.22c0-.25-.08-.37-.23-.37-.24 0-.44.32-.6.96-.04.13-.06.2-.06.2-.01.04-.07.06-.18.06h-.13s-.06-.07-.06-.09z"/><path id="k" d="m66.87 31.65c0-.08.04-.15.13-.19h6.11c.1.05.14.12.14.19s-.04.13-.13.18h-3.05s-3.05 0-3.05 0c-.1-.03-.15-.1-.15-.19zm0 1.86c0-.1.05-.16.15-.19h6.1c.09.06.13.13.13.19 0 .08-.05.15-.14.19h-6.11c-.09-.04-.13-.11-.13-.19z"/><path id="l" d="m75.84 29.43-.12.05c-.09.03-.22.06-.38.1s-.35.05-.56.07h-.18v-.44h.18c.3-.01.58-.06.83-.14s.44-.16.54-.23.19-.14.27-.21c.01-.02.05-.03.12-.03.06 0 .11.02.16.06v5.75c.05.04.09.07.12.09s.11.03.23.04.32.02.6.02h.25v.44h-.11c-.13-.02-.64-.03-1.53-.03s-1.37 0-1.51.03h-.12v-.44h.61.24s.11-.02.15-.03.07-.02.08-.02.03-.02.06-.05.05-.04.06-.04v-4.96z"/></g><path id="m" d="m65.31 2.52c0-.56.18-1.06.54-1.5s.82-.66 1.37-.66c.56 0 1.09.2 1.58.59.24.2.48.45.71.75l.13.18.07-.1c.67-.95 1.41-1.42 2.24-1.42.55 0 1 .22 1.35.65s.53.95.54 1.54c0 .55-.18 1.05-.53 1.49s-.82.67-1.4.67c-.55 0-1.07-.2-1.56-.59-.24-.2-.48-.45-.71-.75l-.13-.18-.07.1c-.67.95-1.41 1.42-2.24 1.42-.55 0-1-.22-1.35-.65-.35-.44-.53-.95-.54-1.54zm8.18 0c0-.44-.12-.83-.36-1.19s-.59-.54-1.04-.54c-.13 0-.27.02-.39.05s-.25.08-.36.13-.22.12-.33.18-.2.14-.28.23-.16.17-.24.24-.14.15-.19.24-.1.16-.14.21-.08.11-.11.16l-.05.08.3.38c.2.26.35.45.46.58s.24.27.4.42.32.26.48.32.32.09.49.1c.4 0 .72-.16.98-.47s.38-.69.38-1.12zm-7.82.03c0 .44.12.84.37 1.2s.6.54 1.04.54c.75 0 1.45-.51 2.08-1.54l-.3-.38c-.39-.51-.68-.84-.87-1-.31-.28-.64-.41-.97-.41-.4 0-.72.16-.97.47s-.38.69-.38 1.12z"/></g><g><path id="n" d="m88.11 32.97s-.03.07-.08.12h-.42s-.14-.14-.38-.37-.44-.42-.61-.58-.42-.44-.73-.83-.6-.76-.84-1.1-.53-.8-.86-1.37-.61-1.14-.84-1.7c-.24-.56-.48-1.24-.75-2.02s-.47-1.58-.61-2.39-.28-1.72-.39-2.76-.17-2.09-.16-3.18c0-6.43 1.65-11.46 4.94-15.07.21-.23.4-.43.58-.6s.33-.32.45-.43.19-.18.2-.18h.42c.05.05.08.1.08.12 0 .05-.09.16-.27.35s-.42.46-.71.8-.62.77-.98 1.29-.73 1.16-1.1 1.94-.71 1.64-1.03 2.59-.59 2.09-.81 3.42-.37 2.76-.43 4.29c-.02.34-.03.84-.03 1.48 0 3.52.43 6.6 1.28 9.23s2.16 4.87 3.94 6.71c.1.11.15.18.15.22z"/><g><path id="o" d="m104.04 7.14c0-.05.02-.13.04-.22s.07-.26.16-.52c.09-.25.18-.47.27-.64s.24-.34.45-.5.42-.24.62-.23c.33 0 .6.08.81.24s.35.32.41.46.08.24.08.29c0 .02 0 .03.01.03l.15-.15c.55-.58 1.18-.87 1.89-.87.49 0 .88.12 1.18.37s.45.6.46 1.07-.16 1.18-.52 2.13-.52 1.52-.52 1.72c0 .24.08.35.23.35.05 0 .1 0 .12-.01.26-.05.5-.22.71-.52s.37-.66.48-1.09c.02-.07.11-.11.27-.11.18 0 .27.04.27.11l-.05.2c-.07.26-.17.52-.3.77s-.33.51-.62.76-.6.38-.94.37c-.43 0-.73-.12-.92-.37s-.29-.5-.29-.76c0-.17.16-.71.49-1.63.33-.91.49-1.6.5-2.06 0-.53-.2-.8-.6-.8h-.07c-.78 0-1.43.46-1.97 1.37l-.1.16-.45 1.82c-.3 1.19-.47 1.82-.52 1.91-.12.24-.31.37-.58.37-.12 0-.21-.03-.29-.08s-.12-.11-.15-.16-.04-.1-.03-.14c0-.12.17-.86.52-2.21.34-1.36.52-2.09.54-2.21 0-.05.01-.15.01-.31 0-.35-.11-.53-.33-.53-.34 0-.63.45-.86 1.36-.05.18-.08.28-.08.29-.02.05-.1.08-.26.08h-.19c-.05-.05-.08-.1-.08-.12z"/><g><path id="p" d="m91.86 25.63c0-.05.02-.13.04-.22s.07-.26.16-.52c.09-.25.18-.47.27-.64s.24-.34.45-.5.42-.24.62-.23c.33 0 .6.08.81.24s.35.32.41.46.08.24.08.29c0 .02 0 .03.01.03l.15-.15c.55-.58 1.18-.87 1.89-.87.49 0 .88.12 1.18.37s.45.6.46 1.07-.16 1.18-.52 2.13-.52 1.52-.52 1.72c0 .24.08.35.23.35.05 0 .1 0 .12-.01.26-.05.5-.22.71-.52s.37-.66.48-1.09c.02-.07.11-.11.27-.11.18 0 .27.04.27.11l-.05.2c-.07.26-.17.52-.3.77s-.33.51-.62.76-.6.38-.94.37c-.43 0-.73-.12-.92-.37s-.29-.5-.29-.76c0-.17.16-.71.49-1.63.33-.91.49-1.6.5-2.06 0-.53-.2-.8-.6-.8h-.07c-.78 0-1.43.46-1.97 1.37l-.1.16-.45 1.82c-.3 1.19-.47 1.82-.52 1.91-.12.24-.31.37-.58.37-.12 0-.21-.03-.29-.08s-.12-.11-.15-.16-.04-.1-.03-.14c0-.12.17-.86.52-2.21.34-1.36.52-2.09.54-2.21 0-.05.01-.15.01-.31 0-.35-.11-.53-.33-.53-.34 0-.63.45-.86 1.36-.05.18-.08.28-.08.29-.02.05-.1.08-.26.08h-.19c-.05-.05-.08-.1-.08-.12z"/><path id="q" d="m103.5 26.31v-.18c0-.12.06-.21.19-.27h4.06v-4.07c.1-.12.19-.18.27-.18.12 0 .21.07.27.2v4.05h4.05c.14.07.2.16.2.27s-.07.2-.2.27h-4.05v4.05c-.07.13-.15.19-.24.19h-.05c-.11 0-.19-.06-.24-.19v-4.05h-4.06c-.13-.06-.19-.15-.19-.27v.18z"/><path id="r" d="m117.02 25.6c.06-.38.31-.82.73-1.32.43-.5.95-.75 1.57-.76.32 0 .61.08.87.24s.46.37.58.61c.38-.57.84-.86 1.37-.86.33 0 .62.1.87.3s.37.47.38.8c0 .26-.06.48-.19.64s-.25.26-.37.3-.22.05-.31.05c-.17 0-.31-.05-.42-.15s-.16-.23-.16-.39c0-.42.23-.7.68-.86-.1-.12-.28-.18-.54-.18-.12 0-.2 0-.26.03-.34.14-.6.44-.76.9-.54 2-.81 3.17-.81 3.5 0 .25.07.43.22.54s.3.16.48.16c.33 0 .67-.15.99-.45s.55-.67.67-1.1c.03-.09.05-.14.08-.15s.1-.02.22-.03h.05c.14 0 .2.04.2.11 0 0 0 .06-.03.15-.14.52-.43.97-.84 1.37-.42.4-.9.6-1.45.6-.63 0-1.11-.29-1.44-.86-.37.56-.8.84-1.28.84h-.08c-.44 0-.76-.12-.95-.35-.19-.24-.29-.48-.3-.75 0-.29.09-.52.26-.71.17-.18.38-.27.61-.27.39 0 .58.19.58.57 0 .18-.05.34-.16.48s-.21.23-.31.27-.16.07-.18.07h-.04s.03.04.08.07.13.06.22.1.18.05.26.04c.33 0 .61-.2.84-.61.08-.14.19-.45.31-.92.13-.47.25-.96.38-1.47s.2-.81.22-.9c.05-.24.07-.42.07-.53 0-.25-.07-.43-.2-.54s-.29-.16-.46-.16c-.36 0-.7.14-1.02.43s-.54.66-.67 1.11c-.02.08-.04.13-.07.14s-.1.02-.22.03h-.19c-.05-.05-.08-.1-.08-.15z"/></g><rect x="90.22" y="16.41" width="35.22" height=".81"/></g><path id="s" d="m127.53.69c0-.07.01-.12.04-.14s.09-.03.18-.03h.29s.14.14.38.37.44.42.61.58.42.44.73.83.6.76.84 1.1.53.8.86 1.37.61 1.13.84 1.68c.24.55.48 1.23.75 2.02s.47 1.59.61 2.39.28 1.71.39 2.76c.12 1.04.17 2.1.16 3.18 0 1.06-.03 1.95-.1 2.69-.43 5.18-2.04 9.31-4.85 12.39-.21.23-.4.43-.58.6s-.33.32-.45.43-.19.18-.2.18h-.2c-.12 0-.19 0-.23-.03s-.06-.06-.07-.14c.49-.49.97-1.05 1.44-1.68 2.61-3.47 3.91-8.28 3.91-14.44 0-1.83-.12-3.53-.35-5.12-.24-1.58-.52-2.91-.87-3.99s-.76-2.09-1.26-3.04-.95-1.69-1.36-2.21-.86-1.05-1.34-1.57l-.05-.05s-.03-.04-.04-.05-.02-.03-.04-.04l-.03-.03z"/></g><g><g><path id="t" d="m146.57 32.97s-.03.07-.08.12h-.42s-.14-.14-.38-.37-.44-.42-.61-.58-.42-.44-.73-.83-.6-.76-.84-1.1-.53-.8-.86-1.37-.61-1.14-.84-1.7c-.24-.56-.48-1.24-.75-2.02s-.47-1.58-.61-2.39-.28-1.72-.39-2.76-.17-2.09-.16-3.18c0-6.43 1.65-11.46 4.94-15.07.21-.23.4-.43.58-.6s.33-.32.45-.43.19-.18.2-.18h.42c.05.05.08.1.08.12 0 .05-.09.16-.27.35s-.42.46-.71.8-.62.77-.98 1.29-.73 1.16-1.1 1.94-.71 1.64-1.03 2.59-.59 2.09-.81 3.42-.37 2.76-.43 4.29c-.02.34-.03.84-.03 1.48 0 3.52.43 6.6 1.28 9.23s2.16 4.87 3.94 6.71c.1.11.15.18.15.22z"/><path id="u" d="m149.94 12.37-.18.07c-.13.05-.31.09-.54.14s-.5.08-.79.1h-.26v-.62h.26c.43-.02.82-.09 1.18-.2s.62-.23.76-.33.27-.2.38-.3c.02-.03.07-.04.16-.04.08 0 .16.03.23.08v8.13c.08.06.13.1.18.12s.15.04.33.05.45.03.84.03h.35v.62h-.15c-.19-.03-.91-.04-2.16-.04s-1.94.01-2.13.04h-.16v-.62h.87c.14 0 .26 0 .34-.01s.15-.02.22-.04.1-.03.11-.03.04-.02.08-.07.07-.06.08-.05v-7.02z"/><path id="v" d="m157.61 17v-.18c0-.12.06-.21.19-.27h4.06v-4.07c.1-.12.19-.18.27-.18.12 0 .21.07.27.2v4.05h4.05c.14.07.2.16.2.27s-.07.2-.2.27h-4.05v4.05c-.07.13-.15.19-.24.19h-.05c-.11 0-.19-.06-.24-.19v-4.05h-4.06c-.13-.06-.19-.15-.19-.27v.18z"/><g><path id="w" d="m176.98 3.19-.18.07c-.13.05-.31.09-.54.14s-.5.08-.79.1h-.26v-.62h.26c.43-.02.82-.09 1.18-.2s.62-.23.76-.33.27-.2.38-.3c.02-.03.07-.04.16-.04.08 0 .16.03.23.08v8.13c.08.06.13.1.18.12s.15.04.33.05.45.03.84.03h.35v.62h-.15c-.19-.03-.91-.04-2.16-.04s-1.94.01-2.13.04h-.16v-.62h.87c.14 0 .26 0 .34-.01s.15-.02.22-.04.1-.03.11-.03.04-.02.08-.07.07-.06.08-.05v-7.03z"/><path id="x" d="m173.7 25.63c0-.05.02-.13.04-.22s.07-.26.16-.52c.09-.25.18-.47.27-.64s.24-.34.45-.5.42-.24.62-.23c.33 0 .6.08.81.24s.35.32.41.46.08.24.08.29c0 .02 0 .03.01.03l.15-.15c.55-.58 1.18-.87 1.89-.87.49 0 .88.12 1.18.37s.45.6.46 1.07-.16 1.18-.52 2.13-.52 1.52-.52 1.72c0 .24.08.35.23.35.05 0 .1 0 .12-.01.26-.05.5-.22.71-.52s.37-.66.48-1.09c.02-.07.11-.11.27-.11.18 0 .27.04.27.11l-.05.2c-.07.26-.17.52-.3.77s-.33.51-.62.76-.6.38-.94.37c-.43 0-.73-.12-.92-.37s-.29-.5-.29-.76c0-.17.16-.71.49-1.63.33-.91.49-1.6.5-2.06 0-.53-.2-.8-.6-.8h-.07c-.78 0-1.43.46-1.97 1.37l-.1.16-.45 1.82c-.3 1.19-.47 1.82-.52 1.91-.12.24-.31.37-.58.37-.12 0-.21-.03-.29-.08s-.12-.11-.15-.16-.04-.1-.03-.14c0-.12.17-.86.52-2.21.34-1.36.52-2.09.54-2.21 0-.05.01-.15.01-.31 0-.35-.11-.53-.33-.53-.34 0-.63.45-.86 1.36-.05.18-.08.28-.08.29-.02.05-.1.08-.26.08h-.19c-.05-.05-.08-.1-.08-.12z"/><rect x="172.05" y="16.41" width="10.86" height=".81"/></g><path id="y" d="m185 .69c0-.07.01-.12.04-.14s.09-.03.18-.03h.29s.14.14.38.37.44.42.61.58.42.44.73.83.6.76.84 1.1.53.8.86 1.37.61 1.13.84 1.68c.24.55.48 1.23.75 2.02s.47 1.59.61 2.39.28 1.71.39 2.76c.12 1.04.17 2.1.16 3.18 0 1.06-.03 1.95-.1 2.69-.43 5.18-2.04 9.31-4.85 12.39-.21.23-.4.43-.58.6s-.33.32-.45.43-.19.18-.2.18h-.2c-.12 0-.19 0-.23-.03s-.06-.06-.07-.14c.49-.49.97-1.05 1.44-1.68 2.61-3.47 3.91-8.28 3.91-14.44 0-1.83-.12-3.53-.35-5.12-.24-1.58-.52-2.91-.87-3.99s-.76-2.09-1.26-3.04-.95-1.69-1.36-2.21-.86-1.05-1.34-1.57l-.05-.05s-.03-.04-.04-.05-.02-.03-.04-.04l-.03-.03z"/></g><path id="z" d="m195.03 1.47c.04-.27.22-.58.52-.93s.67-.53 1.11-.54c.22 0 .43.06.61.17s.32.26.41.43c.27-.4.59-.6.97-.6.24 0 .44.07.61.21s.26.33.27.57c0 .19-.04.34-.13.45-.09.12-.18.19-.26.21s-.16.04-.22.04c-.12 0-.22-.04-.3-.11s-.12-.16-.12-.28c0-.29.16-.5.48-.6-.07-.08-.2-.12-.38-.12-.08 0-.14 0-.18.02-.24.1-.42.31-.54.63-.38 1.41-.58 2.24-.58 2.48 0 .18.05.31.15.38s.21.12.34.12c.24 0 .47-.11.7-.32s.39-.47.47-.78c.02-.06.04-.1.06-.11s.07-.01.15-.02h.04c.1 0 .14.03.14.08 0 0 0 .04-.02.11-.1.36-.3.69-.6.97-.29.28-.64.42-1.03.42-.45 0-.79-.2-1.02-.6-.26.4-.56.6-.9.6h-.06c-.31 0-.54-.08-.67-.25s-.2-.34-.21-.53c0-.2.06-.37.18-.5s.27-.19.43-.19c.28 0 .41.13.41.4 0 .13-.04.24-.12.34s-.15.16-.22.19-.11.05-.12.05h-.03s.02.03.06.05.09.04.15.07.12.04.18.03c.23 0 .43-.14.6-.43.06-.1.13-.32.22-.65s.18-.68.27-1.04.14-.57.15-.63c.03-.17.05-.3.05-.37 0-.18-.05-.31-.14-.38s-.2-.12-.33-.12c-.26 0-.5.1-.72.31-.22.2-.38.47-.47.79-.01.06-.03.09-.05.1s-.07.01-.15.02h-.13s-.06-.07-.06-.11z"/></g></g><g><path id="aa" d="m64.86 47.46c.06-.38.31-.82.73-1.32.43-.5.95-.75 1.57-.76.32 0 .61.08.87.24s.46.37.58.61c.38-.57.84-.86 1.37-.86.33 0 .62.1.87.3s.37.47.38.8c0 .26-.06.48-.19.64s-.25.26-.37.3-.22.05-.31.05c-.17 0-.31-.05-.42-.15s-.16-.23-.16-.39c0-.42.23-.7.68-.86-.1-.12-.28-.18-.54-.18-.12 0-.2 0-.26.03-.34.14-.6.44-.76.9-.54 2-.81 3.17-.81 3.5 0 .25.07.43.22.54s.3.16.48.16c.33 0 .67-.15.99-.45s.55-.67.67-1.1c.03-.09.05-.14.08-.15s.1-.02.22-.03h.05c.14 0 .2.04.2.11 0 0 0 .06-.03.15-.14.52-.43.97-.84 1.37-.42.4-.9.6-1.45.6-.63 0-1.11-.29-1.44-.86-.37.56-.8.84-1.28.84h-.08c-.44 0-.76-.12-.95-.35-.19-.24-.29-.48-.3-.75 0-.29.09-.52.26-.71.17-.18.38-.27.61-.27.39 0 .58.19.58.57 0 .18-.05.34-.16.48s-.21.23-.31.27-.16.07-.18.07h-.04s.03.04.08.07.13.06.22.1.18.05.26.04c.33 0 .61-.2.84-.61.08-.14.19-.45.31-.92.13-.47.25-.96.38-1.47s.2-.81.22-.9c.05-.24.07-.42.07-.53 0-.25-.07-.43-.2-.54s-.29-.16-.46-.16c-.36 0-.7.14-1.02.43s-.54.66-.67 1.11c-.02.08-.04.13-.07.14s-.1.02-.22.03h-.19c-.05-.05-.08-.1-.08-.15z"/><path id="ab" d="m76.83 47.99c0-1.1.37-2.01 1.11-2.71.74-.71 1.62-1.11 2.63-1.21h.23c.14 0 .33 0 .57-.01s.46 0 .68 0h1.34c.14.07.2.16.2.27 0 .08-.06.17-.18.26h-1.41c-1 .02-1.62.05-1.86.1-.44.11-.84.27-1.18.49s-.61.44-.8.67-.35.48-.49.75-.22.49-.24.65-.05.32-.07.46v.03h6.03c.14.07.2.16.2.27s-.07.2-.2.27h-6.03v.03c0 .19.05.42.14.69s.24.57.45.88c.21.32.5.61.87.87s.81.45 1.32.56c.24.05.87.09 1.87.1h1.41c.12.09.18.18.18.27 0 .11-.07.2-.2.27h-1.66c-.16 0-.29 0-.39.01-1.4 0-2.51-.39-3.33-1.17-.8-.74-1.19-1.67-1.19-2.78z"/><path id="ac" d="m97.8 49.6c0 .05-.05.15-.16.3s-.29.32-.53.52-.52.39-.81.57c-.3.18-.68.33-1.14.46s-.93.19-1.4.19c-.51 0-1-.07-1.49-.22-.49-.14-.95-.37-1.38-.67s-.81-.7-1.13-1.19c-.32-.5-.53-1.07-.64-1.72-.05-.2-.07-.56-.07-1.09s.02-.89.07-1.09c.2-1.06.65-1.92 1.34-2.58.7-.66 1.59-1.06 2.69-1.19.03 0 .13 0 .31-.01s.32-.01.42-.01c.49.03.98.14 1.47.33s.86.29 1.11.3c.16 0 .28-.03.35-.1s.11-.14.12-.22.03-.15.07-.22.1-.1.19-.11c.1 0 .18.05.24.16v2.84l-.05.1c-.12.06-.23.07-.34.03-.04-.04-.08-.14-.14-.33s-.16-.38-.31-.61c-.3-.42-.7-.8-1.19-1.14-.5-.34-1.03-.52-1.59-.52h-.12c-.4 0-.77.17-1.11.52-.79.71-1.18 2.01-1.18 3.92 0 .79.1 1.5.29 2.13.37 1.35 1.15 2.02 2.33 2.02s2.23-.45 3.2-1.36c.15-.15.27-.23.34-.23.05 0 .1.02.15.05s.09.09.1.16zm-5.9-6.71c.13-.16.18-.24.15-.24-.21.07-.42.18-.64.31s-.46.32-.72.56-.49.55-.69.94-.34.82-.42 1.3c-.05.27-.07.6-.07.99s.02.72.07.99c.09.5.24.95.46 1.34s.45.71.69.92.48.4.72.54.43.24.58.3l.23.07c-.06-.06-.12-.13-.18-.19-.59-.57-.96-1.5-1.13-2.8-.03-.24-.04-.65-.04-1.22s.01-.98.04-1.22c.17-1.13.48-2 .94-2.59zm5.04.82v-.81s-.07.03-.11.03c-.09.04-.19.05-.31.05h-.2l.18.19c.18.2.28.32.3.35l.15.19z"/><path id="ad" d="m102.09 41.46c0-.08.03-.14.08-.19s.11-.07.18-.07c.09 0 .17.05.23.14.04.06.84 2.26 2.42 6.58 1.57 4.33 2.36 6.52 2.36 6.6s-.03.13-.08.18-.12.07-.19.08c-.09 0-.17-.05-.23-.14-.03-.04-.83-2.22-2.4-6.54-1.57-4.33-2.36-6.54-2.36-6.64z"/><path id="ae" d="m117.02 54.51c0 .12-.03.2-.08.26h-.24c-1.17 0-1.98-.3-2.44-.9-.05-.06-.08-.12-.11-.16s-.05-.1-.07-.15-.04-.11-.05-.18-.03-.13-.03-.2 0-.17-.01-.3-.01-.25-.01-.37v-1.86c0-.81-.03-1.26-.07-1.36 0 0-.01-.02-.01-.03-.13-.33-.35-.58-.68-.76s-.65-.27-.96-.27c-.1 0-.16-.01-.19-.04s-.04-.1-.04-.22.01-.19.04-.22.09-.04.19-.04c.31 0 .62-.09.95-.27s.56-.43.69-.76c.05-.1.07-.24.07-.43s0-.88.01-2.06v-.68c0-.5.03-.85.08-1.05s.19-.39.39-.57c.24-.24.6-.43 1.09-.57.33-.07.57-.11.72-.12h.18c.1 0 .18 0 .24-.01h.27c.05.05.08.14.08.24 0 .12-.01.19-.04.22-.02.03-.09.04-.22.04-.48.03-.86.14-1.13.33s-.43.38-.49.57c-.05.12-.07.79-.07 2.01v1.11c0 .43-.01.71-.04.87s-.1.33-.23.53c-.28.39-.67.66-1.18.8l-.19.07.19.07c.16.05.33.12.49.2s.35.24.57.46.34.49.38.8c0 .05.01.67.01 1.85s.02 1.89.07 2.01c.09.24.29.45.58.61s.64.26 1.03.29c.13 0 .2.01.22.04.03.03.04.1.04.2z"/><path id="af" d="m119.56 42.6c0-.09.02-.19.05-.31s.09-.18.16-.18c0 0 .33-.02.98-.07.64-.05.97-.07.99-.08.11 0 .16.04.16.11 0 .06-.23 1.01-.68 2.84-.45 1.79-.68 2.72-.68 2.78.17-.09.3-.18.39-.26.22-.16.53-.45.94-.86s.72-.68.95-.83c.36-.24.71-.37 1.03-.37.27 0 .48.09.64.26s.24.42.24.73c0 .23-.03.42-.1.57s-.15.27-.26.34-.2.12-.29.15-.16.04-.24.04c-.18 0-.33-.05-.43-.15s-.16-.23-.16-.39c0-.23.07-.41.22-.56s.29-.24.43-.29l.22-.04c-.11-.11-.22-.16-.33-.16h-.05c-.29.03-.57.14-.86.34s-.61.49-.99.87-.68.66-.9.83c.02 0 .09.02.2.04s.23.05.33.08.22.07.35.11.26.1.37.19.21.17.3.24.17.19.23.35.09.31.08.45c0 .15-.02.34-.07.56s-.07.4-.08.54c0 .36.12.54.37.54.43 0 .79-.54 1.06-1.62.02-.07.11-.11.27-.11h.05c.14 0 .22.04.22.12 0 .05-.01.11-.04.19-.37 1.28-.9 1.91-1.6 1.91-.41 0-.74-.12-.99-.35-.25-.24-.38-.57-.38-1.02 0-.16.01-.3.04-.42s.04-.23.04-.33c0-.2-.06-.37-.19-.52s-.29-.25-.48-.31-.34-.11-.46-.15-.2-.05-.24-.04h-.03c-.11.38-.2.75-.29 1.1s-.14.62-.19.79-.09.34-.12.5-.07.27-.1.33-.06.11-.1.18c-.04.06-.09.1-.15.12-.12.08-.24.12-.38.12-.15 0-.27-.05-.35-.14s-.12-.17-.12-.23c0-.09.17-.81.5-2.17s.67-2.69.99-4l.5-1.97c0-.12-.02-.19-.1-.22s-.25-.05-.53-.07h-.24s-.06-.01-.1-.04-.05-.06-.04-.1z"/><path id="ag" d="m129.9 47.99c0-1.1.37-2.01 1.11-2.71.74-.71 1.62-1.11 2.63-1.21h.23c.14 0 .33 0 .57-.01s.46 0 .68 0h1.34c.14.07.2.16.2.27 0 .08-.06.17-.18.26h-1.41c-1 .02-1.62.05-1.86.1-.44.11-.84.27-1.18.49s-.61.44-.8.67-.35.48-.49.75-.22.49-.24.65-.05.32-.07.46v.03h6.03c.14.07.2.16.2.27s-.07.2-.2.27h-6.03v.03c0 .19.05.42.14.69s.24.57.45.88c.21.32.5.61.87.87s.81.45 1.32.56c.24.05.87.09 1.87.1h1.41c.12.09.18.18.18.27 0 .11-.07.2-.2.27h-1.66c-.16 0-.29 0-.39.01-1.4 0-2.51-.39-3.33-1.17-.8-.74-1.19-1.67-1.19-2.78z"/><path id="ah" d="m142.12 51.39c-.09-.09-.14-.15-.14-.18 0-.1.14-.39.42-.88s1-1.67 2.16-3.53l2.59-4.22h-.62c-.93 0-1.63.09-2.09.27-.38.14-.69.33-.92.54-.24.22-.38.41-.45.58s-.12.33-.16.49c-.05.15-.09.24-.12.26-.03 0-.06.01-.11.01-.07 0-.16-.06-.26-.19l.12-1.15c.02-.17.04-.35.07-.54s.05-.34.05-.46.02-.18.03-.18c.03-.02.06-.05.1-.08.02-.02 1.16-.03 3.43-.03h3.41c.11.09.16.17.16.23 0 .04-.87 1.48-2.61 4.32l-2.59 4.22s.36.03 1.09.03c.95 0 1.61-.06 1.97-.18.52-.18.96-.47 1.32-.86.35-.39.6-.85.73-1.37.05-.24.14-.37.27-.37.06 0 .12.02.16.07s.07.1.08.15c0 .07-.06.57-.19 1.49s-.2 1.4-.23 1.43l-.1.1s-1.29.03-3.8.03h-3.77zm1.48-8.66.24-.15h-.73v.22s-.02.07-.03.14-.02.11-.03.14c0 .04 0 .05.03.05s.05-.02.08-.05.1-.09.18-.15.17-.13.26-.19zm5.48-.12s-.22-.03-.65-.03c-.47 0-.71.02-.73.07-.02.04-.85 1.39-2.5 4.07s-2.5 4.06-2.57 4.15c0 .02.23.03.69.03h.69l2.54-4.13 2.52-4.17zm.27 8.29c.08-.49.12-.77.12-.84l-.27.27c-.17.16-.33.29-.48.39l-.24.15.42.03h.45z"/><path id="ai" d="m156.3 54.76h-.03c-.11 0-.19-.06-.24-.19v-13.19c.1-.12.19-.18.27-.18.12 0 .21.07.27.2v13.17c-.07.13-.15.19-.24.19h-.03z"/><path id="aj" d="m163.6 42.6c0-.09.02-.19.05-.31s.09-.18.16-.18c0 0 .33-.02.98-.07.64-.05.97-.07.99-.08.11 0 .16.04.16.11 0 .06-.23 1.01-.68 2.84-.45 1.79-.68 2.72-.68 2.78.17-.09.3-.18.39-.26.22-.16.53-.45.94-.86s.72-.68.95-.83c.36-.24.71-.37 1.03-.37.27 0 .48.09.64.26s.24.42.24.73c0 .23-.03.42-.1.57s-.15.27-.26.34-.2.12-.29.15-.16.04-.24.04c-.18 0-.33-.05-.43-.15s-.16-.23-.16-.39c0-.23.07-.41.22-.56s.29-.24.43-.29l.22-.04c-.11-.11-.22-.16-.33-.16h-.05c-.29.03-.57.14-.86.34s-.61.49-.99.87-.68.66-.9.83c.02 0 .09.02.2.04s.23.05.33.08.22.07.35.11.26.1.37.19.21.17.3.24.17.19.23.35.09.31.08.45c0 .15-.02.34-.07.56s-.07.4-.08.54c0 .36.12.54.37.54.43 0 .79-.54 1.06-1.62.02-.07.11-.11.27-.11h.05c.14 0 .22.04.22.12 0 .05-.01.11-.04.19-.37 1.28-.9 1.91-1.6 1.91-.41 0-.74-.12-.99-.35-.25-.24-.38-.57-.38-1.02 0-.16.01-.3.04-.42s.04-.23.04-.33c0-.2-.06-.37-.19-.52s-.29-.25-.48-.31-.34-.11-.46-.15-.2-.05-.24-.04h-.03c-.11.38-.2.75-.29 1.1s-.14.62-.19.79-.09.34-.12.5-.07.27-.1.33-.06.11-.1.18c-.04.06-.09.1-.15.12-.12.08-.24.12-.38.12-.15 0-.27-.05-.35-.14s-.12-.17-.12-.23c0-.09.17-.81.5-2.17s.67-2.69.99-4l.5-1.97c0-.12-.02-.19-.1-.22s-.25-.05-.53-.07h-.24s-.06-.01-.1-.04-.05-.06-.04-.1z"/><path id="ak" d="m181.95 42.75c.07 0 .14.03.19.08s.08.12.08.2-.03.14-.1.19c0 0-1.23.59-3.67 1.75l-3.61 1.71 3.37 1.6c2.61 1.23 3.93 1.87 3.96 1.91.03.05.04.1.04.15 0 .16-.08.25-.24.27h-.08l-3.91-1.85c-2.62-1.24-3.95-1.87-3.96-1.89-.06-.05-.1-.12-.1-.23 0-.1.07-.18.18-.23.07-.04 1.37-.65 3.88-1.83 2.52-1.19 3.8-1.79 3.84-1.82.04-.02.08-.03.12-.03zm-8.01 10.23c0-.09.07-.18.2-.27h7.86c.14.05.22.14.22.27 0 .11-.07.2-.2.27h-7.89c-.13-.06-.19-.15-.19-.27z"/><path id="al" d="m188.43 43.44c.51-.73 1.2-1.1 2.08-1.1.43 0 .87.12 1.3.35s.79.65 1.06 1.25c.33.75.5 1.78.5 3.09 0 1.4-.19 2.48-.58 3.22-.18.38-.43.68-.75.91s-.59.37-.83.42-.47.09-.69.1c-.24 0-.47-.03-.71-.08s-.51-.2-.83-.43c-.32-.24-.57-.54-.75-.91-.39-.74-.58-1.81-.58-3.22 0-1.57.26-2.77.77-3.6zm3.06-.17c-.27-.29-.59-.43-.96-.43s-.71.14-.98.43c-.23.24-.38.56-.45.98s-.11 1.29-.11 2.61c0 1.43.04 2.37.11 2.82s.24.81.49 1.07c.25.27.57.41.94.41s.67-.14.92-.41c.26-.27.43-.65.49-1.14s.1-1.41.11-2.76c0-1.31-.04-2.18-.11-2.59-.07-.42-.22-.75-.45-.99z"/><path id="am" d="m194.8 41.46c0-.13.01-.2.04-.22s.12-.03.27-.04c.75 0 1.33.11 1.74.34s.69.48.86.75c.08.19.13.35.14.48s.02.73.03 1.82c0 1.26.02 1.91.03 1.95.12.41.35.71.71.9s.68.29.98.3c.1 0 .16.01.19.04s.04.1.04.22-.01.19-.04.22-.09.04-.19.04c-.33 0-.66.1-.98.29s-.53.43-.64.72c-.05.13-.07.29-.08.49 0 .2-.01.87-.01 2.02v.69c0 .5-.03.85-.08 1.05s-.19.39-.39.57c-.49.47-1.24.71-2.27.71-.16 0-.26-.01-.29-.04s-.04-.1-.04-.23v-.1s0-.03.01-.07.02-.05.04-.05.05 0 .11-.01c.13 0 .27-.01.42-.04s.33-.07.52-.14.36-.17.5-.31.25-.32.33-.52c0-.05.02-.69.03-1.93v-1.85c.13-.52.45-.93.96-1.24.32-.15.54-.24.68-.27-.23-.06-.45-.15-.68-.27-.5-.31-.81-.68-.92-1.11l-.03-.14v-1.85c-.02-1.24-.03-1.88-.04-1.93-.11-.36-.35-.62-.72-.76s-.72-.22-1.05-.23c-.08 0-.13-.01-.14-.04s-.02-.1-.03-.2z"/></g></g></g></svg>
