<svg viewBox="0 0 270.46 178.5" xmlns="http://www.w3.org/2000/svg"><defs><style>.cls-1 {
        fill: none;
      }

      .cls-2 {
        clip-path: url(#a);
      }

      .cls-3 {
        clip-path: url(#b);
      }</style><clipPath id="b"><rect class="cls-1" x="37.48" y="11.92" width="13.11" height="65.4"/></clipPath><clipPath id="a"><rect class="cls-1" x="37.48" y="101.18" width="13.11" height="65.4"/></clipPath></defs><g id="c"><g><path d="m.24 92.26h.21c.38 0 .61-.07.69-.21v-.94c0-.19 0-.4.01-.63s0-.48 0-.74v-.81-.84-3.14c0-.26 0-.47-.01-.65v-.25c-.03-.19-.1-.31-.21-.37s-.33-.1-.66-.13h-.27v-.34c0-.23 0-.34.03-.34h.15c.1-.02.24-.03.43-.04s.37-.02.55-.03c.17 0 .35-.02.55-.03.2 0 .34-.02.44-.04s.15-.02.16-.01h.04v4.64c0 3.11 0 4.68.01 4.7.04.08.1.13.18.16.21.03.45.04.72.04h.24v.68h-.46c-.23-.02-.47-.03-.72-.03s-.44 0-.56-.01h-.56s-.5.02-.74.03h-.34s-.12.01-.12.01v-.68h.24z"/><path d="m4.32 92.26h.21c.38 0 .61-.07.69-.21v-.91c0-.17 0-.36.01-.57s0-.42 0-.62v-.97c0-.34 0-.63-.01-.87v-.34c-.03-.19-.1-.31-.21-.37s-.33-.1-.66-.13h-.27v-.34c0-.23 0-.34.03-.34h.15c.1-.02.24-.03.41-.04.18 0 .36-.02.55-.03.17 0 .34-.02.53-.03.19 0 .33-.02.43-.04s.15-.02.16-.01h.04v.59c0 .37 0 .56.01.56s.03-.02.07-.07.1-.12.18-.22.17-.19.28-.27.25-.17.43-.28.36-.19.56-.24.45-.07.75-.07c1.12.04 1.75.59 1.87 1.66 0 .07.01.75.01 2.05v1.27c0 .37 0 .59.03.66.02.07.07.12.16.15.21.03.45.04.72.04h.24v.68h-.47c-.23-.02-.47-.03-.74-.03s-.45 0-.56-.01c-1.01 0-1.56.01-1.65.04h-.12v-.68h.24c.6 0 .9-.08.9-.24 0-.02.01-.7.01-2.03s-.02-2.03-.03-2.11c-.06-.27-.16-.48-.29-.62-.14-.14-.26-.22-.35-.25s-.23-.04-.38-.03c-.44 0-.83.17-1.17.5-.27.27-.43.54-.5.81-.07.28-.11.68-.12 1.22v1.83c0 .29 0 .49.01.59 0 .1.02.16.04.19s.06.06.13.09c.21.03.45.04.72.04h.24v.68h-.46c-.24-.02-.49-.03-.75-.03s-.45 0-.56-.01c-1.01 0-1.56.01-1.65.04h-.12v-.68h.24z"/><path d="m15.14 88.68c.07-.41.33-.89.8-1.43s1.03-.82 1.71-.83c.34 0 .66.09.94.27.29.18.5.4.63.66.41-.62.91-.93 1.49-.93.36 0 .68.11.94.32.27.22.4.51.41.87 0 .28-.07.52-.21.69-.14.18-.27.28-.4.32s-.24.06-.34.06c-.19 0-.34-.05-.46-.16s-.18-.25-.18-.43c0-.45.25-.76.74-.93-.11-.13-.3-.19-.59-.19-.13 0-.22 0-.28.03-.37.16-.65.48-.83.97-.59 2.17-.88 3.44-.88 3.8 0 .28.08.47.24.59s.33.18.52.18c.36 0 .72-.16 1.08-.49.35-.32.59-.72.72-1.19.03-.1.06-.15.09-.16.03 0 .11-.02.24-.03h.06c.15 0 .22.04.22.12 0 0 0 .06-.03.16-.16.56-.46 1.06-.91 1.49s-.98.65-1.58.65c-.69 0-1.21-.31-1.56-.93-.4.61-.87.91-1.39.91h-.09c-.48 0-.83-.13-1.03-.38-.21-.26-.31-.53-.32-.81 0-.31.09-.57.28-.77s.41-.29.66-.29c.42 0 .63.21.63.62 0 .2-.06.37-.18.52s-.23.25-.34.29c-.11.05-.17.07-.19.07h-.04s.03.04.09.07.14.06.24.1.19.05.28.04c.35 0 .66-.22.91-.66.09-.16.2-.49.34-1s.28-1.04.41-1.59c.14-.55.22-.87.24-.97.05-.27.07-.46.07-.57 0-.28-.07-.47-.22-.59s-.31-.18-.5-.18c-.39 0-.76.16-1.11.47-.34.31-.59.72-.72 1.21-.02.09-.04.14-.07.15-.03 0-.11.02-.24.03h-.21c-.06-.06-.09-.11-.09-.16z"/><path d="m26.73 90.68c0-.15.08-.25.24-.29h9.38c.14.1.21.2.21.29 0 .13-.07.23-.22.29h-9.39c-.14-.07-.21-.17-.21-.29zm0-2.86c0-.13.07-.23.21-.29h9.39c.15.08.22.18.22.29s-.07.2-.21.28h-4.69s-4.69.01-4.69.01c-.16-.05-.24-.15-.24-.29z"/><path d="m47.98 0 .09.09v.41c0 .11-.07.2-.21.28-.76.52-1.38 1.19-1.87 2-.49.82-.82 1.72-.99 2.73 0 0 0 .03-.01.06-.04.28-.06 1.12-.07 2.53v1.61c0 2.38 0 3.58-.01 3.59 0 .04-.05.06-.13.07s-.32.01-.74.01c-.51 0-.78 0-.8-.01-.03 0-.05-.03-.06-.06-.02-.1-.03-1.25-.03-3.46v-1.21c0-.49 0-.83-.01-1.03 0-.97.04-1.72.13-2.25s.29-1.12.62-1.78c.75-1.47 1.88-2.63 3.39-3.48l.19-.1h.52z"/><path d="m48.07 178.41-.09.09h-.52l-.16-.09c-1.22-.67-2.19-1.55-2.92-2.64s-1.14-2.26-1.22-3.51c0-.1-.01-1.05-.01-2.86 0-2.8 0-4.21.01-4.23l.06-.06s.3-.01.81-.01c.41 0 .66 0 .74.01.08 0 .12.03.13.07 0 .02.01 1.21.01 3.58v1.87c0 1.02.02 1.74.06 2.17.04.42.15.89.32 1.41.16.47.35.91.58 1.31s.46.74.71 1.02c.25.27.46.5.65.66.19.17.37.32.56.46s.28.2.27.19c0 0 0 .09.01.29v.25z"/><path d="m43.22 75.86s.34-.01.97-.01c.4 0 .61 0 .63.01.03 0 .05.03.06.06.02.1.03 1.23.03 3.4 0 2.29 0 3.48-.01 3.57-.09 1.31-.47 2.5-1.15 3.58s-1.57 1.96-2.68 2.65l-.21.13.21.13c1.04.65 1.92 1.51 2.63 2.58s1.11 2.29 1.21 3.65c0 .09.01 1.28.01 3.57v3.02c0 .28-.02.43-.07.44h-.01s-.29.01-.8.01-.78 0-.8-.01c-.03 0-.05-.03-.06-.06-.02-.1-.03-1.23-.03-3.39v-2.11c0-1.04-.03-1.86-.1-2.45s-.24-1.21-.52-1.86c-.17-.43-.37-.83-.6-1.21-.24-.37-.46-.68-.68-.93s-.42-.45-.6-.6c-.19-.16-.34-.28-.46-.38l-.18-.15s-.01-.1-.01-.27 0-.26.01-.27c0 0 .1-.09.29-.24s.44-.38.72-.69.58-.69.88-1.12.57-1.01.8-1.72c.23-.72.37-1.48.43-2.28 0-.12.01-1.33.01-3.62s0-3.36.01-3.39l.06-.06z"/><g class="cls-3"><path d="M43.14,40.6V3.29c0-8.15.02-12.76.07-13.83.02-.21.34-.32.97-.32.4,0,.61.11.63.32.04.21.06,1.39.07,3.54,0,3.22.01,19.08.01,47.6v44.38c0,4.29-.02,6.54-.07,6.75h-.01c-.02.21-.29.32-.8.32s-.78-.11-.8-.32c-.04-.21-.06-1.39-.07-3.54,0-3.22-.01-19.08-.01-47.6Z"/></g><g class="cls-2"><path d="m43.14 129.86v-37.31c0-8.15.02-12.76.07-13.83.02-.21.34-.32.97-.32.4 0 .61.11.63.32.04.21.06 1.39.07 3.54 0 3.22.01 19.08.01 47.6v44.38c0 4.29-.02 6.54-.07 6.75h-.01c-.02.21-.29.32-.8.32s-.78-.11-.8-.32c-.04-.21-.06-1.39-.07-3.54 0-3.22-.01-19.08-.01-47.6z"/></g><path d="m51.48 9.05s3-.03 8.92-.03h8.88l.86 1.99c.58 1.36.89 2.07.93 2.15h-.59l-.1-.21c-.21-.4-.48-.79-.83-1.15-.49-.47-1.04-.85-1.64-1.13s-1.29-.5-2.08-.63-1.53-.22-2.23-.25-1.6-.05-2.7-.06h-6.61l.12.16c4.55 6.22 6.84 9.36 6.86 9.41v.09c-.03.03-1.33 1.51-3.89 4.45l-3.89 4.42s1.04.01 3.11.01h2.08c.88 0 1.5 0 1.89.01 1.34 0 2.42-.02 3.24-.07.83-.05 1.65-.15 2.46-.31s1.51-.4 2.08-.72 1.08-.75 1.52-1.28c.21-.26.41-.61.6-1.06h.59s-.03.11-.1.31-.19.52-.37.96-.33.85-.46 1.24l-.86 2.28h-8.86c-5.92.01-8.89 0-8.92-.01-.06-.02-.09-.06-.09-.13 0-.02 0-.05.03-.09l7.86-8.99s-.16-.23-.49-.66c-.32-.43-.84-1.14-1.55-2.12s-1.35-1.86-1.92-2.62l-3.92-5.38v-.22c-.01-.21 0-.32.06-.35z"/><path d="m51.66 36.06s.02-.1.03-.17.06-.2.13-.4c.07-.19.14-.36.21-.49s.18-.26.34-.39c.16-.12.32-.18.48-.18.25 0 .46.06.63.19.17.12.27.24.31.35s.06.18.06.22c0 .01 0 .02.01.02l.11-.11c.42-.44.91-.67 1.45-.67.38 0 .68.09.91.28s.35.46.35.82-.13.91-.4 1.64-.4 1.17-.4 1.32c0 .18.06.27.18.27.04 0 .07 0 .09-.01.2-.03.38-.17.54-.4s.28-.51.36-.83c.01-.06.08-.08.21-.08.14 0 .21.03.21.08 0 0-.01.06-.04.16-.06.2-.13.4-.23.59s-.26.39-.48.58-.46.29-.72.28c-.33 0-.56-.09-.71-.28s-.22-.38-.22-.58c0-.13.13-.55.38-1.25s.38-1.23.39-1.58c0-.41-.15-.61-.46-.61h-.05c-.6 0-1.1.35-1.51 1.05l-.07.12-.34 1.4c-.23.91-.36 1.4-.4 1.47-.09.19-.24.28-.45.28-.09 0-.16-.02-.22-.06s-.09-.08-.11-.12-.03-.08-.02-.1c0-.09.13-.66.4-1.7.26-1.04.4-1.61.42-1.7 0-.03.01-.11.01-.24 0-.27-.08-.41-.25-.41-.26 0-.48.35-.66 1.04-.04.14-.06.21-.06.22-.01.04-.08.06-.2.06h-.15s-.06-.07-.06-.09z"/><path d="m58.29 37.46c0-.1.06-.17.17-.21h6.63c.1.07.15.14.15.21 0 .09-.05.16-.16.21h-6.64c-.1-.05-.15-.12-.15-.21zm0-2.03c0-.09.05-.16.15-.21h6.64c.1.06.16.12.16.21 0 .08-.05.14-.15.2h-3.32s-3.32.01-3.32.01c-.11-.03-.17-.1-.17-.21z"/><path d="m68.04 33.03-.14.05c-.1.03-.24.07-.42.1s-.38.06-.6.07h-.2v-.48h.2c.33-.01.63-.07.91-.16s.47-.17.58-.25.21-.15.29-.23c.01-.02.06-.03.13-.03.06 0 .12.02.18.06v6.24c.06.05.1.08.14.09.03.01.12.03.25.04s.35.02.65.02h.27v.48h-.11c-.15-.02-.7-.03-1.66-.03s-1.49.01-1.64.03h-.13v-.48h.67c.11 0 .2 0 .26-.01.06 0 .12-.02.17-.03s.08-.02.08-.02.03-.02.06-.05.06-.05.06-.04v-5.39z"/><path d="m56.98 3.85c0 .48.14.91.41 1.3s.65.58 1.13.58c.82 0 1.57-.56 2.26-1.67l-.32-.42c-.42-.55-.74-.91-.95-1.08-.34-.3-.69-.45-1.05-.45-.43 0-.78.17-1.05.51s-.41.75-.42 1.22zm8.5-.03c0-.47-.13-.9-.4-1.29-.26-.39-.64-.58-1.13-.58-.15 0-.29.02-.43.05s-.27.08-.4.15c-.13.06-.24.13-.35.2s-.21.15-.3.25-.18.18-.26.26-.15.16-.21.26-.11.17-.16.23-.09.11-.11.18l-.05.08.32.42c.22.28.38.49.5.62.12.14.26.29.44.46.17.17.35.28.52.34s.35.1.53.1c.43 0 .79-.17 1.06-.51.28-.34.42-.75.42-1.22zm-8.88 0c0-.61.19-1.15.58-1.62s.89-.71 1.49-.72c.61 0 1.19.21 1.72.64.26.22.52.49.77.81l.15.2.07-.1c.72-1.03 1.53-1.54 2.43-1.54.6 0 1.09.24 1.47.71s.58 1.03.58 1.67c0 .6-.19 1.14-.57 1.61s-.89.72-1.52.73c-.6 0-1.16-.21-1.7-.64-.26-.22-.52-.49-.77-.81l-.15-.2-.07.1c-.72 1.03-1.53 1.54-2.43 1.54-.6 0-1.09-.24-1.47-.71s-.58-1.03-.58-1.67z"/><path d="m78.98 8.88c0-.68.05-1.32.15-1.93s.21-1.13.34-1.58c.13-.44.31-.87.55-1.3.24-.42.42-.75.56-.99s.34-.49.62-.77.44-.44.49-.5.17-.16.37-.31h.25c.14 0 .21.04.21.13 0 .03-.08.13-.25.31s-.37.44-.6.78-.48.77-.72 1.27c-.25.5-.45 1.18-.62 2.03s-.25 1.8-.25 2.84.08 1.98.25 2.83c.17.84.37 1.53.6 2.05s.48.94.72 1.27c.25.32.45.58.62.78s.25.3.25.31c0 .09-.07.13-.22.13h-.24l-.41-.35c-.92-.83-1.6-1.88-2.02-3.12-.42-1.25-.63-2.54-.63-3.89z"/><path d="m86.47 4.05-.19.07c-.14.05-.33.1-.59.15s-.54.08-.86.1h-.28v-.68h.28c.46-.02.89-.09 1.28-.22s.67-.25.83-.35c.16-.11.29-.22.41-.32.02-.03.08-.04.18-.04.09 0 .17.03.25.09v8.82c.08.07.14.11.19.13s.17.04.35.06.49.03.91.03h.38v.68h-.16c-.21-.03-.99-.04-2.35-.04s-2.11.01-2.32.04h-.18v-.68h.94c.16 0 .28 0 .37-.01.09 0 .17-.02.24-.04s.11-.03.12-.03.04-.02.09-.07.08-.07.09-.06v-7.62z"/><path d="m95.22 9.07v-.19c0-.13.07-.23.21-.29h8.57c.15.08.22.18.22.29s-.07.22-.22.29h-8.57c-.14-.07-.21-.17-.21-.29v.19z"/><path d="m109.5 8.3c.07-.41.33-.89.8-1.43.46-.54 1.03-.82 1.71-.83.34 0 .66.09.94.27.29.18.5.4.63.66.41-.62.91-.93 1.49-.93.36 0 .68.11.94.32.27.22.4.51.41.87 0 .28-.07.52-.21.69-.14.18-.27.28-.4.32s-.24.06-.34.06c-.19 0-.34-.05-.46-.16s-.18-.25-.18-.43c0-.45.25-.76.74-.93-.11-.13-.3-.19-.59-.19-.13 0-.22 0-.28.03-.37.16-.65.48-.83.97-.59 2.17-.88 3.44-.88 3.8 0 .28.08.47.24.59s.33.18.52.18c.36 0 .72-.16 1.08-.49.35-.32.59-.72.72-1.19.03-.1.06-.15.09-.16.03 0 .11-.02.24-.03h.06c.15 0 .22.04.22.12 0 0 0 .06-.03.16-.16.56-.46 1.06-.91 1.49s-.98.65-1.58.65c-.69 0-1.21-.31-1.56-.93-.4.61-.87.91-1.39.91h-.09c-.48 0-.83-.13-1.03-.38s-.31-.53-.32-.81c0-.31.09-.57.28-.77s.41-.29.66-.29c.42 0 .63.21.63.62 0 .2-.06.37-.18.52s-.23.25-.34.29c-.11.05-.17.07-.19.07h-.04s.03.04.09.07.14.06.24.1.19.05.28.04c.35 0 .66-.22.91-.66.09-.16.2-.49.34-1s.28-1.04.41-1.59c.14-.55.22-.87.24-.97.05-.27.07-.46.07-.57 0-.28-.07-.47-.22-.59s-.31-.18-.5-.18c-.39 0-.76.16-1.11.47-.34.31-.59.72-.72 1.21-.02.09-.04.14-.07.15-.03 0-.11.02-.24.03h-.21c-.06-.06-.09-.11-.09-.16z"/><path d="m118.05 1.53h.06s.1-.01.15-.01h.18l.41.35c.92.83 1.6 1.88 2.02 3.12.42 1.25.63 2.54.63 3.89 0 .67-.05 1.31-.15 1.93s-.21 1.14-.34 1.58c-.13.43-.31.86-.55 1.3-.24.43-.42.76-.56.99s-.34.48-.6.75c-.27.28-.42.44-.47.49s-.16.14-.34.28l-.06.06h-.34s-.05-.01-.07-.04-.03-.07-.04-.13c0 0 .06-.07.16-.19 1.52-1.58 2.29-3.91 2.29-7s-.76-5.42-2.29-7c-.1-.12-.15-.18-.16-.19 0-.08.02-.13.07-.16z"/><path d="m123.12 4.22s.02-.1.03-.17.06-.2.13-.4c.07-.19.14-.36.21-.49s.18-.26.34-.39c.16-.12.32-.18.48-.18.25 0 .46.06.63.19.17.12.27.24.31.35s.06.18.06.22c0 .01 0 .02.01.02l.11-.11c.42-.44.91-.67 1.45-.67.38 0 .68.09.91.28s.35.46.35.82-.13.91-.4 1.64-.4 1.17-.4 1.32c0 .18.06.27.18.27.04 0 .07 0 .09-.01.2-.03.38-.17.54-.4s.28-.51.36-.83c.01-.06.08-.08.21-.08.14 0 .21.03.21.08 0 0-.01.06-.04.16-.06.2-.13.4-.23.59s-.26.39-.48.58-.46.29-.72.28c-.33 0-.56-.09-.71-.28s-.22-.38-.22-.58c0-.13.13-.55.38-1.25s.38-1.23.39-1.58c0-.41-.15-.61-.46-.61h-.05c-.6 0-1.1.35-1.51 1.05l-.07.12-.34 1.4c-.23.91-.36 1.4-.4 1.47-.09.19-.24.28-.45.28-.09 0-.16-.02-.22-.06s-.09-.08-.11-.12-.03-.08-.02-.1c0-.09.13-.66.4-1.7.26-1.04.4-1.61.42-1.7 0-.03.01-.11.01-.24 0-.27-.08-.41-.25-.41-.26 0-.48.35-.66 1.04-.04.14-.06.21-.06.22-.01.04-.08.06-.2.06h-.15s-.06-.07-.06-.09z"/><path d="m94.82 29.64v-.19c0-.13.07-.23.21-.29h8.57c.15.08.22.18.22.29s-.07.22-.22.29h-8.57c-.14-.07-.21-.17-.21-.29v.19z"/><path d="m105.37 28.9c0-.06.02-.14.04-.24s.08-.28.18-.56.2-.51.29-.69c.1-.19.26-.37.49-.55s.45-.26.68-.25c.35 0 .65.09.88.27.24.18.38.34.44.5s.09.26.09.31c0 .02 0 .03.01.03l.16-.16c.6-.63 1.28-.94 2.05-.94.53 0 .96.13 1.28.4s.49.65.5 1.16c0 .51-.18 1.28-.56 2.31s-.57 1.66-.56 1.87c0 .26.08.38.25.38.06 0 .1 0 .13-.01.29-.05.54-.24.77-.56s.4-.72.52-1.18c.02-.08.12-.12.29-.12.2 0 .29.04.29.12 0 0-.02.08-.06.22-.08.28-.19.56-.32.84s-.36.55-.68.83c-.31.28-.65.41-1.02.4-.46 0-.8-.13-1-.4-.21-.27-.31-.54-.31-.83 0-.19.18-.78.53-1.77s.54-1.74.55-2.24c0-.58-.22-.87-.65-.87h-.07c-.85 0-1.56.5-2.14 1.49l-.1.18-.49 1.97c-.32 1.29-.51 1.98-.56 2.08-.13.27-.34.4-.63.4-.13 0-.23-.03-.31-.09s-.13-.12-.16-.18-.04-.11-.03-.15c0-.13.19-.93.56-2.4s.57-2.27.59-2.4c0-.05.01-.16.01-.34 0-.38-.12-.57-.35-.57-.37 0-.68.49-.93 1.47-.06.2-.09.3-.09.31-.02.06-.11.09-.28.09h-.21c-.06-.06-.09-.1-.09-.13z"/><rect x="76.12" y="18.9" width="55.26" height=".88"/><path d="m154.5 18.76c.07-.41.33-.89.8-1.43.46-.54 1.03-.82 1.71-.83.34 0 .66.09.94.27.29.18.5.4.63.66.41-.62.91-.93 1.49-.93.36 0 .68.11.94.32.27.22.4.51.41.87 0 .28-.07.52-.21.69-.14.18-.27.28-.4.32s-.24.06-.34.06c-.19 0-.34-.05-.46-.16s-.18-.25-.18-.43c0-.45.25-.76.74-.93-.11-.13-.3-.19-.59-.19-.13 0-.22 0-.28.03-.37.16-.65.48-.83.97-.59 2.17-.88 3.44-.88 3.8 0 .27.08.47.24.59s.33.18.52.18c.36 0 .72-.16 1.08-.49.35-.32.59-.72.72-1.19.03-.1.06-.15.09-.16.03 0 .11-.02.24-.03h.06c.15 0 .22.04.22.12 0 0 0 .06-.03.16-.16.56-.46 1.06-.91 1.49s-.98.65-1.58.65c-.69 0-1.21-.31-1.56-.93-.4.61-.87.91-1.39.91h-.09c-.48 0-.83-.13-1.03-.38s-.31-.53-.32-.81c0-.31.09-.57.28-.77s.41-.29.66-.29c.42 0 .63.21.63.62 0 .2-.06.37-.18.52s-.23.25-.34.29c-.11.05-.17.07-.19.07h-.04s.03.04.09.07.14.06.24.1.19.05.28.04c.35 0 .66-.22.91-.66.09-.16.2-.49.34-1s.28-1.04.41-1.59c.14-.55.22-.87.24-.97.05-.27.07-.46.07-.57 0-.27-.07-.47-.22-.59s-.31-.18-.5-.18c-.39 0-.76.16-1.11.47-.34.31-.59.72-.72 1.21-.02.09-.04.14-.07.15-.03 0-.11.02-.24.03h-.21c-.06-.06-.09-.11-.09-.16z"/><path d="m167.51 19.34c0-1.2.4-2.18 1.21-2.95s1.76-1.2 2.86-1.31h.25c.16 0 .36 0 .62-.01h.74 1.46c.15.08.22.18.22.29 0 .09-.06.18-.19.28h-1.53c-1.09.02-1.76.05-2.02.1-.48.12-.91.29-1.28.53s-.66.48-.87.72c-.21.25-.38.52-.53.81s-.24.53-.27.71-.05.34-.07.5v.03h6.55c.15.08.22.18.22.29s-.07.22-.22.29h-6.55v.03c0 .21.05.46.15.75s.26.61.49.96c.23.34.54.66.94.94s.88.49 1.43.6c.27.06.94.09 2.04.1h1.53c.13.1.19.2.19.29 0 .12-.07.22-.22.29h-1.8c-.18 0-.32 0-.43.01-1.52 0-2.73-.42-3.61-1.27-.87-.81-1.3-1.81-1.3-3.02z"/><path d="m181.59 19.34c0-.68.05-1.32.15-1.93s.21-1.13.34-1.58c.13-.44.31-.87.55-1.3.24-.42.42-.75.56-.99s.34-.49.62-.77.44-.44.49-.5.17-.16.37-.31h.25c.14 0 .21.04.21.13 0 .03-.08.13-.25.31s-.37.44-.6.78c-.24.34-.48.77-.72 1.27-.25.5-.45 1.18-.62 2.03s-.25 1.8-.25 2.84.08 1.98.25 2.83c.17.84.37 1.53.6 2.05.24.52.48.94.72 1.27.25.32.45.58.62.78s.25.3.25.31c0 .09-.07.13-.22.13h-.24l-.41-.35c-.92-.83-1.6-1.88-2.02-3.12s-.63-2.54-.63-3.89z"/><path d="m190.67 14.23c-.29-.31-.64-.47-1.05-.47s-.77.16-1.06.47c-.25.26-.41.61-.49 1.06s-.12 1.39-.12 2.83c0 1.55.04 2.57.12 3.06s.26.88.53 1.16c.28.29.61.44 1.02.44s.73-.15 1-.44c.29-.29.46-.71.53-1.24s.11-1.53.12-2.99c0-1.42-.04-2.36-.12-2.81s-.24-.81-.49-1.08zm-3.32.17c.55-.8 1.3-1.19 2.26-1.19.47 0 .94.13 1.42.38.47.26.86.71 1.15 1.36.36.82.55 1.93.55 3.36 0 1.52-.21 2.69-.63 3.49-.2.41-.47.74-.81.99s-.64.4-.9.46-.51.09-.75.1c-.26 0-.51-.03-.77-.09s-.56-.22-.9-.47-.61-.58-.81-.99c-.42-.81-.63-1.97-.63-3.49 0-1.71.28-3.01.84-3.9z"/><path d="m194.46 22.51v-.37c0-.25.08-.46.24-.63.16-.18.37-.27.63-.27s.52.12.74.37.33.68.34 1.3c0 .34-.04.68-.13 1s-.19.6-.31.84-.25.44-.38.6c-.14.17-.26.3-.35.4-.1.1-.16.14-.19.13-.04 0-.1-.04-.19-.13s-.13-.15-.13-.19.05-.12.16-.24.23-.27.37-.44c.14-.18.27-.42.38-.74.12-.31.2-.67.24-1.08v-.18h-.01s-.04.03-.07.04-.06.02-.09.04-.07.03-.13.03-.12 0-.18.01c-.27 0-.48-.08-.65-.25l-.27-.27z"/><path d="m201.48 16.7c-.27 0-.48-.09-.63-.27-.16-.18-.24-.39-.24-.65 0-.7.26-1.3.78-1.81s1.17-.77 1.95-.77c.89 0 1.64.28 2.24.83s.9 1.26.91 2.14c0 .42-.1.83-.29 1.21-.2.38-.43.72-.71 1s-.67.65-1.18 1.09c-.35.3-.85.76-1.47 1.36l-.87.83h1.12c1.54.01 2.36 0 2.46-.06.07-.02.19-.46.35-1.31v-.04h.59v.04s-.07.48-.19 1.34-.19 1.32-.22 1.36v.04h-5.47v-.46c0-.07.03-.14.09-.22s.21-.25.44-.52c.29-.31.53-.59.74-.83.09-.1.26-.28.5-.55s.41-.45.5-.55.23-.26.43-.49.33-.39.41-.5.19-.26.34-.44c.15-.19.25-.34.31-.47s.13-.27.22-.43.15-.31.19-.47.07-.3.1-.44.04-.3.04-.49c0-.62-.17-1.15-.5-1.61-.33-.45-.81-.68-1.43-.68-.32 0-.61.08-.86.25s-.42.33-.52.49-.15.25-.15.28c0 0 .02.01.07.01.18 0 .36.07.55.21s.28.36.28.68c0 .25-.08.45-.24.62s-.38.26-.66.27z"/><polygon points="207.57 12.56 207.57 11.97 209.59 11.97 209.59 26.7 207.57 26.7 207.57 26.12 209 26.12 209 12.56"/><path d="m52.37 89.36c0-.1.02-.21.06-.34s.1-.19.18-.19c0 0 .36-.02 1.06-.07s1.06-.08 1.08-.09c.12 0 .18.04.18.12 0 .07-.25 1.1-.74 3.08-.49 1.94-.74 2.95-.74 3.02.19-.1.33-.19.43-.28.24-.18.58-.49 1.02-.93s.79-.74 1.03-.9c.39-.27.77-.4 1.12-.4.29 0 .53.09.69.28.17.19.26.45.27.8 0 .25-.03.45-.1.62s-.16.29-.28.37-.22.13-.31.16-.18.04-.27.04c-.2 0-.35-.05-.47-.16s-.18-.25-.18-.43c0-.25.08-.45.24-.6s.31-.26.47-.31l.24-.04c-.12-.12-.24-.18-.35-.18h-.06c-.31.03-.62.15-.93.37-.3.22-.66.53-1.08.94-.41.41-.74.71-.97.9.02 0 .09.02.22.04s.25.05.35.09c.11.04.24.08.38.12.15.04.28.11.4.21s.23.19.32.27c.1.08.18.21.25.38.07.18.1.34.09.49 0 .17-.02.37-.07.6s-.08.43-.09.59c0 .39.13.59.4.59.47 0 .86-.58 1.15-1.75.02-.08.12-.12.29-.12h.06c.16 0 .24.04.24.13 0 .05-.01.12-.04.21-.4 1.38-.98 2.08-1.74 2.08-.44 0-.8-.13-1.08-.38-.28-.26-.41-.62-.41-1.1 0-.18.01-.33.04-.46s.04-.25.04-.35c0-.22-.07-.4-.21-.56s-.31-.27-.52-.34-.37-.12-.5-.16-.22-.05-.27-.04h-.03c-.12.41-.22.81-.31 1.19s-.16.67-.21.85c-.05.19-.09.37-.13.55s-.07.29-.1.35-.06.12-.1.19-.09.11-.16.13c-.13.09-.27.13-.41.13-.17 0-.29-.05-.38-.15s-.13-.18-.13-.25c0-.1.18-.88.55-2.36.36-1.47.72-2.92 1.08-4.35l.55-2.14c0-.13-.02-.21-.1-.24s-.27-.05-.58-.07h-.27s-.06-.01-.1-.04-.05-.06-.04-.1z"/><path d="m61.35 98.21h.21c.38 0 .61-.07.69-.21v-.94c0-.19 0-.4.01-.63v-.74-.81-.84-3.14c0-.26 0-.47-.01-.65v-.25c-.03-.19-.1-.31-.21-.37s-.33-.1-.66-.13h-.27v-.34c0-.23 0-.34.03-.34h.15c.1-.02.24-.03.43-.04.19 0 .37-.02.55-.03.17 0 .35-.02.55-.03.2 0 .34-.02.44-.04s.15-.02.16-.01h.04v4.64c0 3.11 0 4.68.01 4.7.04.08.1.13.18.16.21.03.45.04.72.04h.24v.68h-.46c-.23-.02-.47-.03-.72-.03s-.44 0-.56-.01h-.56c-.26 0-.5.02-.74.03h-.34s-.12.01-.12.01v-.68h.24z"/><path d="m65.44 98.21h.21c.38 0 .61-.07.69-.21v-.91c0-.17 0-.36.01-.57s0-.42 0-.62v-.97c0-.34 0-.63-.01-.87v-.34c-.03-.19-.1-.31-.21-.37s-.33-.1-.66-.13h-.27v-.34c0-.23 0-.34.03-.34h.15c.1-.02.24-.03.41-.04.18 0 .36-.02.55-.03.17 0 .34-.02.53-.03.19 0 .33-.02.43-.04s.15-.02.16-.01h.04v.59c0 .37 0 .56.01.56s.03-.02.07-.07.1-.12.18-.22.17-.19.28-.27.25-.17.43-.28.36-.19.56-.24.45-.07.75-.07c1.12.04 1.75.59 1.87 1.66 0 .07.01.75.01 2.05v1.27c0 .37 0 .59.03.66.02.07.07.12.16.15.21.03.45.04.72.04h.24v.68h-.47c-.23-.02-.47-.03-.74-.03s-.45 0-.56-.01c-1.01 0-1.56.01-1.65.04h-.12v-.68h.24c.6 0 .9-.08.9-.24 0-.02.01-.7.01-2.03s-.02-2.03-.03-2.11c-.06-.28-.16-.48-.29-.62s-.26-.22-.35-.25c-.1-.03-.23-.04-.38-.03-.44 0-.83.17-1.17.5-.27.27-.43.54-.5.81-.07.28-.11.68-.12 1.22v1.83c0 .29 0 .49.01.59 0 .1.02.16.04.19s.06.06.13.09c.21.03.45.04.72.04h.24v.68h-.46c-.24-.02-.49-.03-.75-.03s-.45 0-.56-.01c-1.01 0-1.56.01-1.65.04h-.12v-.68h.24z"/><path d="m77.1 92.57c-.27 0-.48-.09-.63-.27-.16-.18-.24-.39-.24-.65 0-.7.26-1.3.78-1.81s1.17-.77 1.95-.77c.89 0 1.64.27 2.24.83.6.55.9 1.26.91 2.14 0 .42-.1.83-.29 1.21-.2.38-.43.72-.71 1s-.67.65-1.18 1.09c-.35.3-.85.76-1.47 1.36l-.87.83h1.12c1.54.01 2.36 0 2.46-.06.07-.02.19-.46.35-1.31v-.04h.59v.04s-.07.48-.19 1.34-.19 1.32-.22 1.36v.04h-5.47v-.46c0-.07.03-.14.09-.22s.21-.25.44-.52c.29-.31.53-.59.74-.83.09-.1.26-.28.5-.55.25-.27.41-.45.5-.55s.23-.26.43-.49.33-.39.41-.5.19-.26.34-.44.25-.34.31-.47.13-.27.22-.43.15-.31.19-.47.07-.3.1-.44.04-.3.04-.49c0-.62-.17-1.15-.5-1.61-.33-.45-.81-.68-1.43-.68-.32 0-.61.08-.86.25s-.42.33-.52.49-.15.25-.15.28c0 0 .02.01.07.01.18 0 .36.07.55.21s.28.36.28.68c0 .25-.08.45-.24.62s-.38.26-.66.27z"/><path d="m86.97 95.4v-.19c0-.13.07-.23.21-.29h4.41v-4.42c.11-.13.21-.19.29-.19.13 0 .23.07.29.22v4.39h4.4c.15.08.22.18.22.29s-.07.22-.22.29h-4.4v4.39c-.08.14-.17.21-.27.21h-.06c-.12 0-.21-.07-.27-.21v-4.39h-4.41c-.14-.07-.21-.17-.21-.29v.19z"/><path d="m101.51 98.21h.21c.38 0 .61-.07.69-.21v-.94c0-.19 0-.4.01-.63v-.74-.81-.84-3.14c0-.26 0-.47-.01-.65v-.25c-.03-.19-.1-.31-.21-.37s-.33-.1-.66-.13h-.27v-.34c0-.23 0-.34.03-.34h.15c.1-.02.24-.03.43-.04s.37-.02.55-.03c.17 0 .35-.02.55-.03.2 0 .34-.02.44-.04s.15-.02.16-.01h.04v4.64c0 3.11 0 4.68.01 4.7.04.08.1.13.18.16.21.03.45.04.72.04h.24v.68h-.46c-.23-.02-.47-.03-.72-.03s-.44 0-.56-.01h-.56s-.5.02-.74.03h-.34s-.12.01-.12.01v-.68h.24z"/><path d="m105.6 98.21h.21c.38 0 .61-.07.69-.21v-.91c0-.17 0-.36.01-.57v-.62-.97c0-.34 0-.63-.01-.87v-.34c-.03-.19-.1-.31-.21-.37s-.33-.1-.66-.13h-.27v-.34c0-.23 0-.34.03-.34h.15c.1-.02.24-.03.41-.04s.36-.02.55-.03c.17 0 .34-.02.53-.03.19 0 .33-.02.43-.04s.15-.02.16-.01h.04v.59c0 .37 0 .56.01.56s.03-.02.07-.07.1-.12.18-.22.17-.19.28-.27.25-.17.43-.28.36-.19.56-.24.45-.07.75-.07c1.12.04 1.75.59 1.87 1.66 0 .07.01.75.01 2.05v1.27c0 .37 0 .59.03.66.02.07.07.12.16.15.21.03.45.04.72.04h.24v.68h-.47c-.23-.02-.47-.03-.74-.03s-.45 0-.56-.01c-1.01 0-1.56.01-1.65.04h-.12v-.68h.24c.6 0 .9-.08.9-.24 0-.02.01-.7.01-2.03s-.02-2.03-.03-2.11c-.06-.28-.16-.48-.29-.62s-.26-.22-.35-.25-.23-.04-.38-.03c-.44 0-.83.17-1.17.5-.27.27-.43.54-.5.81-.07.28-.11.68-.12 1.22v1.83c0 .29 0 .49.01.59s.02.16.04.19.06.06.13.09c.21.03.45.04.72.04h.24v.68h-.46c-.24-.02-.49-.03-.75-.03s-.45 0-.56-.01c-1.01 0-1.56.01-1.65.04h-.12v-.68h.24z"/><path d="m120.61 94.1v-.09c0-.73-.3-1.09-.9-1.09-.17 0-.34.04-.52.12s-.34.18-.49.31-.28.25-.38.35c-.11.11-.2.22-.27.32l-.09.12-.31 1.27c-.22.84-.32 1.44-.32 1.8 0 .47.12.83.35 1.06.16.16.35.24.59.24.32 0 .65-.16.99-.47.25-.23.44-.5.59-.83.15-.32.31-.84.49-1.55s.27-1.23.27-1.56zm-3.88-4.74c0-.1.02-.21.06-.34s.1-.19.18-.19c0 0 .36-.02 1.06-.07s1.06-.08 1.08-.09c.12 0 .18.04.18.13s-.17.79-.5 2.11c-.08.33-.16.68-.25 1.03s-.16.62-.22.8l-.06.28s.03.01.09-.04c.48-.39.98-.59 1.49-.59.61 0 1.1.23 1.47.68s.57 1.02.58 1.71c0 1.09-.39 2.08-1.17 2.96s-1.61 1.33-2.51 1.33c-.49 0-.94-.19-1.34-.56s-.61-.98-.62-1.81v-.13c0-.21.04-.49.12-.85s.32-1.33.72-2.9c.49-1.93.74-2.96.74-3.08s-.19-.19-.56-.21h-.38s-.06-.01-.1-.04-.05-.06-.04-.1z"/><path d="m141.5 73.21c.07-.41.33-.89.8-1.43.46-.54 1.03-.82 1.71-.83.34 0 .66.09.94.27.29.18.5.4.63.66.41-.62.91-.93 1.49-.93.36 0 .68.11.94.32.27.22.4.51.41.87 0 .28-.07.52-.21.69-.14.18-.27.28-.4.32s-.24.06-.34.06c-.19 0-.34-.05-.46-.16s-.18-.25-.18-.43c0-.45.25-.76.74-.93-.11-.13-.3-.19-.59-.19-.13 0-.22 0-.28.03-.37.16-.65.48-.83.97-.59 2.17-.88 3.44-.88 3.8 0 .27.08.47.24.59s.33.18.52.18c.36 0 .72-.16 1.08-.49.35-.32.59-.72.72-1.19.03-.1.06-.15.09-.16.03 0 .11-.02.24-.03h.06c.15 0 .22.04.22.12 0 0 0 .06-.03.16-.16.56-.46 1.06-.91 1.49s-.98.65-1.58.65c-.69 0-1.21-.31-1.56-.93-.4.61-.87.91-1.39.91h-.09c-.48 0-.83-.13-1.03-.38s-.31-.53-.32-.81c0-.31.09-.57.28-.77s.41-.29.66-.29c.42 0 .63.21.63.62 0 .2-.06.37-.18.52s-.23.25-.34.29c-.11.05-.17.07-.19.07h-.04s.03.04.09.07.14.06.24.1.19.05.28.04c.35 0 .66-.22.91-.66.09-.16.2-.49.34-1s.28-1.04.41-1.59.22-.87.24-.97c.05-.27.07-.46.07-.57 0-.28-.07-.47-.22-.59s-.31-.18-.5-.18c-.39 0-.76.16-1.11.47-.34.31-.59.72-.72 1.21-.02.09-.04.14-.07.15-.03 0-.11.02-.24.03h-.21c-.06-.06-.09-.11-.09-.16z"/><path d="m154.51 73.79c0-1.2.4-2.18 1.21-2.95s1.76-1.2 2.86-1.31h.25c.16 0 .36 0 .62-.01h.74 1.46c.15.08.22.18.22.29 0 .09-.06.18-.19.28h-1.53c-1.09.02-1.76.05-2.02.1-.48.12-.91.29-1.28.53s-.66.48-.87.72c-.21.25-.38.52-.53.81s-.24.53-.27.71-.05.34-.07.5v.03h6.55c.15.08.22.18.22.29s-.07.22-.22.29h-6.55v.03c0 .21.05.46.15.75s.26.61.49.96c.23.34.54.66.94.94s.88.49 1.43.6c.27.06.94.09 2.04.1h1.53c.13.1.19.2.19.29 0 .12-.07.22-.22.29h-1.8c-.18 0-.32 0-.43.01-1.52 0-2.73-.42-3.61-1.27-.87-.81-1.3-1.81-1.3-3.02z"/><path d="m168.59 73.79c0-.68.05-1.32.15-1.93s.21-1.13.34-1.58c.13-.44.31-.87.55-1.3s.42-.75.56-.99.34-.49.62-.77.44-.44.49-.5.17-.16.37-.31h.25c.14 0 .21.04.21.13 0 .03-.08.13-.25.31s-.37.44-.6.78c-.24.34-.48.77-.72 1.27-.25.5-.45 1.18-.62 2.03s-.25 1.8-.25 2.84.08 1.98.25 2.83c.17.84.37 1.53.6 2.05.24.52.48.94.72 1.27.25.32.45.58.62.78s.25.3.25.31c0 .09-.07.13-.22.13h-.24l-.41-.35c-.92-.83-1.6-1.88-2.02-3.12-.42-1.25-.63-2.54-.63-3.89z"/><path d="m174.55 71.15c-.27 0-.48-.09-.63-.27s-.24-.39-.24-.65c0-.7.26-1.3.78-1.81s1.17-.77 1.95-.77c.89 0 1.64.27 2.24.83.6.55.9 1.26.91 2.14 0 .42-.1.83-.29 1.21-.2.38-.43.72-.71 1s-.67.65-1.18 1.09c-.35.3-.85.76-1.47 1.36l-.87.83h1.12c1.54.01 2.36 0 2.46-.06.07-.02.19-.46.35-1.31v-.04h.59v.04s-.07.48-.19 1.34-.19 1.32-.22 1.36v.04h-5.47v-.46c0-.07.03-.14.09-.22s.21-.25.44-.52c.29-.31.53-.59.74-.83.09-.1.26-.28.5-.55.25-.27.41-.45.5-.55s.23-.26.43-.49.33-.39.41-.5.19-.26.34-.44c.15-.19.25-.34.31-.47s.13-.27.22-.43.15-.31.19-.47.07-.3.1-.44.04-.3.04-.49c0-.62-.17-1.15-.5-1.61-.33-.45-.81-.68-1.43-.68-.32 0-.61.08-.86.25s-.42.33-.52.49-.15.25-.15.28c0 0 .02.01.07.01.18 0 .36.07.55.21s.28.36.28.68c0 .25-.08.45-.24.62s-.38.26-.66.27z"/><path d="m181.46 76.96v-.37c0-.25.08-.46.24-.63s.37-.27.63-.27.52.12.74.37.33.68.34 1.3c0 .34-.04.68-.13 1s-.19.6-.31.84-.25.44-.38.6c-.14.17-.26.3-.35.4-.1.1-.16.14-.19.13-.04 0-.1-.04-.19-.13s-.13-.15-.13-.19.05-.12.16-.24.23-.27.37-.44.27-.42.38-.74c.12-.31.2-.67.24-1.08v-.18h-.01s-.04.03-.07.04-.06.02-.09.04-.07.03-.13.03-.12 0-.18.01c-.27 0-.48-.08-.65-.25l-.27-.27z"/><path d="m187.7 73.98v-.19c0-.13.07-.23.21-.29h4.41v-4.42c.11-.13.21-.19.29-.19.13 0 .23.07.29.22v4.39h4.4c.15.08.22.18.22.29s-.07.22-.22.29h-4.4v4.39c-.08.14-.17.21-.27.21h-.06c-.12 0-.21-.07-.27-.21v-4.39h-4.41c-.14-.07-.21-.17-.21-.29v.19z"/><path d="m199.7 74.32c0 .68.19 1.29.58 1.84.38.55.91.83 1.59.83 1.16 0 2.23-.79 3.2-2.36l-.46-.59c-.6-.78-1.05-1.29-1.34-1.53-.48-.42-.98-.63-1.49-.63-.61 0-1.11.24-1.49.72s-.58 1.06-.59 1.72zm12.02-.05c0-.67-.19-1.28-.56-1.83s-.9-.83-1.59-.83c-.21 0-.41.02-.6.07-.2.05-.38.12-.56.21s-.34.18-.5.28-.3.22-.43.35-.25.26-.37.37-.22.23-.29.37c-.08.14-.15.25-.22.32-.07.08-.12.16-.16.25l-.07.12.46.59c.3.39.54.69.71.88.17.2.37.41.62.65s.49.4.74.49.5.14.75.15c.61 0 1.11-.24 1.5-.72s.59-1.06.59-1.72zm-12.57 0c0-.86.28-1.63.83-2.3s1.25-1.01 2.11-1.02c.87 0 1.68.3 2.43.9.37.3.74.69 1.09 1.15l.21.28.1-.15c1.02-1.45 2.17-2.18 3.44-2.18.85 0 1.54.33 2.08 1s.82 1.45.83 2.36c0 .84-.27 1.61-.81 2.28-.54.68-1.26 1.02-2.15 1.03-.85 0-1.65-.3-2.4-.9-.37-.3-.74-.69-1.09-1.15l-.21-.28-.1.15c-1.02 1.45-2.17 2.18-3.44 2.18-.85 0-1.54-.33-2.08-1s-.82-1.45-.83-2.36z"/><path d="m213.98 66.44h.06s.1-.01.15-.01h.18l.41.35c.92.83 1.6 1.88 2.02 3.12.42 1.25.63 2.54.63 3.89 0 .67-.05 1.31-.15 1.93s-.21 1.14-.34 1.58c-.13.43-.31.86-.55 1.3s-.42.76-.56.99-.34.48-.6.75-.42.44-.47.49-.16.14-.34.28l-.06.06h-.34s-.05-.01-.07-.04-.03-.07-.04-.13c0 0 .06-.07.16-.19 1.52-1.58 2.29-3.91 2.29-7s-.76-5.42-2.29-7c-.1-.12-.15-.18-.16-.19 0-.08.02-.13.07-.16z"/><path d="m142.52 89.36c0-.1.02-.21.06-.34s.1-.19.18-.19c0 0 .36-.02 1.06-.07s1.06-.08 1.08-.09c.12 0 .18.04.18.12 0 .07-.25 1.1-.74 3.08-.49 1.94-.74 2.95-.74 3.02.19-.1.33-.19.43-.28.24-.18.58-.49 1.02-.93s.79-.74 1.03-.9c.39-.27.77-.4 1.12-.4.29 0 .53.09.69.28.17.19.26.45.27.8 0 .25-.03.45-.1.62s-.16.29-.28.37-.22.13-.31.16-.18.04-.27.04c-.2 0-.35-.05-.47-.16s-.18-.25-.18-.43c0-.25.08-.45.24-.6s.31-.26.47-.31l.24-.04c-.12-.12-.24-.18-.35-.18h-.06c-.31.03-.62.15-.93.37-.3.22-.66.53-1.08.94s-.74.71-.97.9c.02 0 .09.02.22.04s.25.05.35.09c.11.04.24.08.38.12.15.04.28.11.4.21s.23.19.32.27c.1.08.18.21.25.38.07.18.1.34.09.49 0 .17-.02.37-.07.6s-.08.43-.09.59c0 .39.13.59.4.59.47 0 .86-.58 1.15-1.75.02-.08.12-.12.29-.12h.06c.16 0 .24.04.24.13 0 .05-.01.12-.04.21-.4 1.38-.98 2.08-1.74 2.08-.44 0-.8-.13-1.08-.38-.28-.26-.41-.62-.41-1.1 0-.18.01-.33.04-.46s.04-.25.04-.35c0-.22-.07-.4-.21-.56s-.31-.27-.52-.34-.37-.12-.5-.16-.22-.05-.27-.04h-.03c-.12.41-.22.81-.31 1.19s-.16.67-.21.85c-.05.19-.09.37-.13.55s-.07.29-.1.35-.06.12-.1.19-.09.11-.16.13c-.13.09-.27.13-.41.13-.17 0-.29-.05-.38-.15s-.13-.18-.13-.25c0-.1.18-.88.55-2.36.36-1.47.72-2.92 1.08-4.35l.55-2.14c0-.13-.02-.21-.1-.24s-.27-.05-.58-.07h-.27s-.06-.01-.1-.04-.05-.06-.04-.1z"/><path d="m153.75 95.21c0-1.2.4-2.18 1.21-2.95s1.76-1.2 2.86-1.31h.25c.16 0 .36 0 .62-.01s.5 0 .74 0h1.46c.15.08.22.18.22.29 0 .09-.06.18-.19.28h-1.53c-1.09.02-1.76.05-2.02.1-.48.12-.91.29-1.28.53s-.66.48-.87.72c-.21.25-.38.52-.53.81s-.24.53-.27.71-.05.34-.07.5v.03h6.55c.15.08.22.18.22.29s-.07.22-.22.29h-6.55v.03c0 .21.05.46.15.75s.26.61.49.96c.23.34.54.66.94.94s.88.49 1.43.6c.27.06.94.09 2.04.1h1.53c.13.1.19.2.19.29 0 .12-.07.22-.22.29h-1.8c-.18 0-.32 0-.43.01-1.52 0-2.73-.42-3.61-1.27-.87-.81-1.3-1.81-1.3-3.02z"/><path d="m174.88 98.37c.09-.53.13-.83.13-.91l-.29.29c-.19.18-.36.32-.52.43l-.27.16.46.03h.49zm-.29-9s-.24-.03-.71-.03c-.51 0-.78.02-.8.07-.02.04-.92 1.51-2.71 4.42s-2.72 4.41-2.79 4.51c0 .02.25.03.75.03h.75l2.76-4.48 2.74-4.52zm-5.96.13.27-.16h-.8v.24s-.02.08-.03.15c0 .07-.02.12-.03.15 0 .04 0 .06.03.06s.05-.02.09-.06.1-.09.19-.16.18-.14.28-.21zm-1.61 9.4c-.1-.1-.15-.16-.15-.19 0-.11.15-.43.46-.96.3-.53 1.09-1.81 2.35-3.83l2.82-4.58h-.68c-1.01 0-1.77.1-2.27.29-.41.16-.75.35-1 .59s-.42.45-.49.63c-.07.19-.13.36-.18.53s-.09.26-.13.28c-.03 0-.07.01-.12.01-.08 0-.17-.07-.28-.21l.13-1.25c.02-.19.04-.38.07-.59s.05-.37.06-.5c0-.13.02-.19.03-.19.03-.02.06-.05.1-.09.02-.02 1.26-.03 3.73-.03h3.7c.12.1.18.18.18.25 0 .04-.94 1.6-2.83 4.68l-2.82 4.58s.39.03 1.18.03c1.03 0 1.75-.06 2.14-.19.57-.2 1.05-.51 1.43-.93s.65-.92.8-1.49c.05-.27.15-.4.29-.4.07 0 .13.02.18.07s.08.1.09.16c0 .08-.07.62-.21 1.62s-.22 1.52-.25 1.55l-.1.1s-1.4.03-4.13.03h-4.1z"/><path d="m181.53 98c0-.24.08-.44.25-.62s.38-.27.63-.27c.24 0 .44.08.62.24s.27.37.28.63c0 .25-.08.46-.25.63-.17.18-.38.27-.63.27s-.47-.08-.63-.25c-.17-.17-.26-.38-.27-.63zm0-4.56c0-.24.08-.44.25-.62s.38-.27.63-.27c.24 0 .44.08.62.24s.27.37.28.63c0 .25-.08.46-.25.63-.17.18-.38.27-.63.27s-.47-.08-.63-.25c-.17-.17-.26-.38-.27-.63z"/><path d="m189.35 94.63c.07-.41.33-.89.8-1.43.46-.54 1.03-.82 1.71-.83.34 0 .66.09.94.27.29.18.5.4.63.66.41-.62.91-.93 1.49-.93.36 0 .68.11.94.32.27.22.4.51.41.87 0 .28-.07.52-.21.69-.14.18-.27.28-.4.32s-.24.06-.34.06c-.19 0-.34-.05-.46-.16s-.18-.25-.18-.43c0-.45.25-.76.74-.93-.11-.13-.3-.19-.59-.19-.13 0-.22 0-.28.03-.37.16-.65.48-.83.97-.59 2.17-.88 3.44-.88 3.8 0 .28.08.47.24.59s.33.18.52.18c.36 0 .72-.16 1.08-.49.35-.32.59-.72.72-1.19.03-.1.06-.15.09-.16.03 0 .11-.02.24-.03h.06c.15 0 .22.04.22.12 0 0 0 .06-.03.16-.16.56-.46 1.06-.91 1.49s-.98.65-1.58.65c-.69 0-1.21-.31-1.56-.93-.4.61-.87.91-1.39.91h-.09c-.48 0-.83-.13-1.03-.38s-.31-.53-.32-.81c0-.31.09-.57.28-.77s.41-.29.66-.29c.42 0 .63.21.63.62 0 .2-.06.37-.18.52s-.23.25-.34.29c-.11.05-.17.07-.19.07h-.04s.03.04.09.07.14.06.24.1.19.05.28.04c.35 0 .66-.22.91-.66.09-.16.2-.49.34-1s.28-1.04.41-1.59c.14-.55.22-.87.24-.97.05-.27.07-.46.07-.57 0-.28-.07-.47-.22-.59s-.31-.18-.5-.18c-.39 0-.76.16-1.11.47-.34.31-.59.72-.72 1.21-.02.09-.04.14-.07.15-.03 0-.11.02-.24.03h-.21c-.06-.06-.09-.11-.09-.16z"/><path d="m202.35 95.21c0-1.2.4-2.18 1.21-2.95s1.76-1.2 2.86-1.31h.25c.16 0 .36 0 .62-.01h.74 1.46c.15.08.22.18.22.29 0 .09-.06.18-.19.28h-1.53c-1.09.02-1.76.05-2.02.1-.48.12-.91.29-1.28.53s-.66.48-.87.72-.38.52-.53.81-.24.53-.27.71-.05.34-.07.5v.03h6.55c.15.08.22.18.22.29s-.07.22-.22.29h-6.55v.03c0 .21.05.46.15.75s.26.61.49.96c.23.34.54.66.94.94s.88.49 1.43.6c.27.06.94.09 2.04.1h1.53c.13.1.19.2.19.29 0 .12-.07.22-.22.29h-1.8c-.18 0-.32 0-.43.01-1.52 0-2.73-.42-3.61-1.27-.87-.81-1.3-1.81-1.3-3.02z"/><polygon points="216.79 102.57 216.79 87.84 218.81 87.84 218.81 88.43 217.38 88.43 217.38 101.98 218.81 101.98 218.81 102.57"/><path d="m220.75 92.57c-.27 0-.48-.09-.63-.27-.16-.18-.24-.39-.24-.65 0-.7.26-1.3.78-1.81s1.17-.77 1.95-.77c.89 0 1.64.27 2.24.83.6.55.9 1.26.91 2.14 0 .42-.1.83-.29 1.21-.2.38-.43.72-.71 1s-.67.65-1.18 1.09c-.35.3-.85.76-1.47 1.36l-.87.83h1.12c1.54.01 2.36 0 2.46-.06.07-.02.19-.46.35-1.31v-.04h.59v.04s-.07.48-.19 1.34-.19 1.32-.22 1.36v.04h-5.47v-.46c0-.07.03-.14.09-.22s.21-.25.44-.52c.29-.31.53-.59.74-.83.09-.1.26-.28.5-.55.25-.27.41-.45.5-.55s.23-.26.43-.49.33-.39.41-.5.19-.26.34-.44c.15-.19.25-.34.31-.47s.13-.27.22-.43.15-.31.19-.47.07-.3.1-.44.04-.3.04-.49c0-.62-.17-1.15-.5-1.61-.33-.45-.81-.68-1.43-.68-.32 0-.61.08-.86.25s-.42.33-.52.49-.15.25-.15.28c0 0 .02.01.07.01.18 0 .36.07.55.21s.28.36.28.68c0 .25-.08.45-.24.62s-.38.26-.66.27z"/><path d="m227.78 86.07c0-.07.01-.15.04-.24s.07-.14.13-.14c0 0 .26-.02.75-.05s.75-.06.76-.06c.08 0 .13.03.13.08s-.17.77-.52 2.18c-.35 1.37-.52 2.09-.52 2.14.13-.07.23-.14.3-.2.17-.12.41-.34.72-.66.31-.31.56-.52.73-.64.28-.19.54-.28.79-.28.21 0 .37.07.49.2s.18.32.19.56c0 .17-.02.32-.07.44s-.11.2-.2.26c-.08.06-.16.09-.22.11s-.13.03-.19.03c-.14 0-.25-.04-.33-.11-.08-.08-.13-.18-.13-.3 0-.17.06-.32.17-.43s.22-.18.33-.22l.17-.03c-.08-.08-.17-.12-.25-.12h-.04c-.22.02-.44.11-.66.26s-.47.37-.76.67c-.29.29-.52.5-.69.64.01 0 .07.02.16.03s.17.03.25.06.17.06.27.08c.1.03.2.08.28.15s.16.13.23.19.13.15.18.27.07.24.06.34c0 .12-.02.26-.05.43s-.06.31-.06.42c0 .28.09.42.28.42.33 0 .6-.41.81-1.24.01-.06.08-.08.21-.08h.04c.11 0 .17.03.17.09 0 .03-.01.08-.03.15-.29.98-.7 1.47-1.23 1.47-.31 0-.57-.09-.76-.27s-.29-.44-.29-.78c0-.12.01-.23.03-.32s.03-.17.03-.25c0-.15-.05-.28-.15-.4s-.22-.19-.36-.24c-.15-.05-.26-.09-.35-.11-.09-.03-.15-.04-.19-.03h-.02c-.08.29-.16.57-.22.84s-.11.47-.15.6c-.03.13-.07.26-.09.39s-.05.21-.07.25-.05.09-.07.14c-.03.05-.07.08-.11.09-.09.06-.19.09-.29.09-.12 0-.21-.03-.27-.1s-.09-.13-.09-.18c0-.07.13-.62.39-1.67.26-1.04.51-2.07.76-3.07l.39-1.51c0-.09-.02-.15-.07-.17-.06-.02-.19-.04-.41-.05h-.19s-.05-.01-.07-.03c-.03-.02-.04-.05-.03-.07z"/><path d="m233.84 98.37v-.37c0-.25.08-.46.24-.63.16-.18.37-.27.63-.27s.52.12.74.37.33.68.34 1.3c0 .34-.04.68-.13 1s-.19.6-.31.84-.25.44-.38.6c-.14.17-.26.3-.35.4-.1.1-.16.14-.19.13-.04 0-.1-.04-.19-.13s-.13-.15-.13-.19.05-.12.16-.24.23-.27.37-.44c.14-.18.27-.42.38-.74.12-.31.2-.67.24-1.08v-.18h-.01s-.04.03-.07.04-.06.02-.09.04-.07.03-.13.03-.12 0-.18.01c-.27 0-.48-.08-.65-.25l-.27-.27z"/><path d="m240.86 92.57c-.27 0-.48-.09-.63-.27s-.24-.39-.24-.65c0-.7.26-1.3.78-1.81s1.17-.77 1.95-.77c.89 0 1.64.27 2.24.83s.9 1.26.91 2.14c0 .42-.1.83-.29 1.21-.2.38-.43.72-.71 1s-.67.65-1.18 1.09c-.35.3-.85.76-1.47 1.36l-.87.83h1.12c1.54.01 2.36 0 2.46-.06.07-.02.19-.46.35-1.31v-.04h.59v.04s-.07.48-.19 1.34-.19 1.32-.22 1.36v.04h-5.47v-.46c0-.07.03-.14.09-.22s.21-.25.44-.52c.29-.31.53-.59.74-.83.09-.1.26-.28.5-.55s.41-.45.5-.55.23-.26.43-.49.33-.39.41-.5.19-.26.34-.44c.15-.19.25-.34.31-.47s.13-.27.22-.43.15-.31.19-.47.07-.3.1-.44.04-.3.04-.49c0-.62-.17-1.15-.5-1.61-.33-.45-.81-.68-1.43-.68-.32 0-.61.08-.86.25s-.42.33-.52.49-.15.25-.15.28c0 0 .02.01.07.01.18 0 .36.07.55.21s.28.36.28.68c0 .25-.08.45-.24.62s-.38.26-.66.27z"/><path d="m247.88 86.07c0-.07.01-.15.04-.24s.07-.14.13-.14c0 0 .26-.02.75-.05s.75-.06.76-.06c.08 0 .13.03.13.08s-.17.77-.52 2.18c-.35 1.37-.52 2.09-.52 2.14.13-.07.23-.14.3-.2.17-.12.41-.34.72-.66.31-.31.56-.52.73-.64.28-.19.54-.28.79-.28.21 0 .37.07.49.2s.18.32.19.56c0 .17-.02.32-.07.44s-.11.2-.2.26c-.08.06-.16.09-.22.11s-.13.03-.19.03c-.14 0-.25-.04-.33-.11-.08-.08-.13-.18-.13-.3 0-.17.06-.32.17-.43s.22-.18.33-.22l.17-.03c-.08-.08-.17-.12-.25-.12h-.04c-.22.02-.44.11-.66.26s-.47.37-.76.67c-.29.29-.52.5-.69.64.01 0 .07.02.16.03s.17.03.25.06.17.06.27.08c.1.03.2.08.28.15s.16.13.23.19.13.15.18.27.07.24.06.34c0 .12-.02.26-.05.43s-.06.31-.06.42c0 .28.09.42.28.42.33 0 .6-.41.81-1.24.01-.06.08-.08.21-.08h.04c.11 0 .17.03.17.09 0 .03-.01.08-.03.15-.29.98-.7 1.47-1.23 1.47-.31 0-.57-.09-.76-.27s-.29-.44-.29-.78c0-.12.01-.23.03-.32s.03-.17.03-.25c0-.15-.05-.28-.15-.4s-.22-.19-.36-.24c-.15-.05-.26-.09-.35-.11-.09-.03-.15-.04-.19-.03h-.02c-.08.29-.16.57-.22.84s-.11.47-.15.6c-.03.13-.07.26-.09.39-.03.12-.05.21-.07.25s-.05.09-.07.14c-.03.05-.07.08-.11.09-.09.06-.19.09-.29.09-.12 0-.21-.03-.27-.1s-.09-.13-.09-.18c0-.07.13-.62.39-1.67.26-1.04.51-2.07.76-3.07l.39-1.51c0-.09-.02-.15-.07-.17-.06-.02-.19-.04-.41-.05h-.19s-.05-.01-.07-.03c-.03-.02-.04-.05-.03-.07z"/><path d="m252.64 90.34v-.14c0-.09.05-.16.15-.21h3.12v-3.12c.08-.09.15-.14.21-.14.09 0 .16.05.21.16v3.1h3.11c.1.06.16.12.16.21s-.05.15-.16.21h-3.11v3.1c-.06.1-.12.15-.19.15h-.04c-.08 0-.15-.05-.19-.15v-3.1h-3.12c-.1-.05-.15-.12-.15-.21v.14z"/><path d="m262.39 86.78-.14.05c-.1.03-.24.07-.42.1s-.38.06-.6.07h-.2v-.48h.2c.33-.01.63-.07.91-.16s.47-.17.58-.25.21-.15.29-.23c.01-.02.06-.03.13-.03.06 0 .12.02.18.06v6.24c.06.05.1.08.14.09.03.01.12.03.25.04s.35.02.65.02h.27v.48h-.11c-.15-.02-.7-.03-1.66-.03s-1.49.01-1.64.03h-.13v-.48h.67c.11 0 .2 0 .26-.01s.12-.02.17-.03.08-.02.08-.02.03-.02.06-.05.06-.05.06-.04v-5.39z"/><path d="m267.01 87.85h.06s.1-.01.15-.01h.18l.41.35c.92.83 1.6 1.88 2.02 3.12s.63 2.54.63 3.89c0 .67-.05 1.31-.15 1.93s-.21 1.14-.34 1.58c-.13.43-.31.86-.55 1.3-.24.43-.42.76-.56.99s-.34.48-.6.75c-.27.28-.42.44-.47.49s-.16.14-.34.28l-.06.06h-.34s-.05-.01-.07-.04-.03-.07-.04-.13c0 0 .06-.07.16-.19 1.52-1.58 2.29-3.91 2.29-7s-.76-5.42-2.29-7c-.1-.12-.15-.18-.16-.19 0-.08.02-.13.07-.16z"/><path d="m145.69 115.52v-.09c0-.73-.3-1.09-.9-1.09-.17 0-.34.04-.52.12s-.34.18-.49.31-.28.25-.38.35c-.11.11-.2.22-.27.32l-.09.12-.31 1.27c-.22.84-.32 1.44-.32 1.8 0 .47.12.83.35 1.06.16.16.35.24.59.24.32 0 .65-.16.99-.47.25-.23.44-.5.59-.83.15-.32.31-.84.49-1.55s.27-1.23.27-1.56zm-3.88-4.75c0-.1.02-.21.06-.34s.1-.19.18-.19c0 0 .36-.02 1.06-.07s1.06-.08 1.08-.09c.12 0 .18.04.18.13s-.17.79-.5 2.11c-.08.33-.16.68-.25 1.03s-.16.62-.22.8l-.06.28s.03.01.09-.04c.48-.39.98-.59 1.49-.59.61 0 1.1.23 1.47.68s.57 1.02.58 1.71c0 1.09-.39 2.08-1.17 2.96s-1.61 1.33-2.51 1.33c-.49 0-.94-.19-1.34-.56s-.61-.98-.62-1.81v-.13c0-.21.04-.49.12-.85s.32-1.33.72-2.9c.49-1.93.74-2.96.74-3.08s-.19-.19-.56-.21h-.38s-.06-.01-.1-.04-.05-.06-.04-.1z"/><path d="m151.98 118.05c0-.15.08-.25.24-.29h9.38c.14.1.21.2.21.29 0 .13-.07.23-.22.29h-9.39c-.14-.07-.21-.17-.21-.29zm0-2.86c0-.13.07-.23.21-.29h9.39c.15.08.22.18.22.29s-.07.2-.21.28h-4.69s-4.69.01-4.69.01c-.16-.05-.24-.15-.24-.29z"/><path d="m167.5 116.05c.07-.41.33-.89.8-1.43.46-.54 1.03-.82 1.71-.83.34 0 .66.09.94.27.29.18.5.4.63.66.41-.62.91-.93 1.49-.93.36 0 .68.11.94.32s.4.51.41.87c0 .28-.07.52-.21.69-.14.18-.27.28-.4.32s-.24.06-.34.06c-.19 0-.34-.05-.46-.16s-.18-.25-.18-.43c0-.45.25-.76.74-.93-.11-.13-.3-.19-.59-.19-.13 0-.22 0-.28.03-.37.16-.65.48-.83.97-.59 2.17-.88 3.44-.88 3.8 0 .27.08.47.24.59s.33.18.52.18c.36 0 .72-.16 1.08-.49.35-.32.59-.72.72-1.19.03-.1.06-.15.09-.16.03 0 .11-.02.24-.03h.06c.15 0 .22.04.22.12 0 0 0 .06-.03.16-.16.56-.46 1.06-.91 1.49s-.98.65-1.58.65c-.69 0-1.21-.31-1.56-.93-.4.61-.87.91-1.39.91h-.09c-.48 0-.83-.13-1.03-.38s-.31-.53-.32-.81c0-.31.09-.57.28-.77s.41-.29.66-.29c.42 0 .63.21.63.62 0 .2-.06.37-.18.52s-.23.25-.34.29c-.11.05-.17.07-.19.07h-.04s.03.04.09.07.14.06.24.1.19.05.28.04c.35 0 .66-.22.91-.66.09-.16.2-.49.34-1s.28-1.04.41-1.59c.14-.55.22-.87.24-.97.05-.27.07-.46.07-.57 0-.28-.07-.47-.22-.59s-.31-.18-.5-.18c-.39 0-.76.16-1.11.47-.34.31-.59.72-.72 1.21-.02.09-.04.14-.07.15-.03 0-.11.02-.24.03h-.21c-.06-.06-.09-.11-.09-.16z"/><path d="m181.4 109.26c.09 0 .16.03.22.09s.09.13.09.21c0 .05-.85 2.42-2.55 7.1s-2.58 7.08-2.64 7.19c-.07.1-.15.15-.25.15-.07 0-.13-.02-.19-.07s-.09-.12-.09-.21c0-.1.86-2.49 2.57-7.19 1.71-4.69 2.58-7.07 2.61-7.12.04-.1.12-.15.24-.15z"/><path d="m184.15 113.99c-.27 0-.48-.09-.63-.27-.16-.18-.24-.39-.24-.65 0-.7.26-1.3.78-1.81s1.17-.77 1.95-.77c.89 0 1.64.27 2.24.83.6.55.9 1.26.91 2.14 0 .42-.1.83-.29 1.21-.2.38-.43.72-.71 1s-.67.65-1.18 1.09c-.35.3-.85.76-1.47 1.36l-.87.83h1.12c1.54.01 2.36 0 2.46-.06.07-.02.19-.46.35-1.31v-.04h.59v.04s-.07.48-.19 1.34-.19 1.32-.22 1.36v.04h-5.47v-.46c0-.07.03-.14.09-.22s.21-.25.44-.52c.29-.31.53-.59.74-.83.09-.1.26-.28.5-.55.25-.27.41-.45.5-.55s.23-.26.43-.49.33-.39.41-.5.19-.26.34-.44c.15-.19.25-.34.31-.47s.13-.27.22-.43.15-.31.19-.47.07-.3.1-.44.04-.3.04-.49c0-.62-.17-1.15-.5-1.61-.33-.45-.81-.68-1.43-.68-.32 0-.61.08-.86.25s-.42.33-.52.49-.15.25-.15.28c0 0 .02.01.07.01.18 0 .36.07.55.21s.28.36.28.68c0 .25-.08.45-.24.62s-.38.26-.66.27z"/><path d="m191.18 107.48c0-.07.01-.15.04-.24s.07-.14.13-.14c0 0 .26-.02.75-.05s.75-.06.76-.06c.08 0 .13.03.13.08s-.17.77-.52 2.18c-.35 1.37-.52 2.09-.52 2.14.13-.07.23-.14.3-.2.17-.12.41-.34.72-.66.31-.31.56-.52.73-.64.28-.19.54-.28.79-.28.21 0 .37.07.49.2s.18.32.19.56c0 .17-.02.32-.07.44s-.11.2-.2.26c-.08.06-.16.09-.22.11s-.13.03-.19.03c-.14 0-.25-.04-.33-.11-.08-.08-.13-.18-.13-.3 0-.17.06-.32.17-.43s.22-.18.33-.22l.17-.03c-.08-.08-.17-.12-.25-.12h-.04c-.22.02-.44.11-.66.26s-.47.37-.76.67c-.29.29-.52.5-.69.64.01 0 .07.02.16.03s.17.03.25.06.17.06.27.08c.1.03.2.08.28.15s.16.13.23.19.13.15.18.27.07.24.06.34c0 .12-.02.26-.05.43s-.06.31-.06.42c0 .28.09.42.28.42.33 0 .6-.41.81-1.24.01-.06.08-.08.21-.08h.04c.11 0 .17.03.17.09 0 .03-.01.08-.03.15-.29.98-.7 1.47-1.23 1.47-.31 0-.57-.09-.76-.27s-.29-.44-.29-.78c0-.12.01-.23.03-.32s.03-.17.03-.25c0-.15-.05-.28-.15-.4-.1-.11-.22-.19-.36-.24s-.26-.09-.35-.11-.15-.04-.19-.03h-.02c-.08.29-.16.57-.22.84s-.11.47-.15.6-.07.26-.09.39c-.03.12-.05.21-.07.25s-.05.09-.07.14c-.03.05-.07.08-.11.09-.09.06-.19.09-.29.09-.12 0-.21-.03-.27-.1s-.09-.13-.09-.18c0-.07.13-.62.39-1.67.26-1.04.51-2.07.76-3.07l.39-1.51c0-.09-.02-.15-.07-.17-.06-.02-.19-.04-.41-.05h-.19s-.05-.01-.07-.03c-.03-.02-.04-.05-.03-.07z"/><path d="m51.21 174.14h.21c.38 0 .61-.07.69-.21v-.94c0-.19 0-.4.01-.63v-.74-.81-.84-3.14c0-.26 0-.47-.01-.65v-.25c-.03-.19-.1-.31-.21-.37s-.33-.1-.66-.13h-.27v-.34c0-.23 0-.34.03-.34h.15c.1-.02.24-.03.43-.04.19 0 .37-.02.55-.03.17 0 .35-.02.55-.03s.34-.02.44-.04.15-.02.16-.01h.04v4.64c0 3.11 0 4.68.01 4.7.04.08.1.13.18.16.21.03.45.04.72.04h.24v.68h-.46c-.23-.02-.47-.03-.72-.03s-.44 0-.56-.01h-.56c-.26 0-.5.02-.74.03h-.34s-.12.01-.12.01v-.68h.24z"/><path d="m55.3 174.14h.21c.38 0 .61-.07.69-.21v-.91c0-.17 0-.36.01-.57v-.62-.97c0-.34 0-.63-.01-.87v-.34c-.03-.19-.1-.31-.21-.37s-.33-.1-.66-.13h-.27v-.34c0-.23 0-.34.03-.34h.15c.1-.02.24-.03.41-.04.18 0 .36-.02.55-.03.17 0 .34-.02.53-.03s.33-.02.43-.04.15-.02.16-.01h.04v.59c0 .37 0 .56.01.56s.03-.02.07-.07.1-.12.18-.22.17-.19.28-.27.25-.17.43-.28.36-.19.56-.24.45-.07.75-.07c1.12.04 1.75.59 1.87 1.66 0 .07.01.75.01 2.05v1.27c0 .37 0 .59.03.66.02.07.07.12.16.15.21.03.45.04.72.04h.24v.68h-.47c-.23-.02-.47-.03-.74-.03s-.45 0-.56-.01c-1.01 0-1.56.01-1.65.04h-.12v-.68h.24c.6 0 .9-.08.9-.24 0-.02.01-.7.01-2.03s-.02-2.03-.03-2.11c-.06-.28-.16-.48-.29-.62s-.26-.22-.35-.25c-.1-.03-.23-.04-.38-.03-.44 0-.83.17-1.17.5-.27.27-.43.54-.5.81s-.11.68-.12 1.22v1.83c0 .29 0 .49.01.59 0 .1.02.16.04.19s.06.06.13.09c.21.03.45.04.72.04h.24v.68h-.46c-.24-.02-.49-.03-.75-.03s-.45 0-.56-.01c-1.01 0-1.56.01-1.65.04h-.12v-.68h.24z"/><path d="m67.4 178.49h-.03c-.12 0-.21-.07-.27-.21v-14.32c.11-.13.21-.19.29-.19.13 0 .23.07.29.22v14.29c-.08.14-.17.21-.27.21h-.03z"/><path d="m70.22 170.56c.07-.41.33-.89.8-1.43.46-.54 1.03-.82 1.71-.83.34 0 .66.09.94.27.29.18.5.4.63.66.41-.62.91-.93 1.49-.93.36 0 .68.11.94.32.27.22.4.51.41.87 0 .28-.07.52-.21.69-.14.18-.27.28-.4.32s-.24.06-.34.06c-.19 0-.34-.05-.46-.16s-.18-.25-.18-.43c0-.45.25-.76.74-.93-.11-.13-.3-.19-.59-.19-.13 0-.22 0-.28.03-.37.16-.65.48-.83.97-.59 2.17-.88 3.44-.88 3.8 0 .28.08.47.24.59s.33.18.52.18c.36 0 .72-.16 1.08-.49.35-.32.59-.72.72-1.19.03-.1.06-.15.09-.16.03 0 .11-.02.24-.03h.06c.15 0 .22.04.22.12 0 0 0 .06-.03.16-.16.56-.46 1.06-.91 1.49s-.98.65-1.58.65c-.69 0-1.21-.31-1.56-.93-.4.61-.87.91-1.39.91h-.09c-.48 0-.83-.13-1.03-.38s-.31-.53-.32-.81c0-.31.09-.57.28-.77s.41-.29.66-.29c.42 0 .63.21.63.62 0 .2-.06.37-.18.52s-.23.25-.34.29c-.11.05-.17.07-.19.07h-.04s.03.04.09.07.14.06.24.1.19.05.28.04c.35 0 .66-.22.91-.66.09-.16.2-.49.34-1s.28-1.04.41-1.59c.14-.55.22-.87.24-.97.05-.27.07-.46.07-.57 0-.28-.07-.47-.22-.59s-.31-.18-.5-.18c-.39 0-.76.16-1.11.47-.34.31-.59.72-.72 1.21-.02.09-.04.14-.07.15s-.11.02-.24.03h-.21c-.06-.06-.09-.11-.09-.16z"/><path d="m79.94 178.49h-.03c-.12 0-.21-.07-.27-.21v-14.32c.11-.13.21-.19.29-.19.13 0 .23.07.29.22v14.29c-.08.14-.17.21-.27.21h-.03z"/><path d="m86.09 171.33v-.19c0-.13.07-.23.21-.29h4.41v-4.42c.11-.13.21-.19.29-.19.13 0 .23.07.29.22v4.39h4.4c.15.08.22.18.22.29s-.07.22-.22.29h-4.4v4.39c-.08.14-.17.21-.27.21h-.06c-.12 0-.21-.07-.27-.21v-4.39h-4.41c-.14-.07-.21-.17-.21-.29v.19z"/><path d="m100.32 170.59c0-.08.04-.23.13-.46s.21-.48.35-.75.36-.53.65-.75c.29-.23.58-.33.88-.32.38 0 .7.11.96.34s.39.53.4.91c0 .17-.07.44-.21.83-.14.38-.33.9-.59 1.55s-.46 1.2-.62 1.66c-.05.22-.07.37-.07.47 0 .25.08.37.25.37.09 0 .18-.01.28-.04s.21-.1.34-.21.26-.28.4-.52.26-.53.37-.87c.03-.12.05-.19.07-.21s.1-.03.25-.03c.2 0 .29.05.29.15 0 .08-.04.23-.13.46s-.21.48-.37.75-.38.52-.66.74c-.29.22-.59.32-.91.32s-.6-.1-.87-.31-.4-.52-.41-.94c0-.17.02-.32.07-.47s.26-.71.63-1.68c.37-.99.59-1.59.65-1.78.06-.2.09-.39.1-.57 0-.24-.08-.35-.25-.35h-.03c-.29 0-.57.16-.81.49-.25.32-.43.74-.56 1.24 0 0-.02.02-.03.04s-.01.03-.01.04 0 .02-.03.03c-.02 0-.03.01-.04.01h-.38c-.06-.06-.09-.1-.09-.13zm2.41-4.61c0-.24.09-.44.28-.62s.4-.27.65-.28c.18 0 .32.06.44.18s.18.27.19.44c0 .23-.1.43-.29.62-.2.19-.41.28-.65.29-.15 0-.29-.05-.41-.15s-.2-.26-.21-.49z"/><path d="m109.42 173.26c0 .3.12.57.35.81s.53.36.87.37c.37 0 .7-.11.99-.34s.48-.52.58-.88c.02-.07.03-.39.04-.97 0-.57 0-.85-.01-.85-.08 0-.18 0-.31.01-.13 0-.35.05-.66.13s-.6.18-.86.29c-.26.12-.48.3-.68.55s-.3.54-.31.88zm.16-2.94h-.32c-.22 0-.4-.07-.55-.22s-.22-.34-.22-.57c0-.34.17-.65.5-.91.33-.27.93-.4 1.78-.4.72 0 1.3.16 1.74.47s.74.69.88 1.12c.05.14.07.29.07.46s0 .73.01 1.69v1.03c0 .47.02.8.07.97.05.18.15.27.31.27.15 0 .25-.08.29-.24.05-.16.07-.42.07-.78v-.53h.59v.57c0 .39-.02.62-.04.69-.09.29-.26.53-.52.69-.26.17-.53.26-.81.27-.29 0-.52-.08-.69-.27s-.29-.39-.35-.62v-.06l-.03.04s-.04.06-.07.09-.07.07-.12.13-.11.11-.18.16-.14.11-.22.18-.17.12-.27.16-.21.08-.32.12c-.12.04-.25.07-.38.09s-.29.03-.46.04c-.59 0-1.12-.15-1.59-.46s-.71-.73-.71-1.28c0-.21.03-.4.1-.59s.2-.39.4-.6c.2-.22.43-.4.71-.55s.66-.28 1.15-.41 1.03-.2 1.62-.22h.21v-.32c0-.33-.03-.58-.09-.74-.22-.7-.69-1.05-1.43-1.05-.18 0-.34 0-.5.01-.16 0-.28.03-.37.06s-.13.04-.12.04c.22.15.32.36.32.65 0 .25-.08.44-.24.57l-.25.22z"/><path d="m115.47 174.14h.21c.38 0 .61-.07.69-.21v-.46c0-.14 0-.29.01-.46v-.57-.62-2.18c-.04-.19-.11-.31-.22-.37s-.33-.1-.66-.13h-.27v-.34c0-.23 0-.34.03-.34h.15c.1-.02.24-.03.41-.04.18 0 .35-.02.53-.03.16 0 .33-.02.52-.03s.33-.02.43-.04.15-.02.16-.01h.04v1.02c.38-.67.86-1 1.43-1h.09c.44 0 .77.11.97.32.21.22.31.44.31.68 0 .21-.06.38-.19.53s-.31.22-.56.22-.43-.08-.55-.24-.18-.32-.19-.5c0-.09 0-.17.03-.24.02-.07.04-.13.07-.18s.04-.07.04-.07c-.02-.02-.13 0-.34.06-.16.08-.28.15-.35.22-.46.44-.69 1.32-.69 2.64v1.56c0 .12 0 .22.01.29v.22.07s.02.04.04.06.04.03.07.04c.03 0 .05.02.07.04s.05.03.1.03.08 0 .1.01c.02 0 .06.01.13.01h.13s.07 0 .15.01.13 0 .15 0h.46v.68h-.13c-.18-.03-.8-.04-1.87-.04-1.01 0-1.56.01-1.65.04h-.12v-.68h.24z"/><path d="m126.66 175.92c0-.25-.07-.45-.21-.6-.14-.16-.34-.27-.6-.34-.27-.07-.51-.11-.72-.13-.22-.02-.48-.03-.8-.03h-.4c-.66 0-1.05.03-1.18.09-.2.09-.35.23-.46.41-.11.19-.17.38-.18.59 0 .1.03.21.09.34s.16.28.31.44c.15.17.38.3.71.41.32.11.72.17 1.18.18.68 0 1.22-.14 1.64-.41.41-.28.62-.59.62-.94zm-1.53-6.16c-.05-.28-.18-.49-.38-.65-.21-.16-.46-.24-.77-.25-.29 0-.53.08-.74.24s-.33.38-.38.66c-.03.17-.04.42-.04.75 0 .43.03.75.1.96s.22.38.44.52c.17.1.38.15.63.15.22 0 .4-.03.56-.1s.27-.16.34-.27.12-.21.16-.29.06-.16.07-.22c.03-.16.04-.4.04-.74s-.01-.58-.04-.75zm.44-.97c.43-.43.92-.65 1.47-.65.29 0 .51.09.63.28.13.19.19.37.19.56 0 .14-.04.26-.13.37s-.22.16-.4.16c-.32 0-.51-.15-.55-.44-.02-.14 0-.24.04-.31 0 0 0-.02.01-.04-.28.01-.54.12-.78.31-.08.05-.12.08-.12.1 0 0 .02.03.06.07s.08.1.13.18.1.17.16.27.1.23.13.38c.03.16.05.32.06.49 0 .61-.24 1.12-.72 1.55-.48.42-1.08.64-1.78.65-.49 0-.98-.14-1.46-.41-.11.18-.16.36-.16.56 0 .34.13.6.38.77.09.06.17.09.25.09s.43 0 1.06.03c.83 0 1.36.04 1.59.09.6.09 1.07.29 1.42.6.38.38.58.86.58 1.44 0 .66-.38 1.16-1.15 1.52-.59.3-1.29.46-2.09.46s-1.52-.15-2.11-.46c-.77-.34-1.15-.83-1.15-1.47 0-.35.1-.65.31-.88.21-.24.41-.4.62-.49l.16-.09c-.35-.3-.53-.72-.53-1.24 0-.46.14-.88.43-1.25-.43-.43-.65-.92-.65-1.46 0-.62.25-1.14.74-1.56s1.09-.64 1.78-.65c.5 0 .97.13 1.4.38l.16.1z"/><path d="m131.32 170.56c.07-.41.33-.89.8-1.43.46-.54 1.03-.82 1.71-.83.34 0 .66.09.94.27.29.18.5.4.63.66.41-.62.91-.93 1.49-.93.36 0 .68.11.94.32s.4.51.41.87c0 .28-.07.52-.21.69-.14.18-.27.28-.4.32s-.24.06-.34.06c-.19 0-.34-.05-.46-.16s-.18-.25-.18-.43c0-.45.25-.76.74-.93-.11-.13-.3-.19-.59-.19-.13 0-.22 0-.28.03-.37.16-.65.48-.83.97-.59 2.17-.88 3.44-.88 3.8 0 .28.08.47.24.59s.33.18.52.18c.36 0 .72-.16 1.08-.49.35-.32.59-.72.72-1.19.03-.1.06-.15.09-.16.03 0 .11-.02.24-.03h.06c.15 0 .22.04.22.12 0 0 0 .06-.03.16-.16.56-.46 1.06-.91 1.49s-.98.65-1.58.65c-.69 0-1.21-.31-1.56-.93-.4.61-.87.91-1.39.91h-.09c-.48 0-.83-.13-1.03-.38-.21-.26-.31-.53-.32-.81 0-.31.09-.57.28-.77s.41-.29.66-.29c.42 0 .63.21.63.62 0 .2-.06.37-.18.52s-.23.25-.34.29c-.11.05-.17.07-.19.07h-.04s.03.04.09.07.14.06.24.1.19.05.28.04c.35 0 .66-.22.91-.66.09-.16.2-.49.34-1s.28-1.04.41-1.59c.14-.55.22-.87.24-.97.05-.27.07-.46.07-.57 0-.28-.07-.47-.22-.59s-.31-.18-.5-.18c-.39 0-.76.16-1.11.47-.34.31-.59.72-.72 1.21-.02.09-.04.14-.07.15-.03 0-.11.02-.24.03h-.21c-.06-.06-.09-.11-.09-.16z"/><path d="m154.5 170.56c.07-.41.33-.89.8-1.43.46-.54 1.03-.82 1.71-.83.34 0 .66.09.94.27.29.18.5.4.63.66.41-.62.91-.93 1.49-.93.36 0 .68.11.94.32s.4.51.41.87c0 .28-.07.52-.21.69-.14.18-.27.28-.4.32s-.24.06-.34.06c-.19 0-.34-.05-.46-.16s-.18-.25-.18-.43c0-.45.25-.76.74-.93-.11-.13-.3-.19-.59-.19-.13 0-.22 0-.28.03-.37.16-.65.48-.83.97-.59 2.17-.88 3.44-.88 3.8 0 .28.08.47.24.59s.33.18.52.18c.36 0 .72-.16 1.08-.49.35-.32.59-.72.72-1.19.03-.1.06-.15.09-.16.03 0 .11-.02.24-.03h.06c.15 0 .22.04.22.12 0 0 0 .06-.03.16-.16.56-.46 1.06-.91 1.49s-.98.65-1.58.65c-.69 0-1.21-.31-1.56-.93-.4.61-.87.91-1.39.91h-.09c-.48 0-.83-.13-1.03-.38s-.31-.53-.32-.81c0-.31.09-.57.28-.77s.41-.29.66-.29c.42 0 .63.21.63.62 0 .2-.06.37-.18.52s-.23.25-.34.29c-.11.05-.17.07-.19.07h-.04s.03.04.09.07.14.06.24.1.19.05.28.04c.35 0 .66-.22.91-.66.09-.16.2-.49.34-1s.28-1.04.41-1.59c.14-.55.22-.87.24-.97.05-.27.07-.46.07-.57 0-.28-.07-.47-.22-.59s-.31-.18-.5-.18c-.39 0-.76.16-1.11.47-.34.31-.59.72-.72 1.21-.02.09-.04.14-.07.15-.03 0-.11.02-.24.03h-.21c-.06-.06-.09-.11-.09-.16z"/><path d="m167.51 171.14c0-1.2.4-2.18 1.21-2.95s1.76-1.2 2.86-1.31h.25c.16 0 .36 0 .62-.01h.74 1.46c.15.08.22.18.22.29 0 .09-.06.18-.19.28h-1.53c-1.09.02-1.76.05-2.02.1-.48.12-.91.29-1.28.53s-.66.48-.87.72c-.21.25-.38.52-.53.81s-.24.53-.27.71-.05.34-.07.5v.03h6.55c.15.08.22.18.22.29s-.07.22-.22.29h-6.55v.03c0 .21.05.46.15.75s.26.61.49.96c.23.34.54.66.94.94s.88.49 1.43.6c.27.06.94.09 2.04.1h1.53c.13.1.19.2.19.29 0 .12-.07.22-.22.29h-1.8c-.18 0-.32 0-.43.01-1.52 0-2.73-.42-3.61-1.27-.87-.81-1.3-1.81-1.3-3.02z"/><path d="m189.36 166.49v-.88s-.08.03-.12.03c-.1.04-.21.06-.34.06h-.22l.19.21c.2.22.3.34.32.38l.16.21zm-5.47-.88c.14-.18.19-.27.16-.27-.23.08-.46.19-.69.34-.24.15-.5.35-.78.6-.29.26-.54.59-.75 1.02-.22.42-.37.89-.46 1.41-.05.29-.07.65-.07 1.08s.02.78.07 1.08c.1.54.27 1.03.5 1.46.24.43.49.77.75 1s.53.43.78.59c.26.16.47.27.63.32l.25.07c-.07-.07-.13-.14-.19-.21-.64-.62-1.05-1.63-1.22-3.03-.03-.27-.04-.71-.04-1.33s.01-1.06.04-1.33c.19-1.23.53-2.17 1.02-2.81zm6.4 7.28c0 .06-.06.17-.18.32-.12.16-.31.34-.58.56s-.56.42-.88.62-.74.36-1.24.5-1.01.21-1.52.21c-.55 0-1.09-.08-1.62-.24s-1.03-.4-1.5-.72-.88-.76-1.22-1.3-.58-1.16-.69-1.87c-.05-.22-.07-.61-.07-1.18s.02-.96.07-1.18c.22-1.15.7-2.08 1.46-2.8s1.73-1.15 2.92-1.3c.03 0 .14 0 .34-.01.2 0 .35-.01.46-.01.53.03 1.06.15 1.59.35s.93.31 1.21.32c.18 0 .3-.03.38-.1s.12-.15.13-.24.03-.17.07-.24.11-.11.21-.12c.11 0 .2.06.27.18v3.08l-.06.1c-.13.07-.25.08-.37.03-.04-.04-.09-.16-.15-.35-.06-.2-.17-.42-.34-.66-.32-.45-.76-.86-1.3-1.24-.54-.37-1.12-.56-1.73-.56h-.13c-.43 0-.84.19-1.21.56-.86.77-1.28 2.19-1.28 4.26 0 .85.1 1.63.31 2.31.4 1.46 1.25 2.2 2.54 2.2s2.42-.49 3.48-1.47c.17-.17.29-.25.37-.25.05 0 .1.02.16.06s.09.1.1.18z"/><path d="m194.95 164.05c0-.09.03-.16.09-.21s.12-.07.19-.07c.1 0 .18.05.25.15.04.07.91 2.45 2.63 7.15 1.71 4.69 2.57 7.08 2.57 7.16s-.03.14-.09.19-.13.08-.21.09c-.1 0-.18-.05-.25-.15-.03-.04-.9-2.41-2.61-7.1s-2.57-7.1-2.57-7.2z"/><polygon points="206.52 178.5 206.52 163.77 208.54 163.77 208.54 164.36 207.11 164.36 207.11 177.91 208.54 177.91 208.54 178.5"/><path d="m213.61 166.02c-.29-.31-.64-.47-1.05-.47s-.77.16-1.06.47c-.25.26-.41.61-.49 1.06s-.12 1.39-.12 2.83c0 1.55.04 2.57.12 3.06s.26.88.53 1.16c.28.29.61.44 1.02.44s.73-.15 1-.44c.29-.29.46-.71.53-1.24s.11-1.53.12-2.99c0-1.42-.04-2.36-.12-2.81s-.24-.81-.49-1.08zm-3.32.18c.55-.8 1.3-1.19 2.26-1.19.47 0 .94.13 1.42.38.47.26.86.71 1.15 1.36.36.82.55 1.93.55 3.36 0 1.52-.21 2.69-.63 3.49-.2.41-.47.74-.81.99s-.64.4-.9.46-.51.09-.75.1c-.26 0-.51-.03-.77-.09s-.56-.22-.9-.47c-.34-.26-.61-.58-.81-.99-.42-.81-.63-1.97-.63-3.49 0-1.71.28-3.01.84-3.9z"/><path d="m217.4 174.3v-.37c0-.25.08-.46.24-.63.16-.18.37-.27.63-.27s.52.12.74.37.33.68.34 1.3c0 .34-.04.68-.13 1s-.19.6-.31.84-.25.44-.38.6c-.14.17-.26.3-.35.4-.1.1-.16.14-.19.13-.04 0-.1-.04-.19-.13s-.13-.15-.13-.19.05-.12.16-.24.23-.27.37-.44c.14-.18.27-.42.38-.74.12-.31.2-.67.24-1.08v-.18h-.01s-.04.03-.07.04c-.03 0-.06.02-.09.04s-.07.03-.13.03-.12 0-.18.01c-.27 0-.48-.08-.65-.25l-.27-.27z"/><path d="m223.64 171.33v-.19c0-.13.07-.23.21-.29h4.41v-4.42c.11-.13.21-.19.29-.19.13 0 .23.07.29.22v4.39h4.4c.15.08.22.18.22.29s-.07.22-.22.29h-4.4v4.39c-.08.14-.17.21-.27.21h-.06c-.12 0-.21-.07-.27-.21v-4.39h-4.41c-.14-.07-.21-.17-.21-.29v.19z"/><path d="m235.64 171.67c0 .68.19 1.29.58 1.84.38.55.91.83 1.59.83 1.16 0 2.23-.79 3.2-2.36l-.46-.59c-.6-.78-1.05-1.29-1.34-1.53-.48-.42-.98-.63-1.49-.63-.61 0-1.11.24-1.49.72s-.58 1.06-.59 1.72zm12.02-.05c0-.67-.19-1.28-.56-1.83s-.9-.83-1.59-.83c-.21 0-.41.02-.6.07-.2.05-.38.12-.56.21s-.34.18-.5.28-.3.22-.43.35c-.13.14-.25.26-.37.37s-.22.23-.29.37-.15.25-.22.32c-.07.08-.12.16-.16.25l-.07.12.46.59c.3.39.54.69.71.88.17.2.37.41.62.65s.49.4.74.49.5.14.75.15c.61 0 1.11-.24 1.5-.72s.59-1.06.59-1.72zm-12.56 0c0-.86.28-1.63.83-2.3s1.25-1.01 2.11-1.02c.87 0 1.68.3 2.43.9.37.3.74.69 1.09 1.15l.21.28.1-.15c1.02-1.45 2.17-2.18 3.44-2.18.85 0 1.54.33 2.08 1s.82 1.45.83 2.36c0 .84-.27 1.61-.81 2.28-.54.68-1.26 1.02-2.15 1.03-.85 0-1.65-.3-2.4-.9-.37-.3-.74-.69-1.09-1.15l-.21-.28-.1.15c-1.02 1.45-2.17 2.18-3.44 2.18-.85 0-1.54-.33-2.08-1s-.82-1.45-.83-2.36z"/><path d="m249.92 163.78h.06s.1-.01.15-.01h.18l.41.35c.92.83 1.6 1.88 2.02 3.12s.63 2.54.63 3.89c0 .67-.05 1.31-.15 1.93s-.21 1.14-.34 1.58c-.13.43-.31.86-.55 1.3-.24.43-.42.76-.56.99s-.34.48-.6.75c-.27.28-.42.44-.47.49s-.16.14-.34.28l-.06.06h-.34s-.05-.01-.07-.04-.03-.07-.04-.13c0 0 .06-.07.16-.19 1.52-1.58 2.29-3.91 2.29-7s-.76-5.42-2.29-7c-.1-.12-.15-.18-.16-.19 0-.08.02-.13.07-.16z"/></g></g></svg>
