<svg viewBox="0 0 145.41 30.4" xmlns="http://www.w3.org/2000/svg"><defs><style>.cls-1 {
        isolation: isolate;
      }</style></defs><g id="a"><g><g><path id="b" d="m0 3.57c0-.31.04-.61.12-.9s.18-.54.29-.76.23-.41.37-.57.24-.29.33-.37.14-.12.19-.12.1.04.18.12.11.15.12.2c0 .02-.07.09-.19.22s-.24.27-.37.43-.24.39-.35.69-.17.62-.19.95c0 .11 0 .16.01.16s.03 0 .07-.03.1-.05.18-.08.16-.05.24-.04c.23 0 .42.08.58.23s.24.35.24.58-.08.43-.23.58-.35.24-.58.24c-.26 0-.49-.12-.69-.35s-.3-.64-.31-1.21zm2.77 0c0-.31.04-.61.12-.9s.18-.54.29-.76.23-.41.37-.57.24-.29.33-.37.14-.12.19-.12.1.04.16.12.11.14.14.18c0 .03-.05.1-.16.22s-.23.26-.35.42-.25.4-.38.71-.19.63-.2.98c0 .11 0 .16.01.16s.03 0 .07-.03.1-.05.18-.08.16-.05.24-.04c.23 0 .42.08.58.23s.24.35.24.58-.08.43-.23.58-.35.24-.58.24c-.26 0-.49-.12-.69-.35s-.3-.64-.31-1.21z"/><path id="c" d="M5.81,7.06v-.18c0-.12.06-.21.19-.27h4.06V2.54c.1-.12.19-.18.27-.18.12,0,.21.07.27.2v4.05h4.05c.14.07.2.16.2.27s-.07.2-.2.27h-4.05v4.05c-.07.13-.15.19-.24.19h-.05c-.11,0-.19-.06-.24-.19v-4.05h-4.06c-.13-.06-.19-.15-.19-.27v.18Z"/><path id="d" d="m16.07 1.67c0-.23.07-.42.22-.57s.34-.24.58-.24c.25 0 .48.12.69.35s.32.64.33 1.21c0 .49-.1.95-.3 1.4s-.4.77-.61.99-.33.33-.38.33c-.04 0-.1-.04-.18-.12s-.13-.14-.14-.18c0-.03.05-.1.16-.22s.23-.26.35-.42.25-.4.38-.71.19-.63.2-.98c0-.11 0-.16-.01-.16s-.03.01-.07.04-.1.05-.18.07-.16.03-.24.04c-.23 0-.42-.08-.57-.23s-.24-.35-.24-.6zm2.77 0c0-.23.07-.42.22-.57.14-.15.34-.24.58-.24.25 0 .48.12.69.35s.32.64.33 1.21c0 .49-.1.95-.3 1.4s-.4.77-.61.99-.33.33-.38.33c-.04 0-.1-.04-.18-.12s-.13-.14-.14-.18c0-.03.05-.1.16-.22s.23-.26.35-.42.25-.4.38-.71.19-.63.2-.98c0-.11 0-.16-.01-.16s-.03.01-.07.04-.1.05-.18.07-.16.03-.24.04c-.23 0-.42-.08-.57-.23s-.24-.35-.24-.6z"/><g class="cls-1"><path d="m37.34 9.99c-.6.11-.79.24-.98.59-.06.11-.1.13-.2.13-1.81 0-3.36-.11-4.29-.31-1.31-.29-2.25-1.13-2.93-2.15-.6 1.14-1.52 2.33-2.65 2.96l-.06-.12c1.45-1.18 2.3-2.99 2.73-4.69l.78.4c.08.04.12.06.12.1 0 .02-.26.13-.42.2-.11.29-.23.6-.4.92.73.92 1.64 1.62 2.6 1.85v-3.8h-4.2c-.42 0-.56.01-.74.05l-.36-.37c.41.05.6.06.89.06h8.62l.47-.62.78.73c.06.05.08.08.08.11 0 .04-.06.05-.2.05h-4.79v1.63h2.66l.47-.62.7.67c.08.08.13.14.13.17 0 .04-.06.05-.17.05h-3.79v1.99c.49.06 1.1.08 1.78.08 1.07 0 2.28-.07 3.36-.24v.19zm-2.36-9.08c.07.04.1.07.1.11s-.02.06-.1.11l-.36.23v1.81c0 .7.01 1.01.06 1.55 0 .05.01.08.01.12 0 .13-.06.18-.3.29-.12.06-.19.08-.24.08-.07 0-.08-.06-.08-.2v-.42h-4.44c0 .36 0 .4-.24.53-.12.07-.2.11-.26.11s-.08-.06-.08-.19c0-.06 0-.13.01-.23.02-.29.04-.73.04-1.04v-2.26c0-.46-.01-.85-.04-1.22l.82.56h3.99l.34-.47.78.53zm-.91 1.61v-1.4h-4.44v1.4h4.44zm0 1.8v-1.54h-4.44v1.54h4.44z"/></g><g class="cls-1"><path d="m49.4 10.37c-.78-.02-1.16.11-1.4.42-.02.02-.05.05-.07.05s-.06-.01-.1-.04c-2.16-1.07-3.47-2.52-3.96-4.99-.42.5-.98 1.04-1.62 1.57v2.85l2.48-1.04.07.17-1.86 1.07c-.52.3-.88.59-1.08.83-.02.02-.05.05-.07.05s-.05-.02-.07-.05l-.5-.61c.36-.23.48-.35.48-.6v-2.23c-1.06.79-2.27 1.52-3.37 1.98l-.11-.16c2.18-1.26 3.93-2.67 4.95-3.86h-3.74c-.25 0-.6.05-.8.13l-.34-.47c.3.02.6.05.88.05h4.44v-1.45h-2.73c-.25 0-.6.05-.8.13l-.34-.44c.3.02.6.05.88.05h3v-1.54h-3.54c-.25 0-.6.05-.8.13l-.4-.46c.3.04.66.06.94.06h3.8c0-.83-.02-1.51-.05-1.94l.91.46c.07.04.11.07.11.11 0 .02-.04.06-.08.1l-.32.23v1.06h3.31l.46-.65.89.73c.07.06.1.1.1.13s-.04.05-.13.05h-4.62v1.54h2.43l.43-.62.8.7c.07.06.11.11.11.13 0 .05-.05.06-.14.06h-3.63v1.45h3.68l.48-.61.77.68c.08.07.12.12.12.16s-.06.06-.18.06h-4.94c.26.78.64 1.58 1.09 2.16.95-.55 1.87-1.19 2.29-1.54l.67.71s.06.07.06.1c0 .04-.04.05-.08.05s-.23-.02-.26-.02c-.3 0-.7.16-2.5.91.91 1.03 2.19 1.8 4.03 2.09v.14z"/></g><g class="cls-1"><path d="M61.22,4.14c.08.07.12.12.12.16,0,.02-.05.04-.16.04h-4.99v5.34c0,.91-.07,1.15-.71,1.43-.11.05-.17.07-.23.07-.07,0-.1-.06-.12-.19-.06-.32-.35-.56-1.54-.91v-.18c.74.14,1.21.23,1.51.23.46,0,.49-.19.49-.58v-5.21h-4.19c-.32,0-.59.04-.79.12l-.41-.42c.3.02.64.04.94.04h8.71l.52-.68.84.76ZM53.99,6c.14.1.22.16.22.19,0,.02-.04.04-.11.06-.16.05-.36.19-.44.3-.77,1.06-1.87,2.4-3.12,3.57l-.12-.11c1.19-1.46,2.21-2.95,2.95-4.44l.62.42ZM59.82,1.32c.08.07.12.12.12.16,0,.02-.05.04-.16.04h-7.04c-.25,0-.49.02-.7.1l-.43-.41c.32.04.64.05.91.05h5.95l.55-.68.79.76ZM57.36,5.54c1.21.91,3.05,2.52,3.05,3.61,0,.44-.23.64-.37.64-.16,0-.28-.14-.36-.48-.2-.89-1.02-2.17-2.41-3.65l.1-.12Z"/></g><g class="cls-1"><path d="m68.12 3.18c.06.05.11.1.11.13s-.02.06-.08.11l-.43.35c-.06 1.78-.19 4.07-.31 5.38-.07.76-.34 1.28-1.1 1.64-.05.02-.08.04-.12.04-.06 0-.11-.06-.14-.17-.11-.31-.36-.5-1.39-.78l.04-.18c.66.13 1.12.22 1.42.22.58 0 .66-.28.72-.91.13-1.32.28-3.95.34-5.53h-1.85c-.24 3.68-.96 5.88-2.83 7.74l-.17-.13c1.44-1.8 2.21-3.6 2.41-7.6h-1.28c-.35 0-.6.05-.8.13l-.34-.44c.3.04.6.05.88.05h1.57c.04-.92.06-1.44.06-2.04 0-.29 0-.58-.01-.94l1.02.49s.06.04.06.06c0 .01-.01.04-.05.06l-.38.23c-.01.36-.06 1.42-.11 2.13h1.6l.47-.6.73.56zm4.99-.45c.07.05.1.08.1.11 0 .04-.02.07-.1.12l-.41.3v4.77c0 .91.02 1.66.06 2.2v.08c0 .17-.05.22-.3.32-.12.05-.19.07-.24.07-.07 0-.08-.06-.08-.16v-1.12h-2.43v1.2c0 .14-.04.2-.26.3-.12.05-.2.07-.25.07-.07 0-.1-.05-.1-.17v-.13c.04-.71.05-1.34.05-2.55v-4.77c0-.29-.01-.86-.04-1.24l.79.54h2.03l.41-.53.78.59zm-.97 6.44v-6.23h-2.43v6.24h2.43z"/></g><g class="cls-1"><path d="m74.31 3.31c1.08.25 1.9.79 1.9 1.25 0 .25-.18.52-.35.52-.12 0-.24-.1-.28-.25-.07-.26-.48-.98-1.33-1.39l.06-.12zm4-1.74-1.62 5.3c-.18.56-.25 1.36-.25 2.06 0 .44.02.85.08 1.15.04.22.06.38.06.54 0 .43-.18.6-.46.6s-.43-.14-.43-.55c0-.16.02-.36.08-.61.07-.3.16-.78.16-1.2s-.07-.76-.29-.82c-.4-.12-.76-.18-1.15-.22l.02-.19c1.22.07 1.46-.28 1.73-1.01l1.9-5.13.17.07zm-2.95-.91c1 .25 1.58.58 1.8.91.07.1.1.23.1.35 0 .28-.14.54-.34.54-.11 0-.19-.02-.3-.3-.18-.48-.47-.89-1.32-1.34l.06-.16zm9.79 5.04c.1.11.16.17.16.2 0 .05-.07.06-.22.06h-4.25l.62.5c.06.05.08.08.08.12s-.05.06-.16.07c-.25.02-.36.1-.54.32-.47.61-1.51 1.83-2.35 2.79l4.79-.12c-.24-.67-.76-1.37-1.49-2.09l.1-.11c1.33.82 2.41 2.06 2.41 2.93 0 .47-.23.7-.49.7-.17 0-.3-.07-.34-.64-.01-.2-.05-.4-.12-.6l-3.55.38c-.94.1-1.34.2-1.54.35-.05.04-.08.06-.12.06s-.07-.04-.11-.1l-.47-.77c.59-.07.78-.22 1.46-1.13.61-.82 1.32-1.99 1.64-2.69h-2.42c-.25 0-.61.05-.8.12l-.34-.43c.29.02.6.05.88.05h2.65v-2.55h-1.44c-.25 0-.61.05-.8.12l-.34-.43c.29.02.6.05.88.05h1.7v-1.7c0-.47-.01-.75-.04-1.17l.91.53c.08.05.12.07.12.11s-.04.06-.11.1l-.32.17v1.98h1.83l.54-.67.67.67c.1.1.14.16.14.19 0 .05-.06.07-.2.07h-2.99v2.55h2.69l.55-.73.7.73z"/></g><g class="cls-1"><path d="M97.47,10.09c-.55.07-.97.32-1.08.62-.04.1-.07.11-.19.11-3.61-.06-4.95-.1-5.44-.16-1.06-.13-1.83-.96-2.11-1.51-.08-.16-.16-.25-.24-.25-.34,0-1.26,1.56-1.38,1.9-.02.06-.04.1-.07.1-.02,0-.05-.01-.08-.04l-.6-.38,1.84-1.7v-3.85h-.95c-.23,0-.55.05-.73.12l-.3-.41c.26.02.54.05.79.05h.94l.42-.62.83.61c.06.05.1.08.1.11,0,.04-.04.06-.11.11l-.43.24v3.36c0,.41.9,1.69,2.23,1.71.38.01.77.01,1.13.01,1.73,0,3.27-.07,5.46-.28v.16ZM87.11.61c1.02.47,1.8,1.18,1.86,1.55.01.06.01.13.01.19,0,.34-.14.59-.31.59-.19,0-.25-.07-.38-.5-.12-.4-.6-1.18-1.24-1.69l.06-.13ZM97.26,3.81c.08.07.13.13.13.17,0,.05-.06.06-.18.06h-3.78c-.74,1.39-1.86,3.17-2.33,3.69l4.44-.24c-.3-.67-.78-1.43-1.32-2.05l.11-.12c.49.4,2.18,1.81,2.18,2.73,0,.37-.2.66-.46.66-.12,0-.18-.12-.26-.49-.04-.17-.1-.36-.18-.56l-2.87.37c-1.27.17-1.6.28-1.81.43-.05.04-.08.06-.12.06s-.07-.04-.13-.11l-.48-.64c.5-.06.73-.2.95-.54.52-.79,1.18-2.05,1.51-3.2h-1.99c-.23,0-.55.05-.73.12l-.3-.43c.26.02.54.05.79.05h5.49l.52-.71.82.74ZM96.3,1.13c.07.07.11.12.11.16,0,.06-.06.08-.16.08h-4.49c-.23,0-.55.05-.73.12l-.3-.43c.26.02.54.05.79.05h3.49l.5-.68.78.71Z"/></g><g class="cls-1"><path d="m109.05 8.58c.06.06.1.11.1.13 0 .04-.05.05-.17.05h-3.14v1.14c0 .16.02.91.02 1.08 0 .19-.55.34-.56.34-.06 0-.07-.04-.07-.13v-.07c.04-.52.04-1 .04-1.32v-1.03h-2.73c-.28 1.46-1.16 2.24-3.98 2.69v-.17c2.09-.58 3.24-1.21 3.45-2.52h-2.58c-.25 0-.6.05-.8.13l-.34-.44c.3.02.6.05.88.05h2.88c.05-.41.06-.78.06-1.14l.76.24c.06.02.1.04.1.06s-.18.17-.31.29c-.01.19-.04.37-.06.55h2.69c0-.38-.01-.76-.02-1.1l.8.35c.06.02.08.04.08.06 0 .04-.04.05-.29.22v.48h2l.47-.62.74.71zm-4.82-6.9s.06.06.06.08c0 .04-.04.05-.12.05h-2.36c.54.34.73.58.73.79 0 .3-.14.52-.32.52-.1 0-.18-.13-.22-.31-.05-.23-.23-.59-.53-1h-.78c-.72.96-1.43 1.78-1.99 2.27l-.12-.11c.85-1.02 1.91-2.62 2.48-3.85l.83.41s.07.04.07.06c0 .01-.04.02-.11.04-.2.02-.46.23-.56.37-.13.19-.26.37-.4.55h2.34l.37-.53.62.66zm5.01.02s.06.07.06.1-.04.04-.11.04h-3.01c.2.12.78.5.78.86 0 .12-.04.23-.11.3l.58.53s.06.06.06.1c0 .02-.01.05-.06.07l-.31.16v1.87c0 .8.01 1.15.04 1.57v.06c0 .12-.05.16-.25.28-.12.07-.2.1-.25.1-.07 0-.07-.01-.07-.46h-5.38c0 .22-.05.26-.25.36-.12.06-.2.08-.25.08-.07 0-.1-.05-.1-.16 0-.05 0-.12.01-.19.04-.33.05-.92.05-1.29v-2.03c0-.29-.01-.91-.04-1.28l.77.56h2.13c.74-1.07 1.49-2.35 1.88-3.26l.72.36c.07.04.12.06.12.08s-.05.04-.13.05c-.16.02-.34.18-.44.34-.16.22-.32.44-.5.68h2.89l.44-.64.74.77zm-2.66 2.83v-.95h-5.38v.95h5.38zm0 1.23v-.96h-5.38v.96h5.38zm0 1.24v-.98h-5.38v.98h5.38zm.09-3.95c-.12-.02-.19-.11-.24-.23-.17-.42-.32-.65-.62-.98h-.83c-.43.56-.89 1.14-1.19 1.49h2.66l.22-.28z"/></g><g class="cls-1"><path d="m115.4 2.52c.06.04.1.07.1.1 0 .04-.04.06-.1.1l-.41.25v4.64c0 .91.02 1.66.06 2.19v.07c0 .18-.05.23-.31.34-.12.05-.19.07-.23.07-.07 0-.08-.06-.08-.16v-.88h-2.58v1.14c0 .16-.02.19-.24.29-.11.05-.18.07-.24.07-.1 0-.12-.08-.12-.29v-.08c.02-.67.04-1.69.04-2.34v-4.97c0-.61-.01-.82-.04-1.17l.73.6h.56c.32-.77.61-1.68.8-2.39l.76.4c.1.05.14.08.14.12s-.05.06-.13.07c-.17.02-.29.11-.4.28l-.95 1.52h1.48l.4-.55.76.59zm-.97 3.07v-2.85h-2.58v2.85h2.58zm0 3.39v-3.13h-2.58v3.13h2.58zm6.31-6.38c.07.05.1.08.1.12s-.02.06-.1.11l-.38.23c-.08 3.11-.18 5.19-.25 6.22-.08 1.12-.19 1.48-1.12 1.99-.02.01-.05.02-.06.02-.05 0-.07-.05-.11-.14-.13-.41-.41-.59-1.5-.88v-.19c.68.16 1.14.25 1.45.25.59 0 .68-.31.74-1.02.11-1.16.23-3.61.29-6.5h-2.81c-.52 1.14-.95 1.91-1.52 2.73l-.13-.08c.79-1.44 1.6-3.66 2.05-5.33l.71.36c.12.06.18.11.18.16s-.06.08-.19.11c-.13.02-.23.12-.37.44-.22.5-.42.95-.6 1.34h2.52l.35-.56.76.61zm-4.19 2.14c.97.53 1.46 1.01 1.58 1.34.04.11.06.22.06.32 0 .32-.18.58-.35.58-.18 0-.24-.07-.29-.3-.13-.58-.49-1.22-1.09-1.83l.08-.11z"/></g><g class="cls-1"><path d="m125.96 3.9c.12.07.18.12.18.16 0 .02-.06.05-.19.08-.14.04-.3.18-.41.32-.19.25-.37.5-.55.73v3.66c0 .74.01 1.37.04 1.91v.08c0 .13-.04.19-.26.31-.13.07-.23.12-.28.12-.07 0-.1-.06-.1-.19 0-.06 0-.14.01-.24.06-.61.11-1.44.11-2.01v-3.01c-.84 1.07-1.55 1.88-2.12 2.48l-.13-.13c.73-.9 2.45-3.33 3.03-4.67l.67.4zm2.09-2.03c.08.08.12.13.12.17s-.07.05-.22.05h-2.1c.68.52.89.85.89 1.15 0 .23-.19.47-.37.47-.11 0-.22-.11-.24-.34-.02-.24-.25-.89-.56-1.28h-1.12c-.72 1.04-1.34 1.87-2.03 2.61l-.16-.1c.88-1.24 2.05-3.27 2.55-4.53l.76.4c.11.06.17.11.17.14s-.06.06-.18.08c-.11.02-.3.17-.4.32-.18.29-.36.55-.54.8h2.31l.46-.62.65.67zm5.13 3.66c.06.06.1.11.1.14s-.05.06-.16.06h-2.44v4.08c0 .77-.05 1.02-.92 1.4-.05.02-.07.04-.11.04s-.06-.05-.08-.13c-.11-.42-.35-.58-1.6-.91l.04-.17c.9.17 1.43.25 1.73.25.35 0 .4-.12.4-.36v-4.2h-2.99c-.25 0-.6.05-.8.13l-.34-.44c.3.02.6.05.88.05h3.25c0-.52-.02-1.44-.05-1.85l.9.41s.07.05.07.07-.02.05-.07.08l-.3.2v1.08h1.3l.44-.72.76.78zm-6.42.95c1.18.56 1.65 1.03 1.71 1.38.01.07.01.14.01.2 0 .34-.14.61-.36.61-.16 0-.29-.29-.32-.47-.07-.41-.48-1.06-1.13-1.61l.08-.12zm5.99-4.63c.08.08.13.14.13.19s-.06.06-.19.06h-2.29c.67.46.89.79.89 1.1 0 .26-.18.49-.37.49-.11 0-.18-.08-.2-.28-.05-.35-.24-.86-.62-1.32h-1.12c-.61.92-1.31 1.87-1.72 2.31l-.17-.11c.94-1.38 1.91-3.3 2.22-4.25l.76.4c.07.04.11.07.11.1 0 .04-.05.06-.13.1-.12.04-.29.22-.38.37-.16.25-.32.53-.52.82h2.55l.44-.62.61.64z"/></g><g class="cls-1"><path d="m145.29 5.06c.08.08.12.13.12.17 0 .05-.05.06-.16.06h-6.7l-.85 1.71h4.32l.41-.54.84.65s.06.05.06.06c0 .02-.02.05-.06.07l-.49.29c-.25 1.02-.61 2.05-.86 2.53-.26.52-.7.84-1.62 1.16-.04.01-.06.01-.08.01-.05 0-.06-.02-.07-.11-.05-.46-.18-.61-1.51-1.14l.04-.18c.97.34 1.54.5 1.91.5.4 0 .58-.19.8-.56.35-.58.6-1.39.83-2.53h-4.46l-.3.3s-.04.02-.05.02c-.04 0-.06-.01-.11-.06l-.56-.52c.41-.16.52-.22.62-.44l.6-1.24h-2.69c-.25 0-.6.05-.8.13l-.34-.44c.3.02.6.05.88.05h9.06l.52-.7.73.73zm-2.2-4.24c.06.05.1.07.1.11s-.04.07-.1.12l-.37.26v1.25c0 .41 0 .75.04 1.29v.1c0 .16-.04.2-.29.31-.11.05-.18.07-.23.07-.07 0-.08-.06-.08-.16v-.52h-4.86v.3c0 .17-.02.22-.23.3-.12.05-.19.08-.25.08-.08 0-.11-.07-.11-.24v-.16c.04-.68.04-.82.04-1.24v-1.28c0-.29-.01-.86-.04-1.24l.78.61h4.51l.31-.52.78.53zm-.94 2.57v-2.32h-4.86v2.33h4.86z"/></g></g><g><g class="cls-1"><path d="m35.23 26.7c-.01.38-.02.67-.02.91 0 .7.08.83.38.98.04.01.07.05.07.08s-.01.06-.04.1c-.47.82-.67.86-2.64.91-1.06.02-2.03.05-3.06.05-2.94 0-3.38-.01-3.38-1.2v-4.31l-.95.31c-.34.11-.64.26-.8.4l-.44-.32c.26-.04.53-.11.76-.18l1.44-.47v-1.63c0-.33-.01-.95-.04-1.43l.89.48c.07.05.12.07.12.11s-.04.07-.1.12l-.31.24v1.93l2.49-.8v-2.36c0-.48-.01-1.03-.02-1.45l.85.42c.07.04.11.07.11.11 0 .02-.02.06-.08.11l-.29.23v2.76l2.43-.79.3-.72.86.56s.07.06.07.08c0 .04-.02.07-.07.11l-.42.38c-.01.97-.11 2.69-.18 3.44-.06.65-.19.89-.89 1.31-.04.02-.07.04-.08.04-.05 0-.07-.04-.08-.12-.1-.5-.26-.59-1.37-.92v-.19c.64.13 1.06.2 1.33.2.49 0 .56-.23.61-.77.06-.71.16-2.42.16-3.21l-2.67.86v3.75c0 .24.02.62.02.88 0 .12-.05.16-.3.26-.1.04-.16.06-.2.06-.07 0-.1-.06-.1-.18 0-.16.01-.86.01-1.03v-3.55l-2.49.8v4.51c0 .5.02.72 3.18.72 1.28 0 2.72-.05 3.6-.13.85-.08.95-.17 1.15-2.45h.19z"/></g><g class="cls-1"><path d="m47.53 20.29c.06.06.1.1.1.13s-.05.05-.14.05h-2.28v8.24c0 .7-.14.83-1.02 1.21-.02.01-.04.01-.06.01-.04 0-.07-.02-.08-.08-.12-.54-.35-.68-1.69-.96l.02-.18c.78.12 1.28.18 1.62.18.6 0 .65-.2.65-.68v-7.74h-7.1c-.25 0-.6.05-.8.13l-.34-.44c.3.02.6.05.88.05h8.92l.48-.72.85.8zm-4.87 2.23s.07.06.07.1-.02.06-.08.1l-.43.28v1.83c0 .98.01 1.42.05 1.93v.1c0 .16-.04.2-.29.31-.12.05-.19.07-.24.07-.07 0-.08-.06-.08-.16v-.73h-2.88v1.03c0 .14-.04.2-.26.3-.11.05-.18.07-.23.07-.08 0-.11-.07-.11-.25v-.13c.02-.71.04-1.29.04-1.98v-2.24c0-.29-.01-.86-.04-1.24l.68.56h2.63l.35-.56.83.61zm-1.01 3.56v-3.35h-2.88v3.35h2.88z"/></g><g class="cls-1"><path d="m58.63 19.81s.06.05.06.08c0 .02-.02.05-.06.08l-.36.31v8.71c0 .44-.18.67-.76 1.03-.04.02-.07.04-.08.04-.05 0-.07-.04-.08-.12-.07-.37-.29-.54-1.4-.77l.02-.2c.53.1.91.14 1.16.14.48 0 .58-.17.58-.58v-2.92h-3.21v1.26c0 1.14.01 1.83.04 2.29v.1c0 .16-.04.2-.28.31-.11.05-.19.07-.25.07-.08 0-.11-.07-.11-.28v-.11c.02-.77.04-1.55.04-2.41v-1.24h-3.06c-.04 2.12-.91 3.56-2.21 4.67l-.13-.12c1.54-1.8 1.81-2.76 1.81-6.38v-3.15c0-.46-.02-.98-.04-1.39l.72.56h6.44l.36-.52.8.52zm-4.7 5.55v-2.46h-3.03c0 .75-.01 1.54-.02 2.46h3.06zm0-2.72v-2.57h-3.03v2.57h3.03zm3.78 0v-2.57h-3.21v2.57h3.21zm0 2.72v-2.46h-3.21v2.46h3.21z"/></g><g class="cls-1"><path d="m71.34 23.71c.07.08.11.13.11.17 0 .05-.05.06-.14.06h-4.94v5.1c0 .59-.11.79-.9 1.16-.04.01-.07.02-.1.02-.05 0-.07-.02-.08-.1-.1-.52-.31-.72-1.64-1.04v-.17c.78.13 1.27.2 1.6.2.5 0 .55-.17.55-.52v-4.67h-4.2c-.25 0-.61.05-.8.12l-.34-.43c.29.02.6.05.88.05h4.46v-2.96h-3.2c-.24 0-.59.05-.77.12l-.32-.43c.28.02.58.05.84.05h6.93l.52-.7.72.78c.06.06.1.11.1.13 0 .04-.06.05-.16.05h-4.08v2.96h3.69l.58-.72.71.75z"/></g><g class="cls-1"><path d="m83.64 29.38c-.78-.02-1.16.11-1.4.42-.02.02-.05.05-.07.05s-.06-.01-.1-.04c-2.16-1.07-3.47-2.52-3.96-4.99-.42.5-.98 1.04-1.62 1.57v2.85l2.48-1.04.07.17-1.86 1.07c-.52.3-.88.59-1.08.83-.02.02-.05.05-.07.05s-.05-.02-.07-.05l-.5-.61c.36-.23.48-.35.48-.6v-2.23c-1.06.79-2.27 1.52-3.37 1.98l-.11-.16c2.18-1.26 3.93-2.67 4.95-3.86h-3.74c-.25 0-.6.05-.8.13l-.34-.47c.3.02.6.05.88.05h4.44v-1.45h-2.73c-.25 0-.6.05-.8.13l-.34-.44c.3.02.6.05.88.05h3v-1.54h-3.54c-.25 0-.6.05-.8.13l-.4-.46c.3.04.66.06.94.06h3.8c0-.83-.02-1.51-.05-1.94l.91.46c.07.04.11.07.11.11 0 .02-.04.06-.08.1l-.32.23v1.06h3.31l.46-.65.89.73c.07.06.1.1.1.13s-.04.05-.13.05h-4.62v1.54h2.43l.43-.62.8.7c.07.06.11.11.11.13 0 .05-.05.06-.14.06h-3.63v1.45h3.68l.48-.61.77.68c.08.07.12.12.12.16s-.06.06-.18.06h-4.94c.26.78.64 1.58 1.09 2.16.95-.55 1.87-1.19 2.29-1.54l.67.71s.06.07.06.1c0 .04-.04.05-.08.05s-.23-.02-.26-.02c-.3 0-.7.16-2.49.91.91 1.03 2.19 1.8 4.03 2.09v.14z"/></g><g class="cls-1"><path d="m95.46 23.14c.08.07.12.12.12.16 0 .02-.05.04-.16.04h-4.99v5.34c0 .91-.07 1.15-.71 1.43-.11.05-.17.07-.23.07-.07 0-.1-.06-.12-.19-.06-.32-.35-.56-1.54-.91v-.18c.74.14 1.21.23 1.51.23.46 0 .49-.19.49-.58v-5.21h-4.19c-.32 0-.59.04-.79.12l-.41-.42c.3.02.64.04.94.04h8.71l.52-.68.84.75zm-7.24 1.86c.14.1.22.16.22.19 0 .02-.04.04-.11.06-.16.05-.36.19-.44.3-.77 1.06-1.87 2.4-3.12 3.57l-.12-.11c1.19-1.46 2.21-2.95 2.95-4.44l.62.42zm5.83-4.68c.08.07.12.12.12.16 0 .02-.05.04-.16.04h-7.04c-.25 0-.49.02-.7.1l-.43-.41c.32.04.64.05.91.05h5.95l.55-.68.79.76zm-2.46 4.22c1.21.91 3.05 2.52 3.05 3.61 0 .44-.23.64-.37.64-.16 0-.28-.14-.36-.48-.2-.89-1.02-2.17-2.41-3.65l.1-.12z"/></g><g class="cls-1"><path d="m107.24 29.09c.07.07.11.13.11.18s-.06.08-.17.08h-9.4c-.25 0-.61.05-.8.12l-.34-.43c.29.02.6.05.88.05h1.44v-4.44c0-.49-.02-1.19-.05-1.63l.94.52c.1.05.14.1.14.13s-.04.08-.12.13l-.34.22v5.07h2.55v-8.43h-3.48c-.25 0-.61.05-.8.12l-.34-.43c.29.02.6.05.88.05h7.27l.5-.67.7.67c.07.06.1.12.1.17 0 .06-.05.1-.16.1h-4.08v3.73h2.29l.53-.68.7.68c.08.07.12.13.12.18s-.06.08-.17.08h-3.47v4.44h3.31l.56-.68.7.68z"/></g><g class="cls-1"><path d="m114.43 22.07c.06.05.08.08.08.11 0 .04-.05.05-.16.05h-2.46v.41c.43.12 1.95.54 1.95 1.24 0 .19-.1.36-.24.36-.13 0-.19-.02-.34-.24-.25-.36-.73-.83-1.38-1.17v1.21c0 .12-.04.17-.23.24-.11.04-.18.06-.23.06-.07 0-.1-.05-.1-.12v-.05c.02-.34.04-.74.04-1.2v-.72c-.97 1.39-1.67 2.12-2.9 3l-.11-.11c1.07-1.01 1.64-1.67 2.39-2.9h-.94c-.25 0-.6.05-.8.13l-.34-.44c.3.02.6.05.88.05h1.82v-1.83c0-.3-.01-.64-.04-1.03l.85.43c.06.02.08.05.08.07s-.02.05-.08.08l-.3.17v2.11h1.38l.44-.56.71.67zm-.78 3.58s.06.06.06.07c0 .04-.04.05-.07.05-.14 0-.35.19-.44.37-.4.78-.56 1.1-.85 1.5.64.28.97.54 1.16.77.08.1.11.23.11.35 0 .2-.1.38-.24.38-.11 0-.19-.06-.38-.3-.2-.26-.49-.53-.95-.82-.67.82-1.56 1.42-3.43 2.06l-.06-.16c1.65-.77 2.55-1.49 3.08-2.13-.47-.24-1.09-.49-1.92-.75.24-.4.47-.8.66-1.2l-.82.04c-.25 0-.41.04-.6.12l-.46-.4c.3.05.56.05.84.04l1.15-.05c.22-.43.38-.85.52-1.24l.64.38s.07.05.07.07c0 .05-.04.06-.36.14l-.34.61 1.65-.07.29-.38.68.54zm-4.3-5.91c1.07.54 1.35.94 1.35 1.33 0 .24-.14.42-.35.42-.1 0-.2-.13-.25-.37-.07-.4-.37-.85-.82-1.27l.06-.11zm.91 7.24c.66.16 1.2.32 1.63.48.36-.52.62-1.09.85-1.71l-1.86.07-.62 1.16zm7.91-4.94c-.28 2.12-.9 4.22-1.39 5.05.7 1.06 1.52 1.67 2.87 2.24l-.05.12c-.13-.01-.24-.01-.34-.01-.32 0-.52.06-.72.28-.02.02-.06.05-.08.05-.07 0-1.29-1.07-2.03-2.22-1.2 1.39-2.23 2.17-4.08 2.85l-.05-.17c1.56-.73 3.01-1.91 3.87-3.13-.49-1.01-.89-2.57-1.02-4.08-.38.83-.77 1.56-1.19 2.21l-.12-.1c.95-2.04 1.75-4.39 2.12-6.08l.82.47c.06.04.08.06.08.08s-.04.04-.13.06c-.23.05-.28.12-.38.42-.23.61-.46 1.16-.66 1.69h2.71l.44-.55.68.66s.07.08.07.11-.04.05-.14.05h-1.3zm-4.09-1.92c.06.04.1.06.1.08s-.04.04-.11.05c-.36.04-.47.07-1.6 1.36l-.14-.1c.41-.6.74-1.16 1.04-1.79l.71.4zm1.51 1.92c-.08.2-.17.4-.25.59.34 2.03.7 3.12 1.15 3.97.42-.82.84-2.53 1.03-4.56h-1.93z"/></g></g></g></g></svg>
