<svg viewBox="0 0 240.33 274.25" xmlns="http://www.w3.org/2000/svg"><defs><style>.cls-1 {
        fill: #4d4d4d;
      }

      .cls-2 {
        fill: none;
      }

      .cls-3 {
        clip-path: url(#a);
      }

      .cls-4 {
        clip-path: url(#b);
      }</style><clipPath id="b"><rect class="cls-2" x="35.61" y="11.92" width="13.1" height="67.48"/></clipPath><clipPath id="a"><rect class="cls-2" x="35.61" y="103.25" width="13.1" height="67.48"/></clipPath></defs><g id="c"><g><path d="m2.56 94.62c.48 0 .96-.1 1.44-.31s.84-.42 1.08-.63l.35-.32c-.02-1.4-.05-2.28-.1-2.62-.14-1.13-.59-1.69-1.36-1.69-.68 0-1.27.36-1.78 1.08-.27.39-.48.92-.65 1.59s-.26 1.18-.27 1.53c0 .48.12.83.37 1.05s.55.33.91.34zm-2.56-1.91c0-1.12.42-2.1 1.27-2.95.85-.84 1.77-1.27 2.79-1.27.69 0 1.24.2 1.65.59s.69.87.84 1.44c.06.28.09.61.1.99v.43c.48-.73.85-1.54 1.11-2.45.04-.14.07-.22.09-.24s.1-.03.24-.04c.21 0 .31.04.31.12 0 .09-.04.28-.13.57s-.27.71-.53 1.25c-.27.54-.56 1.03-.9 1.47l-.16.21v.35c.03.55.07.92.13 1.12s.15.3.28.31c.14-.02.27-.07.38-.16s.2-.2.25-.34c.02-.07.04-.11.07-.12.03 0 .1-.02.22-.03.2 0 .29.04.29.12 0 .06-.03.15-.09.28-.12.24-.29.42-.52.56s-.44.21-.65.22h-.1c-.66 0-1.11-.35-1.34-1.06l-.04-.1-.16.12c-.1.08-.25.18-.44.29-.2.12-.42.23-.66.34-.25.11-.53.21-.85.29s-.64.13-.94.13c-.78 0-1.39-.25-1.83-.74s-.66-1.07-.66-1.72z"/><path d="m9.54 91.17c-.1 0-.18-.03-.25-.08-.07-.06-.11-.13-.11-.23 0-.07.25-1.12.76-3.14.51-2.03.77-3.06.8-3.1.09-.19.25-.29.48-.29.08 0 .15.03.21.07s.09.08.1.12.02.08.02.1c0 .08-.11.55-.32 1.4-.22.85-.33 1.32-.34 1.43-.01.08-.02.2-.02.36v.08c0 .51.23.76.7.76.06 0 .13 0 .19-.01.06 0 .12-.02.18-.04s.11-.05.16-.07c.05-.03.09-.05.14-.07.04-.02.08-.06.13-.1s.08-.08.11-.1.07-.06.1-.12.06-.1.08-.11.05-.06.09-.12l.07-.1.38-1.49c.25-.99.39-1.51.42-1.57.09-.19.24-.28.45-.28.09 0 .16.02.22.07s.09.09.11.12.03.07.02.1l-.79 3.31s-.01.09-.01.17c0 .17.02.29.07.34.05.06.12.09.22.09.06 0 .13-.04.21-.09.15-.14.29-.47.43-1 .04-.14.08-.21.1-.22.01 0 .05-.01.1-.01h.04c.13 0 .2.03.2.09 0 .04-.02.14-.05.28-.03.15-.1.33-.21.56-.1.23-.22.4-.33.52-.09.09-.2.16-.33.22-.06.01-.14.02-.25.02-.15 0-.28-.02-.4-.06s-.21-.09-.28-.16c-.07-.06-.13-.12-.18-.19-.05-.06-.08-.11-.09-.16-.01-.04-.02-.07-.02-.07l-.06.06s-.1.09-.19.16c-.08.06-.17.12-.27.19-.1.06-.22.12-.38.17-.15.05-.3.07-.44.07-.33 0-.65-.08-.97-.24l-.25 1.01c-.15.57-.23.9-.26.99s-.07.17-.13.23c-.11.1-.23.15-.35.15z"/><path d="m20.87 92.75c0-.15.08-.25.24-.29h9.37c.14.1.21.2.21.29 0 .13-.07.23-.22.29h-9.39c-.14-.07-.21-.17-.21-.29zm0-2.86c0-.13.07-.23.21-.29h9.39c.15.08.22.18.22.29s-.07.2-.21.28h-4.69s-4.69.01-4.69.01c-.16-.05-.24-.15-.24-.29z"/><path d="m46.1 0 .09.09v.41c0 .11-.07.2-.21.28-.76.52-1.38 1.19-1.87 2-.49.82-.82 1.72-.99 2.72 0 0 0 .03-.01.06-.04.27-.06 1.12-.07 2.53v1.61c0 2.38 0 3.57-.01 3.59 0 .04-.05.06-.13.07-.08 0-.32.01-.74.01-.51 0-.78 0-.8-.01-.03 0-.05-.03-.06-.06-.02-.1-.03-1.25-.03-3.46v-1.21c0-.49 0-.83-.01-1.03 0-.97.04-1.72.13-2.25s.29-1.12.62-1.78c.75-1.47 1.88-2.63 3.39-3.48l.19-.1h.52z"/><path d="m46.19 182.56-.09.09h-.52l-.16-.09c-1.22-.67-2.19-1.55-2.92-2.64s-1.13-2.26-1.22-3.51c0-.1-.01-1.05-.01-2.86 0-2.8 0-4.21.01-4.23l.06-.06s.3-.01.81-.01c.41 0 .66 0 .74.01.08 0 .12.03.13.07 0 .02.01 1.21.01 3.58v1.87c0 1.02.02 1.74.06 2.17.04.42.15.89.32 1.41.16.47.35.91.57 1.31.23.4.46.74.71 1.02.25.27.46.5.65.66s.37.32.56.46.28.2.27.19c0 0 0 .09.01.29v.25z"/><path d="m41.34 77.93s.34-.01.97-.01c.4 0 .61 0 .63.01.03 0 .05.03.06.06.02.1.03 1.23.03 3.4 0 2.29 0 3.48-.01 3.56-.09 1.31-.47 2.5-1.15 3.58s-1.57 1.96-2.68 2.65l-.21.13.21.13c1.04.65 1.92 1.51 2.62 2.58.71 1.07 1.11 2.29 1.21 3.65 0 .09.01 1.28.01 3.56v3.02c0 .28-.02.43-.07.44h-.01s-.28.01-.8.01-.78 0-.8-.01c-.03 0-.05-.03-.06-.06-.02-.1-.03-1.23-.03-3.39v-2.11c0-1.04-.03-1.86-.1-2.45s-.24-1.21-.52-1.86c-.17-.43-.37-.83-.6-1.21-.24-.37-.46-.68-.68-.93s-.42-.45-.6-.6-.34-.28-.46-.38l-.18-.15s-.01-.1-.01-.27 0-.26.01-.27c0 0 .1-.09.29-.24.2-.15.44-.38.72-.69s.58-.69.88-1.12.57-1.01.8-1.72c.23-.72.37-1.48.43-2.28 0-.12.01-1.33.01-3.62s0-3.36.01-3.39l.06-.06z"/><g class="cls-4"><path d="M41.27,41.5V3.01c0-8.41.02-13.16.07-14.27.02-.22.34-.33.97-.33.4,0,.61.11.63.33.04.22.06,1.44.07,3.65,0,3.32.01,19.69.01,49.11v45.8c0,4.42-.02,6.75-.07,6.97h-.01c-.02.22-.28.33-.8.33s-.78-.11-.8-.33c-.04-.22-.06-1.44-.07-3.65,0-3.32-.01-19.69-.01-49.11Z"/></g><g class="cls-3"><path d="m41.27 132.84v-38.49c0-8.41.02-13.16.07-14.27.02-.22.34-.33.97-.33.4 0 .61.11.63.33.04.22.06 1.44.07 3.65 0 3.32.01 19.69.01 49.11v45.8c0 4.42-.02 6.75-.07 6.97h-.01c-.02.22-.28.33-.8.33s-.78-.11-.8-.33c-.04-.22-.06-1.44-.07-3.65 0-3.32-.01-19.69-.01-49.11z"/></g><path d="m51.85 2.65-.19.07c-.14.05-.33.1-.59.15s-.54.08-.85.1h-.28v-.68h.28c.46-.02.89-.09 1.28-.22s.67-.25.83-.35c.16-.11.29-.22.41-.32.02-.03.08-.04.18-.04.09 0 .17.03.25.09v8.82c.08.07.14.11.19.13s.17.04.35.06c.19.02.49.03.91.03h.38v.68h-.16c-.21-.03-.99-.04-2.34-.04s-2.11.01-2.31.04h-.18v-.68h.94c.16 0 .28 0 .37-.01s.17-.02.24-.04.11-.03.12-.03.04-.02.09-.07.08-.07.09-.06v-7.63z"/><path d="m150.72 10.78c.48 0 .96-.1 1.44-.31s.84-.42 1.08-.63l.35-.32c-.02-1.4-.05-2.28-.1-2.62-.14-1.13-.59-1.69-1.36-1.69-.68 0-1.27.36-1.78 1.08-.27.39-.48.92-.65 1.59s-.26 1.18-.27 1.53c0 .48.12.83.37 1.05s.55.33.91.34zm-2.56-1.91c0-1.12.42-2.1 1.27-2.95.85-.84 1.77-1.27 2.79-1.27.69 0 1.24.2 1.65.59s.69.87.84 1.44c.06.28.09.61.1.99v.43c.48-.73.85-1.54 1.11-2.45.04-.14.07-.22.09-.24s.1-.03.24-.04c.21 0 .31.04.31.12 0 .09-.04.28-.13.57s-.27.71-.53 1.25c-.27.54-.56 1.03-.9 1.47l-.16.21v.35c.03.55.07.92.13 1.12s.15.3.28.31c.14-.02.27-.07.38-.16.12-.09.2-.2.25-.34.02-.07.04-.11.07-.12.03 0 .1-.02.22-.03.2 0 .29.04.29.12 0 .06-.03.15-.09.28-.12.24-.29.42-.52.56s-.44.21-.65.22h-.1c-.66 0-1.11-.35-1.34-1.06l-.04-.1-.16.12c-.1.08-.25.18-.44.29-.2.12-.42.23-.66.34s-.53.21-.85.29c-.32.09-.64.13-.94.13-.78 0-1.39-.25-1.83-.74s-.66-1.07-.66-1.72z"/><path d="m162.42 7.48c0-1.2.4-2.18 1.21-2.95s1.76-1.2 2.86-1.31h.25c.16 0 .36 0 .62-.01s.5 0 .74 0h1.46c.15.08.22.18.22.29 0 .09-.06.18-.19.28h-1.53c-1.09.02-1.76.05-2.02.1-.48.12-.91.29-1.28.53s-.66.48-.87.72-.38.52-.53.81-.24.53-.27.71-.05.34-.07.5v.03h6.54c.15.08.22.18.22.29s-.07.22-.22.29h-6.54v.03c0 .21.05.46.15.75s.26.61.49.96c.23.34.54.66.94.94s.88.49 1.43.6c.27.06.94.09 2.03.1h1.53c.13.1.19.2.19.29 0 .12-.07.22-.22.29h-1.8c-.18 0-.32 0-.43.01-1.52 0-2.73-.42-3.61-1.27-.86-.81-1.3-1.81-1.3-3.02z"/><path d="m184.26 2.84v-.88s-.08.03-.12.03c-.1.04-.21.06-.34.06h-.22l.19.21c.2.22.3.34.32.38l.16.21zm-5.47-.88c.14-.18.19-.27.16-.27-.23.08-.46.19-.69.34-.24.15-.5.35-.78.6-.28.26-.54.59-.75 1.02-.22.42-.37.89-.46 1.41-.05.29-.07.65-.07 1.08s.02.78.07 1.08c.1.54.27 1.03.5 1.46.24.43.49.77.75 1 .27.24.53.43.78.59s.47.27.63.32l.25.07c-.07-.07-.13-.14-.19-.21-.64-.62-1.05-1.63-1.22-3.03-.03-.27-.04-.71-.04-1.33s.01-1.06.04-1.33c.19-1.23.53-2.17 1.02-2.81zm6.4 7.27c0 .06-.06.17-.18.32-.12.16-.31.34-.57.56-.27.22-.56.42-.88.62s-.74.36-1.24.5-1.01.21-1.52.21c-.55 0-1.09-.08-1.62-.24s-1.03-.4-1.5-.72-.88-.76-1.22-1.3-.57-1.16-.69-1.87c-.05-.22-.07-.61-.07-1.18s.02-.96.07-1.18c.22-1.15.7-2.08 1.46-2.8s1.73-1.15 2.92-1.3c.03 0 .14 0 .34-.01s.35-.01.46-.01c.53.03 1.06.15 1.59.35.53.21.93.31 1.21.32.18 0 .3-.03.38-.1s.12-.15.13-.24.03-.17.07-.24.11-.11.21-.12c.11 0 .2.06.27.18v3.08l-.06.1c-.13.07-.25.08-.37.03-.04-.04-.09-.16-.15-.35-.06-.2-.17-.42-.34-.66-.32-.45-.76-.86-1.3-1.24-.54-.37-1.12-.56-1.72-.56h-.13c-.43 0-.84.19-1.21.56-.85.77-1.28 2.18-1.28 4.26 0 .85.1 1.63.31 2.31.4 1.46 1.25 2.19 2.54 2.19s2.42-.49 3.48-1.47c.17-.17.29-.25.37-.25.05 0 .1.02.16.06s.09.1.1.18z"/><path d="m188.13 1.86c-.09-.93-.14-1.45-.14-1.56 0-.12.08-.22.25-.29h.05s.05 0 .06-.01c.08 0 .16.04.23.09.07.06.1.12.1.21 0 .12-.02.4-.06.83s-.07.68-.07.73l.6-.44c.39-.28.6-.44.64-.46.03-.02.07-.03.1-.03.09 0 .17.03.25.1s.12.16.13.28c0 .09-.03.17-.1.24-.03.02-.27.14-.71.34-.44.21-.67.32-.71.33l.69.32.73.36c.06.06.09.14.09.24s-.03.19-.09.26-.15.11-.25.11c-.06 0-.12-.02-.19-.06s-.26-.18-.57-.42l-.6-.44c.09.93.14 1.45.14 1.56 0 .07-.02.14-.07.2s-.14.09-.27.09-.22-.03-.27-.09-.08-.13-.08-.2c0-.12.02-.4.06-.83.04-.44.07-.68.07-.73l-.6.44c-.39.28-.6.44-.64.46-.03.02-.06.03-.1.03-.09 0-.17-.03-.25-.1s-.12-.16-.13-.28v-.08s.01-.04.03-.06.04-.04.05-.06.05-.05.09-.07.09-.05.14-.07c.04-.02.11-.05.2-.09s.18-.08.26-.11.19-.09.33-.16l.42-.21-1.42-.68c-.06-.06-.09-.14-.09-.24s.03-.19.09-.26.15-.11.25-.11c.06 0 .12.02.19.06s.26.18.57.42l.6.44z"/><path d="m192.84 10.65v-.37c0-.25.08-.46.24-.63.16-.18.37-.27.63-.27s.52.12.74.37.33.68.34 1.3c0 .34-.04.68-.13 1s-.19.6-.31.84-.25.44-.38.6c-.14.17-.26.3-.35.4-.1.1-.16.14-.19.13-.04 0-.1-.04-.19-.13s-.13-.15-.13-.19.05-.12.16-.24.23-.27.37-.44.27-.42.38-.74c.12-.31.2-.67.24-1.08v-.18h-.01s-.04.03-.07.04-.06.02-.09.04-.07.03-.13.03-.12 0-.18.01c-.27 0-.48-.08-.65-.25l-.27-.27z"/><path d="m199.1 14.34c-.14 0-.26-.04-.35-.12-.1-.08-.15-.19-.16-.32 0-.1.36-1.58 1.08-4.45s1.1-4.33 1.13-4.39c.13-.27.35-.41.68-.41.12 0 .22.04.29.1s.13.12.15.18.03.11.03.15c0 .12-.15.78-.46 1.97-.3 1.2-.47 1.87-.49 2.02-.02.11-.03.28-.03.52v.12c0 .72.33 1.08.99 1.08.09 0 .18 0 .27-.01s.17-.03.25-.06.15-.06.22-.1.13-.07.19-.1.12-.08.18-.15.11-.12.16-.15.1-.09.15-.18.09-.14.12-.16.07-.08.13-.18l.1-.15.53-2.11c.35-1.39.55-2.14.59-2.22.13-.27.34-.4.63-.4.13 0 .23.03.31.1s.13.13.16.18.04.1.03.15l-1.12 4.68s-.01.13-.01.24c0 .25.03.41.1.49s.17.12.31.13c.09 0 .19-.05.29-.13.21-.2.41-.67.6-1.41.06-.2.11-.3.15-.31.02 0 .07-.01.15-.01h.06c.19 0 .28.04.28.13 0 .06-.02.19-.07.4s-.15.47-.29.8c-.15.32-.3.57-.47.74-.13.13-.28.23-.47.31-.08.02-.2.03-.35.03-.21 0-.39-.03-.56-.09s-.3-.13-.4-.22-.18-.18-.25-.27-.11-.16-.13-.22-.03-.09-.03-.1l-.09.09c-.06.06-.15.13-.27.22s-.25.18-.38.27-.31.17-.53.24-.42.1-.62.1c-.46 0-.92-.11-1.37-.34l-.35 1.43c-.21.81-.33 1.27-.37 1.4s-.1.24-.18.32c-.16.14-.32.21-.5.21z"/><path d="m212.06 8.91c0-.15.08-.25.24-.29h9.37c.14.1.21.2.21.29 0 .13-.07.23-.22.29h-9.39c-.14-.07-.21-.17-.21-.29zm0-2.86c0-.13.07-.23.21-.29h9.39c.15.08.22.18.22.29s-.07.2-.21.28h-4.69s-4.69.01-4.69.01c-.16-.05-.24-.15-.24-.29z"/><path d="m231.52 2.37c-.29-.31-.64-.47-1.05-.47s-.77.16-1.06.47c-.25.26-.41.61-.49 1.06s-.12 1.39-.12 2.83c0 1.55.04 2.57.12 3.06s.26.88.53 1.16c.28.29.61.44 1.02.44s.73-.15 1-.44c.28-.29.46-.71.53-1.24s.11-1.53.12-2.99c0-1.42-.04-2.36-.12-2.81s-.24-.81-.49-1.08zm-3.31.18c.55-.8 1.3-1.19 2.26-1.19.47 0 .94.13 1.41.38s.85.71 1.15 1.36c.36.82.55 1.93.55 3.36 0 1.52-.21 2.69-.63 3.49-.2.41-.47.74-.81.99s-.64.4-.9.46-.51.09-.75.1c-.26 0-.51-.03-.77-.09s-.56-.22-.9-.47c-.34-.26-.61-.58-.81-.99-.42-.81-.63-1.97-.63-3.49 0-1.71.28-3.01.84-3.9z"/><path d="m53.44 22.99c-.29-.31-.64-.47-1.05-.47s-.77.16-1.06.47c-.25.26-.41.61-.49 1.06s-.12 1.39-.12 2.83c0 1.55.04 2.57.12 3.06s.26.88.53 1.16c.28.29.61.44 1.02.44s.73-.15 1-.44c.28-.29.46-.71.53-1.24s.11-1.53.12-2.99c0-1.42-.04-2.36-.12-2.81s-.24-.81-.49-1.08zm-3.32.18c.55-.8 1.3-1.19 2.26-1.19.47 0 .94.13 1.41.38.47.26.85.71 1.15 1.36.36.82.55 1.93.55 3.36 0 1.52-.21 2.69-.63 3.49-.2.41-.47.74-.81.99s-.64.4-.9.46-.51.09-.75.1c-.26 0-.51-.03-.77-.09s-.56-.22-.9-.47-.61-.58-.81-.99c-.42-.81-.63-1.97-.63-3.49 0-1.71.28-3.01.84-3.9z"/><path d="m150.72 31.4c.48 0 .96-.1 1.44-.31s.84-.42 1.08-.63l.35-.32c-.02-1.4-.05-2.28-.1-2.62-.14-1.13-.59-1.69-1.36-1.69-.68 0-1.27.36-1.78 1.08-.27.39-.48.92-.65 1.59s-.26 1.18-.27 1.53c0 .48.12.83.37 1.05s.55.33.91.34zm-2.56-1.91c0-1.12.42-2.1 1.27-2.95.85-.84 1.77-1.27 2.79-1.27.69 0 1.24.2 1.65.59s.69.87.84 1.44c.06.28.09.61.1.99v.43c.48-.73.85-1.54 1.11-2.45.04-.14.07-.22.09-.24s.1-.03.24-.04c.21 0 .31.04.31.12 0 .09-.04.28-.13.57s-.27.71-.53 1.25c-.27.54-.56 1.03-.9 1.47l-.16.21v.35c.03.55.07.92.13 1.12s.15.3.28.31c.14-.02.27-.07.38-.16.12-.09.2-.2.25-.34.02-.07.04-.11.07-.12.03 0 .1-.02.22-.03.2 0 .29.04.29.12 0 .06-.03.15-.09.28-.12.24-.29.42-.52.56s-.44.21-.65.22h-.1c-.66 0-1.11-.35-1.34-1.06l-.04-.1-.16.12c-.1.08-.25.18-.44.29-.2.12-.42.23-.66.34-.25.11-.53.21-.85.29-.32.09-.64.13-.94.13-.78 0-1.39-.25-1.83-.74s-.66-1.07-.66-1.72z"/><path d="m162.01 29.53c0-.15.08-.25.24-.29h9.37c.14.1.21.2.21.29 0 .13-.07.23-.22.29h-9.39c-.14-.07-.21-.17-.21-.29zm0-2.86c0-.13.07-.23.21-.29h9.39c.15.08.22.18.22.29s-.07.2-.21.28h-4.69s-4.69.01-4.69.01c-.16-.05-.24-.15-.24-.29z"/><path d="m181.47 22.99c-.29-.31-.64-.47-1.05-.47s-.77.16-1.06.47c-.25.26-.41.61-.49 1.06s-.12 1.39-.12 2.83c0 1.55.04 2.57.12 3.06s.26.88.53 1.16c.28.29.61.44 1.02.44s.73-.15 1-.44c.28-.29.46-.71.53-1.24s.11-1.53.12-2.99c0-1.42-.04-2.36-.12-2.81s-.24-.81-.49-1.08zm-3.31.18c.55-.8 1.3-1.19 2.26-1.19.47 0 .94.13 1.41.38s.85.71 1.15 1.36c.36.82.55 1.93.55 3.36 0 1.52-.21 2.69-.63 3.49-.2.41-.47.74-.81.99s-.64.4-.9.46-.51.09-.75.1c-.26 0-.51-.03-.77-.09s-.56-.22-.9-.47-.61-.58-.81-.99c-.42-.81-.63-1.97-.63-3.49 0-1.71.28-3.01.84-3.9z"/><path d="m185.26 31.27v-.37c0-.25.08-.46.24-.63s.37-.27.63-.27.52.12.74.37.33.68.34 1.3c0 .34-.04.68-.13 1s-.19.6-.31.84-.25.44-.38.6c-.14.17-.26.3-.35.4-.1.1-.16.14-.19.13-.04 0-.1-.04-.19-.13s-.13-.15-.13-.19.05-.12.16-.24.23-.27.37-.44c.14-.18.27-.42.38-.74.12-.31.2-.67.24-1.08v-.18h-.01s-.04.03-.07.04c-.03 0-.06.02-.09.04s-.07.03-.13.03-.12 0-.18.01c-.27 0-.48-.08-.65-.25l-.27-.27z"/><path d="m191.52 34.97c-.14 0-.26-.04-.35-.12-.1-.08-.15-.19-.16-.32 0-.1.36-1.58 1.08-4.45s1.1-4.33 1.13-4.39c.13-.27.35-.41.68-.41.12 0 .22.04.29.1.08.06.13.12.15.18s.03.11.03.15c0 .12-.15.78-.46 1.97-.3 1.2-.47 1.87-.49 2.02-.02.11-.03.28-.03.52v.12c0 .72.33 1.08.99 1.08.09 0 .18 0 .27-.01s.17-.03.25-.06.15-.06.22-.1.13-.07.19-.1.12-.08.18-.15.11-.12.16-.15.1-.09.15-.18.09-.14.12-.16.07-.08.13-.18l.1-.15.53-2.11c.35-1.39.55-2.14.59-2.22.13-.27.34-.4.63-.4.13 0 .23.03.31.1s.13.13.16.18.04.1.03.15l-1.12 4.68s-.01.13-.01.24c0 .25.03.41.1.49s.17.12.31.13c.09 0 .19-.05.29-.13.21-.2.41-.67.6-1.41.06-.2.11-.3.15-.31.02 0 .07-.01.15-.01h.06c.19 0 .28.04.28.13 0 .06-.02.19-.07.4s-.15.47-.29.8c-.15.32-.3.57-.47.74-.13.13-.28.23-.47.31-.08.02-.2.03-.35.03-.21 0-.39-.03-.56-.09s-.3-.13-.4-.22-.18-.18-.25-.27-.11-.16-.13-.22-.03-.09-.03-.1l-.09.09c-.06.06-.15.13-.27.22s-.25.18-.38.27c-.14.09-.31.17-.53.24s-.42.1-.62.1c-.46 0-.92-.11-1.37-.34l-.35 1.43c-.21.81-.33 1.27-.37 1.4s-.1.24-.18.32c-.16.14-.32.21-.5.21z"/><path d="m204.88 24.13c0-.08.02-.14.06-.19s.08-.08.12-.09h.04c.07-.01.83.32 2.27 1s2.87 1.35 4.29 2.02l2.11 1.02c.07.05.1.12.1.22s-.03.17-.1.22c-.02.02-1.45.7-4.3 2.05l-4.24 2h-.09c-.18-.02-.27-.12-.27-.29v-.04c0-.07.06-.15.22-.24.19-.1.92-.45 2.21-1.06.77-.36 1.41-.66 1.92-.9l3.66-1.74-3.66-1.74c-2.83-1.34-4.26-2.03-4.3-2.08-.02-.04-.03-.09-.03-.16z"/><path d="m223.94 22.99c-.29-.31-.64-.47-1.05-.47s-.77.16-1.06.47c-.25.26-.41.61-.49 1.06s-.12 1.39-.12 2.83c0 1.55.04 2.57.12 3.06s.26.88.53 1.16c.28.29.61.44 1.02.44s.73-.15 1-.44c.28-.29.46-.71.53-1.24s.11-1.53.12-2.99c0-1.42-.04-2.36-.12-2.81s-.24-.81-.49-1.08zm-3.32.18c.55-.8 1.3-1.19 2.26-1.19.47 0 .94.13 1.41.38.47.26.85.71 1.15 1.36.36.82.55 1.93.55 3.36 0 1.52-.21 2.69-.63 3.49-.2.41-.47.74-.81.99s-.64.4-.9.46-.51.09-.75.1c-.26 0-.51-.03-.77-.09s-.56-.22-.9-.47c-.34-.26-.61-.58-.81-.99-.42-.81-.63-1.97-.63-3.49 0-1.71.28-3.01.84-3.9z"/><path d="m52.32 53.35s0-.04-.03-.1-.04-.11-.06-.15-.05-.09-.09-.16-.08-.13-.13-.19-.12-.12-.21-.19-.18-.13-.28-.18-.23-.09-.38-.13c-.16-.04-.32-.07-.49-.09s-.37-.03-.6-.04h-.15v-.8h17.17v.8h-.15c-1.29 0-2.04.41-2.26 1.24v16.54c.18.83.93 1.25 2.26 1.25h.15v.8h-7.31v-.8h.15c1.27 0 2.02-.4 2.26-1.21 0-.02.01-.03.01-.04v-17.78h-7.38v17.78c.17.83.92 1.25 2.27 1.25h.15v.8h-7.31v-.8h.15c1.27 0 2.02-.4 2.26-1.21 0-.02.01-.03.01-.04v-16.54z"/><path d="m48.93 78.35s.02-.1.03-.17.06-.2.13-.4c.07-.19.14-.36.21-.49s.18-.26.34-.39c.16-.12.32-.18.48-.18.25 0 .46.06.63.19.17.12.27.24.31.35s.06.18.06.22c0 .01 0 .02.01.02l.11-.11c.42-.44.91-.67 1.45-.67.38 0 .68.09.91.28s.35.46.35.82-.13.91-.4 1.63c-.27.73-.4 1.17-.4 1.32 0 .18.06.27.18.27.04 0 .07 0 .09-.01.2-.03.38-.17.54-.4s.28-.51.36-.83c.01-.06.08-.08.21-.08.14 0 .21.03.21.08 0 0-.01.06-.04.16-.06.2-.13.4-.23.59s-.26.39-.48.58-.46.29-.72.28c-.33 0-.56-.09-.71-.28s-.22-.38-.22-.58c0-.13.13-.55.38-1.25s.38-1.23.39-1.58c0-.41-.15-.61-.46-.61h-.05c-.6 0-1.1.35-1.51 1.05l-.07.12-.34 1.4c-.23.91-.36 1.4-.4 1.47-.09.19-.24.28-.45.28-.09 0-.16-.02-.22-.06s-.09-.08-.11-.12-.03-.08-.02-.1c0-.09.13-.66.4-1.7.26-1.04.4-1.61.42-1.7 0-.03.01-.11.01-.24 0-.27-.08-.41-.25-.41-.26 0-.48.35-.66 1.04-.04.14-.06.21-.06.22-.01.04-.08.06-.2.06h-.15s-.06-.07-.06-.09z"/><path d="m55.55 79.74c0-.1.06-.17.17-.21h6.63c.1.07.15.14.15.21 0 .09-.05.16-.16.21h-6.64c-.1-.05-.15-.12-.15-.21zm0-2.02c0-.09.05-.16.15-.21h6.64c.1.06.16.12.16.21 0 .08-.05.14-.15.2h-3.31s-3.31.01-3.31.01c-.11-.03-.17-.1-.17-.21z"/><path d="m65.29 75.32-.14.05c-.1.03-.24.07-.42.1s-.38.06-.6.07h-.2v-.48h.2c.33-.01.63-.07.91-.16s.47-.17.58-.25.21-.15.29-.23c.01-.02.06-.03.13-.03.06 0 .12.02.18.06v6.24c.06.05.1.08.14.09.03.01.12.03.25.04s.35.02.65.02h.27v.48h-.11c-.15-.02-.7-.03-1.66-.03s-1.49.01-1.64.03h-.13v-.48h.67c.11 0 .2 0 .26-.01.06 0 .12-.02.17-.03s.08-.02.08-.02.03-.02.06-.05.06-.05.06-.04v-5.38z"/><path d="m55.96 49.68c-.1 0-.18-.03-.25-.08s-.11-.13-.11-.23c0-.07.25-1.12.76-3.14.51-2.03.77-3.06.8-3.1.09-.19.25-.29.48-.29.08 0 .15.03.21.07s.09.08.1.12.02.08.02.1c0 .08-.11.55-.32 1.4-.22.85-.33 1.32-.34 1.43-.01.08-.02.2-.02.36v.08c0 .51.23.76.7.76.06 0 .13 0 .19-.01s.12-.02.18-.04.11-.05.16-.07c.05-.03.09-.05.14-.07s.08-.06.13-.1c.04-.05.08-.08.11-.1s.07-.06.1-.12.06-.1.08-.11.05-.06.09-.12l.07-.1.38-1.49c.25-.99.39-1.51.42-1.57.09-.19.24-.28.45-.28.09 0 .16.02.22.07s.09.09.11.12.03.07.02.1l-.79 3.31s-.01.09-.01.17c0 .17.02.29.07.34.05.06.12.09.22.09.06 0 .13-.04.21-.09.15-.14.29-.47.43-1 .04-.14.08-.21.1-.22.01 0 .05-.01.1-.01h.04c.13 0 .2.03.2.09 0 .04-.02.14-.05.28-.03.15-.1.33-.21.56-.1.23-.22.4-.33.52-.09.09-.2.16-.33.22-.06.01-.14.02-.25.02-.15 0-.28-.02-.4-.06s-.21-.09-.28-.16-.13-.12-.18-.19c-.05-.06-.08-.11-.09-.16-.01-.04-.02-.07-.02-.07l-.06.06s-.1.09-.19.16c-.08.06-.17.12-.27.19-.1.06-.22.12-.38.17-.15.05-.3.07-.44.07-.33 0-.65-.08-.97-.24l-.25 1.01c-.15.57-.23.9-.26.99s-.07.17-.13.23c-.11.1-.23.15-.35.15z"/><path d="m73.8 64.93c.48 0 .96-.1 1.44-.31s.84-.42 1.08-.63l.35-.32c-.02-1.4-.05-2.28-.1-2.62-.14-1.13-.59-1.69-1.36-1.69-.68 0-1.27.36-1.78 1.08-.27.39-.48.92-.65 1.59s-.26 1.18-.27 1.53c0 .48.12.83.37 1.05s.55.33.91.34zm-2.56-1.92c0-1.12.42-2.1 1.27-2.95s1.77-1.27 2.79-1.27c.69 0 1.24.2 1.65.59s.69.87.84 1.44c.06.28.09.61.1.99v.43c.48-.73.85-1.54 1.11-2.45.04-.14.07-.22.09-.24s.1-.03.24-.04c.21 0 .31.04.31.12 0 .09-.04.28-.13.57s-.27.71-.53 1.25c-.27.54-.56 1.03-.9 1.47l-.16.21v.35c.03.55.07.92.13 1.12s.15.3.28.31c.14-.02.27-.07.38-.16.12-.09.2-.2.25-.34.02-.07.04-.11.07-.12.03 0 .1-.02.22-.03.2 0 .29.04.29.12 0 .06-.03.15-.09.28-.12.24-.29.42-.52.56s-.44.21-.65.22h-.1c-.66 0-1.11-.35-1.34-1.06l-.04-.1-.16.12c-.1.08-.25.18-.44.29-.2.12-.42.23-.66.34-.25.11-.53.21-.85.29s-.64.13-.94.13c-.78 0-1.39-.25-1.83-.74s-.66-1.07-.66-1.72z"/><path d="m150.72 64.93c.48 0 .96-.1 1.44-.31s.84-.42 1.08-.63l.35-.32c-.02-1.4-.05-2.28-.1-2.62-.14-1.13-.59-1.69-1.36-1.69-.68 0-1.27.36-1.78 1.08-.27.39-.48.92-.65 1.59s-.26 1.18-.27 1.53c0 .48.12.83.37 1.05s.55.33.91.34zm-2.56-1.92c0-1.12.42-2.1 1.27-2.95.85-.84 1.77-1.27 2.79-1.27.69 0 1.24.2 1.65.59s.69.87.84 1.44c.06.28.09.61.1.99v.43c.48-.73.85-1.54 1.11-2.45.04-.14.07-.22.09-.24s.1-.03.24-.04c.21 0 .31.04.31.12 0 .09-.04.28-.13.57s-.27.71-.53 1.25c-.27.54-.56 1.03-.9 1.47l-.16.21v.35c.03.55.07.92.13 1.12s.15.3.28.31c.14-.02.27-.07.38-.16.12-.09.2-.2.25-.34.02-.07.04-.11.07-.12.03 0 .1-.02.22-.03.2 0 .29.04.29.12 0 .06-.03.15-.09.28-.12.24-.29.42-.52.56s-.44.21-.65.22h-.1c-.66 0-1.11-.35-1.34-1.06l-.04-.1-.16.12c-.1.08-.25.18-.44.29-.2.12-.42.23-.66.34-.25.11-.53.21-.85.29-.32.09-.64.13-.94.13-.78 0-1.39-.25-1.83-.74s-.66-1.07-.66-1.72z"/><path d="m162.42 61.63c0-1.2.4-2.18 1.21-2.95s1.76-1.2 2.86-1.31h.25c.16 0 .36 0 .62-.01s.5 0 .74 0h1.46c.15.08.22.18.22.29 0 .09-.06.18-.19.28h-1.53c-1.09.02-1.76.05-2.02.1-.48.12-.91.29-1.28.53s-.66.48-.87.72-.38.52-.53.81-.24.53-.27.71-.05.34-.07.5v.03h6.54c.15.08.22.18.22.29s-.07.22-.22.29h-6.54v.03c0 .21.05.46.15.75s.26.61.49.96c.23.34.54.66.94.94s.88.49 1.43.6c.27.06.94.09 2.03.1h1.53c.13.1.19.2.19.29 0 .12-.07.22-.22.29h-1.8c-.18 0-.32 0-.43.01-1.52 0-2.73-.42-3.61-1.27-.86-.81-1.3-1.81-1.3-3.02z"/><path d="m184.26 56.99v-.88s-.08.03-.12.03c-.1.04-.21.06-.34.06h-.22l.19.21c.2.22.3.34.32.38l.16.21zm-5.47-.88c.14-.18.19-.27.16-.27-.23.08-.46.19-.69.34-.24.15-.5.35-.78.6-.28.26-.54.59-.75 1.02-.22.42-.37.89-.46 1.41-.05.29-.07.65-.07 1.08s.02.78.07 1.08c.1.54.27 1.03.5 1.46.24.43.49.77.75 1 .27.24.53.43.78.59.26.16.47.27.63.32l.25.07c-.07-.07-.13-.14-.19-.21-.64-.62-1.05-1.63-1.22-3.03-.03-.27-.04-.71-.04-1.33s.01-1.06.04-1.33c.19-1.23.53-2.17 1.02-2.81zm6.4 7.27c0 .06-.06.17-.18.32s-.31.34-.57.56c-.27.22-.56.42-.88.62s-.74.36-1.24.5-1.01.21-1.52.21c-.55 0-1.09-.08-1.62-.24s-1.03-.4-1.5-.72-.88-.76-1.22-1.3-.57-1.16-.69-1.87c-.05-.22-.07-.61-.07-1.18s.02-.96.07-1.18c.22-1.15.7-2.08 1.46-2.8s1.73-1.15 2.92-1.3c.03 0 .14 0 .34-.01s.35-.01.46-.01c.53.03 1.06.15 1.59.35.53.21.93.31 1.21.32.18 0 .3-.03.38-.1s.12-.15.13-.24.03-.17.07-.24.11-.11.21-.12c.11 0 .2.06.27.18v3.08l-.06.1c-.13.07-.25.08-.37.03-.04-.04-.09-.16-.15-.35-.06-.2-.17-.42-.34-.66-.32-.45-.76-.86-1.3-1.24-.54-.37-1.12-.56-1.72-.56h-.13c-.43 0-.84.19-1.21.56-.85.77-1.28 2.18-1.28 4.26 0 .85.1 1.63.31 2.31.4 1.46 1.25 2.19 2.54 2.19s2.42-.49 3.48-1.47c.17-.17.29-.25.37-.25.05 0 .1.02.16.06s.09.1.1.18z"/><path d="m188.13 56.01c-.09-.93-.14-1.45-.14-1.56 0-.12.08-.22.25-.29h.05s.05 0 .06-.01c.08 0 .16.04.23.09.07.06.1.12.1.21 0 .12-.02.4-.06.83s-.07.68-.07.73l.6-.44c.39-.28.6-.44.64-.46.03-.02.07-.03.1-.03.09 0 .17.03.25.1s.12.16.13.28c0 .09-.03.17-.1.24-.03.02-.27.14-.71.34-.44.21-.67.32-.71.33l.69.32.73.36c.06.06.09.14.09.24s-.03.19-.09.26-.15.11-.25.11c-.06 0-.12-.02-.19-.06s-.26-.18-.57-.42l-.6-.44c.09.93.14 1.45.14 1.56 0 .07-.02.14-.07.2s-.14.09-.27.09-.22-.03-.27-.09-.08-.13-.08-.2c0-.12.02-.4.06-.83.04-.44.07-.68.07-.73l-.6.44c-.39.28-.6.44-.64.46-.03.02-.06.03-.1.03-.09 0-.17-.03-.25-.1s-.12-.16-.13-.28v-.08s.01-.04.03-.06.04-.04.05-.06.05-.05.09-.07.09-.05.14-.07c.04-.02.11-.05.2-.09s.18-.08.26-.11.19-.09.33-.16l.42-.21-1.42-.68c-.06-.06-.09-.14-.09-.24s.03-.19.09-.26.15-.11.25-.11c.06 0 .12.02.19.06s.26.18.57.42l.6.44z"/><path d="m192.84 64.8v-.37c0-.25.08-.46.24-.63s.37-.27.63-.27.52.12.74.37.33.68.34 1.3c0 .34-.04.68-.13 1s-.19.6-.31.84-.25.44-.38.6c-.14.17-.26.3-.35.4s-.16.14-.19.13c-.04 0-.1-.04-.19-.13s-.13-.15-.13-.19.05-.12.16-.24.23-.27.37-.44.27-.42.38-.74.2-.67.24-1.08v-.18h-.01s-.04.03-.07.04-.06.02-.09.04-.07.03-.13.03-.12 0-.18.01c-.27 0-.48-.08-.65-.25l-.27-.27z"/><path d="m199.1 68.49c-.14 0-.26-.04-.35-.12-.1-.08-.15-.19-.16-.32 0-.1.36-1.58 1.08-4.45s1.1-4.33 1.13-4.39c.13-.27.35-.41.68-.41.12 0 .22.04.29.1.08.06.13.12.15.18s.03.11.03.15c0 .12-.15.78-.46 1.97-.3 1.2-.47 1.87-.49 2.02-.02.11-.03.28-.03.52v.12c0 .72.33 1.08.99 1.08.09 0 .18 0 .27-.01.09 0 .17-.03.25-.06s.15-.06.22-.1.13-.07.19-.1.12-.08.18-.15.11-.12.16-.15.1-.09.15-.18.09-.14.12-.16.07-.08.13-.18l.1-.15.53-2.11c.35-1.39.55-2.14.59-2.22.13-.27.34-.4.63-.4.13 0 .23.03.31.1s.13.13.16.18.04.1.03.15l-1.12 4.68s-.01.13-.01.24c0 .25.03.41.1.49s.17.12.31.13c.09 0 .19-.05.29-.13.21-.2.41-.67.6-1.41.06-.2.11-.3.15-.31.02 0 .07-.01.15-.01h.06c.19 0 .28.04.28.13 0 .06-.02.19-.07.4s-.15.47-.29.8c-.15.32-.3.57-.47.74-.13.13-.28.23-.47.31-.08.02-.2.03-.35.03-.21 0-.39-.03-.56-.09s-.3-.13-.4-.22-.18-.18-.25-.27-.11-.16-.13-.22-.03-.09-.03-.1l-.09.09c-.06.06-.15.13-.27.22s-.25.18-.38.27c-.14.09-.31.17-.53.24s-.42.1-.62.1c-.46 0-.92-.11-1.37-.34l-.35 1.43c-.21.81-.33 1.27-.37 1.4s-.1.24-.18.32c-.16.14-.32.21-.5.21z"/><path d="m212.47 61.63c0-1.2.4-2.18 1.21-2.95s1.76-1.2 2.86-1.31h.25c.16 0 .36 0 .62-.01h.74 1.46c.15.08.22.18.22.29 0 .09-.06.18-.19.28h-1.53c-1.09.02-1.76.05-2.02.1-.48.12-.91.29-1.28.53s-.66.48-.87.72c-.21.25-.38.52-.53.81s-.24.53-.27.71-.05.34-.07.5v.03h6.54c.15.08.22.18.22.29s-.07.22-.22.29h-6.54v.03c0 .21.05.46.15.75s.26.61.49.96c.23.34.54.66.94.94s.88.49 1.43.6c.27.06.94.09 2.03.1h1.53c.13.1.19.2.19.29 0 .12-.07.22-.22.29h-1.8c-.18 0-.32 0-.43.01-1.52 0-2.73-.42-3.61-1.27-.86-.81-1.3-1.81-1.3-3.02z"/><path d="m231.24 59.14-2.55-3.37h-1.77l.24.29s1.12 1.43 3.32 4.23 3.31 4.21 3.33 4.23l.03-.21v-1.83l-2.59-3.34zm-5.79-3.61s.05-.11.16-.28h1.64c1.12 0 1.69 0 1.71.03 0 0 .11.15.31.41.2.27.51.66.93 1.19s.82 1.04 1.18 1.53l2.36 3.08v-3.4c0-.38 0-.63.01-.75 0-.69-.05-1.11-.15-1.28s-.35-.27-.75-.29c-.22 0-.36-.03-.43-.09-.09-.11-.09-.23 0-.37l.1-.06h2.82c.11.07.16.15.16.25 0 .09-.02.16-.06.21-.1.04-.19.06-.27.06-.46 0-.72.18-.78.53-.03.11-.04 1.67-.04 4.68v4.45c-.08.12-.16.18-.25.18-.06 0-.11-.02-.16-.07-.03-.02-1.13-1.42-3.32-4.2l-3.17-4.09-.04 3.37v1.25c0 .49 0 .82-.01.99 0 .63.02 1.07.06 1.31s.12.41.24.5.32.14.6.15c.23 0 .37.03.43.09.11.11.11.23 0 .37l-.09.06h-2.95c-.12-.07-.18-.15-.18-.25 0-.18.16-.27.47-.27.02 0 .08-.02.19-.03.11 0 .19-.03.25-.06s.13-.08.21-.15.12-.18.13-.32c.02-.11.03-1.45.03-4.02v-3.8l-.22-.24c-.24-.24-.49-.38-.77-.43-.24 0-.35-.08-.35-.24z"/><path d="m238.18 56.29c-.09-.93-.14-1.45-.14-1.56 0-.12.08-.22.25-.29h.05s.05 0 .06-.01c.08 0 .16.04.23.09s.1.12.1.21c0 .12-.02.4-.06.83-.04.44-.07.68-.07.73l.6-.44c.39-.28.6-.44.64-.46.03-.02.07-.03.1-.03.09 0 .17.03.25.1s.12.16.13.28c0 .09-.03.17-.1.24-.03.02-.27.14-.71.34-.44.21-.67.32-.71.33l.69.32.73.36c.06.06.09.14.09.24s-.03.19-.09.26-.15.11-.25.11c-.06 0-.12-.02-.19-.06s-.26-.18-.57-.42l-.6-.44c.09.93.14 1.45.14 1.56 0 .07-.02.14-.07.2s-.14.09-.27.09-.22-.03-.27-.09-.08-.13-.08-.2c0-.12.02-.4.06-.83.04-.44.07-.68.07-.73l-.6.44c-.39.28-.6.44-.64.46-.03.02-.06.03-.1.03-.09 0-.17-.03-.25-.1s-.12-.16-.13-.28v-.08s.01-.04.03-.06.04-.04.05-.06.05-.05.09-.07c.05-.03.09-.05.14-.07.04-.02.11-.05.2-.09s.18-.08.26-.11.19-.09.33-.16l.42-.21-1.42-.68c-.06-.06-.09-.14-.09-.24s.03-.19.09-.26.15-.11.25-.11c.06 0 .12.02.19.06s.26.18.57.42l.6.44z"/><path d="m49.59 113.34s3-.03 8.92-.03h8.87l.85 1.99c.58 1.36.89 2.07.93 2.15h-.59l-.1-.21c-.21-.4-.48-.79-.83-1.15-.49-.47-1.04-.85-1.64-1.13s-1.29-.5-2.08-.63c-.79-.14-1.53-.22-2.23-.25s-1.6-.05-2.7-.06h-6.6l.12.16c4.55 6.22 6.83 9.35 6.85 9.41v.09c-.03.03-1.33 1.51-3.89 4.45l-3.89 4.42s1.04.01 3.11.01h2.08c.87 0 1.5 0 1.89.01 1.34 0 2.42-.02 3.24-.07.83-.05 1.65-.15 2.46-.31.82-.16 1.51-.4 2.08-.72s1.08-.75 1.52-1.28c.21-.26.41-.61.6-1.06h.59s-.03.11-.1.31-.19.52-.37.96-.33.85-.46 1.24l-.85 2.28h-8.86c-5.92.01-8.89 0-8.92-.01-.06-.02-.09-.06-.09-.13 0-.02 0-.05.03-.09l7.86-8.98s-.16-.23-.49-.66-.84-1.14-1.55-2.12-1.35-1.86-1.92-2.62l-3.92-5.38v-.22c-.01-.21 0-.32.06-.35z"/><path d="m49.78 140.34s.02-.1.03-.17.06-.2.13-.4c.07-.19.14-.36.21-.49s.18-.26.34-.39c.16-.12.32-.18.48-.18.25 0 .46.06.63.19.17.12.27.24.31.35s.06.18.06.22c0 .01 0 .02.01.02l.11-.11c.42-.44.91-.67 1.45-.67.38 0 .68.09.91.28s.35.46.35.82-.13.91-.4 1.63c-.27.73-.4 1.17-.4 1.32 0 .18.06.27.18.27.04 0 .07 0 .09-.01.2-.03.38-.17.54-.4s.28-.51.36-.83c.01-.06.08-.08.21-.08.14 0 .21.03.21.08 0 0-.01.06-.04.16-.06.2-.13.4-.23.59s-.26.39-.48.58-.46.29-.72.28c-.33 0-.56-.09-.71-.28s-.22-.38-.22-.58c0-.13.13-.55.38-1.25s.38-1.23.39-1.58c0-.41-.15-.61-.46-.61h-.05c-.6 0-1.1.35-1.51 1.05l-.07.12-.34 1.4c-.23.91-.36 1.4-.4 1.47-.09.19-.24.28-.45.28-.09 0-.16-.02-.22-.06s-.09-.08-.11-.12-.03-.08-.02-.1c0-.09.13-.66.4-1.7.26-1.04.4-1.61.42-1.7 0-.03.01-.11.01-.24 0-.27-.08-.41-.25-.41-.26 0-.48.35-.66 1.04-.04.14-.06.21-.06.22-.01.04-.08.06-.2.06h-.15s-.06-.07-.06-.09z"/><path d="m56.4 141.73c0-.1.06-.17.17-.21h6.63c.1.07.15.14.15.21 0 .09-.05.16-.16.21h-6.64c-.1-.05-.15-.12-.15-.21zm0-2.02c0-.09.05-.16.15-.21h6.64c.1.06.16.12.16.21 0 .08-.05.14-.15.2h-3.31s-3.31.01-3.31.01c-.11-.03-.17-.1-.17-.21z"/><path d="m67.27 137.11c-.21-.22-.46-.33-.74-.33s-.54.11-.75.33c-.17.18-.29.43-.34.75-.06.32-.08.99-.08 2 0 1.1.03 1.82.08 2.17.06.35.18.62.38.82.19.21.43.31.72.31s.51-.1.71-.31.33-.5.38-.87.08-1.08.08-2.11c0-1.01-.03-1.67-.08-1.99-.06-.32-.17-.57-.34-.76zm-2.35.12c.39-.56.92-.84 1.59-.84.33 0 .67.09 1 .27s.6.5.81.96c.26.58.39 1.37.39 2.37 0 1.08-.15 1.9-.45 2.47-.14.29-.33.52-.57.7-.24.17-.46.28-.64.32s-.36.07-.53.07c-.18 0-.36-.02-.54-.06s-.39-.15-.64-.33c-.24-.18-.43-.41-.57-.7-.3-.57-.45-1.39-.45-2.47 0-1.21.2-2.13.59-2.76z"/><path d="m55.1 108.13c0 .48.14.91.41 1.3s.65.58 1.13.58c.82 0 1.57-.56 2.26-1.67l-.32-.42c-.42-.55-.74-.91-.95-1.08-.34-.3-.69-.45-1.05-.45-.43 0-.78.17-1.05.51s-.41.75-.42 1.22zm8.49-.03c0-.47-.13-.9-.4-1.29-.26-.39-.64-.58-1.13-.58-.15 0-.29.02-.43.05s-.27.08-.4.15c-.13.06-.24.13-.35.2s-.21.15-.3.25-.18.18-.26.26-.15.16-.21.26-.11.17-.16.23-.09.11-.11.18l-.05.08.32.42c.22.28.38.49.5.62s.26.29.44.46c.17.17.35.28.52.34s.35.1.53.1c.43 0 .78-.17 1.06-.51s.42-.75.42-1.22zm-8.88 0c0-.61.19-1.15.58-1.62s.89-.71 1.49-.72c.61 0 1.18.21 1.72.64.26.22.52.49.77.81l.15.2.07-.1c.72-1.03 1.53-1.54 2.43-1.54.6 0 1.09.24 1.47.71s.58 1.03.58 1.67c0 .6-.19 1.14-.57 1.61-.38.48-.89.72-1.52.73-.6 0-1.16-.21-1.7-.64-.26-.22-.52-.49-.77-.81l-.15-.2-.07.1c-.72 1.03-1.53 1.54-2.43 1.54-.6 0-1.09-.24-1.47-.71s-.58-1.03-.58-1.67z"/><path d="m77.08 113.16c0-.68.05-1.32.15-1.93s.21-1.13.34-1.58c.13-.44.31-.87.55-1.3s.42-.75.56-.99.34-.49.62-.77c.28-.27.44-.44.49-.5s.17-.16.37-.31h.25c.14 0 .21.04.21.13 0 .03-.08.13-.25.31s-.37.44-.6.78c-.24.34-.48.77-.72 1.27-.25.5-.45 1.18-.62 2.03s-.25 1.8-.25 2.84.08 1.98.25 2.83c.17.84.37 1.53.6 2.05.24.52.48.94.72 1.27.25.32.45.58.62.78s.25.3.25.31c0 .09-.07.13-.22.13h-.24l-.41-.35c-.92-.83-1.6-1.88-2.02-3.12-.42-1.25-.63-2.54-.63-3.89z"/><path d="m82.28 120.02c-.14 0-.26-.04-.35-.12s-.15-.19-.16-.32c0-.1.36-1.58 1.08-4.45s1.1-4.33 1.13-4.39c.13-.27.35-.41.68-.41.12 0 .22.04.29.1.08.06.13.12.15.18s.03.11.03.15c0 .12-.15.78-.46 1.97-.3 1.2-.47 1.87-.49 2.02-.02.11-.03.28-.03.52v.12c0 .72.33 1.08.99 1.08.09 0 .18 0 .27-.01.09 0 .17-.03.25-.06s.15-.06.22-.1.13-.07.19-.1.12-.08.18-.15.11-.12.16-.15.1-.09.15-.18.09-.14.12-.16.07-.08.13-.18l.1-.15.53-2.11c.35-1.39.55-2.14.59-2.22.13-.27.34-.4.63-.4.13 0 .23.03.31.1s.13.13.16.18.04.1.03.15l-1.12 4.68s-.01.13-.01.24c0 .25.03.41.1.49s.17.12.31.13c.09 0 .19-.05.29-.13.21-.2.41-.67.6-1.41.06-.2.11-.3.15-.31.02 0 .07-.01.15-.01h.06c.19 0 .28.04.28.13 0 .06-.02.19-.07.4s-.15.47-.29.8c-.15.32-.3.57-.47.74-.13.13-.28.23-.47.31-.08.02-.2.03-.35.03-.21 0-.39-.03-.56-.09s-.3-.13-.4-.22-.18-.18-.25-.27-.11-.16-.13-.22-.03-.09-.03-.1l-.09.09c-.06.06-.15.13-.27.22s-.25.18-.38.27c-.14.09-.31.17-.53.24s-.42.1-.62.1c-.46 0-.92-.11-1.37-.34l-.35 1.43c-.21.81-.33 1.27-.37 1.4s-.1.24-.18.32c-.16.14-.32.21-.5.21z"/><path d="m93.39 116.16h.21c.38 0 .61-.07.69-.21v-.94c0-.19 0-.4.01-.63v-.74-.81-.84-3.14c0-.26 0-.47-.01-.65v-.25c-.03-.19-.1-.31-.21-.37s-.33-.1-.66-.13h-.27v-.34c0-.23 0-.34.03-.34h.15c.1-.02.24-.03.43-.04.19 0 .37-.02.55-.03.17 0 .35-.02.55-.03.2 0 .34-.02.44-.04s.15-.02.16-.01h.04v4.64c0 3.11 0 4.68.01 4.7.04.08.1.13.18.16.21.03.45.04.72.04h.24v.68h-.46c-.23-.02-.47-.03-.72-.03s-.44 0-.56-.01-.3 0-.56 0-.5.02-.74.03h-.34s-.12.01-.12.01v-.68h.24z"/><path d="m97.47 116.16h.21c.38 0 .61-.07.69-.21v-.91c0-.17 0-.36.01-.57v-.62-.97c0-.34 0-.63-.01-.87v-.34c-.03-.19-.1-.31-.21-.37s-.33-.1-.66-.13h-.27v-.34c0-.23 0-.34.03-.34h.15c.1-.02.24-.03.41-.04.18 0 .36-.02.55-.03.17 0 .34-.02.53-.03.19 0 .33-.02.43-.04s.15-.02.16-.01h.04v.59c0 .37 0 .56.01.56s.03-.02.07-.07.1-.12.18-.22.17-.19.28-.27.25-.17.43-.28.36-.19.56-.24.45-.07.75-.07c1.12.04 1.74.59 1.87 1.66 0 .07.01.75.01 2.05v1.27c0 .37 0 .59.03.66.02.07.07.12.16.15.21.03.45.04.72.04h.24v.68h-.47c-.23-.02-.47-.03-.74-.03s-.45 0-.56-.01c-1.01 0-1.56.01-1.65.04h-.12v-.68h.24c.6 0 .9-.08.9-.24 0-.02.01-.7.01-2.03s-.02-2.03-.03-2.11c-.06-.27-.16-.48-.29-.62-.14-.14-.26-.22-.35-.25-.1-.03-.23-.04-.38-.03-.44 0-.83.17-1.16.5-.27.27-.43.54-.5.81s-.11.68-.12 1.22v1.83c0 .29 0 .49.01.59 0 .1.02.16.04.19s.06.06.13.09c.21.03.45.04.72.04h.24v.68h-.46c-.24-.02-.49-.03-.75-.03s-.45 0-.56-.01c-1.01 0-1.56.01-1.65.04h-.12v-.68h.24z"/><path d="m110.58 116.46c.48 0 .96-.1 1.44-.31s.84-.42 1.08-.63l.35-.32c-.02-1.4-.05-2.28-.1-2.62-.14-1.13-.59-1.69-1.36-1.69-.68 0-1.27.36-1.78 1.08-.27.39-.48.92-.65 1.59s-.26 1.18-.27 1.53c0 .48.12.83.37 1.05s.55.33.91.34zm-2.56-1.92c0-1.12.42-2.1 1.27-2.95.85-.84 1.77-1.27 2.79-1.27.69 0 1.24.2 1.65.59s.69.87.84 1.44c.06.28.09.61.1.99v.43c.48-.73.85-1.54 1.11-2.45.04-.14.07-.22.09-.24s.1-.03.24-.04c.21 0 .31.04.31.12 0 .09-.04.28-.13.57s-.27.71-.53 1.25c-.27.54-.56 1.03-.9 1.47l-.16.21v.35c.03.55.07.92.13 1.12s.15.3.28.31c.14-.02.27-.07.38-.16.12-.09.2-.2.25-.34.02-.07.04-.11.07-.12.03 0 .1-.02.22-.03.2 0 .29.04.29.12 0 .06-.03.15-.09.28-.12.24-.29.42-.52.56s-.44.21-.65.22h-.1c-.66 0-1.11-.35-1.34-1.06l-.04-.1-.16.12c-.1.08-.25.18-.44.29-.2.12-.42.23-.66.34s-.53.21-.85.29c-.32.09-.64.13-.94.13-.78 0-1.39-.25-1.83-.74s-.66-1.07-.66-1.72z"/><path d="m117.83 105.81h.06s.1-.01.15-.01h.18l.41.35c.92.83 1.6 1.88 2.02 3.12.42 1.25.63 2.54.63 3.89 0 .67-.05 1.31-.15 1.93s-.21 1.14-.34 1.58-.31.86-.55 1.3c-.24.43-.42.76-.56.99s-.34.48-.6.75c-.27.27-.42.44-.47.49s-.16.14-.34.28l-.06.06h-.34s-.05-.01-.07-.04-.03-.07-.04-.13c0 0 .06-.07.16-.19 1.52-1.58 2.28-3.91 2.28-7s-.76-5.42-2.28-7c-.1-.12-.15-.18-.16-.19 0-.08.02-.13.07-.16z"/><path d="m122.9 108.51s.02-.1.03-.17.06-.2.13-.4c.07-.19.14-.36.21-.49s.18-.26.34-.39c.16-.12.32-.18.48-.18.25 0 .46.06.63.19.17.12.27.24.31.35s.06.18.06.22c0 .01 0 .02.01.02l.11-.11c.42-.44.91-.67 1.45-.67.38 0 .68.09.91.28s.35.46.35.82-.13.91-.4 1.63-.4 1.17-.4 1.32c0 .18.06.27.18.27.04 0 .07 0 .09-.01.2-.03.38-.17.54-.4s.28-.51.36-.83c.01-.06.08-.08.21-.08.14 0 .21.03.21.08 0 0-.01.06-.04.16-.06.2-.13.4-.23.59s-.26.39-.48.58-.46.29-.72.28c-.33 0-.56-.09-.71-.28s-.22-.38-.22-.58c0-.13.13-.55.38-1.25s.38-1.23.39-1.58c0-.41-.15-.61-.46-.61h-.05c-.6 0-1.1.35-1.51 1.05l-.07.12-.34 1.4c-.23.91-.36 1.4-.4 1.47-.09.19-.24.28-.45.28-.09 0-.16-.02-.22-.06s-.09-.08-.11-.12-.03-.08-.02-.1c0-.09.13-.66.4-1.7.26-1.04.4-1.61.42-1.7 0-.03.01-.11.01-.24 0-.27-.08-.41-.25-.41-.26 0-.48.35-.66 1.04-.04.14-.06.21-.06.22-.01.04-.08.06-.2.06h-.15s-.06-.07-.06-.09z"/><path d="m96.52 133.18c0-.06.02-.14.04-.24s.08-.28.18-.56c.1-.27.2-.51.29-.69.1-.19.26-.37.49-.54.23-.18.45-.26.68-.25.35 0 .65.09.88.27.24.18.38.34.44.5s.09.26.09.31c0 .02 0 .03.01.03l.16-.16c.6-.63 1.28-.94 2.05-.94.53 0 .96.13 1.28.4s.49.65.5 1.16-.18 1.28-.56 2.31-.57 1.65-.56 1.87c0 .26.08.38.25.38.06 0 .1 0 .13-.01.28-.05.54-.24.77-.56s.4-.72.52-1.18c.02-.08.12-.12.29-.12.2 0 .29.04.29.12 0 0-.02.08-.06.22-.08.28-.19.56-.32.84-.14.27-.36.55-.68.82-.31.27-.65.41-1.02.4-.46 0-.8-.13-1-.4-.21-.27-.31-.54-.31-.82 0-.19.18-.78.53-1.77s.54-1.74.55-2.24c0-.58-.22-.87-.65-.87h-.07c-.85 0-1.56.5-2.14 1.49l-.1.18-.49 1.97c-.32 1.29-.51 1.98-.56 2.08-.13.27-.34.4-.63.4-.13 0-.23-.03-.31-.09s-.13-.12-.16-.18-.04-.11-.03-.15c0-.13.19-.93.56-2.4s.57-2.27.59-2.4c0-.05.01-.16.01-.34 0-.38-.12-.57-.35-.57-.37 0-.68.49-.93 1.47-.06.2-.09.3-.09.31-.02.06-.11.09-.28.09h-.21c-.06-.06-.09-.1-.09-.13z"/><path d="m106.22 136.51c0-.27.09-.49.27-.65s.39-.24.65-.24c.23.02.42.1.59.25s.25.36.25.63c0 .29-.08.52-.25.66s-.37.22-.62.22-.45-.07-.62-.22-.26-.37-.27-.66zm-.02-8.84c0-.21.09-.39.27-.56s.38-.25.62-.25.44.08.62.24.27.35.28.57c0 .07-.1 1.19-.29 3.37-.2 2.18-.3 3.29-.31 3.33-.02.08-.11.12-.28.12-.18 0-.28-.04-.29-.12 0-.03-.11-1.13-.31-3.31s-.29-3.31-.29-3.39z"/><rect x="74.22" y="123.18" width="56.93" height=".88"/><path d="m150.72 126.92c.48 0 .96-.1 1.44-.31s.84-.42 1.08-.63l.35-.32c-.02-1.4-.05-2.28-.1-2.62-.14-1.13-.59-1.69-1.36-1.69-.68 0-1.27.36-1.78 1.08-.27.39-.48.92-.65 1.59s-.26 1.18-.27 1.53c0 .48.12.83.37 1.05s.55.33.91.34zm-2.56-1.92c0-1.12.42-2.1 1.27-2.95.85-.84 1.77-1.27 2.79-1.27.69 0 1.24.2 1.65.59s.69.87.84 1.44c.06.28.09.61.1.99v.43c.48-.73.85-1.54 1.11-2.45.04-.14.07-.22.09-.24s.1-.03.24-.04c.21 0 .31.04.31.12 0 .09-.04.28-.13.57s-.27.71-.53 1.25c-.27.54-.56 1.03-.9 1.47l-.16.21v.35c.03.55.07.92.13 1.12s.15.3.28.31c.14-.02.27-.07.38-.16.12-.09.2-.2.25-.34.02-.07.04-.11.07-.12.03 0 .1-.02.22-.03.2 0 .29.04.29.12 0 .06-.03.15-.09.28-.12.24-.29.42-.52.56s-.44.21-.65.22h-.1c-.66 0-1.11-.35-1.34-1.06l-.04-.1-.16.12c-.1.08-.25.18-.44.29-.2.12-.42.23-.66.34-.25.11-.53.21-.85.29-.32.09-.64.13-.94.13-.78 0-1.39-.25-1.83-.74s-.66-1.07-.66-1.72z"/><path d="m162.42 119.64c0-.08.02-.14.06-.19s.08-.08.12-.09h.04c.07-.01.83.32 2.27 1s2.87 1.35 4.29 2.02l2.11 1.02c.07.05.1.12.1.22s-.03.17-.1.22c-.02.02-1.45.7-4.3 2.05l-4.24 2h-.09c-.18-.02-.27-.12-.27-.29v-.04c0-.07.06-.15.22-.24.19-.1.92-.45 2.21-1.06.77-.36 1.41-.66 1.92-.9l3.66-1.74-3.66-1.74c-2.83-1.34-4.26-2.03-4.3-2.08-.02-.04-.03-.09-.03-.16z"/><path d="m181.47 118.51c-.29-.31-.64-.47-1.05-.47s-.77.16-1.06.47c-.25.26-.41.61-.49 1.06s-.12 1.39-.12 2.83c0 1.55.04 2.57.12 3.06s.26.88.53 1.16c.28.29.61.44 1.02.44s.73-.15 1-.44c.28-.29.46-.71.53-1.24s.11-1.53.12-2.99c0-1.42-.04-2.36-.12-2.81s-.24-.81-.49-1.08zm-3.31.17c.55-.8 1.3-1.19 2.26-1.19.47 0 .94.13 1.41.38s.85.71 1.15 1.36c.36.82.55 1.93.55 3.36 0 1.52-.21 2.69-.63 3.49-.2.41-.47.74-.81.99s-.64.4-.9.46-.51.09-.75.1c-.26 0-.51-.03-.77-.09s-.56-.22-.9-.47-.61-.58-.81-.99c-.42-.81-.63-1.97-.63-3.49 0-1.71.28-3.01.84-3.9z"/><path d="m185.26 126.78v-.37c0-.25.08-.46.24-.63s.37-.27.63-.27.52.12.74.37.33.68.34 1.3c0 .34-.04.68-.13 1s-.19.6-.31.84-.25.44-.38.6c-.14.17-.26.3-.35.4-.1.1-.16.14-.19.13-.04 0-.1-.04-.19-.13s-.13-.15-.13-.19.05-.12.16-.24.23-.27.37-.44c.14-.18.27-.42.38-.74.12-.31.2-.67.24-1.08v-.18h-.01s-.04.03-.07.04c-.03 0-.06.02-.09.04s-.07.03-.13.03-.12 0-.18.01c-.27 0-.48-.08-.65-.25l-.27-.27z"/><path d="m191.52 130.48c-.14 0-.26-.04-.35-.12-.1-.08-.15-.19-.16-.32 0-.1.36-1.58 1.08-4.45s1.1-4.33 1.13-4.39c.13-.27.35-.41.68-.41.12 0 .22.04.29.1.08.06.13.12.15.18s.03.11.03.15c0 .12-.15.78-.46 1.97-.3 1.2-.47 1.87-.49 2.02-.02.11-.03.28-.03.52v.12c0 .72.33 1.08.99 1.08.09 0 .18 0 .27-.01.09 0 .17-.03.25-.06s.15-.06.22-.1.13-.07.19-.1.12-.08.18-.15.11-.12.16-.15.1-.09.15-.18.09-.14.12-.16.07-.08.13-.18l.1-.15.53-2.11c.35-1.39.55-2.14.59-2.22.13-.27.34-.4.63-.4.13 0 .23.03.31.1s.13.13.16.18.04.1.03.15l-1.12 4.68s-.01.13-.01.24c0 .25.03.41.1.49s.17.12.31.13c.09 0 .19-.05.29-.13.21-.2.41-.67.6-1.41.06-.2.11-.3.15-.31.02 0 .07-.01.15-.01h.06c.19 0 .28.04.28.13 0 .06-.02.19-.07.4s-.15.47-.29.8c-.15.32-.3.57-.47.74-.13.13-.28.23-.47.31-.08.02-.2.03-.35.03-.21 0-.39-.03-.56-.09s-.3-.13-.4-.22-.18-.18-.25-.27-.11-.16-.13-.22-.03-.09-.03-.1l-.09.09c-.06.06-.15.13-.27.22s-.25.18-.38.27c-.14.09-.31.17-.53.24s-.42.1-.62.1c-.46 0-.92-.11-1.37-.34l-.35 1.43c-.21.81-.33 1.27-.37 1.4s-.1.24-.18.32c-.16.14-.32.21-.5.21z"/><path d="m204.88 123.62c0-1.2.4-2.18 1.21-2.95s1.76-1.2 2.86-1.31h.25c.16 0 .36 0 .62-.01h.74 1.46c.15.08.22.18.22.29 0 .09-.06.18-.19.28h-1.53c-1.09.02-1.76.05-2.02.1-.48.12-.91.29-1.28.53s-.66.48-.87.72c-.21.25-.38.52-.53.81s-.24.53-.27.71-.05.34-.07.5v.03h6.54c.15.08.22.18.22.29s-.07.22-.22.29h-6.54v.03c0 .21.05.46.15.75s.26.61.49.96.54.66.94.94.88.49 1.43.6c.27.06.94.09 2.03.1h1.53c.13.1.19.2.19.29 0 .12-.07.22-.22.29h-1.8c-.18 0-.32 0-.43.01-1.52 0-2.73-.42-3.61-1.27-.86-.81-1.3-1.81-1.3-3.02z"/><path d="m224.41 123.72c-.52-.73-.79-1.09-.8-1.09-.06 0-.1 0-.13.03-.17 0-.32.01-.46.04h-.35l2.65 4.08h1.37l-.19-.22c-.52-.58-1.22-1.53-2.09-2.84zm.41-4.33v.6c0 .4-.02.74-.06 1.02-.04.27-.09.46-.15.56s-.1.19-.13.27-.05.13-.07.15c0 0 0 .01.01.01.04 0 .2-.05.47-.15.94-.29 1.41-.91 1.41-1.84s-.57-1.62-1.71-1.99l-.29-.1.06.16c.13.15.26.47.4.96.04.24.06.55.06.96v-.6zm-.51.6c0-.43-.04-.8-.12-1.09s-.2-.52-.35-.66c-.16-.15-.28-.24-.37-.28s-.2-.08-.34-.13c-.03 0-.22-.02-.56-.07-.38 0-.67.06-.85.19-.1.07-.15.19-.16.37 0 .18-.02.81-.03 1.9v1.99h.24c.42 0 .87-.03 1.34-.09.45-.12.77-.31.94-.59.18-.27.27-.79.27-1.53zm-3.19 6.79c-.03-.07-.05-.12-.06-.15 0-.03-.02-.19-.03-.49 0-.29-.02-.71-.03-1.25v-2.56-4.18l.06-.21.1-.19h-1.64c.03.07.05.12.06.15 0 .03.02.2.03.52 0 .31.02.74.03 1.27v2.59c0 2.06 0 3.3-.01 3.71 0 .41-.04.67-.09.77 0 0-.01.02-.01.03h1.59zm-3.3-9.27c0-.07.05-.16.16-.27h2.84c1.91.02 2.98.05 3.21.09.22.04.42.09.62.15s.37.12.52.19.28.14.41.22.24.16.32.24l.27.24c.09.08.15.15.19.22s.09.14.15.21.09.13.1.19c0 .06.03.11.06.16l.04.09c.05.18.07.43.07.75 0 .49-.06.87-.19 1.15-.34.7-1.03 1.15-2.06 1.37l-.27.07c.07.11.16.25.27.43s.32.5.65.97c.32.47.62.89.9 1.25s.56.7.87 1.02c.3.31.55.5.72.54.19.05.28.14.28.28 0 .09-.06.17-.18.25h-2.7c-.07-.07-.59-.85-1.56-2.36l-1.44-2.22h-.56v1.87c.02 1.14.03 1.75.04 1.83.03.17.13.27.29.31.04 0 .18.02.41.04.25 0 .41.03.5.1.09.11.09.23 0 .37l-.1.06h-4.69c-.12-.06-.18-.14-.18-.25 0-.19.19-.28.57-.28.4-.03.63-.11.68-.25.05-.08.07-1.5.07-4.26s-.02-4.19-.07-4.29c-.06-.13-.28-.21-.68-.24-.37 0-.56-.08-.56-.25z"/><path d="m49.02 174.73s.02-.07.03-.12c0-.05.03-.16.07-.32.04-.17.09-.32.15-.46s.13-.3.22-.49.19-.33.29-.44c.11-.11.24-.22.38-.32s.31-.15.49-.13c.28 0 .54.06.75.18.22.12.37.23.46.32s.14.2.16.29c.02.06.03.09.04.09s.05-.03.12-.1c.47-.51 1.02-.77 1.64-.77h.04c.47 0 .83.2 1.06.6.08.19.12.37.12.54 0 .29-.06.53-.19.71s-.26.29-.38.34c-.13.05-.25.07-.37.06-.2 0-.35-.05-.47-.16s-.18-.25-.18-.43c0-.47.28-.79.83-.94-.22-.13-.39-.19-.53-.19-.55 0-1.06.36-1.52 1.09-.1.16-.17.32-.22.49s-.22.82-.5 1.96c-.33 1.37-.53 2.11-.57 2.19-.13.27-.34.4-.63.4-.13 0-.23-.03-.31-.09s-.13-.12-.16-.18-.04-.11-.03-.15c0-.13.2-.97.59-2.53s.59-2.43.59-2.61c0-.38-.13-.57-.38-.57-.21 0-.38.14-.53.41s-.27.57-.35.9-.14.5-.16.53c-.02.02-.1.03-.24.03h-.21c-.06-.06-.09-.1-.09-.13z"/><path d="m55.71 171.96c0-.76.3-1.44.9-2.04s1.24-.91 1.94-.91c.39 0 .69.08.92.25s.34.39.34.66c0 .2-.07.37-.2.51s-.3.21-.5.22c-.13 0-.24-.03-.31-.1-.08-.07-.11-.17-.11-.31s.04-.26.11-.35c.08-.1.15-.17.23-.22s.13-.07.15-.06h.01s-.02-.03-.06-.06-.11-.06-.22-.08c-.1-.03-.22-.04-.35-.04-.21 0-.41.05-.59.15-.15.06-.3.17-.45.32-.31.31-.53.74-.67 1.29-.14.56-.21.96-.22 1.21 0 .32.09.56.27.72.15.17.35.25.6.25h.04c.78 0 1.42-.3 1.93-.89.06-.07.1-.1.13-.1s.07.03.14.09c.06.06.1.11.1.15 0 .03-.02.09-.09.16s-.17.17-.3.29-.29.23-.47.31-.4.17-.67.26c-.26.09-.54.13-.83.11-.52 0-.94-.17-1.26-.5s-.48-.76-.49-1.27z"/><path d="m66.1 173.76c-.06-.51-.39-.77-1-.77-.32 0-.62.07-.9.21s-.5.3-.66.5c-.17.2-.31.4-.43.6-.12.21-.2.38-.24.53s-.06.24-.07.28c0 0 .1.01.29.01 1.11 0 1.89-.12 2.33-.35.44-.24.67-.57.68-1.02zm-4.92 2.73c0-.56.09-1.07.28-1.53s.43-.84.72-1.15c.29-.3.62-.56.99-.77.36-.21.71-.36 1.03-.46s.63-.14.93-.13h.04c.44 0 .83.11 1.15.32.32.22.49.54.49.96 0 .88-.55 1.46-1.64 1.74-.48.13-1.14.2-1.97.21-.36 0-.55 0-.56.03 0 .02-.03.19-.09.52-.06.32-.09.61-.1.85 0 .46.1.82.31 1.09s.52.4.93.41c.41 0 .87-.08 1.37-.28s.95-.52 1.36-.97c.09-.1.15-.15.18-.15.04 0 .1.04.19.13s.14.16.15.21-.03.13-.13.24-.25.24-.44.4-.42.31-.68.46-.56.27-.93.37c-.36.1-.74.15-1.12.15-.78 0-1.38-.26-1.8-.78s-.64-1.14-.65-1.86z"/><path d="m68.35 171.15v-.14c0-.09.05-.16.15-.21h6.05c.1.06.16.12.16.21s-.05.15-.16.21h-6.05c-.1-.05-.15-.12-.15-.21v.14z"/><path d="m79.25 170.22c-.16-.55-.42-.82-.78-.82-.24 0-.48.11-.7.32-.22.22-.4.5-.52.84-.2.55-.34 1.12-.43 1.71v.11c0 .06 0 .1-.01.12 0 .31.06.53.19.65s.27.18.45.19c.38 0 .76-.25 1.16-.75l.08-.11.56-2.26zm.15-3.72s.26-.02.75-.05.75-.06.76-.06c.08 0 .13.03.13.08s-.25 1.1-.76 3.14c-.51 2.05-.77 3.09-.78 3.13s-.02.09-.01.16c0 .29.1.44.29.44.06 0 .13-.04.21-.09.15-.14.29-.47.43-1 .04-.14.08-.21.1-.22.01 0 .05-.01.1-.01h.08c.1 0 .16.03.16.08 0 .03-.01.09-.03.17-.09.35-.19.63-.31.84s-.22.35-.29.42c-.08.06-.17.12-.29.17-.06.01-.14.02-.25.02-.24 0-.43-.05-.59-.16-.16-.1-.26-.21-.31-.32l-.06-.16s-.02 0-.04.01l-.04.04c-.41.39-.83.58-1.25.58-.38 0-.72-.14-1.01-.42s-.44-.72-.44-1.32c0-.33.07-.67.21-1.02s.31-.65.5-.9c.33-.4.65-.67.98-.82s.62-.23.89-.23c.39 0 .68.15.88.44.03.04.05.06.05.04 0-.03.1-.41.28-1.14s.28-1.11.29-1.16c0-.09-.02-.15-.07-.17s-.18-.04-.41-.05h-.22s-.06-.07-.06-.08 0-.08.02-.2c.03-.13.08-.2.14-.2z"/><path d="m82.18 172.24c0 .74.18 1.1.55 1.1.1 0 .22-.03.33-.1.12-.07.26-.2.43-.4.17-.19.33-.5.5-.91s.33-.92.5-1.52l.05-.18h-2.03s-.03.15-.09.4c-.06.24-.12.51-.17.81s-.07.56-.07.79zm2.81-4.52c0-.71-.18-1.06-.55-1.06-.25 0-.49.16-.73.47s-.43.67-.58 1.06c-.15.4-.27.74-.35 1.04s-.13.47-.14.52c.34 0 .68.01 1.01.01h1.01s.03-.13.08-.35.1-.5.17-.83.09-.62.08-.85zm-3.63 3.81c0-.71.14-1.45.41-2.24s.64-1.46 1.1-2.03c.47-.57.95-.9 1.45-.98h.08s.09 0 .13-.01c.38.03.67.2.88.51.27.42.41.98.41 1.68 0 .8-.16 1.61-.47 2.44s-.71 1.5-1.2 2.03-.95.79-1.4.79h-.07c-.25 0-.47-.07-.65-.21s-.32-.32-.41-.55-.16-.46-.2-.7-.06-.48-.06-.73z"/><path d="m87.67 178.96-.04-.03s-.05-.02-.07-.04-.04-.05-.07-.09-.04-.08-.04-.13c0-.02 0-.06.03-.12.1-.15 1.52-1.78 4.26-4.9.5-.58 1.13-1.3 1.89-2.17 1.19-1.37 1.89-2.18 2.09-2.4s.36-.34.46-.34.17.03.21.09.06.13.07.21c0 .06-.01.11-.04.16 0 0-.19.21-.53.6s-.85.98-1.52 1.75-1.33 1.53-1.97 2.25l-3.98 4.55h3.92s3.94.01 3.94.01c.13.1.19.2.19.29 0 .12-.07.22-.22.29h-8.55z"/><path d="m105.73 174.87c0-.41-.12-.74-.35-.97-.24-.24-.55-.36-.94-.37-.48 0-.93.2-1.36.59-.42.39-.77.94-1.05 1.63-.14.33-.28.87-.41 1.61l-.13.66c.18.02.28.03.29.03 1.15 0 2.09-.34 2.83-1.02s1.11-1.4 1.12-2.17zm-7.11 1c0 .33.07.63.21.9s.31.47.53.6c.22.14.43.25.63.34.21.09.38.15.52.19l.22.03h.03s.19-.62.19-.62c.18-.57.34-1.06.49-1.46s.34-.83.57-1.3c.24-.46.47-.83.71-1.12.24-.28.53-.52.87-.71s.7-.28 1.08-.28c.44 0 .84.16 1.18.47s.52.84.53 1.59c0 .77-.21 1.5-.63 2.21s-1 1.28-1.74 1.72-1.51.66-2.33.66c-.26 0-.38 0-.38.03l-.1.53c-.06.34-.13.72-.21 1.13s-.13.68-.16.8c-.05.24-.18.4-.38.49-.11.06-.23.09-.37.09-.3-.03-.46-.19-.46-.49 0-.1.27-1 .81-2.7l-.07-.03s-.12-.04-.21-.07-.2-.07-.32-.13c-.13-.06-.26-.13-.38-.21s-.26-.17-.4-.27-.27-.22-.38-.37c-.12-.15-.23-.3-.34-.47s-.18-.36-.22-.57c-.04-.22-.07-.45-.09-.71 0-.47.13-1.07.38-1.78.26-.72.61-1.31 1.08-1.77h.19c.21 0 .31.04.31.12 0 .06-.04.13-.12.21-.4.47-.7 1.01-.9 1.61s-.3 1.04-.32 1.33z"/><path d="m150.72 178.58c.48 0 .96-.1 1.44-.31s.84-.42 1.08-.63l.35-.32c-.02-1.4-.05-2.28-.1-2.62-.14-1.13-.59-1.69-1.36-1.69-.68 0-1.27.36-1.78 1.08-.27.39-.48.92-.65 1.59s-.26 1.18-.27 1.53c0 .48.12.83.37 1.05s.55.33.91.34zm-2.56-1.92c0-1.12.42-2.1 1.27-2.95.85-.84 1.77-1.27 2.79-1.27.69 0 1.24.2 1.65.59s.69.87.84 1.44c.06.28.09.61.1.99v.43c.48-.73.85-1.54 1.11-2.45.04-.14.07-.22.09-.24s.1-.03.24-.04c.21 0 .31.04.31.12 0 .09-.04.28-.13.57s-.27.71-.53 1.25c-.27.54-.56 1.03-.9 1.47l-.16.21v.35c.03.55.07.92.13 1.12s.15.3.28.31c.14-.02.27-.07.38-.16.12-.09.2-.2.25-.34.02-.07.04-.11.07-.12.03 0 .1-.02.22-.03.2 0 .29.04.29.12 0 .06-.03.15-.09.28-.12.24-.29.42-.52.56s-.44.21-.65.22h-.1c-.66 0-1.11-.35-1.34-1.06l-.04-.1-.16.12c-.1.08-.25.18-.44.29-.2.12-.42.23-.66.34s-.53.21-.85.29c-.32.09-.64.13-.94.13-.78 0-1.39-.25-1.83-.74s-.66-1.07-.66-1.72z"/><path d="m162.42 175.28c0-1.2.4-2.18 1.21-2.95s1.76-1.2 2.86-1.31h.25c.16 0 .36 0 .62-.01s.5 0 .74 0h1.46c.15.08.22.18.22.29 0 .09-.06.18-.19.28h-1.53c-1.09.02-1.76.05-2.02.1-.48.12-.91.29-1.28.53s-.66.48-.87.72-.38.52-.53.81-.24.53-.27.71-.05.34-.07.5v.03h6.54c.15.08.22.18.22.29s-.07.22-.22.29h-6.54v.03c0 .21.05.46.15.75s.26.61.49.96c.23.34.54.66.94.94s.88.49 1.43.6c.27.06.94.09 2.03.1h1.53c.13.1.19.2.19.29 0 .12-.07.22-.22.29h-1.8c-.18 0-.32 0-.43.01-1.52 0-2.73-.42-3.61-1.27-.86-.81-1.3-1.81-1.3-3.02z"/><path d="m184.26 170.64v-.88s-.08.03-.12.03c-.1.04-.21.06-.34.06h-.22l.19.21c.2.22.3.34.32.38l.16.21zm-5.47-.88c.14-.18.19-.27.16-.27-.23.08-.46.19-.69.34-.24.15-.5.35-.78.6-.28.26-.54.59-.75 1.02-.22.42-.37.89-.46 1.41-.05.29-.07.65-.07 1.08s.02.78.07 1.08c.1.54.27 1.03.5 1.46.24.43.49.77.75 1 .27.24.53.43.78.59s.47.27.63.32l.25.07c-.07-.07-.13-.14-.19-.21-.64-.62-1.05-1.63-1.22-3.03-.03-.27-.04-.71-.04-1.33s.01-1.06.04-1.33c.19-1.23.53-2.17 1.02-2.81zm6.4 7.27c0 .06-.06.17-.18.32-.12.16-.31.34-.57.56-.27.22-.56.42-.88.62s-.74.36-1.24.5-1.01.21-1.52.21c-.55 0-1.09-.08-1.62-.24s-1.03-.4-1.5-.72-.88-.76-1.22-1.3-.57-1.16-.69-1.87c-.05-.22-.07-.61-.07-1.18s.02-.96.07-1.18c.22-1.15.7-2.08 1.46-2.8s1.73-1.15 2.92-1.3c.03 0 .14 0 .34-.01.2 0 .35-.01.46-.01.53.03 1.06.15 1.59.35.53.21.93.31 1.21.32.18 0 .3-.03.38-.1s.12-.15.13-.24.03-.17.07-.24.11-.11.21-.12c.11 0 .2.06.27.18v3.08l-.06.1c-.13.07-.25.08-.37.03-.04-.04-.09-.16-.15-.35-.06-.2-.17-.42-.34-.66-.32-.45-.76-.86-1.3-1.24s-1.12-.56-1.72-.56h-.13c-.43 0-.84.19-1.21.56-.85.77-1.28 2.18-1.28 4.26 0 .85.1 1.63.31 2.31.4 1.46 1.25 2.19 2.54 2.19s2.42-.49 3.48-1.47c.17-.17.29-.25.37-.25.05 0 .1.02.16.06s.09.1.1.18z"/><path d="m188.13 169.66c-.09-.93-.14-1.45-.14-1.56 0-.12.08-.22.25-.29h.05s.05 0 .06-.01c.08 0 .16.04.23.09.07.06.1.12.1.21 0 .12-.02.4-.06.83s-.07.68-.07.73l.6-.44c.39-.28.6-.44.64-.46.03-.02.07-.03.1-.03.09 0 .17.03.25.1s.12.16.13.28c0 .09-.03.17-.1.24-.03.02-.27.14-.71.34-.44.21-.67.32-.71.33l.69.32.73.36c.06.06.09.14.09.24s-.03.19-.09.26-.15.11-.25.11c-.06 0-.12-.02-.19-.06s-.26-.18-.57-.42l-.6-.44c.09.93.14 1.45.14 1.56 0 .07-.02.14-.07.2s-.14.09-.27.09-.22-.03-.27-.09-.08-.13-.08-.2c0-.12.02-.4.06-.83.04-.44.07-.68.07-.73l-.6.44c-.39.28-.6.44-.64.46-.03.02-.06.03-.1.03-.09 0-.17-.03-.25-.1s-.12-.16-.13-.28v-.08s.01-.04.03-.06.04-.04.05-.06.05-.05.09-.07c.05-.03.09-.05.14-.07.04-.02.11-.05.2-.09s.18-.08.26-.11.19-.09.33-.16l.42-.21-1.42-.68c-.06-.06-.09-.14-.09-.24s.03-.19.09-.26.15-.11.25-.11c.06 0 .12.02.19.06s.26.18.57.42l.6.44z"/><path d="m192.84 178.45v-.37c0-.25.08-.46.24-.63.16-.18.37-.27.63-.27s.52.12.74.37.33.68.34 1.3c0 .34-.04.68-.13 1s-.19.6-.31.84-.25.44-.38.6c-.14.17-.26.3-.35.4s-.16.14-.19.13c-.04 0-.1-.04-.19-.13s-.13-.15-.13-.19.05-.12.16-.24.23-.27.37-.44.27-.42.38-.74c.12-.31.2-.67.24-1.08v-.18h-.01s-.04.03-.07.04-.06.02-.09.04-.07.03-.13.03-.12 0-.18.01c-.27 0-.48-.08-.65-.25l-.27-.27z"/><path d="m199.1 182.14c-.14 0-.26-.04-.35-.12-.1-.08-.15-.19-.16-.32 0-.1.36-1.58 1.08-4.45s1.1-4.33 1.13-4.39c.13-.27.35-.41.68-.41.12 0 .22.04.29.1s.13.12.15.18.03.11.03.15c0 .12-.15.78-.46 1.97-.3 1.2-.47 1.87-.49 2.02-.02.11-.03.28-.03.52v.12c0 .72.33 1.08.99 1.08.09 0 .18 0 .27-.01s.17-.03.25-.06.15-.06.22-.1.13-.07.19-.1.12-.08.18-.15.11-.12.16-.15.1-.09.15-.18.09-.14.12-.16.07-.08.13-.18l.1-.15.53-2.11c.35-1.39.55-2.14.59-2.22.13-.27.34-.4.63-.4.13 0 .23.03.31.1s.13.13.16.18.04.1.03.15l-1.12 4.68s-.01.13-.01.24c0 .25.03.41.1.49s.17.12.31.13c.09 0 .19-.05.29-.13.21-.2.41-.67.6-1.41.06-.2.11-.3.15-.31.02 0 .07-.01.15-.01h.06c.19 0 .28.04.28.13 0 .06-.02.19-.07.4s-.15.47-.29.8c-.15.32-.3.57-.47.74-.13.13-.28.23-.47.31-.08.02-.2.03-.35.03-.21 0-.39-.03-.56-.09s-.3-.13-.4-.22-.18-.18-.25-.27-.11-.16-.13-.22-.03-.09-.03-.1l-.09.09c-.06.06-.15.13-.27.22s-.25.18-.38.27-.31.17-.53.24-.42.1-.62.1c-.46 0-.92-.11-1.37-.34l-.35 1.43c-.21.81-.33 1.27-.37 1.4s-.1.24-.18.32c-.16.14-.32.21-.5.21z"/><path d="m212.47 175.28c0-1.2.4-2.18 1.21-2.95s1.76-1.2 2.86-1.31h.25c.16 0 .36 0 .62-.01h.74 1.46c.15.08.22.18.22.29 0 .09-.06.18-.19.28h-1.53c-1.09.02-1.76.05-2.02.1-.48.12-.91.29-1.28.53s-.66.48-.87.72c-.21.25-.38.52-.53.81s-.24.53-.27.71-.05.34-.07.5v.03h6.54c.15.08.22.18.22.29s-.07.22-.22.29h-6.54v.03c0 .21.05.46.15.75s.26.61.49.96c.23.34.54.66.94.94s.88.49 1.43.6c.27.06.94.09 2.03.1h1.53c.13.1.19.2.19.29 0 .12-.07.22-.22.29h-1.8c-.18 0-.32 0-.43.01-1.52 0-2.73-.42-3.61-1.27-.86-.81-1.3-1.81-1.3-3.02z"/><path d="m234.31 170.64v-.88s-.08.03-.12.03c-.1.04-.21.06-.34.06h-.22l.19.21c.2.22.3.34.32.38l.16.21zm-5.47-.88c.14-.18.19-.27.16-.27-.23.08-.46.19-.69.34-.24.15-.5.35-.78.6s-.54.59-.75 1.02c-.22.42-.37.89-.46 1.41-.05.29-.07.65-.07 1.08s.02.78.07 1.08c.1.54.27 1.03.5 1.46.24.43.49.77.75 1 .27.24.53.43.78.59s.47.27.63.32l.25.07c-.07-.07-.13-.14-.19-.21-.64-.62-1.05-1.63-1.22-3.03-.03-.27-.04-.71-.04-1.33s.01-1.06.04-1.33c.19-1.23.53-2.17 1.02-2.81zm6.4 7.27c0 .06-.06.17-.18.32-.12.16-.31.34-.57.56-.27.22-.56.42-.88.62s-.74.36-1.24.5-1.01.21-1.52.21c-.55 0-1.09-.08-1.62-.24s-1.03-.4-1.5-.72-.88-.76-1.22-1.3-.57-1.16-.69-1.87c-.05-.22-.07-.61-.07-1.18s.02-.96.07-1.18c.22-1.15.7-2.08 1.46-2.8s1.73-1.15 2.92-1.3c.03 0 .14 0 .34-.01.2 0 .35-.01.46-.01.53.03 1.06.15 1.59.35.53.21.93.31 1.21.32.18 0 .3-.03.38-.1s.12-.15.13-.24.03-.17.07-.24.11-.11.21-.12c.11 0 .2.06.27.18v3.08l-.06.1c-.13.07-.25.08-.37.03-.04-.04-.09-.16-.15-.35-.06-.2-.17-.42-.34-.66-.32-.45-.76-.86-1.3-1.24s-1.12-.56-1.72-.56h-.13c-.43 0-.84.19-1.21.56-.85.77-1.28 2.18-1.28 4.26 0 .85.1 1.63.31 2.31.4 1.46 1.25 2.19 2.54 2.19s2.42-.49 3.48-1.47c.17-.17.29-.25.37-.25.05 0 .1.02.16.06s.09.1.1.18z"/><path d="m3.59 200.72h4.91v.39h-4.91v-.39zm0-2.13h4.91v.38h-4.91v-.38zm4.51-4 1.33.13c0 .09-.05.16-.12.23s-.19.11-.35.14v7.98h-.86v-8.47zm-4.98 0 1.32.13c0 .09-.05.16-.12.23s-.19.11-.35.14v7.98h-.85v-8.47zm-2.77 1.96h9.61l.63-.77s.04.03.12.08c.08.06.18.13.29.23.12.1.24.2.38.31.13.11.25.22.36.33-.03.14-.14.21-.34.21h-10.94l-.12-.39zm3.75 7.05 1.24.65c-.03.07-.1.11-.2.14-.1.02-.24.02-.41 0-.33.25-.73.51-1.2.78s-.99.52-1.55.75-1.12.43-1.69.59l-.1-.18c.5-.22 1.01-.48 1.52-.79s.97-.64 1.39-.98.76-.66 1.01-.94zm3.21.2c.82.17 1.51.36 2.05.55.54.2.97.39 1.3.6.32.2.55.4.69.58s.21.34.21.49-.04.26-.12.34c-.09.08-.2.12-.34.11-.14 0-.27-.07-.39-.18-.3-.36-.75-.75-1.34-1.15s-1.3-.78-2.14-1.13l.08-.21zm-7.26-.94h10.11l.65-.81s.04.03.12.1.19.15.31.25.26.21.4.32.26.22.38.33c-.02.07-.06.12-.12.16s-.14.05-.23.05h-11.51l-.12-.39z"/><path d="m19.91 194.71c-.02.09-.06.16-.12.23s-.18.11-.36.14v11.06s-.03.09-.1.15-.15.1-.26.14-.22.06-.35.06h-.17v-11.92l1.35.14zm-5.14 7.73s-.03.06-.1.11-.16.09-.26.13-.22.06-.35.06h-.14v-5.88l.95.44h8.66v.38h-8.75v4.76zm8.33-5.14.48-.55 1.08.83c-.04.05-.12.1-.21.15-.1.05-.21.08-.35.11v4.46s-.04.06-.13.1-.19.08-.3.12c-.11.03-.22.05-.31.05h-.13v-5.28h-.13zm.49 3.83v.38h-9.25v-.38h9.25z"/><path d="m26.71 204.59c0-.24.08-.44.25-.62s.38-.27.63-.27c.24 0 .44.08.62.24s.27.37.28.63c0 .25-.08.46-.25.63-.17.18-.38.27-.63.27s-.47-.08-.63-.25c-.17-.17-.26-.38-.27-.63zm0-4.57c0-.24.08-.44.25-.62s.38-.27.63-.27c.24 0 .44.08.62.24s.27.37.28.63c0 .25-.08.46-.25.63-.17.18-.38.27-.63.27s-.47-.08-.63-.25c-.17-.17-.26-.38-.27-.63z"/><path d="m33.65 201.25s.02-.07.03-.12c0-.05.03-.16.07-.32.04-.17.09-.32.15-.46s.13-.3.22-.49.19-.33.29-.44c.11-.11.24-.22.38-.32.15-.11.31-.15.49-.13.28 0 .54.06.75.18.22.12.37.23.46.32.09.1.14.2.16.29.02.06.03.09.04.09s.05-.03.12-.1c.47-.51 1.02-.77 1.64-.77h.04c.47 0 .83.2 1.06.6.08.19.12.37.12.55 0 .29-.06.53-.19.71s-.26.29-.38.34c-.13.05-.25.07-.37.06-.2 0-.35-.05-.47-.16s-.18-.25-.18-.43c0-.47.28-.79.83-.94-.22-.13-.39-.19-.53-.19-.55 0-1.06.36-1.52 1.09-.1.16-.17.32-.22.49s-.22.82-.5 1.96c-.33 1.37-.53 2.11-.57 2.19-.13.27-.34.4-.63.4-.13 0-.23-.03-.31-.09s-.13-.12-.16-.18-.04-.11-.03-.15c0-.13.2-.97.59-2.53s.59-2.43.59-2.61c0-.38-.13-.57-.38-.57-.21 0-.38.14-.53.41s-.27.57-.35.9c-.09.32-.14.5-.16.53-.02.02-.1.03-.24.03h-.21c-.06-.06-.09-.1-.09-.13z"/><path d="m44.91 203.22c0-.15.08-.25.24-.29h9.37c.14.1.21.2.21.29 0 .13-.07.23-.22.29h-9.39c-.14-.07-.21-.17-.21-.29zm0-2.86c0-.13.07-.23.21-.29h9.39c.15.08.22.18.22.29s-.07.2-.21.28h-4.69s-4.69.01-4.69.01c-.16-.05-.24-.15-.24-.29z"/><path d="m61.69 209.14h-.03c-.12 0-.21-.07-.27-.21v-14.32c.11-.13.21-.19.29-.19.13 0 .23.07.29.22v14.29c-.08.14-.17.21-.27.21h-.03z"/><path d="m66.8 205.09c.48 0 .96-.1 1.44-.31s.84-.42 1.08-.63l.35-.32c-.02-1.4-.05-2.28-.1-2.62-.14-1.13-.59-1.69-1.36-1.69-.68 0-1.27.36-1.78 1.08-.27.39-.48.92-.65 1.59s-.26 1.18-.27 1.53c0 .48.12.83.37 1.05s.55.33.91.34zm-2.56-1.91c0-1.12.42-2.1 1.27-2.95.85-.84 1.77-1.27 2.79-1.27.69 0 1.24.2 1.65.59s.69.87.84 1.44c.06.28.09.61.1.99v.43c.48-.73.85-1.54 1.11-2.45.04-.14.07-.22.09-.24s.1-.03.24-.04c.21 0 .31.04.31.12 0 .09-.04.28-.13.57s-.27.71-.53 1.25-.56 1.03-.9 1.47l-.16.21v.35c.03.55.07.92.13 1.12s.15.3.28.31c.14-.02.27-.07.38-.16s.2-.2.25-.34c.02-.07.04-.11.07-.12.03 0 .1-.02.22-.03.2 0 .29.04.29.12 0 .06-.03.15-.09.28-.12.24-.29.42-.52.56s-.44.21-.65.22h-.1c-.66 0-1.11-.35-1.34-1.06l-.04-.1-.16.12c-.1.08-.25.18-.44.29-.2.12-.42.23-.66.34s-.53.21-.85.29-.64.13-.94.13c-.78 0-1.39-.25-1.83-.74s-.66-1.07-.66-1.72z"/><path d="m75.22 209.14h-.03c-.12 0-.21-.07-.27-.21v-14.32c.11-.13.21-.19.29-.19.13 0 .23.07.29.22v14.29c-.08.14-.17.21-.27.21h-.03z"/><path d="m78.42 204.59c0-.25.08-.46.24-.63.16-.18.37-.27.63-.27.64 0 .96.55.96 1.66 0 .51-.09 1.01-.28 1.5s-.38.86-.57 1.1c-.2.25-.32.37-.38.37-.03 0-.09-.04-.18-.12s-.14-.14-.16-.18c0-.03.05-.12.18-.28s.28-.39.44-.71.28-.65.34-1.02c0-.06.02-.14.03-.24 0-.1.02-.19.04-.27s.02-.12 0-.12h-.06c-.04 0-.13.03-.28.06-.31 0-.55-.09-.71-.27s-.24-.38-.24-.62z"/><path d="m86.32 203.13c0-1.07.42-2.03 1.27-2.89.85-.85 1.76-1.28 2.74-1.28.55 0 .98.12 1.3.35.31.24.48.54.49.93 0 .28-.09.53-.28.72-.19.2-.42.3-.71.31-.19 0-.33-.05-.44-.15s-.16-.25-.16-.44.05-.36.16-.5.22-.24.32-.31.18-.1.21-.09h.01s-.03-.05-.09-.09-.16-.08-.31-.12-.31-.06-.5-.06c-.29 0-.57.07-.84.21-.21.09-.42.24-.63.46-.43.43-.75 1.04-.94 1.83-.2.79-.3 1.36-.31 1.71 0 .45.13.79.38 1.02.22.24.5.35.85.35h.06c1.1 0 2.01-.42 2.73-1.25.09-.1.15-.15.18-.15.04 0 .1.04.19.13s.14.16.15.21c0 .05-.03.12-.13.22s-.24.24-.43.41-.41.32-.66.44c-.26.12-.57.24-.94.37s-.77.18-1.18.16c-.74 0-1.33-.24-1.78-.71s-.68-1.07-.69-1.8z"/><path d="m97.12 203.22c0-.15.08-.25.24-.29h9.37c.14.1.21.2.21.29 0 .13-.07.23-.22.29h-9.39c-.14-.07-.21-.17-.21-.29zm0-2.86c0-.13.07-.23.21-.29h9.39c.15.08.22.18.22.29s-.07.2-.21.28h-4.69s-4.69.01-4.69.01c-.16-.05-.24-.15-.24-.29z"/><path d="m112.39 204.8h.21c.38 0 .61-.07.69-.21v-.46c0-.14 0-.29.01-.46v-.57-.62-2.18c-.04-.19-.11-.31-.22-.37s-.33-.1-.66-.13h-.27v-.34c0-.23 0-.34.03-.34h.15c.1-.02.24-.03.41-.04s.35-.02.53-.03c.16 0 .33-.02.52-.03.19 0 .33-.02.43-.04s.15-.02.16-.01h.04v1.02c.38-.67.86-1 1.43-1h.09c.44 0 .77.11.97.32.21.22.31.44.31.68 0 .21-.06.38-.19.53s-.31.22-.56.22-.43-.08-.55-.24-.18-.32-.19-.5c0-.09 0-.17.03-.24s.04-.13.07-.18.04-.07.04-.07c-.02-.02-.13 0-.34.06-.16.08-.28.15-.35.22-.46.44-.69 1.32-.69 2.64v1.56c0 .12 0 .22.01.29v.22.07s.02.04.04.06.04.03.07.04.05.02.07.04.05.03.1.03.08 0 .1.01c.02 0 .06.01.13.01h.13s.07 0 .15.01h.15.46v.68h-.13c-.18-.03-.8-.04-1.87-.04-1.01 0-1.56.01-1.65.04h-.12v-.68h.24z"/><path d="m122.54 201.42c-.11-1.26-.57-1.92-1.4-2h-.03c-.08 0-.16 0-.24.01s-.2.05-.37.12-.31.17-.43.31-.23.34-.34.6c-.11.27-.19.59-.24.97v.1h3.04v-.12zm-4.49.84c0-.54.1-1.03.29-1.47.2-.44.44-.8.74-1.08.29-.27.61-.48.96-.62.34-.14.67-.21.97-.22.52 0 .97.09 1.34.27s.66.42.85.74c.2.31.33.63.41.94s.12.66.13 1.05c0 .07-.03.14-.1.21h-4.16v.22c0 1.45.49 2.34 1.47 2.65.2.06.41.09.65.09.41 0 .77-.16 1.06-.47.17-.17.3-.37.4-.62l.15-.35s.11-.04.24-.04h.04c.17 0 .25.05.25.15 0 .04-.01.1-.04.19-.19.54-.5.97-.93 1.28s-.92.47-1.46.47c-.93 0-1.71-.34-2.33-1.02s-.93-1.46-.94-2.36z"/><path d="m125.57 201.79c0-.68.05-1.32.15-1.93s.21-1.13.34-1.58c.13-.44.31-.87.55-1.3.24-.42.42-.75.56-.99s.34-.49.62-.77c.28-.27.44-.44.49-.5s.17-.16.37-.31h.25c.14 0 .21.04.21.13 0 .03-.08.13-.25.31s-.37.44-.6.78c-.24.34-.48.77-.72 1.27-.25.5-.45 1.18-.62 2.03s-.25 1.8-.25 2.84.08 1.98.25 2.83c.17.84.37 1.53.6 2.05.24.52.48.94.72 1.27.25.32.45.58.62.78s.25.3.25.31c0 .09-.07.13-.22.13h-.24l-.41-.35c-.92-.83-1.6-1.88-2.02-3.12-.42-1.25-.63-2.54-.63-3.89z"/><path d="m130.77 208.66c-.14 0-.26-.04-.35-.12-.1-.08-.15-.19-.16-.32 0-.1.36-1.58 1.08-4.45s1.1-4.33 1.13-4.39c.13-.27.35-.41.68-.41.12 0 .22.04.29.1.08.06.13.12.15.18s.03.11.03.15c0 .12-.15.78-.46 1.97s-.47 1.87-.49 2.02c-.02.11-.03.28-.03.52v.12c0 .72.33 1.08.99 1.08.09 0 .18 0 .27-.01s.17-.03.25-.06.15-.06.22-.1.13-.07.19-.1.12-.08.18-.15.11-.12.16-.15.1-.09.15-.18.09-.14.12-.16.07-.08.13-.18l.1-.15.53-2.11c.35-1.39.55-2.14.59-2.22.13-.27.34-.4.63-.4.13 0 .23.03.31.1s.13.13.16.18.04.1.03.15l-1.12 4.68s-.01.13-.01.24c0 .25.03.41.1.49s.17.12.31.13c.09 0 .19-.05.29-.13.21-.2.41-.67.6-1.41.06-.2.11-.3.15-.31.02 0 .07-.01.15-.01h.06c.19 0 .28.04.28.13 0 .06-.02.19-.07.4s-.15.47-.29.8c-.15.32-.3.57-.47.74-.13.13-.28.23-.47.31-.08.02-.2.03-.35.03-.21 0-.39-.03-.56-.09s-.3-.13-.4-.22-.18-.18-.25-.27-.11-.16-.13-.22-.03-.09-.03-.1l-.09.09c-.06.06-.15.13-.27.22s-.25.18-.38.27c-.14.09-.31.17-.53.24s-.42.1-.62.1c-.46 0-.92-.11-1.37-.34l-.35 1.43c-.21.81-.33 1.27-.37 1.4s-.1.24-.18.32c-.16.14-.32.21-.5.21z"/><path d="m139.69 194.44h.06s.1-.01.15-.01h.18l.41.35c.92.83 1.6 1.88 2.02 3.12.42 1.25.63 2.54.63 3.89 0 .67-.05 1.31-.15 1.93s-.21 1.14-.34 1.58-.31.86-.55 1.3c-.24.43-.42.76-.56.99s-.34.48-.6.75c-.27.27-.42.44-.47.49s-.16.14-.34.28l-.06.06h-.34s-.05-.01-.07-.04-.03-.07-.04-.13c0 0 .06-.07.16-.19 1.52-1.58 2.28-3.91 2.28-7s-.76-5.42-2.28-7c-.1-.12-.15-.18-.16-.19 0-.08.02-.13.07-.16z"/><path d="m145.68 204.59c0-.25.08-.46.24-.63.16-.18.37-.27.63-.27.64 0 .96.55.96 1.66 0 .51-.09 1.01-.28 1.5s-.38.86-.57 1.1c-.2.25-.32.37-.38.37-.03 0-.09-.04-.18-.12s-.14-.14-.16-.18c0-.03.05-.12.18-.28s.28-.39.44-.71.28-.65.34-1.02c0-.06.02-.14.03-.24 0-.1.02-.19.04-.27s.02-.12 0-.12h-.06c-.04 0-.13.03-.28.06-.31 0-.55-.09-.71-.27s-.24-.38-.24-.62z"/><path d="m158.27 200.67c-.23-.78-.59-1.16-1.11-1.16-.34 0-.67.15-.99.46-.31.3-.56.7-.74 1.19-.28.78-.49 1.58-.6 2.42v.16c0 .08 0 .14-.01.18 0 .44.09.75.27.91.18.17.39.26.63.27.53 0 1.08-.35 1.64-1.06l.12-.16.8-3.2zm.21-5.26s.36-.02 1.06-.07 1.06-.08 1.08-.09c.12 0 .18.04.18.12 0 .07-.36 1.55-1.08 4.45s-1.09 4.37-1.11 4.43-.02.13-.01.22c0 .41.14.62.41.62.09 0 .19-.05.29-.13.21-.2.41-.67.6-1.41.06-.2.11-.3.15-.31.02 0 .07-.01.15-.01h.12c.15 0 .22.04.22.12 0 .05-.01.13-.04.24-.13.49-.28.89-.44 1.19-.17.3-.3.5-.41.59s-.25.17-.41.24c-.08.02-.2.03-.35.03-.33 0-.61-.07-.84-.22s-.37-.3-.44-.46l-.09-.22s-.03 0-.06.01l-.06.06c-.58.55-1.17.82-1.77.82-.54 0-1.02-.2-1.43-.59s-.62-1.02-.62-1.87c0-.47.1-.95.29-1.44.2-.49.43-.91.71-1.27.46-.56.92-.95 1.39-1.16.46-.22.88-.32 1.25-.32.55 0 .96.21 1.24.62.05.06.07.08.07.06 0-.04.14-.57.4-1.61.26-1.03.39-1.58.41-1.63 0-.13-.03-.21-.1-.24s-.26-.05-.57-.07h-.31c-.06-.06-.09-.1-.09-.12s0-.11.03-.28c.05-.19.11-.28.19-.28z"/><path d="m165.67 203.22c0-.15.08-.25.24-.29h9.37c.14.1.21.2.21.29 0 .13-.07.23-.22.29h-9.39c-.14-.07-.21-.17-.21-.29zm0-2.86c0-.13.07-.23.21-.29h9.39c.15.08.22.18.22.29s-.07.2-.21.28h-4.69s-4.69.01-4.69.01c-.16-.05-.24-.15-.24-.29z"/><path d="m184.05 205.47c-.15-.03-.66-.04-1.53-.04h-.55c-.26 0-.5 0-.74.03h-.32s-.12.01-.12.01v-.68h.24c.28 0 .52-.01.72-.04.09-.04.14-.09.16-.16s.03-.28.03-.62v-2.81c0-.51 0-.83-.03-.97-.02-.14-.09-.23-.21-.28-.14-.07-.37-.1-.69-.1h-.16v-.34c0-.23 0-.34.03-.34h.15c.1-.02.24-.03.41-.04s.35-.02.53-.03c.17 0 .34-.02.53-.03.19 0 .33-.02.43-.04s.15-.02.16-.01h.04v5.6c.05.1.11.16.18.18s.24.04.52.06h.34v.68h-.12zm-2.63-8.97c0-.27.09-.49.27-.65s.39-.24.65-.24c.23.02.42.1.59.25s.25.36.25.63c0 .29-.08.52-.25.66s-.37.22-.62.22-.45-.07-.62-.22-.26-.37-.27-.66z"/><path d="m185.11 204.8h.21c.38 0 .61-.07.69-.21v-.91c0-.17 0-.36.01-.57v-.62-.97c0-.34 0-.63-.01-.87v-.34c-.03-.19-.1-.31-.21-.37s-.33-.1-.66-.13h-.27v-.34c0-.23 0-.34.03-.34h.15c.1-.02.24-.03.41-.04.18 0 .36-.02.55-.03.17 0 .34-.02.53-.03s.33-.02.43-.04.15-.02.16-.01h.04v.59c0 .37 0 .56.01.56s.03-.02.07-.07.1-.12.18-.22.17-.19.28-.27.25-.17.43-.28.36-.19.56-.24.45-.07.75-.07c.15 0 .28 0 .41.03.13.02.24.05.34.09s.19.08.28.12.16.08.22.13.11.1.16.16.09.11.13.16.07.1.1.16.05.11.06.15c0 .04.02.08.04.12l.03.07.04-.06s.06-.08.09-.12.07-.09.13-.16.12-.13.19-.19.14-.12.22-.19.18-.13.29-.18c.12-.05.23-.1.34-.15s.24-.08.38-.1c.15-.02.3-.03.46-.04 1.24 0 1.91.55 2.02 1.66 0 .07.01.75.01 2.05v1.27c0 .37 0 .59.03.66.02.07.07.12.16.15.21.03.45.04.72.04h.24v.68h-.46c-.24-.02-.49-.03-.75-.03s-.45 0-.56-.01c-1.01 0-1.56.01-1.65.04h-.12v-.68h.24c.6 0 .9-.08.9-.24 0-.02.01-.7.01-2.03s-.02-2.03-.03-2.11c-.06-.27-.16-.48-.29-.62-.14-.14-.26-.22-.35-.25-.1-.03-.23-.04-.38-.03-.44 0-.83.17-1.16.5-.27.27-.43.54-.5.81s-.11.68-.12 1.22v1.83c0 .29 0 .49.01.59s.02.16.04.19.06.06.13.09c.21.03.45.04.72.04h.24v.68h-.47c-.23-.02-.47-.03-.74-.03s-.45 0-.56-.01c-1.01 0-1.56.01-1.65.04h-.12v-.68h.24c.6 0 .9-.08.9-.24 0-.02.01-.7.01-2.03s-.02-2.03-.03-2.11c-.06-.27-.16-.48-.29-.62-.14-.14-.26-.22-.35-.25-.1-.03-.23-.04-.38-.03-.44 0-.83.17-1.16.5-.27.27-.43.54-.5.81s-.11.68-.12 1.22v1.83c0 .29 0 .49.01.59s.02.16.04.19.06.06.13.09c.21.03.45.04.72.04h.24v.68h-.46c-.24-.02-.49-.03-.75-.03s-.45 0-.56-.01c-1.01 0-1.56.01-1.65.04h-.12v-.68h.24z"/><path d="m198.17 201.79c0-.68.05-1.32.15-1.93s.21-1.13.34-1.58.31-.87.55-1.3c.24-.42.42-.75.56-.99s.34-.49.62-.77c.28-.27.44-.44.49-.5s.17-.16.37-.31h.25c.14 0 .21.04.21.13 0 .03-.08.13-.25.31s-.37.44-.6.78c-.24.34-.48.77-.72 1.27-.25.5-.45 1.18-.62 2.03s-.25 1.8-.25 2.84.08 1.98.25 2.83.37 1.53.6 2.05c.24.52.48.94.72 1.27.25.32.45.58.62.78s.25.3.25.31c0 .09-.07.13-.22.13h-.24l-.41-.35c-.92-.83-1.6-1.88-2.02-3.12-.42-1.25-.63-2.54-.63-3.89z"/><path d="m203.37 208.66c-.14 0-.26-.04-.35-.12s-.15-.19-.16-.32c0-.1.36-1.58 1.08-4.45s1.1-4.33 1.13-4.39c.13-.27.35-.41.68-.41.12 0 .22.04.29.1.08.06.13.12.15.18s.03.11.03.15c0 .12-.15.78-.46 1.97s-.47 1.87-.49 2.02c-.02.11-.03.28-.03.52v.12c0 .72.33 1.08.99 1.08.09 0 .18 0 .27-.01.09 0 .17-.03.25-.06s.15-.06.22-.1.13-.07.19-.1.12-.08.18-.15.11-.12.16-.15.1-.09.15-.18.09-.14.12-.16.07-.08.13-.18l.1-.15.53-2.11c.35-1.39.55-2.14.59-2.22.13-.27.34-.4.63-.4.13 0 .23.03.31.1s.13.13.16.18.04.1.03.15l-1.12 4.68s-.01.13-.01.24c0 .25.03.41.1.49s.17.12.31.13c.09 0 .19-.05.29-.13.21-.2.41-.67.6-1.41.06-.2.11-.3.15-.31.02 0 .07-.01.15-.01h.06c.19 0 .28.04.28.13 0 .06-.02.19-.07.4s-.15.47-.29.8c-.15.32-.3.57-.47.74-.13.13-.28.23-.47.31-.08.02-.2.03-.35.03-.21 0-.39-.03-.56-.09s-.3-.13-.4-.22-.18-.18-.25-.27-.11-.16-.13-.22-.03-.09-.03-.1l-.09.09c-.06.06-.15.13-.27.22s-.25.18-.38.27c-.14.09-.31.17-.53.24s-.42.1-.62.1c-.46 0-.92-.11-1.37-.34l-.35 1.43c-.21.81-.33 1.27-.37 1.4s-.1.24-.18.32c-.16.14-.32.21-.5.21z"/><path d="m212.29 194.44h.06s.1-.01.15-.01h.18l.41.35c.92.83 1.6 1.88 2.02 3.12.42 1.25.63 2.54.63 3.89 0 .67-.05 1.31-.15 1.93s-.21 1.14-.34 1.58c-.13.43-.31.86-.55 1.3-.24.43-.42.76-.56.99s-.34.48-.6.75c-.27.27-.42.44-.47.49s-.16.14-.34.28l-.06.06h-.34s-.05-.01-.07-.04-.03-.07-.04-.13c0 0 .06-.07.16-.19 1.52-1.58 2.28-3.91 2.28-7s-.76-5.42-2.28-7c-.1-.12-.15-.18-.16-.19 0-.08.02-.13.07-.16z"/><path d="m35 222.68c0 1.04.26 1.56.78 1.56.15 0 .3-.05.47-.15s.37-.28.6-.56c.24-.27.47-.7.71-1.28s.47-1.3.71-2.15l.07-.25h-2.87s-.04.22-.13.56-.17.73-.24 1.15-.1.8-.1 1.12zm3.98-6.39c0-1-.26-1.5-.78-1.5-.35 0-.7.22-1.03.66s-.61.94-.83 1.5-.38 1.05-.5 1.47-.18.67-.19.74c.48 0 .96.01 1.43.01h1.43s.05-.19.12-.5.15-.71.24-1.18.13-.87.12-1.21zm-5.13 5.39c0-1 .19-2.06.57-3.17s.9-2.07 1.56-2.87c.66-.81 1.34-1.27 2.05-1.38h.12c.07 0 .13 0 .18-.01.53.04.94.28 1.24.72.38.59.57 1.38.57 2.37 0 1.13-.22 2.28-.66 3.45s-1.01 2.13-1.69 2.87c-.69.75-1.35 1.12-1.97 1.12h-.1c-.35 0-.66-.1-.91-.29-.26-.2-.45-.46-.57-.78-.13-.32-.22-.65-.28-.99-.06-.33-.09-.68-.09-1.03z"/><path d="m45.17 222.37c0-.15.08-.25.24-.29h9.37c.14.1.21.2.21.29 0 .13-.07.23-.22.29h-9.39c-.14-.07-.21-.17-.21-.29zm0-2.86c0-.13.07-.23.21-.29h9.39c.15.08.22.18.22.29s-.07.2-.21.28h-4.69s-4.69.01-4.69.01c-.16-.05-.24-.15-.24-.29z"/><path d="m61.76 223.06c0 .3.12.57.35.81.24.24.53.36.87.37.37 0 .7-.11.99-.34s.48-.52.57-.88c.02-.07.03-.39.04-.97 0-.57 0-.85-.01-.85-.08 0-.18 0-.31.01-.13 0-.35.05-.66.13s-.6.18-.85.29c-.26.12-.48.3-.68.54-.2.25-.3.54-.31.88zm.17-2.93h-.32c-.22 0-.4-.07-.55-.22s-.22-.34-.22-.57c0-.34.17-.65.5-.91.33-.27.93-.4 1.78-.4.72 0 1.3.16 1.74.47s.74.69.88 1.12c.05.14.07.29.07.46s0 .73.01 1.69v1.03c0 .47.02.8.07.97.05.18.15.27.31.27.15 0 .25-.08.29-.24.05-.16.07-.42.07-.78v-.53h.59v.57c0 .39-.02.62-.04.69-.09.29-.26.53-.52.69-.26.17-.53.26-.81.27-.28 0-.52-.08-.69-.27s-.29-.39-.35-.62v-.06l-.03.04s-.04.06-.07.09-.07.07-.12.13-.11.11-.18.16-.14.11-.22.18-.17.12-.27.16-.21.08-.32.12c-.12.04-.25.07-.38.09s-.29.03-.46.04c-.59 0-1.12-.15-1.59-.46-.47-.3-.71-.73-.71-1.28 0-.21.03-.4.1-.59s.2-.39.4-.6c.2-.22.43-.4.71-.54.28-.15.66-.28 1.15-.41s1.03-.2 1.62-.22h.21v-.32c0-.33-.03-.58-.09-.74-.22-.7-.69-1.05-1.43-1.05-.18 0-.34 0-.5.01-.16 0-.28.03-.37.06s-.13.04-.12.04c.22.15.32.36.32.65 0 .25-.08.44-.24.57l-.25.22z"/><path d="m67.81 223.95h.21c.38 0 .61-.07.69-.21v-.46c0-.14 0-.29.01-.46s0-.36 0-.57v-.62-2.18c-.04-.19-.11-.31-.22-.37s-.33-.1-.66-.13h-.27v-.34c0-.23 0-.34.03-.34h.15c.1-.02.24-.03.41-.04s.35-.02.53-.03c.16 0 .33-.02.52-.03s.33-.02.43-.04.15-.02.16-.01h.04v1.02c.38-.67.86-1 1.43-1h.09c.44 0 .77.11.97.32.21.22.31.44.31.68 0 .21-.06.38-.19.53s-.31.22-.56.22-.43-.08-.55-.24-.18-.32-.19-.5c0-.09 0-.17.03-.24.02-.07.04-.13.07-.18s.04-.07.04-.07c-.02-.02-.13 0-.34.06-.16.08-.28.15-.35.22-.46.44-.69 1.32-.69 2.64v1.56c0 .12 0 .22.01.29v.22.07s.02.04.04.06.04.03.07.04.05.02.07.04.05.03.1.03.08 0 .1.01c.02 0 .06.01.13.01h.13s.07 0 .15.01.13 0 .15 0h.46v.68h-.13c-.18-.03-.8-.04-1.87-.04-1.01 0-1.56.01-1.65.04h-.12v-.68h.24z"/><path d="m78.99 225.73c0-.25-.07-.45-.21-.6-.14-.16-.34-.27-.6-.34s-.51-.11-.72-.13c-.22-.02-.48-.03-.8-.03h-.4c-.66 0-1.05.03-1.18.09-.2.09-.35.23-.46.41-.11.19-.17.38-.18.59 0 .1.03.21.09.34s.16.27.31.44.38.3.71.41c.32.11.72.17 1.18.18.68 0 1.22-.14 1.64-.41.41-.27.62-.59.62-.94zm-1.53-6.16c-.05-.27-.18-.49-.38-.65-.21-.16-.46-.24-.77-.25-.28 0-.53.08-.74.24s-.33.38-.38.66c-.03.17-.04.42-.04.75 0 .43.03.75.1.96s.22.38.44.52c.17.1.38.15.63.15.22 0 .4-.03.56-.1s.27-.16.34-.27.12-.21.16-.29c.04-.09.06-.16.07-.22.03-.16.04-.4.04-.74s-.01-.58-.04-.75zm.44-.97c.43-.43.92-.65 1.47-.65.29 0 .51.09.63.28.13.19.19.37.19.56 0 .14-.04.26-.13.37s-.22.16-.4.16c-.32 0-.51-.15-.55-.44-.02-.14 0-.24.04-.31 0 0 0-.02.01-.04-.28.01-.54.12-.78.31-.08.05-.12.08-.12.1 0 0 .02.03.06.07s.08.1.13.18.1.17.16.27.1.23.13.38c.03.16.05.32.06.49 0 .61-.24 1.12-.72 1.55-.48.42-1.08.64-1.78.65-.49 0-.98-.14-1.46-.41-.11.18-.16.36-.16.56 0 .34.13.6.38.77.09.06.17.09.25.09s.43 0 1.06.03c.83 0 1.36.04 1.59.09.6.09 1.07.29 1.41.6.38.38.57.86.57 1.44 0 .66-.38 1.16-1.15 1.52-.59.3-1.29.46-2.09.46s-1.52-.15-2.11-.46c-.77-.34-1.15-.83-1.15-1.47 0-.35.1-.65.31-.88.21-.24.41-.4.62-.49l.16-.09c-.35-.3-.53-.72-.53-1.24 0-.46.14-.88.43-1.25-.43-.43-.65-.92-.65-1.46 0-.62.25-1.14.74-1.56s1.09-.64 1.78-.65c.5 0 .97.13 1.4.38l.16.1z"/><path d="m85.94 224.24c.48 0 .96-.1 1.44-.31s.84-.42 1.08-.63l.35-.32c-.02-1.4-.05-2.28-.1-2.62-.14-1.13-.59-1.69-1.36-1.69-.68 0-1.27.36-1.78 1.08-.27.39-.48.92-.65 1.59s-.26 1.18-.27 1.53c0 .48.12.83.37 1.05s.55.33.91.34zm-2.56-1.91c0-1.12.42-2.1 1.27-2.95.85-.84 1.77-1.27 2.79-1.27.69 0 1.24.2 1.65.59s.69.87.84 1.44c.06.28.09.61.1.99v.43c.48-.73.85-1.54 1.11-2.45.04-.14.07-.22.09-.24s.1-.03.24-.04c.21 0 .31.04.31.12 0 .09-.04.28-.13.57s-.27.71-.53 1.25c-.27.54-.56 1.03-.9 1.47l-.16.21v.35c.03.55.07.92.13 1.12s.15.3.28.31c.14-.02.27-.07.38-.16.12-.09.2-.2.25-.34.02-.07.04-.11.07-.12.03 0 .1-.02.22-.03.2 0 .29.04.29.12 0 .06-.03.15-.09.28-.12.24-.29.42-.52.56s-.44.21-.65.22h-.1c-.66 0-1.11-.35-1.34-1.06l-.04-.1-.16.12c-.1.08-.25.18-.44.29-.2.12-.42.23-.66.34-.25.11-.53.21-.85.29s-.64.13-.94.13c-.78 0-1.39-.25-1.83-.74s-.66-1.07-.66-1.72z"/><path d="m41.8 239.68c0-.41-.12-.74-.35-.97s-.55-.36-.94-.37c-.48 0-.93.2-1.36.59-.42.39-.77.94-1.05 1.63-.14.33-.28.87-.41 1.61l-.13.66c.18.02.28.03.29.03 1.15 0 2.09-.34 2.83-1.02s1.11-1.4 1.12-2.17zm-7.11 1c0 .33.07.63.21.9s.31.47.53.6c.22.14.43.25.63.34s.38.15.52.19l.22.03h.03s.19-.62.19-.62c.18-.57.34-1.06.49-1.46s.34-.83.57-1.3c.24-.46.47-.83.71-1.12s.53-.52.87-.71.7-.28 1.08-.28c.44 0 .84.16 1.18.47s.52.84.53 1.59c0 .77-.21 1.5-.63 2.21s-1 1.28-1.74 1.72-1.51.66-2.33.66c-.26 0-.38 0-.38.03l-.1.53c-.06.34-.13.72-.21 1.13s-.13.68-.16.8c-.05.24-.18.4-.38.49-.11.06-.23.09-.37.09-.3-.03-.46-.19-.46-.49 0-.1.27-1 .81-2.7l-.07-.03s-.12-.04-.21-.07-.2-.07-.32-.13c-.13-.06-.26-.13-.38-.21-.13-.08-.26-.17-.4-.27s-.27-.22-.38-.37c-.12-.15-.23-.3-.34-.47s-.18-.36-.22-.57c-.04-.22-.07-.45-.09-.71 0-.47.13-1.07.38-1.78.26-.72.61-1.31 1.08-1.77h.19c.21 0 .31.04.31.12 0 .06-.04.13-.12.21-.4.47-.7 1.01-.9 1.61s-.3 1.04-.32 1.33z"/><path d="m47.9 241.52c0-.15.08-.25.24-.29h9.37c.14.1.21.2.21.29 0 .13-.07.23-.22.29h-9.39c-.14-.07-.21-.17-.21-.29zm0-2.86c0-.13.07-.23.21-.29h9.39c.15.08.22.18.22.29s-.07.2-.21.28h-4.69s-4.69.01-4.69.01c-.16-.05-.24-.15-.24-.29z"/><path d="m67.82 238.97c-.23-.78-.59-1.16-1.11-1.16-.34 0-.67.15-.99.46s-.56.7-.74 1.19c-.28.78-.49 1.58-.6 2.42v.16c0 .08 0 .14-.01.18 0 .44.09.75.27.91s.39.26.63.27c.53 0 1.08-.35 1.64-1.06l.12-.16.8-3.2zm.21-5.26s.36-.02 1.06-.07 1.06-.08 1.08-.09c.12 0 .18.04.18.12 0 .07-.36 1.55-1.08 4.45s-1.09 4.37-1.11 4.43-.02.13-.01.22c0 .41.14.62.41.62.09 0 .19-.05.29-.13.21-.2.41-.67.6-1.41.06-.2.11-.3.15-.31.02 0 .07-.01.15-.01h.12c.15 0 .22.04.22.12 0 .05-.01.13-.04.24-.13.49-.28.89-.44 1.19-.17.3-.3.5-.41.59s-.25.17-.41.24c-.08.02-.2.03-.35.03-.33 0-.61-.07-.84-.22s-.37-.3-.44-.46l-.09-.22s-.03 0-.06.01l-.06.06c-.58.55-1.17.82-1.77.82-.54 0-1.02-.2-1.43-.59s-.62-1.02-.62-1.87c0-.47.1-.95.29-1.44s.43-.91.71-1.27c.46-.56.92-.95 1.39-1.16.46-.22.88-.32 1.25-.32.55 0 .96.21 1.24.62.05.06.07.08.07.06 0-.04.14-.57.4-1.61.26-1.03.39-1.58.41-1.64 0-.13-.03-.21-.1-.24s-.26-.05-.57-.07h-.31c-.06-.06-.09-.1-.09-.12s0-.11.03-.28c.05-.19.11-.28.19-.28z"/><path d="m73.37 243.09h.21c.38 0 .61-.07.69-.21v-.94c0-.19 0-.4.01-.63v-.74-.81-.84-3.14c0-.26 0-.47-.01-.65s0-.26 0-.25c-.03-.19-.1-.31-.21-.37s-.33-.1-.66-.13h-.27v-.34c0-.23 0-.34.03-.34h.15c.1-.02.24-.03.43-.04.19 0 .37-.02.55-.03.17 0 .35-.02.55-.03s.34-.02.44-.04.15-.02.16-.01h.04v4.64c0 3.11 0 4.68.01 4.7.04.08.1.13.18.16.21.03.45.04.72.04h.24v.68h-.46c-.23-.02-.47-.03-.72-.03s-.44 0-.56-.01h-.56c-.26 0-.5.02-.74.03h-.34s-.12.01-.12.01v-.68h.24z"/><path d="m77.45 243.09h.21c.38 0 .61-.07.69-.21v-.91c0-.17 0-.36.01-.57s0-.42 0-.62v-.97c0-.34 0-.63-.01-.87v-.34c-.03-.19-.1-.31-.21-.37s-.33-.1-.66-.13h-.27v-.34c0-.23 0-.34.03-.34h.15c.1-.02.24-.03.41-.04.18 0 .36-.02.55-.03.17 0 .34-.02.53-.03.19 0 .33-.02.43-.04s.15-.02.16-.01h.04v.59c0 .37 0 .56.01.56s.03-.02.07-.07.1-.12.18-.22.17-.19.28-.27.25-.17.43-.28.36-.19.56-.24.45-.07.75-.07c1.12.04 1.74.59 1.87 1.66 0 .07.01.75.01 2.05v1.27c0 .37 0 .59.03.66.02.07.07.12.16.15.21.03.45.04.72.04h.24v.68h-.47c-.23-.02-.47-.03-.74-.03s-.45 0-.56-.01c-1.01 0-1.56.01-1.65.04h-.12v-.68h.24c.6 0 .9-.08.9-.24 0-.02.01-.7.01-2.03s-.02-2.03-.03-2.11c-.06-.27-.16-.48-.29-.62-.14-.14-.26-.22-.35-.25-.1-.03-.23-.04-.38-.03-.44 0-.83.17-1.16.5-.27.27-.43.54-.5.81s-.11.68-.12 1.22v1.83c0 .29 0 .49.01.59s.02.16.04.19.06.06.13.09c.21.03.45.04.72.04h.24v.68h-.46c-.24-.02-.49-.03-.75-.03s-.45 0-.56-.01c-1.01 0-1.56.01-1.65.04h-.12v-.68h.24z"/><path d="m87.81 239.54s.02-.07.03-.12c0-.05.03-.16.07-.32.04-.17.09-.32.15-.46s.13-.3.22-.49.19-.33.29-.44c.11-.11.24-.22.38-.32.15-.11.31-.15.49-.13.28 0 .54.06.75.18.22.12.37.23.46.32s.14.2.16.29c.02.06.03.09.04.09s.05-.03.12-.1c.47-.51 1.02-.77 1.64-.77h.04c.47 0 .83.2 1.06.6.08.19.12.37.12.55 0 .29-.06.53-.19.71s-.26.29-.38.34c-.13.05-.25.07-.37.06-.2 0-.35-.05-.47-.16s-.18-.25-.18-.43c0-.47.28-.79.83-.94-.22-.13-.39-.19-.53-.19-.55 0-1.06.36-1.52 1.09-.1.16-.17.32-.22.49s-.22.82-.5 1.96c-.33 1.37-.53 2.11-.57 2.19-.13.27-.34.4-.63.4-.13 0-.23-.03-.31-.09s-.13-.12-.16-.18-.04-.11-.03-.15c0-.13.2-.97.59-2.53s.59-2.43.59-2.61c0-.38-.13-.57-.38-.57-.21 0-.38.14-.53.41s-.27.57-.35.9-.14.5-.16.53c-.02.02-.1.03-.24.03h-.21c-.06-.06-.09-.1-.09-.13z"/><path d="m98.25 240.28v-.19c0-.13.07-.23.21-.29h4.41v-4.42c.11-.13.21-.19.29-.19.13 0 .23.07.29.22v4.39h4.39c.15.08.22.18.22.29s-.07.22-.22.29h-4.39v4.39c-.08.14-.17.21-.27.21h-.06c-.12 0-.21-.07-.27-.21v-4.39h-4.41c-.14-.07-.21-.17-.21-.29v.19z"/><path d="m112.67 241.43c0-1.07.42-2.03 1.27-2.89.85-.85 1.76-1.28 2.74-1.28.55 0 .98.12 1.3.35s.48.54.49.93c0 .28-.09.53-.28.72-.19.2-.42.3-.71.31-.19 0-.33-.05-.44-.15s-.16-.25-.16-.44.05-.36.16-.5.22-.24.32-.31c.11-.07.18-.1.21-.09h.01s-.03-.05-.09-.09-.16-.08-.31-.12-.31-.06-.5-.06c-.29 0-.57.07-.84.21-.21.09-.42.24-.63.46-.43.43-.75 1.04-.94 1.83-.2.79-.3 1.36-.31 1.71 0 .45.13.79.38 1.02.22.24.5.35.85.35h.06c1.1 0 2.01-.42 2.73-1.25.09-.1.15-.15.18-.15.04 0 .1.04.19.13s.14.16.15.21c0 .05-.03.12-.13.22s-.24.24-.43.41c-.19.18-.41.32-.66.44s-.57.24-.94.37-.77.18-1.18.16c-.74 0-1.33-.24-1.78-.71s-.68-1.07-.69-1.8z"/><path d="m120.21 241.83c0 1.04.26 1.56.78 1.56.15 0 .3-.05.47-.15s.37-.28.6-.56c.24-.27.47-.7.71-1.28s.47-1.3.71-2.15l.07-.25h-2.87s-.04.22-.13.56-.17.73-.24 1.15-.1.8-.1 1.12zm3.98-6.4c0-1-.26-1.5-.78-1.5-.35 0-.7.22-1.03.66s-.61.94-.83 1.5-.38 1.05-.5 1.47-.18.67-.19.74c.48 0 .96.01 1.43.01h1.43s.05-.19.12-.5.15-.71.24-1.18.13-.87.12-1.21zm-5.13 5.4c0-1 .19-2.06.57-3.17s.9-2.07 1.56-2.87c.66-.81 1.34-1.27 2.05-1.38h.12c.07 0 .13 0 .18-.01.53.04.94.28 1.24.72.38.59.57 1.38.57 2.37 0 1.13-.22 2.28-.66 3.45s-1.01 2.13-1.69 2.87c-.69.75-1.35 1.12-1.97 1.12h-.1c-.35 0-.66-.1-.91-.29s-.45-.46-.57-.78c-.13-.32-.22-.65-.28-.99s-.09-.68-.09-1.03z"/><path class="cls-1" d="m13.91 268.45c.08 0 .14-.01.18-.04s.09-.1.15-.23c.04-.09.08-.16.12-.23.03-.07.08-.17.14-.29.06-.13.14-.31.24-.55s.23-.56.4-.96.38-.9.64-1.52c.26-.61.58-1.36.96-2.26l.23.07c-.11.33-.24.71-.38 1.13s-.29.85-.44 1.3-.3.86-.43 1.26-.25.75-.36 1.05c-.1.3-.17.51-.21.64-.06.2-.11.4-.14.6s-.05.38-.05.55c0 .14.02.28.06.44.04.15.08.32.13.49.05.18.09.37.12.58s.04.45.02.72c0 .28-.07.5-.2.66-.12.16-.29.24-.51.24-.13 0-.23-.06-.3-.17s-.11-.27-.13-.48c.06-.44.09-.84.1-1.2s-.02-.65-.07-.88-.12-.38-.21-.45c-.08-.06-.17-.1-.27-.13s-.22-.04-.37-.05v-.27h.57zm-.74-5.22c.47.05.85.14 1.14.27s.51.27.66.43.24.31.27.46.03.28-.03.4c-.05.11-.14.18-.26.21s-.26 0-.42-.07c-.08-.19-.2-.38-.35-.58s-.33-.38-.53-.55-.4-.32-.6-.44l.12-.13zm.92-2.81c.48.06.87.16 1.17.31s.53.3.68.47.25.34.28.5.02.3-.04.42-.15.19-.28.23-.27.02-.42-.07c-.07-.21-.19-.42-.35-.64s-.35-.42-.55-.61-.41-.35-.61-.48l.12-.12zm6.03 2.63h.86v8.4h-.86v-8.4zm-1.35-2.88c.53.13.96.29 1.29.49s.58.4.74.62.26.42.3.61c.03.19.02.35-.05.49s-.17.22-.31.25-.3 0-.47-.1c-.05-.26-.17-.53-.35-.81s-.38-.55-.61-.8-.46-.46-.68-.64l.13-.1zm-2.67 11.07h7.27l.61-.78s.04.03.12.09.18.14.29.23.24.2.37.31.25.22.35.33c-.02.13-.13.2-.34.2h-8.57l-.1-.38zm.78-4.48h6.03l.59-.77s.04.03.12.09.17.14.29.23c.11.09.23.19.36.3s.24.21.34.32c-.03.13-.14.2-.34.2h-7.28l-.1-.36zm-.03-3.78h6.34l.63-.78s.04.03.11.09.17.14.29.24.24.2.37.31.25.21.35.32c-.03.14-.14.21-.35.21h-7.63l-.1-.39z"/><path class="cls-1" d="m26.71 270.18c0-.24.08-.44.25-.62s.38-.27.63-.27c.24 0 .44.08.62.24s.27.37.28.63c0 .25-.08.46-.25.63-.17.18-.38.27-.63.27s-.47-.08-.63-.25c-.17-.17-.26-.38-.27-.63zm0-4.56c0-.24.08-.44.25-.62s.38-.27.63-.27c.24 0 .44.08.62.24s.27.37.28.63c0 .25-.08.46-.25.63-.17.18-.38.27-.63.27s-.47-.08-.63-.25c-.17-.17-.26-.38-.27-.63z"/><path class="cls-1" d="m36.4 270.68c.48 0 .96-.1 1.44-.31s.84-.42 1.08-.63l.35-.32c-.02-1.4-.05-2.28-.1-2.62-.14-1.13-.59-1.69-1.36-1.69-.68 0-1.27.36-1.78 1.08-.27.39-.48.92-.65 1.59s-.26 1.18-.27 1.53c0 .48.12.83.37 1.05s.55.33.91.34zm-2.56-1.91c0-1.12.42-2.1 1.27-2.95.85-.84 1.77-1.27 2.79-1.27.69 0 1.24.2 1.65.59s.69.87.84 1.44c.06.28.09.61.1.99v.43c.48-.73.85-1.54 1.11-2.45.04-.14.07-.22.09-.24s.1-.03.24-.04c.21 0 .31.04.31.12 0 .09-.04.28-.13.57s-.27.71-.53 1.25c-.27.54-.56 1.03-.9 1.47l-.16.21v.35c.03.55.07.92.13 1.12s.15.3.28.31c.14-.02.27-.07.38-.16.12-.09.2-.2.25-.34.02-.07.04-.11.07-.12.03 0 .1-.02.22-.03.2 0 .29.04.29.12 0 .06-.03.15-.09.28-.12.24-.29.42-.52.56s-.44.21-.65.22h-.1c-.66 0-1.11-.35-1.34-1.06l-.04-.1-.16.12c-.1.08-.25.18-.44.29-.2.12-.42.23-.66.34-.25.11-.53.21-.85.29s-.64.13-.94.13c-.78 0-1.39-.25-1.83-.74s-.66-1.07-.66-1.72z"/><path class="cls-1" d="m43.38 267.23c-.1 0-.18-.03-.25-.08-.07-.06-.11-.13-.11-.23 0-.07.25-1.12.76-3.14.51-2.03.77-3.06.8-3.1.09-.19.25-.29.48-.29.08 0 .15.03.21.07s.09.08.1.12.02.08.02.1c0 .08-.11.55-.32 1.4-.22.85-.33 1.32-.34 1.43-.01.08-.02.2-.02.36v.08c0 .51.23.76.7.76.06 0 .13 0 .19-.01.06 0 .12-.02.18-.04s.11-.05.16-.07c.05-.03.09-.05.14-.07.04-.02.08-.06.13-.1.04-.05.08-.08.11-.1s.07-.06.1-.12.06-.1.08-.11.05-.06.09-.12l.07-.1.38-1.49c.25-.99.39-1.51.42-1.57.09-.19.24-.28.45-.28.09 0 .16.02.22.07s.09.09.11.12.03.07.02.1l-.79 3.31s-.01.09-.01.17c0 .17.02.29.07.34.05.06.12.09.22.09.06 0 .13-.04.21-.09.15-.14.29-.47.43-1 .04-.14.08-.21.1-.22.01 0 .05-.01.1-.01h.04c.13 0 .2.03.2.09 0 .04-.02.14-.05.28s-.1.33-.21.56c-.1.23-.22.4-.33.52-.09.09-.2.16-.33.22-.06.01-.14.02-.25.02-.15 0-.28-.02-.4-.06s-.21-.09-.28-.16c-.07-.06-.13-.12-.18-.19-.05-.06-.08-.11-.09-.16-.01-.04-.02-.07-.02-.07l-.06.06s-.1.09-.19.16c-.08.06-.17.12-.27.19-.1.06-.22.12-.38.17-.15.05-.3.07-.44.07-.33 0-.65-.08-.97-.24l-.25 1.01c-.15.57-.23.9-.26.99s-.07.17-.13.23c-.11.1-.23.15-.35.15z"/><path class="cls-1" d="m54.71 268.81c0-.15.08-.25.24-.29h9.37c.14.1.21.2.21.29 0 .13-.07.23-.22.29h-9.39c-.14-.07-.21-.17-.21-.29zm0-2.85c0-.13.07-.23.21-.29h9.39c.15.08.22.18.22.29s-.07.2-.21.28h-4.69s-4.69.01-4.69.01c-.16-.05-.24-.15-.24-.29z"/><path class="cls-1" d="m72.51 270.68c.48 0 .96-.1 1.44-.31s.84-.42 1.08-.63l.35-.32c-.02-1.4-.05-2.28-.1-2.62-.14-1.13-.59-1.69-1.36-1.69-.68 0-1.27.36-1.78 1.08-.27.39-.48.92-.65 1.59s-.26 1.18-.27 1.53c0 .48.12.83.37 1.05s.55.33.91.34zm-2.56-1.91c0-1.12.42-2.1 1.27-2.95.85-.84 1.77-1.27 2.79-1.27.69 0 1.24.2 1.65.59s.69.87.84 1.44c.06.28.09.61.1.99v.43c.48-.73.85-1.54 1.11-2.45.04-.14.07-.22.09-.24s.1-.03.24-.04c.21 0 .31.04.31.12 0 .09-.04.28-.13.57s-.27.71-.53 1.25c-.27.54-.56 1.03-.9 1.47l-.16.21v.35c.03.55.07.92.13 1.12s.15.3.28.31c.14-.02.27-.07.38-.16.12-.09.2-.2.25-.34.02-.07.04-.11.07-.12.03 0 .1-.02.22-.03.2 0 .29.04.29.12 0 .06-.03.15-.09.28-.12.24-.29.42-.52.56s-.44.21-.65.22h-.1c-.66 0-1.11-.35-1.34-1.06l-.04-.1-.16.12c-.1.08-.25.18-.44.29-.2.12-.42.23-.66.34-.25.11-.53.21-.85.29s-.64.13-.94.13c-.78 0-1.39-.25-1.83-.74s-.66-1.07-.66-1.72z"/><path class="cls-1" d="m80.53 262.82 2.02-1.97.12.12c1.28 1.22 1.92 1.84 1.92 1.86l-.38.43s-.3-.26-.85-.74l-.78-.68-.81.69c-.13.11-.26.22-.38.34-.13.12-.23.21-.31.28l-.12.09s-.09-.05-.22-.21l-.19-.21z"/><path class="cls-1" d="m87.1 274.25c-.14 0-.26-.04-.35-.12-.1-.08-.15-.19-.16-.32 0-.1.36-1.58 1.08-4.45s1.1-4.33 1.13-4.39c.13-.27.35-.41.68-.41.12 0 .22.04.29.1.08.06.13.12.15.18s.03.11.03.15c0 .12-.15.78-.46 1.97-.3 1.2-.47 1.87-.49 2.02-.02.11-.03.28-.03.52v.12c0 .72.33 1.08.99 1.08.09 0 .18 0 .27-.01.09 0 .17-.03.25-.06s.15-.06.22-.1.13-.07.19-.1.12-.08.18-.15.11-.12.16-.15.1-.09.15-.18.09-.14.12-.16.07-.08.13-.18l.1-.15.53-2.11c.35-1.39.55-2.14.59-2.22.13-.27.34-.4.63-.4.13 0 .23.03.31.1s.13.13.16.18.04.1.03.15l-1.12 4.68s-.01.13-.01.24c0 .25.03.41.1.49s.17.12.31.13c.09 0 .19-.05.29-.13.21-.2.41-.67.6-1.41.06-.2.11-.3.15-.31.02 0 .07-.01.15-.01h.06c.19 0 .28.04.28.13 0 .06-.02.19-.07.4s-.15.47-.29.8-.3.57-.47.74c-.13.13-.28.23-.47.31-.08.02-.2.03-.35.03-.21 0-.39-.03-.56-.09s-.3-.13-.4-.22-.18-.18-.25-.27-.11-.16-.13-.22-.03-.09-.03-.1l-.09.09c-.06.06-.15.13-.27.22s-.25.18-.38.27-.31.17-.53.24-.42.1-.62.1c-.46 0-.92-.11-1.37-.34l-.35 1.43c-.21.81-.33 1.27-.37 1.4s-.1.24-.18.32c-.16.14-.32.21-.5.21z"/></g></g></svg>
