<svg viewBox="0 0 133.75 58.06" xmlns="http://www.w3.org/2000/svg"><g id="a"><g><g><path id="b" d="m3.56 28.13c0-.36-.12-.67-.37-.94s-.6-.39-1.06-.39c-.33 0-.61.06-.84.18-.27.17-.41.41-.41.71v.18s.08.18.22.33.33.26.58.34c.16.05.36.09.6.12s.43.08.6.12.31.1.43.18c.15.07.3.16.45.27s.29.29.43.56.22.54.23.84c0 .56-.17 1.02-.52 1.38-.34.36-.9.55-1.67.56h-.11c-.47 0-.9-.16-1.3-.49l-.11.1-.12.12c-.05.05-.11.1-.16.15l-.15.14h-.16s-.07-.03-.12-.08v-1.86c0-.19 0-.3.03-.34s.06-.06.14-.07h.12c.11 0 .18.02.22.05s.06.09.07.16.04.19.1.37c.05.17.14.36.26.57.32.46.76.69 1.32.69.88 0 1.32-.35 1.32-1.06 0-.26-.08-.48-.24-.64-.18-.22-.56-.38-1.13-.49s-.95-.21-1.13-.31c-.33-.15-.58-.36-.77-.62s-.29-.54-.29-.84c0-.35.08-.65.23-.9s.35-.43.58-.54.46-.2.68-.24.42-.07.6-.07h.15c.36 0 .68.07.95.2l.2.11.12-.1c.09-.08.19-.16.3-.23h.16s.07.03.12.08v1.79l-.08.08h-.38c-.05-.05-.08-.11-.08-.16z"/><path id="c" d="m9.37 26.87c.4-.4.85-.6 1.36-.6.27 0 .47.09.58.26s.18.34.18.52c0 .13-.04.24-.12.34s-.2.15-.37.15c-.3 0-.47-.14-.5-.41-.02-.13 0-.22.04-.29 0 0 0-.02.01-.04-.25.01-.49.11-.72.29-.07.05-.11.08-.11.1 0 0 .02.03.05.07s.08.09.12.16.1.15.15.24.1.21.12.35.05.29.05.45c0 .56-.22 1.04-.67 1.43s-.99.59-1.64.6c-.45 0-.9-.13-1.34-.38-.1.16-.15.33-.15.52 0 .32.12.55.35.71.08.05.16.08.23.08s.4 0 .98.03c.76 0 1.25.04 1.47.08.55.08.99.27 1.3.56.35.35.53.8.53 1.33 0 .61-.35 1.07-1.06 1.4-.54.28-1.19.42-1.93.42s-1.4-.14-1.94-.42c-.71-.32-1.06-.77-1.06-1.36 0-.33.1-.6.29-.81s.38-.37.57-.45l.15-.08c-.33-.28-.49-.66-.49-1.14 0-.43.13-.81.39-1.15-.4-.4-.6-.85-.6-1.34 0-.57.23-1.05.68-1.44s1-.59 1.64-.6c.46 0 .89.12 1.29.35l.15.1zm-.41.9c-.05-.25-.16-.45-.35-.6s-.43-.22-.71-.23c-.26 0-.49.07-.68.22s-.31.35-.35.61c-.03.15-.04.38-.04.69 0 .4.03.69.1.88s.2.35.41.48c.15.09.35.14.58.14.2 0 .37-.03.52-.1.14-.06.25-.14.31-.24s.11-.19.15-.27.06-.15.07-.2c.03-.14.04-.37.04-.68s-.01-.54-.04-.69zm1.41 5.67c0-.23-.06-.41-.19-.56-.13-.14-.31-.25-.56-.31-.24-.06-.47-.1-.67-.12s-.44-.03-.73-.03h-.37c-.61 0-.97.03-1.09.08-.18.08-.32.21-.42.38s-.15.35-.16.54c0 .09.03.19.08.31s.15.25.29.41c.14.15.35.28.65.38s.66.15 1.09.16c.62 0 1.13-.13 1.51-.38s.57-.54.57-.87z"/><path id="d" d="m12.24 31.8h.19c.35 0 .57-.06.64-.19v-.84c0-.15 0-.33.01-.53s0-.39 0-.57v-.9c0-.32 0-.58-.01-.8v-.31c-.03-.17-.09-.29-.19-.34s-.3-.1-.61-.12h-.24v-.31c0-.21 0-.31.03-.31h.14c.09-.02.22-.03.38-.04s.33-.02.5-.03c.15 0 .32-.02.49-.03.17 0 .3-.02.39-.04s.14-.02.15-.01h.04v.54c0 .34 0 .52.01.52s.03-.02.07-.07.09-.11.16-.2.16-.17.26-.24.23-.16.39-.26.33-.17.52-.22.41-.07.69-.07c1.03.04 1.61.55 1.72 1.53 0 .06.01.69.01 1.89v1.17c0 .34 0 .55.03.61s.07.11.15.14c.19.03.41.04.67.04h.22v.62h-.43c-.21-.02-.43-.03-.68-.03s-.42 0-.52-.01c-.93 0-1.44.01-1.52.04h-.11v-.62h.22c.55 0 .83-.07.83-.22 0-.02.01-.64.01-1.87 0-1.22-.02-1.87-.03-1.94-.05-.25-.14-.44-.27-.57s-.24-.2-.33-.23-.21-.04-.35-.03c-.41 0-.76.15-1.07.46-.24.24-.4.49-.46.75s-.1.63-.11 1.13v1.68c0 .27 0 .45.01.54 0 .09.02.15.04.18s.06.05.12.08c.19.03.41.04.67.04h.22v.62h-.42c-.22-.02-.45-.03-.69-.03s-.42 0-.52-.01c-.93 0-1.44.01-1.52.04h-.11v-.62h.22z"/></g><path id="e" d="m23.33 28.5c.06-.38.31-.82.73-1.32.43-.5.95-.75 1.57-.76.32 0 .61.08.87.24s.46.37.58.61c.38-.57.84-.86 1.37-.86.33 0 .62.1.87.3s.37.47.38.8c0 .26-.06.48-.19.64s-.25.26-.37.3-.22.05-.31.05c-.17 0-.31-.05-.42-.15s-.16-.23-.16-.39c0-.42.23-.7.68-.86-.1-.12-.28-.18-.54-.18-.12 0-.2 0-.26.03-.34.14-.6.44-.76.9-.54 2-.81 3.17-.81 3.5 0 .25.07.43.22.54s.3.16.48.16c.33 0 .67-.15.99-.45s.55-.67.67-1.1c.03-.09.05-.14.08-.15s.1-.02.22-.03h.05c.14 0 .2.04.2.11 0 0 0 .06-.03.15-.14.52-.43.97-.84 1.37-.42.4-.9.6-1.45.6-.63 0-1.11-.29-1.44-.86-.37.56-.8.84-1.28.84h-.08c-.44 0-.76-.12-.95-.35-.19-.24-.29-.48-.3-.75 0-.29.09-.52.26-.71.17-.18.38-.27.61-.27.39 0 .58.19.58.57 0 .18-.05.34-.16.48s-.21.23-.31.27-.16.07-.18.07h-.04s.03.04.08.07.13.06.22.1.18.05.26.04c.33 0 .61-.2.84-.61.08-.14.19-.45.31-.92.13-.47.25-.96.38-1.47s.2-.81.22-.9c.05-.24.07-.42.07-.53 0-.25-.07-.43-.2-.54s-.29-.16-.46-.16c-.36 0-.7.14-1.02.43s-.54.66-.67 1.11c-.02.08-.04.13-.07.14s-.1.02-.22.03h-.19c-.05-.05-.08-.1-.08-.15z"/><path id="f" d="m34.92 27.71c0-.12.06-.21.19-.27h8.65c.14.07.2.16.2.27 0 .1-.06.19-.19.26h-4.32s-4.32.01-4.32.01c-.14-.05-.22-.14-.22-.27zm0 2.63c0-.14.07-.23.22-.27h8.63c.13.09.19.18.19.27 0 .12-.07.21-.2.27h-8.65c-.13-.06-.19-.15-.19-.27z"/><g><g><path id="g" d="m58.16 0 .08.08v.38c0 .1-.06.19-.19.26-.7.48-1.27 1.09-1.72 1.85s-.76 1.59-.91 2.51c0 0 0 .03-.01.05-.04.25-.06 1.03-.07 2.33v1.48c0 2.19 0 3.29-.01 3.31 0 .04-.05.06-.12.07s-.3.01-.68.01c-.47 0-.71 0-.73-.01-.03 0-.05-.03-.05-.05-.02-.09-.03-1.15-.03-3.19v-1.11c0-.45 0-.77-.01-.95 0-.9.04-1.59.12-2.08s.27-1.04.57-1.64c.69-1.36 1.73-2.43 3.12-3.2l.18-.1h.48z"/><path id="h" d="m58.24 57.97-.08.08h-.48l-.15-.08c-1.12-.62-2.02-1.43-2.69-2.43s-1.05-2.08-1.13-3.23c0-.09-.01-.97-.01-2.63 0-2.58 0-3.88.01-3.9l.05-.05s.28-.01.75-.01c.38 0 .61 0 .68.01s.11.03.12.07c0 .02.01 1.12.01 3.3v1.72c0 .94.02 1.61.05 2 .04.39.14.82.3 1.3.14.43.32.84.53 1.21s.43.68.65.94.43.46.6.61.34.29.52.42.25.19.24.18 0 .08.01.27v.23z"/><path id="i" d="m53.77 16.69s.32-.01.9-.01c.37 0 .57 0 .58.01.03 0 .05.03.05.05.02.09.03 1.14.03 3.14 0 2.11 0 3.2-.01 3.28-.08 1.2-.43 2.3-1.06 3.3-.62 1-1.45 1.81-2.47 2.44l-.19.12.19.12c.96.6 1.76 1.39 2.42 2.38.65.99 1.02 2.11 1.11 3.37 0 .08.01 1.18.01 3.28v2.78c0 .26-.02.4-.07.41h-.01s-.26.01-.73.01-.71 0-.73-.01c-.03 0-.05-.03-.05-.05-.02-.09-.03-1.13-.03-3.12v-1.94c0-.96-.03-1.71-.1-2.25s-.22-1.11-.48-1.71c-.15-.4-.34-.77-.56-1.11s-.43-.63-.62-.86c-.2-.23-.38-.41-.56-.56s-.31-.26-.42-.35-.16-.14-.16-.14-.01-.09-.01-.24 0-.24.01-.24c0 0 .09-.08.27-.22s.4-.35.67-.64c.26-.29.53-.63.81-1.03s.52-.93.73-1.59.34-1.36.39-2.1c0-.11.01-1.22.01-3.34s0-3.09.01-3.12l.05-.05z"/><path id="j" d="m53.71 14.07v-4.02c0-.88.02-1.38.07-1.49.02-.02.32-.03.9-.03.37 0 .57.01.58.03.04.02.06.15.07.38 0 .35.01 2.06.01 5.13v4.79c0 .46-.02.71-.07.73h-.01s-.26.03-.73.03-.71-.01-.73-.03c-.04-.02-.06-.15-.07-.38 0-.35-.01-2.06-.01-5.13z"/><path id="k" d="m53.71 43.12v-4.02c0-.88.02-1.38.07-1.49.02-.02.32-.03.9-.03.37 0 .57.01.58.03.04.02.06.15.07.38 0 .35.01 2.06.01 5.13v4.79c0 .46-.02.71-.07.73h-.01s-.26.03-.73.03-.71-.01-.73-.03c-.04-.02-.06-.15-.07-.38 0-.35-.01-2.06-.01-5.13z"/></g><g><g><path id="l" d="m61.86 2.24c.51-.73 1.2-1.1 2.08-1.1.43 0 .87.12 1.3.35s.79.65 1.06 1.25c.33.75.5 1.78.5 3.09 0 1.4-.19 2.47-.58 3.22-.18.38-.43.68-.75.91s-.59.37-.83.42-.47.09-.69.1c-.24 0-.47-.03-.71-.08s-.51-.2-.83-.43c-.32-.24-.57-.54-.75-.91-.39-.74-.58-1.81-.58-3.22 0-1.57.26-2.77.77-3.6zm3.06-.16c-.27-.29-.59-.43-.96-.43s-.71.14-.98.43c-.23.24-.38.56-.45.98s-.11 1.29-.11 2.61c0 1.43.04 2.37.11 2.82s.24.81.49 1.07c.25.27.57.41.94.41s.67-.14.92-.41c.26-.27.43-.65.49-1.14s.1-1.41.11-2.76c0-1.31-.04-2.18-.11-2.59-.07-.42-.22-.75-.45-.99z"/><g><path id="m" d="m96.13 6.26c.06-.38.31-.82.73-1.32.43-.5.95-.75 1.57-.76.32 0 .61.08.87.24s.46.37.58.61c.38-.57.84-.86 1.37-.86.33 0 .62.1.87.3s.37.47.38.8c0 .26-.06.48-.19.64s-.25.26-.37.3-.22.05-.31.05c-.17 0-.31-.05-.42-.15s-.16-.23-.16-.39c0-.42.23-.7.68-.86-.1-.12-.28-.18-.54-.18-.12 0-.2 0-.26.03-.34.14-.6.44-.76.9-.54 2-.81 3.17-.81 3.5 0 .25.07.43.22.54s.3.16.48.16c.33 0 .67-.15.99-.45s.55-.67.67-1.1c.03-.09.05-.14.08-.15s.1-.02.22-.03h.05c.14 0 .2.04.2.11 0 0 0 .06-.03.15-.14.52-.43.97-.84 1.37-.42.4-.9.6-1.45.6-.63 0-1.11-.29-1.44-.86-.37.56-.8.84-1.28.84h-.08c-.44 0-.76-.12-.95-.35-.19-.24-.29-.48-.3-.75 0-.29.09-.52.26-.71.17-.18.38-.27.61-.27.39 0 .58.19.58.57 0 .18-.05.34-.16.48s-.21.23-.31.27-.16.07-.18.07h-.04s.03.04.08.07.13.06.22.1.18.05.26.04c.33 0 .61-.2.84-.61.08-.14.19-.45.31-.92.13-.47.25-.96.38-1.47s.2-.81.22-.9c.05-.24.07-.42.07-.53 0-.25-.07-.43-.2-.54s-.29-.16-.46-.16c-.36 0-.7.14-1.02.43s-.54.66-.67 1.11c-.02.08-.04.13-.07.14s-.1.02-.22.03h-.19c-.05-.05-.08-.1-.08-.15z"/><path id="n" d="m107.72 5.47c0-.12.06-.21.19-.27h8.65c.14.07.2.16.2.27 0 .1-.06.19-.19.26h-4.32s-4.32.01-4.32.01c-.14-.05-.22-.14-.22-.27zm0 2.63c0-.14.07-.23.22-.27h8.63c.13.09.19.18.19.27 0 .12-.07.21-.2.27h-8.65c-.13-.06-.19-.15-.19-.27z"/><path id="o" d="m122.59 2.24c.51-.73 1.2-1.1 2.08-1.1.43 0 .87.12 1.3.35s.79.65 1.06 1.25c.33.75.5 1.78.5 3.09 0 1.4-.19 2.47-.58 3.22-.18.38-.43.68-.75.91s-.59.37-.83.42-.47.09-.69.1c-.24 0-.47-.03-.71-.08s-.51-.2-.83-.43c-.32-.24-.57-.54-.75-.91-.39-.74-.58-1.81-.58-3.22 0-1.57.26-2.77.77-3.6zm3.05-.16c-.27-.29-.59-.43-.96-.43s-.71.14-.98.43c-.23.24-.38.56-.45.98s-.11 1.29-.11 2.61c0 1.43.04 2.37.11 2.82s.24.81.49 1.07c.25.27.57.41.94.41s.67-.14.92-.41c.26-.27.43-.65.49-1.14s.1-1.41.11-2.76c0-1.31-.04-2.18-.11-2.59-.07-.42-.22-.75-.45-.99z"/></g></g><g><g><path id="p" d="m68.03 31.94c.06-.38.31-.82.73-1.32.43-.5.95-.75 1.57-.76.32 0 .61.08.87.24s.46.37.58.61c.38-.57.84-.86 1.37-.86.33 0 .62.1.87.3s.37.47.38.8c0 .26-.06.48-.19.64s-.25.26-.37.3-.22.05-.31.05c-.17 0-.31-.05-.42-.15s-.16-.23-.16-.39c0-.42.23-.7.68-.86-.1-.12-.28-.18-.54-.18-.12 0-.2 0-.26.03-.34.14-.6.44-.76.9-.54 2-.81 3.17-.81 3.5 0 .25.07.43.22.54s.3.16.48.16c.33 0 .67-.15.99-.45s.55-.67.67-1.1c.03-.09.05-.14.08-.15s.1-.02.22-.03h.05c.14 0 .2.04.2.11 0 0 0 .06-.03.15-.14.52-.43.97-.84 1.37-.42.4-.9.6-1.45.6-.63 0-1.11-.29-1.44-.86-.37.56-.8.84-1.28.84h-.08c-.44 0-.76-.12-.95-.35-.19-.24-.29-.48-.3-.75 0-.29.09-.52.26-.71.17-.18.38-.27.61-.27.39 0 .58.19.58.57 0 .18-.05.34-.16.48s-.21.23-.31.27-.16.07-.18.07h-.04s.03.04.08.07.13.06.22.1.18.05.26.04c.33 0 .61-.2.84-.61.08-.14.19-.45.31-.92.13-.47.25-.96.38-1.47s.2-.81.22-.9c.05-.24.07-.42.07-.53 0-.25-.07-.43-.2-.54s-.29-.16-.46-.16c-.36 0-.7.14-1.02.43s-.54.66-.67 1.11c-.02.08-.04.13-.07.14s-.1.02-.22.03h-.19c-.05-.05-.08-.1-.08-.15z"/><g><path id="q" d="m65.43 58.05h-.03c-.11 0-.19-.06-.24-.19v-13.19c.1-.12.19-.18.27-.18.12 0 .21.07.27.2v13.17c-.07.13-.15.19-.24.19h-.03z"/><path id="r" d="m68.03 50.75c.06-.38.31-.82.73-1.32.43-.5.95-.75 1.57-.76.32 0 .61.08.87.24s.46.37.58.61c.38-.57.84-.86 1.37-.86.33 0 .62.1.87.3s.37.47.38.8c0 .26-.06.48-.19.64s-.25.26-.37.3-.22.05-.31.05c-.17 0-.31-.05-.42-.15s-.16-.23-.16-.39c0-.42.23-.7.68-.86-.1-.12-.28-.18-.54-.18-.12 0-.2 0-.26.03-.34.14-.6.44-.76.9-.54 2-.81 3.17-.81 3.5 0 .25.07.43.22.54s.3.16.48.16c.33 0 .67-.15.99-.45s.55-.67.67-1.1c.03-.09.05-.14.08-.15s.1-.02.22-.03h.05c.14 0 .2.04.2.11 0 0 0 .06-.03.15-.14.52-.43.97-.84 1.37-.42.4-.9.6-1.45.6-.63 0-1.11-.29-1.44-.86-.37.56-.8.84-1.28.84h-.08c-.44 0-.76-.12-.95-.35-.19-.24-.29-.48-.3-.75 0-.29.09-.52.26-.71.17-.18.38-.27.61-.27.39 0 .58.19.58.57 0 .18-.05.34-.16.48s-.21.23-.31.27-.16.07-.18.07h-.04s.03.04.08.07.13.06.22.1.18.05.26.04c.33 0 .61-.2.84-.61.08-.14.19-.45.31-.92.13-.47.25-.96.38-1.47s.2-.81.22-.9c.05-.24.07-.42.07-.53 0-.25-.07-.43-.2-.54s-.29-.16-.46-.16c-.36 0-.7.14-1.02.43s-.54.66-.67 1.11c-.02.08-.04.13-.07.14s-.1.02-.22.03h-.19c-.05-.05-.08-.1-.08-.15z"/><path id="s" d="m76.97 58.05h-.03c-.11 0-.19-.06-.24-.19v-13.19c.1-.12.19-.18.27-.18.12 0 .21.07.27.2v13.17c-.07.13-.15.19-.24.19h-.03z"/></g><rect x="62.19" y="41.24" width="18.03" height=".81"/></g><g><path id="t" d="m96.13 41.12c.06-.38.31-.82.73-1.32.43-.5.95-.75 1.57-.76.32 0 .61.08.87.24s.46.37.58.61c.38-.57.84-.86 1.37-.86.33 0 .62.1.87.3s.37.47.38.8c0 .26-.06.48-.19.64s-.25.26-.37.3-.22.05-.31.05c-.17 0-.31-.05-.42-.15s-.16-.23-.16-.39c0-.42.23-.7.68-.86-.1-.12-.28-.18-.54-.18-.12 0-.2 0-.26.03-.34.14-.6.44-.76.9-.54 2-.81 3.17-.81 3.5 0 .25.07.43.22.54s.3.16.48.16c.33 0 .67-.15.99-.45s.55-.67.67-1.1c.03-.09.05-.14.08-.15s.1-.02.22-.03h.05c.14 0 .2.04.2.11 0 0 0 .06-.03.15-.14.52-.43.97-.84 1.37-.42.4-.9.6-1.45.6-.63 0-1.11-.29-1.44-.86-.37.56-.8.84-1.28.84h-.08c-.44 0-.76-.12-.95-.35-.19-.24-.29-.48-.3-.75 0-.29.09-.52.26-.71.17-.18.38-.27.61-.27.39 0 .58.19.58.57 0 .18-.05.34-.16.48s-.21.23-.31.27-.16.07-.18.07h-.04s.03.04.08.07.13.06.22.1.18.05.26.04c.33 0 .61-.2.84-.61.08-.14.19-.45.31-.92.13-.47.25-.96.38-1.47s.2-.81.22-.9c.05-.24.07-.42.07-.53 0-.25-.07-.43-.2-.54s-.29-.16-.46-.16c-.36 0-.7.14-1.02.43s-.54.66-.67 1.11c-.02.08-.04.13-.07.14s-.1.02-.22.03h-.19c-.05-.05-.08-.1-.08-.15z"/><path id="u" d="m108.1 41.64c0-1.1.37-2.01 1.11-2.71.74-.71 1.62-1.11 2.63-1.21h.23c.14 0 .33 0 .57-.01s.46 0 .68 0h1.34c.14.07.2.16.2.27 0 .08-.06.17-.18.26h-1.41c-1 .02-1.62.05-1.86.1-.44.11-.84.27-1.18.49s-.61.44-.8.67-.35.48-.49.75-.22.49-.24.65-.05.32-.07.46v.03h6.03c.14.07.2.16.2.27s-.07.2-.2.27h-6.03v.03c0 .19.05.42.14.69s.24.57.45.88c.21.32.5.61.87.87s.81.45 1.32.56c.24.05.87.09 1.87.1h1.41c.12.09.18.18.18.27 0 .11-.07.2-.2.27h-1.66c-.16 0-.29 0-.39.01-1.4 0-2.51-.39-3.33-1.17-.8-.74-1.19-1.67-1.19-2.78z"/><g><path id="v" d="m129.06 43.26c0 .05-.05.15-.16.3s-.29.32-.53.52-.52.39-.81.57c-.3.18-.68.33-1.14.46s-.93.19-1.4.19c-.51 0-1-.07-1.49-.22-.49-.14-.95-.37-1.38-.67s-.81-.7-1.13-1.19c-.32-.5-.53-1.07-.64-1.72-.05-.2-.07-.56-.07-1.09s.02-.89.07-1.09c.2-1.06.65-1.92 1.34-2.58.7-.66 1.59-1.06 2.69-1.19.03 0 .13 0 .31-.01s.32-.01.42-.01c.49.03.98.14 1.47.33s.86.29 1.11.3c.16 0 .28-.03.35-.1s.11-.14.12-.22.03-.15.07-.22.1-.1.19-.11c.1 0 .18.05.24.16v2.84l-.05.1c-.12.06-.23.07-.34.03-.04-.04-.08-.14-.14-.33s-.16-.38-.31-.61c-.3-.42-.7-.8-1.19-1.14-.5-.34-1.03-.52-1.59-.52h-.12c-.4 0-.77.17-1.11.52-.79.71-1.18 2.01-1.18 3.92 0 .79.1 1.5.29 2.13.37 1.35 1.15 2.02 2.33 2.02s2.23-.45 3.2-1.36c.15-.15.27-.23.34-.23.05 0 .1.02.15.05s.09.09.1.16zm-5.89-6.71c.13-.16.18-.24.15-.24-.21.07-.42.18-.64.31s-.46.32-.72.56-.49.55-.69.94-.34.82-.42 1.3c-.05.27-.07.6-.07.99s.02.72.07.99c.09.5.24.95.46 1.34s.45.71.69.92.48.4.72.54.43.24.58.3l.23.07c-.06-.06-.12-.13-.18-.19-.59-.57-.96-1.5-1.13-2.8-.03-.24-.04-.65-.04-1.22s.01-.98.04-1.22c.17-1.13.48-2 .94-2.59zm5.04.82v-.81s-.07.03-.11.03c-.09.04-.19.05-.31.05h-.2l.18.19c.18.2.28.32.3.35l.15.19z"/><path id="w" d="m131.78 36.47c-.08-.86-.12-1.34-.12-1.44 0-.12.08-.2.23-.27h.05s.04 0 .06 0c.08 0 .15.04.21.09s.1.12.1.19c0 .11-.02.36-.06.77s-.06.63-.07.67l.56-.4c.36-.26.55-.4.59-.42s.06-.03.1-.03c.08 0 .16.03.23.1s.11.15.12.26c0 .08-.03.16-.1.22-.03.02-.25.12-.65.32s-.62.29-.65.31l.63.3.67.34c.06.06.09.13.09.22 0 .1-.03.18-.09.24s-.13.1-.23.11c-.05 0-.11-.02-.17-.06s-.24-.17-.53-.38l-.56-.4c.08.86.12 1.34.12 1.44 0 .06-.02.12-.07.18s-.13.09-.25.09-.2-.03-.25-.09-.07-.12-.08-.18c0-.11.02-.36.06-.77s.06-.63.07-.67l-.56.4c-.36.26-.55.4-.59.42-.03.02-.06.03-.1.03-.08 0-.16-.03-.23-.1-.07-.06-.11-.15-.12-.26v-.08s0-.04.03-.06.04-.04.05-.06.04-.04.09-.07.09-.05.12-.07.1-.05.18-.09.16-.07.24-.11.18-.08.31-.14.26-.13.38-.19l-1.31-.62c-.06-.06-.09-.13-.09-.22 0-.1.03-.18.09-.24s.13-.1.23-.11c.05 0 .11.02.17.06s.24.17.53.38l.56.4z"/></g></g></g></g></g></g></g></svg>
