<svg viewBox="0 0 215.68 84.32" xmlns="http://www.w3.org/2000/svg"><g id="a"><g><path id="b" d="m3.56 41.27c0-.36-.12-.67-.37-.94s-.6-.39-1.06-.39c-.33 0-.61.06-.84.18-.27.17-.41.41-.41.71v.18s.08.18.22.33.33.26.58.34c.16.05.36.09.6.12s.43.08.6.12.31.1.43.18c.15.07.3.16.45.27s.29.29.43.56.22.54.23.84c0 .56-.17 1.02-.52 1.38-.34.36-.9.55-1.67.56h-.11c-.47 0-.9-.16-1.3-.49l-.11.1-.12.12c-.05.05-.11.1-.16.15l-.15.14h-.16s-.07-.03-.12-.08v-1.86c0-.19 0-.3.03-.34s.06-.06.14-.07h.12c.11 0 .18.02.22.05s.06.09.07.16.04.19.1.37c.05.17.14.36.26.57.32.46.76.69 1.32.69.88 0 1.32-.35 1.32-1.06 0-.26-.08-.48-.24-.64-.18-.22-.56-.38-1.13-.49s-.95-.21-1.13-.31c-.33-.15-.58-.36-.77-.62s-.29-.54-.29-.84c0-.35.08-.65.23-.9s.35-.43.58-.54.46-.2.68-.24.42-.07.6-.07h.15c.36 0 .68.07.95.2l.2.11.12-.1c.09-.08.19-.16.3-.23h.16s.07.03.12.08v1.79l-.08.08h-.38c-.05-.05-.08-.11-.08-.16z"/><path id="c" d="m5.84 37.29c0-.25.08-.45.24-.6s.36-.22.6-.22c.21.02.39.1.54.23s.23.33.23.58c0 .27-.08.48-.23.61s-.34.2-.57.2-.42-.07-.57-.2-.24-.34-.24-.61zm2.41 8.27c-.14-.03-.61-.04-1.41-.04h-.5c-.24 0-.46 0-.68.03h-.3s-.11.01-.11.01v-.62h.22c.25 0 .48-.01.67-.04.08-.04.13-.09.15-.15s.03-.25.03-.57v-2.59c0-.47 0-.77-.03-.9s-.08-.21-.19-.26c-.13-.06-.34-.1-.64-.1h-.15v-.31c0-.21 0-.31.03-.31h.14c.09-.02.22-.03.38-.04s.33-.02.49-.03c.15 0 .32-.02.49-.03s.3-.02.39-.04.14-.02.15-.01h.04v5.16c.05.09.1.14.16.16s.22.04.48.05h.31v.62h-.11z"/><path id="d" d="m9.23 44.93h.19c.35 0 .57-.06.64-.19v-.84c0-.15 0-.33.01-.53s0-.39 0-.57v-.9c0-.32 0-.58-.01-.8v-.31c-.03-.17-.09-.29-.19-.34s-.3-.1-.61-.12h-.24v-.31c0-.21 0-.31.03-.31h.14c.09-.02.22-.03.38-.04s.33-.02.5-.03c.15 0 .32-.02.49-.03.17 0 .3-.02.39-.04s.14-.02.15-.01h.04v.54c0 .34 0 .52.01.52s.03-.02.07-.07.09-.11.16-.2.16-.17.26-.24.23-.16.39-.26.33-.17.52-.22.41-.07.69-.07c1.03.04 1.61.55 1.72 1.53 0 .06.01.69.01 1.89v1.17c0 .34 0 .55.03.61s.07.11.15.14c.19.03.41.04.67.04h.22v.62h-.43c-.21-.02-.43-.03-.68-.03s-.42 0-.52-.01c-.93 0-1.44.01-1.52.04h-.11v-.62h.22c.55 0 .83-.07.83-.22 0-.02.01-.64.01-1.87 0-1.22-.02-1.87-.03-1.94-.05-.25-.14-.44-.27-.57s-.24-.2-.33-.23-.21-.04-.35-.03c-.41 0-.76.15-1.07.46-.24.24-.4.49-.46.75s-.1.63-.11 1.13v1.68c0 .27 0 .45.01.54 0 .09.02.15.04.18s.06.05.12.08c.19.03.41.04.67.04h.22v.62h-.42c-.22-.02-.45-.03-.69-.03s-.42 0-.52-.01c-.93 0-1.44.01-1.52.04h-.11v-.62h.22z"/></g><path id="e" d="m19.19 41.63c.06-.38.31-.82.73-1.32.43-.5.95-.75 1.57-.76.32 0 .61.08.87.24s.46.37.58.61c.38-.57.84-.86 1.37-.86.33 0 .62.1.87.3s.37.47.38.8c0 .26-.06.48-.19.64s-.25.26-.37.3-.22.05-.31.05c-.17 0-.31-.05-.42-.15s-.16-.23-.16-.39c0-.42.23-.7.68-.86-.1-.12-.28-.18-.54-.18-.12 0-.2 0-.26.03-.34.14-.6.44-.76.9-.54 2-.81 3.17-.81 3.5 0 .25.07.43.22.54s.3.16.48.16c.33 0 .67-.15.99-.45s.55-.67.67-1.1c.03-.09.05-.14.08-.15s.1-.02.22-.03h.05c.14 0 .2.04.2.11 0 0 0 .06-.03.15-.14.52-.43.97-.84 1.37-.42.4-.9.6-1.45.6-.63 0-1.11-.29-1.44-.86-.37.56-.8.84-1.28.84h-.08c-.44 0-.76-.12-.95-.35-.19-.24-.29-.48-.3-.75 0-.29.09-.52.26-.71.17-.18.38-.27.61-.27.39 0 .58.19.58.57 0 .18-.05.34-.16.48s-.21.23-.31.27-.16.07-.18.07h-.04s.03.04.08.07.13.06.22.1.18.05.26.04c.33 0 .61-.2.84-.61.08-.14.19-.45.31-.92.13-.47.25-.96.38-1.47s.2-.81.22-.9c.05-.24.07-.42.07-.53 0-.25-.07-.43-.2-.54s-.29-.16-.46-.16c-.36 0-.7.14-1.02.43s-.54.66-.67 1.11c-.02.08-.04.13-.07.14s-.1.02-.22.03h-.19c-.05-.05-.08-.1-.08-.15z"/><path id="f" d="m30.78 40.84c0-.12.06-.21.19-.27h8.65c.14.07.2.16.2.27 0 .1-.06.19-.19.26h-4.32s-4.32.01-4.32.01c-.14-.05-.22-.14-.22-.27zm0 2.64c0-.14.07-.23.22-.27h8.63c.13.09.19.18.19.27 0 .12-.07.21-.2.27h-8.65c-.13-.06-.19-.15-.19-.27z"/><g><path id="g" d="m54.02 0 .08.08v.38c0 .1-.06.19-.19.26-.7.48-1.27 1.1-1.72 1.85s-.76 1.59-.91 2.51c0 0 0 .03-.01.05-.04.25-.06 1.03-.07 2.33v1.48c0 2.19 0 3.29-.01 3.31 0 .04-.05.06-.12.07s-.3.01-.68.01c-.47 0-.71 0-.73-.01-.03 0-.05-.03-.05-.05-.02-.09-.03-1.15-.03-3.19v-1.11c0-.45 0-.77-.01-.95 0-.9.04-1.59.12-2.08s.27-1.04.57-1.64c.69-1.36 1.73-2.43 3.12-3.2l.18-.1h.48z"/><path id="h" d="m54.1 84.24-.08.08h-.48l-.15-.08c-1.12-.62-2.02-1.43-2.69-2.43s-1.05-2.08-1.13-3.23c0-.09-.01-.97-.01-2.63 0-2.58 0-3.88.01-3.9l.05-.05s.28-.01.75-.01c.38 0 .61 0 .68.01s.11.03.12.07c0 .02.01 1.12.01 3.3v1.72c0 .94.02 1.61.05 2 .04.39.14.82.3 1.3.14.43.32.84.53 1.21s.43.68.65.94.43.46.6.61.34.29.52.42.25.19.24.18 0 .08.01.27v.23z"/><path id="i" d="m49.63 29.82s.32-.01.9-.01c.37 0 .57 0 .58.01.03 0 .05.03.05.05.02.09.03 1.14.03 3.14 0 2.11 0 3.2-.01 3.29-.08 1.2-.43 2.3-1.06 3.3-.62 1-1.45 1.81-2.47 2.44l-.19.12.19.12c.96.6 1.76 1.39 2.42 2.38.65.99 1.02 2.11 1.11 3.37 0 .08.01 1.18.01 3.29v2.78c0 .26-.02.4-.07.41h-.01s-.26.01-.73.01-.71 0-.73-.01c-.03 0-.05-.03-.05-.05-.02-.09-.03-1.13-.03-3.12v-1.94c0-.96-.03-1.71-.1-2.25s-.22-1.11-.48-1.71c-.15-.4-.34-.77-.56-1.11s-.43-.63-.62-.86c-.2-.23-.38-.41-.56-.56s-.31-.26-.42-.35-.16-.14-.16-.14-.01-.09-.01-.24 0-.24.01-.24c0 0 .09-.08.27-.22s.4-.35.67-.64c.26-.29.53-.63.81-1.03s.52-.93.73-1.59.34-1.36.39-2.1c0-.11.01-1.22.01-3.34s0-3.1.01-3.12l.05-.05z"/><path id="j" d="m49.56 19.83v-11.52c0-2.51.02-3.94.07-4.27.02-.07.32-.1.9-.1.37 0 .57.03.58.1.04.07.06.43.07 1.09 0 .99.01 5.89.01 14.69v13.7c0 1.32-.02 2.02-.07 2.08h-.01c-.02.07-.26.1-.73.1s-.71-.03-.73-.1c-.04-.07-.06-.43-.07-1.09 0-.99-.01-5.89-.01-14.69z"/><path id="k" d="m49.56 62.01v-11.52c0-2.51.02-3.94.07-4.27.02-.07.32-.1.9-.1.37 0 .57.03.58.1.04.07.06.43.07 1.09 0 .99.01 5.89.01 14.69v13.7c0 1.32-.02 2.02-.07 2.08h-.01c-.02.07-.26.1-.73.1s-.71-.03-.73-.1c-.04-.07-.06-.43-.07-1.09 0-.99-.01-5.89-.01-14.69z"/></g><g><g><g><path id="l" d="m57.23 8.34s2.76-.03 8.21-.03h8.17l.79 1.83c.53 1.25.82 1.91.86 1.98h-.54l-.1-.19c-.19-.37-.44-.72-.76-1.06-.45-.43-.95-.78-1.51-1.05s-1.19-.46-1.91-.58c-.72-.13-1.41-.2-2.05-.23s-1.47-.05-2.48-.05h-6.08l.11.15c4.19 5.73 6.29 8.62 6.31 8.67v.08c-.03.03-1.22 1.39-3.58 4.1l-3.58 4.07s.95.01 2.86.01h1.91c.81 0 1.38 0 1.74.01 1.23 0 2.23-.02 2.99-.07s1.52-.14 2.27-.29c.75-.14 1.39-.37 1.91-.67s.99-.69 1.4-1.18c.19-.24.38-.56.56-.98h.54s-.03.1-.1.29-.18.48-.34.88-.3.79-.42 1.14l-.79 2.1h-8.16c-5.45.01-8.19 0-8.21-.01-.05-.02-.08-.06-.08-.12 0-.02 0-.05.03-.08l7.24-8.28s-.15-.21-.45-.61-.77-1.05-1.43-1.95-1.24-1.71-1.76-2.42l-3.61-4.95v-.2c-.01-.19 0-.3.05-.33z"/><g><path id="m" d="m57.41 33.22s.02-.09.03-.15.05-.19.12-.36c.06-.18.13-.33.19-.45s.17-.24.32-.36.29-.17.44-.16c.23 0 .42.06.58.17s.25.22.29.33.06.17.06.2v.02l.11-.11c.39-.41.83-.61 1.33-.61.35 0 .62.09.83.26s.32.43.33.76-.12.83-.36 1.51-.37 1.08-.36 1.22c0 .17.05.25.16.25h.09c.19-.03.35-.15.5-.36s.26-.47.34-.77c.01-.05.08-.08.19-.08.13 0 .19.03.19.08 0 0-.01.05-.04.14-.05.19-.12.37-.21.55s-.24.36-.44.54-.43.27-.66.26c-.3 0-.52-.09-.65-.26s-.2-.35-.2-.54c0-.12.12-.51.35-1.15.23-.65.35-1.13.36-1.46 0-.38-.14-.57-.42-.57h-.05c-.55 0-1.01.32-1.39.97l-.07.12-.32 1.29c-.21.84-.33 1.29-.36 1.35-.08.17-.22.26-.41.26-.08 0-.15-.02-.2-.06s-.09-.08-.11-.12-.03-.07-.02-.1c0-.08.12-.6.36-1.56s.37-1.48.38-1.56v-.22c0-.25-.08-.37-.23-.37-.24 0-.44.32-.6.96-.04.13-.06.2-.06.2-.01.04-.07.06-.18.06h-.13s-.06-.07-.06-.09z"/><path id="n" d="m63.5 32.65c0-.08.04-.15.13-.19h6.11c.1.05.14.12.14.19s-.04.13-.13.18h-3.05s-3.05 0-3.05 0c-.1-.03-.15-.1-.15-.19zm0 1.86c0-.1.05-.16.15-.19h6.1c.09.06.13.13.13.19 0 .08-.05.15-.14.19h-6.11c-.09-.04-.13-.11-.13-.19z"/><path id="o" d="m71.35 30.36c.36-.52.85-.78 1.47-.78.31 0 .61.08.92.25s.56.46.75.88c.24.53.36 1.26.36 2.19 0 .99-.14 1.75-.41 2.27-.13.27-.3.48-.53.64-.22.16-.42.26-.59.3s-.33.06-.49.07c-.17 0-.33-.02-.5-.06s-.36-.14-.59-.31c-.22-.17-.4-.38-.53-.64-.28-.52-.41-1.28-.41-2.27 0-1.11.18-1.96.55-2.54zm2.16-.11c-.19-.2-.42-.31-.68-.31s-.5.1-.69.31c-.16.17-.27.4-.32.69s-.08.91-.08 1.84c0 1.01.03 1.68.08 2s.17.57.35.76.4.29.66.29.47-.1.65-.29c.19-.19.3-.46.35-.81s.07-.99.08-1.95c0-.93-.03-1.54-.08-1.83s-.16-.53-.32-.7z"/></g><path id="p" d="m61.95 3.52c0-.56.18-1.06.54-1.5s.82-.66 1.37-.66c.56 0 1.09.2 1.58.59.24.2.48.45.71.75l.13.18.07-.1c.67-.95 1.41-1.42 2.24-1.42.55 0 1 .22 1.35.65s.53.95.54 1.54c0 .55-.18 1.05-.53 1.49s-.82.67-1.4.67c-.55 0-1.07-.2-1.56-.59-.24-.2-.48-.45-.71-.75l-.13-.18-.07.1c-.67.95-1.41 1.42-2.24 1.42-.55 0-1-.22-1.35-.65-.35-.44-.53-.95-.54-1.54zm8.17 0c0-.44-.12-.83-.36-1.19s-.59-.54-1.04-.54c-.13 0-.27.02-.39.05s-.25.08-.36.13-.22.12-.33.18-.2.14-.28.23-.16.17-.24.24-.14.15-.19.24-.1.16-.14.21-.08.11-.11.16l-.05.08.3.38c.2.26.35.45.46.58s.24.27.4.42.32.26.48.32.32.09.49.1c.4 0 .72-.16.98-.47s.38-.69.38-1.12zm-7.82.03c0 .44.12.84.37 1.2s.6.54 1.04.54c.75 0 1.45-.51 2.08-1.54l-.3-.38c-.39-.51-.68-.84-.87-1-.31-.28-.64-.41-.97-.41-.4 0-.72.16-.97.47s-.38.69-.38 1.12z"/></g><g><g><path id="q" d="m91.7 8.18c0-.62.05-1.22.14-1.78s.19-1.05.31-1.45c.12-.41.29-.81.5-1.19s.39-.69.52-.91.32-.45.57-.71c.25-.25.4-.41.45-.46s.16-.15.34-.29h.23c.13 0 .19.04.19.12 0 .03-.08.12-.23.29s-.34.4-.56.72-.44.71-.67 1.17-.42 1.09-.57 1.87-.23 1.66-.23 2.62.08 1.83.23 2.61.34 1.41.56 1.89.44.87.67 1.17.42.54.57.72.23.28.23.29c0 .08-.07.12-.2.12h-.22l-.38-.33c-.85-.77-1.47-1.73-1.86-2.88s-.58-2.34-.58-3.58z"/><path id="r" d="m96.84 8.36v-.18c0-.12.06-.21.19-.27h7.89c.14.07.2.16.2.27s-.07.2-.2.27h-7.89c-.13-.06-.19-.15-.19-.27v.18z"/><path id="s" d="m109.15 3.73-.18.07c-.13.05-.31.09-.54.14s-.5.08-.79.1h-.26v-.62h.26c.43-.02.82-.09 1.18-.2s.62-.23.76-.33.27-.2.38-.3c.02-.03.07-.04.16-.04.08 0 .16.03.23.08v8.13c.08.06.13.1.18.12s.15.04.33.05.45.03.84.03h.35v.62h-.15c-.19-.03-.91-.04-2.16-.04s-1.94.01-2.13.04h-.16v-.62h.87c.14 0 .26 0 .34-.01s.15-.02.22-.04.1-.03.11-.03.04-.02.08-.07.07-.06.08-.05v-7.03z"/><g><path id="t" d="m113.86 1.4h.05s.09-.01.14-.01h.16l.38.33c.85.77 1.47 1.73 1.86 2.88s.58 2.34.58 3.58c0 .62-.05 1.21-.14 1.78s-.19 1.05-.31 1.45-.29.8-.5 1.19c-.22.4-.39.7-.52.91s-.31.44-.56.69-.39.4-.43.45-.15.13-.31.26l-.05.05h-.31s-.05-.01-.07-.04-.03-.07-.04-.12c0 0 .06-.07.15-.18 1.4-1.46 2.1-3.61 2.1-6.45s-.7-4.99-2.1-6.45c-.09-.11-.14-.17-.15-.18 0-.07.02-.12.07-.15z"/><path id="u" d="m118.53 3.89s.02-.09.03-.15.05-.19.12-.36c.06-.18.13-.33.19-.45s.17-.24.32-.36.29-.17.44-.16c.23 0 .42.06.58.17s.25.22.29.33.06.17.06.2v.02l.11-.11c.39-.41.83-.61 1.33-.61.35 0 .62.09.83.26s.32.43.33.76-.12.83-.36 1.51-.37 1.08-.36 1.22c0 .17.05.25.16.25h.09c.19-.03.35-.15.5-.36s.26-.47.34-.77c.01-.05.08-.08.19-.08.13 0 .19.03.19.08 0 0-.01.05-.04.14-.05.19-.12.37-.21.55s-.24.36-.44.54-.43.27-.66.26c-.3 0-.52-.09-.65-.26s-.2-.35-.2-.54c0-.12.12-.51.35-1.15.23-.65.35-1.13.36-1.46 0-.38-.14-.57-.42-.57h-.05c-.55 0-1.01.32-1.39.97l-.07.12-.32 1.29c-.21.84-.33 1.29-.36 1.35-.08.17-.22.26-.41.26-.08 0-.15-.02-.2-.06s-.09-.08-.11-.12-.03-.07-.02-.1c0-.08.12-.6.36-1.56s.37-1.48.38-1.56v-.22c0-.25-.08-.37-.23-.37-.24 0-.44.32-.6.96-.04.13-.06.2-.06.2-.01.04-.07.06-.18.06h-.13s-.06-.07-.06-.09z"/></g></g><g><path id="v" d="m82.55 27.45c0-.62.05-1.22.14-1.78s.19-1.05.31-1.45c.12-.41.29-.81.5-1.19s.39-.69.52-.91.32-.45.57-.71c.25-.25.4-.41.45-.46s.16-.15.34-.29h.23c.13 0 .19.04.19.12 0 .03-.08.12-.23.29s-.34.4-.56.72-.44.71-.67 1.17-.42 1.09-.57 1.87-.23 1.66-.23 2.62.08 1.83.23 2.61.34 1.41.56 1.89.44.87.67 1.17.42.54.57.72.23.28.23.29c0 .08-.07.12-.2.12h-.22l-.38-.33c-.85-.77-1.47-1.73-1.86-2.88s-.58-2.34-.58-3.58z"/><path id="w" d="m88.03 25.03c-.24 0-.44-.08-.58-.24s-.22-.36-.22-.6c0-.64.24-1.2.72-1.67s1.08-.71 1.79-.71c.82 0 1.51.25 2.06.76s.83 1.16.84 1.97c0 .39-.09.76-.27 1.11s-.4.66-.65.92-.62.6-1.09 1c-.33.28-.78.7-1.36 1.25l-.8.76h1.03c1.42.01 2.18 0 2.27-.05.06-.02.17-.42.33-1.21v-.04h.54v.04s-.07.44-.18 1.24-.18 1.21-.2 1.25v.04h-5.04v-.42c0-.06.03-.13.08-.2s.19-.23.41-.48c.26-.29.49-.54.68-.76.08-.09.24-.26.46-.5s.38-.41.46-.5.21-.24.39-.45.31-.36.38-.46.18-.24.31-.41.23-.32.29-.43.12-.25.2-.39.14-.29.18-.43.07-.28.1-.41.04-.28.04-.45c0-.57-.15-1.06-.46-1.48s-.75-.62-1.32-.62c-.3 0-.56.08-.79.23s-.38.3-.48.45-.14.23-.14.26c0 0 .02.01.07.01.16 0 .33.06.5.19s.26.33.26.62c0 .23-.07.42-.22.57s-.35.24-.61.24z"/><path id="x" d="m93.62 26.95c0-.05.02-.13.04-.22s.07-.26.16-.52c.09-.25.18-.47.27-.64s.24-.34.45-.5.42-.24.62-.23c.33 0 .6.08.81.24s.35.32.41.46.08.24.08.29c0 .02 0 .03.01.03l.15-.15c.55-.58 1.18-.87 1.89-.87.49 0 .88.12 1.18.37s.45.6.46 1.07-.16 1.18-.52 2.13-.52 1.52-.52 1.72c0 .24.08.35.23.35.05 0 .1 0 .12-.01.26-.05.5-.22.71-.52s.37-.66.48-1.09c.02-.07.11-.11.27-.11.18 0 .27.04.27.11l-.05.2c-.07.26-.17.52-.3.77s-.33.51-.62.76-.6.38-.94.37c-.43 0-.73-.12-.92-.37s-.29-.5-.29-.76c0-.17.16-.71.49-1.63.33-.91.49-1.6.5-2.06 0-.53-.2-.8-.6-.8h-.07c-.78 0-1.43.46-1.97 1.37l-.1.16-.45 1.82c-.3 1.19-.47 1.82-.52 1.91-.12.24-.31.37-.58.37-.12 0-.21-.03-.29-.08s-.12-.11-.15-.16-.04-.1-.03-.14c0-.12.17-.86.52-2.21.34-1.36.52-2.1.54-2.21 0-.05.01-.15.01-.31 0-.35-.11-.53-.33-.53-.34 0-.63.45-.86 1.36-.05.18-.08.28-.08.29-.02.05-.1.08-.26.08h-.19c-.05-.05-.08-.1-.08-.12z"/><path id="y" d="m105.26 27.63v-.18c0-.12.06-.21.19-.27h4.06v-4.07c.1-.12.19-.18.27-.18.12 0 .21.07.27.2v4.05h4.05c.14.07.2.16.2.27s-.07.2-.2.27h-4.05v4.05c-.07.13-.15.19-.24.19h-.05c-.11 0-.19-.06-.24-.19v-4.05h-4.06c-.13-.06-.19-.15-.19-.27v.18z"/><path id="z" d="m120.97 23-.18.07c-.13.05-.31.09-.54.14s-.5.08-.79.1h-.26v-.62h.26c.43-.02.82-.09 1.18-.2s.62-.23.76-.33.27-.2.38-.3c.02-.03.07-.04.16-.04.08 0 .16.03.23.08v8.13c.08.06.13.1.18.12s.15.04.33.05.45.03.84.03h.35v.62h-.15c-.19-.03-.91-.04-2.16-.04s-1.94.01-2.13.04h-.16v-.62h.87c.14 0 .26 0 .34-.01s.15-.02.22-.04.1-.03.11-.03.04-.02.08-.07.07-.06.08-.05v-7.02z"/><path id="aa" d="m125.68 20.68h.05s.09-.01.14-.01h.16l.38.33c.85.77 1.47 1.73 1.86 2.88s.58 2.34.58 3.58c0 .62-.05 1.21-.14 1.78s-.19 1.05-.31 1.45-.29.8-.5 1.19c-.22.4-.39.7-.52.91s-.31.44-.56.69-.39.4-.43.45-.15.13-.31.26l-.05.05h-.31s-.05-.01-.07-.04-.03-.07-.04-.12c0 0 .06-.07.15-.18 1.4-1.46 2.1-3.61 2.1-6.45s-.7-4.99-2.1-6.45c-.09-.11-.14-.17-.15-.18 0-.07.02-.12.07-.15z"/><path id="ab" d="m131.2 21.88c0-.19.08-.36.24-.52s.35-.23.57-.23.41.07.57.22.25.32.26.53c0 .06-.09 1.1-.27 3.11s-.28 3.03-.29 3.07c-.02.07-.1.11-.26.11s-.25-.04-.27-.11c0-.03-.1-1.05-.29-3.05s-.27-3.05-.27-3.12zm.02 8.14c0-.25.08-.45.24-.6s.36-.22.6-.22c.21.02.39.1.54.23s.23.33.23.58c0 .27-.08.48-.23.61s-.34.2-.57.2-.42-.07-.57-.2-.24-.34-.24-.61z"/></g><rect x="79.91" y="17.41" width="55.36" height=".81"/></g><g><path id="ac" d="m137.61 17.29c.06-.38.31-.82.73-1.32.43-.5.95-.75 1.57-.76.32 0 .61.08.87.24s.46.37.58.61c.38-.57.84-.86 1.37-.86.33 0 .62.1.87.3s.37.47.38.8c0 .26-.06.48-.19.64s-.25.26-.37.3-.22.05-.31.05c-.17 0-.31-.05-.42-.15s-.16-.23-.16-.39c0-.42.23-.7.68-.86-.1-.12-.28-.18-.54-.18-.12 0-.2 0-.26.03-.34.14-.6.44-.76.9-.54 2-.81 3.17-.81 3.5 0 .25.07.43.22.54s.3.16.48.16c.33 0 .67-.15.99-.45s.55-.67.67-1.1c.03-.09.05-.14.08-.15s.1-.02.22-.03h.05c.14 0 .2.04.2.11 0 0 0 .06-.03.15-.14.52-.43.97-.84 1.37-.42.4-.9.6-1.45.6-.63 0-1.11-.29-1.44-.86-.37.56-.8.84-1.28.84h-.08c-.44 0-.76-.12-.95-.35-.19-.24-.29-.48-.3-.75 0-.29.09-.52.26-.71.17-.18.38-.27.61-.27.39 0 .58.19.58.57 0 .18-.05.34-.16.48s-.21.23-.31.27-.16.07-.18.07h-.04s.03.04.08.07.13.06.22.1.18.05.26.04c.33 0 .61-.2.84-.61.08-.14.19-.45.31-.92.13-.47.25-.96.38-1.47s.2-.81.22-.9c.05-.24.07-.42.07-.53 0-.25-.07-.43-.2-.54s-.29-.16-.46-.16c-.36 0-.7.14-1.02.43s-.54.66-.67 1.11c-.02.08-.04.13-.07.14s-.1.02-.22.03h-.19c-.05-.05-.08-.1-.08-.15z"/><g><path id="ad" d="m145.71 11.49c-.17 0-.31-.06-.41-.17-.1-.12-.15-.26-.15-.42 0-.45.17-.85.51-1.18s.76-.5 1.27-.5c.58 0 1.07.18 1.46.54s.59.82.6 1.39c0 .28-.06.54-.19.79s-.28.47-.46.65-.44.42-.77.71c-.23.2-.55.49-.96.88l-.57.54h.73c1 0 1.54 0 1.6-.04.04-.01.12-.3.23-.85v-.03h.38v.03s-.05.31-.12.87c-.08.56-.12.86-.14.88v.03h-3.56v-.3s.02-.09.06-.14.13-.16.29-.34c.19-.2.35-.38.48-.54.06-.06.17-.18.33-.36s.27-.29.33-.36.15-.17.28-.32.22-.26.27-.33.12-.17.22-.29.16-.22.2-.31.09-.18.14-.28.1-.2.12-.31.05-.2.07-.29.03-.2.03-.32c0-.4-.11-.75-.33-1.05s-.53-.44-.93-.44c-.21 0-.4.05-.56.16s-.27.21-.34.32-.1.16-.1.18h.05c.12 0 .23.04.36.13s.18.24.18.44c0 .16-.05.29-.15.4s-.25.17-.43.17z"/><path id="ae" d="m149.67 12.85s.02-.09.03-.15.05-.19.12-.36c.06-.18.13-.33.19-.45s.17-.24.32-.36.29-.17.44-.16c.23 0 .42.06.58.17s.25.22.29.33.06.17.06.2v.02l.11-.11c.39-.41.83-.61 1.33-.61.35 0 .62.09.83.26s.32.43.33.76-.12.83-.36 1.51-.37 1.08-.36 1.22c0 .17.05.25.16.25h.09c.19-.03.35-.15.5-.36s.26-.47.34-.77c.01-.05.08-.08.19-.08.13 0 .19.03.19.08 0 0-.01.05-.04.14-.05.19-.12.37-.21.55s-.24.36-.44.54-.43.27-.66.26c-.3 0-.52-.09-.65-.26s-.2-.35-.2-.54c0-.12.12-.51.35-1.15.23-.65.35-1.13.36-1.46 0-.38-.14-.57-.42-.57h-.05c-.55 0-1.01.32-1.39.97l-.07.12-.32 1.29c-.21.84-.33 1.29-.36 1.35-.08.17-.22.26-.41.26-.08 0-.15-.02-.2-.06s-.09-.08-.11-.12-.03-.07-.02-.1c0-.08.12-.6.36-1.56s.37-1.48.38-1.56v-.22c0-.25-.08-.37-.23-.37-.24 0-.44.32-.6.96-.04.13-.06.2-.06.2-.01.04-.07.06-.18.06h-.13s-.06-.07-.06-.09z"/><path id="af" d="m155.76 13.33v-.12c0-.08.04-.15.13-.19h2.87v-2.88c.07-.08.13-.12.19-.12.08 0 .15.05.19.14v2.86h2.86c.1.05.14.12.14.19s-.05.14-.14.19h-2.86v2.86c-.05.09-.11.13-.17.13h-.04c-.08 0-.13-.04-.17-.13v-2.86h-2.87c-.09-.04-.13-.11-.13-.19v.12z"/><path id="ag" d="m164.74 10.06-.12.05c-.09.03-.22.06-.38.1s-.35.05-.56.07h-.18v-.44h.18c.3-.01.58-.06.83-.14s.44-.16.54-.23.19-.14.27-.21c.01-.02.05-.03.12-.03.06 0 .11.02.16.06v5.75c.05.04.09.07.12.09s.11.03.23.04.32.02.6.02h.25v.44h-.11c-.13-.02-.64-.03-1.53-.03s-1.37 0-1.51.03h-.12v-.44h.61.24s.11-.02.15-.03.07-.02.08-.02.03-.02.06-.05.05-.04.06-.04v-4.96z"/></g></g></g><g><path id="ah" d="m182.45 17.29c.06-.38.31-.82.73-1.32.43-.5.95-.75 1.57-.76.32 0 .61.08.87.24s.46.37.58.61c.38-.57.84-.86 1.37-.86.33 0 .62.1.87.3s.37.47.38.8c0 .26-.06.48-.19.64s-.25.26-.37.3-.22.05-.31.05c-.17 0-.31-.05-.42-.15s-.16-.23-.16-.39c0-.42.23-.7.68-.86-.1-.12-.28-.18-.54-.18-.12 0-.2 0-.26.03-.34.14-.6.44-.76.9-.54 2-.81 3.17-.81 3.5 0 .25.07.43.22.54s.3.16.48.16c.33 0 .67-.15.99-.45s.55-.67.67-1.1c.03-.09.05-.14.08-.15s.1-.02.22-.03h.05c.14 0 .2.04.2.11 0 0 0 .06-.03.15-.14.52-.43.97-.84 1.37-.42.4-.9.6-1.45.6-.63 0-1.11-.29-1.44-.86-.37.56-.8.84-1.28.84h-.08c-.44 0-.76-.12-.95-.35-.19-.24-.29-.48-.3-.75 0-.29.09-.52.26-.71.17-.18.38-.27.61-.27.39 0 .58.19.58.57 0 .18-.05.34-.16.48s-.21.23-.31.27-.16.07-.18.07h-.04s.03.04.08.07.13.06.22.1.18.05.26.04c.33 0 .61-.2.84-.61.08-.14.19-.45.31-.92.13-.47.25-.96.38-1.47s.2-.81.22-.9c.05-.24.07-.42.07-.53 0-.25-.07-.43-.2-.54s-.29-.16-.46-.16c-.36 0-.7.14-1.02.43s-.54.66-.67 1.11c-.02.08-.04.13-.07.14s-.1.02-.22.03h-.19c-.05-.05-.08-.1-.08-.15z"/><path id="ai" d="m194.42 17.82c0-1.1.37-2.01 1.11-2.71.74-.71 1.62-1.11 2.63-1.21h.23c.14 0 .33 0 .57-.01s.46 0 .68 0h1.34c.14.07.2.16.2.27 0 .08-.06.17-.18.26h-1.41c-1 .02-1.62.05-1.86.1-.44.11-.84.27-1.18.49s-.61.44-.8.67-.35.48-.49.75-.22.49-.24.65-.05.32-.07.46v.03h6.03c.14.07.2.16.2.27s-.07.2-.2.27h-6.03v.03c0 .19.05.42.14.69s.24.57.45.88c.21.32.5.61.87.87s.81.45 1.32.56c.24.05.87.09 1.87.1h1.41c.12.09.18.18.18.27 0 .11-.07.2-.2.27h-1.66c-.16 0-.29 0-.39.01-1.4 0-2.51-.39-3.33-1.17-.8-.74-1.19-1.67-1.19-2.78z"/><path id="aj" d="m206.34 12.18c0-.06.05-.14.15-.24h2.62c1.76.02 2.74.05 2.96.08.2.04.39.08.57.14s.34.11.48.18.26.13.38.2.22.14.3.22.16.14.24.22.14.14.18.2.08.13.14.19.09.12.1.18.03.1.05.15l.04.08c.05.16.07.39.07.69 0 .45-.06.81-.18 1.06-.32.64-.95 1.06-1.9 1.26l-.24.07c.06.1.14.23.24.39s.3.46.6.9.57.82.83 1.15c.25.33.52.65.8.94s.5.46.67.5c.17.05.26.13.26.26 0 .08-.05.16-.16.23h-2.48c-.06-.06-.54-.79-1.44-2.17l-1.33-2.05h-.52v1.72c.02 1.05.03 1.61.04 1.68.03.15.12.25.27.29.04 0 .16.02.38.04.23 0 .38.03.46.1.08.1.08.21 0 .34l-.1.05h-4.32c-.11-.05-.16-.13-.16-.23 0-.17.18-.26.53-.26.37-.03.58-.1.62-.23.05-.07.07-1.38.07-3.92s-.02-3.86-.07-3.95c-.05-.12-.26-.19-.62-.22-.34 0-.52-.08-.52-.23zm3.04 8.56c-.03-.06-.05-.11-.05-.14s-.02-.18-.03-.45-.02-.66-.03-1.15v-2.36-3.86l.05-.19.1-.18h-1.51c.03.06.05.11.05.14s.02.19.03.48.02.68.03 1.17 0 1.29 0 2.39c0 1.9 0 3.04-.01 3.42s-.04.62-.08.71c0 0-.01.02-.01.03h1.47zm2.93-6.26c0-.4-.04-.73-.11-1s-.18-.48-.33-.61-.26-.22-.34-.26-.19-.08-.31-.12c-.03 0-.2-.02-.52-.07-.35 0-.62.06-.79.18-.09.06-.14.18-.15.34s-.02.75-.03 1.75v1.83h.22c.39 0 .8-.03 1.24-.08.42-.11.71-.29.87-.54s.24-.72.24-1.41zm.48-.56v.56c0 .37-.02.68-.05.94s-.08.43-.14.52-.1.17-.12.24-.05.12-.07.14c0 0 0 .01.01.01.04 0 .18-.05.43-.14.87-.27 1.3-.84 1.3-1.7s-.52-1.49-1.57-1.83l-.27-.1.05.15c.12.14.24.43.37.88.04.22.05.51.05.88v-.56zm-.38 3.99c-.48-.67-.72-1-.73-1-.05 0-.1 0-.12.03-.15 0-.29.01-.42.04h-.33l2.44 3.76h1.26l-.18-.2c-.48-.53-1.12-1.41-1.93-2.62z"/></g></g><g><g><g><path id="ak" d="m59.93 63.4c0-.52.09-.99.26-1.41.17-.43.39-.78.67-1.06s.57-.52.91-.71.65-.33.95-.42.58-.13.86-.12h.04c.41 0 .76.1 1.06.3s.45.49.45.88c0 .81-.5 1.35-1.51 1.6-.44.12-1.05.18-1.82.19-.33 0-.51 0-.52.03 0 .02-.03.18-.08.48s-.09.56-.1.79c0 .43.1.76.29 1s.48.37.86.38.8-.08 1.26-.26.88-.48 1.25-.9c.08-.09.14-.14.16-.14.04 0 .1.04.18.12s.13.14.14.19-.03.12-.12.22-.23.22-.41.37c-.18.14-.39.29-.62.42s-.52.25-.86.34-.68.14-1.03.14c-.71 0-1.27-.24-1.66-.72s-.59-1.05-.6-1.71zm4.54-2.51c-.05-.47-.36-.71-.92-.71-.3 0-.57.06-.83.19-.25.13-.46.28-.61.46s-.29.37-.39.56-.18.35-.22.49-.06.22-.07.26c0 0 .09.01.27.01 1.02 0 1.74-.11 2.14-.33s.62-.53.62-.94z"/><g><path id="al" d="m67.5 55c0-.15.06-.29.18-.4s.26-.18.42-.18c.12 0 .21.04.29.12s.12.17.12.29c0 .15-.06.28-.19.4s-.27.19-.42.19c-.1 0-.19-.03-.27-.1s-.13-.17-.13-.32zm-1.57 3c0-.05.03-.15.09-.3s.13-.31.23-.49.24-.34.42-.49.38-.22.58-.21c.25 0 .46.07.62.22s.25.35.26.6c0 .11-.04.29-.13.54s-.22.59-.38 1.01-.3.78-.4 1.08c-.03.14-.05.24-.05.31 0 .16.05.24.16.24.06 0 .12 0 .18-.03s.14-.06.22-.13.17-.18.26-.34.17-.34.24-.57c.02-.08.04-.12.05-.13s.07-.02.16-.02c.13 0 .19.03.19.1 0 .05-.03.15-.09.3s-.14.31-.24.49-.25.34-.43.48c-.19.14-.38.21-.6.21s-.39-.07-.57-.2-.26-.34-.27-.61c0-.11.02-.21.05-.31s.17-.46.41-1.09c.24-.65.38-1.03.42-1.16s.06-.25.07-.37c0-.15-.05-.23-.16-.23h-.02c-.19 0-.37.11-.53.32s-.28.48-.36.81c0 0-.01.02-.02.03s0 .02 0 .03 0 .01-.02.02-.02 0-.03 0h-.25s-.06-.07-.06-.09z"/><path id="am" d="m69.54 57.98c.04-.27.22-.58.52-.93s.67-.53 1.11-.54c.22 0 .43.06.61.17s.32.26.41.43c.27-.4.59-.6.97-.6.24 0 .44.07.61.21s.26.33.27.57c0 .19-.04.34-.13.45-.09.12-.18.19-.26.21s-.16.04-.22.04c-.12 0-.22-.04-.3-.11s-.12-.16-.12-.28c0-.29.16-.5.48-.6-.07-.08-.2-.12-.38-.12-.08 0-.14 0-.18.02-.24.1-.42.31-.54.63-.38 1.41-.58 2.24-.58 2.48 0 .18.05.31.15.38s.21.12.34.12c.24 0 .47-.11.7-.32s.39-.47.47-.78c.02-.06.04-.1.06-.11s.07-.01.15-.02h.04c.1 0 .14.03.14.08 0 0 0 .04-.02.11-.1.36-.3.69-.6.97-.29.28-.64.42-1.03.42-.45 0-.79-.2-1.02-.6-.26.4-.56.6-.9.6h-.06c-.31 0-.54-.08-.67-.25s-.2-.34-.21-.53c0-.2.06-.37.18-.5s.27-.19.43-.19c.28 0 .41.13.41.4 0 .13-.04.24-.12.34s-.15.16-.22.19-.11.05-.12.05h-.03s.02.03.06.05.09.04.15.07.12.04.18.03c.23 0 .43-.14.6-.43.06-.1.13-.32.22-.65s.18-.68.27-1.04.14-.57.15-.63c.03-.17.05-.3.05-.37 0-.18-.05-.31-.14-.38s-.2-.12-.33-.12c-.26 0-.5.1-.72.31-.22.2-.38.47-.47.79-.01.06-.03.09-.05.1s-.07.01-.15.02h-.13s-.06-.07-.06-.11z"/></g></g><path id="an" d="m79.37 62.47v-.18c0-.12.06-.21.19-.27h7.89c.14.07.2.16.2.27s-.07.2-.2.27h-7.89c-.13-.06-.19-.15-.19-.27v.18z"/><g><path id="ao" d="m92.34 63.4c0-.52.09-.99.26-1.41.17-.43.39-.78.67-1.06s.57-.52.91-.71.65-.33.95-.42.58-.13.86-.12h.04c.41 0 .76.1 1.06.3s.45.49.45.88c0 .81-.5 1.35-1.51 1.6-.44.12-1.05.18-1.82.19-.33 0-.51 0-.52.03 0 .02-.03.18-.08.48s-.09.56-.1.79c0 .43.1.76.29 1s.48.37.86.38.8-.08 1.26-.26.88-.48 1.25-.9c.08-.09.14-.14.16-.14.04 0 .1.04.18.12s.13.14.14.19-.03.12-.12.22-.23.22-.41.37c-.18.14-.39.29-.62.42s-.52.25-.86.34-.68.14-1.03.14c-.71 0-1.27-.24-1.66-.72s-.59-1.05-.6-1.71zm4.53-2.51c-.05-.47-.36-.71-.92-.71-.3 0-.57.06-.83.19-.25.13-.46.28-.61.46s-.29.37-.39.56-.18.35-.22.49-.06.22-.07.26c0 0 .09.01.27.01 1.02 0 1.74-.11 2.14-.33s.62-.53.62-.94z"/><g><path id="ap" d="m98.94 58.48v-.12c0-.08.04-.15.13-.19h5.58c.1.05.14.12.14.19s-.05.14-.14.19h-5.58c-.09-.04-.13-.11-.13-.19v.12z"/><path id="aq" d="m107.36 55c0-.15.06-.29.18-.4s.26-.18.42-.18c.12 0 .21.04.29.12s.12.17.12.29c0 .15-.06.28-.19.4s-.27.19-.42.19c-.1 0-.19-.03-.27-.1s-.13-.17-.13-.32zm-1.56 3c0-.05.03-.15.09-.3s.13-.31.23-.49.24-.34.42-.49.38-.22.58-.21c.25 0 .46.07.62.22s.25.35.26.6c0 .11-.04.29-.13.54s-.22.59-.38 1.01-.3.78-.4 1.08c-.03.14-.05.24-.05.31 0 .16.05.24.16.24.06 0 .12 0 .18-.03s.14-.06.22-.13.17-.18.26-.34.17-.34.24-.57c.02-.08.04-.12.05-.13s.07-.02.16-.02c.13 0 .19.03.19.1 0 .05-.03.15-.09.3s-.14.31-.24.49-.25.34-.43.48c-.19.14-.38.21-.6.21s-.39-.07-.57-.2-.26-.34-.27-.61c0-.11.02-.21.05-.31s.17-.46.41-1.09c.24-.65.38-1.03.42-1.16s.06-.25.07-.37c0-.15-.05-.23-.16-.23h-.02c-.19 0-.37.11-.53.32s-.28.48-.36.81c0 0-.01.02-.02.03s0 .02 0 .03 0 .01-.02.02-.02 0-.03 0h-.25s-.06-.07-.06-.09z"/><path id="ar" d="m109.41 57.98c.04-.27.22-.58.52-.93s.67-.53 1.11-.54c.22 0 .43.06.61.17s.32.26.41.43c.27-.4.59-.6.97-.6.24 0 .44.07.61.21s.26.33.27.57c0 .19-.04.34-.13.45-.09.12-.18.19-.26.21s-.16.04-.22.04c-.12 0-.22-.04-.3-.11s-.12-.16-.12-.28c0-.29.16-.5.48-.6-.07-.08-.2-.12-.38-.12-.08 0-.14 0-.18.02-.24.1-.42.31-.54.63-.38 1.41-.58 2.24-.58 2.48 0 .18.05.31.15.38s.21.12.34.12c.24 0 .47-.11.7-.32s.39-.47.47-.78c.02-.06.04-.1.06-.11s.07-.01.15-.02h.04c.1 0 .14.03.14.08 0 0 0 .04-.02.11-.1.36-.3.69-.6.97-.29.28-.64.42-1.03.42-.45 0-.79-.2-1.02-.6-.26.4-.56.6-.9.6h-.06c-.31 0-.54-.08-.67-.25s-.2-.34-.21-.53c0-.2.06-.37.18-.5s.27-.19.43-.19c.28 0 .41.13.41.4 0 .13-.04.24-.12.34s-.15.16-.22.19-.11.05-.12.05h-.03s.02.03.06.05.09.04.15.07.12.04.18.03c.23 0 .43-.14.6-.43.06-.1.13-.32.22-.65s.18-.68.27-1.04.14-.57.15-.63c.03-.17.05-.3.05-.37 0-.18-.05-.31-.14-.38s-.2-.12-.33-.12c-.26 0-.5.1-.72.31-.22.2-.38.47-.47.79-.01.06-.03.09-.05.1s-.07.01-.15.02h-.13s-.06-.07-.06-.11z"/></g></g></g><g><path id="as" d="m82.99 78.35c-.24 0-.44-.08-.58-.24s-.22-.36-.22-.6c0-.64.24-1.2.72-1.67s1.08-.71 1.79-.71c.82 0 1.51.25 2.06.76s.83 1.16.84 1.97c0 .39-.09.76-.27 1.11s-.4.66-.65.92-.62.6-1.09 1c-.33.28-.78.7-1.36 1.25l-.8.76h1.03c1.42.01 2.18 0 2.27-.05.06-.02.17-.42.33-1.21v-.04h.54v.04s-.07.44-.18 1.24-.18 1.21-.2 1.25v.04h-5.04v-.42c0-.06.03-.13.08-.2s.19-.23.41-.48c.26-.29.49-.54.68-.76.08-.09.24-.26.46-.5s.38-.41.46-.5.21-.24.39-.45.31-.36.38-.46.18-.24.31-.41.23-.32.29-.43.12-.25.2-.39.14-.29.18-.43.07-.28.1-.41.04-.28.04-.45c0-.57-.15-1.06-.46-1.48s-.75-.62-1.32-.62c-.3 0-.56.08-.79.23s-.38.3-.48.45-.14.23-.14.26c0 0 .02.01.07.01.16 0 .33.06.5.19s.26.33.26.62c0 .23-.07.42-.22.57s-.35.24-.61.24z"/><path id="at" d="m90.79 76.03c0-.22.09-.41.26-.57s.37-.25.6-.26c.16 0 .3.05.41.16s.17.24.18.41c0 .21-.09.4-.27.57s-.38.26-.6.27c-.14 0-.26-.05-.38-.14s-.18-.24-.19-.45zm-2.21 4.25c0-.07.04-.21.12-.42s.19-.44.33-.69.33-.48.6-.69.53-.31.81-.3c.35 0 .65.1.88.31s.36.49.37.84c0 .15-.06.41-.19.76s-.31.83-.54 1.43-.43 1.11-.57 1.53c-.05.2-.07.34-.07.43 0 .23.08.34.23.34.08 0 .17-.01.26-.04s.19-.09.31-.19.24-.26.37-.48.24-.48.34-.8c.03-.11.05-.17.07-.19s.1-.03.23-.03c.18 0 .27.05.27.14 0 .07-.04.21-.12.42s-.19.44-.34.69c-.14.25-.35.48-.61.68s-.54.3-.84.3-.56-.1-.8-.29-.37-.48-.38-.87c0-.15.02-.3.07-.43s.24-.65.58-1.55c.34-.91.54-1.46.6-1.64s.09-.36.1-.53c0-.22-.08-.33-.23-.33h-.03c-.27 0-.52.15-.75.45s-.4.68-.52 1.14c0 0-.02.02-.03.04s-.01.03-.01.04 0 .02-.03.03-.03.01-.04.01h-.35c-.05-.05-.08-.1-.08-.12z"/></g><rect x="58.05" y="71.06" width="58.39" height=".81"/></g><g><path id="au" d="m159.45 70.94c.06-.38.31-.82.73-1.32.43-.5.95-.75 1.57-.76.32 0 .61.08.87.24s.46.37.58.61c.38-.57.84-.86 1.37-.86.33 0 .62.1.87.3s.37.47.38.8c0 .26-.06.48-.19.64s-.25.26-.37.3-.22.05-.31.05c-.17 0-.31-.05-.42-.15s-.16-.23-.16-.39c0-.42.23-.7.68-.86-.1-.12-.28-.18-.54-.18-.12 0-.2 0-.26.03-.34.14-.6.44-.76.9-.54 2-.81 3.17-.81 3.5 0 .25.07.43.22.54s.3.16.48.16c.33 0 .67-.15.99-.45s.55-.67.67-1.1c.03-.09.05-.14.08-.15s.1-.02.22-.03h.05c.14 0 .2.04.2.11 0 0 0 .06-.03.15-.14.52-.43.97-.84 1.37-.42.4-.9.6-1.45.6-.63 0-1.11-.29-1.44-.86-.37.56-.8.84-1.28.84h-.08c-.44 0-.76-.12-.95-.35-.19-.24-.29-.48-.3-.75 0-.29.09-.52.26-.71.17-.18.38-.27.61-.27.39 0 .58.19.58.57 0 .18-.05.34-.16.48s-.21.23-.31.27-.16.07-.18.07h-.04s.03.04.08.07.13.06.22.1.18.05.26.04c.33 0 .61-.2.84-.61.08-.14.19-.45.31-.92.13-.47.25-.96.38-1.47s.2-.81.22-.9c.05-.24.07-.42.07-.53 0-.25-.07-.43-.2-.54s-.29-.16-.46-.16c-.36 0-.7.14-1.02.43s-.54.66-.67 1.11c-.02.08-.04.13-.07.14s-.1.02-.22.03h-.19c-.05-.05-.08-.1-.08-.15z"/><path id="av" d="m171.42 71.47c0-1.1.37-2.01 1.11-2.71.74-.71 1.62-1.11 2.63-1.21h.23c.14 0 .33 0 .57-.01s.46 0 .68 0h1.34c.14.07.2.16.2.27 0 .08-.06.17-.18.26h-1.41c-1 .02-1.62.05-1.86.1-.44.11-.84.27-1.18.49s-.61.44-.8.67-.35.48-.49.75-.22.49-.24.65-.05.32-.07.46v.03h6.03c.14.07.2.16.2.27s-.07.2-.2.27h-6.03v.03c0 .19.05.42.14.69s.24.57.45.88c.21.32.5.61.87.87s.81.45 1.32.56c.24.05.87.09 1.87.1h1.41c.12.09.18.18.18.27 0 .11-.07.2-.2.27h-1.66c-.16 0-.29 0-.39.01-1.4 0-2.51-.39-3.33-1.17-.8-.74-1.19-1.67-1.19-2.78z"/><path id="aw" d="m192.39 73.08c0 .05-.05.15-.16.3s-.29.32-.53.52-.52.39-.81.57c-.3.18-.68.33-1.14.46s-.93.19-1.4.19c-.51 0-1-.07-1.49-.22-.49-.14-.95-.37-1.38-.67s-.81-.7-1.13-1.19c-.32-.5-.53-1.07-.64-1.72-.05-.2-.07-.56-.07-1.09s.02-.89.07-1.09c.2-1.06.65-1.92 1.34-2.58.7-.66 1.59-1.06 2.69-1.19.03 0 .13 0 .31-.01s.32-.01.42-.01c.49.03.98.14 1.47.33s.86.29 1.11.3c.16 0 .28-.03.35-.1s.11-.14.12-.22.03-.15.07-.22.1-.1.19-.11c.1 0 .18.05.24.16v2.84l-.05.1c-.12.06-.23.07-.34.03-.04-.04-.08-.14-.14-.33s-.16-.38-.31-.61c-.3-.42-.7-.8-1.19-1.14-.5-.34-1.03-.52-1.59-.52h-.12c-.4 0-.77.17-1.11.52-.79.71-1.18 2.01-1.18 3.92 0 .79.1 1.5.29 2.13.37 1.35 1.15 2.02 2.33 2.02s2.23-.45 3.2-1.36c.15-.15.27-.23.34-.23.05 0 .1.02.15.05s.09.09.1.16zm-5.89-6.7c.13-.16.18-.24.15-.24-.21.07-.42.18-.64.31s-.46.32-.72.56-.49.55-.69.94-.34.82-.42 1.3c-.05.27-.07.6-.07.99s.02.72.07.99c.09.5.24.95.46 1.34s.45.71.69.92.48.4.72.54.43.24.58.3l.23.07c-.06-.06-.12-.13-.18-.19-.59-.57-.96-1.5-1.13-2.8-.03-.24-.04-.65-.04-1.22s.01-.98.04-1.22c.17-1.13.48-2 .94-2.59zm5.04.81v-.81s-.07.03-.11.03c-.09.04-.19.05-.31.05h-.2l.18.19c.18.2.28.32.3.35l.15.19z"/><path id="ax" d="m196.69 64.94c0-.08.03-.14.08-.19s.11-.07.18-.07c.09 0 .17.05.23.14.04.06.84 2.26 2.42 6.58 1.57 4.33 2.36 6.52 2.36 6.6s-.03.13-.08.18-.12.07-.19.08c-.09 0-.17-.05-.23-.14-.03-.04-.83-2.22-2.4-6.54-1.57-4.33-2.36-6.54-2.36-6.64z"/><path id="ay" d="m205.96 65.83c0-.06.05-.14.15-.24h2.62c1.76.02 2.74.05 2.96.08.2.04.39.08.57.14s.34.11.48.18.26.13.38.2.22.14.3.22.16.14.24.22.14.14.18.2.08.13.14.19.09.12.1.18.03.1.05.15l.04.08c.05.16.07.39.07.69 0 .45-.06.81-.18 1.06-.32.64-.95 1.06-1.9 1.26l-.24.07c.06.1.14.23.24.39s.3.46.6.9.57.82.83 1.15c.25.33.52.65.8.94s.5.46.67.5c.17.05.26.13.26.26 0 .08-.05.16-.16.23h-2.48c-.06-.06-.54-.79-1.44-2.17l-1.33-2.05h-.52v1.72c.02 1.05.03 1.61.04 1.68.03.15.12.25.27.29.04 0 .16.02.38.04.23 0 .38.03.46.1.08.1.08.21 0 .34l-.1.05h-4.32c-.11-.05-.16-.13-.16-.23 0-.17.18-.26.53-.26.37-.03.58-.1.62-.23.05-.07.07-1.38.07-3.92s-.02-3.86-.07-3.95c-.05-.12-.26-.19-.62-.22-.34 0-.52-.08-.52-.23zm3.04 8.56c-.03-.06-.05-.11-.05-.14s-.02-.18-.03-.45-.02-.66-.03-1.15v-2.36-3.86l.05-.19.1-.18h-1.51c.03.06.05.11.05.14s.02.19.03.48.02.68.03 1.17 0 1.29 0 2.39c0 1.9 0 3.04-.01 3.42s-.04.62-.08.71c0 0-.01.02-.01.03h1.47zm2.93-6.26c0-.4-.04-.73-.11-1s-.18-.48-.33-.61-.26-.22-.34-.26-.19-.08-.31-.12c-.03 0-.2-.02-.52-.07-.35 0-.62.06-.79.18-.09.06-.14.18-.15.34s-.02.75-.03 1.75v1.83h.22c.39 0 .8-.03 1.24-.08.42-.11.71-.29.87-.54s.24-.72.24-1.41zm.48-.56v.56c0 .37-.02.68-.05.94s-.08.43-.14.52-.1.17-.12.24-.05.12-.07.14c0 0 0 .01.01.01.04 0 .18-.05.43-.14.87-.27 1.3-.84 1.3-1.7s-.52-1.49-1.57-1.83l-.27-.1.05.15c.12.14.24.43.37.88.04.22.05.51.05.88v-.56zm-.38 3.99c-.48-.67-.72-1-.73-1-.05 0-.1 0-.12.03-.15 0-.29.01-.42.04h-.33l2.44 3.76h1.26l-.18-.2c-.48-.53-1.12-1.41-1.93-2.62z"/></g></g></svg>
