<svg viewBox="0 0 152.13 56.71" xmlns="http://www.w3.org/2000/svg"><g id="a"><g><g><g><path id="b" d="m69.96 12.53c.48-.04.85-.29 1.11-.76s.41-1.02.43-1.66v-.2h.54v2.5h1.83v.62h-1.83v1.95c0 1.13.01 1.77.01 1.91s.03.29.1.43c.13.35.35.53.67.53.4 0 .64-.32.73-.96 0-.07.01-.28.01-.62v-.48h.54v.64c0 .7-.19 1.23-.57 1.59-.24.24-.56.37-.95.37-.31 0-.57-.05-.8-.16s-.4-.25-.52-.42-.2-.33-.26-.48c-.05-.14-.09-.29-.1-.43 0-.06-.01-.73-.01-2.01v-1.86h-1.07v-.5h.12z"/><path id="c" d="m76.73 14.12h-.3c-.2 0-.37-.07-.5-.2s-.2-.31-.2-.53c0-.32.15-.6.46-.84s.86-.37 1.64-.37c.66 0 1.19.14 1.6.43s.68.63.81 1.03c.05.13.07.27.07.42s0 .67.01 1.56v.95c0 .43.02.73.07.9s.14.24.29.24c.14 0 .23-.07.27-.22.05-.14.07-.38.07-.72v-.49h.54v.53c0 .36-.02.57-.04.64-.08.27-.24.48-.48.64-.24.15-.48.24-.75.24s-.48-.07-.64-.24-.27-.36-.33-.57v-.05l-.03.04s-.04.05-.07.08-.06.07-.11.12-.1.1-.16.15-.13.1-.2.16-.15.11-.24.15-.19.07-.3.11-.23.06-.35.08c-.13.02-.27.03-.42.04-.54 0-1.03-.14-1.47-.42-.43-.28-.65-.67-.65-1.18 0-.19.03-.37.1-.54s.19-.36.37-.56.4-.37.65-.5c.25-.14.61-.26 1.06-.38s.95-.19 1.49-.2h.19v-.3c0-.31-.03-.53-.08-.68-.2-.64-.64-.96-1.32-.96-.16 0-.32 0-.46.01s-.26.03-.34.05-.12.04-.11.04c.2.14.3.33.3.6 0 .23-.07.4-.22.53l-.23.2zm-.14 2.7c0 .28.11.53.33.75s.48.33.8.34c.34 0 .65-.1.91-.31s.44-.48.53-.81c.02-.06.03-.36.04-.9 0-.52 0-.79-.01-.79-.07 0-.17 0-.29.01s-.32.05-.61.12-.55.16-.79.27-.44.28-.62.5-.28.5-.29.81z"/><path id="d" d="m82.22 17.63h.19c.35 0 .57-.06.64-.19v-.84c0-.15 0-.33.01-.53s0-.39 0-.57v-.9c0-.32 0-.58-.01-.8v-.31c-.03-.17-.09-.29-.19-.34s-.3-.1-.61-.12h-.24v-.31c0-.21 0-.31.03-.31h.14c.09-.02.22-.03.38-.04s.33-.02.5-.03c.15 0 .32-.02.49-.03.17 0 .3-.02.39-.04s.14-.02.15-.01h.04v.54c0 .34 0 .52.01.52s.03-.02.07-.07.09-.11.16-.2.16-.17.26-.24.23-.16.39-.26.33-.17.52-.22.41-.07.69-.07c1.03.04 1.61.55 1.72 1.53 0 .06.01.69.01 1.89v1.17c0 .34 0 .55.03.61s.07.11.15.14c.19.03.41.04.67.04h.22v.62h-.43c-.21-.02-.43-.03-.68-.03s-.42 0-.52-.01c-.93 0-1.44.01-1.52.04h-.11v-.62h.22c.55 0 .83-.07.83-.22 0-.02.01-.64.01-1.87 0-1.22-.02-1.87-.03-1.94-.05-.25-.14-.44-.27-.57s-.24-.2-.33-.23-.21-.04-.35-.03c-.41 0-.76.15-1.07.46-.24.24-.4.49-.46.75s-.1.63-.11 1.13v1.68c0 .27 0 .45.01.54 0 .09.02.15.04.18s.06.05.12.08c.19.03.41.04.67.04h.22v.62h-.42c-.22-.02-.45-.03-.69-.03s-.42 0-.52-.01c-.93 0-1.44.01-1.52.04h-.11v-.62h.22z"/></g><path id="e" d="m93.31 14.33c.06-.38.31-.82.73-1.32.43-.5.95-.75 1.57-.76.32 0 .61.08.87.24s.46.37.58.61c.38-.57.84-.86 1.37-.86.33 0 .62.1.87.3s.37.47.38.8c0 .26-.06.48-.19.64s-.25.26-.37.3-.22.05-.31.05c-.17 0-.31-.05-.42-.15s-.16-.23-.16-.39c0-.42.23-.7.68-.86-.1-.12-.28-.18-.54-.18-.12 0-.2 0-.26.03-.34.14-.6.44-.76.9-.54 2-.81 3.17-.81 3.5 0 .25.07.43.22.54s.3.16.48.16c.33 0 .67-.15.99-.45s.55-.67.67-1.1c.03-.09.05-.14.08-.15s.1-.02.22-.03h.05c.14 0 .2.04.2.11 0 0 0 .06-.03.15-.14.52-.43.97-.84 1.37-.42.4-.9.6-1.45.6-.63 0-1.11-.29-1.44-.86-.37.56-.8.84-1.28.84h-.08c-.44 0-.76-.12-.95-.35-.19-.24-.29-.48-.3-.75 0-.29.09-.52.26-.71.17-.18.38-.27.61-.27.39 0 .58.19.58.57 0 .18-.05.34-.16.48s-.21.23-.31.27-.16.07-.18.07h-.04s.03.04.08.07.13.06.22.1.18.05.26.04c.33 0 .61-.2.84-.61.08-.14.19-.45.31-.92.13-.47.25-.96.38-1.47s.2-.81.22-.9c.05-.24.07-.42.07-.53 0-.25-.07-.43-.2-.54s-.29-.16-.46-.16c-.36 0-.7.14-1.02.43s-.54.66-.67 1.11c-.02.08-.04.13-.07.14s-.1.02-.22.03h-.19c-.05-.05-.08-.1-.08-.15z"/><path id="f" d="m104.9 13.55c0-.12.06-.21.19-.27h8.65c.14.07.2.16.2.27 0 .1-.06.19-.19.26h-4.32s-4.32.01-4.32.01c-.14-.05-.22-.14-.22-.27zm0 2.63c0-.14.07-.23.22-.27h8.63c.13.09.19.18.19.27 0 .12-.07.21-.2.27h-8.65c-.13-.06-.19-.15-.19-.27z"/><g><g><g><path id="g" d="m126.21 4.79c0-.36-.12-.67-.37-.94s-.6-.39-1.06-.39c-.33 0-.61.06-.84.18-.27.17-.41.41-.41.71v.18s.08.18.22.33.33.26.58.34c.16.05.36.09.6.12s.43.08.6.12.31.1.43.18c.15.07.3.16.45.27s.29.29.43.56.22.54.23.84c0 .56-.17 1.02-.52 1.38-.34.36-.9.55-1.67.56h-.11c-.47 0-.9-.16-1.3-.49l-.11.1-.12.12c-.05.05-.11.1-.16.15l-.15.14h-.16s-.07-.03-.12-.08v-1.86c0-.19 0-.3.03-.34s.06-.06.14-.07h.12c.11 0 .18.02.22.05s.06.09.07.16.04.19.1.37c.05.17.14.36.26.57.32.46.76.69 1.32.69.88 0 1.32-.35 1.32-1.06 0-.26-.08-.48-.24-.64-.18-.22-.56-.38-1.13-.49s-.95-.21-1.13-.31c-.33-.15-.58-.36-.77-.62s-.29-.54-.29-.84c0-.35.08-.65.23-.9s.35-.43.58-.54.46-.2.68-.24.42-.07.6-.07h.15c.36 0 .68.07.95.2l.2.11.12-.1c.09-.08.19-.16.3-.23h.16s.07.03.12.08v1.79l-.08.08h-.38c-.05-.05-.08-.11-.08-.16z"/><path id="h" d="m128.49.81c0-.25.08-.45.24-.6s.36-.22.6-.22c.21.02.39.1.54.23s.23.33.23.58c0 .27-.08.48-.23.61s-.34.2-.57.2-.42-.07-.57-.2-.24-.34-.24-.61zm2.41 8.27c-.14-.03-.61-.04-1.41-.04h-.5c-.24 0-.46 0-.68.03h-.3s-.11.01-.11.01v-.62h.22c.25 0 .48-.01.67-.04.08-.04.13-.09.15-.15s.03-.25.03-.57v-2.59c0-.47 0-.77-.03-.9s-.08-.21-.19-.26c-.13-.06-.34-.1-.64-.1h-.15v-.31c0-.21 0-.31.03-.31h.14c.09-.02.22-.03.38-.04s.33-.02.49-.03c.15 0 .32-.02.49-.03s.3-.02.39-.04.14-.02.15-.01h.04v5.16c.05.09.1.14.16.16s.22.04.48.05h.31v.62h-.11z"/><path id="i" d="m131.88 8.46h.19c.35 0 .57-.06.64-.19v-.84c0-.15 0-.33.01-.53s0-.39 0-.57v-.9c0-.32 0-.58-.01-.8v-.31c-.03-.17-.09-.29-.19-.34s-.3-.1-.61-.12h-.24v-.31c0-.21 0-.31.03-.31h.14c.09-.02.22-.03.38-.04s.33-.02.5-.03c.15 0 .32-.02.49-.03.17 0 .3-.02.39-.04s.14-.02.15-.01h.04v.54c0 .34 0 .52.01.52s.03-.02.07-.07.09-.11.16-.2.16-.17.26-.24.23-.16.39-.26.33-.17.52-.22.41-.07.69-.07c1.03.04 1.61.55 1.72 1.53 0 .06.01.69.01 1.89v1.17c0 .34 0 .55.03.61s.07.11.15.14c.19.03.41.04.67.04h.22v.62h-.43c-.21-.02-.43-.03-.68-.03s-.42 0-.52-.01c-.93 0-1.44.01-1.52.04h-.11v-.62h.22c.55 0 .83-.07.83-.22 0-.02.01-.64.01-1.87 0-1.22-.02-1.87-.03-1.94-.05-.25-.14-.44-.27-.57s-.24-.2-.33-.23-.21-.04-.35-.03c-.41 0-.76.15-1.07.46-.24.24-.4.49-.46.75s-.1.63-.11 1.13v1.68c0 .27 0 .45.01.54 0 .09.02.15.04.18s.06.05.12.08c.19.03.41.04.67.04h.22v.62h-.42c-.22-.02-.45-.03-.69-.03s-.42 0-.52-.01c-.93 0-1.44.01-1.52.04h-.11v-.62h.22z"/></g><path id="j" d="m142.97 5.16c.06-.38.31-.82.73-1.32.43-.5.95-.75 1.57-.76.32 0 .61.08.87.24s.46.37.58.61c.38-.57.84-.86 1.37-.86.33 0 .62.1.87.3s.37.47.38.8c0 .26-.06.48-.19.64s-.25.26-.37.3-.22.05-.31.05c-.17 0-.31-.05-.42-.15s-.16-.23-.16-.39c0-.42.23-.7.68-.86-.1-.12-.28-.18-.54-.18-.12 0-.2 0-.26.03-.34.14-.6.44-.76.9-.54 2-.81 3.17-.81 3.5 0 .25.07.43.22.54s.3.16.48.16c.33 0 .67-.15.99-.45s.55-.67.67-1.1c.03-.09.05-.14.08-.15s.1-.02.22-.03h.05c.14 0 .2.04.2.11 0 0 0 .06-.03.15-.14.52-.43.97-.84 1.37-.42.4-.9.6-1.45.6-.63 0-1.11-.29-1.44-.86-.37.56-.8.84-1.28.84h-.08c-.44 0-.76-.12-.95-.35-.19-.24-.29-.48-.3-.75 0-.29.09-.52.26-.71.17-.18.38-.27.61-.27.39 0 .58.19.58.57 0 .18-.05.34-.16.48s-.21.23-.31.27-.16.07-.18.07h-.04s.03.04.08.07.13.06.22.1.18.05.26.04c.33 0 .61-.2.84-.61.08-.14.19-.45.31-.92.13-.47.25-.96.38-1.47s.2-.81.22-.9c.05-.24.07-.42.07-.53 0-.25-.07-.43-.2-.54s-.29-.16-.46-.16c-.36 0-.7.14-1.02.43s-.54.66-.67 1.11c-.02.08-.04.13-.07.14s-.1.02-.22.03h-.19c-.05-.05-.08-.1-.08-.15z"/></g><g><g><path id="k" d="m126.48 23.43h-.29c-.19 0-.35-.07-.49-.2s-.21-.31-.22-.52c0-.21.07-.38.2-.52.05-.05.07-.07.07-.08s-.05-.02-.14-.03c-.24-.04-.46-.05-.67-.05-.44 0-.81.14-1.09.43-.43.43-.64 1.14-.64 2.13 0 .74.14 1.33.42 1.75.37.55.87.83 1.49.83.37 0 .67-.12.9-.35.23-.24.39-.52.49-.84.02-.07.04-.12.07-.14s.1-.03.22-.03h.19c.05.05.08.1.08.12 0 .04-.02.11-.05.22s-.11.26-.22.45-.24.36-.39.52c-.15.15-.37.29-.65.42s-.59.19-.94.18c-.78 0-1.46-.29-2.04-.87s-.87-1.31-.88-2.19c0-.94.29-1.71.88-2.29.59-.59 1.27-.88 2.05-.88s1.32.12 1.63.37.46.53.46.87c0 .21-.08.38-.23.5l-.23.2z"/><path id="l" d="m127.86 24.66c0-.86.29-1.6.88-2.23.59-.62 1.3-.94 2.13-.95.81 0 1.52.31 2.1.92s.89 1.36.9 2.24c0 .86-.29 1.58-.87 2.17s-1.29.88-2.13.88-1.6-.3-2.16-.91-.85-1.32-.86-2.13zm3.02 2.5c1.1 0 1.66-.74 1.66-2.21v-.77c0-.2 0-.37-.01-.52s-.04-.32-.1-.52-.13-.36-.22-.49-.23-.25-.42-.38-.41-.22-.67-.27c-.05 0-.12-.01-.22-.01-.27 0-.53.05-.77.16-.39.2-.64.48-.76.83s-.18.77-.18 1.25v.27c0 .87.09 1.48.26 1.83.29.55.76.83 1.43.83z"/><path id="m" d="m138.27 23.28c0-.36-.12-.67-.37-.94s-.6-.39-1.06-.39c-.33 0-.61.06-.84.18-.27.17-.41.41-.41.71v.18s.08.18.22.33.33.26.58.34c.16.05.36.09.6.12s.43.08.6.12.31.1.43.18c.15.07.3.16.45.27s.29.29.43.56.22.54.23.84c0 .56-.17 1.02-.52 1.38-.34.36-.9.55-1.67.56h-.11c-.47 0-.9-.16-1.3-.49l-.11.1-.12.12c-.05.05-.11.1-.16.15l-.15.14h-.16s-.07-.03-.12-.08v-1.86c0-.19 0-.3.03-.34s.06-.06.14-.07h.12c.11 0 .18.02.22.05s.06.09.07.16.04.19.1.37c.05.17.14.36.26.57.32.46.76.69 1.32.69.88 0 1.32-.35 1.32-1.06 0-.26-.08-.48-.24-.64-.18-.22-.56-.38-1.13-.49s-.95-.21-1.13-.31c-.33-.15-.58-.36-.77-.62s-.29-.54-.29-.84c0-.35.08-.65.23-.9s.35-.43.58-.54.46-.2.68-.24.42-.07.6-.07h.15c.36 0 .68.07.95.2l.2.11.12-.1c.09-.08.19-.16.3-.23h.16s.07.03.12.08v1.79l-.08.08h-.38c-.05-.05-.08-.11-.08-.16z"/></g><path id="n" d="m143.72 23.65c.06-.38.31-.82.73-1.32.43-.5.95-.75 1.57-.76.32 0 .61.08.87.24s.46.37.58.61c.38-.57.84-.86 1.37-.86.33 0 .62.1.87.3s.37.47.38.8c0 .26-.06.48-.19.64s-.25.26-.37.3-.22.05-.31.05c-.17 0-.31-.05-.42-.15s-.16-.23-.16-.39c0-.42.23-.7.68-.86-.1-.12-.28-.18-.54-.18-.12 0-.2 0-.26.03-.34.14-.6.44-.76.9-.54 2-.81 3.17-.81 3.5 0 .25.07.43.22.54s.3.16.48.16c.33 0 .67-.15.99-.45s.55-.67.67-1.1c.03-.09.05-.14.08-.15s.1-.02.22-.03h.05c.14 0 .2.04.2.11 0 0 0 .06-.03.15-.14.52-.43.97-.84 1.37-.42.4-.9.6-1.45.6-.63 0-1.11-.29-1.44-.86-.37.56-.8.84-1.28.84h-.08c-.44 0-.76-.12-.95-.35-.19-.24-.29-.48-.3-.75 0-.29.09-.52.26-.71.17-.18.38-.27.61-.27.39 0 .58.19.58.57 0 .18-.05.34-.16.48s-.21.23-.31.27-.16.07-.18.07h-.04s.03.04.08.07.13.06.22.1.18.05.26.04c.33 0 .61-.2.84-.61.08-.14.19-.45.31-.92.13-.47.25-.96.38-1.47s.2-.81.22-.9c.05-.24.07-.42.07-.53 0-.25-.07-.43-.2-.54s-.29-.16-.46-.16c-.36 0-.7.14-1.02.43s-.54.66-.67 1.11c-.02.08-.04.13-.07.14s-.1.02-.22.03h-.19c-.05-.05-.08-.1-.08-.15z"/></g><rect x="120.1" y="14.46" width="32.03" height=".81"/></g></g><g><path id="o" d="m.23 43.47c.06-.38.31-.82.73-1.32.43-.5.95-.75 1.57-.76.32 0 .61.08.87.24s.46.37.58.61c.38-.57.84-.86 1.37-.86.33 0 .62.1.87.3s.37.47.38.8c0 .26-.06.48-.19.64s-.25.26-.37.3-.22.05-.31.05c-.17 0-.31-.05-.42-.15s-.16-.23-.16-.39c0-.42.23-.7.68-.86-.1-.12-.28-.18-.54-.18-.12 0-.2 0-.26.03-.34.14-.6.44-.76.9-.54 2-.81 3.17-.81 3.5 0 .25.07.43.22.54s.3.16.48.16c.33 0 .67-.15.99-.45s.55-.67.67-1.1c.03-.09.05-.14.08-.15s.1-.02.22-.03h.05c.14 0 .2.04.2.11 0 0 0 .06-.03.15-.14.52-.43.97-.84 1.37-.42.4-.9.6-1.45.6-.63 0-1.11-.29-1.44-.86-.37.56-.8.84-1.28.84h-.08c-.44 0-.76-.12-.95-.35-.19-.24-.29-.48-.3-.75 0-.29.09-.52.26-.71.17-.18.38-.27.61-.27.39 0 .58.19.58.57 0 .18-.05.34-.16.48s-.21.23-.31.27-.16.07-.18.07h-.04s.03.04.08.07.13.06.22.1.18.05.26.04c.33 0 .61-.2.84-.61.08-.14.19-.45.31-.92.13-.47.25-.96.38-1.47s.2-.81.22-.9c.05-.24.07-.42.07-.53 0-.25-.07-.43-.2-.54s-.29-.16-.46-.16c-.36 0-.7.14-1.02.43s-.54.66-.67 1.11c-.02.08-.04.13-.07.14s-.1.02-.22.03h-.19c-.05-.05-.08-.1-.08-.15z"/><path id="p" d="m12.2 44c0-1.1.37-2.01 1.11-2.71.74-.71 1.62-1.11 2.63-1.21h.23c.14 0 .33 0 .57-.01s.46 0 .68 0h1.34c.14.07.2.16.2.27 0 .08-.06.17-.18.26h-1.41c-1 .02-1.62.05-1.86.1-.44.11-.84.27-1.18.49s-.61.44-.8.67-.35.48-.49.75-.22.49-.24.65-.05.32-.07.46v.03h6.03c.14.07.2.16.2.27s-.07.2-.2.27h-6.03v.03c0 .19.05.42.14.69s.24.57.45.88c.21.32.5.61.87.87s.81.45 1.32.56c.24.05.87.09 1.87.1h1.41c.12.09.18.18.18.27 0 .11-.07.2-.2.27h-1.66c-.16 0-.29 0-.39.01-1.4 0-2.51-.39-3.33-1.17-.8-.74-1.19-1.67-1.19-2.78z"/><path id="q" d="m33.17 45.62c0 .05-.05.15-.16.3s-.29.32-.53.52-.52.39-.81.57c-.3.18-.68.33-1.14.46s-.93.19-1.4.19c-.51 0-1-.07-1.49-.22-.49-.14-.95-.37-1.38-.67s-.81-.7-1.13-1.19c-.32-.5-.53-1.07-.64-1.72-.05-.2-.07-.56-.07-1.09s.02-.89.07-1.09c.2-1.06.65-1.92 1.34-2.58.7-.66 1.59-1.06 2.69-1.19.03 0 .13 0 .31-.01s.32-.01.42-.01c.49.03.98.14 1.47.33s.86.29 1.11.3c.16 0 .28-.03.35-.1s.11-.14.12-.22.03-.15.07-.22.1-.1.19-.11c.1 0 .18.05.24.16v2.84l-.05.1c-.12.06-.23.07-.34.03-.04-.04-.08-.14-.14-.33s-.16-.38-.31-.61c-.3-.42-.7-.8-1.19-1.14-.5-.34-1.03-.52-1.59-.52h-.12c-.4 0-.77.17-1.11.52-.79.71-1.18 2.01-1.18 3.92 0 .79.1 1.5.29 2.13.37 1.35 1.15 2.02 2.33 2.02s2.23-.45 3.2-1.36c.15-.15.27-.23.34-.23.05 0 .1.02.15.05s.09.09.1.16zm-5.89-6.71c.13-.16.18-.24.15-.24-.21.07-.42.18-.64.31s-.46.32-.72.56-.49.55-.69.94-.34.82-.42 1.3c-.05.27-.07.6-.07.99s.02.72.07.99c.09.5.24.95.46 1.34s.45.71.69.92.48.4.72.54.43.24.58.3l.23.07c-.06-.06-.12-.13-.18-.19-.59-.57-.96-1.5-1.13-2.8-.03-.24-.04-.65-.04-1.22s.01-.98.04-1.22c.17-1.13.48-2 .94-2.59zm5.03.81v-.81s-.07.03-.11.03c-.09.04-.19.05-.31.05h-.2l.18.19c.18.2.28.32.3.35l.15.19z"/><path id="r" d="m37.46 37.47c0-.08.03-.14.08-.19s.11-.07.18-.07c.09 0 .17.05.23.14.04.06.84 2.26 2.42 6.58 1.57 4.33 2.36 6.52 2.36 6.6s-.03.13-.08.18-.12.07-.19.08c-.09 0-.17-.05-.23-.14-.03-.04-.83-2.22-2.4-6.54-1.57-4.33-2.36-6.54-2.36-6.64z"/><g><path id="s" d="m53.93 56.12-.08.08h-.18c-.12 0-.23-.02-.34-.05-1.62-.57-2.57-1.38-2.85-2.43-.04-.15-.05-.33-.05-.52s0-1.22-.03-3.09v-3.28s-.04-.15-.04-.15c-.09-.41-.25-.78-.49-1.11s-.47-.58-.71-.75-.46-.31-.68-.43l-.34-.18s-.03-.1-.03-.2c0-.11 0-.18.03-.22s.07-.07.16-.1c1.17-.57 1.85-1.37 2.05-2.39l.03-.15v-3.27c.01-.33.01-.75.01-1.26 0-1.4.03-2.17.07-2.29 0-.03.01-.05.01-.05.29-1.02 1.26-1.84 2.92-2.46.07-.02.16-.03.26-.03h.19l.08.08v.19c0 .12 0 .19-.01.2s-.05.05-.14.08c-.51.21-.95.49-1.34.86-.39.36-.64.8-.76 1.3l-.03.14v3.27c-.01.38-.01.86-.01 1.43 0 1.29-.03 1.99-.05 2.12 0 0-.01.02-.01.03-.21.8-.8 1.49-1.76 2.09-.46.23-.72.35-.77.38l-.14.04.16.08c.21.08.42.18.62.3s.45.27.72.46.51.43.72.73.36.62.45.95c0 0 0 .02.01.03.03.13.05.83.05 2.12v4.68s.04.15.04.15c.11.5.36.93.75 1.29s.84.65 1.36.87c.07.03.11.05.12.07s.02.09.03.22v.19z"/><path id="t" d="m57.2 38.61c0-.09.02-.19.05-.31s.09-.18.16-.18c0 0 .33-.02.98-.07.64-.05.97-.07.99-.08.11 0 .16.04.16.11 0 .06-.23 1.01-.68 2.84-.45 1.79-.68 2.72-.68 2.78.17-.09.3-.18.39-.26.22-.16.53-.45.94-.86s.72-.68.95-.83c.36-.24.71-.37 1.03-.37.27 0 .48.09.64.26s.24.42.24.73c0 .23-.03.42-.1.57s-.15.27-.26.34-.2.12-.29.15-.16.04-.24.04c-.18 0-.33-.05-.43-.15s-.16-.23-.16-.39c0-.23.07-.41.22-.56s.29-.24.43-.29l.22-.04c-.11-.11-.22-.16-.33-.16h-.05c-.29.03-.57.14-.86.34s-.61.49-.99.87-.68.66-.9.83c.02 0 .09.02.2.04s.23.05.33.08.22.07.35.11.26.1.37.19.21.17.3.24.17.19.23.35.09.31.08.45c0 .15-.02.34-.07.56s-.07.4-.08.54c0 .36.12.54.37.54.43 0 .79-.54 1.06-1.62.02-.07.11-.11.27-.11h.05c.14 0 .22.04.22.12 0 .05-.01.11-.04.19-.37 1.28-.9 1.91-1.6 1.91-.41 0-.74-.12-.99-.35-.25-.24-.38-.57-.38-1.02 0-.16.01-.3.04-.42s.04-.23.04-.33c0-.2-.06-.37-.19-.52s-.29-.25-.48-.31-.34-.11-.46-.15-.2-.05-.24-.04h-.03c-.11.38-.2.75-.29 1.1s-.14.62-.19.79-.09.34-.12.5-.07.27-.1.33-.06.11-.1.18c-.04.06-.09.1-.15.12-.12.08-.24.12-.38.12-.15 0-.27-.05-.35-.14s-.12-.17-.12-.23c0-.09.17-.81.5-2.17s.67-2.69.99-4l.5-1.97c0-.12-.02-.19-.1-.22s-.25-.05-.53-.07h-.24s-.06-.01-.1-.04-.05-.06-.04-.1z"/><path id="u" d="m64.42 47.54c-.31 0-.46-.15-.46-.45v-.15l.18-.38c.68-1.43 1.17-2.67 1.48-3.71l.11-.33h-.43c-.34 0-.59.01-.73.04s-.32.11-.53.26c-.1.06-.2.14-.3.24s-.19.19-.26.29c-.07.09-.11.14-.12.16-.02 0-.09.01-.2.01-.17 0-.26-.05-.26-.14 0-.05.09-.21.26-.48.17-.26.42-.54.75-.84s.65-.47.96-.52c.06-.02 1.08-.03 3.05-.03 1.45 0 2.19 0 2.23.01.18.06.27.19.27.38 0 .28-.14.47-.43.57-.05.02-.37.03-.94.03h-.87l-.04.23c-.11.65-.16 1.19-.16 1.62 0 .47.04.89.12 1.26s.17.66.26.87.14.33.14.38c0 .15-.06.3-.19.43s-.29.2-.49.2c-.1 0-.18-.01-.24-.04s-.14-.14-.22-.33-.15-.46-.22-.81c0-.08-.01-.28-.01-.6 0-.44.04-.92.12-1.43s.16-.92.24-1.25.13-.51.14-.54h-1.33v.05s-.1.38-.27 1.07-.37 1.42-.58 2.19c-.22.77-.36 1.21-.42 1.32-.1.25-.29.38-.58.38z"/><path id="v" d="m74.14 44.18v-.18c0-.12.06-.21.19-.27h4.06v-4.07c.1-.12.19-.18.27-.18.12 0 .21.07.27.2v4.05h4.05c.14.07.2.16.2.27s-.07.2-.2.27h-4.05v4.05c-.07.13-.15.19-.24.19h-.05c-.11 0-.19-.06-.24-.19v-4.05h-4.06c-.13-.06-.19-.15-.19-.27v.18z"/><g><path id="w" d="m91.74 38.37c-.31 0-.46-.15-.46-.45v-.15l.18-.38c.68-1.43 1.17-2.67 1.48-3.71l.11-.33h-.43c-.34 0-.59.01-.73.04s-.32.11-.53.26c-.1.06-.2.14-.3.24s-.19.19-.26.29c-.07.09-.11.14-.12.16-.02 0-.09.01-.2.01-.17 0-.26-.05-.26-.14 0-.05.09-.21.26-.48.17-.26.42-.54.75-.84s.65-.47.96-.52c.06-.02 1.08-.03 3.05-.03 1.45 0 2.19 0 2.23.01.18.06.27.19.27.38 0 .28-.14.47-.43.57-.05.02-.37.03-.94.03h-.87l-.04.23c-.11.65-.16 1.19-.16 1.62 0 .47.04.89.12 1.26s.17.66.26.87.14.33.14.38c0 .15-.06.3-.19.43s-.29.2-.49.2c-.1 0-.18-.01-.24-.04s-.14-.14-.22-.33-.15-.46-.22-.81c0-.08-.01-.28-.01-.6 0-.44.04-.92.12-1.43s.16-.92.24-1.25.13-.51.14-.54h-1.33v.05s-.1.38-.27 1.07-.37 1.42-.58 2.19c-.22.77-.36 1.21-.42 1.32-.1.25-.29.38-.58.38z"/><path id="x" d="m91.9 50.88c-.24 0-.44-.08-.58-.24s-.22-.36-.22-.6c0-.64.24-1.2.72-1.67s1.08-.71 1.79-.71c.82 0 1.51.25 2.06.76s.83 1.16.84 1.97c0 .39-.09.76-.27 1.11s-.4.66-.65.92-.62.6-1.09 1c-.33.28-.78.7-1.36 1.25l-.8.76h1.03c1.42.01 2.18 0 2.27-.05.06-.02.17-.42.33-1.21v-.04h.54v.04s-.07.44-.18 1.24-.18 1.21-.2 1.25v.04h-5.04v-.42c0-.06.03-.13.08-.2s.19-.23.41-.48c.26-.29.49-.54.68-.76.08-.09.24-.26.46-.5s.38-.41.46-.5.21-.24.39-.45.31-.36.38-.46.18-.24.31-.41.23-.32.29-.43.12-.25.2-.39.14-.29.18-.43.07-.28.1-.41.04-.28.04-.45c0-.57-.15-1.06-.46-1.48s-.75-.62-1.32-.62c-.3 0-.56.08-.79.23s-.38.3-.48.45-.14.23-.14.26c0 0 .02.01.07.01.16 0 .33.06.5.19s.26.33.26.62c0 .23-.07.42-.22.57s-.35.24-.61.24z"/><rect x="88.59" y="43.59" width="10.45" height=".81"/></g><path id="y" d="m106.33 50.77h-.03c-.11 0-.19-.06-.24-.19v-13.19c.1-.12.19-.18.27-.18.12 0 .21.07.27.2v13.17c-.07.13-.15.19-.24.19h-.03z"/><path id="z" d="m113.63 38.61c0-.09.02-.19.05-.31s.09-.18.16-.18c0 0 .33-.02.98-.07.64-.05.97-.07.99-.08.11 0 .16.04.16.11 0 .06-.23 1.01-.68 2.84-.45 1.79-.68 2.72-.68 2.78.17-.09.3-.18.39-.26.22-.16.53-.45.94-.86s.72-.68.95-.83c.36-.24.71-.37 1.03-.37.27 0 .48.09.64.26s.24.42.24.73c0 .23-.03.42-.1.57s-.15.27-.26.34-.2.12-.29.15-.16.04-.24.04c-.18 0-.33-.05-.43-.15s-.16-.23-.16-.39c0-.23.07-.41.22-.56s.29-.24.43-.29l.22-.04c-.11-.11-.22-.16-.33-.16h-.05c-.29.03-.57.14-.86.34s-.61.49-.99.87-.68.66-.9.83c.02 0 .09.02.2.04s.23.05.33.08.22.07.35.11.26.1.37.19.21.17.3.24.17.19.23.35.09.31.08.45c0 .15-.02.34-.07.56s-.07.4-.08.54c0 .36.12.54.37.54.43 0 .79-.54 1.06-1.62.02-.07.11-.11.27-.11h.05c.14 0 .22.04.22.12 0 .05-.01.11-.04.19-.37 1.28-.9 1.91-1.6 1.91-.41 0-.74-.12-.99-.35-.25-.24-.38-.57-.38-1.02 0-.16.01-.3.04-.42s.04-.23.04-.33c0-.2-.06-.37-.19-.52s-.29-.25-.48-.31-.34-.11-.46-.15-.2-.05-.24-.04h-.03c-.11.38-.2.75-.29 1.1s-.14.62-.19.79-.09.34-.12.5-.07.27-.1.33-.06.11-.1.18c-.04.06-.09.1-.15.12-.12.08-.24.12-.38.12-.15 0-.27-.05-.35-.14s-.12-.17-.12-.23c0-.09.17-.81.5-2.17s.67-2.69.99-4l.5-1.97c0-.12-.02-.19-.1-.22s-.25-.05-.53-.07h-.24s-.06-.01-.1-.04-.05-.06-.04-.1z"/><path id="aa" d="m123.97 44c0-1.1.37-2.01 1.11-2.71.74-.71 1.62-1.11 2.63-1.21h.23c.14 0 .33 0 .57-.01s.46 0 .68 0h1.34c.14.07.2.16.2.27 0 .08-.06.17-.18.26h-1.41c-1 .02-1.62.05-1.86.1-.44.11-.84.27-1.18.49s-.61.44-.8.67-.35.48-.49.75-.22.49-.24.65-.05.32-.07.46v.03h6.03c.14.07.2.16.2.27s-.07.2-.2.27h-6.03v.03c0 .19.05.42.14.69s.24.57.45.88c.21.32.5.61.87.87s.81.45 1.32.56c.24.05.87.09 1.87.1h1.41c.12.09.18.18.18.27 0 .11-.07.2-.2.27h-1.66c-.16 0-.29 0-.39.01-1.4 0-2.51-.39-3.33-1.17-.8-.74-1.19-1.67-1.19-2.78z"/><path id="ab" d="m136.18 47.41c-.09-.09-.14-.15-.14-.18 0-.1.14-.39.42-.88s1-1.67 2.16-3.53l2.59-4.22h-.62c-.93 0-1.63.09-2.09.27-.38.14-.69.33-.92.54-.24.22-.38.41-.45.58s-.12.33-.16.49c-.05.15-.09.24-.12.26-.03 0-.06.01-.11.01-.07 0-.16-.06-.26-.19l.12-1.15c.02-.17.04-.35.07-.54s.05-.34.05-.46.02-.18.03-.18c.03-.02.06-.05.1-.08.02-.02 1.16-.03 3.43-.03h3.41c.11.09.16.17.16.23 0 .04-.87 1.48-2.61 4.32l-2.59 4.22s.36.03 1.09.03c.95 0 1.61-.06 1.97-.18.52-.18.96-.47 1.32-.86.35-.39.6-.85.73-1.37.05-.24.14-.37.27-.37.06 0 .12.02.16.07s.07.1.08.15c0 .07-.06.57-.19 1.49s-.2 1.4-.23 1.43l-.1.1s-1.29.03-3.8.03h-3.77zm1.48-8.66.24-.15h-.73v.22s-.02.07-.03.14-.02.11-.03.14c0 .04 0 .05.03.05s.05-.02.08-.05.1-.09.18-.15.17-.13.26-.19zm5.49-.13s-.22-.03-.65-.03c-.47 0-.71.02-.73.07-.02.04-.85 1.39-2.5 4.07s-2.5 4.06-2.57 4.15c0 .02.23.03.69.03h.69l2.54-4.13 2.52-4.17zm.27 8.3c.08-.49.12-.77.12-.84l-.27.27c-.17.16-.33.29-.48.39l-.24.15.42.03h.45z"/><path id="ac" d="m146.32 32.06c0-.13 0-.2.03-.23s.08-.04.19-.04h.05c.11 0 .3.05.58.16s.6.26.95.45.69.46 1 .8c.32.34.53.71.64 1.11.05.2.07 1.38.07 3.56s0 3.19.01 3.26c.06.62.33 1.17.81 1.67.39.39.82.69 1.3.91.08.04.13.06.14.08s.02.09.03.2v.18s-.02.06-.07.1-.1.05-.15.05-.15.05-.29.14-.29.19-.45.31c-.79.59-1.23 1.29-1.33 2.1 0 .06-.01 1.15-.01 3.26s-.02 3.36-.07 3.56c-.28 1.06-1.22 1.88-2.82 2.46-.12.05-.24.07-.35.07-.13 0-.2-.01-.23-.04s-.04-.1-.04-.23v-.14s0-.05.03-.07.03-.04.04-.05.05-.03.11-.04c.06 0 .11-.03.15-.07.47-.21.89-.49 1.25-.86.36-.36.59-.78.68-1.25 0-.11.02-1.23.03-3.37 0-2.14.02-3.27.03-3.39.05-.21.1-.39.15-.54s.19-.37.39-.64.48-.54.83-.8c.2-.14.41-.28.62-.39s.39-.2.53-.24l.19-.08-.23-.11c-.15-.06-.34-.16-.57-.29s-.47-.28-.72-.46-.48-.42-.68-.72-.35-.61-.46-.92c-.04-.15-.05-.33-.05-.52s0-1.22-.03-3.08c0-2.19-.02-3.32-.03-3.38-.05-.27-.16-.53-.31-.77s-.31-.44-.48-.58-.36-.29-.58-.43-.38-.24-.45-.27-.17-.08-.3-.12h-.03c-.07-.04-.11-.13-.11-.29z"/></g></g></g></g></svg>
