<svg viewBox="0 0 183.92 65.85" xmlns="http://www.w3.org/2000/svg"><defs><style>.cls-1 {
        isolation: isolate;
      }</style></defs><g id="a"><g><g><g><g class="cls-1"><path d="M5.91,5.56c1,2.05,2.85,3.83,5.45,4.37v.14c-.13-.01-.24-.01-.35-.01-.47,0-.76.1-.98.32-.04.04-.07.06-.1.06s-.05-.01-.08-.04c-2.11-1.51-3.14-2.77-3.93-4.33v2.33c0,.91.01,1.81.04,2.35v.07c0,.18-.05.23-.31.34-.11.05-.19.07-.25.07-.07,0-.1-.06-.1-.22v-.17c.04-.7.06-1.79.06-2.47v-2.13c-1.01,1.66-2.84,3.28-5.29,4.39l-.06-.16c2.25-1.24,4.34-3.2,5.35-5.17v-2.37H1.16c-.25,0-.6.05-.8.13L.02,2.63c.3.02.6.05.88.05h4.45v-1.44c-1.24.1-2.7.19-4.13.24v-.17c2.65-.26,6.08-.77,7.35-1.17l.53.61c.06.07.08.12.08.14s-.01.04-.06.04c-.04,0-.47-.05-.56-.05-.19,0-.41.02-.68.07-.42.07-1.12.16-1.97.24v1.49h3.89l.48-.66.89.78c.06.05.1.08.1.11s-.05.04-.12.04h-5.23v2.63ZM4.1,3.53c.11.05.16.07.16.11,0,.02-.05.07-.14.13l-.22.16v1.98c0,.12.02.73.02.86,0,.17-.44.31-.5.31s-.07-.06-.07-.22v-.61l-1.28.41c-.43.13-.78.34-.98.54-.02.03-.05.04-.06.04-.02,0-.05-.01-.08-.05l-.44-.52,2.85-.65v-1.22h-1.56c-.25,0-.6.05-.8.13l-.34-.44c.3.02.6.05.88.05h1.82c0-.49,0-.73-.04-1.32l.79.31ZM10.67,5.19c.01.92.06,1.04.3,1.2.05.04.07.06.07.1,0,.01,0,.04-.02.07-.34.59-.68.59-1.86.59-1.56,0-1.7-.06-1.7-.79v-1.67c0-.44-.01-1.15-.04-1.56l.84.42c.07.04.11.06.11.08s-.04.06-.11.11l-.28.17v1.26c.71-.4,1.38-.8,2.07-1.34l.55.48s.06.06.06.08c0,.04-.05.05-.16.05-.26,0-.74.17-2.53,1.01v.84c0,.37.12.37.91.37.37,0,.73,0,.88-.01.52-.04.61-.16.74-1.45h.16Z"/></g><g class="cls-1"><path d="M23.2,5.06c.08.08.12.13.12.17,0,.05-.05.06-.16.06h-6.7l-.85,1.71h4.32l.41-.54.84.65s.06.05.06.06c0,.02-.02.05-.06.07l-.49.29c-.25,1.02-.61,2.05-.86,2.53-.26.52-.7.84-1.62,1.16-.04.01-.06.01-.08.01-.05,0-.06-.02-.07-.11-.05-.46-.18-.61-1.51-1.14l.04-.18c.97.34,1.54.5,1.91.5.4,0,.58-.19.8-.56.35-.58.6-1.39.83-2.53h-4.46l-.3.3s-.04.02-.05.02c-.04,0-.06-.01-.11-.06l-.56-.52c.41-.16.52-.22.62-.44l.6-1.24h-2.69c-.25,0-.6.05-.8.13l-.34-.44c.3.02.6.05.88.05h9.06l.52-.7.73.73ZM21,.82c.06.05.1.07.1.11s-.04.07-.1.12l-.37.26v1.25c0,.41,0,.76.04,1.29v.1c0,.16-.04.21-.29.31-.11.05-.18.07-.23.07-.07,0-.08-.06-.08-.16v-.52h-4.86v.3c0,.17-.02.22-.23.3-.12.05-.19.08-.25.08-.08,0-.11-.07-.11-.24v-.16c.04-.68.04-.81.04-1.23v-1.28c0-.29-.01-.86-.04-1.24l.78.61h4.51l.31-.52.78.53ZM20.06,3.39V1.07h-4.86v2.33h4.86Z"/></g><g class="cls-1"><path d="m34.1 12.15c-2.35-2.06-2.96-3.5-2.96-5.62 0-1.7.86-3.6 2.93-5.22l.18.16c-1.5 1.31-2.31 3.36-2.31 5.07 0 2.12.61 3.79 2.31 5.43l-.14.18z"/></g></g><path id="b" d="m47.27 9.89c0 .18-.1.27-.29.27-.05 0-.14-.07-.3-.22-.15-.14-.58-.57-1.28-1.26l-1.41-1.41-1.43 1.43c-.96.94-1.45 1.42-1.48 1.44-.04.02-.07.03-.1.03-.07 0-.14-.03-.19-.08s-.09-.12-.1-.19c0-.06.06-.16.19-.3s.55-.57 1.28-1.29l1.41-1.41-1.41-1.41c-.73-.73-1.16-1.16-1.28-1.29s-.18-.23-.19-.3c0-.08.03-.14.08-.19s.12-.07.2-.07c.05 0 .08 0 .1.01.03.02.52.5 1.48 1.44l1.43 1.43 1.41-1.41c.7-.7 1.12-1.12 1.28-1.26s.25-.22.3-.22c.19 0 .29.09.29.27 0 .06-.05.14-.14.24s-.53.54-1.33 1.33l-1.41 1.43 1.41 1.43c.76.76 1.19 1.2 1.3 1.32s.16.2.16.26z"/><g><g class="cls-1"><path d="m53.67 12.04-.18-.18c1.5-1.42 2.18-3.36 2.18-5.23s-.66-3.66-2.22-5.11l.14-.18c2.15 1.65 2.89 3.59 2.89 5.29 0 2.12-1 3.95-2.82 5.41z"/></g><g class="cls-1"><path d="m75.84 9.99c-.6.11-.79.24-.98.59-.06.11-.1.13-.2.13-1.81 0-3.36-.11-4.29-.31-1.31-.29-2.25-1.13-2.93-2.15-.6 1.14-1.52 2.33-2.65 2.96l-.06-.12c1.45-1.18 2.3-2.99 2.73-4.69l.78.4c.08.04.12.06.12.1 0 .02-.26.13-.42.2-.11.29-.23.6-.4.92.73.92 1.64 1.62 2.6 1.85v-3.8h-4.2c-.42 0-.56.01-.74.05l-.36-.37c.41.05.6.06.89.06h8.62l.47-.62.78.73c.06.05.08.08.08.11 0 .04-.06.05-.2.05h-4.79v1.63h2.66l.47-.62.7.67c.08.08.13.14.13.17 0 .04-.06.05-.17.05h-3.79v1.99c.49.06 1.1.08 1.78.08 1.07 0 2.28-.07 3.36-.24v.19zm-2.36-9.08c.07.04.1.07.1.11s-.02.06-.1.11l-.36.23v1.81c0 .7.01 1.01.06 1.55 0 .05.01.08.01.12 0 .13-.06.18-.3.29-.12.06-.19.08-.24.08-.07 0-.08-.06-.08-.2v-.42h-4.44c0 .36 0 .39-.24.53-.12.07-.2.11-.26.11s-.08-.06-.08-.19c0-.06 0-.13.01-.23.02-.29.04-.73.04-1.04v-2.26c0-.46-.01-.85-.04-1.22l.82.56h3.99l.34-.47.78.53zm-.91 1.61v-1.4h-4.44v1.4h4.44zm0 1.8v-1.54h-4.44v1.54h4.44z"/></g><g class="cls-1"><path d="m87.9 10.37c-.78-.02-1.16.11-1.4.42-.02.02-.05.05-.07.05s-.06-.01-.1-.04c-2.16-1.07-3.47-2.52-3.96-4.99-.42.5-.98 1.04-1.62 1.57v2.85l2.48-1.04.07.17-1.86 1.07c-.52.3-.88.59-1.08.83-.02.02-.05.05-.07.05s-.05-.02-.07-.05l-.5-.61c.36-.23.48-.35.48-.6v-2.23c-1.06.79-2.27 1.52-3.37 1.98l-.11-.16c2.18-1.26 3.93-2.67 4.95-3.86h-3.74c-.25 0-.6.05-.8.13l-.34-.47c.3.02.6.05.88.05h4.44v-1.45h-2.73c-.25 0-.6.05-.8.13l-.34-.44c.3.02.6.05.88.05h3v-1.54h-3.54c-.25 0-.6.05-.8.13l-.4-.46c.3.04.66.06.94.06h3.8c0-.83-.02-1.51-.05-1.94l.91.46c.07.04.11.07.11.11 0 .02-.04.06-.08.1l-.32.23v1.05h3.31l.46-.65.89.73c.07.06.1.1.1.13 0 .04-.04.05-.13.05h-4.62v1.54h2.43l.43-.62.8.7c.07.06.11.11.11.13 0 .05-.05.06-.14.06h-3.63v1.45h3.68l.48-.61.77.68c.08.07.12.12.12.16s-.06.06-.18.06h-4.94c.26.78.64 1.58 1.09 2.16.95-.55 1.87-1.19 2.29-1.54l.67.71s.06.07.06.1c0 .04-.04.05-.08.05s-.23-.02-.26-.02c-.3 0-.7.16-2.49.91.91 1.03 2.19 1.8 4.03 2.09v.14z"/></g><g class="cls-1"><path d="M99.72,4.14c.08.07.12.12.12.16,0,.02-.05.04-.16.04h-4.99v5.34c0,.91-.07,1.15-.71,1.43-.11.05-.17.07-.23.07-.07,0-.1-.06-.12-.19-.06-.32-.35-.56-1.54-.91v-.18c.74.14,1.21.23,1.51.23.46,0,.49-.19.49-.58v-5.21h-4.19c-.32,0-.59.04-.79.12l-.41-.42c.3.02.64.04.94.04h8.71l.52-.68.84.75ZM92.49,6c.14.1.22.16.22.19,0,.02-.04.04-.11.06-.16.05-.36.19-.44.3-.77,1.05-1.87,2.4-3.12,3.57l-.12-.11c1.19-1.46,2.21-2.95,2.95-4.44l.62.42ZM98.32,1.32c.08.07.12.12.12.16,0,.02-.05.04-.16.04h-7.04c-.25,0-.49.02-.7.1l-.43-.41c.32.04.64.05.91.05h5.95l.55-.68.79.76ZM95.86,5.54c1.21.91,3.05,2.52,3.05,3.61,0,.44-.23.64-.37.64-.16,0-.28-.14-.36-.48-.2-.89-1.02-2.17-2.41-3.65l.1-.12Z"/></g><g class="cls-1"><path d="m106.51 5.56c1 2.05 2.85 3.83 5.45 4.37v.14c-.13-.01-.24-.01-.35-.01-.47 0-.76.1-.98.32-.04.04-.07.06-.1.06s-.05-.01-.08-.04c-2.11-1.51-3.14-2.77-3.93-4.33v2.33c0 .91.01 1.81.04 2.35v.07c0 .18-.05.23-.31.34-.11.05-.19.07-.25.07-.07 0-.1-.06-.1-.22v-.17c.04-.7.06-1.79.06-2.47v-2.13c-1.01 1.66-2.84 3.28-5.29 4.39l-.06-.16c2.25-1.24 4.34-3.2 5.35-5.17v-2.37h-4.19c-.25 0-.6.05-.8.13l-.34-.44c.3.02.6.05.88.05h4.45v-1.44c-1.24.1-2.7.19-4.13.24v-.17c2.65-.26 6.08-.77 7.35-1.17l.53.61c.06.07.08.12.08.14s-.01.04-.06.04c-.04 0-.47-.05-.56-.05-.19 0-.41.02-.68.07-.42.07-1.12.16-1.97.24v1.49h3.89l.48-.66.89.78c.06.05.1.08.1.11s-.05.04-.12.04h-5.23v2.63zm-1.81-2.03c.11.05.16.07.16.11 0 .02-.05.07-.14.13l-.22.16v1.98c0 .12.02.73.02.86 0 .17-.44.31-.5.31s-.07-.06-.07-.22v-.61l-1.28.41c-.43.13-.78.34-.98.54-.02.03-.05.04-.06.04-.02 0-.05-.01-.08-.05l-.44-.52 2.85-.65v-1.22h-1.56c-.25 0-.6.05-.8.13l-.34-.44c.3.02.6.05.88.05h1.82c0-.49 0-.73-.04-1.32l.79.31zm6.57 1.66c.01.92.06 1.04.3 1.2.05.04.07.06.07.1 0 .01 0 .04-.02.07-.34.59-.68.59-1.86.59-1.56 0-1.7-.06-1.7-.79v-1.67c0-.44-.01-1.15-.04-1.56l.84.42c.07.04.11.06.11.08s-.04.06-.11.11l-.28.17v1.26c.71-.4 1.38-.8 2.07-1.34l.55.48s.06.06.06.08c0 .04-.05.05-.16.05-.26 0-.74.17-2.53 1.01v.84c0 .37.12.37.91.37.37 0 .73 0 .88-.01.52-.04.61-.16.74-1.45h.16z"/></g><g class="cls-1"><path d="m112.81 3.31c1.08.25 1.9.79 1.9 1.25 0 .25-.18.52-.35.52-.12 0-.24-.1-.28-.25-.07-.26-.48-.98-1.33-1.39l.06-.12zm4.01-1.74-1.62 5.3c-.18.56-.25 1.36-.25 2.06 0 .44.02.85.08 1.15.04.22.06.38.06.54 0 .43-.18.6-.46.6s-.43-.14-.43-.55c0-.16.02-.36.08-.61.07-.3.16-.78.16-1.2s-.07-.76-.29-.82c-.4-.12-.76-.18-1.15-.21l.02-.19c1.22.07 1.46-.28 1.73-1.01l1.9-5.13.17.07zm-2.95-.91c1 .25 1.58.58 1.8.91.07.1.1.23.1.35 0 .28-.14.54-.34.54-.11 0-.19-.02-.3-.3-.18-.48-.47-.89-1.32-1.34l.06-.16zm9.78 5.04c.1.11.16.17.16.2 0 .05-.07.06-.22.06h-4.25l.62.5c.06.05.08.08.08.12s-.05.06-.16.07c-.25.02-.36.1-.54.32-.47.61-1.51 1.83-2.35 2.79l4.79-.12c-.24-.67-.76-1.37-1.49-2.09l.1-.11c1.33.82 2.41 2.06 2.41 2.93 0 .47-.23.7-.49.7-.17 0-.3-.07-.34-.64-.01-.2-.05-.4-.12-.6l-3.55.38c-.94.1-1.34.2-1.54.35-.05.04-.08.06-.12.06s-.07-.04-.11-.1l-.47-.77c.59-.07.78-.22 1.46-1.13.61-.82 1.32-1.99 1.64-2.69h-2.42c-.25 0-.61.05-.8.12l-.34-.43c.29.02.6.05.88.05h2.65v-2.55h-1.44c-.25 0-.61.05-.8.12l-.34-.43c.29.02.6.05.88.05h1.7v-1.7c0-.47-.01-.76-.04-1.18l.91.53c.08.05.12.07.12.11s-.04.06-.11.1l-.32.17v1.98h1.83l.54-.67.67.67c.1.1.14.16.14.19 0 .05-.06.07-.2.07h-2.99v2.55h2.69l.55-.73.7.73z"/></g><g class="cls-1"><path d="m135.98 10.09c-.55.07-.97.32-1.08.62-.04.1-.07.11-.19.11-3.61-.06-4.95-.1-5.44-.16-1.06-.13-1.83-.96-2.11-1.51-.08-.16-.16-.25-.24-.25-.34 0-1.26 1.56-1.38 1.9-.02.06-.04.1-.07.1-.02 0-.05-.01-.08-.04l-.6-.38 1.83-1.7v-3.85h-.95c-.23 0-.55.05-.73.12l-.3-.41c.26.02.54.05.79.05h.94l.42-.62.83.61c.06.05.1.08.1.11 0 .04-.04.06-.11.11l-.43.24v3.36c0 .41.9 1.69 2.23 1.71.38.01.77.01 1.13.01 1.73 0 3.27-.07 5.46-.28v.16zm-10.37-9.48c1.02.47 1.8 1.18 1.86 1.55.01.06.01.13.01.19 0 .34-.14.59-.31.59-.19 0-.25-.07-.38-.5-.12-.4-.6-1.17-1.24-1.69l.06-.13zm10.15 3.2c.08.07.13.13.13.17 0 .05-.06.06-.18.06h-3.78c-.74 1.39-1.86 3.17-2.33 3.69l4.44-.24c-.3-.67-.78-1.43-1.32-2.05l.11-.12c.49.4 2.18 1.81 2.18 2.73 0 .37-.2.66-.46.66-.12 0-.18-.12-.26-.49-.04-.17-.1-.36-.18-.56l-2.87.37c-1.27.17-1.6.28-1.81.43-.05.04-.08.06-.12.06s-.07-.04-.13-.11l-.48-.64c.5-.06.73-.2.95-.54.52-.79 1.18-2.05 1.51-3.2h-1.99c-.23 0-.55.05-.73.12l-.3-.43c.26.02.54.05.79.05h5.49l.52-.71.82.74zm-.96-2.68c.07.07.11.12.11.16 0 .06-.06.08-.16.08h-4.49c-.23 0-.55.05-.73.12l-.3-.43c.26.03.54.05.79.05h3.49l.5-.68.78.71z"/></g><g class="cls-1"><path d="m147.56 8.58c.06.06.1.11.1.13 0 .04-.05.05-.17.05h-3.14v1.14c0 .16.02.91.02 1.08 0 .19-.55.33-.56.33-.06 0-.07-.04-.07-.13v-.07c.04-.52.04-1 .04-1.32v-1.03h-2.73c-.28 1.46-1.16 2.24-3.98 2.69v-.17c2.09-.58 3.24-1.21 3.45-2.52h-2.58c-.25 0-.6.05-.8.13l-.34-.44c.3.02.6.05.88.05h2.88c.05-.41.06-.78.06-1.14l.76.24c.06.02.1.04.1.06s-.18.17-.31.29c-.01.19-.04.37-.06.55h2.69c0-.38-.01-.75-.02-1.1l.8.35c.06.02.08.04.08.06 0 .04-.04.05-.29.22v.48h2l.47-.62.74.71zm-4.83-6.9s.06.06.06.08c0 .04-.04.05-.12.05h-2.36c.54.34.73.58.73.79 0 .3-.14.52-.32.52-.1 0-.18-.13-.22-.31-.05-.23-.23-.59-.53-1h-.78c-.72.96-1.43 1.78-1.99 2.27l-.12-.11c.85-1.02 1.91-2.61 2.48-3.85l.83.41s.07.04.07.06c0 .01-.04.02-.11.04-.2.02-.46.23-.56.37-.13.19-.26.37-.4.55h2.34l.37-.53.62.66zm5.02.02s.06.07.06.1-.04.04-.11.04h-3.01c.2.12.78.5.78.86 0 .12-.04.23-.11.3l.58.53s.06.06.06.1c0 .02-.01.05-.06.07l-.31.16v1.87c0 .8.01 1.15.04 1.57v.06c0 .12-.05.16-.25.28-.12.07-.2.1-.25.1-.07 0-.07-.01-.07-.46h-5.38c0 .22-.05.26-.25.36-.12.06-.2.08-.25.08-.07 0-.1-.05-.1-.16 0-.05 0-.12.01-.19.04-.33.05-.92.05-1.29v-2.03c0-.29-.01-.91-.04-1.28l.77.56h2.13c.74-1.07 1.49-2.35 1.88-3.26l.72.36c.07.04.12.06.12.08s-.05.04-.13.05c-.16.02-.34.18-.44.34-.16.22-.32.44-.5.68h2.89l.44-.64.74.77zm-2.66 2.83v-.95h-5.38v.95h5.38zm0 1.23v-.96h-5.38v.96h5.38zm0 1.24v-.98h-5.38v.98h5.38zm.08-3.95c-.12-.02-.19-.11-.24-.23-.17-.42-.32-.65-.62-.98h-.83c-.43.56-.89 1.14-1.19 1.49h2.66l.22-.28z"/></g><g class="cls-1"><path d="m153.91 2.52c.06.04.1.07.1.1 0 .04-.04.06-.1.1l-.41.25v4.64c0 .91.02 1.66.06 2.2v.07c0 .18-.05.23-.31.34-.12.05-.19.07-.23.07-.07 0-.08-.06-.08-.16v-.88h-2.58v1.14c0 .16-.02.19-.24.29-.11.05-.18.07-.24.07-.1 0-.12-.08-.12-.29v-.08c.02-.67.04-1.69.04-2.34v-4.98c0-.61-.01-.82-.04-1.18l.73.6h.56c.32-.77.61-1.68.8-2.39l.76.4c.1.05.14.08.14.12s-.05.06-.13.07c-.17.02-.29.11-.4.28l-.95 1.52h1.48l.4-.55.76.59zm-.97 3.07v-2.85h-2.58v2.85h2.58zm0 3.39v-3.13h-2.58v3.13h2.58zm6.3-6.38c.07.05.1.08.1.12s-.02.06-.1.11l-.38.23c-.08 3.11-.18 5.19-.25 6.22-.08 1.12-.19 1.47-1.12 1.99-.02.01-.05.02-.06.02-.05 0-.07-.05-.11-.14-.13-.41-.41-.59-1.5-.88v-.19c.68.16 1.14.25 1.45.25.59 0 .68-.31.74-1.02.11-1.16.23-3.61.29-6.5h-2.81c-.52 1.14-.95 1.91-1.52 2.73l-.13-.08c.79-1.44 1.6-3.66 2.05-5.32l.71.36c.12.06.18.11.18.16s-.06.08-.19.11-.23.12-.37.44c-.22.5-.42.95-.6 1.34h2.52l.35-.56.76.61zm-4.18 2.14c.97.53 1.46 1.01 1.58 1.34.04.11.06.22.06.32 0 .32-.18.58-.35.58-.18 0-.24-.07-.29-.3-.13-.58-.49-1.22-1.09-1.83l.08-.11z"/></g><g class="cls-1"><path d="m164.47 3.9c.12.07.18.12.18.16 0 .02-.06.05-.19.08-.14.04-.3.18-.41.32-.19.25-.37.5-.55.73v3.66c0 .74.01 1.37.04 1.91v.08c0 .13-.04.19-.26.31-.13.07-.23.12-.28.12-.07 0-.1-.06-.1-.19 0-.06 0-.14.01-.24.06-.61.11-1.44.11-2.01v-3.01c-.84 1.07-1.55 1.88-2.12 2.48l-.13-.13c.73-.9 2.45-3.33 3.03-4.67l.67.4zm2.09-2.03c.08.08.12.13.12.17s-.07.05-.22.05h-2.1c.68.52.89.85.89 1.15 0 .23-.19.47-.37.47-.11 0-.22-.11-.24-.34-.02-.24-.25-.89-.56-1.28h-1.12c-.72 1.04-1.34 1.87-2.03 2.61l-.16-.1c.88-1.24 2.05-3.27 2.55-4.53l.76.4c.11.06.17.11.17.14s-.06.06-.18.08c-.11.02-.3.17-.4.32-.18.29-.36.55-.54.8h2.31l.46-.62.65.67zm5.13 3.66c.06.06.1.11.1.14s-.05.06-.16.06h-2.44v4.08c0 .77-.05 1.02-.92 1.4-.05.02-.07.04-.11.04s-.06-.05-.08-.13c-.11-.42-.35-.58-1.6-.91l.04-.17c.9.17 1.43.25 1.73.25.35 0 .4-.12.4-.36v-4.2h-2.99c-.25 0-.6.05-.8.13l-.34-.44c.3.02.6.05.88.05h3.25c0-.52-.02-1.44-.05-1.85l.9.41s.07.05.07.07-.02.05-.07.08l-.3.2v1.08h1.3l.44-.72.76.78zm-6.43.95c1.18.56 1.66 1.03 1.71 1.38.01.07.01.14.01.2 0 .34-.14.61-.36.61-.16 0-.29-.29-.32-.47-.07-.41-.48-1.05-1.13-1.61l.08-.12zm6-4.63c.08.08.13.14.13.19s-.06.06-.19.06h-2.29c.67.46.89.79.89 1.1 0 .26-.18.49-.37.49-.11 0-.18-.08-.2-.28-.05-.35-.24-.86-.62-1.32h-1.12c-.61.92-1.31 1.87-1.71 2.32l-.17-.11c.94-1.38 1.91-3.3 2.22-4.25l.76.39c.07.04.11.07.11.1 0 .04-.05.06-.13.1-.12.04-.29.22-.38.37-.16.25-.32.53-.52.82h2.55l.44-.62.61.64z"/></g><g class="cls-1"><path d="m183.8 5.06c.08.08.12.13.12.17 0 .05-.05.06-.16.06h-6.7l-.85 1.71h4.32l.41-.54.84.65s.06.05.06.06c0 .02-.02.05-.06.07l-.49.29c-.25 1.02-.61 2.05-.86 2.53-.26.52-.7.84-1.62 1.16-.04.01-.06.01-.08.01-.05 0-.06-.02-.07-.11-.05-.46-.18-.61-1.51-1.14l.04-.18c.97.34 1.54.5 1.91.5.4 0 .58-.19.8-.56.35-.58.6-1.39.83-2.53h-4.46l-.3.3s-.04.02-.05.02c-.04 0-.06-.01-.11-.06l-.56-.52c.41-.16.52-.22.62-.44l.6-1.24h-2.69c-.25 0-.6.05-.8.13l-.34-.44c.3.02.6.05.88.05h9.06l.52-.7.73.73zm-2.21-4.24c.06.05.1.07.1.11s-.04.07-.1.12l-.37.26v1.25c0 .41 0 .76.04 1.29v.1c0 .16-.04.21-.29.31-.11.05-.18.07-.23.07-.07 0-.08-.06-.08-.16v-.52h-4.86v.3c0 .17-.02.22-.23.3-.12.05-.19.08-.25.08-.08 0-.11-.07-.11-.24v-.16c.04-.68.04-.81.04-1.23v-1.28c0-.29-.01-.86-.04-1.24l.78.61h4.51l.31-.52.78.53zm-.94 2.57v-2.32h-4.86v2.33h4.86z"/></g></g></g><g><g><g><g class="cls-1"><path d="m46.42 27.82c.08.07.13.13.13.18 0 .06-.07.08-.18.08h-9.62c-.25 0-.6.05-.8.13l-.34-.44c.3.02.6.05.88.05h3.14v-3.48c0-.49-.02-1.31-.05-1.75l.82.3c.11.04.16.07.16.11 0 .06-.04.07-.38.18v4.64h1.67v-3.47c0-.49-.02-1.31-.05-1.75l.79.28c.1.04.14.06.14.11 0 .04-.04.06-.32.21v4.62h2.72l.5-.7.79.7zm-9.68-4.06c1.02.82 1.9 1.81 1.96 2.23.01.06.01.12.01.17 0 .4-.22.65-.42.65-.14 0-.24-.22-.29-.53-.07-.43-.61-1.59-1.37-2.4l.11-.12zm7.89-5.17c.06.04.08.07.08.11 0 .05-.02.08-.08.12l-.34.23v1.91c0 .65.01 1.09.04 1.55v.07c0 .18-.05.25-.25.34-.12.05-.19.07-.24.07-.11 0-.11-.05-.11-.42h-5.29c0 .38 0 .42-.23.52-.12.05-.2.07-.25.07-.1 0-.12-.06-.12-.23v-.16c.02-.35.04-1.03.04-1.7v-1.85c0-.29-.01-.86-.04-1.24l.79.56h4.89l.31-.46.79.5zm-.9 1.82v-1.59h-5.29v1.59h5.29zm0 1.89v-1.63h-5.29v1.63h5.29zm1.84 1.7s.07.07.07.1c0 .04-.04.06-.12.07-.26.05-.44.19-.74.54l-1.92 2.18-.14-.11c.74-1.01 1.52-2.22 2.15-3.31l.71.53z"/></g><g class="cls-1"><path d="m58.37 20.59c.1.1.14.14.14.18s-.06.05-.19.05h-4.17c.02.3.02.59.05.88.2 3.6 1.28 5.06 2.73 6 .13.08.24.13.31.13.13 0 .19-.12.25-.38l.34-1.56.22.02c-.07.6-.1 1.07-.1 1.43 0 .59.07.89.16 1 .17.24.23.35.23.42 0 .13-.1.14-.17.14-.16 0-.41-.06-.73-.22-3.35-1.59-3.67-4.82-3.83-7.86h-4.88c-.34 0-.66.03-.83.07l-.32-.37c.29.02.61.04.89.04h5.13c-.05-.75-.07-1.64-.1-2.7l.88.46c.07.04.12.07.12.1t-.38.3c-.01.61 0 1.24.02 1.85h2.96l.5-.7.77.73zm-4.74 5.58-3.83 1.16c-.72.22-1.33.48-1.46.63-.04.04-.06.06-.08.06-.04 0-.07-.04-.12-.11l-.44-.62 2.59-.58v-3.36h-1.31c-.44 0-.64.01-.84.07l-.31-.37c.23.04.49.05.89.05h3.27l.47-.62.65.67c.07.08.12.13.12.16 0 .04-.05.05-.14.05h-2.24v3.24l2.76-.61.04.18zm1.48-7.88c.84.34 1.37.76 1.49 1 .05.1.07.2.07.3 0 .28-.16.54-.36.54-.12 0-.18-.05-.29-.44-.06-.24-.43-.79-.97-1.28l.06-.11z"/></g><g class="cls-1"><path d="m65.25 23.21c1 2.05 2.85 3.83 5.45 4.37v.14c-.13-.01-.24-.01-.35-.01-.47 0-.76.1-.98.32-.04.04-.07.06-.1.06s-.05-.01-.08-.04c-2.11-1.51-3.14-2.77-3.93-4.33v2.33c0 .91.01 1.81.04 2.35v.07c0 .18-.05.23-.31.34-.11.05-.19.07-.25.07-.07 0-.1-.06-.1-.22v-.17c.04-.7.06-1.79.06-2.47v-2.13c-1.01 1.66-2.84 3.27-5.29 4.39l-.06-.16c2.25-1.23 4.34-3.2 5.35-5.17v-2.37h-4.19c-.25 0-.6.05-.8.13l-.34-.44c.3.02.6.05.88.05h4.45v-1.44c-1.24.1-2.7.19-4.13.24v-.17c2.65-.26 6.08-.77 7.35-1.17l.53.61c.06.07.08.12.08.14s-.01.04-.06.04c-.04 0-.47-.05-.56-.05-.19 0-.41.02-.68.07-.42.07-1.12.16-1.97.24v1.49h3.89l.48-.66.89.78c.06.05.1.08.1.11s-.05.04-.12.04h-5.23v2.63zm-1.81-2.04c.11.05.16.07.16.11 0 .02-.05.07-.14.13l-.22.16v1.98c0 .12.02.73.02.86 0 .17-.44.31-.5.31s-.07-.06-.07-.21v-.61l-1.28.41c-.43.13-.78.34-.98.54-.02.02-.05.04-.06.04-.02 0-.05-.01-.08-.05l-.44-.52 2.85-.65v-1.22h-1.56c-.25 0-.6.05-.8.13l-.34-.44c.3.02.6.05.88.05h1.82c0-.49 0-.73-.04-1.32l.79.31zm6.57 1.67c.01.92.06 1.04.3 1.2.05.04.07.06.07.1 0 .01 0 .04-.02.07-.34.59-.68.59-1.86.59-1.56 0-1.7-.06-1.7-.79v-1.67c0-.44-.01-1.15-.04-1.56l.84.42c.07.04.11.06.11.08s-.04.06-.11.11l-.28.17v1.26c.71-.4 1.38-.8 2.07-1.34l.55.48s.06.06.06.08c0 .04-.05.05-.16.05-.26 0-.74.17-2.53 1.01v.84c0 .37.12.37.91.37.37 0 .73 0 .88-.01.52-.04.61-.16.74-1.45h.16z"/></g><g class="cls-1"><path d="m71.55 20.96c1.08.25 1.9.79 1.9 1.25 0 .25-.18.52-.35.52-.12 0-.24-.1-.28-.25-.07-.26-.48-.98-1.33-1.39l.06-.12zm4.01-1.74-1.62 5.3c-.18.56-.25 1.36-.25 2.06 0 .44.02.85.08 1.15.04.22.06.38.06.54 0 .43-.18.6-.46.6s-.43-.14-.43-.55c0-.16.02-.36.08-.61.07-.3.16-.78.16-1.2s-.07-.76-.29-.82c-.4-.12-.76-.18-1.15-.22l.02-.19c1.22.07 1.46-.28 1.73-1.01l1.9-5.13.17.07zm-2.95-.91c1 .25 1.58.58 1.8.91.07.1.1.23.1.35 0 .28-.14.54-.34.54-.11 0-.19-.02-.3-.3-.18-.48-.47-.89-1.32-1.34l.06-.16zm9.79 5.03c.1.11.16.17.16.2 0 .05-.07.06-.22.06h-4.25l.62.5c.06.05.08.08.08.12s-.05.06-.16.07c-.25.02-.36.1-.54.32-.47.61-1.51 1.83-2.35 2.79l4.79-.12c-.24-.67-.76-1.37-1.49-2.09l.1-.11c1.33.81 2.41 2.06 2.41 2.93 0 .47-.23.7-.49.7-.17 0-.3-.07-.34-.63-.01-.21-.05-.4-.12-.6l-3.55.38c-.94.1-1.34.2-1.54.35-.05.04-.08.06-.12.06s-.07-.04-.11-.1l-.47-.77c.59-.07.78-.22 1.46-1.13.61-.82 1.32-1.99 1.64-2.69h-2.42c-.25 0-.61.05-.8.12l-.34-.43c.29.02.6.05.88.05h2.65v-2.55h-1.44c-.25 0-.61.05-.8.12l-.34-.43c.29.02.6.05.88.05h1.7v-1.7c0-.47-.01-.76-.04-1.18l.91.53c.08.05.12.07.12.11s-.04.06-.11.1l-.32.17v1.98h1.83l.54-.67.67.67c.1.1.14.16.14.19 0 .05-.06.07-.2.07h-2.99v2.55h2.69l.55-.73.7.73z"/></g><g class="cls-1"><path d="m86.04 23.64c-.37 0-.68-.3-.68-.67s.31-.68.68-.68.68.31.68.68-.31.67-.68.67zm0 4.47c-.37 0-.68-.3-.68-.67s.31-.68.68-.68.68.31.68.68-.31.67-.68.67z"/></g></g><g><path id="c" d="m95.49 25.79c0-.91.34-1.78 1.03-2.61.69-.82 1.46-1.24 2.32-1.25.46 0 .87.22 1.22.67.14-.27.35-.41.62-.41.12 0 .22.04.31.11s.14.16.14.27c0 .12-.17.84-.5 2.17s-.51 2.08-.52 2.25c0 .23.03.38.1.45.06.07.16.11.29.12.08 0 .17-.05.27-.12.19-.18.38-.62.56-1.3.05-.18.1-.28.14-.29.02 0 .06-.01.14-.01h.05c.17 0 .26.04.26.12 0 .05-.02.18-.07.37s-.14.43-.27.73-.28.52-.43.68c-.12.12-.26.21-.43.29-.07.02-.18.03-.33.03-.31 0-.57-.07-.77-.2s-.34-.28-.41-.42l-.08-.2s-.03 0-.05.01l-.05.05c-.53.51-1.08.76-1.63.76-.5 0-.94-.18-1.32-.54s-.57-.94-.57-1.72zm4.31-2.32c0-.05-.02-.15-.07-.3s-.15-.3-.31-.48-.37-.26-.62-.27c-.32 0-.62.14-.91.42s-.52.65-.68 1.1c-.26.71-.45 1.46-.56 2.23v.15c0 .07 0 .13-.01.16 0 .41.08.69.24.84s.36.24.58.24c.34 0 .68-.15 1.02-.45.33-.3.53-.53.6-.69.02-.04.14-.52.37-1.45s.34-1.43.35-1.51z"/><path id="d" d="m113.79 27.53c0 .18-.1.27-.29.27-.05 0-.14-.07-.3-.22-.15-.14-.58-.57-1.28-1.26l-1.41-1.41-1.43 1.43c-.96.94-1.45 1.42-1.48 1.44-.04.02-.07.03-.1.03-.07 0-.14-.03-.19-.08s-.09-.12-.1-.19c0-.06.06-.16.19-.3s.55-.57 1.28-1.29l1.41-1.41-1.41-1.41c-.73-.73-1.16-1.16-1.28-1.29s-.18-.23-.19-.3c0-.08.03-.14.08-.19s.12-.07.2-.07c.05 0 .08 0 .1.01.03.02.52.5 1.48 1.44l1.43 1.43 1.41-1.41c.7-.7 1.12-1.12 1.28-1.26s.25-.22.3-.22c.19 0 .29.09.29.27 0 .06-.05.14-.14.24s-.53.54-1.33 1.33l-1.41 1.43 1.41 1.43c.76.76 1.19 1.2 1.3 1.32s.16.2.16.26z"/><path id="e" d="m119.8 19.14c0-.09.02-.19.05-.31s.09-.18.16-.18c0 0 .33-.02.98-.07.64-.05.97-.07.99-.08.11 0 .16.04.16.12s-.15.73-.46 1.94c-.07.31-.15.62-.23.95s-.15.57-.2.73l-.05.26s.03.01.08-.04c.44-.36.9-.54 1.37-.54.56 0 1.01.21 1.36.62s.52.94.53 1.57c0 1-.36 1.91-1.07 2.73s-1.48 1.22-2.31 1.22c-.45 0-.86-.17-1.24-.52-.37-.34-.56-.9-.57-1.67v-.12c0-.19.04-.45.11-.79s.29-1.23.67-2.67c.45-1.78.68-2.73.68-2.84s-.17-.17-.52-.19h-.35s-.06-.01-.1-.04-.05-.06-.04-.1zm3.57 4.37v-.08c0-.67-.28-1-.83-1-.15 0-.31.04-.48.11s-.31.17-.45.29-.25.23-.35.33-.18.2-.24.3l-.08.11-.29 1.17c-.2.78-.3 1.33-.3 1.66 0 .43.11.76.33.98.14.14.33.22.54.22.3 0 .6-.14.91-.43.23-.21.41-.46.54-.76s.29-.77.45-1.43.24-1.13.24-1.44z"/></g></g><g><g><g class="cls-1"><path d="m39.8 36.33c.06.04.08.07.08.1 0 .04-.05.07-.11.1-.35.13-.4.17-.54.41l-1.28 2.22c1.03.98 1.43 1.89 1.43 2.78 0 1.19-1.24 1.71-1.27 1.71s-.06-.04-.07-.11c-.07-.35-.26-.53-.96-.77v-.2c.43.12.77.19 1.03.19.55 0 .73-.3.73-.89 0-1-.31-1.75-1.15-2.62l1.1-2.77h-1.88v7.16c0 1.08.02 1.91.05 2.35v.08c0 .17-.05.22-.3.32-.1.05-.17.07-.22.07-.08 0-.11-.07-.11-.26v-.12c.02-.71.04-1.79.04-2.47v-6.38c0-.62-.02-1.08-.05-1.52l.67.5h1.68l.37-.47.76.58zm.1 6.9c.01 1-.19 2.6-1.25 2.6-.26 0-.37-.18-.37-.31 0-.12.06-.29.23-.4.46-.28 1.03-.76 1.21-1.91h.18zm6.08-4.51s.07.07.07.1c0 .04-.02.06-.07.1l-.38.26v1.68c0 .6.02 1.1.06 1.31.01.04.01.07.01.1 0 .22-.54.32-.54.32-.1 0-.1-.05-.1-.46h-4.09c-.23 0-.54.05-.72.12l-.3-.42c.26.02.54.04.78.04h4.33v-1.39h-3.91c-.23 0-.54.05-.72.12l-.3-.42c.26.02.54.04.78.04h4.15v-1.3h-3.84c-.22 0-.53.05-.71.12l-.3-.42c.26.02.53.04.78.04h1.8l1.06-1.52h-2.53c-.8 1.04-1.48 1.74-1.96 2.16l-.14-.13c.88-.89 1.77-2.3 2.57-3.86l.73.44s.07.06.07.08-.04.06-.11.08c-.32.11-.38.14-.47.28-.17.25-.34.48-.5.7h2.28l.37-.39.77.59s.07.07.07.1c0 .04-.04.06-.12.07-.32.05-.85.42-1.81 1.42h1.81l.36-.46.77.53zm-1.53 5.23c0 1.06.07 1.31.32 1.43.05.02.07.06.07.11 0 .02-.01.05-.02.08-.35.65-.78.7-2.43.7-1.49 0-1.64-.07-1.64-.8v-1.45c0-.36-.01-.66-.04-.96l.84.43s.07.06.07.08-.01.06-.05.08l-.26.21v1.56c0 .26.01.32 1.24.32.34 0 .65-.01.85-.02.67-.05.74-.19.88-1.78h.18zm-2.26-1.54c.59.42 1.04 1.04 1.04 1.46 0 .26-.25.61-.47.61-.16 0-.22-.1-.22-.43 0-.52-.14-1.04-.46-1.56l.1-.08zm2.6.69c1.42.9 1.69 1.34 1.69 1.78s-.19.66-.38.66c-.14 0-.25-.08-.32-.4-.12-.5-.34-1.25-1.09-1.89l.11-.14z"/></g><g class="cls-1"><path d="m58.37 38.23c.1.1.14.14.14.18s-.06.05-.19.05h-4.17c.02.3.02.59.05.88.2 3.6 1.28 5.06 2.73 6 .13.08.24.13.31.13.13 0 .19-.12.25-.38l.34-1.56.22.02c-.07.6-.1 1.07-.1 1.43 0 .59.07.89.16 1 .17.24.23.35.23.42 0 .13-.1.14-.17.14-.16 0-.41-.06-.73-.22-3.35-1.6-3.67-4.82-3.83-7.86h-4.88c-.34 0-.66.02-.83.07l-.32-.37c.29.02.61.04.89.04h5.13c-.05-.76-.07-1.64-.1-2.7l.88.46c.07.04.12.07.12.1t-.38.3c-.01.61 0 1.24.02 1.85h2.96l.5-.7.77.73zm-4.74 5.59-3.83 1.16c-.72.22-1.33.48-1.46.64-.04.04-.06.06-.08.06-.04 0-.07-.04-.12-.11l-.44-.62 2.59-.58v-3.36h-1.31c-.44 0-.64.01-.84.07l-.31-.37c.23.04.49.05.89.05h3.27l.47-.62.65.67c.07.08.12.13.12.16 0 .04-.05.05-.14.05h-2.24v3.24l2.76-.61.04.18zm1.48-7.88c.84.34 1.37.76 1.49 1 .05.1.07.2.07.3 0 .28-.16.54-.36.54-.12 0-.18-.05-.29-.44-.06-.24-.43-.79-.97-1.28l.06-.11z"/></g><g class="cls-1"><path d="m65.25 40.86c1 2.05 2.85 3.83 5.45 4.37v.14c-.13-.01-.24-.01-.35-.01-.47 0-.76.1-.98.32-.04.04-.07.06-.1.06s-.05-.01-.08-.04c-2.11-1.51-3.14-2.77-3.93-4.33v2.33c0 .91.01 1.81.04 2.35v.07c0 .18-.05.23-.31.34-.11.05-.19.07-.25.07-.07 0-.1-.06-.1-.22v-.17c.04-.7.06-1.79.06-2.47v-2.13c-1.01 1.66-2.84 3.27-5.29 4.39l-.06-.16c2.25-1.24 4.34-3.2 5.35-5.17v-2.38h-4.19c-.25 0-.6.05-.8.13l-.34-.44c.3.02.6.05.88.05h4.45v-1.44c-1.24.1-2.7.19-4.13.24v-.17c2.65-.26 6.08-.77 7.35-1.18l.53.61c.06.07.08.12.08.14s-.01.04-.06.04c-.04 0-.47-.05-.56-.05-.19 0-.41.02-.68.07-.42.07-1.12.16-1.97.24v1.49h3.89l.48-.66.89.78c.06.05.1.08.1.11s-.05.04-.12.04h-5.23v2.63zm-1.81-2.04c.11.05.16.07.16.11 0 .02-.05.07-.14.13l-.22.16v1.98c0 .12.02.73.02.86 0 .17-.44.31-.5.31s-.07-.06-.07-.22v-.61l-1.28.41c-.43.13-.78.34-.98.54-.02.02-.05.04-.06.04-.02 0-.05-.01-.08-.05l-.44-.52 2.85-.65v-1.22h-1.56c-.25 0-.6.05-.8.13l-.34-.44c.3.02.6.05.88.05h1.82c0-.49 0-.73-.04-1.32l.79.31zm6.57 1.67c.01.92.06 1.04.3 1.2.05.04.07.06.07.1 0 .01 0 .04-.02.07-.34.59-.68.59-1.86.59-1.56 0-1.7-.06-1.7-.79v-1.67c0-.44-.01-1.15-.04-1.56l.84.42c.07.04.11.06.11.08s-.04.06-.11.11l-.28.17v1.26c.71-.39 1.38-.8 2.07-1.34l.55.48s.06.06.06.08c0 .04-.05.05-.16.05-.26 0-.74.17-2.53 1.01v.84c0 .37.12.37.91.37.37 0 .73 0 .88-.01.52-.04.61-.16.74-1.45h.16z"/></g><g class="cls-1"><path d="m71.55 38.6c1.08.25 1.9.79 1.9 1.25 0 .25-.18.52-.35.52-.12 0-.24-.1-.28-.25-.07-.26-.48-.98-1.33-1.39l.06-.12zm4.01-1.73-1.62 5.3c-.18.56-.25 1.36-.25 2.06 0 .44.02.85.08 1.15.04.22.06.38.06.54 0 .43-.18.6-.46.6s-.43-.14-.43-.55c0-.16.02-.36.08-.61.07-.3.16-.78.16-1.2s-.07-.76-.29-.82c-.4-.12-.76-.18-1.15-.22l.02-.19c1.22.07 1.46-.28 1.73-1.01l1.9-5.13.17.07zm-2.95-.92c1 .25 1.58.58 1.8.91.07.1.1.23.1.35 0 .28-.14.54-.34.54-.11 0-.19-.02-.3-.3-.18-.48-.47-.89-1.32-1.34l.06-.16zm9.79 5.04c.1.11.16.17.16.2 0 .05-.07.06-.22.06h-4.25l.62.5c.06.05.08.08.08.12s-.05.06-.16.07c-.25.02-.36.1-.54.32-.47.61-1.51 1.83-2.35 2.79l4.79-.12c-.24-.67-.76-1.37-1.49-2.09l.1-.11c1.33.82 2.41 2.06 2.41 2.93 0 .47-.23.7-.49.7-.17 0-.3-.07-.34-.64-.01-.2-.05-.4-.12-.6l-3.55.38c-.94.1-1.34.2-1.54.35-.05.04-.08.06-.12.06s-.07-.04-.11-.1l-.47-.77c.59-.07.78-.21 1.46-1.13.61-.82 1.32-1.99 1.64-2.69h-2.42c-.25 0-.61.05-.8.12l-.34-.43c.29.02.6.05.88.05h2.65v-2.55h-1.44c-.25 0-.61.05-.8.12l-.34-.43c.29.02.6.05.88.05h1.7v-1.7c0-.47-.01-.75-.04-1.17l.91.53c.08.05.12.07.12.11s-.04.06-.11.1l-.32.17v1.98h1.83l.54-.67.67.67c.1.1.14.16.14.19 0 .05-.06.07-.2.07h-2.99v2.55h2.69l.55-.73.7.73z"/></g><g class="cls-1"><path d="m86.04 41.29c-.37 0-.68-.3-.68-.67s.31-.68.68-.68.68.31.68.68-.31.67-.68.67zm0 4.46c-.37 0-.68-.3-.68-.67s.31-.68.68-.68.68.31.68.68-.31.67-.68.67z"/></g></g><g><path id="f" d="m95.49 43.44c0-.91.34-1.78 1.03-2.61.69-.82 1.46-1.24 2.32-1.25.46 0 .87.22 1.22.67.14-.27.35-.41.62-.41.12 0 .22.04.31.11s.14.16.14.27c0 .12-.17.84-.5 2.17s-.51 2.08-.52 2.25c0 .23.03.38.1.45.06.07.16.11.29.12.08 0 .17-.05.27-.12.19-.18.38-.62.56-1.3.05-.18.1-.28.14-.29.02 0 .06-.01.14-.01h.05c.17 0 .26.04.26.12 0 .05-.02.18-.07.37s-.14.43-.27.73-.28.52-.43.68c-.12.12-.26.21-.43.29-.07.02-.18.03-.33.03-.31 0-.57-.07-.77-.2s-.34-.28-.41-.42l-.08-.2s-.03 0-.05.01l-.05.05c-.53.51-1.08.76-1.63.76-.5 0-.94-.18-1.32-.54s-.57-.94-.57-1.72zm4.31-2.32c0-.05-.02-.15-.07-.3s-.15-.3-.31-.48-.37-.26-.62-.27c-.32 0-.62.14-.91.42s-.52.65-.68 1.1c-.26.71-.45 1.46-.56 2.23v.15c0 .07 0 .13-.01.16 0 .41.08.69.24.84s.36.24.58.24c.34 0 .68-.15 1.02-.45.33-.3.53-.53.6-.69.02-.04.14-.52.37-1.45s.34-1.43.35-1.51z"/><path id="g" d="m106.29 42.18c0-.22.08-.41.23-.57s.35-.24.58-.24c.22 0 .41.07.57.22s.25.34.26.58c0 .23-.08.42-.23.58s-.35.24-.58.24-.43-.08-.58-.23-.24-.35-.24-.58z"/><path id="h" d="m113.02 36.79c0-.09.02-.19.05-.31s.09-.18.16-.18c0 0 .33-.02.98-.07.64-.05.97-.07.99-.08.11 0 .16.04.16.12s-.15.73-.46 1.94c-.07.31-.15.62-.23.95s-.15.57-.2.73l-.05.26s.03.01.08-.04c.44-.36.9-.54 1.37-.54.56 0 1.01.21 1.36.62s.52.94.53 1.57c0 1-.36 1.91-1.07 2.73s-1.48 1.22-2.31 1.22c-.45 0-.86-.17-1.24-.52-.37-.34-.56-.9-.57-1.67v-.12c0-.19.04-.45.11-.79s.29-1.23.67-2.67c.45-1.78.68-2.73.68-2.84s-.17-.17-.52-.19h-.35s-.06-.01-.1-.04-.05-.06-.04-.1zm3.57 4.37v-.08c0-.67-.28-1-.83-1-.15 0-.31.04-.48.11s-.31.17-.45.29-.25.23-.35.33-.18.2-.24.3l-.08.11-.29 1.17c-.2.78-.3 1.33-.3 1.66 0 .43.11.76.33.98.14.14.33.22.54.22.3 0 .6-.14.91-.43.23-.21.41-.46.54-.76s.29-.77.45-1.43.24-1.13.24-1.44z"/><path id="i" d="m122.38 40.86c0-.12.06-.21.19-.27h8.65c.14.07.2.16.2.27 0 .1-.06.19-.19.26h-4.32s-4.32.01-4.32.01c-.14-.05-.22-.14-.22-.27zm0 2.64c0-.14.07-.23.22-.27h8.63c.13.09.19.18.19.27 0 .12-.07.21-.2.27h-8.65c-.13-.06-.19-.15-.19-.27z"/><path id="j" d="m136.4 43.44c0-.91.34-1.78 1.03-2.61.69-.82 1.46-1.24 2.32-1.25.46 0 .87.22 1.22.67.14-.27.35-.41.62-.41.12 0 .22.04.31.11s.14.16.14.27c0 .12-.17.84-.5 2.17s-.51 2.08-.52 2.25c0 .23.03.38.1.45.06.07.16.11.29.12.08 0 .17-.05.27-.12.19-.18.38-.62.56-1.3.05-.18.1-.28.14-.29.02 0 .06-.01.14-.01h.05c.17 0 .26.04.26.12 0 .05-.02.18-.07.37s-.14.43-.27.73-.28.52-.43.68c-.12.12-.26.21-.43.29-.07.02-.18.03-.33.03-.31 0-.57-.07-.77-.2s-.34-.28-.41-.42l-.08-.2s-.03 0-.05.01l-.05.05c-.53.51-1.08.76-1.63.76-.5 0-.94-.18-1.32-.54s-.57-.94-.57-1.72zm4.32-2.32c0-.05-.02-.15-.07-.3s-.15-.3-.31-.48-.37-.26-.62-.27c-.32 0-.62.14-.91.42s-.52.65-.68 1.1c-.26.71-.45 1.46-.56 2.23v.15c0 .07 0 .13-.01.16 0 .41.08.69.24.84s.36.24.58.24c.34 0 .68-.15 1.02-.45.33-.3.53-.53.6-.69.02-.04.14-.52.37-1.45s.34-1.43.35-1.51z"/><path id="k" d="m144.12 36.79c0-.09.02-.19.05-.31s.09-.18.16-.18c0 0 .33-.02.98-.07.64-.05.97-.07.99-.08.11 0 .16.04.16.12s-.15.73-.46 1.94c-.07.31-.15.62-.23.95s-.15.57-.2.73l-.05.26s.03.01.08-.04c.44-.36.9-.54 1.37-.54.56 0 1.01.21 1.36.62s.52.94.53 1.57c0 1-.36 1.91-1.07 2.73s-1.48 1.22-2.31 1.22c-.45 0-.86-.17-1.24-.52-.37-.34-.56-.9-.57-1.67v-.12c0-.19.04-.45.11-.79s.29-1.23.67-2.67c.45-1.78.68-2.73.68-2.84s-.17-.17-.52-.19h-.35s-.06-.01-.1-.04-.05-.06-.04-.1zm3.57 4.37v-.08c0-.67-.28-1-.83-1-.15 0-.31.04-.48.11s-.31.17-.45.29-.25.23-.35.33-.18.2-.24.3l-.08.11-.29 1.17c-.2.78-.3 1.33-.3 1.66 0 .43.11.76.33.98.14.14.33.22.54.22.3 0 .6-.14.91-.43.23-.21.41-.46.54-.76s.29-.77.45-1.43.24-1.13.24-1.44z"/></g></g><g><path id="l" d="m95.49 61.09c0-.91.34-1.78 1.03-2.61.69-.82 1.46-1.24 2.32-1.25.46 0 .87.22 1.22.67.14-.27.35-.41.62-.41.12 0 .22.04.31.11s.14.16.14.27c0 .12-.17.84-.5 2.17s-.51 2.08-.52 2.25c0 .23.03.38.1.45.06.07.16.11.29.12.08 0 .17-.05.27-.12.19-.18.38-.62.56-1.3.05-.18.1-.28.14-.29.02 0 .06-.01.14-.01h.05c.17 0 .26.04.26.12 0 .05-.02.18-.07.37s-.14.43-.27.73-.28.52-.43.68c-.12.12-.26.21-.43.29-.07.02-.18.03-.33.03-.31 0-.57-.07-.77-.2s-.34-.28-.41-.42l-.08-.2s-.03 0-.05.01l-.05.05c-.53.51-1.08.76-1.63.76-.5 0-.94-.18-1.32-.54s-.57-.94-.57-1.72zm4.31-2.32c0-.05-.02-.15-.07-.3s-.15-.3-.31-.48-.37-.26-.62-.27c-.32 0-.62.14-.91.42s-.52.65-.68 1.1c-.26.71-.45 1.46-.56 2.23v.15c0 .07 0 .13-.01.16 0 .41.08.69.24.84s.36.24.58.24c.34 0 .68-.15 1.02-.45.33-.3.53-.53.6-.69.02-.04.14-.52.37-1.45s.34-1.43.35-1.51z"/><path id="m" d="m103.28 62.74v-.34c0-.23.07-.42.22-.58s.34-.24.58-.24.48.11.68.34.3.62.31 1.19c0 .32-.04.62-.12.92s-.18.56-.29.77-.23.4-.35.56-.24.28-.33.37-.15.13-.18.12c-.04 0-.1-.04-.18-.12s-.12-.14-.12-.18.05-.11.15-.22.21-.24.34-.41c.13-.16.24-.39.35-.68s.18-.62.22-.99v-.16h-.01s-.04.03-.07.04-.05.02-.08.04-.07.03-.12.03-.11 0-.16.01c-.24 0-.44-.08-.6-.23l-.24-.24z"/><path id="n" d="m109.25 54.44c0-.09.02-.19.05-.31s.09-.18.16-.18c0 0 .33-.02.98-.07.64-.05.97-.07.99-.08.11 0 .16.04.16.12s-.15.73-.46 1.94c-.07.31-.15.62-.23.95s-.15.57-.2.73l-.05.26s.03.01.08-.04c.44-.36.9-.54 1.37-.54.56 0 1.01.21 1.36.62s.52.94.53 1.57c0 1-.36 1.91-1.07 2.73s-1.48 1.22-2.31 1.22c-.45 0-.86-.17-1.24-.52-.37-.34-.56-.9-.57-1.67v-.12c0-.19.04-.45.11-.79s.29-1.23.67-2.67c.45-1.78.68-2.73.68-2.84s-.17-.17-.52-.19h-.35s-.06-.01-.1-.04-.05-.06-.04-.1zm3.57 4.37v-.08c0-.67-.28-1-.83-1-.15 0-.31.04-.48.11s-.31.17-.45.29-.25.23-.35.33-.18.2-.24.3l-.08.11-.29 1.17c-.2.78-.3 1.33-.3 1.66 0 .43.11.76.33.98.14.14.33.22.54.22.3 0 .6-.14.91-.43.23-.21.41-.46.54-.76s.29-.77.45-1.43.24-1.13.24-1.44z"/><path id="o" d="m118.99 59.83c0-1.1.37-2.01 1.11-2.71.74-.71 1.62-1.11 2.63-1.21h.23c.14 0 .33 0 .57-.01s.46 0 .68 0h1.34c.14.07.2.16.2.27 0 .08-.06.17-.18.26h-1.41c-1 .02-1.62.05-1.86.1-.44.11-.84.27-1.18.49s-.61.44-.8.67-.35.48-.49.75-.22.49-.24.65-.05.32-.07.46v.03h6.03c.14.07.2.16.2.27s-.07.2-.2.27h-6.03v.03c0 .19.05.42.14.69s.24.57.45.88c.21.32.5.61.87.87s.81.45 1.32.56c.24.05.87.09 1.87.1h1.41c.12.09.18.18.18.27 0 .11-.07.2-.2.27h-1.66c-.16 0-.29 0-.39.01-1.4 0-2.51-.39-3.33-1.17-.8-.74-1.19-1.67-1.19-2.78z"/><path id="p" d="m139.96 61.44c0 .05-.05.15-.16.3s-.29.32-.53.52-.52.39-.81.57c-.3.18-.68.33-1.14.46s-.93.19-1.4.19c-.51 0-1-.07-1.49-.22-.49-.14-.95-.37-1.38-.67s-.81-.7-1.13-1.19c-.32-.5-.53-1.07-.64-1.72-.05-.2-.07-.56-.07-1.09s.02-.89.07-1.09c.2-1.06.65-1.92 1.34-2.58.7-.66 1.59-1.06 2.69-1.19.03 0 .13 0 .31-.01s.32-.01.42-.01c.49.03.98.14 1.47.33s.86.29 1.11.3c.16 0 .28-.03.35-.1s.11-.14.12-.22.03-.15.07-.22.1-.1.19-.11c.1 0 .18.05.24.16v2.84l-.05.1c-.12.06-.23.07-.34.03-.04-.04-.08-.14-.14-.33s-.16-.38-.31-.61c-.3-.42-.7-.8-1.19-1.14-.5-.34-1.03-.52-1.59-.52h-.12c-.4 0-.77.17-1.11.52-.79.71-1.18 2.01-1.18 3.92 0 .79.1 1.5.29 2.13.37 1.35 1.15 2.02 2.33 2.02s2.23-.45 3.2-1.36c.15-.15.27-.23.34-.23.05 0 .1.02.15.05s.09.09.1.16zm-5.89-6.7c.13-.16.18-.24.15-.24-.21.07-.42.18-.64.31s-.46.32-.72.56-.49.55-.69.94-.34.82-.42 1.3c-.05.27-.07.6-.07.99s.02.72.07.99c.09.5.24.95.46 1.34s.45.71.69.92.48.4.72.54.43.24.58.3l.23.07c-.06-.06-.12-.13-.18-.19-.59-.57-.96-1.5-1.13-2.8-.03-.24-.04-.65-.04-1.22s.01-.98.04-1.22c.17-1.13.48-2 .94-2.59zm5.03.81v-.81s-.07.03-.11.03c-.09.04-.19.05-.31.05h-.2l.18.19c.18.2.28.32.3.35l.15.19z"/></g></g></g></g></svg>
