<svg xmlns="http://www.w3.org/2000/svg" viewBox="0 0 6.42 13.56"><path d="M0 8.05c0-.91.34-1.78 1.03-2.61.69-.82 1.46-1.24 2.32-1.25.46 0 .87.22 1.22.67.14-.27.35-.41.62-.41.12 0 .22.04.31.11s.14.16.14.27c0 .12-.17.84-.5 2.17s-.51 2.08-.52 2.25c0 .23.03.38.1.45.06.07.16.11.29.12.08 0 .17-.05.27-.12.19-.18.38-.62.56-1.3.05-.18.1-.28.14-.29.02 0 .06-.01.14-.01h.05c.17 0 .26.04.26.12 0 .05-.02.18-.07.37s-.14.43-.27.73-.28.52-.43.68c-.12.12-.26.21-.43.29q-.105.03-.33.03c-.31 0-.57-.07-.77-.2s-.34-.28-.41-.42l-.08-.2s-.03 0-.05.01l-.05.05c-.53.51-1.08.76-1.63.76q-.75 0-1.32-.54C.21 9.42.02 8.84.02 8.06Zm4.32-2.32c0-.05-.02-.15-.07-.3s-.15-.3-.31-.48-.37-.26-.62-.27c-.32 0-.62.14-.91.42s-.52.65-.68 1.1c-.26.71-.45 1.46-.56 2.23v.15c0 .07 0 .13-.01.16q0 .615.24.84c.24.225.36.24.58.24q.51 0 1.02-.45.495-.45.6-.69c.02-.04.14-.52.37-1.45s.34-1.43.35-1.51Z"/></svg>