<svg xmlns="http://www.w3.org/2000/svg" viewBox="0 0 5.19 13.56"><path d="M.45 1.4c0-.09.02-.19.05-.31S.59.91.66.91c0 0 .33-.02.98-.07.64-.05.97-.07.99-.08.11 0 .16.04.16.12s-.15.73-.46 1.94c-.07.31-.15.62-.23.95s-.15.57-.2.73l-.05.26s.03.01.08-.04c.44-.36.9-.54 1.37-.54.56 0 1.01.21 1.36.62s.52.94.53 1.57c0 1-.36 1.91-1.07 2.73s-1.48 1.22-2.31 1.22c-.45 0-.86-.17-1.24-.52C.2 9.46.01 8.9 0 8.13v-.12c0-.19.04-.45.11-.79S.4 5.99.78 4.55c.45-1.78.68-2.73.68-2.84s-.17-.17-.52-.19H.59s-.06-.01-.1-.04-.05-.06-.04-.1Zm3.57 4.37v-.08c0-.67-.28-1-.83-1-.15 0-.31.04-.48.11s-.31.17-.45.29-.25.23-.35.33-.18.2-.24.3l-.08.11L1.3 7c-.2.78-.3 1.33-.3 1.66 0 .43.11.76.33.98.14.14.33.22.54.22.3 0 .6-.14.91-.43.23-.21.41-.46.54-.76s.29-.77.45-1.43.24-1.13.24-1.44Z"/></svg>