<svg xmlns="http://www.w3.org/2000/svg" viewBox="0 0 5.29 13.56"><path d="M0 7.9c0-.52.09-.99.26-1.41.17-.43.39-.78.67-1.06s.57-.52.91-.71.65-.33.95-.42.58-.13.86-.12h.04c.41 0 .76.1 1.06.3s.45.49.45.88c0 .81-.5 1.35-1.51 1.6-.44.12-1.05.18-1.82.19-.33 0-.51 0-.52.03 0 .02-.03.18-.08.48s-.09.56-.1.79c0 .43.1.76.29 1s.48.37.86.38.8-.08 1.26-.26.88-.48 1.25-.9c.08-.09.14-.14.16-.14q.06 0 .18.12c.12.12.13.14.14.19s-.03.12-.12.22-.23.22-.41.37c-.18.14-.39.29-.62.42s-.52.25-.86.34-.68.14-1.03.14c-.71 0-1.27-.24-1.66-.72Q.025 8.89.01 7.9Zm4.53-2.51c-.05-.47-.36-.71-.92-.71-.3 0-.57.06-.83.19-.25.13-.46.28-.61.46s-.29.37-.39.56-.18.35-.22.49-.06.22-.07.26c0 0 .09.01.27.01 1.02 0 1.74-.11 2.14-.33s.62-.53.62-.94Z"/></svg>