<svg xmlns="http://www.w3.org/2000/svg" viewBox="0 0 3.81 13.56"><path d="M2.21 2.04c0-.22.09-.41.26-.57s.37-.25.6-.26c.16 0 .3.05.41.16s.17.24.18.41q0 .315-.27.57c-.27.255-.38.26-.6.27-.14 0-.26-.05-.38-.14s-.18-.24-.19-.45ZM0 6.28q0-.105.12-.42c.12-.315.19-.44.33-.69s.33-.48.6-.69.53-.31.81-.3c.35 0 .65.1.88.31s.36.49.37.84c0 .15-.06.41-.19.76s-.31.83-.54 1.43-.43 1.11-.57 1.53c-.05.2-.07.34-.07.43 0 .23.08.34.23.34.08 0 .17-.01.26-.04s.19-.09.31-.19.24-.26.37-.48.24-.48.34-.8c.03-.11.05-.17.07-.19s.1-.03.23-.03c.18 0 .27.05.27.14q0 .105-.12.42c-.12.315-.19.44-.34.69-.14.25-.35.48-.61.68q-.39.3-.84.3c-.45 0-.56-.1-.8-.29s-.37-.48-.38-.87c0-.15.02-.3.07-.43s.24-.65.58-1.55c.34-.91.54-1.46.6-1.64s.09-.36.1-.53c0-.22-.08-.33-.23-.33h-.03q-.405 0-.75.45c-.345.45-.4.68-.52 1.14 0 0-.02.02-.03.04s-.01.03-.01.04 0 .02-.03.03-.03.01-.04.01H.08C.03 6.34 0 6.29 0 6.27Z"/></svg>