<svg xmlns="http://www.w3.org/2000/svg" viewBox="0 0 7.59 13.56"><path d="M0 6.28c0-.05.02-.13.04-.22s.07-.26.16-.52c.09-.25.18-.47.27-.64s.24-.34.45-.5.42-.24.62-.23q.495 0 .81.24c.315.24.35.32.41.46s.08.24.08.29c0 .02 0 .03.01.03L3 5.04q.825-.87 1.89-.87c.49 0 .88.12 1.18.37s.45.6.46 1.07-.16 1.18-.52 2.13-.52 1.52-.52 1.72c0 .24.08.35.23.35.05 0 .1 0 .12-.01.26-.05.5-.22.71-.52s.37-.66.48-1.09c.02-.07.11-.11.27-.11.18 0 .27.04.27.11l-.05.2c-.07.26-.17.52-.3.77s-.33.51-.62.76-.6.38-.94.37c-.43 0-.73-.12-.92-.37s-.29-.5-.29-.76c0-.17.16-.71.49-1.63.33-.91.49-1.6.5-2.06 0-.53-.2-.8-.6-.8h-.07c-.78 0-1.43.46-1.97 1.37l-.1.16-.45 1.82c-.3 1.19-.47 1.82-.52 1.91-.12.24-.31.37-.58.37-.12 0-.21-.03-.29-.08s-.12-.11-.15-.16-.04-.1-.03-.14c0-.12.17-.86.52-2.21.34-1.36.52-2.09.54-2.21 0-.05.01-.15.01-.31 0-.35-.11-.53-.33-.53-.34 0-.63.45-.86 1.36-.05.18-.08.28-.08.29-.02.05-.1.08-.26.08H.08C.03 6.34 0 6.29 0 6.27Z"/></svg>