<svg xmlns="http://www.w3.org/2000/svg" viewBox="0 0 6.61 13.56"><path d="M.23 6.26c.06-.38.31-.82.73-1.32.43-.5.95-.75 1.57-.76q.48 0 .87.24c.39.24.46.37.58.61.38-.57.84-.86 1.37-.86q.495 0 .87.3c.375.3.37.47.38.8 0 .26-.06.48-.19.64s-.25.26-.37.3-.22.05-.31.05q-.255 0-.42-.15c-.165-.15-.16-.23-.16-.39 0-.42.23-.7.68-.86q-.15-.18-.54-.18c-.12 0-.2 0-.26.03-.34.14-.6.44-.76.9-.54 2-.81 3.17-.81 3.5 0 .25.07.43.22.54s.3.16.48.16c.33 0 .67-.15.99-.45s.55-.67.67-1.1c.03-.09.05-.14.08-.15s.1-.02.22-.03h.05c.14 0 .2.04.2.11 0 0 0 .06-.03.15-.14.52-.43.97-.84 1.37-.42.4-.9.6-1.45.6-.63 0-1.11-.29-1.44-.86-.37.56-.8.84-1.28.84h-.08c-.44 0-.76-.12-.95-.35-.19-.24-.29-.48-.3-.75 0-.29.09-.52.26-.71a.82.82 0 0 1 .61-.27c.39 0 .58.19.58.57 0 .18-.05.34-.16.48s-.21.23-.31.27-.16.07-.18.07H.76s.03.04.08.07.13.06.22.1.18.05.26.04c.33 0 .61-.2.84-.61.08-.14.19-.45.31-.92.13-.47.25-.96.38-1.47s.2-.81.22-.9c.05-.24.07-.42.07-.53 0-.25-.07-.43-.2-.54s-.29-.16-.46-.16c-.36 0-.7.14-1.02.43s-.54.66-.67 1.11c-.02.08-.04.13-.07.14s-.1.02-.22.03H.31c-.05-.05-.08-.1-.08-.15Z"/></svg>